<svg width="793" height="149" viewBox="0 0 793 149" fill="none" xmlns="http://www.w3.org/2000/svg">
<path d="M74.8606 89.928C67.1257 93.1509 56.3292 94.9234 46.9829 94.9234C35.0583 94.9234 31.352 86.2217 31.352 74.2971C31.352 54.96 38.2812 26.5989 58.9075 26.5989C68.2537 26.5989 77.1166 28.6937 83.8846 31.9166L88.2355 7.10058C79.5337 3.87772 71.4766 2.2663 60.5189 2.2663C21.2 2.2663 0.412598 36.7509 0.412598 76.0697C0.412598 102.014 15.7212 119.256 43.1155 119.256C54.0732 119.256 60.8412 117.645 70.5097 114.744L74.8606 89.928Z" fill="white"/>
<path d="M171.875 34.8172H146.253C144.964 37.3954 144.319 39.6514 143.675 42.552C140.774 38.04 135.779 32.5611 123.693 32.5611C98.5549 32.5611 85.0189 55.4434 85.0189 85.7383C85.0189 105.398 94.6875 119.256 111.446 119.256C121.276 119.256 130.622 112.649 133.845 107.493C133.684 108.459 133.523 111.038 133.523 113.455C133.523 114.744 133.684 116.033 133.845 117H157.372L171.875 34.8172ZM137.068 67.6903C137.068 81.2263 131.911 96.0514 122.243 96.0514C116.442 96.0514 113.863 91.8617 113.863 84.1269C113.863 70.5909 119.02 55.7657 128.689 55.7657C134.49 55.7657 137.068 60.2777 137.068 67.6903Z" fill="white"/>
<path d="M231.661 32.5611C220.864 32.5611 210.712 39.168 207.167 44.4857C207.328 43.8411 207.489 41.424 207.489 38.8457C207.489 37.3954 207.328 35.9452 207.167 34.8172H183.64L169.298 117H197.821L204.75 77.0366C207.489 61.2446 212.162 56.088 219.253 56.088C224.409 56.088 225.698 59.7943 225.698 63.984C225.698 66.5623 225.376 69.9463 224.57 74.4583L217.158 117H245.68L253.898 69.9463C255.027 63.8229 255.671 58.5052 255.671 53.832C255.671 38.04 245.841 32.5611 231.661 32.5611Z" fill="white"/>
<path d="M319.125 32.5611C308.329 32.5611 298.177 39.168 294.632 44.4857C294.793 43.8411 294.954 41.424 294.954 38.8457C294.954 37.3954 294.793 35.9452 294.632 34.8172H271.105L256.763 117H285.285L292.215 77.0366C294.954 61.2446 299.627 56.088 306.717 56.088C311.874 56.088 313.163 59.7943 313.163 63.984C313.163 66.5623 312.841 69.9463 312.035 74.4583L304.623 117H333.145L341.363 69.9463C342.491 63.8229 343.136 58.5052 343.136 53.832C343.136 38.04 333.306 32.5611 319.125 32.5611Z" fill="white"/>
<path d="M436.645 34.8172H411.023C409.734 37.3954 409.089 39.6514 408.445 42.552C405.544 38.04 400.549 32.5611 388.463 32.5611C363.325 32.5611 349.789 55.4434 349.789 85.7383C349.789 105.398 359.457 119.256 376.216 119.256C386.046 119.256 395.392 112.649 398.615 107.493C398.454 108.459 398.293 111.038 398.293 113.455C398.293 114.744 398.454 116.033 398.615 117H422.142L436.645 34.8172ZM401.838 67.6903C401.838 81.2263 396.681 96.0514 387.013 96.0514C381.212 96.0514 378.633 91.8617 378.633 84.1269C378.633 70.5909 383.79 55.7657 393.459 55.7657C399.26 55.7657 401.838 60.2777 401.838 67.6903Z" fill="white"/>
<path d="M439.389 109.587C448.413 115.066 463.238 119.256 478.064 119.256C504.169 119.256 525.278 107.009 525.278 80.5817C525.278 64.9509 513.837 55.7657 500.14 49.8034L494.984 47.5474C489.021 44.9691 482.737 41.2629 482.737 35.784C482.737 29.9829 487.571 26.5989 494.984 26.5989C505.941 26.5989 517.544 30.144 527.212 34.9783L531.724 9.51772C521.733 5.00572 508.842 2.2663 495.95 2.2663C467.912 2.2663 451.314 15.3189 451.314 38.5234C451.314 56.088 465.011 65.112 478.708 71.0743L483.865 73.3303C489.021 75.5863 493.856 78.8091 493.856 83.6434C493.856 90.7337 488.216 94.9234 478.869 94.9234C465.978 94.9234 453.086 88.8 444.062 83.3212L439.389 109.587Z" fill="white"/>
<path d="M577.461 117H605.984L614.202 69.9463C615.33 63.8229 615.975 58.344 615.975 53.6709C615.975 38.04 606.145 32.5611 591.964 32.5611C583.263 32.5611 576.333 36.5897 571.499 40.4571L578.589 0.332581H550.067L529.602 117H558.124L565.053 77.0366C567.793 61.2446 572.466 56.088 579.556 56.088C584.713 56.088 586.002 59.9554 586.002 63.984C586.002 66.5623 585.68 69.9463 584.874 74.4583L577.461 117Z" fill="white"/>
<path d="M673.533 67.6903C673.533 79.9372 669.343 96.0514 659.352 96.0514C654.196 96.0514 651.779 90.8949 651.779 84.1269C651.779 71.88 655.968 55.7657 665.959 55.7657C671.116 55.7657 673.533 60.9223 673.533 67.6903ZM702.378 66.0789C702.378 46.4194 689.808 32.5611 668.215 32.5611C638.243 32.5611 622.934 55.4434 622.934 85.7383C622.934 105.398 635.503 119.256 657.096 119.256C687.069 119.256 702.378 96.3737 702.378 66.0789Z" fill="white"/>
<path d="M700.03 148.906H728.391L734.837 111.521C737.415 115.066 742.733 119.256 753.69 119.256C778.829 119.256 792.365 96.3737 792.365 66.0789C792.365 46.4194 782.696 32.5611 765.937 32.5611C755.946 32.5611 746.761 39.168 743.377 44.3246C743.538 43.5189 743.861 40.9406 743.861 38.3623C743.861 37.0732 743.7 35.784 743.538 34.8172H720.012L700.03 148.906ZM740.316 84.1269C740.316 70.5909 745.472 55.7657 755.141 55.7657C760.942 55.7657 763.52 59.9554 763.52 67.6903C763.52 81.2263 758.364 96.0514 748.695 96.0514C742.894 96.0514 740.316 91.5394 740.316 84.1269Z" fill="white"/>
</svg>
