<svg width="1268" height="204" viewBox="0 0 1268 204" fill="none" xmlns="http://www.w3.org/2000/svg">
<path d="M91.4407 203.92C112.161 203.92 123.641 201.96 140.441 197.76V154.64C127.001 159.68 110.481 161.64 93.6807 161.64C63.4407 161.64 56.7207 134.48 56.7207 102C56.7207 69.52 63.4407 42.92 93.6807 42.92C110.481 42.92 127.001 44.88 140.441 49.92V6.79999C123.641 2.59999 112.161 0.640015 91.4407 0.640015C29.8407 0.640015 0.720703 39.28 0.720703 102C0.720703 164.72 29.8407 203.92 91.4407 203.92ZM215.361 200C217.601 187.68 221.521 173.96 226.001 158.84H278.641C283.121 173.96 287.041 187.68 289.281 200H345.561C334.361 149.6 295.721 35.36 281.161 4.56H223.481C208.921 35.36 170.281 149.6 159.081 200H215.361ZM268.841 117.12H235.801C238.601 103.68 248.401 70.64 252.321 58.88C256.241 70.64 266.041 103.68 268.841 117.12ZM412.401 200V83.52C430.881 109.28 467.841 168.64 482.961 200H531.961V4.56H482.961V112.08C472.321 91.92 430.321 27.52 410.721 4.56H363.401V200H412.401ZM604.161 200V83.52C622.641 109.28 659.601 168.64 674.721 200H723.721V4.56H674.721V112.08C664.081 91.92 622.081 27.52 602.481 4.56H555.161V200H604.161ZM799.841 200C802.081 187.68 806.001 173.96 810.481 158.84H863.121C867.601 173.96 871.521 187.68 873.761 200H930.041C918.841 149.6 880.201 35.36 865.641 4.56H807.961C793.401 35.36 754.761 149.6 743.561 200H799.841ZM853.321 117.12H820.281C823.081 103.68 832.881 70.64 836.801 58.88C840.721 70.64 850.521 103.68 853.321 117.12ZM1020.92 203.92C1041.64 203.92 1053.12 201.96 1069.92 197.76V154.64C1056.48 159.68 1039.96 161.64 1023.16 161.64C992.921 161.64 986.201 134.48 986.201 102C986.201 69.52 992.921 42.92 1023.16 42.92C1039.96 42.92 1056.48 44.88 1069.92 49.92V6.79999C1053.12 2.59999 1041.64 0.640015 1020.92 0.640015C959.321 0.640015 930.201 39.28 930.201 102C930.201 164.72 959.321 203.92 1020.92 203.92ZM1176.56 203.92C1235.36 203.92 1267.28 162.2 1267.28 102.28C1267.28 42.36 1235.36 0.640015 1176.56 0.640015C1117.76 0.640015 1085.84 42.36 1085.84 102.28C1085.84 162.2 1117.76 203.92 1176.56 203.92ZM1176.56 161.64C1150.24 161.64 1141.84 133.64 1141.84 102.28C1141.84 70.92 1150.24 42.92 1176.56 42.92C1202.88 42.92 1211.28 70.92 1211.28 102.28C1211.28 133.64 1202.88 161.64 1176.56 161.64Z" fill="#FED202"/>
</svg>
