<svg width="1520" height="190" viewBox="0 0 1520 190" fill="none" xmlns="http://www.w3.org/2000/svg">
<path d="M130.58 143.88C118.1 148.56 102.76 150.38 87.16 150.38C59.08 150.38 52.84 125.16 52.84 95C52.84 64.84 59.08 40.14 87.16 40.14C102.76 40.14 118.1 41.96 130.58 46.64V6.59999C114.98 2.69999 104.32 0.879997 85.08 0.879997C27.88 0.879997 0.84 36.76 0.84 95C0.84 153.24 27.88 189.64 85.08 189.64C104.32 189.64 114.98 187.82 130.58 183.92V143.88ZM208.184 4.52C194.664 33.12 158.784 139.2 148.384 186H200.644C202.724 174.56 206.364 161.82 210.524 147.78H259.404C263.564 161.82 267.204 174.56 269.284 186H321.544C311.144 139.2 275.264 33.12 261.744 4.52H208.184ZM234.964 54.96C238.604 65.88 247.704 96.56 250.304 109.04H219.624C222.224 96.56 231.324 65.88 234.964 54.96ZM341.73 186H387.23V77.84C404.39 101.76 438.71 156.88 452.75 186H498.25V4.52H452.75V104.36C442.87 85.64 403.87 25.84 385.67 4.52H341.73V186ZM524.299 186H569.799V77.84C586.959 101.76 621.279 156.88 635.319 186H680.819V4.52H635.319V104.36C625.439 85.64 586.439 25.84 568.239 4.52H524.299V186ZM760.948 4.52C747.428 33.12 711.548 139.2 701.148 186H753.408C755.488 174.56 759.128 161.82 763.288 147.78H812.168C816.328 161.82 819.968 174.56 822.048 186H874.308C863.908 139.2 828.028 33.12 814.508 4.52H760.948ZM787.728 54.96C791.368 65.88 800.468 96.56 803.068 109.04H772.388C774.988 96.56 784.088 65.88 787.728 54.96ZM1007.07 143.88C994.595 148.56 979.255 150.38 963.655 150.38C935.575 150.38 929.335 125.16 929.335 95C929.335 64.84 935.575 40.14 963.655 40.14C979.255 40.14 994.595 41.96 1007.07 46.64V6.59999C991.475 2.69999 980.815 0.879997 961.575 0.879997C904.375 0.879997 877.335 36.76 877.335 95C877.335 153.24 904.375 189.64 961.575 189.64C980.815 189.64 991.475 187.82 1007.07 183.92V143.88ZM1142.92 95.26C1142.92 124.38 1135.12 150.38 1110.68 150.38C1086.24 150.38 1078.44 124.38 1078.44 95.26C1078.44 66.14 1086.24 40.14 1110.68 40.14C1135.12 40.14 1142.92 66.14 1142.92 95.26ZM1194.92 95.26C1194.92 39.62 1165.28 0.879997 1110.68 0.879997C1056.08 0.879997 1026.44 39.62 1026.44 95.26C1026.44 150.9 1056.08 189.64 1110.68 189.64C1165.28 189.64 1194.92 150.9 1194.92 95.26ZM1216.71 186H1267.41V150.12C1267.41 131.4 1271.31 128.54 1275.47 127.5C1276.51 127.24 1280.41 126.2 1280.93 126.2C1290.29 138.68 1305.63 165.2 1314.47 186H1370.37C1358.93 160.52 1342.55 131.4 1326.95 113.72C1345.15 105.4 1359.19 90.32 1359.19 64.32C1359.19 19.08 1330.59 1.92 1278.59 1.92C1263.77 1.92 1237.25 2.69999 1216.71 6.07999V186ZM1267.41 41.18C1271.05 40.66 1273.13 40.4 1277.81 40.4C1298.61 40.4 1307.71 49.76 1307.71 64.32C1307.71 79.4 1297.05 87.46 1282.49 89.02C1275.73 89.8 1271.05 90.58 1267.41 92.14V41.18ZM1392.16 186H1519.04V146.74H1442.6V112.42H1508.38V73.68H1442.6V43.78H1519.04V4.52H1392.16V186Z" fill="white"/>
</svg>
