<svg width="1005" height="161" viewBox="0 0 1005 161" fill="none" xmlns="http://www.w3.org/2000/svg">
<path d="M110.26 121.36C99.7005 125.32 86.7205 126.86 73.5205 126.86C49.7605 126.86 44.4805 105.52 44.4805 79.9999C44.4805 54.4799 49.7605 33.5799 73.5205 33.5799C86.7205 33.5799 99.7005 35.1199 110.26 39.0799V5.19986C97.0605 1.89986 88.0405 0.359863 71.7605 0.359863C23.3605 0.359863 0.480469 30.7199 0.480469 79.9999C0.480469 129.28 23.3605 160.08 71.7605 160.08C88.0405 160.08 97.0605 158.54 110.26 155.24V121.36Z" fill="white"/>
<path d="M175.325 3.43986C163.885 27.6399 133.525 117.4 124.725 157H168.945C170.705 147.32 173.785 136.54 177.305 124.66H218.665C222.185 136.54 225.265 147.32 227.025 157H271.245C262.445 117.4 232.085 27.6399 220.645 3.43986H175.325ZM197.985 46.1199C201.065 55.3599 208.765 81.3199 210.965 91.8799H185.005C187.205 81.3199 194.905 55.3599 197.985 46.1199Z" fill="white"/>
<path d="M287.326 157H325.826V65.4799C340.346 85.7199 369.386 132.36 381.266 157H419.766V3.43986H381.266V87.9199C372.906 72.0799 339.906 21.4799 324.506 3.43986H287.326V157Z" fill="white"/>
<path d="M438.607 157H477.107V65.4799C491.627 85.7199 520.668 132.36 532.548 157H571.048V3.43986H532.548V87.9199C524.188 72.0799 491.187 21.4799 475.787 3.43986H438.607V157Z" fill="white"/>
<path d="M638.849 3.43986C627.409 27.6399 597.049 117.4 588.249 157H632.469C634.229 147.32 637.309 136.54 640.829 124.66H682.189C685.709 136.54 688.789 147.32 690.549 157H734.769C725.969 117.4 695.609 27.6399 684.169 3.43986H638.849ZM661.509 46.1199C664.589 55.3599 672.289 81.3199 674.489 91.8799H648.529C650.729 81.3199 658.429 55.3599 661.509 46.1199Z" fill="white"/>
<path d="M847.71 121.36C837.15 125.32 824.17 126.86 810.97 126.86C787.21 126.86 781.93 105.52 781.93 79.9999C781.93 54.4799 787.21 33.5799 810.97 33.5799C824.17 33.5799 837.15 35.1199 847.71 39.0799V5.19986C834.51 1.89986 825.49 0.359863 809.21 0.359863C760.81 0.359863 737.93 30.7199 737.93 79.9999C737.93 129.28 760.81 160.08 809.21 160.08C825.49 160.08 834.51 158.54 847.71 155.24V121.36Z" fill="white"/>
<path d="M960.455 80.2199C960.455 104.86 953.855 126.86 933.175 126.86C912.495 126.86 905.895 104.86 905.895 80.2199C905.895 55.5799 912.495 33.5799 933.175 33.5799C953.855 33.5799 960.455 55.5799 960.455 80.2199ZM1004.45 80.2199C1004.45 33.1399 979.375 0.359863 933.175 0.359863C886.975 0.359863 861.895 33.1399 861.895 80.2199C861.895 127.3 886.975 160.08 933.175 160.08C979.375 160.08 1004.45 127.3 1004.45 80.2199Z" fill="white"/>
</svg>
