<svg width="150" height="24" viewBox="0 0 150 24" fill="none" xmlns="http://www.w3.org/2000/svg">
<path d="M10.6837 24C13.1239 24 14.4758 23.7686 16.4543 23.2727V18.1818C14.8715 18.7769 12.926 19.0083 10.9475 19.0083C7.38627 19.0083 6.59488 15.8017 6.59488 11.9669C6.59488 8.13223 7.38627 4.99173 10.9475 4.99173C12.926 4.99173 14.8715 5.22314 16.4543 5.81818V0.72727C14.4758 0.231402 13.1239 0 10.6837 0C3.42934 0 0 4.56198 0 11.9669C0 19.3719 3.42934 24 10.6837 24ZM25.2773 23.5372C25.5411 22.0826 26.0027 20.4628 26.5303 18.6777H32.7295C33.2571 20.4628 33.7187 22.0826 33.9825 23.5372H40.6104C39.2914 17.5868 34.7409 4.09917 33.0263 0.462808H26.2335C24.5189 4.09917 19.9684 17.5868 18.6494 23.5372H25.2773ZM31.5754 13.7521H27.6844C28.0142 12.1653 29.1683 8.26446 29.6299 6.87603C30.0916 8.26446 31.2457 12.1653 31.5754 13.7521ZM48.4819 23.5372V9.78512C50.6582 12.8264 55.0108 19.8347 56.7914 23.5372H62.5619V0.462808H56.7914V13.157C55.5384 10.7769 50.5922 3.17355 48.284 0.462808H42.7113V23.5372H48.4819ZM71.0646 23.5372V9.78512C73.2409 12.8264 77.5936 19.8347 79.3742 23.5372H85.1447V0.462808H79.3742V13.157C78.1212 10.7769 73.175 3.17355 70.8668 0.462808H65.2941V23.5372H71.0646ZM94.109 23.5372C94.3728 22.0826 94.8345 20.4628 95.3621 18.6777H101.561C102.089 20.4628 102.551 22.0826 102.814 23.5372H109.442C108.123 17.5868 103.573 4.09917 101.858 0.462808H95.0653C93.3506 4.09917 88.8002 17.5868 87.4812 23.5372H94.109ZM100.407 13.7521H96.5162C96.8459 12.1653 98 8.26446 98.4617 6.87603C98.9233 8.26446 100.077 12.1653 100.407 13.7521ZM120.145 24C122.585 24 123.937 23.7686 125.915 23.2727V18.1818C124.332 18.7769 122.387 19.0083 120.408 19.0083C116.847 19.0083 116.056 15.8017 116.056 11.9669C116.056 8.13223 116.847 4.99173 120.408 4.99173C122.387 4.99173 124.332 5.22314 125.915 5.81818V0.72727C123.937 0.231402 122.585 0 120.145 0C112.89 0 109.461 4.56198 109.461 11.9669C109.461 19.3719 112.89 24 120.145 24ZM138.474 24C145.398 24 149.157 19.0744 149.157 12C149.157 4.92562 145.398 0 138.474 0C131.549 0 127.79 4.92562 127.79 12C127.79 19.0744 131.549 24 138.474 24ZM138.474 19.0083C135.374 19.0083 134.385 15.7025 134.385 12C134.385 8.29752 135.374 4.99173 138.474 4.99173C141.573 4.99173 142.562 8.29752 142.562 12C142.562 15.7025 141.573 19.0083 138.474 19.0083Z" fill="#003317"/>
</svg>
