<?xml version="1.0" encoding="UTF-8"?>
<svg width="24px" height="24px" viewBox="0 0 24 24" version="1.1" xmlns="http://www.w3.org/2000/svg" xmlns:xlink="http://www.w3.org/1999/xlink">
    <!-- Generator: Sketch 51.3 (57544) - http://www.bohemiancoding.com/sketch -->
    <title>icon strain flavor / ammonia</title>
    <desc>Created with Sketch.</desc>
    <defs></defs>
    <g id="icon-strain-flavor-/-ammonia" stroke="none" stroke-width="1" fill="none" fill-rule="evenodd">
        <path d="M22.6153846,10.6153846 L16.4566154,10.6153846 C16.1704615,10.6153846 16.0578462,10.3970769 16.0301538,10.3306154 C16.0029231,10.2636923 15.9281538,10.0301538 16.1303077,9.82753846 L20.4853846,5.47246154 C21.0253846,4.93246154 21.0253846,4.05461538 20.4853846,3.51461538 C19.9624615,2.99169231 19.05,2.99169231 18.5275385,3.51461538 L14.1724615,7.86969231 C14.0593846,7.98276923 13.9356923,8.00676923 13.8526154,8.00676923 C13.7326154,8.00676923 13.6130769,7.95923077 13.5249231,7.87707692 C13.4607692,7.81707692 13.3846154,7.71092308 13.3846154,7.54338462 L13.3846154,1.38461538 C13.3846154,0.621230769 12.7633846,0 12,0 C11.2366154,0 10.6153846,0.621230769 10.6153846,1.38461538 L10.6153846,7.54338462 C10.6153846,7.83323077 10.3772308,8.00676923 10.1469231,8.00676923 C10.0643077,8.00676923 9.94061538,7.98276923 9.82753846,7.86969231 L5.47246154,3.51461538 C4.95,2.99169231 4.03753846,2.99169231 3.51461538,3.51461538 C2.97461538,4.05461538 2.97461538,4.93246154 3.51461538,5.47246154 L7.86969231,9.82753846 C8.07184615,10.0301538 7.99707692,10.2636923 7.96984615,10.3306154 C7.94215385,10.3970769 7.82953846,10.6153846 7.54338462,10.6153846 L1.38461538,10.6153846 C0.621230769,10.6153846 0,11.2366154 0,12 C0,12.7633846 0.621230769,13.3846154 1.38461538,13.3846154 L7.54338462,13.3846154 C7.82953846,13.3846154 7.94215385,13.6029231 7.96984615,13.6693846 C7.99707692,13.7363077 8.07184615,13.9703077 7.86969231,14.1724615 L3.51461538,18.5275385 C2.97461538,19.0675385 2.97461538,19.9453846 3.51461538,20.4853846 C4.03753846,21.0083077 4.95,21.0083077 5.47246154,20.4853846 L9.82753846,16.1303077 C9.94061538,16.0172308 10.0643077,15.9932308 10.1473846,15.9932308 C10.3772308,15.9932308 10.6153846,16.1667692 10.6153846,16.4566154 L10.6153846,22.6153846 C10.6153846,23.3787692 11.2366154,24 12,24 C12.7633846,24 13.3846154,23.3787692 13.3846154,22.6153846 L13.3846154,16.4566154 C13.3846154,16.1667692 13.6227692,15.9932308 13.8526154,15.9932308 C13.9356923,15.9932308 14.0593846,16.0172308 14.1724615,16.1303077 L18.5275385,20.4853846 C19.05,21.0083077 19.9624615,21.0083077 20.4853846,20.4853846 C21.0253846,19.9453846 21.0253846,19.0675385 20.4853846,18.5275385 L16.1303077,14.1724615 C15.9281538,13.9703077 16.0029231,13.7363077 16.0301538,13.6693846 C16.0578462,13.6029231 16.1704615,13.3846154 16.4566154,13.3846154 L22.6153846,13.3846154 C23.3787692,13.3846154 24,12.7633846 24,12 C24,11.2366154 23.3787692,10.6153846 22.6153846,10.6153846" id="Path" fill="#FFFFFF" fill-rule="nonzero"></path>
    </g>
</svg>