<?xml version="1.0" encoding="UTF-8"?>
<svg width="24px" height="24px" viewBox="0 0 24 24" version="1.1" xmlns="http://www.w3.org/2000/svg" xmlns:xlink="http://www.w3.org/1999/xlink">
    <!-- Generator: Sketch 51.3 (57544) - http://www.bohemiancoding.com/sketch -->
    <title>icon strain flavor / ammonia alt 3</title>
    <desc>Created with Sketch.</desc>
    <defs></defs>
    <g id="icon-strain-flavor-/-ammonia-alt-3" stroke="none" stroke-width="1" fill="none" fill-rule="evenodd">
        <g id="Group" transform="translate(0.000000, 1.000000)" fill="#FFFFFF" fill-rule="nonzero">
            <path d="M10.2593407,10.1538462 C9.67912088,8.72967033 9.86373626,7.33186813 10.021978,6.61978022 C10.1010989,6.27692308 9.91648352,5.93406593 9.6,5.8021978 L7.91208791,5.11648352 C7.83296703,5.09010989 7.72747253,5.06373626 7.64835165,5.06373626 C7.38461538,5.06373626 7.14725275,5.1956044 7.01538462,5.43296703 C6.54065934,6.27692308 5.56483516,7.93846154 4.27252747,9.49450549 C2.58461538,11.578022 0.474725275,16.2989011 0.237362637,19.4637363 C0.210989011,19.9384615 0.474725275,20.3868132 0.923076923,20.5714286 L5.6967033,22.4967033 C5.82857143,22.5494505 5.98681319,22.5758242 6.11868132,22.5758242 C6.46153846,22.5758242 6.8043956,22.4175824 7.01538462,22.1274725 L7.09450549,22.021978 C7.96483516,20.8879121 9.25714286,19.2 10.4967033,15.0593407 C10.9450549,13.5296703 10.9186813,11.8681319 10.3648352,10.3912088 C10.3384615,10.3384615 10.2857143,10.2593407 10.2593407,10.1538462 Z M9.73186813,14.8747253 C8.54505495,18.8571429 7.27912088,20.4923077 6.46153846,21.5736264 L6.38241758,21.6791209 C6.3032967,21.7846154 6.14505495,21.8373626 5.98681319,21.7846154 L1.23956044,19.832967 C1.10769231,19.7802198 1.02857143,19.6483516 1.02857143,19.5164835 C1.26593407,16.5362637 3.2967033,11.9472527 4.90549451,9.9956044 C6.1978022,8.41318681 7.2,6.75164835 7.67472527,5.88131868 L8.01758242,6.01318681 C7.7010989,6.98901099 6.93626374,9.70549451 7.25274725,13.0021978 L4.08791209,13.0021978 C3.82417582,13.0021978 3.56043956,13.1604396 3.45494505,13.3978022 C2.24175824,15.9824176 1.71428571,17.7758242 1.58241758,18.6461538 C1.52967033,18.9626374 1.71428571,19.3054945 2.03076923,19.410989 L5.59120879,20.9406593 C5.88131868,21.0725275 6.1978022,20.9934066 6.43516484,20.756044 C8.2021978,18.9098901 9.23076923,14.821978 9.54725275,13.4505495 C9.6,13.2131868 9.41538462,12.9758242 9.17802198,12.9758242 L7.96483516,12.9758242 C7.64835165,9.83736264 8.36043956,7.2 8.67692308,6.25054945 L9.28351648,6.48791209 C9.0989011,7.30549451 8.91428571,8.83516484 9.57362637,10.4175824 C9.6,10.4967033 9.65274725,10.6021978 9.67912088,10.6813187 C10.1010989,12.0263736 10.1274725,13.5032967 9.73186813,14.8747253 Z" id="Shape"></path>
            <polygon id="Path" points="15.0065934 3.63956044 15.243956 3.00659341 14.4527473 2.13626374 13.8197802 3.66593407"></polygon>
            <path d="M13.6087912,5.32747253 C13.4769231,5.11648352 13.3450549,4.85274725 13.3186813,4.69450549 C13.2131868,4.16703297 13.4505495,3.56043956 13.4505495,3.56043956 L14.1362637,1.8989011 C14.1362637,1.8989011 11.1296703,-0.421978022 8.36043956,0.158241758 C7.96483516,0.237362637 7.62197802,0.448351648 7.35824176,0.764835165 L7.30549451,0.817582418 C7.14725275,1.0021978 7.17362637,1.29230769 7.33186813,1.45054945 C7.5956044,1.68791209 7.93846154,2.03076923 8.07032967,2.16263736 C8.25494505,2.37362637 8.41318681,2.53186813 8.33406593,3.11208791 C8.22857143,3.13846154 8.14945055,3.21758242 8.0967033,3.32307692 L7.72747253,4.24615385 C7.64835165,4.43076923 7.72747253,4.61538462 7.91208791,4.69450549 L9.89010989,5.48571429 C10.0747253,5.56483516 10.2593407,5.48571429 10.3384615,5.3010989 L10.7076923,4.37802198 C10.7604396,4.24615385 10.7340659,4.08791209 10.6285714,3.98241758 C10.8131868,3.71868132 11.2615385,3.21758242 12.1846154,3.24395604 C12.0263736,4.87912088 12.7912088,6.11868132 13.3978022,6.90989011 C14.0307692,7.78021978 14.0835165,7.2 14.0835165,7.2 C13.978022,6.93626374 13.8989011,6.43516484 13.8725275,6.06593407 C13.8197802,5.8021978 13.7406593,5.53846154 13.6087912,5.32747253 Z" id="Path"></path>
            <path d="M16.4043956,10.7604396 C15.3494505,10.7604396 14.4791209,11.6307692 14.4791209,12.6857143 C14.4791209,13.7406593 15.3494505,14.610989 16.4043956,14.610989 C17.4593407,14.610989 18.3296703,13.7406593 18.3296703,12.6857143 C18.3296703,11.6307692 17.4593407,10.7604396 16.4043956,10.7604396 Z M16.4043956,14.0043956 C15.6923077,14.0043956 15.0857143,13.4241758 15.0857143,12.6857143 C15.0857143,11.9736264 15.6659341,11.367033 16.4043956,11.367033 C17.1164835,11.367033 17.7230769,11.9472527 17.7230769,12.6857143 C17.7230769,13.4241758 17.1164835,14.0043956 16.4043956,14.0043956 Z" id="Shape"></path>
            <path d="M20.5714286,10.0747253 C19.8857143,10.0747253 19.3318681,10.6285714 19.3318681,11.3142857 C19.3318681,12 19.8857143,12.5538462 20.5714286,12.5538462 C21.2571429,12.5538462 21.810989,12 21.810989,11.3142857 C21.810989,10.6285714 21.2571429,10.0747253 20.5714286,10.0747253 Z M20.5714286,11.8945055 C20.2549451,11.8945055 19.9912088,11.6307692 19.9912088,11.3142857 C19.9912088,10.9978022 20.2549451,10.7340659 20.5714286,10.7340659 C20.8879121,10.7340659 21.1516484,10.9978022 21.1516484,11.3142857 C21.1516484,11.6307692 20.8879121,11.8945055 20.5714286,11.8945055 Z" id="Shape"></path>
            <path d="M23.9736264,4.85274725 C23.9736264,4.21978022 23.6571429,3.61318681 23.156044,3.21758242 C23.4461538,2.74285714 23.5516484,2.18901099 23.4197802,1.66153846 C23.2087912,0.738461538 22.3912088,0.105494505 21.4417582,0.105494505 C20.3868132,0.105494505 19.5956044,0.791208791 19.4373626,1.84615385 L16.2725275,2.61098901 C16.1934066,2.63736264 16.1142857,2.69010989 16.0879121,2.74285714 C16.0351648,2.82197802 16.0351648,2.9010989 16.0615385,2.98021978 C16.0879121,3.13846154 16.2725275,3.24395604 16.4307692,3.21758242 L19.5164835,2.45274725 C19.5692308,2.66373626 19.6483516,2.84835165 19.7538462,3.00659341 C19.832967,3.13846154 20.043956,3.19120879 20.1758242,3.08571429 C20.2549451,3.03296703 20.2813187,2.98021978 20.3076923,2.9010989 C20.3340659,2.82197802 20.3076923,2.74285714 20.2549451,2.66373626 C20.0967033,2.45274725 20.0703297,2.13626374 20.0703297,2.0043956 C20.0703297,1.87252747 20.1230769,1.66153846 20.1230769,1.63516484 C20.3604396,1.05494505 20.8351648,0.738461538 21.4417582,0.738461538 C22.232967,0.738461538 22.8659341,1.37142857 22.8659341,2.16263736 C22.8659341,2.42637363 22.6021978,3.00659341 22.4175824,3.32307692 C22.3912088,3.37582418 22.3912088,3.42857143 22.3912088,3.50769231 C22.4175824,3.56043956 22.443956,3.61318681 22.4967033,3.63956044 C22.9978022,3.9032967 23.367033,4.45714286 23.367033,4.90549451 C23.367033,5.51208791 22.8131868,6.14505495 22.1538462,6.32967033 C22.1010989,6.35604396 22.0483516,6.38241758 21.9956044,6.43516484 C21.9692308,6.48791209 21.9428571,6.56703297 21.9692308,6.61978022 C22.0483516,6.88351648 22.1274725,7.27912088 22.1274725,7.41098901 C22.1274725,8.2021978 21.4945055,8.83516484 20.7032967,8.83516484 C20.5978022,8.83516484 20.4923077,8.83516484 20.3868132,8.80879121 C20.0175824,8.72967033 19.6747253,8.49230769 19.4637363,8.17582418 C19.0681319,7.51648352 19.3054945,6.77802198 19.7010989,6.35604396 C19.7538462,6.3032967 19.7802198,6.22417582 19.7802198,6.11868132 C19.7802198,6.03956044 19.7274725,5.96043956 19.6747253,5.90769231 C19.5692308,5.82857143 19.3846154,5.82857143 19.2791209,5.93406593 C19.1736264,6.01318681 19.1208791,6.09230769 19.0945055,6.14505495 L16.1142857,4.03516484 C15.9824176,3.92967033 15.7714286,3.98241758 15.6923077,4.11428571 C15.5868132,4.24615385 15.6395604,4.45714286 15.7714286,4.53626374 L18.8307692,6.59340659 C18.6725275,6.98901099 18.6461538,7.41098901 18.7252747,7.83296703 C18.9098901,8.5978022 19.5428571,9.23076923 20.3340659,9.36263736 C20.4659341,9.38901099 20.5978022,9.38901099 20.7296703,9.38901099 C20.7296703,9.38901099 20.7296703,9.38901099 20.7296703,9.38901099 C21.2835165,9.38901099 21.7846154,9.17802198 22.1802198,8.78241758 C22.5758242,8.38681319 22.7868132,7.88571429 22.7868132,7.33186813 C22.7868132,7.12087912 22.7604396,6.90989011 22.6813187,6.72527473 C23.4461538,6.46153846 23.9736264,5.6967033 23.9736264,4.85274725 Z" id="Path"></path>
            <path d="M19.7010989,4.61538462 C19.7274725,4.61538462 19.7538462,4.61538462 19.7538462,4.61538462 C19.8857143,4.61538462 20.0175824,4.50989011 20.043956,4.37802198 C20.0703297,4.21978022 19.9648352,4.06153846 19.8065934,4.00879121 L16.8,3.34945055 C16.6417582,3.32307692 16.4571429,3.42857143 16.4307692,3.58681319 C16.4043956,3.74505495 16.5098901,3.9032967 16.6681319,3.95604396 L19.7010989,4.61538462 Z" id="Path"></path>
        </g>
    </g>
</svg>