<?xml version="1.0" encoding="UTF-8"?>
<svg width="24px" height="24px" viewBox="0 0 24 24" version="1.1" xmlns="http://www.w3.org/2000/svg" xmlns:xlink="http://www.w3.org/1999/xlink">
    <!-- Generator: Sketch 51.3 (57544) - http://www.bohemiancoding.com/sketch -->
    <title>icon strain flavor / ammonia alt</title>
    <desc>Created with Sketch.</desc>
    <defs></defs>
    <g id="icon-strain-flavor-/-ammonia-alt" stroke="none" stroke-width="1" fill="none" fill-rule="evenodd">
        <g id="Group" transform="translate(4.000000, 0.000000)" fill="#FFFFFF" fill-rule="nonzero">
            <path d="M10.6065645,10.6883721 C9.99261104,9.18139535 10.1879599,7.70232558 10.3554017,6.94883721 C10.4391227,6.58604651 10.2437738,6.22325581 9.90889011,6.08372093 L8.1228436,5.35813953 C8.03912267,5.33023256 7.92749476,5.30232558 7.84377383,5.30232558 C7.56470406,5.30232558 7.31354127,5.44186047 7.17400639,5.69302326 C6.67168081,6.58604651 5.63912267,8.34418605 4.27168081,9.99069767 C2.48563429,12.1953488 0.253076155,17.1906977 0.00191336403,20.5395349 C-0.0259936127,21.0418605 0.253076155,21.5162791 0.727494759,21.7116279 L5.77865755,23.7488372 C5.91819243,23.8046512 6.08563429,23.8325581 6.22516918,23.8325581 C6.58795988,23.8325581 6.95075057,23.6651163 7.17400639,23.3581395 L7.25772732,23.2465116 C8.17865755,22.0465116 9.54609941,20.2604651 10.8577273,15.8790698 C11.3321459,14.2604651 11.3042389,12.5023256 10.7181924,10.9395349 C10.6902855,10.8837209 10.6344715,10.8 10.6065645,10.6883721 Z M10.048425,15.6837209 C8.79261104,19.8976744 7.45307615,21.627907 6.58795988,22.772093 L6.50423895,22.8837209 C6.42051802,22.9953488 6.25307615,23.0511628 6.08563429,22.9953488 L1.06237848,20.9302326 C0.922843597,20.8744186 0.839122666,20.7348837 0.839122666,20.5953488 C1.09028546,17.4418605 3.23912267,12.5860465 4.94144825,10.5209302 C6.30889011,8.84651163 7.36935522,7.08837209 7.87168081,6.16744186 L8.2344715,6.30697674 C7.89958778,7.33953488 7.09028546,10.2139535 7.42516918,13.7023256 L4.07633197,13.7023256 C3.7972622,13.7023256 3.51819243,13.8697674 3.40656453,14.1209302 C2.1228436,16.855814 1.56470406,18.7534884 1.42516918,19.6744186 C1.36935522,20.0093023 1.56470406,20.372093 1.89958778,20.4837209 L5.66702964,22.1023256 C5.97400639,22.2418605 6.30889011,22.1581395 6.5600529,21.9069767 C8.42982034,19.9534884 9.51819243,15.627907 9.85307615,14.1767442 C9.90889011,13.9255814 9.71354127,13.6744186 9.46237848,13.6744186 L8.17865755,13.6744186 C7.84377383,10.3534884 8.5972622,7.5627907 8.93214592,6.55813953 L9.57400639,6.80930233 C9.37865755,7.6744186 9.18330871,9.29302326 9.88098313,10.9674419 C9.90889011,11.0511628 9.96470406,11.1627907 9.99261104,11.2465116 C10.4391227,12.6697674 10.4670296,14.2325581 10.048425,15.6837209 Z" id="Shape"></path>
            <polygon id="Path" points="15.6298203 3.79534884 15.8809831 3.1255814 15.0437738 2.20465116 14.3740064 3.82325581"></polygon>
            <path d="M14.1507506,5.58139535 C14.0112157,5.35813953 13.8716808,5.07906977 13.8437738,4.91162791 C13.7321459,4.35348837 13.9833087,3.71162791 13.9833087,3.71162791 L14.7088901,1.95348837 C14.7088901,1.95348837 11.5274948,-0.502325581 8.5972622,0.111627907 C8.17865755,0.195348837 7.81586685,0.418604651 7.53679708,0.753488372 L7.48098313,0.809302326 C7.31354127,1.00465116 7.34144825,1.31162791 7.50889011,1.47906977 C7.78795988,1.73023256 8.15075057,2.09302326 8.29028546,2.23255814 C8.48563429,2.45581395 8.65307615,2.62325581 8.56935522,3.2372093 C8.45772732,3.26511628 8.37400639,3.34883721 8.31819243,3.46046512 L7.92749476,4.4372093 C7.84377383,4.63255814 7.92749476,4.82790698 8.1228436,4.91162791 L10.2158669,5.74883721 C10.4112157,5.83255814 10.6065645,5.74883721 10.6902855,5.55348837 L11.0809831,4.57674419 C11.1367971,4.4372093 11.1088901,4.26976744 10.9972622,4.15813953 C11.192611,3.87906977 11.6670296,3.34883721 12.6437738,3.37674419 C12.476332,5.10697674 13.2856343,6.41860465 13.9274948,7.25581395 C14.5972622,8.17674419 14.6530762,7.5627907 14.6530762,7.5627907 C14.5414482,7.28372093 14.4577273,6.75348837 14.4298203,6.3627907 C14.3740064,6.08372093 14.2902855,5.80465116 14.1507506,5.58139535 Z" id="Path"></path>
        </g>
    </g>
</svg>