<?xml version="1.0" encoding="UTF-8"?>
<svg width="24px" height="24px" viewBox="0 0 24 24" version="1.1" xmlns="http://www.w3.org/2000/svg" xmlns:xlink="http://www.w3.org/1999/xlink">
    <!-- Generator: Sketch 51.3 (57544) - http://www.bohemiancoding.com/sketch -->
    <title>icon strain flavor / apple</title>
    <desc>Created with Sketch.</desc>
    <defs></defs>
    <g id="icon-strain-flavor-/-apple" stroke="none" stroke-width="1" fill="none" fill-rule="evenodd">
        <g id="Group" transform="translate(2.000000, 0.000000)" fill="#FFFFFF" fill-rule="nonzero">
            <path d="M13.2057328,7.05306122 C12.4220593,7.05306122 11.6873655,7.44489796 11.0996104,7.7877551 C11.2955287,6.80816327 11.9322634,5.09387755 13.5975695,4.60408163 C13.8424675,4.50612245 13.9894063,4.26122449 13.9404267,4.01632653 C13.8424675,3.77142857 13.5975695,3.6244898 13.3526716,3.67346939 C12.1771614,4.01632653 11.4424675,4.75102041 10.9526716,5.58367347 C9.6302226,2.25306122 6.39756954,-3.90798505e-14 2.82205934,-3.90798505e-14 C1.98940628,-3.90798505e-14 1.15675321,0.0979591837 0.373079745,0.342857143 C0.0792021941,0.440816327 -0.0677365814,0.685714286 0.0302226023,0.979591837 C0.960834847,4.2122449 3.75267158,6.6122449 6.98532464,7.15102041 C3.89961036,7.54285714 1.49961036,10.1877551 1.49961036,13.3714286 C1.49961036,16.7510204 4.19348791,23.5591837 7.76899811,23.5591837 C8.4547124,23.5591837 9.14042668,23.3142857 9.77716138,22.8244898 C10.1689981,22.5306122 10.7077736,22.5306122 11.0996104,22.8244898 C11.7853246,23.3142857 12.4710389,23.5591837 13.1077736,23.5591837 C16.6832838,23.5591837 19.3771614,16.7510204 19.3771614,13.3714286 C19.426141,9.89387755 16.6343042,7.05306122 13.2057328,7.05306122 Z M10.0710389,7.88571429 C9.67920219,7.64081633 9.23838587,7.39591837 8.69961036,7.2 C9.23838587,7.2 9.72818179,7.10204082 10.2669573,7.00408163 C10.1689981,7.34693878 10.1200185,7.64081633 10.0710389,7.88571429 Z M1.10777362,1.1755102 C1.69552872,1.02857143 2.23430423,0.979591837 2.82205934,0.979591837 C6.0547124,0.979591837 8.99348791,3.03673469 10.0710389,6.07346939 C9.53226342,6.22040816 8.94450832,6.26938776 8.40573281,6.26938776 C5.12410015,6.26938776 2.23430423,4.16326531 1.10777362,1.1755102 Z M13.2057328,22.5306122 C12.7159369,22.5306122 12.226141,22.3346939 11.7363451,21.9918367 C11.3934879,21.7469388 10.9526716,21.6 10.5118553,21.6 C10.0710389,21.6 9.6302226,21.7469388 9.28736546,21.9918367 C8.79756954,22.3346939 8.30777362,22.5306122 7.8179777,22.5306122 C5.02614097,22.5306122 2.52818179,16.2612245 2.52818179,13.322449 C2.52818179,10.3836735 4.87920219,8.03265306 7.8179777,8.03265306 C8.40573281,8.03265306 9.09144709,8.4244898 9.58124301,8.71836735 C9.82614097,8.86530612 10.1200185,8.96326531 10.4628757,8.96326531 C10.4628757,8.96326531 10.4628757,8.96326531 10.5118553,8.96326531 C10.5118553,8.96326531 10.5118553,8.96326531 10.5608348,8.96326531 C10.5608348,8.96326531 10.5608348,8.96326531 10.6098144,8.96326531 C10.903692,8.96326531 11.2465491,8.86530612 11.4914471,8.71836735 C12.0302226,8.4244898 12.6669573,8.03265306 13.2547124,8.03265306 C16.1934879,8.03265306 18.5445083,10.3836735 18.5445083,13.322449 C18.4465491,16.2612245 15.9485899,22.5306122 13.2057328,22.5306122 Z" id="Shape"></path>
            <path d="M13.2057328,9.0122449 C12.9118553,9.0122449 12.7159369,9.20816327 12.7159369,9.50204082 C12.7159369,9.79591837 12.9118553,9.99183673 13.2057328,9.99183673 C15.0179777,9.99183673 16.5363451,11.4612245 16.5363451,13.322449 C16.5363451,13.6163265 16.7322634,13.8122449 17.026141,13.8122449 C17.3200185,13.8122449 17.5159369,13.6163265 17.5159369,13.322449 C17.4669573,10.9714286 15.5567532,9.0122449 13.2057328,9.0122449 Z" id="Path"></path>
        </g>
    </g>
</svg>