<?xml version="1.0" encoding="UTF-8"?>
<svg width="24px" height="24px" viewBox="0 0 24 24" version="1.1" xmlns="http://www.w3.org/2000/svg" xmlns:xlink="http://www.w3.org/1999/xlink">
    <!-- Generator: Sketch 51.3 (57544) - http://www.bohemiancoding.com/sketch -->
    <title>icon strain flavor / apple alt</title>
    <desc>Created with Sketch.</desc>
    <defs></defs>
    <g id="icon-strain-flavor-/-apple-alt" stroke="none" stroke-width="1" fill="none" fill-rule="evenodd">
        <g id="Group" transform="translate(2.000000, 0.000000)" fill="#FFFFFF" fill-rule="nonzero">
            <path d="M19.012714,8.50068475 C17.837714,7.00068475 16.012714,6.25068475 13.887714,6.45068475 C13.887714,6.45068475 13.887714,6.45068475 13.887714,6.45068475 C12.912714,6.52568475 11.987714,6.77568475 11.112714,7.12568475 C10.737714,4.17568475 9.66271396,0.850684753 7.03771396,0.525684753 C5.18771396,0.275684753 4.91271396,1.92568475 6.01271396,2.22568475 C8.21271396,2.82568475 9.18771396,5.02568475 9.56271396,7.22568475 C8.61271396,6.82568475 7.56271396,6.52568475 6.48771396,6.42568475 C4.36271396,6.22568475 2.53771396,7.00068475 1.36271396,8.47568475 C-0.162286043,10.4006848 -0.412286043,13.3756848 0.637713957,16.6256848 C2.33771396,21.8256848 5.46271396,24.5006848 8.98771396,23.7756848 C9.38771396,23.7006848 9.78771396,23.5506848 10.187714,23.3756848 C10.612714,23.5756848 11.012714,23.7006848 11.387714,23.7756848 C11.762714,23.8506848 12.137714,23.9006848 12.512714,23.9006848 C15.562714,23.9006848 18.212714,21.2756848 19.737714,16.6506848 C20.787714,13.3756848 20.537714,10.4256848 19.012714,8.50068475 Z M17.837714,16.0256848 C17.337714,17.5756848 15.412714,22.5506848 11.812714,21.8256848 C11.462714,21.7506848 11.087714,21.6006848 10.687714,21.3756848 C10.537714,21.3006848 10.362714,21.2506848 10.212714,21.2506848 C10.062714,21.2506848 9.88771396,21.3006848 9.73771396,21.3756848 C9.31271396,21.6006848 8.96271396,21.7506848 8.61271396,21.8256848 C5.01271396,22.5506848 3.08771396,17.5756848 2.58771396,16.0256848 C1.68771396,13.4256848 1.83771396,11.1256848 2.93771396,9.72568475 C3.68771396,8.75068475 4.86271396,8.32568475 6.33771396,8.42568475 C7.56271396,8.52568475 8.71271396,8.87568475 9.68771396,9.47568475 C10.012714,9.67568475 10.412714,9.67568475 10.712714,9.47568475 C11.687714,8.90068475 12.837714,8.52568475 14.062714,8.42568475 C15.512714,8.32568475 16.687714,8.77568475 17.437714,9.72568475 C18.537714,11.1256848 18.687714,13.4256848 17.837714,16.0256848 Z" id="Shape"></path>
            <path d="M12.862714,5.20068475 C13.562714,4.97568475 14.612714,4.50068475 15.237714,3.57568475 C15.862714,2.65068475 15.887714,1.50068475 15.837714,0.750684753 C15.812714,0.300684753 15.412714,0.0506847525 14.987714,0.175684753 C14.287714,0.400684753 13.237714,0.875684753 12.612714,1.80068475 C11.987714,2.72568475 11.962714,3.87568475 12.012714,4.62568475 C12.062714,5.07568475 12.437714,5.32568475 12.862714,5.20068475 Z" id="Path"></path>
        </g>
    </g>
</svg>