<svg width="24" height="24" viewBox="0 0 24 24" fill="none" xmlns="http://www.w3.org/2000/svg">
<path fill-rule="evenodd" clip-rule="evenodd" d="M1.37102 12.8759C1.77001 12.794 2.16502 12.7996 2.49941 12.8166C3.0236 12.8426 3.53397 12.8504 4.03769 12.8488C2.92046 12.1268 1.83939 11.0739 1.13046 9.52952C0.911428 9.05211 0.943326 8.49815 1.21712 8.04786C1.48931 7.59996 1.96246 7.3174 2.48293 7.29135C2.48639 7.29135 2.52892 7.28922 2.53211 7.28869C2.90079 7.2754 3.25832 7.31633 3.59431 7.41282C6.98319 8.38119 13.4383 9.10448 18.7418 3.16269C18.8046 2.76557 18.766 2.32245 18.5443 1.66589C18.4353 1.34026 18.4579 0.990448 18.606 0.704696C18.7442 0.437816 18.98 0.243505 19.2703 0.155786C19.6642 0.0359028 20.0427 -0.0175262 20.4218 0.00506818C21.047 0.0398901 21.5185 0.55132 21.4973 1.16987L21.4896 1.34106C21.4696 1.74111 21.4593 1.962 22.1328 3.01304C23.2049 4.68449 23.8301 6.525 23.9412 8.33707C24.1554 11.866 23.1746 16.9522 17.2836 21.1489C17.1015 21.2725 13.0321 24 8.4901 24C6.17777 24 4.15544 23.2897 2.47868 21.8886C2.02892 21.513 1.79686 20.9399 1.8564 20.3557C1.91541 19.7746 2.25592 19.2634 2.76682 18.9883C2.76868 18.987 3.54274 18.651 3.96592 18.5667C3.96834 18.5663 3.94779 18.5561 3.90749 18.5362C3.53608 18.3523 1.4871 17.3376 0.285698 15.4785C-0.01813 15.0082 -0.0896345 14.4264 0.119563 13.9043C0.328228 13.3846 0.777457 13.0048 1.32132 12.8862L1.37102 12.8759ZM20.27 1.28125L20.2729 1.22171C20.0826 1.20842 19.9093 1.24643 19.7134 1.29906C20.0698 2.38917 20.0797 3.19273 19.7562 4.0864C19.4664 4.88917 19.2323 5.60156 19.0401 6.26423C18.9149 6.69565 18.7743 7.109 18.6281 7.51383C18.6266 7.51961 18.6243 7.5248 18.6219 7.53012C18.6204 7.53361 18.6188 7.53715 18.6174 7.54095C15.9324 14.9317 9.91434 17.9774 6.45209 19.1491C6.44306 19.1528 6.43428 19.1558 6.42445 19.1584C5.41355 19.4995 4.62355 19.6805 4.20409 19.7637C3.89574 19.8251 3.61796 19.9195 3.37979 20.0447C3.1892 20.1467 3.08899 20.2985 3.07065 20.4785C3.05178 20.6627 3.12142 20.8352 3.26097 20.9516C4.71286 22.164 6.47176 22.7791 8.49064 22.7791C12.6501 22.7791 16.5491 20.1728 16.5877 20.1467C22.0116 16.2823 22.9186 11.6313 22.7227 8.41203C22.6246 6.80756 22.0651 5.16774 21.1055 3.67147C20.2636 2.35834 20.2397 1.90804 20.27 1.28125ZM2.26071 8.68156C2.23041 8.73101 2.16794 8.86418 2.23918 9.02021C3.22748 11.1709 5.0951 12.2132 6.55337 12.7156C11.2676 12.2209 14.938 10.331 17.4914 7.06859C17.6249 6.69725 17.9223 5.74164 17.95 5.65047C12.5837 10.2589 6.56879 9.53217 3.25832 8.5864C3.04646 8.52553 2.81786 8.50267 2.5757 8.50878C2.38245 8.51888 2.29713 8.62122 2.26071 8.68156ZM15.8862 10.4064C13.4306 12.3559 10.3766 13.5303 6.75433 13.9211C6.68521 13.9474 3.84976 14.1058 2.43907 14.0359C2.16767 14.0213 1.87953 14.0178 1.61531 14.0712C1.36757 14.1257 1.28091 14.2903 1.25274 14.3586C1.22509 14.4288 1.17326 14.6116 1.29792 14.7951C2.40691 16.4381 4.05842 17.495 6.2009 17.9468C8.88192 17.0197 13.0908 14.9173 15.8862 10.4064ZM10.9535 20.234C10.8684 19.9079 11.0643 19.5745 11.391 19.4903C18.6919 17.5979 20.3123 10.0155 20.328 9.93949C20.3952 9.60908 20.7148 9.39457 21.0473 9.46288C21.3777 9.5296 21.5914 9.85177 21.5242 10.1824C21.4548 10.5243 19.7286 18.591 11.6972 20.6718C11.6454 20.6851 11.5941 20.6915 11.5433 20.6915C11.2719 20.6915 11.0247 20.5089 10.9535 20.234Z" fill="white"/>
</svg>
