<svg width="24" height="24" viewBox="0 0 24 24" fill="none" xmlns="http://www.w3.org/2000/svg">
<path fill-rule="evenodd" clip-rule="evenodd" d="M16.305 0.824912C17.9792 0.273187 19.7313 -0.0051529 21.4941 0.000595541C22.2813 -0.00764762 23.1798 0.0624193 23.8104 0.672413C23.8711 0.731158 23.9192 0.80165 23.9518 0.879595C23.9844 0.95754 24.0008 1.04131 24 1.12579C23.9719 2.7058 23.6257 4.26396 22.982 5.70717C22.3383 7.15038 21.4103 8.44904 20.2535 9.52557C19.1383 10.5403 17.8145 11.2985 16.375 11.7471C16.598 12.1637 16.763 12.6089 16.8655 13.0701C17.0907 13.9767 17.148 14.9168 17.0345 15.8439C17.0298 16.1033 16.9701 16.3587 16.8593 16.5931C16.7484 16.8276 16.589 17.0359 16.3915 17.2041C16.2848 17.2849 16.1545 17.3283 16.0206 17.3277H15.9876C14.6463 17.2396 13.3586 16.7674 12.2782 15.9676C12.0742 16.5562 11.8162 17.1247 11.5075 17.6657C11.163 18.2721 10.7584 18.8424 10.2998 19.3679C9.56918 20.1909 8.71552 20.8958 7.76919 21.4575C6.51227 22.2372 5.13064 22.7948 3.6847 23.1062C3.64095 23.1122 3.59657 23.1122 3.55281 23.1062C3.38884 23.1237 3.22465 23.0753 3.09634 22.9717C2.96803 22.8682 2.88612 22.7178 2.86863 22.5539C2.85114 22.3899 2.8995 22.2257 3.00308 22.0974C3.10665 21.9691 3.25695 21.8872 3.42092 21.8697C4.73284 21.5835 5.98697 21.0777 7.13034 20.3736C7.97194 19.8738 8.73106 19.2468 9.38073 18.5147C9.78417 18.0518 10.1417 17.5507 10.4482 17.0186C11.3385 15.4295 11.74 13.6129 11.6023 11.7966C11.5913 11.6326 11.646 11.471 11.7542 11.3473C11.8624 11.2237 12.0153 11.148 12.1793 11.1371C12.3432 11.1262 12.5048 11.1808 12.6285 11.289C12.7522 11.3973 12.8278 11.5502 12.8387 11.7141C12.9043 12.6911 12.8392 13.6725 12.645 14.6322C13.5278 15.404 14.6248 15.8885 15.7898 16.0212C15.8203 15.9092 15.841 15.7947 15.8516 15.6791C15.9493 14.8997 15.9032 14.109 15.7156 13.3463C15.5954 12.8826 15.3929 12.4443 15.118 12.0521C14.7298 12.1349 14.3378 12.1982 13.9433 12.2417H13.8815C13.7175 12.2499 13.557 12.1926 13.4353 12.0825C13.3135 11.9723 13.2405 11.8183 13.2323 11.6544C13.2241 11.4904 13.2814 11.3299 13.3916 11.2082C13.5017 11.0864 13.6557 11.0134 13.8197 11.0052C15.897 10.8358 17.8616 9.99036 19.4127 8.59821C21.42 6.73463 22.6171 4.15853 22.747 1.42254C22.3548 1.26555 21.9315 1.20205 21.5105 1.23707C19.8858 1.23123 18.2704 1.48445 16.7254 1.9872C15.2034 2.45964 13.845 3.35091 12.8058 4.55906C11.8619 5.70486 10.8521 7.81923 11.4085 11.372V11.4462C11.4323 11.6056 11.3925 11.768 11.2977 11.8983C11.2029 12.0286 11.0606 12.1164 10.9016 12.1428C10.793 12.158 10.6824 12.1452 10.5801 12.1057C9.89352 12.6053 9.24593 13.1564 8.64296 13.7543C8.64475 13.7721 8.64475 13.7901 8.64296 13.8079C8.81065 14.9581 8.65066 16.1324 8.18135 17.1958C8.13327 17.3069 8.05386 17.4015 7.95284 17.4681C7.85182 17.5347 7.73357 17.5704 7.61257 17.5709C7.52724 17.571 7.4429 17.5527 7.36527 17.5173C7.28939 17.4851 7.22071 17.438 7.16329 17.3789C7.10586 17.3197 7.06085 17.2497 7.03089 17.1729C7.00094 17.0961 6.98665 17.014 6.98886 16.9316C6.99108 16.8492 7.00975 16.7681 7.04379 16.693C7.27606 16.1716 7.41554 15.6137 7.45595 15.0444C6.49154 16.2306 5.68777 17.5388 5.06543 18.9351C5.0161 19.0426 4.93719 19.1338 4.83792 19.198C4.73865 19.2622 4.62313 19.2969 4.5049 19.2978C4.41532 19.2964 4.32697 19.2768 4.24524 19.2401C4.09564 19.1711 3.97952 19.0455 3.92235 18.891C3.86518 18.7365 3.87161 18.5656 3.94024 18.4158C4.4131 17.3813 4.97724 16.3909 5.62597 15.4565C5.58624 15.4608 5.54617 15.4608 5.50644 15.4565C5.36986 15.4576 5.23678 15.4134 5.12796 15.3309C5.01915 15.2483 4.94073 15.1321 4.90495 15.0003C4.86917 14.8684 4.87805 14.7285 4.9302 14.6023C4.98235 14.476 5.07483 14.3706 5.1932 14.3025C5.65476 14.0336 6.19329 13.9276 6.72231 14.0016C7.0273 13.6471 7.34054 13.3009 7.67439 12.9671C8.41734 12.2233 9.22415 11.5461 10.0855 10.9434C10.0791 10.8865 10.0724 10.83 10.0657 10.774C10.0381 10.542 10.0113 10.3176 10.0113 10.0985H9.9866C9.16163 10.2486 8.35673 10.4934 7.58784 10.828C7.47994 10.9418 7.33233 11.0097 7.17568 11.0176C5.55233 11.7944 4.15685 12.977 3.12417 14.4509C1.51775 16.8032 0.901827 19.6933 1.40959 22.4962C1.42511 22.5758 1.42471 22.6577 1.40841 22.7371C1.39212 22.8165 1.36025 22.892 1.31465 22.959C1.26905 23.0261 1.21062 23.0834 1.14274 23.1278C1.07485 23.1722 0.998848 23.2026 0.919122 23.2175C0.880761 23.2215 0.842078 23.2215 0.803718 23.2175C0.659818 23.2179 0.520329 23.1678 0.409597 23.0759C0.298864 22.984 0.22392 22.8561 0.197845 22.7146C-0.374601 19.5908 0.306546 16.3672 2.09377 13.7419C3.12219 12.2726 4.47635 11.0609 6.05049 10.2015C5.55622 9.61418 5.19864 8.92437 5.00361 8.18193C4.7638 7.20998 4.73708 6.19765 4.9253 5.21439C4.95044 4.93381 5.03739 4.66226 5.17991 4.41926C5.32244 4.17626 5.51699 3.96783 5.74961 3.80894C5.85872 3.74719 5.98293 3.71721 6.10819 3.72238C7.79607 3.83626 9.4214 4.40606 10.8109 5.37101C11.0775 4.79684 11.4169 4.25937 11.8207 3.77184C13.0058 2.38426 14.5611 1.36222 16.305 0.824912ZM7.22102 9.62036C8.03739 9.27648 8.88867 9.0222 9.75991 8.86199C9.83795 8.85095 9.91724 8.85234 9.99484 8.86611C10.0283 8.08765 10.1528 7.31577 10.3658 6.56627C9.18081 5.65798 7.7637 5.10227 6.27718 4.96298C6.20042 5.10017 6.15272 5.25169 6.13704 5.40811C5.97827 6.21574 5.99655 7.0482 6.19062 7.84808C6.37133 8.51956 6.72688 9.13111 7.22102 9.62036ZM15.7968 3.58226C15.9604 3.57378 16.1207 3.63011 16.243 3.73906C16.3034 3.7953 16.3519 3.86297 16.3859 3.93815C16.4198 4.01332 16.4385 4.0945 16.4408 4.17695C16.4431 4.25941 16.429 4.34149 16.3993 4.41845C16.3696 4.4954 16.3249 4.56568 16.2678 4.6252C16.15 4.75193 16.0451 4.88998 15.9545 5.03735C16.8035 4.41437 17.7509 3.93792 18.7572 3.62777C18.8356 3.60176 18.9183 3.5917 19.0006 3.59819C19.0829 3.60468 19.1631 3.62758 19.2364 3.66555C19.3097 3.70352 19.3746 3.75579 19.4274 3.81927C19.4802 3.88275 19.5197 3.95616 19.5437 4.03516C19.5676 4.11417 19.5755 4.19717 19.5669 4.27926C19.5582 4.36136 19.5332 4.4409 19.4933 4.51318C19.4535 4.58546 19.3995 4.64903 19.3347 4.70012C19.2698 4.75121 19.1954 4.7888 19.1158 4.81067C17.6836 5.25904 16.4011 6.08986 15.4064 7.21355C16.042 7.14001 16.6724 7.02714 17.2941 6.87558C17.374 6.85248 17.4578 6.84576 17.5404 6.85581C17.6229 6.86586 17.7027 6.89248 17.7747 6.93407C17.8468 6.97566 17.9097 7.03137 17.9597 7.09787C18.0097 7.16436 18.0458 7.24026 18.0658 7.32103C18.0858 7.4018 18.0893 7.48577 18.076 7.56791C18.0628 7.65005 18.0331 7.72868 17.9887 7.79908C17.9444 7.86947 17.8863 7.93019 17.8179 7.9776C17.7495 8.025 17.6723 8.05812 17.5908 8.07496C16.5854 8.32305 15.5586 8.47486 14.5243 8.52833H14.4955H14.4378C14.4278 8.54418 14.4168 8.55932 14.4048 8.57367C13.9058 9.36389 13.3043 10.0846 12.6161 10.7169C12.4997 10.8116 12.3539 10.8626 12.2039 10.8611C12.0757 10.8644 11.9496 10.8276 11.8432 10.756C11.7368 10.6843 11.6553 10.5814 11.61 10.4614C11.5647 10.3414 11.5579 10.2102 11.5905 10.0862C11.623 9.9621 11.6934 9.85123 11.7917 9.76893C12.3959 9.20682 12.9238 8.56804 13.3621 7.86888C13.6547 7.44848 13.9597 7.01571 14.2977 6.60355L14.3636 6.52937C14.3365 5.51961 14.6963 4.53767 15.3693 3.78439C15.4796 3.66338 15.6333 3.59075 15.7968 3.58226Z" fill="white"/>
</svg>
