<svg width="24" height="24" viewBox="0 0 24 24" fill="none" xmlns="http://www.w3.org/2000/svg">
<path d="M21.6506 6.80256C19.4274 5.52219 15.8653 5.79841 13.0105 7.45528C11.621 8.25877 9.1705 8.33408 6.77054 8.43442C3.28417 8.55999 0 8.68555 0 11.1459V13.8574C0 14.8615 0.656798 16.2174 3.8147 17.1212C5.8104 17.6986 8.53892 18 11.4947 18C16.1431 18 24 17.1212 24 13.8323V11.1459C24 8.66033 22.7116 7.40502 21.6506 6.80256H21.6506ZM19.2758 7.30464C19.8568 7.37995 20.3874 7.55578 20.8674 7.7817L17.8864 13.5561C17.2801 13.6817 16.6233 13.757 15.9159 13.8573L19.2758 7.30464ZM17.9368 7.22934L14.4756 13.9829C13.8693 14.0332 13.263 14.0582 12.6061 14.0832L15.9661 7.55564C16.6231 7.35494 17.3052 7.25442 17.9368 7.22938V7.22934ZM13.6167 8.50971C13.8189 8.38414 14.0462 8.28379 14.2483 8.18327L11.2168 14.0832C10.6104 14.0832 10.0042 14.0582 9.42299 14.033L11.9493 9.13726C12.5557 8.98665 13.1367 8.78578 13.6167 8.5096V8.50971ZM10.4336 9.41353L8.1094 13.9326C7.50304 13.8824 6.9472 13.8071 6.39159 13.7318L8.53905 9.58934C9.17045 9.53908 9.80203 9.48882 10.4336 9.41351V9.41353ZM6.82088 9.63962H7.09879L5.10309 13.5059C4.77461 13.4306 4.44629 13.3553 4.14304 13.2547C3.94091 13.2045 3.73879 13.1292 3.51146 13.0539L5.22927 9.71475C5.75988 9.68971 6.29046 9.66467 6.82089 9.63962L6.82088 9.63962ZM3.81452 9.81527L2.39982 12.5518C1.74303 12.2003 1.21245 11.7233 1.21245 11.1459C1.21245 10.3426 2.32408 9.9911 3.81456 9.81527H3.81452ZM22.7872 13.8323C22.7872 15.2635 18.2398 16.7698 11.4945 16.7698C8.63975 16.7698 6.03768 16.4685 4.1682 15.9413C3.08198 15.6148 1.23763 14.9371 1.23763 13.8324V13.2298C1.81863 13.6566 2.65232 14.0583 3.81452 14.4098C5.81022 14.9872 8.53874 15.2886 11.4945 15.2886C15.0313 15.2886 20.3872 14.7865 22.7872 13.1044V13.8323ZM19.4272 13.2047L21.8524 8.50984C22.4587 9.16256 22.7618 10.0413 22.7618 11.146C22.7872 11.8742 21.5492 12.6525 19.4272 13.2048V13.2047Z" fill="white"/>
</svg>
