<svg width="24" height="25" viewBox="0 0 24 25" fill="none" xmlns="http://www.w3.org/2000/svg">
<path d="M18.6832 3.38326L18.6565 3.03621L18.3094 2.92942C17.4551 2.63576 16.5208 2.63576 15.5864 2.87603C15.4796 1.94166 15.1059 1.06068 14.5185 0.366573L14.2783 0.0996094L13.9312 0.206395C12.4896 0.713625 11.315 2.04844 10.8878 3.67692C10.4874 5.2253 10.7811 6.82708 11.662 7.97503C11.7154 8.02842 11.7688 8.08181 11.8489 8.1352C11.929 8.24199 12.0625 8.34878 12.2227 8.40217C12.6498 8.53565 13.0769 8.58904 13.5041 8.58904C14.5719 8.58904 15.6665 8.21529 16.6009 7.52119C17.9624 6.50673 18.7633 4.90495 18.6832 3.38326ZM11.9557 3.91718C12.2493 2.76924 13.0235 1.80817 13.9846 1.32764C14.3584 1.86157 14.5719 2.52898 14.5986 3.22308C14.3317 3.35656 14.0647 3.51674 13.7977 3.70361C12.9435 4.34433 12.3027 5.19861 11.9824 6.15968C11.7688 5.49227 11.7421 4.69138 11.9557 3.91718ZM15.9868 6.66691C15.0258 7.38771 13.8511 7.68137 12.81 7.4411C12.8901 6.37325 13.4774 5.33209 14.4384 4.61129C15.3995 3.89049 16.5742 3.62352 17.6153 3.8371C17.5352 4.87825 16.9479 5.94611 15.9868 6.66691Z" fill="white"/>
<path d="M19.911 14.7564C19.911 13.555 19.1635 12.5406 18.1224 12.1401C18.1758 11.9265 18.2024 11.7397 18.2024 11.5261C18.2024 9.97771 16.921 8.69629 15.3726 8.69629C14.7319 8.69629 14.1446 8.90986 13.6641 9.28361C13.1835 8.90986 12.5962 8.69629 11.9555 8.69629C11.3148 8.69629 10.7275 8.90986 10.2469 9.28361C9.76641 8.90986 9.17909 8.69629 8.53838 8.69629C6.98999 8.69629 5.70857 9.97771 5.70857 11.5261C5.70857 11.7397 5.73526 11.9532 5.78865 12.1401C4.7475 12.5673 4 13.5817 4 14.7564C4 15.9577 4.7475 16.9722 5.78865 17.3726C5.73526 17.5862 5.70857 17.773 5.70857 17.9866C5.70857 19.1879 6.45606 20.2024 7.49722 20.6029C7.44383 20.8164 7.41713 21.0033 7.41713 21.2169C7.41713 22.8186 8.69855 24.1001 10.2469 24.1001C10.8877 24.1001 11.475 23.8865 11.9555 23.5128C12.436 23.8865 13.0234 24.1001 13.6641 24.1001C15.2125 24.1001 16.4939 22.8186 16.4939 21.2703C16.4939 21.0567 16.4672 20.8431 16.4138 20.6562C17.4549 20.2291 18.2024 19.2146 18.2024 18.04C18.2024 17.8264 18.1758 17.6129 18.1224 17.426C19.1635 16.9722 19.911 15.9577 19.911 14.7564ZM15.3726 9.76414C16.3337 9.76414 17.1346 10.565 17.1346 11.5261C17.1346 11.6596 17.1079 11.8198 17.0812 11.9532C16.4405 11.9532 15.8532 12.1668 15.3726 12.5406C15.1591 12.3804 14.9455 12.2469 14.7052 12.1668C14.7586 11.9532 14.7853 11.7664 14.7853 11.5528C14.7853 11.0189 14.6251 10.5116 14.3849 10.1112C14.6518 9.87093 14.9989 9.76414 15.3726 9.76414ZM13.7175 18.0133C13.7175 18.9744 12.9166 19.7753 11.9555 19.7753C10.9944 19.7753 10.1935 18.9744 10.1935 18.0133C10.1935 17.8798 10.2202 17.7196 10.2469 17.5862C10.8877 17.5862 11.475 17.3726 11.9555 16.9988C12.436 17.3726 13.0234 17.5862 13.6641 17.5862C13.6908 17.7463 13.7175 17.8798 13.7175 18.0133ZM8.48498 14.7564C8.48498 13.7953 9.28587 12.9944 10.2469 12.9944C11.208 12.9944 12.0089 13.7953 12.0089 14.7564C12.0089 15.7174 11.208 16.5183 10.2469 16.5183C9.28587 16.5183 8.48498 15.7441 8.48498 14.7564ZM13.6641 16.545C13.2903 16.545 12.9433 16.4382 12.6763 16.2247C12.9433 15.7975 13.0768 15.2903 13.0768 14.7831C13.0768 14.2491 12.9166 13.7419 12.6763 13.3415C12.97 13.1546 13.2903 13.0211 13.6641 13.0211C14.6251 13.0211 15.426 13.822 15.426 14.7831C15.426 15.7441 14.6251 16.545 13.6641 16.545ZM11.9555 9.76414C12.9166 9.76414 13.7175 10.565 13.7175 11.5261C13.7175 11.6596 13.6908 11.8198 13.6641 11.9532C13.0234 11.9532 12.436 12.1668 11.9555 12.5406C11.475 12.1668 10.8877 11.9532 10.2469 11.9532C10.2202 11.8198 10.1935 11.6863 10.1935 11.5261C10.1935 10.5383 10.9944 9.76414 11.9555 9.76414ZM6.77642 11.5261C6.77642 10.565 7.57731 9.76414 8.53838 9.76414C8.91212 9.76414 9.25918 9.87093 9.52614 10.0845C9.25918 10.5116 9.1257 11.0189 9.1257 11.5261C9.1257 11.7397 9.15239 11.9532 9.20578 12.1401C8.96552 12.2469 8.75195 12.3537 8.53838 12.5139C8.05784 12.1401 7.47052 11.9265 6.82981 11.9265C6.80311 11.7931 6.77642 11.6596 6.77642 11.5261ZM5.06785 14.7564C5.06785 13.7953 5.86874 12.9944 6.82981 12.9944C7.20356 12.9944 7.55061 13.1012 7.81758 13.3148C7.55061 13.7419 7.41713 14.2491 7.41713 14.7564C7.41713 15.2903 7.57731 15.7975 7.81758 16.198C7.52392 16.3848 7.20356 16.5183 6.82981 16.5183C5.86874 16.545 5.06785 15.7441 5.06785 14.7564ZM6.77642 18.0133C6.77642 17.8798 6.80311 17.7196 6.82981 17.5862C7.47052 17.5862 8.05784 17.3726 8.53838 16.9988C8.75195 17.159 8.96552 17.2925 9.20578 17.3726C9.15239 17.5862 9.1257 17.773 9.1257 17.9866C9.1257 18.5205 9.28587 19.0278 9.52614 19.4282C9.23248 19.6151 8.91212 19.7486 8.53838 19.7486C7.57731 19.7753 6.77642 19.0011 6.77642 18.0133ZM10.2469 23.0322C9.28587 23.0322 8.48498 22.2313 8.48498 21.2703C8.48498 21.1368 8.51168 20.9766 8.53838 20.8431C9.17909 20.8431 9.76641 20.6295 10.2469 20.2558C10.7275 20.6295 11.3148 20.8431 11.9555 20.8431C11.9822 20.9766 12.0089 21.1101 12.0089 21.2703C12.0089 22.258 11.208 23.0322 10.2469 23.0322ZM15.426 21.2703C15.426 22.2313 14.6251 23.0322 13.6641 23.0322C13.2903 23.0322 12.9433 22.9254 12.6763 22.7119C12.9433 22.2847 13.0768 21.7775 13.0768 21.2703C13.0768 21.0567 13.0501 20.8431 12.9967 20.6562C13.2369 20.5495 13.4505 20.4427 13.6641 20.2825C14.1446 20.6562 14.7319 20.8698 15.3726 20.8698C15.3993 20.9766 15.426 21.1368 15.426 21.2703ZM17.1346 18.0133C17.1346 18.9744 16.3337 19.7753 15.3726 19.7753C14.9989 19.7753 14.6518 19.6685 14.3849 19.4549C14.6518 19.0278 14.7853 18.5205 14.7853 18.0133C14.7853 17.7997 14.7586 17.5862 14.7052 17.3993C14.9455 17.2925 15.1591 17.1857 15.3726 17.0255C15.8532 17.3993 16.4405 17.6129 17.0812 17.6129C17.1079 17.7463 17.1346 17.8798 17.1346 18.0133ZM17.0812 16.545C16.7075 16.545 16.3604 16.4382 16.0934 16.2247C16.3604 15.7975 16.4939 15.2903 16.4939 14.7831C16.4939 14.2491 16.3337 13.7419 16.0934 13.3415C16.3871 13.1546 16.7075 13.0211 17.0812 13.0211C18.0423 13.0211 18.8432 13.822 18.8432 14.7831C18.8432 15.7441 18.0423 16.545 17.0812 16.545Z" fill="white"/>
</svg>
