<?xml version="1.0" encoding="UTF-8"?>
<svg width="24px" height="24px" viewBox="0 0 24 24" version="1.1" xmlns="http://www.w3.org/2000/svg" xmlns:xlink="http://www.w3.org/1999/xlink">
    <!-- Generator: Sketch 51.3 (57544) - http://www.bohemiancoding.com/sketch -->
    <title>icon strain flavor / blueberry</title>
    <desc>Created with Sketch.</desc>
    <defs></defs>
    <g id="icon-strain-flavor-/-blueberry" stroke="none" stroke-width="1" fill="none" fill-rule="evenodd">
        <g id="noun_blueberry_916161" transform="translate(0.000000, 2.000000)">
            <path d="M9.97894408,12.2187513 L9.63463993,13.1971117 L9.23285901,12.240918 C8.54990185,10.6155562 6.95617585,9.536 5.16284746,9.536 C4.94631278,9.536 4.7218651,9.55633008 4.47045029,9.59615817 L4.10404053,9.65420328 L4.01861401,9.29319406 C3.92323628,8.89013147 3.87362712,8.49029477 3.87362712,8.08976271 C3.87362712,5.21054373 6.20783186,2.87633898 9.08705085,2.87633898 C11.9662698,2.87633898 14.3004746,5.21054373 14.3004746,8.08976271 C14.3004746,8.36619165 14.2744547,8.64604067 14.2247263,8.94630497 L14.172771,9.26001661 L13.8554239,9.28014683 C12.0838403,9.3925234 10.5624828,10.5605918 9.97894408,12.2187513 Z M13.477042,8.51294914 C13.4925861,8.36706252 13.5004746,8.22707808 13.5004746,8.08976271 C13.5004746,5.65237153 11.524442,3.67633898 9.08705085,3.67633898 C6.64965966,3.67633898 4.67362712,5.65237153 4.67362712,8.08976271 C4.67362712,8.31100414 4.69177893,8.53305513 4.7273894,8.75713551 C4.87586961,8.74315794 5.01984879,8.736 5.16284746,8.736 C6.98703997,8.736 8.63649114,9.6817644 9.57448827,11.1704463 C10.3682069,9.72811162 11.811695,8.72478302 13.477042,8.51294914 Z" id="Path" fill="#FFFFFF" fill-rule="nonzero"></path>
            <g id="Group" transform="translate(0.000000, 7.728814)">
                <path d="M14.1384407,0.739932203 C17.0179983,0.739932203 19.3522712,3.07406882 19.3522712,5.95335593 C19.3522712,8.83257492 17.0180664,11.1667797 14.1388475,11.1667797 C12.0206706,11.1667797 10.1380383,9.89160871 9.33092382,7.97183898 L9.27110961,7.82956731 L9.32235741,7.68399042 C9.48952557,7.20912475 9.57627119,6.71878274 9.57627119,6.22061017 C9.57627119,5.62677922 9.45842932,5.048977 9.23285484,4.51209448 L9.17309996,4.36987384 L9.22431309,4.22435899 C9.95318366,2.15337677 11.9102026,0.739932203 14.1384407,0.739932203 Z M14.1388475,10.3667797 C16.5762386,10.3667797 18.5522712,8.39074712 18.5522712,5.95335593 C18.5522712,3.51590708 16.576181,1.5399322 14.1384407,1.5399322 C12.3028044,1.5399322 10.6843368,2.67361565 10.0303493,4.35128869 C10.2578081,4.94312556 10.3762712,5.5743016 10.3762712,6.22061017 C10.3762712,6.75745213 10.2914079,7.28576019 10.1280738,7.79734831 C10.8414027,9.34700556 12.3958912,10.3667797 14.1388475,10.3667797 Z" id="Path" fill="#FFFFFF" fill-rule="nonzero"></path>
                <circle id="Oval" stroke="#FFFFFF" stroke-width="0.8" cx="5.16284746" cy="6.22061017" r="4.81342373"></circle>
            </g>
            <path d="M5.53772204,13.6514715 C5.79166202,13.7927582 5.71647427,14.17645 5.42799057,14.211444 L4.83287576,14.2836334 L4.71773494,14.8718658 C4.66189949,15.1571184 4.2736346,15.204212 4.15122342,14.9405795 L3.89889722,14.3971535 L3.30378718,14.4693423 C3.01530041,14.5043367 2.85055824,14.1497426 3.06335963,13.9518417 L3.50216857,13.5437583 L3.24979969,13.0002405 C3.12742462,12.7366857 3.41375406,12.4704858 3.66770533,12.6117146 L4.19117777,12.9028309 L4.63034934,12.4946877 C4.84319661,12.2968786 5.18482846,12.4869416 5.12898366,12.7720973 L5.01384899,13.36 L5.53772204,13.6514715 Z" id="Path" fill="#FFFFFF" fill-rule="nonzero"></path>
            <path d="M15.0199826,12.8988718 C15.0998307,13.1783402 14.7753738,13.3966863 14.5465484,13.2174735 L14.0745808,12.8478351 L13.5773064,13.1822349 C13.336135,13.3444144 13.0283354,13.1032163 13.1281438,12.8302619 L13.3339442,12.2674425 L12.8620738,11.8978802 C12.6332452,11.7186648 12.7674862,11.3513333 13.05795,11.361893 L13.6568512,11.3836658 L13.862333,10.8209021 C13.9620056,10.5479234 14.3527571,10.5619554 14.4325928,10.8413803 L14.5972875,11.4178117 L15.1959893,11.4395881 C15.4864075,11.4501514 15.5936478,11.8261683 15.3524929,11.9883366 L14.8553477,12.3226496 L15.0199826,12.8988718 Z" id="Path" fill="#FFFFFF" fill-rule="nonzero"></path>
            <path d="M9.43652498,7.59853281 C9.51637309,7.87800121 9.19191621,8.0963473 8.96309079,7.91713448 L8.49112317,7.54749612 L7.99384882,7.88189596 C7.75267738,8.04407544 7.44487774,7.8028773 7.5446862,7.52992287 L7.75045576,6.96718786 L7.2787088,6.59802051 C7.04982257,6.41890475 7.18389037,6.05154073 7.47434328,6.06195538 L8.07335444,6.08343387 L8.27887535,5.52056308 C8.378548,5.24758443 8.76929948,5.26161644 8.84913515,5.54104129 L9.01382984,6.1174727 L9.61253172,6.1392491 C9.90294987,6.14981239 10.0101902,6.52582928 9.76903526,6.68799766 L9.27189008,7.02231065 L9.43652498,7.59853281 Z" id="Path" fill="#FFFFFF" fill-rule="nonzero"></path>
            <path d="M2.42680986,15.6016689 C2.54705384,15.7869911 2.49429747,16.0347015 2.30897521,16.1549455 C2.12365296,16.2751894 1.87594259,16.2224331 1.75569861,16.0371108 C1.62876167,15.8414732 1.51908398,15.6365759 1.42786741,15.4237372 C1.34084516,15.2206853 1.43490579,14.9855337 1.6379577,14.8985115 C1.84100962,14.8114892 2.07616119,14.9055499 2.16318344,15.1086018 C2.23632806,15.2792726 2.3244805,15.4439569 2.42680986,15.6016689 Z" id="Path" fill="#FFFFFF" fill-rule="nonzero"></path>
            <path d="M5.16284746,17.0875932 C5.38376136,17.0875932 5.56284746,17.2666793 5.56284746,17.4875932 C5.56284746,17.7085071 5.38376136,17.8875932 5.16284746,17.8875932 C4.29022295,17.8875932 3.45830874,17.6112206 2.7683809,17.1067572 C2.59005212,16.9763663 2.55119082,16.7260995 2.68158175,16.5477707 C2.81197269,16.3694419 3.06223947,16.3305806 3.24056825,16.4609716 C3.79457877,16.8660545 4.46143635,17.0875932 5.16284746,17.0875932 Z" id="Path" fill="#FFFFFF" fill-rule="nonzero"></path>
            <path d="M7.58387044,5.32858628 C7.39535796,5.44376438 7.1491681,5.38431513 7.03398999,5.19580265 C6.91881189,5.00729017 6.97826115,4.7611003 7.16677363,4.6459222 C7.36449022,4.52512052 7.57314385,4.42130318 7.79039393,4.33566518 C7.99591645,4.25465008 8.22820108,4.35558328 8.30921618,4.5611058 C8.39023128,4.76662831 8.28929808,4.99891295 8.08377556,5.07992805 C7.90939397,5.14866768 7.7421385,5.23188703 7.58387044,5.32858628 Z" id="Path" fill="#FFFFFF" fill-rule="nonzero"></path>
            <path d="M6.01826969,8.02091478 C6.01181103,8.24173425 5.8275657,8.41550802 5.60674623,8.40904935 C5.38592677,8.40259069 5.212153,8.21834536 5.21861166,7.99752589 C5.24411863,7.12545158 5.54448802,6.30182427 6.06840897,5.62675444 C6.20385435,5.45223367 6.45513156,5.42055681 6.62965233,5.55600219 C6.80417311,5.69144757 6.83584997,5.94272478 6.70040459,6.11724556 C6.27961437,6.65943189 6.03877565,7.31982326 6.01826969,8.02091478 Z" id="Path" fill="#FFFFFF" fill-rule="nonzero"></path>
            <path d="M13.1113938,16.650866 C13.3196417,16.7245935 13.4286921,16.9531798 13.3549645,17.1614277 C13.281237,17.3696756 13.0526507,17.478726 12.8444028,17.4049984 C12.6247705,17.3272404 12.4128399,17.2312782 12.2104149,17.1175262 C12.0178263,17.0093016 11.9494357,16.7654442 12.0576603,16.5728556 C12.1658849,16.3802669 12.4097422,16.3118764 12.6023308,16.420101 C12.7645935,16.511284 12.934716,16.5883154 13.1113938,16.650866 Z" id="Path" fill="#FFFFFF" fill-rule="nonzero"></path>
            <path d="M16.1867039,16.1634944 C16.3619544,16.0289946 16.6130567,16.0620296 16.7475565,16.2372801 C16.8820563,16.4125307 16.8490213,16.663633 16.6737707,16.7981328 C15.9814374,17.3294788 15.1531028,17.6169719 14.2990978,17.636908 C14.0782441,17.6420637 13.8950273,17.4672058 13.8898717,17.2463521 C13.884716,17.0254984 14.0595738,16.8422815 14.2804276,16.8371259 C14.9660854,16.8211198 15.6301337,16.5906461 16.1867039,16.1634944 Z" id="Path" fill="#FFFFFF" fill-rule="nonzero"></path>
            <path d="M13.190209,5.96526774 C12.9693064,5.96749869 12.7884208,5.79023026 12.7861899,5.56932763 C12.7815974,4.66534415 13.2216407,3.38039212 14.5249327,2.12019384 C14.9180581,1.7400673 15.3754202,1.38487569 15.9007837,1.058788 C16.0676905,0.95519066 16.2851219,0.988125943 16.4138606,1.136506 C16.482365,1.21546188 16.5965566,1.35835429 16.7412105,1.55841541 C16.9798562,1.8884705 17.2180387,2.26179918 17.4404296,2.67188036 C18.5002529,4.62615773 18.8411013,6.6657305 18.0068773,8.5917078 C17.801167,9.0666323 17.5253484,9.52459759 17.1765804,9.96334657 C17.0391135,10.1362795 16.7874847,10.1650304 16.6145517,10.0275634 C16.4416188,9.89009651 16.4128679,9.63846771 16.5503349,9.46553479 C16.8557304,9.08134824 17.0951804,8.68376888 17.2727819,8.27373935 C17.9921435,6.61294546 17.6912652,4.81254632 16.7371855,3.05325637 C16.5321045,2.67509406 16.3122813,2.33054182 16.0929214,2.02715975 C16.0688016,1.99380123 16.0457329,1.96234671 16.0238128,1.93284274 C15.6708012,2.1734047 15.3572943,2.4281781 15.0810301,2.69530751 C14.4192168,3.33523777 13.9981489,4.01472493 13.7665228,4.69108636 C13.6296637,5.09072289 13.5854642,5.39677867 13.5861578,5.56203811 C13.587958,5.7825816 13.4108487,5.96303944 13.190209,5.96526774 Z" id="Path" fill="#FFFFFF" fill-rule="nonzero"></path>
            <path d="M18.6204293,8.27572098 C18.2812808,8.36456341 18.0401259,8.45189469 17.9181759,8.50649841 C17.7165507,8.59677708 17.4799158,8.5065129 17.3896372,8.30488772 C17.2993585,8.10326254 17.3896227,7.86662771 17.5912479,7.77634905 C17.7514239,7.70462945 18.0335092,7.60247574 18.4177037,7.50183318 C20.1598753,7.04545849 22.0796084,7.11066029 23.9456945,8.05899915 C24.1065976,8.14076959 24.1928082,8.3201653 24.1561266,8.49688732 C24.1215545,8.66344592 24.0465404,8.94322029 23.9223517,9.29919958 C23.7162391,9.89000858 23.4432783,10.4809567 23.0933739,11.0350759 C22.1300927,12.5605572 20.7726064,13.5250413 18.9733345,13.6199196 C18.7527271,13.6315526 18.5644591,13.4621453 18.5528262,13.2415379 C18.5411932,13.0209305 18.7106005,12.8326625 18.9312079,12.8210295 C20.4412616,12.7414022 21.5811636,11.93151 22.4169466,10.6079387 C22.7317096,10.1094706 22.9796704,9.57264639 23.1669981,9.03568316 C23.2199651,8.88385648 23.2626709,8.74865392 23.2959149,8.63412664 C21.7163394,7.91837505 20.0986892,7.88847992 18.6204293,8.27572098 Z" id="Path" fill="#FFFFFF" fill-rule="nonzero"></path>
        </g>
    </g>
</svg>