<svg width="24" height="24" viewBox="0 0 24 24" fill="none" xmlns="http://www.w3.org/2000/svg">
<path fill-rule="evenodd" clip-rule="evenodd" d="M0 5.34783C0 2.94701 1.94667 1 4.34783 1H7.13043C8.18886 1 9.15897 1.3784 9.91304 2.00747C10.6671 1.3784 11.6372 1 12.6957 1H15.4783C15.7144 1 15.9477 1.01902 16.1739 1.05571C16.4004 1.01902 16.6328 1 16.8696 1H19.6522C22.0533 1 24 2.94701 24 5.34783C24 6.60666 23.4643 7.74184 22.6087 8.53533L22.6157 20.3043C22.6157 21.9368 21.4589 23.2609 19.8261 23.2609H4.35478C2.72198 23.2609 1.3913 21.9368 1.3913 20.3043V8.53533C0.535666 7.74184 0 6.60666 0 5.34783ZM4.34783 2.73913C2.90727 2.73913 1.73913 3.90694 1.73913 5.34783C1.73913 6.11957 2.0727 6.81249 2.60903 7.29212C2.9409 7.58899 3.13043 8.01291 3.13043 8.45856V20.3043C3.13043 20.9769 3.68257 21.5217 4.35478 21.5217H15.4852C16.1575 21.5217 16.6957 20.9769 16.6957 20.3043V8.45856C16.6957 8.01291 16.8851 7.58899 17.2171 7.29212C17.7535 6.81249 18.087 6.11957 18.087 5.34783C18.087 4.17799 17.3173 3.18817 16.2561 2.85665L16.139 2.82406L15.4674 2.73913H12.6957C12.0268 2.73913 11.4195 2.98913 10.9572 3.40353C10.3628 3.93546 9.46332 3.93546 8.86923 3.40353C8.4066 2.98913 7.79925 2.73913 7.13043 2.73913H4.34783ZM18.1704 21.5217H19.8261C20.4984 21.5217 20.8765 20.9769 20.8765 20.3043L20.8696 7.75883L21.391 7.29212C21.927 6.81249 22.2609 6.11957 22.2609 5.34783C22.2609 3.90694 21.0927 2.73913 19.6522 2.73913H18.9568C19.5027 3.46603 19.8261 4.36957 19.8261 5.34783C19.8261 6.60666 19.2904 7.74184 18.4348 8.53533L18.4417 20.3043C18.4417 20.7377 18.3386 21.1501 18.1704 21.5217ZM6.26087 5.17391C6.26087 4.69362 6.65014 4.30435 7.13043 4.30435C7.61073 4.30435 8 4.69362 8 5.17391C8 5.6542 7.61073 6.04348 7.13043 6.04348C6.65014 6.04348 6.26087 5.6542 6.26087 5.17391ZM3.65217 6.56522C3.65217 6.08493 4.04145 5.69565 4.52174 5.69565C5.00203 5.69565 5.3913 6.08493 5.3913 6.56522C5.3913 7.04551 5.00203 7.43478 4.52174 7.43478C4.04145 7.43478 3.65217 7.04551 3.65217 6.56522ZM6.17572 8.53533C5.69542 8.53533 5.30616 8.92459 5.30616 9.40489C5.30616 9.88518 5.69542 10.2745 6.17572 10.2745C6.65602 10.2745 7.04529 9.88518 7.04529 9.40489C7.04529 8.92459 6.65602 8.53533 6.17572 8.53533Z" fill="white"/>
</svg>
