<svg width="24" height="24" viewBox="0 0 24 24" fill="none" xmlns="http://www.w3.org/2000/svg">
<mask id="path-1-inside-1" fill="white">
<path fill-rule="evenodd" clip-rule="evenodd" d="M0.877383 11.218C0.870491 12.066 0.86192 13.1205 1.17091 13.3521C1.57711 13.6568 3.74465 14.1269 5.03934 14.4068L5.4344 14.4928L5.24801 15.3473L4.85427 15.2622C2.78642 14.8141 1.16375 14.4405 0.645659 14.0521C-0.0166672 13.5549 -0.00765223 12.4159 0.00242319 11.2098L0.00427918 10.9475C0.0103775 9.80026 0.0588985 8.0177 0.0944276 6.71612L0.106094 6.28579C0.151698 4.5971 0.658917 3.69482 1.97774 2.95613L2.23068 2.81428L2.23236 2.81333L2.23236 2.81333C3.23726 2.24887 4.27628 1.66525 5.25888 1.36951L5.2598 1.36924C5.9925 1.14895 6.90423 0.874838 8.49839 1.06248C8.99156 1.12028 9.59104 1.181 10.2258 1.24516L10.233 1.24589L10.233 1.24589C11.5024 1.37426 12.8134 1.50684 13.4367 1.63757L13.4368 1.6376C14.1164 1.77999 15.7074 2.11333 15.8344 3.69296C15.9242 4.81372 15.7991 5.87906 15.7935 5.92361L14.9252 5.81941L14.9253 5.81813C14.9301 5.77649 15.0437 4.77704 14.9626 3.76296C14.9082 3.08658 14.4458 2.74269 13.2574 2.49372C12.6802 2.37262 11.3362 2.23675 10.1478 2.11662L10.1478 2.11662L10.138 2.11563C9.49983 2.0512 8.8969 1.99021 8.39658 1.93109C6.98406 1.76505 6.20286 1.99971 5.51412 2.2066L5.51156 2.20737C4.62068 2.47569 3.66802 3.01048 2.65968 3.57709L2.40568 3.71948C1.49306 4.23067 1.02243 4.7713 0.9808 6.30939L0.969133 6.73972L0.967154 6.81255C0.932071 8.10316 0.884975 9.83572 0.87925 10.952L0.877394 11.2167L0.877383 11.218ZM22.7323 9.26054C23.4495 9.67549 23.9597 10.0846 23.9915 11.5782C24.008 12.361 23.9971 14.1407 23.9876 15.6922V15.6925C23.9844 16.2108 23.9814 16.7036 23.9796 17.1252C23.9785 17.4448 23.9718 17.7236 23.9666 17.9416V17.9417V17.9417V17.9418V17.9419C23.9631 18.0897 23.9602 18.2095 23.9602 18.295V18.4393L23.9602 18.4866C23.9607 19.3048 23.9612 20.3021 22.7944 20.6672C22.4004 20.7903 20.9848 21.2081 19.3266 21.692C17.1821 22.318 14.5145 23.0973 14.1348 23.2291C13.7657 23.3571 13.4035 23.4725 12.996 23.4725C12.4777 23.4725 11.9946 23.2837 11.5088 22.895C11.4503 22.8482 11.3812 22.7927 11.3029 22.7299C11.0723 22.5448 10.7617 22.2955 10.404 22.0134L10.1555 21.8175C8.53923 20.5438 7.09681 19.4071 6.78399 19.1069C5.94932 18.3056 5.9305 18.067 5.9305 17.0706V10.0713C5.9305 9.15289 6.46662 8.56587 7.59029 8.27686C8.14576 8.13395 10.0551 7.7129 11.9262 7.30538L12.3141 7.22098C13.7549 6.9076 15.0587 6.62399 15.4499 6.52612C15.8285 6.43173 16.148 6.36836 16.4575 6.36836C16.926 6.36836 17.3303 6.50836 17.9545 6.78384C18.9583 7.22663 22.1734 8.93707 22.7225 9.25497L22.7323 9.26054ZM23.1579 17.9758C23.1515 17.7525 23.1432 17.4599 23.1444 17.1218C23.1515 15.4418 23.1507 12.63 23.1285 11.5967C23.1053 10.4869 22.7959 10.3079 22.3031 10.0229L22.2938 10.0175L22.284 10.012C21.7431 9.69882 18.5836 8.01729 17.6005 7.58378C17.009 7.32235 16.7393 7.24307 16.4561 7.24307C16.2652 7.24307 16.038 7.27992 15.6591 7.37458C15.2735 7.47099 14.0556 7.73593 12.684 8.03432L12.6837 8.03438L12.1067 8.15993L11.7144 8.24535L11.7142 8.24538L11.7139 8.24545L11.7133 8.24558L11.7132 8.24561C10.0421 8.6094 8.26852 8.99548 7.76847 9.12399C6.83357 9.36421 6.72593 9.72375 6.72593 10.0711V17.0703C6.72593 17.877 6.75393 17.9038 7.29311 18.4205L7.3506 18.4756C7.59491 18.7101 8.77063 19.6312 9.88417 20.5036L9.88454 20.5039L9.88458 20.5039L9.88469 20.504L9.8848 20.5041C10.2527 20.7922 10.6137 21.0751 10.9321 21.3261C11.4134 21.7053 11.818 22.0258 12.05 22.2117C12.4819 22.5572 12.7966 22.5972 12.9955 22.5972C13.267 22.5972 13.5451 22.5089 13.8516 22.4026C14.2213 22.2738 16.3443 21.6542 18.5364 21.0144L18.537 21.0142L19.0927 20.852C19.4468 20.7487 19.7971 20.6466 20.1319 20.5491L20.1478 20.5444L20.1619 20.5403L20.1696 20.5381C21.3171 20.2037 22.2764 19.9242 22.573 19.8315C23.0988 19.6671 23.1648 19.3391 23.1648 18.4427V18.295C23.1648 18.2162 23.1617 18.1083 23.1579 17.976L23.1579 17.9758ZM11.7772 12.8138C11.6959 12.7608 11.6202 12.7066 11.5401 12.6492L11.4736 12.6016C11.3861 12.5393 11.2619 12.4563 11.1113 12.3556L11.1111 12.3555L11.111 12.3554C11.0331 12.3033 10.9481 12.2465 10.8574 12.1854L10.8337 12.1694L10.8337 12.1694C9.98852 11.5984 8.59364 10.6561 7.66561 9.86856L7.10059 10.5357C8.0497 11.341 9.44277 12.2828 10.3063 12.8665L10.3063 12.8665L10.3714 12.9105C10.4818 12.985 10.5845 13.0529 10.6757 13.1131L10.6758 13.1132C10.8002 13.1954 10.9031 13.2634 10.9746 13.3144C11.0506 13.3687 11.1318 13.4183 11.2094 13.4658C11.2548 13.4936 11.2991 13.5207 11.3402 13.5474L11.3643 13.563C12.0597 14.0146 12.5591 14.3389 12.5591 16.7641V21.9996H13.3545V16.7641C13.3545 14.0332 12.7564 13.4501 11.7772 12.8138ZM19.9187 16.3646C19.8983 14.7461 19.8729 12.7334 20.8594 11.821C21.2526 11.457 21.7609 11.3003 22.3697 11.3551L22.2901 12.2261C21.9346 12.1938 21.6604 12.2712 21.4539 12.4626C20.7534 13.1107 20.7769 14.9835 20.7942 16.3524V16.3524L20.7942 16.3555C20.8122 17.7549 20.8239 18.6797 20.2411 18.9528C20.0457 19.0445 19.8636 19.0904 19.6952 19.0904C19.5502 19.0904 19.4149 19.0565 19.2911 18.9881C18.7603 18.6959 18.6675 17.9596 18.5137 16.7391C18.4368 16.128 18.3496 15.4349 18.1902 14.6646C18.0916 14.1869 17.8792 13.8528 17.622 13.7706C17.5157 13.7366 17.415 13.7541 17.3455 13.8183C17.2532 13.9042 17.2265 14.0636 17.2726 14.2555C17.5515 15.4214 17.3431 16.3836 16.715 16.8293C16.3297 17.1024 15.8527 17.1188 15.4701 16.8722C14.9603 16.5435 14.7516 15.8506 14.9123 15.0181C14.9446 14.8502 14.9698 14.5459 14.7744 14.3963C14.574 14.2436 14.185 14.2783 13.7584 14.4878L13.3731 13.7022C14.1216 13.335 14.8261 13.3344 15.3055 13.7014C15.7218 14.0196 15.8917 14.5599 15.7711 15.1841C15.6642 15.7364 15.7973 16.0429 15.9434 16.137C16.0508 16.2059 16.1558 16.1534 16.2086 16.1155C16.4491 15.9453 16.6487 15.4092 16.4215 14.4594C16.2998 13.9517 16.4194 13.4842 16.75 13.1772C17.0531 12.8959 17.4783 12.8063 17.8883 12.9372C18.4583 13.1197 18.8809 13.6849 19.0467 14.4878C19.2126 15.2917 19.3068 16.0338 19.3815 16.6302L19.3818 16.6322C19.4624 17.2711 19.562 18.0613 19.7074 18.2154C19.7249 18.2136 19.762 18.207 19.8238 18.1812C19.9389 17.9429 19.9275 17.0361 19.9187 16.3674L19.9187 16.3646ZM8.45209 4.25904C7.70094 4.31658 6.94555 4.25506 6.93812 4.25427L6.86494 5.12632C7.69617 5.19632 10.42 5.32147 10.5735 3.99708C10.6056 3.72027 10.5427 3.20085 9.76136 2.83019C8.54648 2.25403 5.83539 2.28373 4.51737 3.64205C4.02341 4.15113 3.8622 4.7583 4.07538 5.30794C4.39912 6.14288 5.51537 6.67873 7.13777 6.77736C7.34856 6.79036 7.5734 6.79725 7.80859 6.79725C10.0241 6.79725 13.1313 6.16727 13.3456 3.75209L12.474 3.67466C12.2518 6.18238 7.24171 5.90717 7.19107 5.90372C5.71979 5.81437 5.03254 5.35647 4.89122 4.99163C4.78145 4.70899 4.96891 4.43297 5.14523 4.25135C6.1472 3.21862 8.40913 3.15684 9.38645 3.62084C9.6044 3.72398 9.71152 3.83746 9.70462 3.89632C9.69799 3.94935 9.45592 4.18162 8.45209 4.25904ZM17.5267 9.33707C16.8206 8.94466 16.5825 8.82031 16.2747 8.82031C16.1154 8.82031 15.916 8.8516 15.6474 8.91894C15.0344 9.07167 11.8972 9.73002 10.5723 9.9408C10.5436 9.94531 10.5163 9.95008 10.4901 9.95512C11.0965 10.3412 11.9203 10.8807 12.4325 11.2177C12.6531 11.1446 12.9037 11.1077 13.1834 11.1077C13.8375 11.1077 14.5654 11.3102 15.0477 11.4444L15.049 11.4447C15.1752 11.48 15.3059 11.5163 15.3645 11.5282C15.5122 11.5584 15.6421 11.5738 15.7495 11.5738C15.8917 11.5738 15.9396 11.547 15.9419 11.5458L15.942 11.5457C15.9504 11.5383 15.9833 11.4903 16.0149 11.3779C16.241 10.571 16.8991 10.0697 17.7327 10.0697C18.1845 10.0697 18.6729 10.216 19.1573 10.495C19.2191 10.4239 19.2899 10.3433 19.3721 10.2579C18.8694 10.0325 18.367 9.79683 18.0209 9.60938C17.8513 9.51723 17.697 9.43159 17.5552 9.35291L17.5267 9.33707ZM15.4289 8.04424C15.7667 7.95966 16.0353 7.91883 16.2747 7.91883C16.8306 7.91883 17.2281 8.13957 17.9635 8.54795C18.111 8.62986 18.272 8.71933 18.4507 8.81607C19.3647 9.31162 21.5131 10.1964 21.5131 10.1964C20.5628 10.2525 20.1396 10.7389 19.8211 11.105C19.6218 11.3341 19.4635 11.516 19.2427 11.516C19.1396 11.516 19.0224 11.4762 18.8811 11.3827C18.4725 11.1125 18.0711 10.9704 17.733 10.9704C17.3236 10.9704 17.007 11.1788 16.8832 11.6205C16.7382 12.1383 16.4227 12.4748 15.75 12.4748C15.5843 12.4748 15.3968 12.4544 15.1847 12.4111C15.0953 12.3929 14.9649 12.3565 14.8081 12.3129C14.3664 12.1899 13.7155 12.0087 13.1837 12.0087C12.8515 12.0087 12.5656 12.0797 12.4065 12.2799C12.4065 12.2799 10.0807 10.7415 9.43906 10.3624C8.79742 9.98349 9.14741 9.25435 10.4307 9.05019C11.7137 8.84603 14.8286 8.19378 15.4289 8.04424Z"/>
</mask>
<path fill-rule="evenodd" clip-rule="evenodd" d="M0.877383 11.218C0.870491 12.066 0.86192 13.1205 1.17091 13.3521C1.57711 13.6568 3.74465 14.1269 5.03934 14.4068L5.4344 14.4928L5.24801 15.3473L4.85427 15.2622C2.78642 14.8141 1.16375 14.4405 0.645659 14.0521C-0.0166672 13.5549 -0.00765223 12.4159 0.00242319 11.2098L0.00427918 10.9475C0.0103775 9.80026 0.0588985 8.0177 0.0944276 6.71612L0.106094 6.28579C0.151698 4.5971 0.658917 3.69482 1.97774 2.95613L2.23068 2.81428L2.23236 2.81333L2.23236 2.81333C3.23726 2.24887 4.27628 1.66525 5.25888 1.36951L5.2598 1.36924C5.9925 1.14895 6.90423 0.874838 8.49839 1.06248C8.99156 1.12028 9.59104 1.181 10.2258 1.24516L10.233 1.24589L10.233 1.24589C11.5024 1.37426 12.8134 1.50684 13.4367 1.63757L13.4368 1.6376C14.1164 1.77999 15.7074 2.11333 15.8344 3.69296C15.9242 4.81372 15.7991 5.87906 15.7935 5.92361L14.9252 5.81941L14.9253 5.81813C14.9301 5.77649 15.0437 4.77704 14.9626 3.76296C14.9082 3.08658 14.4458 2.74269 13.2574 2.49372C12.6802 2.37262 11.3362 2.23675 10.1478 2.11662L10.1478 2.11662L10.138 2.11563C9.49983 2.0512 8.8969 1.99021 8.39658 1.93109C6.98406 1.76505 6.20286 1.99971 5.51412 2.2066L5.51156 2.20737C4.62068 2.47569 3.66802 3.01048 2.65968 3.57709L2.40568 3.71948C1.49306 4.23067 1.02243 4.7713 0.9808 6.30939L0.969133 6.73972L0.967154 6.81255C0.932071 8.10316 0.884975 9.83572 0.87925 10.952L0.877394 11.2167L0.877383 11.218ZM22.7323 9.26054C23.4495 9.67549 23.9597 10.0846 23.9915 11.5782C24.008 12.361 23.9971 14.1407 23.9876 15.6922V15.6925C23.9844 16.2108 23.9814 16.7036 23.9796 17.1252C23.9785 17.4448 23.9718 17.7236 23.9666 17.9416V17.9417V17.9417V17.9418V17.9419C23.9631 18.0897 23.9602 18.2095 23.9602 18.295V18.4393L23.9602 18.4866C23.9607 19.3048 23.9612 20.3021 22.7944 20.6672C22.4004 20.7903 20.9848 21.2081 19.3266 21.692C17.1821 22.318 14.5145 23.0973 14.1348 23.2291C13.7657 23.3571 13.4035 23.4725 12.996 23.4725C12.4777 23.4725 11.9946 23.2837 11.5088 22.895C11.4503 22.8482 11.3812 22.7927 11.3029 22.7299C11.0723 22.5448 10.7617 22.2955 10.404 22.0134L10.1555 21.8175C8.53923 20.5438 7.09681 19.4071 6.78399 19.1069C5.94932 18.3056 5.9305 18.067 5.9305 17.0706V10.0713C5.9305 9.15289 6.46662 8.56587 7.59029 8.27686C8.14576 8.13395 10.0551 7.7129 11.9262 7.30538L12.3141 7.22098C13.7549 6.9076 15.0587 6.62399 15.4499 6.52612C15.8285 6.43173 16.148 6.36836 16.4575 6.36836C16.926 6.36836 17.3303 6.50836 17.9545 6.78384C18.9583 7.22663 22.1734 8.93707 22.7225 9.25497L22.7323 9.26054ZM23.1579 17.9758C23.1515 17.7525 23.1432 17.4599 23.1444 17.1218C23.1515 15.4418 23.1507 12.63 23.1285 11.5967C23.1053 10.4869 22.7959 10.3079 22.3031 10.0229L22.2938 10.0175L22.284 10.012C21.7431 9.69882 18.5836 8.01729 17.6005 7.58378C17.009 7.32235 16.7393 7.24307 16.4561 7.24307C16.2652 7.24307 16.038 7.27992 15.6591 7.37458C15.2735 7.47099 14.0556 7.73593 12.684 8.03432L12.6837 8.03438L12.1067 8.15993L11.7144 8.24535L11.7142 8.24538L11.7139 8.24545L11.7133 8.24558L11.7132 8.24561C10.0421 8.6094 8.26852 8.99548 7.76847 9.12399C6.83357 9.36421 6.72593 9.72375 6.72593 10.0711V17.0703C6.72593 17.877 6.75393 17.9038 7.29311 18.4205L7.3506 18.4756C7.59491 18.7101 8.77063 19.6312 9.88417 20.5036L9.88454 20.5039L9.88458 20.5039L9.88469 20.504L9.8848 20.5041C10.2527 20.7922 10.6137 21.0751 10.9321 21.3261C11.4134 21.7053 11.818 22.0258 12.05 22.2117C12.4819 22.5572 12.7966 22.5972 12.9955 22.5972C13.267 22.5972 13.5451 22.5089 13.8516 22.4026C14.2213 22.2738 16.3443 21.6542 18.5364 21.0144L18.537 21.0142L19.0927 20.852C19.4468 20.7487 19.7971 20.6466 20.1319 20.5491L20.1478 20.5444L20.1619 20.5403L20.1696 20.5381C21.3171 20.2037 22.2764 19.9242 22.573 19.8315C23.0988 19.6671 23.1648 19.3391 23.1648 18.4427V18.295C23.1648 18.2162 23.1617 18.1083 23.1579 17.976L23.1579 17.9758ZM11.7772 12.8138C11.6959 12.7608 11.6202 12.7066 11.5401 12.6492L11.4736 12.6016C11.3861 12.5393 11.2619 12.4563 11.1113 12.3556L11.1111 12.3555L11.111 12.3554C11.0331 12.3033 10.9481 12.2465 10.8574 12.1854L10.8337 12.1694L10.8337 12.1694C9.98852 11.5984 8.59364 10.6561 7.66561 9.86856L7.10059 10.5357C8.0497 11.341 9.44277 12.2828 10.3063 12.8665L10.3063 12.8665L10.3714 12.9105C10.4818 12.985 10.5845 13.0529 10.6757 13.1131L10.6758 13.1132C10.8002 13.1954 10.9031 13.2634 10.9746 13.3144C11.0506 13.3687 11.1318 13.4183 11.2094 13.4658C11.2548 13.4936 11.2991 13.5207 11.3402 13.5474L11.3643 13.563C12.0597 14.0146 12.5591 14.3389 12.5591 16.7641V21.9996H13.3545V16.7641C13.3545 14.0332 12.7564 13.4501 11.7772 12.8138ZM19.9187 16.3646C19.8983 14.7461 19.8729 12.7334 20.8594 11.821C21.2526 11.457 21.7609 11.3003 22.3697 11.3551L22.2901 12.2261C21.9346 12.1938 21.6604 12.2712 21.4539 12.4626C20.7534 13.1107 20.7769 14.9835 20.7942 16.3524V16.3524L20.7942 16.3555C20.8122 17.7549 20.8239 18.6797 20.2411 18.9528C20.0457 19.0445 19.8636 19.0904 19.6952 19.0904C19.5502 19.0904 19.4149 19.0565 19.2911 18.9881C18.7603 18.6959 18.6675 17.9596 18.5137 16.7391C18.4368 16.128 18.3496 15.4349 18.1902 14.6646C18.0916 14.1869 17.8792 13.8528 17.622 13.7706C17.5157 13.7366 17.415 13.7541 17.3455 13.8183C17.2532 13.9042 17.2265 14.0636 17.2726 14.2555C17.5515 15.4214 17.3431 16.3836 16.715 16.8293C16.3297 17.1024 15.8527 17.1188 15.4701 16.8722C14.9603 16.5435 14.7516 15.8506 14.9123 15.0181C14.9446 14.8502 14.9698 14.5459 14.7744 14.3963C14.574 14.2436 14.185 14.2783 13.7584 14.4878L13.3731 13.7022C14.1216 13.335 14.8261 13.3344 15.3055 13.7014C15.7218 14.0196 15.8917 14.5599 15.7711 15.1841C15.6642 15.7364 15.7973 16.0429 15.9434 16.137C16.0508 16.2059 16.1558 16.1534 16.2086 16.1155C16.4491 15.9453 16.6487 15.4092 16.4215 14.4594C16.2998 13.9517 16.4194 13.4842 16.75 13.1772C17.0531 12.8959 17.4783 12.8063 17.8883 12.9372C18.4583 13.1197 18.8809 13.6849 19.0467 14.4878C19.2126 15.2917 19.3068 16.0338 19.3815 16.6302L19.3818 16.6322C19.4624 17.2711 19.562 18.0613 19.7074 18.2154C19.7249 18.2136 19.762 18.207 19.8238 18.1812C19.9389 17.9429 19.9275 17.0361 19.9187 16.3674L19.9187 16.3646ZM8.45209 4.25904C7.70094 4.31658 6.94555 4.25506 6.93812 4.25427L6.86494 5.12632C7.69617 5.19632 10.42 5.32147 10.5735 3.99708C10.6056 3.72027 10.5427 3.20085 9.76136 2.83019C8.54648 2.25403 5.83539 2.28373 4.51737 3.64205C4.02341 4.15113 3.8622 4.7583 4.07538 5.30794C4.39912 6.14288 5.51537 6.67873 7.13777 6.77736C7.34856 6.79036 7.5734 6.79725 7.80859 6.79725C10.0241 6.79725 13.1313 6.16727 13.3456 3.75209L12.474 3.67466C12.2518 6.18238 7.24171 5.90717 7.19107 5.90372C5.71979 5.81437 5.03254 5.35647 4.89122 4.99163C4.78145 4.70899 4.96891 4.43297 5.14523 4.25135C6.1472 3.21862 8.40913 3.15684 9.38645 3.62084C9.6044 3.72398 9.71152 3.83746 9.70462 3.89632C9.69799 3.94935 9.45592 4.18162 8.45209 4.25904ZM17.5267 9.33707C16.8206 8.94466 16.5825 8.82031 16.2747 8.82031C16.1154 8.82031 15.916 8.8516 15.6474 8.91894C15.0344 9.07167 11.8972 9.73002 10.5723 9.9408C10.5436 9.94531 10.5163 9.95008 10.4901 9.95512C11.0965 10.3412 11.9203 10.8807 12.4325 11.2177C12.6531 11.1446 12.9037 11.1077 13.1834 11.1077C13.8375 11.1077 14.5654 11.3102 15.0477 11.4444L15.049 11.4447C15.1752 11.48 15.3059 11.5163 15.3645 11.5282C15.5122 11.5584 15.6421 11.5738 15.7495 11.5738C15.8917 11.5738 15.9396 11.547 15.9419 11.5458L15.942 11.5457C15.9504 11.5383 15.9833 11.4903 16.0149 11.3779C16.241 10.571 16.8991 10.0697 17.7327 10.0697C18.1845 10.0697 18.6729 10.216 19.1573 10.495C19.2191 10.4239 19.2899 10.3433 19.3721 10.2579C18.8694 10.0325 18.367 9.79683 18.0209 9.60938C17.8513 9.51723 17.697 9.43159 17.5552 9.35291L17.5267 9.33707ZM15.4289 8.04424C15.7667 7.95966 16.0353 7.91883 16.2747 7.91883C16.8306 7.91883 17.2281 8.13957 17.9635 8.54795C18.111 8.62986 18.272 8.71933 18.4507 8.81607C19.3647 9.31162 21.5131 10.1964 21.5131 10.1964C20.5628 10.2525 20.1396 10.7389 19.8211 11.105C19.6218 11.3341 19.4635 11.516 19.2427 11.516C19.1396 11.516 19.0224 11.4762 18.8811 11.3827C18.4725 11.1125 18.0711 10.9704 17.733 10.9704C17.3236 10.9704 17.007 11.1788 16.8832 11.6205C16.7382 12.1383 16.4227 12.4748 15.75 12.4748C15.5843 12.4748 15.3968 12.4544 15.1847 12.4111C15.0953 12.3929 14.9649 12.3565 14.8081 12.3129C14.3664 12.1899 13.7155 12.0087 13.1837 12.0087C12.8515 12.0087 12.5656 12.0797 12.4065 12.2799C12.4065 12.2799 10.0807 10.7415 9.43906 10.3624C8.79742 9.98349 9.14741 9.25435 10.4307 9.05019C11.7137 8.84603 14.8286 8.19378 15.4289 8.04424Z" fill="white"/>
<path d="M1.17091 13.3521L1.77091 12.5521L1.77069 12.5519L1.17091 13.3521ZM0.877383 11.218L1.87735 11.2262L1.87735 11.2261L0.877383 11.218ZM5.03934 14.4068L5.25182 13.4297L5.25071 13.4294L5.03934 14.4068ZM5.4344 14.4928L6.41143 14.7059L6.62468 13.7282L5.64689 13.5156L5.4344 14.4928ZM5.24801 15.3473L5.03673 16.3247L6.01232 16.5356L6.22504 15.5604L5.24801 15.3473ZM4.85427 15.2622L4.64249 16.2395L4.64299 16.2396L4.85427 15.2622ZM0.645659 14.0521L0.0453525 14.8519L0.04579 14.8522L0.645659 14.0521ZM0.00242319 11.2098L1.00239 11.2181L1.0024 11.2168L0.00242319 11.2098ZM0.00427918 10.9475L1.00426 10.9546L1.00427 10.9528L0.00427918 10.9475ZM0.0944276 6.71612L1.09406 6.7434L1.09406 6.74322L0.0944276 6.71612ZM0.106094 6.28579L1.10573 6.31289L1.10573 6.31279L0.106094 6.28579ZM1.97774 2.95613L2.46641 3.82859L2.46687 3.82834L1.97774 2.95613ZM2.23068 2.81428L2.71981 3.68649L2.7204 3.68616L2.23068 2.81428ZM2.23236 2.81333L1.78515 1.91891L1.76362 1.92967L1.74264 1.94145L2.23236 2.81333ZM2.23236 2.81333L2.67958 3.70776L2.70111 3.69699L2.7221 3.6852L2.23236 2.81333ZM5.25888 1.36951L4.97084 0.411894L4.97068 0.411945L5.25888 1.36951ZM5.2598 1.36924L4.97188 0.411582L4.97177 0.411616L5.2598 1.36924ZM8.49839 1.06248L8.38149 2.05562L8.38198 2.05568L8.49839 1.06248ZM10.2258 1.24516L10.3264 0.250237L10.3264 0.250233L10.2258 1.24516ZM10.233 1.24589L10.1324 2.24088L10.1435 2.24188L10.233 1.24589ZM10.233 1.24589L10.3336 0.250901L10.3225 0.249901L10.233 1.24589ZM13.4367 1.63757L13.6421 0.6589L13.642 0.658875L13.4367 1.63757ZM13.4368 1.6376L13.2314 2.61627L13.2317 2.61635L13.4368 1.6376ZM15.8344 3.69296L16.8312 3.61302L16.8311 3.61282L15.8344 3.69296ZM15.7935 5.92361L15.6744 6.91648L16.6624 7.03504L16.7858 6.04763L15.7935 5.92361ZM14.9252 5.81941L13.9315 5.70726L13.8201 6.69397L14.806 6.81228L14.9252 5.81941ZM14.9253 5.81813L13.9317 5.70518L13.9316 5.70599L14.9253 5.81813ZM14.9626 3.76296L15.9594 3.68322L15.9594 3.68286L14.9626 3.76296ZM13.2574 2.49372L13.0521 3.47241L13.0524 3.47247L13.2574 2.49372ZM10.1478 2.11662L10.0442 3.11124L10.0473 3.11155L10.1478 2.11662ZM10.1478 2.11662L10.2514 1.12199L10.2484 1.12169L10.1478 2.11662ZM10.138 2.11563L10.2386 1.1207L10.2385 1.12068L10.138 2.11563ZM8.39658 1.93109L8.51394 0.937998L8.51332 0.937925L8.39658 1.93109ZM5.51412 2.2066L5.80179 3.16432L5.80181 3.16432L5.51412 2.2066ZM5.51156 2.20737L5.22388 1.24964L5.22317 1.24985L5.51156 2.20737ZM2.65968 3.57709L3.14865 4.4494L3.14956 4.44888L2.65968 3.57709ZM2.40568 3.71948L2.89437 4.59193L2.89464 4.59178L2.40568 3.71948ZM0.9808 6.30939L1.98043 6.33649L1.98043 6.33644L0.9808 6.30939ZM0.969133 6.73972L1.96876 6.76689L1.96877 6.76682L0.969133 6.73972ZM0.967154 6.81255L1.96678 6.83973L1.96678 6.83973L0.967154 6.81255ZM0.87925 10.952L1.87923 10.9591L1.87924 10.9572L0.87925 10.952ZM0.877394 11.2167L1.87736 11.2247L1.87737 11.2237L0.877394 11.2167ZM23.9915 11.5782L24.9913 11.5571L24.9913 11.5569L23.9915 11.5782ZM22.7323 9.26054L23.2331 8.39494L23.2259 8.39085L22.7323 9.26054ZM23.9876 15.6922L22.9876 15.6861V15.6922H23.9876ZM23.9876 15.6925L24.9876 15.6987V15.6925H23.9876ZM23.9796 17.1252L22.9796 17.1209L22.9796 17.1217L23.9796 17.1252ZM23.9666 17.9416L22.9669 17.9177L22.9666 17.9296V17.9416H23.9666ZM23.9666 17.9419L24.9663 17.9658L24.9666 17.9538V17.9419H23.9666ZM23.9602 18.4393L22.9602 18.4393L22.9602 18.4396L23.9602 18.4393ZM23.9602 18.4866L22.9602 18.4869L22.9602 18.4871L23.9602 18.4866ZM22.7944 20.6672L23.0924 21.6218L23.0931 21.6216L22.7944 20.6672ZM19.3266 21.692L19.0464 20.7321L19.0464 20.7321L19.3266 21.692ZM14.1348 23.2291L14.4626 24.1738L14.4627 24.1738L14.1348 23.2291ZM11.5088 22.895L12.1336 22.1142L12.1332 22.1138L11.5088 22.895ZM11.3029 22.7299L11.9289 21.95L11.9289 21.95L11.3029 22.7299ZM10.404 22.0134L11.0232 21.2282L11.023 21.228L10.404 22.0134ZM10.1555 21.8175L10.7744 21.0321L10.7744 21.0321L10.1555 21.8175ZM6.78399 19.1069L6.09147 19.8283L6.09158 19.8284L6.78399 19.1069ZM7.59029 8.27686L7.83938 9.24534L7.83945 9.24532L7.59029 8.27686ZM11.9262 7.30538L11.7136 6.32823L11.7134 6.32828L11.9262 7.30538ZM12.3141 7.22098L12.1016 6.24383L12.1016 6.24383L12.3141 7.22098ZM15.4499 6.52612L15.208 5.55582L15.2072 5.55602L15.4499 6.52612ZM17.9545 6.78384L17.5507 7.69869L17.5509 7.69879L17.9545 6.78384ZM22.7225 9.25497L22.2215 10.1204L22.2289 10.1247L22.7225 9.25497ZM23.1444 17.1218L22.1444 17.1175L22.1444 17.1183L23.1444 17.1218ZM23.1579 17.9758L22.1583 18.0044L22.1584 18.0061L23.1579 17.9758ZM23.1285 11.5967L22.1287 11.6176L22.1287 11.6183L23.1285 11.5967ZM22.3031 10.0229L22.8038 9.15727L22.8037 9.15726L22.3031 10.0229ZM22.2938 10.0175L22.7945 9.15185L22.7875 9.14788L22.2938 10.0175ZM22.284 10.012L21.7829 10.8774L21.7903 10.8816L22.284 10.012ZM17.6005 7.58378L17.1963 8.49843L17.197 8.49878L17.6005 7.58378ZM15.6591 7.37458L15.4167 6.4044L15.4166 6.40444L15.6591 7.37458ZM12.684 8.03432L12.8954 9.01171L12.8966 9.01146L12.684 8.03432ZM12.6837 8.03438L12.4722 7.057L12.4711 7.05725L12.6837 8.03438ZM12.1067 8.15993L11.8941 7.1828L11.894 7.18282L12.1067 8.15993ZM11.7144 8.24535L11.9225 9.22347L11.9271 9.22247L11.7144 8.24535ZM11.7142 8.24538L11.5061 7.26728L11.5047 7.26758L11.7142 8.24538ZM11.7139 8.24545L11.5044 7.26765L11.5019 7.26819L11.7139 8.24545ZM11.7133 8.24558L11.9228 9.22339L11.9254 9.22284L11.7133 8.24558ZM11.7132 8.24561L11.5037 7.2678L11.5005 7.26849L11.7132 8.24561ZM7.76847 9.12399L8.01733 10.0925L8.01738 10.0925L7.76847 9.12399ZM7.29311 18.4205L7.98519 17.6986L7.98497 17.6984L7.29311 18.4205ZM7.3506 18.4756L8.04315 17.7542L8.04268 17.7538L7.3506 18.4756ZM9.88417 20.5036L9.26746 21.2908L9.27151 21.2939L9.88417 20.5036ZM9.88454 20.5039L9.27188 21.2942L9.28736 21.3062L9.3033 21.3176L9.88454 20.5039ZM9.88458 20.5039L10.488 19.7065L10.477 19.6982L10.4658 19.6902L9.88458 20.5039ZM9.88469 20.504L10.4944 19.7113L10.4881 19.7066L9.88469 20.504ZM9.8848 20.5041L10.5015 19.7168L10.4945 19.7114L9.8848 20.5041ZM10.9321 21.3261L10.3131 22.1115L10.3133 22.1116L10.9321 21.3261ZM12.05 22.2117L11.4248 22.9921L11.4254 22.9926L12.05 22.2117ZM13.8516 22.4026L14.1794 23.3474L14.1808 23.3469L13.8516 22.4026ZM18.5364 21.0144L18.2564 20.0544L18.2563 20.0545L18.5364 21.0144ZM18.537 21.0142L18.817 21.9742L18.8172 21.9742L18.537 21.0142ZM19.0927 20.852L18.8125 19.8921L18.8125 19.8921L19.0927 20.852ZM20.1319 20.5491L19.8522 19.589L19.8522 19.589L20.1319 20.5491ZM20.1478 20.5444L20.4276 21.5045L20.4276 21.5045L20.1478 20.5444ZM20.1619 20.5403L20.4417 21.5004L20.4417 21.5004L20.1619 20.5403ZM20.1696 20.5381L19.8898 19.578L19.8898 19.578L20.1696 20.5381ZM22.573 19.8315L22.8712 20.786L22.8714 20.786L22.573 19.8315ZM23.1579 17.976L24.1575 17.9475L24.1575 17.9457L23.1579 17.976ZM11.5401 12.6492L12.1226 11.8363L12.1217 11.8357L11.5401 12.6492ZM11.7772 12.8138L11.2314 13.6517L11.2323 13.6523L11.7772 12.8138ZM11.4736 12.6016L12.0552 11.7882L12.0539 11.7873L11.4736 12.6016ZM11.1113 12.3556L10.5539 13.1859L10.5555 13.187L11.1113 12.3556ZM11.1111 12.3555L11.6684 11.5252L11.6622 11.521L11.656 11.517L11.1111 12.3555ZM11.111 12.3554L10.5552 13.1869L10.566 13.1939L11.111 12.3554ZM10.8574 12.1854L10.2976 13.014L10.2983 13.0145L10.8574 12.1854ZM10.8337 12.1694L11.3936 11.3408L11.3884 11.3373L10.8337 12.1694ZM10.8337 12.1694L10.2739 12.998L10.279 13.0014L10.8337 12.1694ZM7.66561 9.86856L8.31263 9.10608L7.54945 8.45847L6.90254 9.22225L7.66561 9.86856ZM7.10059 10.5357L6.33752 9.88935L5.6918 10.6517L6.45359 11.2981L7.10059 10.5357ZM10.3063 12.8665L9.74624 13.695L9.7516 13.6986L10.3063 12.8665ZM10.3063 12.8665L10.8664 12.0381L10.861 12.0345L10.3063 12.8665ZM10.3714 12.9105L9.81132 13.739L9.81243 13.7397L10.3714 12.9105ZM10.6757 13.1131L11.2304 12.281L11.227 12.2788L10.6757 13.1131ZM10.6758 13.1132L10.1211 13.9452L10.1245 13.9475L10.6758 13.1132ZM10.9746 13.3144L11.5558 12.5006L11.5552 12.5002L10.9746 13.3144ZM11.2094 13.4658L11.7312 12.6128L11.7312 12.6128L11.2094 13.4658ZM11.3402 13.5474L10.7952 14.3859L10.7955 14.3861L11.3402 13.5474ZM11.3643 13.563L10.8196 14.4017L10.8197 14.4017L11.3643 13.563ZM12.5591 21.9996H11.5591V22.9996H12.5591V21.9996ZM13.3545 21.9996V22.9996H14.3545V21.9996H13.3545ZM20.8594 11.821L21.5384 12.5552L21.5388 12.5548L20.8594 11.821ZM19.9187 16.3646L20.9186 16.3524L20.9186 16.352L19.9187 16.3646ZM22.3697 11.3551L23.3655 11.4461L23.4566 10.4491L22.4595 10.3592L22.3697 11.3551ZM22.2901 12.2261L22.1995 13.222L23.1951 13.3126L23.286 12.3171L22.2901 12.2261ZM21.4539 12.4626L22.133 13.1967L22.1337 13.1961L21.4539 12.4626ZM20.7942 16.3524L21.7943 16.3524L21.7941 16.3398L20.7942 16.3524ZM20.7942 16.3524L19.7941 16.3524L19.7943 16.3656L20.7942 16.3524ZM20.7942 16.3555L21.7941 16.3426L21.7941 16.3423L20.7942 16.3555ZM20.2411 18.9528L19.8168 18.0473L19.8162 18.0476L20.2411 18.9528ZM19.2911 18.9881L19.7747 18.1128L19.7733 18.112L19.2911 18.9881ZM18.5137 16.7391L17.5215 16.864L17.5216 16.8641L18.5137 16.7391ZM18.1902 14.6646L17.2109 14.8668L17.211 14.8672L18.1902 14.6646ZM17.622 13.7706L17.9265 12.818L17.9261 12.8179L17.622 13.7706ZM17.3455 13.8183L16.667 13.0837L16.6641 13.0864L17.3455 13.8183ZM17.2726 14.2555L18.2451 14.0228L18.2449 14.0219L17.2726 14.2555ZM16.715 16.8293L17.2933 17.6451L17.2937 17.6448L16.715 16.8293ZM15.4701 16.8722L14.9282 17.7127L14.9284 17.7128L15.4701 16.8722ZM14.9123 15.0181L15.8942 15.2076L15.8942 15.2073L14.9123 15.0181ZM14.7744 14.3963L15.3821 13.6022L15.3805 13.6009L14.7744 14.3963ZM13.7584 14.4878L12.8605 14.9281L13.301 15.8264L14.1991 15.3854L13.7584 14.4878ZM13.3731 13.7022L12.9327 12.8044L12.0351 13.2448L12.4753 14.1425L13.3731 13.7022ZM15.3055 13.7014L14.6977 14.4954L14.6982 14.4959L15.3055 13.7014ZM15.7711 15.1841L16.7529 15.374L16.7529 15.3738L15.7711 15.1841ZM15.9434 16.137L15.4018 16.9776L15.4032 16.9785L15.9434 16.137ZM16.2086 16.1155L15.6308 15.2993L15.625 15.3034L16.2086 16.1155ZM16.4215 14.4594L17.394 14.2267L17.3939 14.2263L16.4215 14.4594ZM16.75 13.1772L16.0697 12.4443L16.0695 12.4444L16.75 13.1772ZM17.8883 12.9372L18.193 11.9848L18.1926 11.9847L17.8883 12.9372ZM19.0467 14.4878L18.0673 14.6899L18.0673 14.69L19.0467 14.4878ZM19.3815 16.6302L18.3893 16.7546L18.3895 16.7562L19.3815 16.6302ZM19.3818 16.6322L20.3739 16.5071L20.3738 16.5062L19.3818 16.6322ZM19.7074 18.2154L18.98 18.9016L19.32 19.2621L19.8129 19.2099L19.7074 18.2154ZM19.8238 18.1812L20.2081 19.1044L20.5591 18.9583L20.7243 18.616L19.8238 18.1812ZM19.9187 16.3674L18.9188 16.3796L18.9188 16.3805L19.9187 16.3674ZM6.93812 4.25427L7.04465 3.25996L6.02719 3.15095L5.94162 4.17064L6.93812 4.25427ZM8.45209 4.25904L8.52846 5.25612L8.52899 5.25608L8.45209 4.25904ZM6.86494 5.12632L5.86845 5.0427L5.78485 6.03891L6.78103 6.12279L6.86494 5.12632ZM10.5735 3.99708L11.5668 4.11222L11.5668 4.11221L10.5735 3.99708ZM9.76136 2.83019L10.19 1.92669L10.1899 1.92664L9.76136 2.83019ZM4.51737 3.64205L3.7997 2.94567L3.79969 2.94568L4.51737 3.64205ZM4.07538 5.30794L5.00774 4.94643L5.00771 4.94634L4.07538 5.30794ZM7.13777 6.77736L7.19929 5.77926L7.19846 5.77921L7.13777 6.77736ZM13.3456 3.75209L14.3417 3.84044L14.43 2.84448L13.434 2.75601L13.3456 3.75209ZM12.474 3.67466L12.5625 2.67859L11.5662 2.59008L11.4779 3.58641L12.474 3.67466ZM7.19107 5.90372L7.25897 4.906L7.25169 4.90556L7.19107 5.90372ZM4.89122 4.99163L5.82371 4.63043L5.82339 4.6296L4.89122 4.99163ZM5.14523 4.25135L5.86273 4.94791L5.86294 4.94769L5.14523 4.25135ZM9.38645 3.62084L8.95756 4.5242L8.9587 4.52474L9.38645 3.62084ZM9.70462 3.89632L10.6969 4.02037L10.6978 4.01264L9.70462 3.89632ZM17.5267 9.33707L17.0409 10.2112L17.0414 10.2114L17.5267 9.33707ZM15.6474 8.91894L15.8891 9.88929L15.8906 9.88892L15.6474 8.91894ZM10.5723 9.9408L10.7278 10.9286L10.7294 10.9284L10.5723 9.9408ZM10.4901 9.95512L10.3016 8.97305L7.83047 9.44736L9.95305 10.7987L10.4901 9.95512ZM12.4325 11.2177L11.8829 12.0532L12.2876 12.3194L12.7474 12.1669L12.4325 11.2177ZM15.0477 11.4444L14.7797 12.4078L14.7802 12.4079L15.0477 11.4444ZM15.049 11.4447L15.3181 10.4816L15.3165 10.4811L15.049 11.4447ZM15.3645 11.5282L15.565 10.5485L15.564 10.5483L15.3645 11.5282ZM15.9419 11.5458L15.4666 10.6659L15.4601 10.6694L15.4536 10.673L15.9419 11.5458ZM15.942 11.5457L16.4173 12.4255L16.516 12.3722L16.6005 12.2983L15.942 11.5457ZM16.0149 11.3779L16.9777 11.6481L16.9778 11.6478L16.0149 11.3779ZM19.1573 10.495L18.6583 11.3616L19.3718 11.7724L19.912 11.1511L19.1573 10.495ZM19.3721 10.2579L20.0925 10.9515L21.0787 9.92711L19.7812 9.34542L19.3721 10.2579ZM18.0209 9.60938L17.5436 10.4881L17.5446 10.4886L18.0209 9.60938ZM17.5552 9.35291L18.0405 8.47856L18.0405 8.47855L17.5552 9.35291ZM15.4289 8.04424L15.6706 9.01458L15.6718 9.01429L15.4289 8.04424ZM17.9635 8.54795L18.4489 7.67372L18.4489 7.67371L17.9635 8.54795ZM18.4507 8.81607L18.9274 7.93698L18.9268 7.93668L18.4507 8.81607ZM21.5131 10.1964L21.5721 11.1947L21.8939 9.27174L21.5131 10.1964ZM19.8211 11.105L19.0667 10.4486L19.0667 10.4486L19.8211 11.105ZM18.8811 11.3827L19.4332 10.5489L19.4326 10.5485L18.8811 11.3827ZM16.8832 11.6205L15.9203 11.3506L15.9203 11.3508L16.8832 11.6205ZM15.1847 12.4111L14.9845 13.3909L14.9851 13.391L15.1847 12.4111ZM14.8081 12.3129L15.0763 11.3495L15.0763 11.3495L14.8081 12.3129ZM12.4065 12.2799L11.8549 13.114L12.6192 13.6195L13.1894 12.9021L12.4065 12.2799ZM9.43906 10.3624L9.94779 9.50146L9.94753 9.5013L9.43906 10.3624ZM10.4307 9.05019L10.5878 10.0378L10.5878 10.0378L10.4307 9.05019ZM1.77069 12.5519C1.96033 12.6941 1.97964 12.8483 1.95311 12.7581C1.93724 12.7042 1.91699 12.5981 1.90172 12.4272C1.87129 12.0867 1.8738 11.6632 1.87735 11.2262L-0.122584 11.2099C-0.125924 11.6209 -0.131149 12.1486 -0.0903401 12.6052C-0.0699915 12.8329 -0.0348832 13.0869 0.034333 13.3223C0.0928866 13.5214 0.226987 13.8943 0.571125 14.1523L1.77069 12.5519ZM5.25071 13.4294C4.60044 13.2888 3.75183 13.1049 3.01687 12.9192C2.64845 12.8261 2.32364 12.7363 2.07406 12.6551C1.77224 12.5569 1.71948 12.5135 1.77091 12.5521L0.570908 14.1521C0.825432 14.343 1.19594 14.4726 1.45524 14.557C1.76677 14.6584 2.14093 14.7607 2.52701 14.8583C3.30104 15.0538 4.18355 15.2449 4.82797 15.3843L5.25071 13.4294ZM5.64689 13.5156L5.25182 13.4297L4.82685 15.384L5.22192 15.4699L5.64689 13.5156ZM6.22504 15.5604L6.41143 14.7059L4.45737 14.2796L4.27098 15.1342L6.22504 15.5604ZM4.64299 16.2396L5.03673 16.3247L5.45929 14.3699L5.06555 14.2848L4.64299 16.2396ZM0.04579 14.8522C0.291045 15.0361 0.596776 15.172 0.879385 15.2782C1.178 15.3903 1.52746 15.4968 1.90671 15.5998C2.66445 15.8056 3.6118 16.0162 4.64249 16.2395L5.06605 14.2849C4.02889 14.0601 3.13098 13.8599 2.4309 13.6697C2.08124 13.5748 1.79865 13.487 1.58268 13.4059C1.47539 13.3656 1.39311 13.3301 1.33228 13.3001C1.26901 13.269 1.24508 13.2517 1.24553 13.252L0.04579 14.8522ZM-0.997542 11.2014C-1.00238 11.7807 -1.0107 12.4575 -0.915658 13.0541C-0.821531 13.645 -0.595813 14.3706 0.0453526 14.8519L1.24597 13.2523C1.2248 13.2364 1.12387 13.1439 1.05944 12.7395C0.995929 12.3408 0.997152 11.845 1.00239 11.2181L-0.997542 11.2014ZM-0.995696 10.9405L-0.997552 11.2027L1.0024 11.2168L1.00425 10.9546L-0.995696 10.9405ZM-0.9052 6.68883C-0.940608 7.98598 -0.989536 9.78138 -0.995707 10.9422L1.00427 10.9528C1.01029 9.81914 1.0584 8.04943 1.09406 6.7434L-0.9052 6.68883ZM-0.893539 6.25869L-0.905205 6.68902L1.09406 6.74322L1.10573 6.31289L-0.893539 6.25869ZM1.48906 2.08366C0.722767 2.51287 0.106144 3.03927 -0.307258 3.7747C-0.714282 4.49879 -0.868377 5.32696 -0.893542 6.25879L1.10573 6.31279C1.12617 5.55593 1.24849 5.08861 1.43618 4.75472C1.61749 4.43216 1.91389 4.13807 2.46641 3.82859L1.48906 2.08366ZM1.74155 1.94207L1.4886 2.08392L2.46687 3.82834L2.71981 3.68649L1.74155 1.94207ZM1.74264 1.94145L1.74096 1.9424L2.7204 3.68616L2.72208 3.68521L1.74264 1.94145ZM1.78515 1.91891L1.78515 1.91891L2.67958 3.70776L2.67958 3.70776L1.78515 1.91891ZM4.97068 0.411945C3.86161 0.745741 2.72117 1.39181 1.74263 1.94146L2.7221 3.6852C3.75336 3.10594 4.69094 2.58476 5.54708 2.32708L4.97068 0.411945ZM4.97177 0.411616L4.97084 0.411894L5.54691 2.32714L5.54784 2.32686L4.97177 0.411616ZM8.61529 0.0693358C6.82409 -0.141498 5.76003 0.174626 4.97188 0.411582L5.54772 2.32689C6.22497 2.12327 6.98437 1.89117 8.38149 2.05562L8.61529 0.0693358ZM10.3264 0.250233C9.68928 0.185832 9.09842 0.125961 8.6148 0.0692781L8.38198 2.05568C8.88469 2.1146 9.49281 2.17616 10.1252 2.24009L10.3264 0.250233ZM10.3336 0.250962L10.3264 0.250237L10.1252 2.24009L10.1324 2.24081L10.3336 0.250962ZM10.3225 0.249901L10.3225 0.2499L10.1435 2.24188L10.1435 2.24188L10.3225 0.249901ZM13.642 0.658875C12.9522 0.51419 11.5692 0.375915 10.3336 0.250963L10.1324 2.24081C11.4355 2.3726 12.6746 2.49949 13.2314 2.61627L13.642 0.658875ZM13.6422 0.658924L13.6421 0.6589L13.2313 2.61625L13.2314 2.61627L13.6422 0.658924ZM16.8311 3.61282C16.7359 2.42771 16.0627 1.69126 15.3566 1.2684C14.6954 0.872438 13.9704 0.727696 13.6419 0.65885L13.2317 2.61635C13.5828 2.6899 13.993 2.78302 14.329 2.98423C14.6201 3.15854 14.8059 3.37858 14.8376 3.7731L16.8311 3.61282ZM16.7858 6.04763C16.7945 5.97801 16.9291 4.83419 16.8312 3.61302L14.8376 3.7729C14.8779 4.2758 14.8704 4.776 14.851 5.16157C14.8414 5.35271 14.829 5.51188 14.8189 5.62439C14.8087 5.73811 14.801 5.80142 14.8012 5.79958L16.7858 6.04763ZM14.806 6.81228L15.6744 6.91648L15.9127 4.93073L15.0443 4.82653L14.806 6.81228ZM13.9316 5.70599L13.9315 5.70726L15.9189 5.93155L15.919 5.93027L13.9316 5.70599ZM13.9658 3.84269C14.0388 4.75634 13.935 5.67672 13.9317 5.70518L15.9189 5.93108C15.9252 5.87627 16.0485 4.79773 15.9594 3.68322L13.9658 3.84269ZM13.0524 3.47247C13.6135 3.59003 13.8482 3.70331 13.9382 3.77028C13.9685 3.79283 13.9644 3.7971 13.9568 3.78261C13.9505 3.77081 13.9608 3.78153 13.9658 3.84306L15.9594 3.68286C15.9113 3.08475 15.6552 2.55501 15.1323 2.16584C14.6804 1.82953 14.0897 1.64638 13.4625 1.51497L13.0524 3.47247ZM10.0473 3.11155C11.2715 3.23531 12.5418 3.36534 13.0521 3.47241L13.4628 1.51503C12.8187 1.3799 11.4009 1.23819 10.2484 1.12169L10.0473 3.11155ZM10.0442 3.11123L10.0442 3.11124L10.2514 1.122L10.2514 1.122L10.0442 3.11123ZM10.0375 3.11056L10.0473 3.11155L10.2484 1.12169L10.2386 1.1207L10.0375 3.11056ZM8.27922 2.92418C8.78972 2.98451 9.40186 3.04639 10.0376 3.11057L10.2385 1.12068C9.59781 1.056 9.00408 0.995921 8.51394 0.937998L8.27922 2.92418ZM5.80181 3.16432C6.43418 2.97436 7.06355 2.78128 8.27983 2.92425L8.51332 0.937925C6.90456 0.74882 5.97155 1.02505 5.22643 1.24887L5.80181 3.16432ZM5.79923 3.16509L5.80179 3.16432L5.22644 1.24887L5.22388 1.24964L5.79923 3.16509ZM3.14956 4.44888C4.1867 3.86609 5.03627 3.39489 5.79995 3.16488L5.22317 1.24985C4.20508 1.55649 3.14934 2.15488 2.1698 2.7053L3.14956 4.44888ZM2.89464 4.59178L3.14865 4.4494L2.17072 2.70479L1.91671 2.84717L2.89464 4.59178ZM1.98043 6.33644C1.99888 5.655 2.11081 5.33097 2.22203 5.14729C2.32833 4.97173 2.49993 4.81287 2.89437 4.59193L1.91698 2.84702C1.3988 3.13727 0.878776 3.50433 0.511201 4.1114C0.14854 4.71036 0.00435037 5.42568 -0.0188343 6.28233L1.98043 6.33644ZM1.96877 6.76682L1.98043 6.33649L-0.018833 6.28229L-0.0304992 6.71262L1.96877 6.76682ZM1.96678 6.83973L1.96876 6.76689L-0.0304973 6.71254L-0.0324771 6.78538L1.96678 6.83973ZM1.87924 10.9572C1.88489 9.85448 1.93158 8.13492 1.96678 6.83973L-0.0324771 6.78538C-0.0674352 8.07141 -0.114942 9.81695 -0.120737 10.9469L1.87924 10.9572ZM1.87737 11.2237L1.87923 10.9591L-0.120725 10.945L-0.122581 11.2096L1.87737 11.2237ZM1.87735 11.2261L1.87736 11.2247L-0.122573 11.2086L-0.122585 11.21L1.87735 11.2261ZM24.9913 11.5569C24.9731 10.7065 24.8172 10.0244 24.4578 9.47055C24.1 8.91918 23.6139 8.61527 23.2331 8.39497L22.2315 10.1261C22.568 10.3208 22.6955 10.4289 22.7801 10.5592C22.863 10.687 22.978 10.9563 22.9917 11.5995L24.9913 11.5569ZM24.9875 15.6984C24.997 14.156 25.0081 12.3574 24.9913 11.5571L22.9917 11.5992C23.0078 12.3646 22.9971 14.1255 22.9876 15.6861L24.9875 15.6984ZM24.9876 15.6925V15.6922H22.9876V15.6925H24.9876ZM24.9795 17.1295C24.9813 16.709 24.9844 16.2172 24.9875 15.6987L22.9876 15.6864C22.9844 16.2044 22.9814 16.6982 22.9796 17.1209L24.9795 17.1295ZM24.9663 17.9654C24.9715 17.7475 24.9784 17.4596 24.9796 17.1287L22.9796 17.1217C22.9785 17.4301 22.9721 17.6997 22.9669 17.9177L24.9663 17.9654ZM24.9666 17.9417V17.9416H22.9666V17.9417H24.9666ZM24.9666 17.9417V17.9417H22.9666V17.9417H24.9666ZM24.9666 17.9418V17.9417H22.9666V17.9418H24.9666ZM24.9666 17.9419V17.9418H22.9666V17.9419H24.9666ZM24.9602 18.295C24.9602 18.2244 24.9627 18.1191 24.9663 17.9658L22.9669 17.918C22.9635 18.0604 22.9602 18.1946 22.9602 18.295H24.9602ZM24.9602 18.4393V18.295H22.9602V18.4393H24.9602ZM24.9602 18.4863L24.9602 18.4389L22.9602 18.4396L22.9602 18.4869L24.9602 18.4863ZM23.0931 21.6216C23.979 21.3443 24.5034 20.7742 24.7539 20.0911C24.9716 19.4974 24.9604 18.858 24.9602 18.486L22.9602 18.4871C22.9605 18.9334 22.9498 19.2018 22.8762 19.4025C22.847 19.4819 22.8138 19.5301 22.776 19.5665C22.738 19.603 22.6602 19.6614 22.4957 19.7129L23.0931 21.6216ZM19.6067 22.652C21.2607 22.1693 22.6873 21.7483 23.0924 21.6218L22.4963 19.7127C22.1135 19.8322 20.7089 20.2469 19.0464 20.7321L19.6067 22.652ZM14.4627 24.1738C14.811 24.0529 17.4367 23.2854 19.6068 22.652L19.0464 20.7321C16.9275 21.3506 14.218 22.1417 13.8069 22.2843L14.4627 24.1738ZM12.996 24.4725C13.5882 24.4725 14.0917 24.3025 14.4626 24.1738L13.807 22.2843C13.4397 22.4117 13.2189 22.4725 12.996 22.4725V24.4725ZM10.884 23.6758C11.5084 24.1754 12.2055 24.4725 12.996 24.4725V22.4725C12.7498 22.4725 12.4807 22.3919 12.1336 22.1142L10.884 23.6758ZM10.677 23.5097C10.755 23.5724 10.8249 23.6285 10.8845 23.6761L12.1332 22.1138C12.0756 22.0678 12.0074 22.0131 11.9289 21.95L10.677 23.5097ZM9.78477 22.7986C10.1388 23.0778 10.4463 23.3246 10.677 23.5097L11.9289 21.95C11.6982 21.7649 11.3847 21.5132 11.0232 21.2282L9.78477 22.7986ZM9.53647 22.6029L9.78501 22.7988L11.023 21.228L10.7744 21.0321L9.53647 22.6029ZM6.09158 19.8284C6.45083 20.1731 7.95748 21.3586 9.53649 22.6029L10.7744 21.0321C9.12098 19.7291 7.7428 18.641 7.4764 18.3854L6.09158 19.8284ZM4.9305 17.0706C4.9305 17.522 4.9226 18.0298 5.11053 18.5199C5.30535 19.028 5.66521 19.4191 6.09147 19.8283L7.47651 18.3855C7.0681 17.9934 7.00122 17.8646 6.97795 17.8039C6.94781 17.7253 6.9305 17.6156 6.9305 17.0706H4.9305ZM4.9305 10.0713V17.0706H6.9305V10.0713H4.9305ZM7.3412 7.30838C6.67018 7.48097 6.05428 7.77167 5.60384 8.26018C5.13339 8.77039 4.9305 9.40155 4.9305 10.0713H6.9305C6.9305 9.82269 6.99566 9.70111 7.07419 9.61594C7.17273 9.50907 7.38673 9.36176 7.83938 9.24534L7.3412 7.30838ZM11.7134 6.32828C9.85457 6.73312 7.91989 7.1595 7.34113 7.3084L7.83945 9.24532C8.37164 9.1084 10.2555 8.69268 12.139 8.28247L11.7134 6.32828ZM12.1016 6.24383L11.7136 6.32823L12.1387 8.28252L12.5267 8.19813L12.1016 6.24383ZM15.2072 5.55602C14.8357 5.64895 13.5556 5.92755 12.1016 6.24383L12.5267 8.19813C13.9541 7.88765 15.2817 7.59902 15.6926 7.49623L15.2072 5.55602ZM16.4575 5.36836C16.0189 5.36836 15.6 5.4581 15.208 5.55582L15.6918 7.49643C16.0571 7.40536 16.2772 7.36836 16.4575 7.36836V5.36836ZM18.3582 5.86899C17.7193 5.58698 17.1502 5.36836 16.4575 5.36836V7.36836C16.7017 7.36836 16.9413 7.42974 17.5507 7.69869L18.3582 5.86899ZM23.2236 8.38955C22.6588 8.0626 19.4087 6.33233 18.358 5.8689L17.5509 7.69879C18.5079 8.12094 21.688 9.81153 22.2215 10.1204L23.2236 8.38955ZM23.2259 8.39085L23.2161 8.38528L22.2289 10.1247L22.2387 10.1302L23.2259 8.39085ZM22.1444 17.1183C22.1431 17.4741 22.1519 17.7809 22.1583 18.0044L24.1575 17.9473C24.1511 17.7241 24.1432 17.4457 24.1444 17.1252L22.1444 17.1183ZM22.1287 11.6183C22.1506 12.6363 22.1515 15.435 22.1444 17.1175L24.1443 17.126C24.1515 15.4486 24.1508 12.6236 24.1282 11.5752L22.1287 11.6183ZM21.8024 10.8885C22.0817 11.0501 22.0617 11.0583 22.0524 11.044C22.0438 11.0306 22.1185 11.1291 22.1287 11.6176L24.1282 11.5758C24.1153 10.9545 24.0236 10.4086 23.7313 9.95705C23.4383 9.50455 23.0172 9.28074 22.8038 9.15727L21.8024 10.8885ZM21.7931 10.8832L21.8024 10.8885L22.8037 9.15726L22.7944 9.15188L21.7931 10.8832ZM21.7903 10.8816L21.8001 10.8872L22.7875 9.14788L22.7776 9.14231L21.7903 10.8816ZM17.197 8.49878C18.1331 8.91154 21.2574 10.5731 21.783 10.8774L22.785 9.14652C22.2288 8.82452 19.0342 7.12304 18.0039 6.66878L17.197 8.49878ZM16.4561 8.24307C16.5113 8.24307 16.6125 8.24042 17.1963 8.49843L18.0047 6.66912C17.4055 6.40427 16.9673 6.24307 16.4561 6.24307V8.24307ZM15.9015 8.34476C16.2626 8.25455 16.3924 8.24307 16.4561 8.24307V6.24307C16.1381 6.24307 15.8134 6.3053 15.4167 6.4044L15.9015 8.34476ZM12.8966 9.01146C14.2552 8.7159 15.4965 8.44602 15.9017 8.34472L15.4166 6.40444C15.0505 6.49596 13.856 6.75597 12.4714 7.05717L12.8966 9.01146ZM12.8952 9.01177L12.8954 9.01171L12.4725 7.05693L12.4722 7.057L12.8952 9.01177ZM12.3194 9.13707L12.8963 9.01152L12.4711 7.05725L11.8941 7.1828L12.3194 9.13707ZM11.9271 9.22247L12.3195 9.13704L11.894 7.18282L11.5016 7.26824L11.9271 9.22247ZM11.9223 9.22349L11.9225 9.22346L11.5063 7.26725L11.5061 7.26728L11.9223 9.22349ZM11.9234 9.22325L11.9238 9.22318L11.5047 7.26758L11.5044 7.26765L11.9234 9.22325ZM11.9254 9.22284L11.926 9.22271L11.5019 7.26819L11.5013 7.26832L11.9254 9.22284ZM11.9227 9.22341L11.9228 9.22338L11.5038 7.26778L11.5037 7.26781L11.9227 9.22341ZM8.01738 10.0925C8.49378 9.97008 10.2387 9.59001 11.9259 9.22272L11.5005 7.26849C9.84542 7.62878 8.04326 8.02087 7.51955 8.15547L8.01738 10.0925ZM7.72593 10.0711C7.72593 10.0322 7.72966 10.0474 7.71876 10.0855C7.70513 10.1331 7.67909 10.1819 7.64722 10.2181C7.61996 10.2491 7.61356 10.2421 7.66906 10.2135C7.7266 10.1838 7.83404 10.1396 8.01733 10.0925L7.5196 8.15545C6.97075 8.29648 6.48274 8.51408 6.146 8.89662C5.77264 9.32077 5.72593 9.78386 5.72593 10.0711H7.72593ZM7.72593 17.0703V10.0711H5.72593V17.0703H7.72593ZM7.98497 17.6984C7.83969 17.5592 7.76942 17.4909 7.72263 17.4386C7.68599 17.3976 7.70517 17.4109 7.72524 17.4574C7.74482 17.5027 7.74027 17.5218 7.73478 17.4602C7.72828 17.3873 7.72593 17.2778 7.72593 17.0703H5.72593C5.72593 17.4101 5.71609 17.8499 5.8894 18.2509C6.06254 18.6515 6.39101 18.941 6.60125 19.1425L7.98497 17.6984ZM8.04268 17.7538L7.98519 17.6986L6.60103 19.1423L6.65852 19.1974L8.04268 17.7538ZM10.5009 19.7164C9.94323 19.2795 9.37402 18.8336 8.91376 18.4676C8.43127 18.084 8.12292 17.8308 8.04315 17.7542L6.65806 19.1969C6.82259 19.3549 7.22426 19.6795 7.66909 20.0331C8.13615 20.4045 8.71157 20.8553 9.26747 21.2908L10.5009 19.7164ZM10.4972 19.7135L10.4968 19.7132L9.27151 21.2939L9.27188 21.2942L10.4972 19.7135ZM10.4658 19.6902L10.4658 19.6901L9.3033 21.3176L9.30334 21.3176L10.4658 19.6902ZM10.4881 19.7066L10.488 19.7065L9.28114 21.3013L9.28125 21.3014L10.4881 19.7066ZM10.4945 19.7114L10.4944 19.7114L9.27498 21.2966L9.27509 21.2967L10.4945 19.7114ZM11.5512 20.5408C11.2314 20.2887 10.8691 20.0048 10.5015 19.7169L9.2681 21.2913C9.63627 21.5797 9.99606 21.8616 10.3131 22.1115L11.5512 20.5408ZM12.6752 21.4313C12.4399 21.2428 12.0327 20.9201 11.551 20.5406L10.3133 22.1116C10.7941 22.4904 11.1961 22.8089 11.4248 22.9921L12.6752 21.4313ZM12.9955 21.5972C12.9742 21.5972 12.9591 21.5964 12.9301 21.5866C12.8965 21.5752 12.8113 21.5401 12.6746 21.4308L11.4254 22.9926C12.0472 23.4901 12.5864 23.5972 12.9955 23.5972V21.5972ZM13.5239 21.4578C13.2012 21.5698 13.0749 21.5972 12.9955 21.5972V23.5972C13.4591 23.5972 13.8891 23.4481 14.1794 23.3474L13.5239 21.4578ZM18.2563 20.0545C16.09 20.6867 13.9243 21.3183 13.5225 21.4583L14.1808 23.3469C14.5182 23.2293 16.5986 22.6217 18.8166 21.9744L18.2563 20.0545ZM18.257 20.0542L18.2564 20.0544L18.8164 21.9744L18.817 21.9742L18.257 20.0542ZM18.8125 19.8921L18.2568 20.0543L18.8172 21.9742L19.3729 21.812L18.8125 19.8921ZM19.8522 19.589C19.5174 19.6866 19.1669 19.7887 18.8125 19.8921L19.3729 21.812C19.7267 21.7087 20.0768 21.6067 20.4117 21.5091L19.8522 19.589ZM19.8681 19.5844L19.8522 19.589L20.4117 21.5091L20.4276 21.5045L19.8681 19.5844ZM19.8822 19.5802L19.8681 19.5844L20.4276 21.5045L20.4417 21.5004L19.8822 19.5802ZM19.8898 19.578L19.8822 19.5803L20.4417 21.5004L20.4494 21.4982L19.8898 19.578ZM22.2747 18.877C21.9902 18.9659 21.0455 19.2413 19.8898 19.578L20.4493 21.4982C21.5887 21.1662 22.5626 20.8825 22.8712 20.786L22.2747 18.877ZM22.1648 18.4427C22.1648 18.6606 22.1605 18.8122 22.1503 18.9248C22.1399 19.0396 22.1269 19.0677 22.1322 19.0538C22.1437 19.0239 22.1773 18.962 22.2409 18.9082C22.2945 18.8628 22.3252 18.8613 22.2746 18.8771L22.8714 20.786C23.0837 20.7196 23.3197 20.6154 23.5336 20.4343C23.7574 20.2447 23.9061 20.014 23.9998 19.7694C24.1595 19.3527 24.1648 18.856 24.1648 18.4427H22.1648ZM22.1648 18.295V18.4427H24.1648V18.295H22.1648ZM22.1583 18.0046C22.1623 18.1431 22.1648 18.234 22.1648 18.295H24.1648C24.1648 18.1985 24.1611 18.0735 24.1575 17.9475L22.1583 18.0046ZM22.1584 18.0061L22.1584 18.0063L24.1575 17.9457L24.1575 17.9455L22.1584 18.0061ZM10.9577 13.4621C11.035 13.5175 11.1285 13.5847 11.2314 13.6517L12.3229 11.9758C12.2633 11.937 12.2053 11.8957 12.1226 11.8363L10.9577 13.4621ZM10.892 13.4151L10.9586 13.4627L12.1217 11.8357L12.0552 11.7882L10.892 13.4151ZM10.5555 13.187C10.7118 13.2914 10.8209 13.3645 10.8933 13.416L12.0539 11.7873C11.9512 11.7141 11.8121 11.6212 11.667 11.5242L10.5555 13.187ZM10.5537 13.1857L10.5539 13.1859L11.6686 11.5253L11.6684 11.5252L10.5537 13.1857ZM10.566 13.1939L10.5661 13.1939L11.656 11.517L11.656 11.517L10.566 13.1939ZM10.2983 13.0145C10.3909 13.0769 10.4775 13.1348 10.5553 13.1868L11.6667 11.524C11.5886 11.4719 11.5052 11.4161 11.4165 11.3563L10.2983 13.0145ZM10.2739 12.998L10.2976 13.014L11.4172 11.3567L11.3936 11.3408L10.2739 12.998ZM10.279 13.0014L10.279 13.0014L11.3884 11.3373L11.3884 11.3373L10.279 13.0014ZM7.0186 10.631C7.9971 11.4614 9.44246 12.4363 10.2739 12.998L11.3935 11.3407C10.5346 10.7605 9.19018 9.85075 8.31263 9.10608L7.0186 10.631ZM7.86367 11.182L8.42869 10.5149L6.90254 9.22225L6.33752 9.88935L7.86367 11.182ZM10.8664 12.0381C9.98973 11.4455 8.64653 10.536 7.7476 9.77317L6.45359 11.2981C7.45287 12.1461 8.89581 13.1201 9.74625 13.695L10.8664 12.0381ZM10.861 12.0345L10.861 12.0345L9.7516 13.6986L9.75162 13.6986L10.861 12.0345ZM10.9315 12.0821L10.8664 12.0381L9.74624 13.695L9.81132 13.739L10.9315 12.0821ZM11.227 12.2788C11.1356 12.2184 11.0364 12.1529 10.9304 12.0813L9.81243 13.7397C9.92716 13.8171 10.0335 13.8873 10.1244 13.9474L11.227 12.2788ZM11.2305 12.2811L11.2304 12.281L10.121 13.9451L10.1211 13.9452L11.2305 12.2811ZM11.5552 12.5002C11.4657 12.4364 11.3449 12.3567 11.2271 12.2789L10.1245 13.9475C10.2556 14.0341 10.3406 14.0904 10.394 14.1286L11.5552 12.5002ZM11.7312 12.6128C11.6486 12.5622 11.598 12.5308 11.5558 12.5006L10.3934 14.1281C10.5032 14.2066 10.6151 14.2745 10.6875 14.3188L11.7312 12.6128ZM11.8852 12.709C11.8305 12.6734 11.7742 12.6391 11.7312 12.6128L10.6875 14.3188C10.7354 14.3481 10.7676 14.3679 10.7952 14.3859L11.8852 12.709ZM11.909 12.7244L11.8849 12.7088L10.7955 14.3861L10.8196 14.4017L11.909 12.7244ZM13.5591 16.7641C13.5591 15.5168 13.4367 14.6414 13.1238 13.9903C12.7795 13.274 12.2575 12.9507 11.9089 12.7243L10.8197 14.4017C11.1665 14.627 11.2419 14.6916 11.3211 14.8566C11.4318 15.0868 11.5591 15.5862 11.5591 16.7641H13.5591ZM13.5591 21.9996V16.7641H11.5591V21.9996H13.5591ZM13.3545 20.9996H12.5591V22.9996H13.3545V20.9996ZM12.3545 16.7641V21.9996H14.3545V16.7641H12.3545ZM11.2323 13.6523C11.6781 13.942 11.8811 14.1228 12.0315 14.4361C12.2053 14.7983 12.3545 15.4452 12.3545 16.7641H14.3545C14.3545 15.352 14.2047 14.342 13.8346 13.5708C13.4411 12.7508 12.8555 12.3219 12.3221 11.9753L11.2323 13.6523ZM20.1805 11.0868C19.4261 11.7845 19.1443 12.8071 19.0211 13.6897C18.8943 14.5979 18.9088 15.5839 18.9188 16.3772L20.9186 16.352C20.9082 15.5267 20.8998 14.6972 21.0018 13.9663C21.1075 13.2098 21.3063 12.7699 21.5384 12.5552L20.1805 11.0868ZM22.4595 10.3592C21.6128 10.2828 20.8114 10.5027 20.1801 11.0872L21.5388 12.5548C21.6939 12.4112 21.909 12.3177 22.2799 12.3511L22.4595 10.3592ZM23.286 12.3171L23.3655 11.4461L21.3738 11.2642L21.2943 12.1352L23.286 12.3171ZM22.1337 13.1961C22.1284 13.2009 22.12 13.2075 22.1092 13.2135C22.0986 13.2194 22.0906 13.2221 22.0882 13.2228C22.0841 13.2239 22.1148 13.2143 22.1995 13.222L22.3808 11.2302C21.8241 11.1796 21.2418 11.2957 20.7741 11.7292L22.1337 13.1961ZM21.7941 16.3398C21.7853 15.6423 21.7773 14.8952 21.8488 14.2469C21.8844 13.925 21.9361 13.6638 22.0015 13.4675C22.0336 13.3714 22.065 13.303 22.0915 13.2566C22.118 13.2104 22.1342 13.1956 22.133 13.1967L20.7748 11.7286C20.4281 12.0494 20.228 12.4636 20.1042 12.8351C19.9775 13.215 19.9049 13.629 19.8609 14.0275C19.7734 14.8198 19.7858 15.6935 19.7943 16.365L21.7941 16.3398ZM21.7942 16.3524V16.3524H19.7942V16.3524H21.7942ZM21.7941 16.3423L21.7941 16.3392L19.7943 16.3656L19.7943 16.3686L21.7941 16.3423ZM20.6655 19.8583C21.4256 19.5021 21.6496 18.7604 21.7314 18.2284C21.8146 17.6871 21.8027 17.0087 21.7941 16.3426L19.7943 16.3683C19.8037 17.1016 19.8067 17.5854 19.7546 17.9246C19.701 18.2731 19.6394 18.1304 19.8168 18.0473L20.6655 19.8583ZM19.6952 20.0904C20.0456 20.0904 20.3737 19.9953 20.6661 19.858L19.8162 18.0476C19.7178 18.0938 19.6815 18.0904 19.6952 18.0904V20.0904ZM18.8075 19.8634C19.0852 20.0168 19.3878 20.0904 19.6952 20.0904V18.0904C19.7013 18.0904 19.7137 18.0912 19.7302 18.0954C19.7468 18.0996 19.7622 18.1059 19.7747 18.1128L18.8075 19.8634ZM17.5216 16.8641C17.5945 17.4432 17.6649 18.0246 17.801 18.4915C17.9438 18.9814 18.2107 19.5348 18.8089 19.8641L19.7733 18.112C19.8407 18.1491 19.7958 18.1883 19.7211 17.9318C19.6396 17.6525 19.5867 17.2555 19.5059 16.6141L17.5216 16.8641ZM17.211 14.8672C17.3614 15.5941 17.4444 16.251 17.5215 16.864L19.5059 16.6143C19.4292 16.0049 19.3378 15.2757 19.1695 14.4621L17.211 14.8672ZM17.3176 14.7231C17.2315 14.6956 17.1756 14.6554 17.1475 14.6308C17.1203 14.607 17.1142 14.5939 17.1216 14.6057C17.1286 14.6167 17.1434 14.6432 17.1609 14.6892C17.1781 14.7346 17.1958 14.7937 17.2109 14.8668L19.1696 14.4625C19.1024 14.137 18.9877 13.8131 18.8096 13.5329C18.6368 13.2611 18.3537 12.9546 17.9265 12.818L17.3176 14.7231ZM18.024 14.5529C17.7778 14.7804 17.4824 14.7757 17.318 14.7232L17.9261 12.8179C17.5491 12.6976 17.0522 12.7279 16.667 13.0837L18.024 14.5529ZM18.2449 14.0219C18.2454 14.0237 18.2581 14.0746 18.2435 14.162C18.2284 14.2519 18.1775 14.41 18.0269 14.5502L16.6641 13.0864C16.1802 13.5369 16.2205 14.1574 16.3003 14.4892L18.2449 14.0219ZM17.2937 17.6448C18.4251 16.842 18.5587 15.3333 18.2451 14.0228L16.3 14.4882C16.5444 15.5095 16.2611 15.9252 16.1363 16.0137L17.2937 17.6448ZM14.9284 17.7128C15.671 18.1914 16.5912 18.1428 17.2933 17.6451L16.1367 16.0135C16.0967 16.0418 16.0689 16.0458 16.0571 16.0462C16.0462 16.0466 16.0323 16.0448 16.0119 16.0317L14.9284 17.7128ZM13.9304 14.8286C13.729 15.872 13.9373 17.0737 14.9282 17.7127L16.0121 16.0318C15.9833 16.0132 15.7742 15.8293 15.8942 15.2076L13.9304 14.8286ZM14.1667 15.1905C13.9689 15.0391 13.9395 14.8491 13.9361 14.8211C13.9324 14.7909 13.9371 14.7939 13.9304 14.8288L15.8942 15.2073C15.9198 15.0745 15.9533 14.8413 15.9214 14.5796C15.8899 14.3201 15.7753 13.9031 15.3821 13.6022L14.1667 15.1905ZM14.1991 15.3854C14.2623 15.3544 14.3167 15.3336 14.3602 15.3203C14.4045 15.3068 14.4314 15.3031 14.4407 15.3022C14.4513 15.3013 14.4304 15.3048 14.386 15.2955C14.3405 15.2859 14.258 15.26 14.1684 15.1918L15.3805 13.6009C15.0053 13.3151 14.5705 13.2825 14.2617 13.3103C13.9354 13.3396 13.6119 13.4457 13.3177 13.5902L14.1991 15.3854ZM12.4753 14.1425L12.8605 14.9281L14.6562 14.0475L14.271 13.2619L12.4753 14.1425ZM15.9133 12.9073C15.0191 12.2228 13.8715 12.3438 12.9327 12.8044L13.8136 14.6C14.3718 14.3261 14.6331 14.446 14.6977 14.4954L15.9133 12.9073ZM16.7529 15.3738C16.9271 14.4726 16.7008 13.5092 15.9128 12.9069L14.6982 14.4959C14.7428 14.5299 14.8563 14.6472 14.7893 14.9943L16.7529 15.3738ZM16.485 15.2964C16.5959 15.3678 16.6585 15.4487 16.6899 15.4993C16.7224 15.5518 16.7323 15.5886 16.7342 15.5966C16.7377 15.611 16.7196 15.5459 16.7529 15.374L14.7893 14.9941C14.7157 15.3745 14.7107 15.7388 14.7906 16.068C14.8661 16.3793 15.0426 16.7462 15.4018 16.9776L16.485 15.2964ZM15.625 15.3034C15.6647 15.2749 15.7574 15.2143 15.9005 15.1857C16.0707 15.1517 16.2889 15.1704 16.4837 15.2955L15.4032 16.9785C16.0576 17.3986 16.6572 17.0245 16.7921 16.9276L15.625 15.3034ZM15.4489 14.6921C15.5387 15.0672 15.527 15.2923 15.5077 15.3948C15.4847 15.5171 15.4667 15.4154 15.6308 15.2993L16.7863 16.9317C17.1909 16.6454 17.393 16.1905 17.4732 15.7647C17.557 15.3192 17.5315 14.8014 17.394 14.2267L15.4489 14.6921ZM16.0695 12.4444C15.4277 13.0405 15.2592 13.9004 15.449 14.6925L17.3939 14.2263C17.3665 14.1117 17.3738 14.0342 17.3848 13.9911C17.395 13.9513 17.4109 13.9281 17.4305 13.91L16.0695 12.4444ZM18.1926 11.9847C17.4563 11.7494 16.6504 11.9052 16.0697 12.4443L17.4303 13.9101C17.4478 13.8939 17.4656 13.8853 17.4853 13.8811C17.5056 13.8768 17.5385 13.8753 17.5839 13.8898L18.1926 11.9847ZM20.026 14.2857C19.8178 13.2767 19.2296 12.3165 18.193 11.9848L17.5835 13.8897C17.687 13.9228 17.9441 14.0932 18.0673 14.6899L20.026 14.2857ZM20.3738 16.5057C20.299 15.9098 20.2008 15.1323 20.026 14.2856L18.0673 14.69C18.2245 15.4511 18.3145 16.1579 18.3893 16.7546L20.3738 16.5057ZM20.3738 16.5062L20.3736 16.5041L18.3895 16.7562L18.3898 16.7583L20.3738 16.5062ZM20.4348 17.5292C20.5286 17.6287 20.5658 17.7166 20.568 17.7215C20.5758 17.7389 20.5741 17.7387 20.566 17.7111C20.5498 17.6559 20.5286 17.5633 20.5046 17.4293C20.4569 17.1632 20.4151 16.8336 20.3739 16.5071L18.3897 16.7573C18.4291 17.0698 18.4773 17.4547 18.536 17.782C18.5651 17.9446 18.6011 18.1183 18.647 18.2746C18.67 18.3528 18.7006 18.4447 18.7419 18.5372C18.7777 18.6173 18.8498 18.7636 18.98 18.9016L20.4348 17.5292ZM19.4395 17.258C19.454 17.252 19.5107 17.2307 19.6019 17.221L19.8129 19.2099C19.939 19.1965 20.07 19.1619 20.2081 19.1044L19.4395 17.258ZM18.9188 16.3805C18.9232 16.7197 18.9278 17.0908 18.9182 17.405C18.9133 17.5626 18.9054 17.6873 18.8951 17.776C18.89 17.8201 18.8856 17.8427 18.8843 17.8489C18.8811 17.8636 18.8888 17.8177 18.9232 17.7465L20.7243 18.616C20.8334 18.3901 20.8665 18.1375 20.8817 18.0066C20.9014 17.8373 20.9116 17.6489 20.9172 17.4664C20.9285 17.1004 20.9229 16.6838 20.9186 16.3543L18.9188 16.3805ZM18.9188 16.3768L18.9188 16.3796L20.9186 16.3552L20.9186 16.3524L18.9188 16.3768ZM6.8316 5.24858C6.87962 5.25372 7.69905 5.31965 8.52846 5.25612L8.37571 3.26196C7.70282 3.3135 7.01147 3.2564 7.04465 3.25996L6.8316 5.24858ZM7.86144 5.20994L7.93462 4.33789L5.94162 4.17064L5.86845 5.0427L7.86144 5.20994ZM9.58015 3.88193C9.58744 3.81899 9.63937 3.82018 9.53285 3.88389C9.40172 3.96232 9.16568 4.04246 8.81913 4.09656C8.13606 4.20319 7.34352 4.16308 6.94886 4.12985L6.78103 6.12279C7.21758 6.15956 8.20256 6.21703 9.12759 6.07263C9.58508 6.00121 10.1107 5.86869 10.5595 5.60029C11.0328 5.31717 11.4828 4.83736 11.5668 4.11222L9.58015 3.88193ZM9.33276 3.73368C9.45115 3.78984 9.51597 3.8391 9.5485 3.86877C9.57974 3.89726 9.58631 3.91221 9.58485 3.90939C9.57994 3.89992 9.57955 3.8871 9.58014 3.88195L11.5668 4.11221C11.5995 3.83025 11.5838 3.41931 11.3601 2.98827C11.1328 2.55011 10.7408 2.18798 10.19 1.92669L9.33276 3.73368ZM5.23504 4.33843C5.66884 3.89137 6.41379 3.59712 7.28325 3.50514C8.15606 3.41281 8.93962 3.54723 9.33286 3.73373L10.1899 1.92664C9.36822 1.53698 8.1888 1.39818 7.07284 1.51624C5.95353 1.63465 4.68392 2.03441 3.7997 2.94567L5.23504 4.33843ZM5.00771 4.94634C4.96816 4.84437 4.9449 4.63745 5.23505 4.33843L3.79969 2.94568C3.10191 3.66481 2.75624 4.67224 3.14304 5.66954L5.00771 4.94634ZM7.19846 5.77921C6.4732 5.73512 5.9245 5.59586 5.55222 5.4172C5.17988 5.23852 5.05026 5.05608 5.00774 4.94643L3.14301 5.66946C3.42423 6.39474 4.0146 6.89769 4.68693 7.22033C5.35931 7.543 6.17994 7.72098 7.07709 7.77552L7.19846 5.77921ZM7.80859 5.79725C7.59272 5.79725 7.38844 5.79092 7.19929 5.77926L7.07626 7.77547C7.30869 7.7898 7.55408 7.79725 7.80859 7.79725V5.79725ZM12.3495 3.66373C12.2876 4.36153 11.8324 4.8791 10.9363 5.26008C10.0273 5.64654 8.84601 5.79725 7.80859 5.79725V7.79725C8.9867 7.79725 10.4668 7.63297 11.7188 7.10064C12.9838 6.56284 14.1893 5.55782 14.3417 3.84044L12.3495 3.66373ZM12.3856 4.67074L13.2571 4.74816L13.434 2.75601L12.5625 2.67859L12.3856 4.67074ZM7.12317 6.90141C7.1837 6.90553 8.54632 6.98068 9.95471 6.71334C10.655 6.5804 11.4492 6.34822 12.1077 5.91932C12.7916 5.47387 13.3805 4.77492 13.4701 3.76292L11.4779 3.58641C11.4565 3.82827 11.3357 4.03532 11.0162 4.24345C10.6712 4.46813 10.1681 4.63713 9.58173 4.74842C8.41685 4.96954 7.24908 4.90535 7.25897 4.90603L7.12317 6.90141ZM3.95873 5.35283C4.164 5.88274 4.64238 6.23835 5.12553 6.45994C5.64016 6.69597 6.30805 6.85193 7.13045 6.90188L7.25169 4.90556C6.60281 4.86615 6.19143 4.74849 5.95929 4.64202C5.69567 4.52111 5.75977 4.46535 5.82371 4.63043L3.95873 5.35283ZM4.42772 3.5548C4.2965 3.68996 4.11584 3.90409 3.99374 4.18519C3.86513 4.48126 3.78354 4.90173 3.95905 5.35365L5.82339 4.6296C5.85263 4.7049 5.86227 4.78347 5.85726 4.85355C5.85257 4.91922 5.83621 4.96345 5.82814 4.98203C5.82028 5.00013 5.81623 5.00336 5.82412 4.99252C5.83154 4.98234 5.8442 4.96699 5.86273 4.94791L4.42772 3.5548ZM9.81534 2.71748C9.1027 2.37915 8.08957 2.28247 7.16923 2.38044C6.25075 2.47822 5.16232 2.79765 4.42751 3.55501L5.86294 4.94769C6.13011 4.67232 6.67363 4.4445 7.38094 4.3692C8.08639 4.29411 8.69288 4.39854 8.95756 4.5242L9.81534 2.71748ZM10.6978 4.01264C10.7368 3.67966 10.6077 3.42996 10.543 3.32352C10.4663 3.19741 10.3762 3.10264 10.3047 3.03727C10.1589 2.90389 9.98664 2.79855 9.81421 2.71695L8.9587 4.52474C9.00421 4.54627 8.99448 4.54924 8.95496 4.5131C8.93664 4.49635 8.88566 4.44744 8.83395 4.36239C8.79421 4.297 8.67586 4.08356 8.71141 3.78001L10.6978 4.01264ZM8.52899 5.25608C9.0928 5.21259 9.51143 5.12132 9.82216 4.99762C9.97704 4.93597 10.1274 4.85746 10.2595 4.75514C10.3249 4.70455 10.4013 4.63612 10.4725 4.5467C10.5211 4.48561 10.6619 4.30021 10.6969 4.02037L8.71235 3.77228C8.73106 3.62254 8.78007 3.51149 8.81117 3.45101C8.84531 3.3846 8.88105 3.33463 8.90764 3.30122C8.96039 3.23495 9.00901 3.19397 9.03502 3.17383C9.08853 3.13239 9.11439 3.12673 9.08245 3.13945C9.01952 3.16449 8.8152 3.22806 8.37519 3.262L8.52899 5.25608ZM16.2747 9.82031C16.279 9.82031 16.2793 9.82051 16.2771 9.82026C16.2747 9.82 16.2736 9.81969 16.2748 9.81998C16.2779 9.82069 16.3006 9.82621 16.3561 9.85012C16.4859 9.90593 16.6727 10.0065 17.0409 10.2112L18.0125 8.46299C17.395 8.11979 16.9002 7.82031 16.2747 7.82031V9.82031ZM15.8906 9.88892C16.1285 9.82928 16.2358 9.82031 16.2747 9.82031V7.82031C15.9949 7.82031 15.7035 7.87392 15.4042 7.94897L15.8906 9.88892ZM10.7294 10.9284C12.0839 10.7129 15.2493 10.0487 15.8891 9.88928L15.4056 7.94861C14.8195 8.09464 11.7105 8.74714 10.4152 8.95322L10.7294 10.9284ZM10.6786 10.9372C10.6935 10.9343 10.7098 10.9315 10.7278 10.9286L10.4168 8.95297C10.3775 8.95915 10.3392 8.96584 10.3016 8.97305L10.6786 10.9372ZM12.9821 10.3823C12.4697 10.0452 11.6404 9.50202 11.0271 9.11157L9.95305 10.7987C10.5525 11.1803 11.3708 11.7162 11.8829 12.0532L12.9821 10.3823ZM13.1834 10.1077C12.8172 10.1077 12.4576 10.1558 12.1177 10.2686L12.7474 12.1669C12.8487 12.1333 12.9902 12.1077 13.1834 12.1077V10.1077ZM15.3157 10.4809C14.8589 10.3539 13.9977 10.1077 13.1834 10.1077V12.1077C13.6773 12.1077 14.2719 12.2665 14.7797 12.4078L15.3157 10.4809ZM15.3165 10.4811L15.3153 10.4808L14.7802 12.4079L14.7814 12.4082L15.3165 10.4811ZM15.564 10.5483C15.5711 10.5498 15.5688 10.5495 15.5515 10.5451C15.5363 10.5413 15.5164 10.5361 15.4914 10.5294C15.4413 10.516 15.3817 10.4994 15.3181 10.4816L14.7798 12.4078C14.8842 12.437 15.0614 12.487 15.1649 12.5081L15.564 10.5483ZM15.7495 10.5738C15.7302 10.5738 15.6708 10.5702 15.565 10.5485L15.164 12.5079C15.3535 12.5467 15.5539 12.5738 15.7495 12.5738V10.5738ZM15.4536 10.673C15.4536 10.6731 15.4541 10.6728 15.4547 10.6725C15.4553 10.6721 15.4561 10.6717 15.457 10.6712C15.4589 10.6701 15.4611 10.6689 15.4634 10.6676C15.4682 10.665 15.4733 10.6623 15.4786 10.6595C15.4893 10.654 15.5001 10.6486 15.511 10.6434C15.5327 10.6332 15.5537 10.6243 15.5736 10.6167C15.6133 10.6015 15.648 10.5917 15.6757 10.5853C15.7304 10.5728 15.7588 10.5738 15.7495 10.5738V12.5738C16.0179 12.5738 16.2439 12.5226 16.4301 12.4185L15.4536 10.673ZM15.4667 10.6659L15.4666 10.6659L16.4172 12.4256L16.4173 12.4255L15.4667 10.6659ZM15.0521 11.1077C15.0504 11.1137 15.0548 11.0958 15.0718 11.061C15.0801 11.0441 15.0941 11.0178 15.1153 10.9853C15.1258 10.9692 15.1412 10.9469 15.1617 10.9208C15.1762 10.9025 15.2182 10.8502 15.2834 10.7931L16.6005 12.2983C16.7103 12.2022 16.7749 12.1017 16.7897 12.079C16.8204 12.032 16.8462 11.9852 16.8677 11.9413C16.9112 11.8525 16.9478 11.7545 16.9777 11.6481L15.0521 11.1077ZM17.7327 9.06966C16.4472 9.06966 15.3982 9.87292 15.052 11.108L16.9778 11.6478C17.0839 11.2692 17.3511 11.0697 17.7327 11.0697V9.06966ZM19.6563 9.62835C19.0569 9.28319 18.3977 9.06966 17.7327 9.06966V11.0697C17.9713 11.0697 18.2889 11.1489 18.6583 11.3616L19.6563 9.62835ZM18.6517 9.56435C18.5511 9.6689 18.4665 9.76538 18.4027 9.83884L19.912 11.1511C19.9717 11.0824 20.0288 11.0177 20.0925 10.9515L18.6517 9.56435ZM17.5446 10.4886C17.9259 10.6952 18.4575 10.9438 18.963 11.1704L19.7812 9.34542C19.2813 9.12132 18.808 8.89848 18.4973 8.73012L17.5446 10.4886ZM17.07 10.2273C17.2114 10.3058 17.3694 10.3935 17.5436 10.4881L18.4983 8.73064C18.3332 8.64096 18.1826 8.55741 18.0405 8.47856L17.07 10.2273ZM17.0414 10.2114L17.07 10.2273L18.0405 8.47855L18.012 8.46271L17.0414 10.2114ZM16.2747 6.91883C15.9228 6.91883 15.5667 6.97886 15.186 7.07419L15.6718 9.01429C15.9667 8.94045 16.1478 8.91883 16.2747 8.91883V6.91883ZM18.4489 7.67371C17.7665 7.2947 17.1364 6.91883 16.2747 6.91883V8.91883C16.5248 8.91883 16.6897 8.98443 17.478 9.42219L18.4489 7.67371ZM18.9268 7.93668C18.7535 7.84282 18.5968 7.75581 18.4489 7.67372L17.478 9.42219C17.6251 9.50392 17.7906 9.59583 17.9746 9.69546L18.9268 7.93668ZM21.5131 10.1964C21.8939 9.27174 21.8939 9.27175 21.8939 9.27175C21.8939 9.27175 21.8939 9.27175 21.8939 9.27174C21.8939 9.27172 21.8938 9.27169 21.8937 9.27165C21.8935 9.27157 21.8932 9.27143 21.8927 9.27124C21.8918 9.27086 21.8904 9.27027 21.8884 9.26948C21.8846 9.26789 21.8787 9.26548 21.871 9.26228C21.8556 9.25589 21.8326 9.24636 21.8029 9.23401C21.7434 9.20931 21.6572 9.17334 21.5507 9.12858C21.3377 9.03899 21.0444 8.91453 20.7233 8.77497C20.0681 8.49015 19.3408 8.16112 18.9274 7.93698L17.9741 9.69516C18.4746 9.96657 19.2785 10.3277 19.926 10.6092C20.2563 10.7527 20.5573 10.8805 20.7756 10.9722C20.8848 11.0182 20.9736 11.0552 21.0352 11.0808C21.066 11.0936 21.0901 11.1036 21.1065 11.1104C21.1148 11.1138 21.1211 11.1164 21.1254 11.1182C21.1276 11.1191 21.1293 11.1198 21.1304 11.1203C21.131 11.1205 21.1315 11.1207 21.1318 11.1208C21.1319 11.1209 21.1321 11.1209 21.1322 11.121C21.1322 11.121 21.1322 11.121 21.1323 11.121C21.1323 11.121 21.1323 11.1211 21.5131 10.1964ZM20.5756 11.7614C20.7394 11.5731 20.8444 11.4591 20.9807 11.3692C21.098 11.2919 21.2718 11.2124 21.5721 11.1947L21.4542 9.19814C20.8041 9.23652 20.2911 9.42828 19.8796 9.69966C19.4871 9.95851 19.2214 10.2708 19.0667 10.4486L20.5756 11.7614ZM19.2427 12.516C19.6584 12.516 19.9685 12.3352 20.167 12.1754C20.3426 12.0341 20.4935 11.8557 20.5756 11.7614L19.0667 10.4486C19.014 10.5092 18.9798 10.5483 18.9491 10.5809C18.9191 10.6128 18.909 10.6206 18.913 10.6174C18.9179 10.6134 18.9509 10.5873 19.0101 10.5624C19.0744 10.5353 19.1546 10.516 19.2427 10.516V12.516ZM18.3289 12.2164C18.565 12.3728 18.8742 12.516 19.2427 12.516V10.516C19.4049 10.516 19.4797 10.5797 19.4332 10.5489L18.3289 12.2164ZM17.733 11.9704C17.8094 11.9704 18.0196 12.0119 18.3295 12.2168L19.4326 10.5485C18.9253 10.2131 18.3327 9.97035 17.733 9.97035V11.9704ZM17.8461 11.8904C17.8526 11.867 17.856 11.867 17.8472 11.8805C17.8376 11.895 17.8201 11.9158 17.7938 11.9351C17.7679 11.9542 17.744 11.9642 17.7292 11.9686C17.7155 11.9726 17.7151 11.9704 17.733 11.9704V9.97035C17.3576 9.97035 16.9572 10.0676 16.6082 10.3244C16.2556 10.584 16.0326 10.9499 15.9203 11.3506L17.8461 11.8904ZM15.75 13.4748C16.2578 13.4748 16.7479 13.3444 17.1494 13.0144C17.5409 12.6926 17.7399 12.2695 17.8462 11.8902L15.9203 11.3508C15.8815 11.4893 15.8502 11.4933 15.8795 11.4693C15.8931 11.4581 15.9014 11.4567 15.8913 11.4599C15.8782 11.464 15.8356 11.4748 15.75 11.4748V13.4748ZM14.9851 13.391C15.2481 13.4446 15.5036 13.4748 15.75 13.4748V11.4748C15.6649 11.4748 15.5456 11.4641 15.3844 11.4313L14.9851 13.391ZM14.5398 13.2762C14.6802 13.3153 14.8521 13.3638 14.9845 13.3909L15.3849 11.4314C15.3385 11.4219 15.2496 11.3978 15.0763 11.3495L14.5398 13.2762ZM13.1837 13.0087C13.5521 13.0087 14.0628 13.1434 14.5398 13.2762L15.0763 11.3495C14.67 11.2364 13.879 11.0087 13.1837 11.0087V13.0087ZM13.1894 12.9021C13.1551 12.9453 13.1182 12.9756 13.0877 12.9952C13.0585 13.0139 13.0388 13.0204 13.0367 13.0211C13.0349 13.0217 13.0455 13.0181 13.0722 13.0147C13.0987 13.0113 13.1354 13.0087 13.1837 13.0087V11.0087C12.7796 11.0087 12.0811 11.0821 11.6237 11.6577L13.1894 12.9021ZM8.93034 11.2233C9.22737 11.3988 9.94735 11.8636 10.6167 12.3007C10.9462 12.5158 11.2559 12.7192 11.4832 12.8689C11.5969 12.9437 11.6899 13.005 11.7545 13.0476C11.7868 13.0689 11.8119 13.0856 11.829 13.0968C11.8375 13.1025 11.844 13.1068 11.8484 13.1097C11.8505 13.1111 11.8522 13.1122 11.8533 13.1129C11.8538 13.1133 11.8542 13.1135 11.8545 13.1137C11.8546 13.1138 11.8547 13.1139 11.8548 13.1139C11.8548 13.1139 11.8548 13.1139 11.8549 13.1139C11.8549 13.114 11.8549 13.114 12.4065 12.2799C12.9582 11.4458 12.9582 11.4458 12.9582 11.4458C12.9582 11.4458 12.9581 11.4458 12.9581 11.4457C12.958 11.4457 12.9579 11.4456 12.9577 11.4455C12.9574 11.4453 12.957 11.445 12.9564 11.4447C12.9553 11.4439 12.9536 11.4428 12.9513 11.4413C12.9469 11.4383 12.9402 11.4339 12.9316 11.4282C12.9142 11.4168 12.8888 11.4 12.8562 11.3785C12.7911 11.3355 12.6974 11.2737 12.583 11.1983C12.3542 11.0477 12.0423 10.8429 11.7101 10.626C11.0562 10.199 10.2924 9.70509 9.94779 9.50146L8.93034 11.2233ZM10.2736 8.06261C9.52222 8.18215 8.77319 8.48927 8.37736 9.09154C8.15955 9.42295 8.049 9.85918 8.18486 10.313C8.31463 10.7465 8.62282 11.0417 8.9306 11.2235L9.94753 9.5013C9.93448 9.4936 10.0458 9.55557 10.1008 9.73943C10.162 9.9436 10.0988 10.1137 10.0487 10.19C10.0094 10.2499 9.99696 10.2303 10.0961 10.1801C10.1886 10.1332 10.3475 10.076 10.5878 10.0378L10.2736 8.06261ZM15.1872 7.0739C14.614 7.21668 11.5273 7.86311 10.2736 8.06261L10.5878 10.0378C11.9001 9.82895 15.0432 9.17088 15.6706 9.01458L15.1872 7.0739Z" fill="white" mask="url(#path-1-inside-1)"/>
</svg>
