<svg width="24" height="24" viewBox="0 0 24 24" fill="none" xmlns="http://www.w3.org/2000/svg">
<path d="M10.9244 6.43323C9.49461 6.43323 7.71286 5.9933 6.92097 4.78347C6.54702 4.21155 6.54702 3.48565 6.89897 2.82574C7.49289 1.7039 8.96668 1.04399 10.9024 1C12.8821 1.06599 14.3339 1.7259 14.9278 2.82574C15.2798 3.48565 15.2798 4.21155 14.9058 4.78347C14.136 6.01529 12.3542 6.43323 10.9244 6.43323ZM10.9244 1.50593C8.41676 1.57192 7.58088 2.62777 7.33891 3.06771C7.07495 3.55164 7.07495 4.10156 7.33891 4.5195C7.88883 5.37738 9.29663 5.92731 10.9244 5.92731C12.5522 5.92731 13.96 5.37738 14.5099 4.5195C14.7739 4.10156 14.7739 3.55164 14.5099 3.06771C14.2679 2.62777 13.4321 1.57192 10.9244 1.50593Z" fill="white" stroke="white" stroke-width="0.25"/>
<path d="M13.4748 4.03536C13.3648 4.03536 13.2768 3.96937 13.2328 3.88139C13.0348 3.35346 12.177 3.02351 10.9011 3.00151C10.7692 3.00151 10.6592 2.89153 10.6592 2.75954C10.6592 2.62756 10.7692 2.51758 10.9011 2.51758C12.4189 2.56157 13.4088 2.97951 13.6728 3.72741C13.7167 3.85939 13.6508 3.99137 13.5188 4.03536C13.5188 4.03536 13.4968 4.03536 13.4748 4.03536Z" fill="white" stroke="white" stroke-width="0.25"/>
<path d="M10.902 12.6363C10.8141 12.6363 10.7481 12.6363 10.6601 12.6143C10.2201 12.5043 9.45024 12.0204 9.40625 9.90869C9.40625 9.77671 9.51623 9.66673 9.64822 9.64473C9.7802 9.62273 9.89018 9.75471 9.91218 9.88669C9.95617 11.7344 10.5501 12.0644 10.7921 12.1084C11.122 12.1744 11.452 11.9544 11.5619 11.7344C11.8919 11.0745 12.1779 9.73272 11.6499 7.04909C11.6279 6.91711 11.7159 6.78513 11.8479 6.76313C11.9799 6.74114 12.1119 6.82913 12.1339 6.96111C12.5738 9.22679 12.5298 10.9205 11.9799 11.9764C11.8039 12.3284 11.386 12.6363 10.902 12.6363Z" fill="white" stroke="white" stroke-width="0.25"/>
<path d="M14.9919 11.5807C14.4859 11.5807 13.716 11.2508 12.8582 9.71098C12.7922 9.601 12.8362 9.44702 12.9461 9.38103C13.0561 9.31504 13.2101 9.35903 13.2761 9.46901C14.222 11.1188 14.9039 11.1408 15.1458 11.0748C15.4538 10.9868 15.6518 10.6348 15.6518 10.3709C15.6298 9.68898 15.2998 8.47915 13.804 6.56542C13.716 6.45544 13.738 6.30146 13.848 6.21347C13.958 6.12548 14.112 6.14748 14.2 6.25747C15.4758 7.88524 16.1357 9.27104 16.1577 10.3489C16.1797 10.8108 15.8497 11.3827 15.2998 11.5367C15.2118 11.5807 15.1018 11.5807 14.9919 11.5807Z" fill="white" stroke="white" stroke-width="0.25"/>
<path d="M17.8756 9.42389C17.7876 9.42389 17.6996 9.42389 17.6116 9.40189C17.1717 9.31391 16.7097 9.09394 16.2038 8.76398C16.0938 8.69799 16.0498 8.54401 16.1378 8.41203C16.2038 8.30205 16.3578 8.25805 16.4898 8.34604C16.9297 8.632 17.3476 8.82997 17.7216 8.91796C17.9856 8.98395 18.2495 8.89596 18.4255 8.676C18.6015 8.45603 18.6455 8.19206 18.5355 7.9281C18.2715 7.31219 17.5236 6.32233 15.4559 5.13449C15.3459 5.0685 15.3019 4.91452 15.3679 4.80454C15.4339 4.69456 15.5879 4.65056 15.6979 4.71655C17.4576 5.72841 18.5575 6.76226 18.9754 7.75212C19.1514 8.17007 19.0854 8.654 18.7994 9.00595C18.5795 9.26991 18.2275 9.42389 17.8756 9.42389Z" fill="white" stroke="white" stroke-width="0.25"/>
<path d="M19.3477 6.32263C19.0837 6.32263 18.7758 6.30063 18.4678 6.23464C18.3358 6.21264 18.2479 6.08066 18.2699 5.94868C18.2918 5.8167 18.4238 5.72871 18.5558 5.75071C18.9957 5.83869 19.3697 5.86069 19.6996 5.8167C19.9636 5.7727 20.1836 5.59673 20.2716 5.35476C20.3596 5.0908 20.2936 4.82684 20.1176 4.62887C19.5897 4.07894 18.3798 3.35304 15.5422 2.9571C15.4103 2.9351 15.3223 2.80312 15.3223 2.67114C15.3443 2.53916 15.4762 2.45117 15.6082 2.45117C18.0059 2.78113 19.6337 3.39704 20.4695 4.27691C20.7775 4.60687 20.8875 5.0688 20.7335 5.50874C20.5795 5.94868 20.2056 6.23464 19.7656 6.30063C19.6337 6.32263 19.4797 6.32263 19.3477 6.32263Z" fill="white" stroke="white" stroke-width="0.25"/>
<path d="M2.4769 6.32402C2.32292 6.32402 2.19094 6.32402 2.03696 6.30202C1.59703 6.23603 1.22308 5.92807 1.0691 5.51013C0.915121 5.0702 1.02511 4.60826 1.33306 4.27831C2.16894 3.39843 3.81871 2.78252 6.23837 2.45256C6.37035 2.43057 6.50233 2.51855 6.52433 2.67253C6.54633 2.80451 6.45834 2.9365 6.30436 2.95849C4.03868 3.26645 2.4549 3.83837 1.70701 4.63026C1.50904 4.82823 1.46504 5.09219 1.55303 5.35616C1.64102 5.62012 1.86099 5.79609 2.12495 5.81809C2.78486 5.90608 4.01668 5.7741 6.10639 4.63026C6.21638 4.56427 6.37035 4.60826 6.43634 4.71824C6.50233 4.82823 6.45834 4.98221 6.34836 5.0482C4.78658 5.90608 3.48876 6.32402 2.4769 6.32402Z" fill="white" stroke="white" stroke-width="0.25"/>
<path d="M6.89928 11.602C6.70131 11.602 6.50334 11.558 6.32736 11.448C5.93142 11.228 5.68945 10.8101 5.68945 10.3481C5.68945 9.9522 5.79944 9.51226 5.97541 9.05032C6.01941 8.91834 6.17339 8.85235 6.28337 8.89634C6.41535 8.94034 6.48134 9.09432 6.43735 9.2043C6.28337 9.62224 6.19538 9.99619 6.19538 10.3481C6.19538 10.6121 6.32736 10.8541 6.56933 10.986C6.8113 11.118 7.09726 11.096 7.31722 10.9421C7.91114 10.5241 8.81301 9.49026 9.6269 6.87263C9.67089 6.74065 9.80287 6.67466 9.93486 6.71865C10.0668 6.76265 10.1328 6.89463 10.0888 7.02661C9.40693 9.2263 8.54905 10.6781 7.58119 11.338C7.38321 11.536 7.14125 11.602 6.89928 11.602Z" fill="white" stroke="white" stroke-width="0.25"/>
<path d="M3.97231 9.44643C3.62036 9.44643 3.26841 9.29245 3.04844 9.00649C2.76248 8.65454 2.69649 8.17061 2.87246 7.75267C3.02644 7.37872 3.2904 7.00477 3.66435 6.60883C3.75234 6.49884 3.90632 6.49884 4.0163 6.58683C4.12629 6.67482 4.12629 6.8288 4.0383 6.93878C3.70834 7.29073 3.48838 7.62069 3.35639 7.95064C3.24641 8.19261 3.2904 8.47857 3.46638 8.69853C3.64235 8.9185 3.90632 9.00649 4.17028 8.9405C4.85218 8.78652 6.01802 8.19261 7.66779 6.23488C7.75577 6.1249 7.90975 6.1249 8.01974 6.21288C8.12972 6.30087 8.12972 6.45485 8.04173 6.56484C6.63393 8.2146 5.38011 9.18247 4.25827 9.42443C4.14828 9.44643 4.06029 9.44643 3.97231 9.44643Z" fill="white" stroke="white" stroke-width="0.25"/>
<path d="M9.8679 22.2709C9.77992 22.2709 9.71393 22.2269 9.66993 22.161C9.60394 22.051 9.62594 21.897 9.73592 21.809C14.8612 18.3115 13.5854 13.3622 13.0575 11.9104C13.0135 11.7784 13.0795 11.6464 13.2114 11.6024C13.3434 11.5584 13.4754 11.6244 13.5194 11.7564C14.0693 13.2742 15.4331 18.5315 10.0219 22.2269C9.95589 22.2709 9.9119 22.2709 9.8679 22.2709Z" fill="white" stroke="white" stroke-width="0.25"/>
<path d="M14.201 20.4227C13.7171 20.4227 13.4311 20.3567 13.4091 20.3567C13.2771 20.3348 13.1891 20.1808 13.2331 20.0488C13.2551 19.9168 13.4091 19.8288 13.5411 19.8728C13.7171 19.9168 17.9405 20.8407 19.8982 14.5276C19.8982 14.5276 19.8982 14.5056 19.9202 14.5056C19.9642 14.4176 20.888 12.4379 22.0319 11.514C20.7121 11.47 17.6765 11.9319 15.1908 16.7933C15.1249 16.9252 14.9709 16.9692 14.8609 16.9032C14.7289 16.8372 14.6849 16.6833 14.7509 16.5733C18.1384 9.90822 22.7798 11.1181 22.8238 11.1181C22.9338 11.14 22.9997 11.25 22.9997 11.338C22.9997 11.448 22.9338 11.536 22.8458 11.58C21.8119 11.9539 20.7121 13.9337 20.3601 14.6815C18.7543 19.7848 15.6528 20.4227 14.201 20.4227Z" fill="white" stroke="white" stroke-width="0.25"/>
<path d="M5.95212 18.62C5.84214 18.62 5.73215 18.62 5.62217 18.598C3.42248 18.4 1.77271 16.2443 1.70672 16.1563C1.64073 16.0683 1.64073 15.9364 1.70672 15.8484C1.77271 15.7604 1.88269 15.7384 1.99268 15.7604C3.62045 16.4203 5.22622 15.7604 5.86413 15.4524C6.39206 15.1885 6.89799 15.0125 7.38192 14.9025C11.0994 14.0886 12.3972 16.8822 12.4192 16.9042C12.4852 17.0362 12.4192 17.1682 12.2872 17.2342C12.1552 17.3002 12.0233 17.2342 11.9573 17.1022C11.9133 16.9922 10.7914 14.6385 7.46991 15.3644C7.00797 15.4744 6.54604 15.6284 6.06211 15.8704C5.49019 16.1563 4.12638 16.7063 2.63059 16.4423C3.2685 17.0582 4.36834 17.9601 5.64417 18.0701C6.59003 18.158 7.5139 17.8061 8.34978 17.0142C8.45977 16.9262 8.61375 16.9262 8.70173 17.0362C8.78972 17.1462 8.78972 17.3002 8.67974 17.3882C7.86585 18.202 6.94198 18.62 5.95212 18.62Z" fill="white" stroke="white" stroke-width="0.25"/>
</svg>
