<svg width="88" height="88" viewBox="0 0 88 88" fill="none" xmlns="http://www.w3.org/2000/svg">
<path fill-rule="evenodd" clip-rule="evenodd" d="M23.2642 59.7764C23.2642 55.3148 26.8946 51.6843 31.3562 51.6843C35.8178 51.6843 39.4483 55.3148 39.4483 59.7764C39.4483 64.238 35.8178 67.8685 31.3562 67.8685C26.8946 67.8685 23.2642 64.238 23.2642 59.7764ZM26.3002 59.7775C26.3002 62.5661 28.5687 64.8345 31.3573 64.8345C34.1459 64.8345 36.4144 62.5661 36.4144 59.7775C36.4144 56.9888 34.1459 54.7204 31.3573 54.7204C28.5696 54.7204 26.3002 56.9888 26.3002 59.7775Z" fill="white"/>
<path fill-rule="evenodd" clip-rule="evenodd" d="M54.6206 48.1454C54.6206 43.9614 58.0242 40.5588 62.2072 40.5588C66.3901 40.5588 69.7928 43.9614 69.7938 48.1454C69.7938 52.3293 66.3901 55.7319 62.2072 55.7319C58.0233 55.7319 54.6206 52.3283 54.6206 48.1454ZM57.6567 48.1435C57.6567 50.6535 59.6983 52.6951 62.2082 52.6951C64.7182 52.6951 66.7598 50.6535 66.7598 48.1435C66.7598 45.6336 64.7182 43.592 62.2082 43.592C59.6983 43.592 57.6567 45.6336 57.6567 48.1435Z" fill="white"/>
<path fill-rule="evenodd" clip-rule="evenodd" d="M87.9873 32.8585L87.9856 32.838C87.9824 32.7984 87.9793 32.7598 87.9726 32.7206C87.9589 32.6414 87.9374 32.5661 87.913 32.4908C87.9094 32.4798 87.906 32.4687 87.9027 32.4577C87.8942 32.4298 87.8858 32.4021 87.8739 32.3755C87.8279 32.2679 87.7722 32.1652 87.7018 32.0714C87.7014 32.0708 87.7011 32.0702 87.7008 32.0697C87.7003 32.0686 87.6998 32.0675 87.6993 32.0665C87.6986 32.0648 87.6979 32.0631 87.6969 32.0616C87.6969 32.0611 87.6966 32.0609 87.6964 32.0606C87.6962 32.0604 87.6959 32.0601 87.6959 32.0596C87.6959 32.0591 87.6957 32.0589 87.6954 32.0587C87.6952 32.0584 87.6949 32.0582 87.6949 32.0577C69.1592 7.34923 41.0236 11.1987 40.743 11.2408C40.4634 11.2819 40.2004 11.4011 39.9852 11.584L21.5297 27.2001C21.165 27.5081 20.9675 27.9696 20.9948 28.4458C21.0222 28.9219 21.2725 29.358 21.6705 29.622C22.7245 30.3221 23.3044 31.1708 23.186 31.8377C22.9758 33.013 20.6145 33.9458 17.7613 33.4373C17.161 33.3298 16.5714 33.1606 16.0092 32.9328C15.487 32.7226 14.8906 32.8164 14.4604 33.1811L0.537778 44.9634C0.518845 44.9795 0.504352 44.9988 0.489783 45.0183C0.478771 45.0329 0.467715 45.0477 0.454667 45.0611C0.398933 45.1169 0.351022 45.1736 0.305067 45.2371C0.248356 45.3144 0.201422 45.3946 0.161333 45.4796C0.130044 45.5461 0.102667 45.6107 0.0801778 45.682C0.0498667 45.7808 0.0352 45.8805 0.0254222 45.9832C0.0232825 46.0042 0.0181462 46.024 0.0130461 46.0437C0.00649313 46.069 0 46.0941 0 46.1211V55.5771C0 56.2205 0.4048 56.7935 1.01102 57.0076C2.82676 57.651 4.04604 59.3729 4.04604 61.2932C4.04604 63.2136 2.82578 64.9364 1.01102 65.5788C0.4048 65.7939 0 66.3669 0 67.0103V77.4774C0 77.9203 0.1936 78.3408 0.529956 78.6292C0.806667 78.8659 1.15769 78.9949 1.51751 78.9949C1.59476 78.9949 1.672 78.9891 1.74924 78.9773L86.7152 65.8282C87.4544 65.7128 88 65.0772 88 64.3283V32.9719C88 32.9495 87.9966 32.9275 87.9933 32.9054C87.9909 32.8898 87.9885 32.8742 87.9873 32.8585ZM15.7536 36.0627C16.2367 36.2152 16.7304 36.3355 17.2291 36.4244C21.6956 37.2233 25.6243 35.4418 26.1738 32.3706C26.4202 30.9909 25.9342 29.5761 24.847 28.3676L41.5992 14.1927C44.9149 13.8485 67.4888 12.2968 83.6847 31.868L6.61336 43.7959L15.7536 36.0627ZM3.0332 67.997V75.7078L84.9641 63.0289V34.7438L77.753 35.8594L3.0332 47.4236V54.5917C5.49133 55.8902 7.07924 58.4627 7.07924 61.2943C7.07924 64.126 5.49133 66.6985 3.0332 67.997Z" fill="white"/>
<path fill-rule="evenodd" clip-rule="evenodd" d="M50.5738 25.8912C50.5738 29.0113 47.0196 31.4547 42.4817 31.4547C37.9448 31.4547 34.3896 29.0113 34.3896 25.8912C34.3896 22.7711 37.9439 20.3276 42.4817 20.3276C47.0196 20.3276 50.5738 22.7721 50.5738 25.8912ZM47.5398 25.8922C47.5398 24.6984 45.377 23.3637 42.4828 23.3637C39.5886 23.3637 37.4257 24.6984 37.4257 25.8922C37.4257 27.0861 39.5876 28.4208 42.4828 28.4208C45.377 28.4208 47.5398 27.0861 47.5398 25.8922Z" fill="white"/>
</svg>
