<svg width="24" height="24" viewBox="0 0 24 24" fill="none" xmlns="http://www.w3.org/2000/svg">
<path fill-rule="evenodd" clip-rule="evenodd" d="M16.4865 13.0668C16.4529 13.0668 16.4201 13.0692 16.3872 13.0717L16.3872 13.0717C16.363 13.0735 16.3387 13.0753 16.3142 13.0761C15.7706 11.7098 14.3334 7.12206 16.7682 1.60122C17.1113 1.50431 17.3641 1.19209 17.3641 0.817617C17.3641 0.366131 16.998 0 16.5462 0C16.0944 0 15.7283 0.366131 15.7283 0.817617C15.7283 0.825363 15.7293 0.832916 15.7304 0.840487C15.7313 0.846716 15.7321 0.852959 15.7324 0.859332C9.50596 5.43644 8.46918 11.4136 8.29975 13.0754C5.36332 13.165 3 15.5761 3 18.5337C3 21.5478 5.45253 24 8.46661 24C10.0515 24 11.4768 23.3175 12.4764 22.2358C13.4753 23.3175 14.901 24 16.4862 24C19.5003 24 21.9528 21.5475 21.9528 18.5337C21.9528 15.52 19.5006 13.0668 16.4865 13.0668ZM15.6378 2.14031C13.6611 7.32646 14.8282 11.5548 15.4439 13.1724C14.282 13.3999 13.2507 13.9929 12.4767 14.8307C11.6475 13.9338 10.5235 13.3184 9.2608 13.1322C9.43119 11.644 10.3955 6.35675 15.6378 2.14031ZM8.46693 23.0422C5.98071 23.0422 3.95784 21.019 3.95784 18.5334C3.95784 16.0472 5.98071 14.024 8.46693 14.024C9.83198 14.024 11.0549 14.6369 11.8824 15.5983C11.3395 16.447 11.0202 17.452 11.0202 18.5331C11.0202 19.6135 11.3392 20.6188 11.8824 21.4676C11.0549 22.4299 9.83198 23.0422 8.46693 23.0422ZM16.4865 23.0422C15.1211 23.0422 13.8986 22.4299 13.0707 21.4679C12.8393 21.199 12.6397 20.9031 12.4764 20.5848C12.1597 19.9687 11.9774 19.2724 11.9774 18.5334C11.9774 17.7938 12.1594 17.0974 12.4764 16.4813C12.6397 16.1637 12.8393 15.8672 13.0707 15.5983C13.8982 14.6369 15.1211 14.024 16.4865 14.024C18.9727 14.024 20.9959 16.0472 20.9959 18.5334C20.9959 21.019 18.9727 23.0422 16.4865 23.0422ZM5.40438 16.9436C5.45733 16.8226 5.40214 16.6817 5.28084 16.6285C5.15923 16.5758 5.01932 16.6304 4.96605 16.7514C4.92017 16.856 3.86734 19.3159 5.50546 20.765C5.55103 20.8051 5.6075 20.8247 5.66398 20.8247C5.73008 20.8247 5.79618 20.7977 5.84367 20.7438C5.93096 20.6447 5.92165 20.4939 5.82282 20.4059C4.46147 19.2018 5.37564 17.0124 5.40379 16.945L5.40438 16.9436ZM13.2516 16.6285C13.3729 16.6817 13.4281 16.8226 13.3752 16.9436L13.375 16.9439C13.3591 16.9816 12.4224 19.1933 13.7936 20.4059C13.8928 20.4939 13.9021 20.6447 13.8145 20.7438C13.767 20.7977 13.7012 20.8247 13.6351 20.8247C13.5783 20.8247 13.5218 20.8051 13.4766 20.765C11.8381 19.3159 12.891 16.856 12.9369 16.7514C12.9901 16.6304 13.1303 16.5758 13.2516 16.6285Z" fill="white"/>
</svg>
