<svg width="24" height="24" viewBox="0 0 24 24" fill="none" xmlns="http://www.w3.org/2000/svg">
<path fill-rule="evenodd" clip-rule="evenodd" d="M22.9092 3.1937C23.5438 3.73917 23.9281 4.49925 23.9909 5.33358C24.0538 6.16818 23.788 6.97731 23.2422 7.61193L10.6514 22.2575C10.0555 22.9504 9.18924 23.3479 8.27444 23.3479C7.52573 23.3479 6.80088 23.0791 6.23292 22.5906C4.9233 21.4639 4.77372 19.4817 5.89989 18.1718L10.5075 12.8125L4.90975 16.6676C4.38352 17.0296 3.76976 17.2207 3.13405 17.2207C3.03434 17.2207 2.93543 17.2158 2.8368 17.2066C1.91142 17.118 1.07844 16.6289 0.551671 15.8645C-0.428171 14.4413 -0.0677759 12.4868 1.35511 11.5066L17.2616 0.552787C17.7873 0.191037 18.401 0 19.037 0C20.0686 0 21.0346 0.506722 21.6194 1.35595C21.9074 1.77407 22.0765 2.2377 22.1391 2.7092C22.416 2.83222 22.6764 2.99345 22.9092 3.1937ZM2.96524 15.858C3.37387 15.8967 3.7955 15.7894 4.14127 15.5517L13.9738 8.78065L18.4907 3.52619C19.0443 2.88235 19.8323 2.49784 20.6748 2.44608C20.6281 2.33526 20.5742 2.22659 20.5035 2.1239C20.1716 1.6421 19.6234 1.35433 19.037 1.35433C18.6766 1.35433 18.3284 1.46272 18.0298 1.66812L2.59455 12.2976C2.73139 12.3068 2.8685 12.3261 3.00372 12.3594C3.99304 12.6027 4.62333 13.5503 4.40872 14.4725C4.32363 14.8356 4.09737 15.1456 3.77139 15.3453C3.41722 15.5629 2.9731 15.6274 2.55254 15.5247C2.33468 15.471 2.20136 15.251 2.25474 15.0328C2.30867 14.815 2.52761 14.6819 2.74656 14.735C2.95657 14.7871 3.17606 14.757 3.34623 14.6524C3.48578 14.5665 3.5817 14.4372 3.61666 14.2877C3.73047 13.7975 3.36872 13.2864 2.8097 13.149C2.42139 13.0531 2.0152 13.1105 1.69708 13.3056C1.60386 13.3631 1.52447 13.4341 1.45239 13.5102C1.2768 14.0256 1.33587 14.6142 1.66754 15.0957C1.96643 15.5298 2.43955 15.8075 2.96524 15.858ZM14.0261 16.2538L22.215 6.72856C22.5247 6.36843 22.6754 5.90913 22.6396 5.43493C22.6038 4.96154 22.3854 4.53015 22.0256 4.22042C21.7031 3.94294 21.2918 3.79039 20.8677 3.79039C20.348 3.79039 19.8559 4.01611 19.5177 4.40956L7.57776 18.2978C7.64334 18.2886 7.70918 18.281 7.7753 18.2772C8.79416 18.2287 9.67266 18.9441 9.73607 19.8884C9.76046 20.2602 9.63472 20.6228 9.38109 20.9092C9.10578 21.2203 8.69986 21.4124 8.26739 21.4362C7.53603 21.4715 6.90412 20.9528 6.85941 20.2678C6.84478 20.044 7.01441 19.8505 7.2385 19.8356C7.4607 19.8245 7.6558 19.9906 7.6707 20.2147C7.68615 20.4523 7.94114 20.6455 8.22241 20.6241C8.43919 20.6122 8.63998 20.5195 8.77221 20.3699C8.88088 20.2475 8.93507 20.0954 8.92477 19.9423C8.8909 19.44 8.40071 19.053 7.82028 19.0888C7.4206 19.1107 7.04963 19.2839 6.8025 19.5632C6.59358 19.7993 6.4898 20.0935 6.50877 20.3922C6.52828 20.5873 6.57976 20.7786 6.66268 20.9588C6.96753 21.5758 7.68046 21.9906 8.47414 21.9451C8.51831 21.9435 8.56031 21.95 8.60042 21.9606C8.99577 21.8871 9.35833 21.6834 9.62443 21.3736L10.4674 20.393L10.4718 19.147C10.4718 19.0351 10.5631 18.9446 10.675 18.9446H10.6761C10.788 18.9449 10.8785 19.0362 10.8785 19.1487L10.8758 19.9182L11.5164 19.173L11.5226 17.4781C11.5229 17.3662 11.6139 17.2757 11.7258 17.2757H11.7266C11.8388 17.2762 11.9293 17.3675 11.9291 17.4797L11.9245 18.6983L12.5705 17.9469C12.5703 17.9446 12.5697 17.9425 12.5691 17.9405C12.5684 17.9382 12.5677 17.9359 12.5677 17.9333L12.5718 16.7817C12.5718 16.6698 12.6631 16.5793 12.775 16.5793H12.7759C12.8878 16.5796 12.9783 16.6709 12.9783 16.7833L12.9758 17.4754L13.618 16.7283L13.6224 15.4255C13.6227 15.3136 13.7134 15.2231 13.8256 15.2231H13.8262C13.9386 15.2233 14.0291 15.3146 14.0288 15.4271L14.0261 16.2538ZM7.48544 10.034L14.6741 5.08302C14.8592 4.9562 15.1117 5.002 15.2394 5.18735C15.3665 5.37215 15.3201 5.62524 15.135 5.7526L7.94664 10.7033C7.87619 10.7518 7.79598 10.7751 7.71604 10.7751C7.58733 10.7751 7.46024 10.7139 7.38112 10.5992C7.25403 10.4144 7.30064 10.1613 7.48544 10.034ZM18.5926 6.87714L18.1802 7.3573C18.0339 7.52748 18.0531 7.78409 18.2236 7.93041C18.3002 7.99626 18.3945 8.02851 18.4886 8.02851C18.6026 8.02851 18.7165 7.98055 18.7969 7.88706L19.2096 7.40689C19.356 7.23672 19.3367 6.98011 19.166 6.83378C18.9958 6.68773 18.7395 6.70697 18.5926 6.87714ZM11.5253 15.0972L17.1171 8.59299C17.2637 8.42254 17.5198 8.40357 17.6905 8.54963C17.8609 8.69596 17.8801 8.95257 17.7338 9.12274L12.142 15.6269C12.0612 15.7204 11.9474 15.7684 11.8334 15.7684C11.7396 15.7684 11.6456 15.7361 11.5683 15.6703C11.3982 15.524 11.3789 15.2673 11.5253 15.0972Z" fill="white"/>
</svg>
