<svg width="88" height="88" viewBox="0 0 88 88" fill="none" xmlns="http://www.w3.org/2000/svg">
<path d="M79.0268 16.8472C78.3095 16.0921 77.1175 16.0598 76.3569 16.7771L74.0808 18.94C73.9837 17.8936 73.714 16.8472 73.261 15.844C71.713 12.4568 68.4444 10.3532 64.7173 10.3532H61.7238C61.5674 10.1752 61.4002 10.008 61.206 9.87317C52.7595 4.03718 42.0098 2.11162 33.8167 4.97568C25.6183 7.83435 18.4015 16.0274 15.4242 25.8493C15.0736 26.9982 15.5375 28.3197 16.5245 28.9993C18.5579 30.407 20.7262 31.5829 22.9592 32.5214C22.4953 32.9421 22.0369 33.3682 21.5892 33.8159C12.0423 43.3627 8.93556 57.2731 13.86 68.4273C14.2484 69.3065 14.038 70.369 13.3368 71.0648L13.2613 71.1457C10.2462 74.1554 10.2462 79.0583 13.2613 82.0734C14.7662 83.5782 16.7457 84.3334 18.7251 84.3334C20.7046 84.3334 22.6841 83.5782 24.189 82.068L24.2645 81.9979C24.9657 81.2967 26.0282 81.0863 26.902 81.4693C38.0562 86.3991 51.9666 83.2924 61.5188 73.7455C71.0657 64.1932 74.1725 50.2829 69.2426 39.1287C68.8597 38.2549 69.07 37.1923 69.7712 36.4911C72.3117 33.9507 72.7 30.0726 70.9578 27.1061L78.9567 19.5171C79.7118 18.7944 79.7442 17.6024 79.0268 16.8472ZM19.2429 26.2862C21.9668 17.9961 28.2558 10.9142 35.0573 8.53553C41.4111 6.31872 49.9655 7.59703 56.9989 11.6801L42.1285 16.8688L36.0875 14.0101C35.4133 13.6919 34.6096 13.9778 34.2914 14.652C33.9732 15.3262 34.259 16.1299 34.9332 16.4481L38.4985 18.1363L27.1501 22.0953C26.4489 22.3434 26.0768 23.1093 26.3249 23.8159C26.5191 24.3715 27.0368 24.7167 27.5978 24.7167C27.7434 24.7167 27.8944 24.6951 28.0401 24.6412L33.6819 22.6724L31.9289 26.2485C31.5999 26.9119 31.875 27.721 32.5438 28.05C32.7326 28.1471 32.9376 28.1902 33.1371 28.1902C33.6334 28.1902 34.1134 27.9151 34.3453 27.4351L37.3119 21.4049L45.8771 18.4168L44.1187 21.9874C43.7897 22.6563 44.0648 23.4653 44.7336 23.7943C44.9278 23.8914 45.1274 23.9346 45.3269 23.9346C45.8285 23.9346 46.3086 23.6541 46.5405 23.1795L49.5071 17.1493L57.8889 14.2205C54.9223 21.7987 49.0216 28.1201 42.6678 30.3369C35.861 32.7101 26.5352 31.0812 19.2429 26.2862ZM65.7907 40.6551C70.0948 50.3961 67.3009 62.6183 58.849 71.0756C50.3916 79.5276 38.1695 82.3215 28.4284 78.0173C26.1361 77.0087 23.3907 77.5319 21.5946 79.328L21.5191 79.4035C19.9765 80.9461 17.4684 80.9461 15.9312 79.4035C14.3886 77.8609 14.3886 75.3528 15.9258 73.8156L16.0067 73.7401C17.8028 71.944 18.326 69.1932 17.312 66.9063C13.0132 57.1652 15.8018 44.9377 24.2591 36.4857C25.1652 35.5796 26.1145 34.749 27.1016 33.9723C29.9926 34.7867 32.9268 35.2074 35.7639 35.2074C38.6279 35.2074 41.3895 34.7813 43.9138 33.9022C46.9504 32.8396 49.8576 31.0435 52.4628 28.7026C53.2125 28.9453 53.9515 29.2204 54.6742 29.544C56.9666 30.5527 59.712 30.0295 61.5081 28.2334C63.0507 26.6908 65.5587 26.6908 67.1013 28.2334C68.6385 29.776 68.6385 32.2786 67.1013 33.8213C65.3052 35.6174 64.7766 38.3628 65.7907 40.6551ZM68.9568 23.4168L68.1585 24.3391C65.2027 22.6401 61.3624 23.0392 58.8382 25.5635C58.137 26.2647 57.0798 26.475 56.2006 26.0867C55.9202 25.9626 55.6397 25.8493 55.3538 25.7361C58.1801 22.4405 60.4725 18.46 61.945 14.1288H64.7173C66.9773 14.1288 68.8867 15.3586 69.8252 17.4136C70.7583 19.4686 70.4347 21.7124 68.9568 23.4168Z" fill="white"/>
</svg>
