<svg width="24" height="24" viewBox="0 0 24 24" fill="none" xmlns="http://www.w3.org/2000/svg">
<path fill-rule="evenodd" clip-rule="evenodd" d="M8.10359 9.81872C6.72776 9.81872 5.78936 10.9688 5.98645 12.3874C6.05176 12.8567 6.2233 13.2949 6.46618 13.6717H6.16549C4.90921 13.6717 4.1168 14.8218 4.39371 16.2404C4.48547 16.7097 4.6719 17.1479 4.91883 17.5248H4.63179C3.4985 17.5248 2.87049 18.6748 3.22851 20.0934C3.58996 21.522 4.66962 22.6621 5.64476 22.6621H18.0434C19.0191 22.6621 20.0956 21.5121 20.4481 20.0934C20.8022 18.6649 20.166 17.5248 19.0333 17.5248H18.7445C18.991 17.1469 19.1762 16.7083 19.2656 16.2404C19.538 14.8119 18.7374 13.6717 17.4823 13.6717H17.1813C17.423 13.2939 17.5925 12.8553 17.6556 12.3874C17.8476 10.9589 16.893 9.81872 15.5269 9.81872H15.1905C15.4302 9.4409 15.9844 8.53438 15.9844 7.96905C15.9844 7.5099 16.4435 6.59158 15.624 5.21411C14.8869 3.97533 15.6303 4.83264 12.5328 2C12.5328 4.26612 10.6743 5.9657 10.6743 5.9657C9.20069 5.9657 7.88216 7.11574 8.00072 8.53438C8.04001 9.00368 8.19718 9.44186 8.43653 9.81872H8.10359Z" stroke="white" stroke-width="1.19121"/>
<path d="M8.38477 9.78613C9.22737 11.1621 10.5386 12.1107 11.3418 12.6576C12.1319 13.2045 15.6247 14.4855 17.2532 13.555" stroke="white" stroke-width="1.19121"/>
<path d="M6.39551 13.7061C7.93791 15.0848 9.11075 16.2297 11.3208 16.8113C13.5309 17.3929 17.8348 18.4398 18.8816 17.3929" stroke="white" stroke-width="1.19121"/>
<path d="M4.93156 17.4863C4.63889 17.8796 8.09442 20.174 9.57546 20.6498C11.0711 21.1467 16.7873 22.7436 18.8581 22.4354" stroke="white" stroke-width="1.19121"/>
<path d="M10.7183 5.88281C10.7183 5.88281 10.2121 6.82435 12.0254 8.59131C13.6189 10.3583 15.1923 9.82945 15.1923 9.82945" stroke="white" stroke-width="1.19121"/>
</svg>
