<?xml version="1.0" encoding="UTF-8"?>
<svg width="24px" height="24px" viewBox="0 0 24 24" version="1.1" xmlns="http://www.w3.org/2000/svg" xmlns:xlink="http://www.w3.org/1999/xlink">
    <!-- Generator: Sketch 51.3 (57544) - http://www.bohemiancoding.com/sketch -->
    <title>icon strain flavor / diesel alt</title>
    <desc>Created with Sketch.</desc>
    <defs></defs>
    <g id="icon-strain-flavor-/-diesel-alt" stroke="none" stroke-width="1" fill="none" fill-rule="evenodd">
        <g id="Group" transform="translate(1.000000, 0.000000)" fill="#FFFFFF" fill-rule="nonzero">
            <path d="M11.4,3.34285714 L4.31428571,3.34285714 C3.5253075,3.34285714 2.88571429,3.98245036 2.88571429,4.77142857 L2.88571429,10.2857143 C2.88571429,10.7591012 3.26947021,11.1428571 3.74285714,11.1428571 L11.9714286,11.1428571 C12.4448155,11.1428571 12.8285714,10.7591012 12.8285714,10.2857143 L12.8285714,4.77142857 C12.8285714,3.98245036 12.1889782,3.34285714 11.4,3.34285714 Z M11.1142857,9.42857143 L4.6,9.42857143 L4.6,5.05714286 L11.1142857,5.05714286 L11.1142857,9.42857143 Z" id="Shape"></path>
            <path d="M17.9571429,0 L16.8142857,1.28857143 L21.1428571,5.06285714 L21.1428571,16.9971429 C21.1128948,17.5867622 20.6260944,18.0494532 20.0357143,18.0494532 C19.4453341,18.0494532 18.9585338,17.5867622 18.9285714,16.9971429 L18.9285714,8.96 C18.9285714,7.53983921 17.7773036,6.38857143 16.3571429,6.38857143 L15.7142857,6.38857143 L15.7142857,4.19714286 C15.7142857,1.98800386 13.9234247,0.197142857 11.7142857,0.197142857 L4,0.197142857 C1.790861,0.197142857 -2.79141789e-14,1.98800386 -2.84217094e-14,4.19714286 L-2.84217094e-14,23.1428571 C-2.892924e-14,23.6162441 0.383755929,24 0.857142857,24 L14.8571429,24 C15.3305298,24 15.7142857,23.6162441 15.7142857,23.1428571 L15.7142857,8.10285714 L16.3571429,8.10285714 C16.8305298,8.10285714 17.2142857,8.48661307 17.2142857,8.96 L17.2142857,16.9971429 C17.2627665,18.5204336 18.5116522,19.7302043 20.0357143,19.7302043 C21.5597764,19.7302043 22.8086621,18.5204336 22.8571429,16.9971429 L22.8571429,4.67428571 C22.8591007,4.42799458 22.7550159,4.19276292 22.5714286,4.02857143 L17.9571429,0 Z M14,22.2857143 L1.71428571,22.2857143 L1.71428571,4.19714286 C1.71428571,2.93477771 2.73763486,1.91142857 4,1.91142857 L11.7142857,1.91142857 C12.9766509,1.91142857 14,2.93477771 14,4.19714286 L14,22.2857143 Z" id="Shape"></path>
        </g>
    </g>
</svg>