<?xml version="1.0" encoding="UTF-8"?>
<svg width="24px" height="24px" viewBox="0 0 24 24" version="1.1" xmlns="http://www.w3.org/2000/svg" xmlns:xlink="http://www.w3.org/1999/xlink">
    <!-- Generator: Sketch 51.3 (57544) - http://www.bohemiancoding.com/sketch -->
    <title>icon strain flavor / diesel alt 2</title>
    <desc>Created with Sketch.</desc>
    <defs></defs>
    <g id="icon-strain-flavor-/-diesel-alt-2" stroke="none" stroke-width="1" fill="none" fill-rule="evenodd">
        <path d="M17.5329663,12.8580418 C17.755574,12.6356955 17.7571083,12.2753999 17.5364023,12.0511658 L14.551133,9.02008381 L16.4409064,7.13031041 C16.6644619,6.9066873 16.6644619,6.54419423 16.4409064,6.32057113 L16.2691088,6.15392748 L17.9870846,4.43595165 L23.4273414,4.43595165 C23.743612,4.43595165 24,4.17956366 24,3.86329304 L24,1.57265861 C24,1.25638799 23.743612,1 23.4273414,1 L16.6069774,1 C16.4551113,1.00003243 16.3094771,1.06038721 16.2021077,1.16778897 L13.7436843,3.62621238 L13.5776133,3.45842341 C13.3539902,3.23486783 12.9914972,3.23486783 12.767874,3.45842341 L10.6433106,5.58126887 L7.44443962,5.58126887 C7.29257353,5.5813013 7.14693931,5.64165608 7.03956999,5.74905784 L5.32159416,7.46703367 C5.09803858,7.69065677 5.09803858,8.05314984 5.32159416,8.27677294 L6.06204174,9.01722052 L0.167666683,14.9115956 C-0.0558888944,15.1352187 -0.0558888944,15.4977118 0.167666683,15.7213349 L6.98574008,22.5892295 C7.09300749,22.6986657 7.23966087,22.7605448 7.39290035,22.7610271 C7.54476644,22.7609947 7.69040066,22.7006399 7.79776999,22.5932382 L14.0970147,16.2939935 L17.5329663,12.8580418 Z M11.3156118,15.1652833 L8.88811198,13.6820975 C8.75599849,13.6015478 8.5969116,13.5778887 8.44707559,13.6165073 C8.29723958,13.655126 8.16940832,13.7527352 8.09268917,13.8871093 L6.19947981,17.1993667 L5.32617543,15.9538342 L9.16012482,12.1198849 L11.7451058,14.7352167 L11.3156118,15.1652833 Z M10.4852568,15.9985016 L7.47307255,19.0106859 L6.92675624,18.2370241 L8.79419596,14.9688614 L10.4852568,15.9985016 Z M13.1767523,4.67303232 L13.3445413,4.84082129 C13.5681644,5.06437687 13.9306574,5.06437687 14.1542805,4.84082129 L16.8417674,2.14531722 L22.8546828,2.14531722 L22.8546828,3.29063443 L17.7522946,3.29063443 C17.6004285,3.29066687 17.4547943,3.35102164 17.3474249,3.45842341 L15.0567905,5.74905784 C14.8332349,5.97268094 14.8332349,6.33517401 15.0567905,6.55879711 L15.2245795,6.72658609 L13.7436843,8.20748125 L11.6878399,6.15392748 L13.1767523,4.67303232 Z M7.27836863,9.42209016 C7.5019242,9.19846706 7.5019242,8.83597399 7.27836863,8.61235088 L6.53391244,7.8719033 L7.67922965,6.72658609 L10.64102,6.72658609 L16.3189301,12.4531722 L13.692145,15.0770939 L9.56900306,10.9069939 C9.46452373,10.7935272 9.3160242,10.7308692 9.16184279,10.7351963 C9.0099767,10.7352288 8.86434248,10.7955836 8.75697315,10.9029853 L4.17570429,15.4842542 L2.86317075,16.7973604 L1.37998496,15.3164652 L7.27836863,9.42209016 Z M7.39290035,21.3763386 L3.67061939,17.6070997 L4.50383767,16.7738814 L6.92446561,20.2241495 C7.02150416,20.3625314 7.17471621,20.4509794 7.34307905,20.4658114 C7.51209844,20.4840753 7.68003552,20.4229496 7.79776999,20.3003131 L12.5468278,15.5535459 L12.8824058,15.8891238 L7.39290035,21.3763386 Z" id="Shape" fill="#FFFFFF" fill-rule="nonzero"></path>
    </g>
</svg>