<?xml version="1.0" encoding="UTF-8"?>
<svg width="24px" height="24px" viewBox="0 0 24 24" version="1.1" xmlns="http://www.w3.org/2000/svg" xmlns:xlink="http://www.w3.org/1999/xlink">
    <!-- Generator: Sketch 51.3 (57544) - http://www.bohemiancoding.com/sketch -->
    <title>icon strain flavor / diesel</title>
    <desc>Created with Sketch.</desc>
    <defs></defs>
    <g id="icon-strain-flavor-/-diesel" stroke="none" stroke-width="1" fill="none" fill-rule="evenodd">
        <g id="Group" transform="translate(4.000000, 0.000000)" fill="#FFFFFF" fill-rule="nonzero">
            <path d="M15.3148191,10.8545 L8.71881912,0.236500036 C8.62762322,0.0894331728 8.46686639,-2.32754708e-05 8.29381912,3.58873783e-08 C8.12114746,-6.525672e-05 7.96066243,0.0889670719 7.86931912,0.235500036 L1.25831912,10.844 C-0.336570262,13.3956659 -0.42109531,16.6118594 1.03756392,19.2437758 C2.49622315,21.8756923 5.26827746,23.5087139 8.27737548,23.5087605 C11.2864735,23.5088071 14.0585784,21.8758713 15.5173191,19.244 C16.9998343,16.6235679 16.9220346,13.4003544 15.3148191,10.8545 Z M6.79381912,14.5 L7.79381912,14.5 L7.79381912,15.518 C7.78392052,16.0678328 7.33191739,16.5064982 6.78203477,16.4999287 C6.23215215,16.4933591 5.7907582,16.0440201 5.7939985,15.4941077 C5.79723879,14.9441954 6.24389727,14.5000891 6.79381912,14.5 Z M5.79381912,12.5 C5.79381912,11.9477153 6.24153437,11.5 6.79381912,11.5 C7.34610387,11.5 7.79381912,11.9477153 7.79381912,12.5 L7.79381912,13.5 L6.79381912,13.5 C6.24153437,13.5 5.79381912,13.0522848 5.79381912,12.5 Z M8.79381912,12.5 C8.79381912,11.9477153 9.24153437,11.5 9.79381912,11.5 C10.3461039,11.5 10.7938191,11.9477153 10.7938191,12.5 C10.7938191,13.0522848 10.3461039,13.5 9.79381912,13.5 L8.79381912,13.5 L8.79381912,12.5 Z M10.7938191,15.5 C10.7938191,16.0522848 10.3461039,16.5 9.79381912,16.5 C9.24153437,16.5 8.79381912,16.0522848 8.79381912,15.5 L8.79381912,14.5 L9.79381912,14.5 C10.3461039,14.5 10.7938191,14.9477153 10.7938191,15.5 Z M14.6438191,18.7595 C13.4605661,20.925686 11.2474604,22.3321033 8.78381912,22.4835 L8.78381912,21.5 L10.2938191,21.5 C11.6738457,21.498347 12.7921661,20.3800266 12.7938191,19 C12.7938191,18.7238577 12.5699615,18.5 12.2938191,18.5 L10.2938191,18.5 C9.74853629,18.5019971 9.21915657,18.6839054 8.78781912,19.0175 L8.78781912,17.22 C9.09204625,17.401694 9.43946866,17.4983921 9.79381912,17.5 C10.6278287,17.5036981 11.3758034,16.9873181 11.6679616,16.2061463 C11.9601199,15.4249746 11.7345702,14.5444964 11.1028191,14 C11.6671749,13.5121061 11.9115226,12.7497143 11.735918,12.024662 C11.5603133,11.2996096 10.9942095,10.7335058 10.2691572,10.5579012 C9.54410482,10.3822965 8.78171303,10.6266443 8.29381912,11.191 C7.80592522,10.6266443 7.04353343,10.3822965 6.31848107,10.5579012 C5.59342872,10.7335058 5.0273249,11.2996096 4.85172026,12.024662 C4.67611561,12.7497143 4.92046334,13.5121061 5.48481912,14 C4.7000053,14.6703321 4.55832753,15.8295973 5.1586063,16.6692063 C5.75888506,17.5088153 6.90164929,17.7497682 7.78981912,17.224 L7.78381912,22.4835 C5.2350238,22.3081523 2.96480326,20.8092155 1.8023525,18.5341743 C0.639901746,16.2591331 0.755459755,13.5411634 2.10681912,11.373 L8.29381912,1.44650004 L14.4653191,11.382 C15.8787673,13.6206847 15.9473459,16.4550777 14.6438191,18.7595 Z M8.87931912,20.5 C9.09199591,19.9011492 9.65832473,19.5007754 10.2938191,19.5 L11.7083191,19.5 C11.4956423,20.0988509 10.9293135,20.4992247 10.2938191,20.5 L8.87931912,20.5 Z" id="Shape"></path>
            <path d="M2.32931912,12.8145 C2.28531912,12.925 1.25881912,15.548 2.34631912,17.7235 L3.24131912,17.2765 C2.35631912,15.507 3.24931912,13.208 3.25831912,13.185 L2.32931912,12.8145 Z" id="Path"></path>
            <path d="M3.49381912,19.35 C3.95234906,19.8408388 4.51328218,20.224752 5.13681912,20.4745 L5.45281912,19.5245 C4.98082742,19.3235409 4.55657733,19.0252027 4.20781912,18.649 L3.49381912,19.35 Z" id="Path"></path>
        </g>
    </g>
</svg>