<?xml version="1.0" encoding="UTF-8"?>
<svg width="24px" height="24px" viewBox="0 0 24 24" version="1.1" xmlns="http://www.w3.org/2000/svg" xmlns:xlink="http://www.w3.org/1999/xlink">
    <!-- Generator: Sketch 51.3 (57544) - http://www.bohemiancoding.com/sketch -->
    <title>icon strain flavor / dirt</title>
    <desc>Created with Sketch.</desc>
    <defs></defs>
    <g id="icon-strain-flavor-/-dirt" stroke="none" stroke-width="1" fill="none" fill-rule="evenodd">
        <g id="Group-2" transform="translate(2.000000, 0.000000)" fill="#FFFFFF" fill-rule="nonzero">
            <path d="M14.2694634,8.95793864 C12.9513659,9.85281669 11.6467317,9.90535328 10.6031707,9.47174352 L10.6031707,23.3705728 L9.6282439,23.3705728 L9.6282439,15.9229143 C8.97995122,16.6503777 7.98204878,17.1491094 6.63409756,17.1558411 C3.8142439,17.1695972 1.76663415,12.9477923 0.82595122,10.7163777 C0.760682927,10.5649143 0.781902439,10.3831582 0.895463415,10.2488167 C1.05556098,10.0597435 1.33843902,10.0361825 1.52765854,10.1961338 C3.0215122,11.4559874 6.13434146,9.81681669 8.09780488,10.3298899 C8.7324878,10.4958411 9.24263415,10.8074021 9.62839024,11.208963 L9.62839024,8.86501181 C8.32156098,7.72867035 7.8624878,5.7033045 9.20136585,4.15749962 C10.53,2.62384108 14.0240488,2.21408498 14.5429756,0.330084984 C14.6083902,0.0912557158 14.8552683,-0.0493784305 15.0940976,0.0160362036 C15.263561,0.0624264475 15.3838537,0.200426448 15.4156098,0.362280106 C15.9024878,2.73432889 16.602439,7.37408498 14.2694634,8.95793864 Z M9.6282439,13.3878411 C9.57336585,12.4096947 8.98156098,11.4886216 7.86907317,11.1978411 C6.3,10.7877923 4.04063415,11.9337923 2.14873171,11.478524 C2.90765854,13.080085 4.62453659,16.2688655 6.63014634,16.2590606 C7.92687805,16.2524752 8.79731707,15.678963 9.25360976,14.9166703 C7.77321951,14.8695484 6.366,14.4548167 5.33136585,13.7684752 C4.02921951,12.9049143 4.11146341,12.7579874 5.58365854,13.2090118 C6.66921951,13.541646 8.04658537,13.8581825 9.6282439,13.6885728 L9.6282439,13.3878411 Z M9.83897561,7.79306059 C11.2390244,7.03808498 12.1959512,5.99774352 12.9029268,5.10945084 C13.8617561,3.90476791 14.0124878,3.97940206 13.4274146,5.42818255 C12.9624878,6.5793045 12.0367317,7.7175484 10.842878,8.59384108 C11.6503902,8.96423133 12.6927805,8.94462157 13.7656098,8.21642645 C15.4248293,7.08988986 15.0367317,3.48901181 14.7561951,1.73920694 C13.4537561,3.18506059 10.9423902,3.51828011 9.88053659,4.74418255 C9.05092683,5.70184108 9.1757561,6.93315815 9.83897561,7.79306059 Z" id="Shape"></path>
        </g>
    </g>
</svg>