<svg width="24" height="24" viewBox="0 0 24 24" fill="none" xmlns="http://www.w3.org/2000/svg">
<path d="M1.00516 22.7336C1.01027 22.8797 1.12869 22.996 1.2745 22.9989C1.29303 22.9992 1.34727 23 1.4324 23C2.34568 23 6.80737 22.9006 8.70375 21.0039C8.79082 20.9168 8.86984 20.8212 8.94939 20.7265C9.15119 20.8512 9.36691 20.9468 9.58696 21.0058C10.3918 21.2219 11.3885 21.0299 12 20.184C12.4608 20.8218 13.1405 21.0874 13.7919 21.0874C14.0049 21.0871 14.2149 21.0589 14.413 21.0058C15.2173 20.7901 15.9853 20.126 16.0919 19.0878C17.0444 19.5145 18.0036 19.1815 18.5922 18.5926C19.1811 18.0039 19.5144 17.0447 19.0874 16.0922C20.1256 15.9855 20.7896 15.2175 21.0053 14.4132C21.2206 13.6089 21.0297 12.6115 20.1836 12C21.0297 11.3885 21.2206 10.3912 21.0053 9.58686C20.9468 9.3689 20.8527 9.15507 20.7298 8.95487C20.8022 8.89841 20.8341 8.86732 20.9304 8.77048L21.0002 8.70039C23.1573 6.54288 23.0026 1.48076 22.9948 1.26646C22.9897 1.12037 22.8713 1.00409 22.7255 1.00113C22.5077 0.997373 17.3693 0.922717 15.2962 2.99617C15.2092 3.08325 15.1302 3.17885 15.0506 3.27353C14.8488 3.14891 14.6331 3.05329 14.413 2.99429C13.6085 2.77838 12.6115 2.97012 12 3.81605C11.3885 2.96985 10.3918 2.77838 9.58696 2.99429C8.7827 3.20994 8.01469 3.87405 7.90809 4.91226C6.95613 4.4858 5.99666 4.8188 5.40777 5.40746C4.81888 5.99611 4.48563 6.95537 4.91259 7.9079C3.87444 8.01452 3.21036 8.78256 2.99473 9.58686C2.77936 10.3912 2.97029 11.3885 3.81644 12C2.97029 12.6115 2.77936 13.6089 2.99473 14.4132C3.05317 14.6312 3.14734 14.845 3.27016 15.0452C3.19784 15.1016 3.16592 15.1327 3.06965 15.2296L2.99983 15.2997C0.8427 17.4572 0.997376 22.5193 1.00516 22.7336ZM8.31491 20.615C6.82418 22.1058 3.40323 22.3871 1.95384 22.4384L5.61506 18.7758C6.20751 19.2449 7.06031 19.4682 7.90809 19.0878C7.96317 19.6242 8.19652 20.0585 8.51848 20.3849C8.45225 20.4632 8.38722 20.5427 8.31491 20.615ZM14.2707 20.4746C13.5682 20.6634 12.6703 20.4418 12.25 19.5231C12.2054 19.4254 12.1077 19.3625 12 19.3625C11.8923 19.3625 11.7946 19.4254 11.75 19.5231C11.33 20.4413 10.4331 20.6628 9.72928 20.4746C9.03932 20.2896 8.38634 19.6686 8.45237 18.6952L10.9086 14.4407C11.1627 14.5548 11.4367 14.6321 11.725 14.6617V16.5919C11.725 16.7439 11.848 16.8669 12 16.8669C12.152 16.8669 12.275 16.7439 12.275 16.5919V14.6617C12.5633 14.6321 12.8373 14.5548 13.0914 14.4407L15.5476 18.6952C15.6137 19.6686 14.9607 20.2896 14.2707 20.4746ZM9.87429 12C9.87429 10.8278 10.8279 9.87421 12 9.87421C13.1721 9.87421 14.1257 10.8278 14.1257 12C14.1257 13.1722 13.1721 14.1259 12 14.1259C10.8279 14.1259 9.87429 13.1722 9.87429 12ZM20.4741 14.2709C20.2859 14.9739 19.6481 15.641 18.64 15.5451C18.5302 15.5325 18.4295 15.5881 18.3758 15.6813C18.3221 15.7745 18.3275 15.8905 18.39 15.9783C18.9754 16.8014 18.7182 17.6892 18.2034 18.2037C17.6987 18.7088 16.8344 18.9642 16.0239 18.4199L13.5669 14.1643C13.7962 13.9978 13.9977 13.7964 14.1642 13.5671L15.839 14.5343C15.8822 14.5593 15.9295 14.5711 15.9762 14.5711C16.0712 14.5711 16.1636 14.522 16.2146 14.4336C16.2906 14.302 16.2455 14.1339 16.1139 14.0579L14.4405 13.0915C14.5546 12.8374 14.632 12.5634 14.6616 12.275H19.5714C20.4477 12.7046 20.6589 13.5808 20.4741 14.2709ZM19.5714 11.725H14.6616C14.632 11.4366 14.5546 11.1627 14.4405 10.9086L16.1139 9.94215C16.2455 9.86615 16.2906 9.69804 16.2146 9.56645C16.1384 9.4346 15.97 9.38975 15.839 9.46575L14.1642 10.433C13.9977 10.2037 13.7962 10.0022 13.5669 9.83574L16.0239 5.58007C16.834 5.0356 17.6984 5.2913 18.2034 5.79632C18.7182 6.31085 18.9754 7.19867 18.39 8.02177C18.3275 8.10958 18.3221 8.2256 18.3758 8.31878C18.4295 8.41197 18.5302 8.46836 18.64 8.45494C19.6478 8.3596 20.2859 9.0264 20.4741 9.72919C20.6589 10.4192 20.4477 11.2954 19.5714 11.725ZM20.6113 8.31153L20.5404 8.3827C20.4656 8.45787 20.4405 8.48229 20.3888 8.5231C20.0619 8.19874 19.6263 7.96324 19.0874 7.9079C19.4679 7.05896 19.2439 6.20541 18.7739 5.61291L22.4441 1.94143C22.4115 3.36927 22.1657 6.75711 20.6113 8.31153ZM15.6851 3.38503C17.1758 1.89422 20.5968 1.613 22.0462 1.56166L18.385 5.22421C17.7927 4.75533 16.9397 4.53258 16.0919 4.91226C16.0368 4.37587 15.8035 3.94158 15.4815 3.61516C15.5477 3.53688 15.6128 3.45733 15.6851 3.38503ZM9.72928 3.52548C10.4326 3.3375 11.3297 3.55851 11.75 4.47694C11.7946 4.57469 11.8923 4.63753 12 4.63753C12.1077 4.63753 12.2054 4.57469 12.25 4.47694C12.67 3.55851 13.5666 3.33696 14.2707 3.52548C14.9607 3.71049 15.6137 4.33149 15.5476 5.30491L13.0914 9.55939C12.8373 9.44529 12.5633 9.36791 12.275 9.33834V7.40814C12.275 7.25614 12.152 7.13314 12 7.13314C11.848 7.13314 11.725 7.25614 11.725 7.40814V9.33834C11.4366 9.36791 11.1627 9.44529 10.9086 9.55939L8.45237 5.30491C8.38634 4.33149 9.03932 3.71049 9.72928 3.52548ZM3.52589 9.72919C3.71413 9.02614 4.35163 8.3588 5.35997 8.45494C5.47034 8.46836 5.5705 8.41197 5.62421 8.31878C5.67792 8.2256 5.67254 8.10958 5.60998 8.02177C5.02457 7.19867 5.28183 6.31085 5.79661 5.79632C6.30162 5.29155 7.16608 5.03639 7.97613 5.58013L10.4331 9.83574C10.2038 10.0022 10.0023 10.2037 9.83584 10.433L8.16104 9.46575C8.02946 9.38975 7.86163 9.4346 7.78537 9.56645C7.70937 9.69804 7.75448 9.86615 7.88607 9.94215L9.5595 10.9086C9.44541 11.1627 9.36802 11.4366 9.33845 11.725H4.42863C3.55227 11.2954 3.34114 10.4192 3.52589 9.72919ZM4.42863 12.275H9.33845C9.36802 12.5634 9.44541 12.8374 9.5595 13.0915L7.88607 14.0579C7.75448 14.1339 7.70937 14.302 7.78537 14.4336C7.83639 14.522 7.92876 14.5711 8.02382 14.5711C8.07055 14.5711 8.11781 14.5593 8.16104 14.5343L9.83584 13.5671C10.0023 13.7964 10.2038 13.9978 10.4331 14.1643L7.97609 18.42C7.16604 18.9645 6.3016 18.7088 5.79661 18.2037C5.28183 17.6892 5.02457 16.8014 5.60998 15.9783C5.67254 15.8905 5.67792 15.7745 5.62421 15.6813C5.5705 15.5881 5.47034 15.5325 5.35997 15.5451C4.35109 15.6415 3.71413 14.9737 3.52589 14.2709C3.34114 13.5808 3.55227 12.7046 4.42863 12.275ZM3.38867 15.6885L3.45956 15.6174C3.53435 15.5422 3.55945 15.5177 3.61121 15.477C3.93812 15.8013 4.3737 16.0368 4.91259 16.0922C4.53207 16.9411 4.75609 17.7946 5.22606 18.3871L1.55591 22.0586C1.58849 20.6308 1.83433 17.2429 3.38867 15.6885Z" fill="white" stroke="white" stroke-width="0.25"/>
</svg>
