<svg width="24" height="24" viewBox="0 0 24 24" fill="none" xmlns="http://www.w3.org/2000/svg">
<mask id="path-1-inside-1" fill="white">
<path fill-rule="evenodd" clip-rule="evenodd" d="M12.2047 3.85278L13.0772 4.43622C13.2762 4.12587 13.4314 3.79182 13.5402 3.44349C13.8645 3.81481 14.0447 4.29229 14.0447 4.78836C14.0447 5.19276 13.9248 5.58807 13.7002 5.92431C13.4755 6.26055 13.1562 6.52262 12.7825 6.67738C12.5783 6.76199 12.3628 6.81244 12.1446 6.8279H12.0002H11.9999H11.8555C11.7704 6.82187 11.6855 6.8105 11.6012 6.79373C11.2046 6.71484 10.8402 6.5201 10.5543 6.23415C10.2683 5.9482 10.0736 5.58388 9.99472 5.18726C9.91583 4.79063 9.95632 4.37952 10.1111 4.00591C10.2658 3.6323 10.5279 3.31296 10.8641 3.08829C11.2004 2.86363 11.5957 2.74371 12.0001 2.74371C12.2095 2.74371 12.4155 2.77582 12.6117 2.83732C12.5379 3.19572 12.4007 3.53982 12.2047 3.85278ZM12.6403 1.75413C12.5774 1.33807 12.4297 0.937596 12.2047 0.57818L13.0772 0C13.5008 0.660745 13.7263 1.42891 13.7271 2.21368C14.0618 2.43866 14.351 2.72801 14.5768 3.06695C14.9163 3.57676 15.097 4.17583 15.096 4.78836C15.0947 5.54147 14.8191 6.26586 14.3246 6.8279H15.8209H15.8212H19.6474H19.6479H21.1772H21.1774C21.9256 6.82929 22.6427 7.12712 23.1718 7.65615C23.7008 8.18518 23.9986 8.90231 24 9.65047V16.1524C23.9986 16.7983 23.741 17.4173 23.2838 17.8735C23.0478 18.109 22.7686 18.2912 22.4649 18.4124V21.8867C22.4635 22.4313 22.2465 22.9533 21.8614 23.3384C21.4763 23.7235 20.9544 23.9405 20.4097 23.9419H3.58993C3.04529 23.9405 2.52336 23.7235 2.13824 23.3384C1.75312 22.9533 1.53615 22.4313 1.53476 21.8867V16.8836C1.23452 16.7621 0.958581 16.5808 0.725108 16.3474C0.267731 15.89 0.0107793 15.2697 0.0107793 14.6228V11.9422H0V9.65047C0.00138935 8.90231 0.299212 8.18518 0.828246 7.65615C1.35728 7.12712 2.0744 6.82929 2.82257 6.8279H2.83335H4.35226H4.3629H8.17876H8.17891H9.67558C9.45189 6.57361 9.27022 6.28296 9.13936 5.96664C8.90519 5.40063 8.84419 4.77788 8.96407 4.17719C9.08396 3.57651 9.37933 3.02488 9.81283 2.59212C10.2463 2.15936 10.7984 1.86492 11.3993 1.74606C11.8112 1.66459 12.2333 1.66812 12.6403 1.75413ZM21.1564 7.87914H19.6479H19.6474H15.8212H15.8209H12.0002H11.9999H8.17891H8.17876H4.3629H4.35226H2.82284C2.35305 7.87914 1.9025 8.06576 1.57032 8.39795C1.23813 8.73014 1.0515 9.18069 1.0515 9.65047V14.6228C1.0515 14.9908 1.1977 15.3438 1.45793 15.604C1.6255 15.7716 1.83152 15.8919 2.05525 15.9563V15.942H2.86947C3.07524 15.8749 3.26443 15.7599 3.42034 15.604C3.68057 15.3438 3.82677 14.9908 3.82677 14.6228V13.0933C3.82677 12.773 3.88985 12.4559 4.01242 12.16C4.13498 11.8641 4.31463 11.5952 4.5411 11.3687C4.76757 11.1423 5.03643 10.9626 5.33232 10.8401C5.62822 10.7175 5.94536 10.6544 6.26564 10.6544C6.58591 10.6544 6.90306 10.7175 7.19895 10.8401C7.49485 10.9626 7.76371 11.1423 7.99018 11.3687C8.21665 11.5952 8.39629 11.8641 8.51886 12.16C8.64142 12.4559 8.70451 12.773 8.70451 13.0933C8.72624 13.4459 8.88162 13.7769 9.13897 14.0188C9.39632 14.2608 9.73626 14.3955 10.0895 14.3955C10.4428 14.3955 10.7827 14.2608 11.0401 14.0188C11.2974 13.7769 11.4528 13.4459 11.4745 13.0933V11.5637C11.4592 11.2343 11.5109 10.9051 11.6264 10.5962C11.7419 10.2873 11.9189 10.005 12.1467 9.76649C12.3744 9.52793 12.6481 9.33804 12.9514 9.2083C13.2546 9.07856 13.5809 9.01167 13.9108 9.01167C14.2406 9.01167 14.5669 9.07856 14.8702 9.2083C15.1734 9.33804 15.4471 9.52793 15.6749 9.76649C15.9026 10.005 16.0796 10.2873 16.1951 10.5962C16.3106 10.9051 16.3623 11.2343 16.347 11.5637V13.0933C16.3416 13.4584 16.4793 13.8112 16.7307 14.0762C16.9941 14.3319 17.3465 14.4751 17.7136 14.4757C18.0807 14.4757 18.4329 14.3302 18.693 14.0711C18.953 13.812 19.0998 13.4604 19.1012 13.0933V12.7096H20.1525V16.1524C20.1525 16.5204 20.2987 16.8733 20.5589 17.1336C20.8191 17.3938 21.1721 17.54 21.5401 17.54C21.9081 17.54 22.2611 17.3938 22.5213 17.1336C22.7815 16.8733 22.9277 16.5204 22.9277 16.1524V9.65047C22.9277 9.18069 22.7411 8.73014 22.4089 8.39795C22.0767 8.06576 21.6262 7.87914 21.1564 7.87914ZM2.586 17.0579C2.73424 17.0496 2.88056 17.0278 3.02328 16.9933H19.2737C19.395 17.321 19.5864 17.622 19.8384 17.8735C20.2607 18.2949 20.8215 18.5457 21.4136 18.5815V19.1532H2.586V17.0579ZM2.586 20.2045V21.8867C2.58738 22.1525 2.6936 22.4071 2.88157 22.595C3.06955 22.783 3.3241 22.8892 3.58993 22.8906H20.4097C20.6756 22.8892 20.9301 22.783 21.1181 22.595C21.3061 22.4071 21.4123 22.1525 21.4136 21.8867V20.2045H2.586ZM19.1223 15.1011V15.942H4.50094C4.75203 15.5516 4.88852 15.0942 4.88852 14.6228V13.0933C4.88927 12.7936 4.98701 12.5023 5.1671 12.2628C5.29352 12.0901 5.45888 11.9497 5.64975 11.8529C5.84062 11.7561 6.05162 11.7056 6.26564 11.7056C6.63323 11.707 6.98538 11.8537 7.24531 12.1136C7.50524 12.3735 7.65189 12.7257 7.65327 13.0933C7.68238 13.7198 7.95177 14.3111 8.40546 14.7442C8.85916 15.1773 9.46228 15.419 10.0895 15.419C10.7167 15.419 11.3199 15.1773 11.7736 14.7442C12.2273 14.3111 12.4966 13.7198 12.5258 13.0933V11.5637C12.5141 11.3747 12.5413 11.1852 12.6056 11.0071C12.6699 10.8289 12.7701 10.6658 12.8998 10.5278C13.0296 10.3898 13.1862 10.2799 13.3601 10.2047C13.5339 10.1295 13.7213 10.0907 13.9108 10.0907C14.1002 10.0907 14.2876 10.1295 14.4614 10.2047C14.6353 10.2799 14.7919 10.3898 14.9217 10.5278C15.0514 10.6658 15.1516 10.8289 15.2159 11.0071C15.2802 11.1852 15.3074 11.3747 15.2958 11.5637V13.0985C15.2963 13.5433 15.4185 13.9794 15.649 14.3597C15.8796 14.7401 16.2097 15.0501 16.6038 15.2563C16.9978 15.4626 17.4407 15.5571 17.8846 15.5298C18.3285 15.5024 18.7565 15.3542 19.1223 15.1011Z"/>
</mask>
<path fill-rule="evenodd" clip-rule="evenodd" d="M12.2047 3.85278L13.0772 4.43622C13.2762 4.12587 13.4314 3.79182 13.5402 3.44349C13.8645 3.81481 14.0447 4.29229 14.0447 4.78836C14.0447 5.19276 13.9248 5.58807 13.7002 5.92431C13.4755 6.26055 13.1562 6.52262 12.7825 6.67738C12.5783 6.76199 12.3628 6.81244 12.1446 6.8279H12.0002H11.9999H11.8555C11.7704 6.82187 11.6855 6.8105 11.6012 6.79373C11.2046 6.71484 10.8402 6.5201 10.5543 6.23415C10.2683 5.9482 10.0736 5.58388 9.99472 5.18726C9.91583 4.79063 9.95632 4.37952 10.1111 4.00591C10.2658 3.6323 10.5279 3.31296 10.8641 3.08829C11.2004 2.86363 11.5957 2.74371 12.0001 2.74371C12.2095 2.74371 12.4155 2.77582 12.6117 2.83732C12.5379 3.19572 12.4007 3.53982 12.2047 3.85278ZM12.6403 1.75413C12.5774 1.33807 12.4297 0.937596 12.2047 0.57818L13.0772 0C13.5008 0.660745 13.7263 1.42891 13.7271 2.21368C14.0618 2.43866 14.351 2.72801 14.5768 3.06695C14.9163 3.57676 15.097 4.17583 15.096 4.78836C15.0947 5.54147 14.8191 6.26586 14.3246 6.8279H15.8209H15.8212H19.6474H19.6479H21.1772H21.1774C21.9256 6.82929 22.6427 7.12712 23.1718 7.65615C23.7008 8.18518 23.9986 8.90231 24 9.65047V16.1524C23.9986 16.7983 23.741 17.4173 23.2838 17.8735C23.0478 18.109 22.7686 18.2912 22.4649 18.4124V21.8867C22.4635 22.4313 22.2465 22.9533 21.8614 23.3384C21.4763 23.7235 20.9544 23.9405 20.4097 23.9419H3.58993C3.04529 23.9405 2.52336 23.7235 2.13824 23.3384C1.75312 22.9533 1.53615 22.4313 1.53476 21.8867V16.8836C1.23452 16.7621 0.958581 16.5808 0.725108 16.3474C0.267731 15.89 0.0107793 15.2697 0.0107793 14.6228V11.9422H0V9.65047C0.00138935 8.90231 0.299212 8.18518 0.828246 7.65615C1.35728 7.12712 2.0744 6.82929 2.82257 6.8279H2.83335H4.35226H4.3629H8.17876H8.17891H9.67558C9.45189 6.57361 9.27022 6.28296 9.13936 5.96664C8.90519 5.40063 8.84419 4.77788 8.96407 4.17719C9.08396 3.57651 9.37933 3.02488 9.81283 2.59212C10.2463 2.15936 10.7984 1.86492 11.3993 1.74606C11.8112 1.66459 12.2333 1.66812 12.6403 1.75413ZM21.1564 7.87914H19.6479H19.6474H15.8212H15.8209H12.0002H11.9999H8.17891H8.17876H4.3629H4.35226H2.82284C2.35305 7.87914 1.9025 8.06576 1.57032 8.39795C1.23813 8.73014 1.0515 9.18069 1.0515 9.65047V14.6228C1.0515 14.9908 1.1977 15.3438 1.45793 15.604C1.6255 15.7716 1.83152 15.8919 2.05525 15.9563V15.942H2.86947C3.07524 15.8749 3.26443 15.7599 3.42034 15.604C3.68057 15.3438 3.82677 14.9908 3.82677 14.6228V13.0933C3.82677 12.773 3.88985 12.4559 4.01242 12.16C4.13498 11.8641 4.31463 11.5952 4.5411 11.3687C4.76757 11.1423 5.03643 10.9626 5.33232 10.8401C5.62822 10.7175 5.94536 10.6544 6.26564 10.6544C6.58591 10.6544 6.90306 10.7175 7.19895 10.8401C7.49485 10.9626 7.76371 11.1423 7.99018 11.3687C8.21665 11.5952 8.39629 11.8641 8.51886 12.16C8.64142 12.4559 8.70451 12.773 8.70451 13.0933C8.72624 13.4459 8.88162 13.7769 9.13897 14.0188C9.39632 14.2608 9.73626 14.3955 10.0895 14.3955C10.4428 14.3955 10.7827 14.2608 11.0401 14.0188C11.2974 13.7769 11.4528 13.4459 11.4745 13.0933V11.5637C11.4592 11.2343 11.5109 10.9051 11.6264 10.5962C11.7419 10.2873 11.9189 10.005 12.1467 9.76649C12.3744 9.52793 12.6481 9.33804 12.9514 9.2083C13.2546 9.07856 13.5809 9.01167 13.9108 9.01167C14.2406 9.01167 14.5669 9.07856 14.8702 9.2083C15.1734 9.33804 15.4471 9.52793 15.6749 9.76649C15.9026 10.005 16.0796 10.2873 16.1951 10.5962C16.3106 10.9051 16.3623 11.2343 16.347 11.5637V13.0933C16.3416 13.4584 16.4793 13.8112 16.7307 14.0762C16.9941 14.3319 17.3465 14.4751 17.7136 14.4757C18.0807 14.4757 18.4329 14.3302 18.693 14.0711C18.953 13.812 19.0998 13.4604 19.1012 13.0933V12.7096H20.1525V16.1524C20.1525 16.5204 20.2987 16.8733 20.5589 17.1336C20.8191 17.3938 21.1721 17.54 21.5401 17.54C21.9081 17.54 22.2611 17.3938 22.5213 17.1336C22.7815 16.8733 22.9277 16.5204 22.9277 16.1524V9.65047C22.9277 9.18069 22.7411 8.73014 22.4089 8.39795C22.0767 8.06576 21.6262 7.87914 21.1564 7.87914ZM2.586 17.0579C2.73424 17.0496 2.88056 17.0278 3.02328 16.9933H19.2737C19.395 17.321 19.5864 17.622 19.8384 17.8735C20.2607 18.2949 20.8215 18.5457 21.4136 18.5815V19.1532H2.586V17.0579ZM2.586 20.2045V21.8867C2.58738 22.1525 2.6936 22.4071 2.88157 22.595C3.06955 22.783 3.3241 22.8892 3.58993 22.8906H20.4097C20.6756 22.8892 20.9301 22.783 21.1181 22.595C21.3061 22.4071 21.4123 22.1525 21.4136 21.8867V20.2045H2.586ZM19.1223 15.1011V15.942H4.50094C4.75203 15.5516 4.88852 15.0942 4.88852 14.6228V13.0933C4.88927 12.7936 4.98701 12.5023 5.1671 12.2628C5.29352 12.0901 5.45888 11.9497 5.64975 11.8529C5.84062 11.7561 6.05162 11.7056 6.26564 11.7056C6.63323 11.707 6.98538 11.8537 7.24531 12.1136C7.50524 12.3735 7.65189 12.7257 7.65327 13.0933C7.68238 13.7198 7.95177 14.3111 8.40546 14.7442C8.85916 15.1773 9.46228 15.419 10.0895 15.419C10.7167 15.419 11.3199 15.1773 11.7736 14.7442C12.2273 14.3111 12.4966 13.7198 12.5258 13.0933V11.5637C12.5141 11.3747 12.5413 11.1852 12.6056 11.0071C12.6699 10.8289 12.7701 10.6658 12.8998 10.5278C13.0296 10.3898 13.1862 10.2799 13.3601 10.2047C13.5339 10.1295 13.7213 10.0907 13.9108 10.0907C14.1002 10.0907 14.2876 10.1295 14.4614 10.2047C14.6353 10.2799 14.7919 10.3898 14.9217 10.5278C15.0514 10.6658 15.1516 10.8289 15.2159 11.0071C15.2802 11.1852 15.3074 11.3747 15.2958 11.5637V13.0985C15.2963 13.5433 15.4185 13.9794 15.649 14.3597C15.8796 14.7401 16.2097 15.0501 16.6038 15.2563C16.9978 15.4626 17.4407 15.5571 17.8846 15.5298C18.3285 15.5024 18.7565 15.3542 19.1223 15.1011Z" fill="white"/>
<path d="M13.0772 4.43622L11.9655 6.09878L13.6606 7.23224L14.761 5.5155L13.0772 4.43622ZM12.2047 3.85278L10.5095 2.79145L9.4796 4.4365L11.093 5.51534L12.2047 3.85278ZM13.5402 3.44349L15.0466 2.12793L12.6963 -0.563321L11.6311 2.84725L13.5402 3.44349ZM12.7825 6.67738L13.5479 8.52514L13.5479 8.52514L12.7825 6.67738ZM12.1446 6.8279V8.8279H12.2154L12.286 8.8229L12.1446 6.8279ZM11.8555 6.8279L11.7141 8.8229L11.7848 8.8279H11.8555V6.8279ZM11.6012 6.79373L11.9914 4.83216L11.9914 4.83216L11.6012 6.79373ZM10.5543 6.23415L11.9685 4.81994L11.9685 4.81994L10.5543 6.23415ZM9.99472 5.18726L8.03315 5.57743L8.03315 5.57744L9.99472 5.18726ZM10.1111 4.00591L11.9588 4.77128L11.9588 4.77127L10.1111 4.00591ZM12.6117 2.83732L14.5706 3.24041L14.935 1.46968L13.2099 0.928895L12.6117 2.83732ZM12.6403 1.75413L12.2267 3.71091L15.0492 4.30744L14.6178 1.45507L12.6403 1.75413ZM12.2047 0.57818L11.1 -1.089L9.47529 -0.0124183L10.5095 1.63951L12.2047 0.57818ZM13.0772 0L14.761 -1.07929L13.6652 -2.78887L11.9725 -1.66718L13.0772 0ZM13.7271 2.21368L11.7271 2.21583L11.7283 3.27995L12.6114 3.87357L13.7271 2.21368ZM14.5768 3.06695L12.9122 4.17562L12.9122 4.17562L14.5768 3.06695ZM15.096 4.78836L17.096 4.79176L17.096 4.79176L15.096 4.78836ZM14.3246 6.8279L12.823 5.50687L9.90135 8.8279H14.3246V6.8279ZM21.1774 6.8279L21.1811 4.8279H21.1774V6.8279ZM24 9.65047L26 9.65047L26 9.64676L24 9.65047ZM24 16.1524L26 16.1567V16.1524H24ZM23.2838 17.8735L21.8711 16.4578L21.8711 16.4578L23.2838 17.8735ZM22.4649 18.4124L21.7238 16.5547L20.4649 17.057V18.4124H22.4649ZM22.4649 21.8867L24.4649 21.8918V21.8867H22.4649ZM20.4097 23.9419L20.4097 25.9419L20.4148 25.9418L20.4097 23.9419ZM3.58993 23.9419L3.58483 25.9419H3.58993V23.9419ZM1.53476 21.8867L-0.465242 21.8867L-0.465229 21.8918L1.53476 21.8867ZM1.53476 16.8836H3.53476V15.5354L2.28502 15.0296L1.53476 16.8836ZM0.725108 16.3474L-0.689107 17.7616L-0.689103 17.7616L0.725108 16.3474ZM0.0107793 11.9422H2.01078V9.94217H0.0107793V11.9422ZM0 11.9422H-2V13.9422H0V11.9422ZM0 9.65047L-2 9.64676V9.65047H0ZM0.828246 7.65615L-0.585967 6.24194L-0.585967 6.24194L0.828246 7.65615ZM2.82257 6.8279L2.82257 4.8279L2.81886 4.82791L2.82257 6.8279ZM9.67558 6.8279V8.8279H14.0986L11.1773 5.50694L9.67558 6.8279ZM9.13936 5.96664L7.29127 6.73122L7.29127 6.73122L9.13936 5.96664ZM8.96407 4.17719L10.9254 4.56863L10.9254 4.56863L8.96407 4.17719ZM9.81283 2.59212L8.39982 1.17671L8.39981 1.17671L9.81283 2.59212ZM11.3993 1.74606L11.0112 -0.215921L11.0112 -0.215921L11.3993 1.74606ZM1.57032 8.39795L0.156102 6.98374L0.156102 6.98374L1.57032 8.39795ZM1.45793 15.604L0.0437175 17.0182L0.0437184 17.0182L1.45793 15.604ZM2.05525 15.9563L1.50189 17.8782L4.05525 18.6134V15.9563H2.05525ZM2.05525 15.942V13.942H0.0552497V15.942H2.05525ZM2.86947 15.942V17.942H3.18745L3.48975 17.8434L2.86947 15.942ZM3.42034 15.604L4.83455 17.0182L4.83456 17.0182L3.42034 15.604ZM4.01242 12.16L5.86017 12.9253L5.86018 12.9253L4.01242 12.16ZM4.5411 11.3687L3.12689 9.95452L3.12688 9.95452L4.5411 11.3687ZM5.33232 10.8401L4.56696 8.99229L4.56695 8.9923L5.33232 10.8401ZM7.19895 10.8401L7.96432 8.9923L7.96432 8.99229L7.19895 10.8401ZM7.99018 11.3687L9.40439 9.95452L9.40439 9.95452L7.99018 11.3687ZM8.51886 12.16L6.6711 12.9253L6.6711 12.9253L8.51886 12.16ZM8.70451 13.0933H6.70451V13.1548L6.70829 13.2163L8.70451 13.0933ZM11.4745 13.0933L13.4707 13.2163L13.4745 13.1549V13.0933H11.4745ZM11.4745 11.5637H13.4745V11.5173L13.4724 11.4709L11.4745 11.5637ZM12.1467 9.76649L13.5933 11.1475L13.5933 11.1475L12.1467 9.76649ZM14.8702 9.2083L15.6569 7.36955L15.6569 7.36955L14.8702 9.2083ZM15.6749 9.76649L14.2282 11.1475L14.2282 11.1475L15.6749 9.76649ZM16.1951 10.5962L14.3218 11.2968L14.3218 11.2968L16.1951 10.5962ZM16.347 11.5637L14.3492 11.4709L14.347 11.5173V11.5637H16.347ZM16.347 13.0933L18.3468 13.1228L18.347 13.108V13.0933H16.347ZM16.7307 14.0762L15.2798 15.4527L15.3081 15.4825L15.3375 15.5111L16.7307 14.0762ZM17.7136 14.4757L17.7108 16.4757L17.7136 16.4757L17.7136 14.4757ZM19.1012 13.0933L21.1012 13.1008V13.0933H19.1012ZM19.1012 12.7096V10.7096H17.1012V12.7096H19.1012ZM20.1525 12.7096H22.1525V10.7096H20.1525V12.7096ZM20.5589 17.1336L19.1447 18.5478L19.1447 18.5478L20.5589 17.1336ZM22.5213 17.1336L23.9355 18.5478L23.9355 18.5478L22.5213 17.1336ZM3.02328 16.9933V14.9933H2.7847L2.55282 15.0494L3.02328 16.9933ZM2.586 17.0579L2.47426 15.061L0.586001 15.1667V17.0579H2.586ZM19.2737 16.9933L21.1495 16.2994L20.6663 14.9933H19.2737V16.9933ZM19.8384 17.8735L21.2511 16.4578L21.2511 16.4578L19.8384 17.8735ZM21.4136 18.5815H23.4136V16.6989L21.5345 16.5852L21.4136 18.5815ZM21.4136 19.1532V21.1532H23.4136V19.1532H21.4136ZM2.586 19.1532H0.586001V21.1532H2.586V19.1532ZM2.586 21.8867L0.585974 21.8867L0.586028 21.8971L2.586 21.8867ZM2.586 20.2045V18.2045H0.586001V20.2045H2.586ZM2.88157 22.595L1.46736 24.0093L1.46736 24.0093L2.88157 22.595ZM3.58993 22.8906L3.57954 24.8906H3.58993V22.8906ZM20.4097 22.8906L20.4097 24.8906L20.4201 24.8906L20.4097 22.8906ZM21.4136 21.8867L23.4136 21.8971V21.8867H21.4136ZM21.4136 20.2045H23.4136V18.2045H21.4136V20.2045ZM19.1223 15.942V17.942H21.1223V15.942H19.1223ZM19.1223 15.1011H21.1223V11.2854L17.9843 13.4564L19.1223 15.1011ZM4.50094 15.942L2.81876 14.8603L0.836888 17.942H4.50094V15.942ZM4.88852 13.0933L2.88852 13.0882V13.0933H4.88852ZM5.1671 12.2628L6.76557 13.4648L6.77327 13.4546L6.78083 13.4443L5.1671 12.2628ZM6.26564 11.7056L6.27317 9.70564L6.26581 9.70564L6.26564 11.7056ZM7.24531 12.1136L8.65953 10.6994L8.65952 10.6994L7.24531 12.1136ZM7.65327 13.0933L5.65328 13.1008L5.65344 13.1435L5.65542 13.1861L7.65327 13.0933ZM11.7736 14.7442L13.1546 16.1908L13.1546 16.1908L11.7736 14.7442ZM12.5258 13.0933L14.5236 13.1861L14.5258 13.1397V13.0933H12.5258ZM12.5258 11.5637H14.5258V11.5022L14.522 11.4407L12.5258 11.5637ZM12.8998 10.5278L14.3569 11.8978L14.3569 11.8978L12.8998 10.5278ZM13.3601 10.2047L12.5664 8.36892L12.5664 8.36892L13.3601 10.2047ZM14.4614 10.2047L15.2552 8.36892L15.2552 8.36892L14.4614 10.2047ZM15.2159 11.0071L13.3348 11.6863L13.3348 11.6864L15.2159 11.0071ZM15.2958 11.5637L13.2995 11.4407L13.2958 11.5022V11.5637H15.2958ZM15.2958 13.0985L13.2958 13.0985L13.2958 13.101L15.2958 13.0985ZM16.6038 15.2563L17.5311 13.4843L17.5311 13.4843L16.6038 15.2563ZM17.8846 15.5298L17.7616 13.5335L17.7616 13.5335L17.8846 15.5298ZM14.1889 2.77366L13.3164 2.19022L11.093 5.51534L11.9655 6.09878L14.1889 2.77366ZM11.6311 2.84725C11.5753 3.0261 11.4956 3.19759 11.3935 3.35693L14.761 5.5155C15.0567 5.05415 15.2875 4.55755 15.4493 4.03973L11.6311 2.84725ZM16.0447 4.78836C16.0447 3.80701 15.6881 2.8625 15.0466 2.12793L12.0338 4.75905C12.0408 4.76711 12.0447 4.77757 12.0447 4.78836H16.0447ZM15.3631 7.03545C15.8075 6.37031 16.0447 5.58832 16.0447 4.78836H12.0447C12.0447 4.7972 12.0421 4.80583 12.0372 4.81317L15.3631 7.03545ZM13.5479 8.52514C14.287 8.21901 14.9187 7.70059 15.3631 7.03545L12.0372 4.81317C12.0323 4.82052 12.0253 4.82624 12.0172 4.82962L13.5479 8.52514ZM12.286 8.8229C12.7176 8.79232 13.1438 8.69251 13.5479 8.52514L12.0172 4.82962C12.0127 4.83147 12.008 4.83257 12.0032 4.83291L12.286 8.8229ZM12.0002 8.8279H12.1446V4.8279H12.0002V8.8279ZM11.9999 8.8279H12.0002V4.8279H11.9999V8.8279ZM11.8555 8.8279H11.9999V4.8279H11.8555V8.8279ZM11.211 8.7553C11.3777 8.78847 11.5458 8.81097 11.7141 8.8229L11.9969 4.83291C11.9951 4.83278 11.9932 4.83253 11.9914 4.83216L11.211 8.7553ZM9.14008 7.64837C9.70574 8.21402 10.4264 8.59924 11.211 8.7553L11.9914 4.83216C11.9827 4.83044 11.9748 4.82618 11.9685 4.81994L9.14008 7.64837ZM8.03315 5.57744C8.18921 6.36202 8.57443 7.08271 9.14009 7.64837L11.9685 4.81994C11.9623 4.81369 11.958 4.80574 11.9563 4.79707L8.03315 5.57744ZM8.26332 3.24054C7.95718 3.97961 7.87709 4.79285 8.03315 5.57743L11.9563 4.79708C11.9546 4.78841 11.9555 4.77943 11.9588 4.77128L8.26332 3.24054ZM9.753 1.42536C9.08786 1.86979 8.56944 2.50148 8.26331 3.24054L11.9588 4.77127C11.9622 4.76312 11.9679 4.75614 11.9753 4.75123L9.753 1.42536ZM12.0001 0.743708C11.2001 0.743708 10.4181 0.980923 9.753 1.42536L11.9753 4.75123C11.9826 4.74633 11.9913 4.74371 12.0001 4.74371V0.743708ZM13.2099 0.928895C12.8219 0.807243 12.4142 0.743708 12.0001 0.743708V4.74371C12.0047 4.74371 12.0091 4.7444 12.0134 4.74574L13.2099 0.928895ZM13.8999 4.91411C14.2228 4.39827 14.4491 3.83112 14.5706 3.24041L10.6527 2.43422C10.6268 2.56033 10.5785 2.68137 10.5095 2.79145L13.8999 4.91411ZM14.6178 1.45507C14.5141 0.769336 14.2708 0.109258 13.8999 -0.48315L10.5095 1.63951C10.5887 1.76593 10.6406 1.90681 10.6628 2.0532L14.6178 1.45507ZM13.3095 2.24536L14.182 1.66718L11.9725 -1.66718L11.1 -1.089L13.3095 2.24536ZM11.3935 1.07929C11.6109 1.41853 11.7267 1.81292 11.7271 2.21583L15.7271 2.21152C15.7258 1.0449 15.3906 -0.0970348 14.761 -1.07929L11.3935 1.07929ZM16.2414 1.95828C15.8698 1.40036 15.3937 0.924083 14.8428 0.553784L12.6114 3.87357C12.7299 3.95323 12.8323 4.05565 12.9122 4.17562L16.2414 1.95828ZM17.096 4.79176C17.0977 3.78352 16.8003 2.79744 16.2414 1.95828L12.9122 4.17562C13.0324 4.35608 13.0964 4.56814 13.096 4.78497L17.096 4.79176ZM15.8262 8.14894C16.6402 7.22374 17.0939 6.03143 17.096 4.79176L13.096 4.78497C13.0955 5.05152 12.998 5.30798 12.823 5.50687L15.8262 8.14894ZM15.8209 4.8279H14.3246V8.8279H15.8209V4.8279ZM15.8212 4.8279H15.8209V8.8279H15.8212V4.8279ZM19.6474 4.8279H15.8212V8.8279H19.6474V4.8279ZM19.6479 4.8279H19.6474V8.8279H19.6479V4.8279ZM21.1772 4.8279H19.6479V8.8279H21.1772V4.8279ZM21.1774 4.8279H21.1772V8.8279H21.1774V4.8279ZM24.586 6.24194C23.6828 5.33874 22.4585 4.83028 21.1811 4.82791L21.1737 8.8279C21.3927 8.82831 21.6027 8.91549 21.7575 9.07036L24.586 6.24194ZM26 9.64676C25.9976 8.36945 25.4892 7.14513 24.586 6.24194L21.7575 9.07036C21.9124 9.22524 21.9996 9.43517 22 9.65419L26 9.64676ZM26 16.1524V9.65047H22V16.1524H26ZM24.6965 19.2893C25.5287 18.4589 25.9975 17.3323 26 16.1567L22 16.1481C21.9998 16.2643 21.9534 16.3757 21.8711 16.4578L24.6965 19.2893ZM23.206 20.27C23.7588 20.0494 24.267 19.7178 24.6965 19.2893L21.8711 16.4578C21.8287 16.5002 21.7785 16.5329 21.7238 16.5547L23.206 20.27ZM24.4649 21.8867V18.4124H20.4649V21.8867H24.4649ZM23.2756 24.7526C24.0346 23.9936 24.4621 22.9651 24.4649 21.8918L20.4649 21.8816C20.4649 21.8976 20.4585 21.9129 20.4472 21.9242L23.2756 24.7526ZM20.4148 25.9418C21.4881 25.9391 22.5167 25.5115 23.2756 24.7526L20.4472 21.9242C20.4359 21.9355 20.4206 21.9418 20.4046 21.9419L20.4148 25.9418ZM3.58993 25.9419H20.4097V21.9419H3.58993V25.9419ZM0.724028 24.7526C1.48297 25.5115 2.51153 25.9391 3.58483 25.9418L3.59503 21.9419C3.57905 21.9418 3.56375 21.9355 3.55246 21.9242L0.724028 24.7526ZM-0.465229 21.8918C-0.462495 22.9651 -0.0349147 23.9936 0.724028 24.7526L3.55246 21.9242C3.54116 21.9129 3.5348 21.8976 3.53476 21.8816L-0.465229 21.8918ZM-0.465236 16.8836V21.8867H3.53476V16.8836H-0.465236ZM-0.689103 17.7616C-0.264182 18.1865 0.238134 18.5164 0.78451 18.7375L2.28502 15.0296C2.2309 15.0077 2.18134 14.9752 2.13932 14.9331L-0.689103 17.7616ZM-1.98922 14.6228C-1.98922 15.8001 -1.52155 16.9291 -0.689107 17.7616L2.13932 14.9332C2.05702 14.8508 2.01078 14.7392 2.01078 14.6228H-1.98922ZM-1.98922 11.9422V14.6228H2.01078V11.9422H-1.98922ZM0 13.9422H0.0107793V9.94217H0V13.9422ZM-2 9.65047V11.9422H2V9.65047H-2ZM-0.585967 6.24194C-1.48916 7.14513 -1.99762 8.36945 -2 9.64676L2 9.65419C2.0004 9.43517 2.08759 9.22524 2.24246 9.07036L-0.585967 6.24194ZM2.81886 4.82791C1.54155 4.83028 0.31723 5.33874 -0.585967 6.24194L2.24246 9.07036C2.39733 8.91549 2.60726 8.82831 2.82628 8.8279L2.81886 4.82791ZM2.83335 4.8279H2.82257V8.8279H2.83335V4.8279ZM4.35226 4.8279H2.83335V8.8279H4.35226V4.8279ZM4.3629 4.8279H4.35226V8.8279H4.3629V4.8279ZM8.17876 4.8279H4.3629V8.8279H8.17876V4.8279ZM8.17891 4.8279H8.17876V8.8279H8.17891V4.8279ZM9.67558 4.8279H8.17891V8.8279H9.67558V4.8279ZM7.29127 6.73122C7.50668 7.25189 7.80572 7.73032 8.1739 8.14887L11.1773 5.50694C11.0981 5.41689 11.0338 5.31402 10.9874 5.20205L7.29127 6.73122ZM7.00275 3.78576C6.80542 4.7745 6.90583 5.79956 7.29127 6.73122L10.9874 5.20206C10.9046 5.0017 10.883 4.78126 10.9254 4.56863L7.00275 3.78576ZM8.39981 1.17671C7.68628 1.88904 7.20008 2.79702 7.00275 3.78576L10.9254 4.56863C10.9678 4.35599 11.0724 4.16073 11.2258 4.00754L8.39981 1.17671ZM11.0112 -0.215921C10.0222 -0.0202727 9.11335 0.46438 8.39982 1.17671L11.2258 4.00754C11.3793 3.85435 11.5747 3.75012 11.7874 3.70805L11.0112 -0.215921ZM13.0539 -0.20264C12.3841 -0.344206 11.6892 -0.350035 11.0112 -0.215921L11.7874 3.70805C11.9332 3.67921 12.0826 3.68045 12.2267 3.71091L13.0539 -0.20264ZM19.6479 9.87914H21.1564V5.87914H19.6479V9.87914ZM19.6474 9.87914H19.6479V5.87914H19.6474V9.87914ZM15.8212 9.87914H19.6474V5.87914H15.8212V9.87914ZM15.8209 9.87914H15.8212V5.87914H15.8209V9.87914ZM12.0002 9.87914H15.8209V5.87914H12.0002V9.87914ZM11.9999 9.87914H12.0002V5.87914H11.9999V9.87914ZM8.17891 9.87914H11.9999V5.87914H8.17891V9.87914ZM8.17876 9.87914H8.17891V5.87914H8.17876V9.87914ZM4.3629 9.87914H8.17876V5.87914H4.3629V9.87914ZM4.35226 9.87914H4.3629V5.87914H4.35226V9.87914ZM2.82284 9.87914H4.35226V5.87914H2.82284V9.87914ZM2.98453 9.81217C2.94164 9.85505 2.88348 9.87914 2.82284 9.87914V5.87914C1.82262 5.87914 0.863366 6.27647 0.156102 6.98374L2.98453 9.81217ZM3.0515 9.65047C3.0515 9.71112 3.02741 9.76928 2.98453 9.81217L0.156102 6.98374C-0.55116 7.691 -0.948496 8.65025 -0.948496 9.65047H3.0515ZM3.0515 14.6228V9.65047H-0.948496V14.6228H3.0515ZM2.87215 14.1898C2.98698 14.3047 3.0515 14.4604 3.0515 14.6228H-0.948496C-0.948496 15.5213 -0.591584 16.3829 0.0437175 17.0182L2.87215 14.1898ZM2.60861 14.0344C2.70717 14.0628 2.79815 14.1158 2.87215 14.1898L0.0437184 17.0182C0.452852 17.4274 0.955872 17.721 1.50189 17.8782L2.60861 14.0344ZM0.0552497 15.942V15.9563H4.05525V15.942H0.0552497ZM2.86947 13.942H2.05525V17.942H2.86947V13.942ZM2.00613 14.1898C2.07496 14.121 2.15853 14.0702 2.24918 14.0407L3.48975 17.8434C3.99195 17.6796 4.4539 17.3989 4.83455 17.0182L2.00613 14.1898ZM1.82677 14.6228C1.82677 14.4604 1.89129 14.3047 2.00613 14.1898L4.83456 17.0182C5.46985 16.3829 5.82677 15.5213 5.82677 14.6228H1.82677ZM1.82677 13.0933V14.6228H5.82677V13.0933H1.82677ZM2.16466 11.3946C1.94158 11.9331 1.82677 12.5104 1.82677 13.0933H5.82677C5.82677 13.0356 5.83812 12.9786 5.86017 12.9253L2.16466 11.3946ZM3.12688 9.95452C2.71469 10.3667 2.38773 10.856 2.16466 11.3946L5.86018 12.9253C5.88223 12.8721 5.91456 12.8237 5.95531 12.7829L3.12688 9.95452ZM4.56695 8.9923C4.0284 9.21537 3.53907 9.54234 3.12689 9.95452L5.95531 12.7829C5.99606 12.7422 6.04445 12.7099 6.09769 12.6878L4.56695 8.9923ZM6.26564 8.6544C5.68272 8.6544 5.1055 8.76922 4.56696 8.99229L6.09769 12.6878C6.15094 12.6658 6.20801 12.6544 6.26564 12.6544V8.6544ZM7.96432 8.99229C7.42577 8.76922 6.84856 8.6544 6.26564 8.6544V12.6544C6.32327 12.6544 6.38034 12.6658 6.43359 12.6878L7.96432 8.99229ZM9.40439 9.95452C8.99221 9.54234 8.50287 9.21537 7.96432 8.9923L6.43358 12.6878C6.48683 12.7099 6.53521 12.7422 6.57597 12.7829L9.40439 9.95452ZM10.3666 11.3946C10.1435 10.856 9.81658 10.3667 9.40439 9.95452L6.57596 12.7829C6.61672 12.8237 6.64904 12.8721 6.6711 12.9253L10.3666 11.3946ZM10.7045 13.0933C10.7045 12.5104 10.5897 11.9331 10.3666 11.3946L6.6711 12.9253C6.69316 12.9786 6.70451 13.0356 6.70451 13.0933H10.7045ZM10.509 12.5618C10.6226 12.6686 10.6911 12.8146 10.7007 12.9702L6.70829 13.2163C6.76135 14.0771 7.14067 14.8852 7.76894 15.4759L10.509 12.5618ZM10.0895 12.3955C10.2454 12.3955 10.3954 12.455 10.509 12.5618L7.76894 15.4759C8.39721 16.0666 9.22712 16.3955 10.0895 16.3955V12.3955ZM9.67003 12.5618C9.7836 12.455 9.93362 12.3955 10.0895 12.3955V16.3955C10.9519 16.3955 11.7818 16.0666 12.4101 15.4759L9.67003 12.5618ZM9.4783 12.9702C9.48789 12.8146 9.55646 12.6686 9.67003 12.5618L12.4101 15.4759C13.0384 14.8852 13.4177 14.0771 13.4707 13.2163L9.4783 12.9702ZM9.47452 11.5637V13.0933H13.4745V11.5637H9.47452ZM9.75312 9.89565C9.54286 10.4579 9.44881 11.0569 9.47667 11.6566L13.4724 11.4709C13.4696 11.4116 13.4789 11.3524 13.4997 11.2968L9.75312 9.89565ZM10.7 8.38548C10.2855 8.81967 9.96339 9.33341 9.75312 9.89565L13.4997 11.2968C13.5205 11.2412 13.5523 11.1904 13.5933 11.1475L10.7 8.38548ZM12.1646 7.36955C11.6127 7.60568 11.1145 7.95129 10.7 8.38548L13.5933 11.1475C13.6343 11.1046 13.6836 11.0704 13.7381 11.047L12.1646 7.36955ZM13.9108 7.01167C13.3105 7.01167 12.7165 7.13341 12.1646 7.36955L13.7381 11.047C13.7927 11.0237 13.8514 11.0117 13.9108 11.0117V7.01167ZM15.6569 7.36955C15.105 7.13341 14.511 7.01167 13.9108 7.01167V11.0117C13.9701 11.0117 14.0288 11.0237 14.0834 11.047L15.6569 7.36955ZM17.1215 8.38548C16.707 7.95129 16.2088 7.60568 15.6569 7.36955L14.0834 11.047C14.138 11.0704 14.1872 11.1046 14.2282 11.1475L17.1215 8.38548ZM18.0684 9.89566C17.8581 9.33342 17.536 8.81967 17.1215 8.38548L14.2282 11.1475C14.2692 11.1904 14.301 11.2412 14.3218 11.2968L18.0684 9.89566ZM18.3448 11.6565C18.3727 11.0569 18.2787 10.4579 18.0684 9.89565L14.3218 11.2968C14.3426 11.3524 14.3519 11.4116 14.3492 11.4709L18.3448 11.6565ZM18.347 13.0933V11.5637H14.347V13.0933H18.347ZM18.1816 12.6996C18.2898 12.8137 18.3491 12.9656 18.3468 13.1228L14.3472 13.0638C14.3341 13.9513 14.6688 14.8088 15.2798 15.4527L18.1816 12.6996ZM17.7164 12.4757C17.8686 12.4759 18.0147 12.5353 18.1239 12.6412L15.3375 15.5111C15.9734 16.1285 16.8245 16.4744 17.7108 16.4756L17.7164 12.4757ZM17.2814 12.6542C17.3962 12.5398 17.5516 12.4756 17.7136 12.4757L17.7136 16.4757C18.6098 16.4757 19.4695 16.1205 20.1045 15.488L17.2814 12.6542ZM17.1013 13.0857C17.1019 12.9237 17.1667 12.7685 17.2814 12.6542L20.1045 15.488C20.7394 14.8554 21.0978 13.9971 21.1012 13.1008L17.1013 13.0857ZM17.1012 12.7096V13.0933H21.1012V12.7096H17.1012ZM20.1525 10.7096H19.1012V14.7096H20.1525V10.7096ZM22.1525 16.1524V12.7096H18.1525V16.1524H22.1525ZM21.9731 15.7194C22.088 15.8342 22.1525 15.99 22.1525 16.1524H18.1525C18.1525 17.0508 18.5094 17.9125 19.1447 18.5478L21.9731 15.7194ZM21.5401 15.54C21.7025 15.54 21.8583 15.6045 21.9731 15.7194L19.1447 18.5478C19.78 19.1831 20.6416 19.54 21.5401 19.54V15.54ZM21.1071 15.7194C21.2219 15.6045 21.3777 15.54 21.5401 15.54V19.54C22.4386 19.54 23.3002 19.1831 23.9355 18.5478L21.1071 15.7194ZM20.9277 16.1524C20.9277 15.99 20.9923 15.8342 21.1071 15.7194L23.9355 18.5478C24.5708 17.9125 24.9277 17.0508 24.9277 16.1524H20.9277ZM20.9277 9.65047V16.1524H24.9277V9.65047H20.9277ZM20.9947 9.81217C20.9518 9.76928 20.9277 9.71112 20.9277 9.65047H24.9277C24.9277 8.65025 24.5304 7.691 23.8231 6.98374L20.9947 9.81217ZM21.1564 9.87914C21.0958 9.87914 21.0376 9.85505 20.9947 9.81217L23.8231 6.98374C23.1159 6.27647 22.1566 5.87914 21.1564 5.87914V9.87914ZM2.55282 15.0494C2.52718 15.0556 2.50091 15.0595 2.47426 15.061L2.69774 19.0548C2.96757 19.0397 3.23393 19 3.49373 18.9372L2.55282 15.0494ZM19.2737 14.9933H3.02328V18.9933H19.2737V14.9933ZM21.2511 16.4578C21.2058 16.4125 21.1714 16.3585 21.1495 16.2994L17.398 17.6872C17.6186 18.2835 17.967 18.8314 18.4258 19.2893L21.2511 16.4578ZM21.5345 16.5852C21.428 16.5787 21.3271 16.5336 21.2511 16.4578L18.4258 19.2893C19.1944 20.0562 20.215 20.5126 21.2928 20.5779L21.5345 16.5852ZM23.4136 19.1532V18.5815H19.4136V19.1532H23.4136ZM2.586 21.1532H21.4136V17.1532H2.586V21.1532ZM0.586001 17.0579V19.1532H4.586V17.0579H0.586001ZM4.586 21.8867V20.2045H0.586001V21.8867H4.586ZM4.29579 21.1808C4.48034 21.3654 4.58462 21.6153 4.58597 21.8763L0.586028 21.8971C0.590146 22.6897 0.906855 23.4488 1.46736 24.0093L4.29579 21.1808ZM3.60032 20.8906C3.86132 20.892 4.11123 20.9963 4.29578 21.1808L1.46736 24.0093C2.02786 24.5698 2.78688 24.8865 3.57954 24.8906L3.60032 20.8906ZM20.4097 20.8906H3.58993V24.8906H20.4097V20.8906ZM19.7039 21.1808C19.8884 20.9963 20.1383 20.892 20.3993 20.8906L20.4201 24.8906C21.2128 24.8865 21.9718 24.5698 22.5323 24.0093L19.7039 21.1808ZM19.4137 21.8763C19.415 21.6153 19.5193 21.3654 19.7039 21.1808L22.5323 24.0093C23.0928 23.4488 23.4095 22.6897 23.4136 21.8971L19.4137 21.8763ZM19.4136 20.2045V21.8867H23.4136V20.2045H19.4136ZM2.586 22.2045H21.4136V18.2045H2.586V22.2045ZM21.1223 15.942V15.1011H17.1223V15.942H21.1223ZM4.50094 17.942H19.1223V13.942H4.50094V17.942ZM2.88852 14.6228C2.88852 14.7076 2.86401 14.7899 2.81876 14.8603L6.18312 17.0238C6.64004 16.3133 6.88852 15.4809 6.88852 14.6228H2.88852ZM2.88852 13.0933V14.6228H6.88852V13.0933H2.88852ZM3.56862 11.0608C3.12896 11.6454 2.89037 12.3567 2.88852 13.0882L6.88851 13.0983C6.88818 13.2306 6.84505 13.3591 6.76557 13.4648L3.56862 11.0608ZM4.7451 10.0692C4.27382 10.3082 3.86553 10.655 3.55336 11.0813L6.78083 13.4443C6.72152 13.5253 6.64394 13.5912 6.5544 13.6366L4.7451 10.0692ZM6.26581 9.70564C5.73737 9.7056 5.21637 9.83014 4.7451 10.0692L6.5544 13.6366C6.46486 13.682 6.36588 13.7057 6.26547 13.7056L6.26581 9.70564ZM8.65952 10.6994C8.02636 10.0662 7.16859 9.70903 6.27317 9.70566L6.2581 13.7056C6.09788 13.705 5.9444 13.6411 5.8311 13.5278L8.65952 10.6994ZM9.65326 13.0857C9.64988 12.1903 9.29269 11.3325 8.65953 10.6994L5.8311 13.5278C5.7178 13.4145 5.65389 13.261 5.65328 13.1008L9.65326 13.0857ZM9.78647 13.2975C9.70483 13.2196 9.65635 13.1132 9.65111 13.0005L5.65542 13.1861C5.70841 14.3265 6.19871 15.4026 7.02446 16.1908L9.78647 13.2975ZM10.0895 13.419C9.97664 13.419 9.86811 13.3755 9.78647 13.2975L7.02446 16.1908C7.85021 16.9791 8.94791 17.419 10.0895 17.419V13.419ZM10.3926 13.2975C10.3109 13.3755 10.2024 13.419 10.0895 13.419V17.419C11.2311 17.419 12.3288 16.9791 13.1546 16.1908L10.3926 13.2975ZM10.5279 13.0005C10.5227 13.1132 10.4742 13.2196 10.3926 13.2975L13.1546 16.1908C13.9803 15.4026 14.4706 14.3265 14.5236 13.1861L10.5279 13.0005ZM10.5258 11.5637V13.0933H14.5258V11.5637H10.5258ZM10.7245 10.3278C10.5674 10.7627 10.5011 11.2252 10.5295 11.6868L14.522 11.4407C14.5271 11.5241 14.5151 11.6077 14.4867 11.6863L10.7245 10.3278ZM11.4428 9.15779C11.126 9.49468 10.8816 9.89285 10.7245 10.3278L14.4867 11.6863C14.4583 11.765 14.4141 11.8369 14.3569 11.8978L11.4428 9.15779ZM12.5664 8.36892C12.1419 8.55244 11.7595 8.82091 11.4428 9.15779L14.3569 11.8978C14.2996 11.9587 14.2305 12.0073 14.1538 12.0404L12.5664 8.36892ZM13.9108 8.09073C13.4483 8.09073 12.9908 8.1854 12.5664 8.36892L14.1538 12.0404C14.077 12.0736 13.9943 12.0907 13.9108 12.0907V8.09073ZM15.2552 8.36892C14.8307 8.1854 14.3732 8.09073 13.9108 8.09073V12.0907C13.8272 12.0907 13.7445 12.0736 13.6677 12.0404L15.2552 8.36892ZM16.3788 9.15779C16.062 8.8209 15.6796 8.55243 15.2552 8.36892L13.6677 12.0404C13.591 12.0073 13.5219 11.9587 13.4646 11.8978L16.3788 9.15779ZM17.097 10.3278C16.94 9.89285 16.6955 9.49468 16.3788 9.15779L13.4646 11.8978C13.4074 11.8369 13.3632 11.765 13.3348 11.6863L17.097 10.3278ZM17.292 11.6868C17.3204 11.2252 17.2541 10.7627 17.097 10.3278L13.3348 11.6864C13.3064 11.6077 13.2944 11.5241 13.2995 11.4407L17.292 11.6868ZM17.2958 13.0985V11.5637H13.2958V13.0985H17.2958ZM17.3593 13.323C17.3178 13.2546 17.2959 13.1761 17.2958 13.0961L13.2958 13.101C13.2968 13.9105 13.5191 14.7043 13.9387 15.3965L17.3593 13.323ZM17.5311 13.4843C17.4602 13.4472 17.4008 13.3914 17.3593 13.323L13.9387 15.3965C14.3583 16.0887 14.9592 16.653 15.6764 17.0283L17.5311 13.4843ZM17.7616 13.5335C17.6817 13.5385 17.602 13.5215 17.5311 13.4843L15.6764 17.0283C16.3936 17.4037 17.1997 17.5758 18.0077 17.526L17.7616 13.5335ZM17.9843 13.4564C17.9185 13.5019 17.8415 13.5286 17.7616 13.5335L18.0077 17.526C18.8156 17.4762 19.5945 17.2064 20.2602 16.7459L17.9843 13.4564Z" fill="white" mask="url(#path-1-inside-1)"/>
</svg>
