<svg width="88" height="88" viewBox="0 0 88 88" fill="none" xmlns="http://www.w3.org/2000/svg">
<path d="M30.4798 35.436C30.5775 34.6538 29.4042 34.2627 28.9153 34.7516C24.4175 39.5427 24.5153 47.756 25.982 53.8182C26.6664 56.6538 31.1642 55.4805 30.382 52.6449C29.5998 49.7116 29.2087 46.7782 29.4042 43.7471C29.502 40.9116 30.2842 38.2716 30.4798 35.436Z" fill="white"/>
<path fill-rule="evenodd" clip-rule="evenodd" d="M79.8426 37.2705C80.2003 41.0167 80.5696 44.8837 82.2046 48.2445C82.8045 49.4819 83.7064 50.5754 84.6125 51.6741C86.0692 53.4404 87.5368 55.2199 87.7779 57.6312C88.2668 65.4534 78.2935 69.4623 72.0357 70.4401C66.9513 71.2223 62.2579 70.2445 57.6624 68.3867C57.6298 68.8756 57.6081 69.3645 57.5863 69.8534C57.5429 70.8312 57.4994 71.8089 57.369 72.7867C56.7824 77.8712 54.8268 83.1512 50.2313 85.9867C39.769 92.3423 26.7646 80.7067 20.9957 72.7867C13.8579 63.1067 10.8268 50.2001 13.8579 38.4667C15.3246 32.7956 18.3557 27.3201 22.9513 23.5067C26.569 20.5734 32.1424 17.7378 37.0313 18.5201C37.3246 16.7601 37.8135 15.0978 38.3024 13.5334C37.9602 13.5334 37.6179 13.5578 37.2757 13.5823C36.9335 13.6067 36.5913 13.6312 36.249 13.6312L36.1513 13.7289C27.1557 23.2134 14.249 26.0489 1.73348 27.3201C0.266814 27.4178 -0.319852 25.6578 0.169037 24.5823C3.3957 17.4445 9.06681 10.7956 16.3024 7.66672C19.6268 6.20005 23.2446 5.41783 26.7646 6.10227C29.209 6.49339 32.9246 7.47116 34.2935 9.81783C35.9557 9.81783 37.6179 10.0134 39.2801 10.4045H39.3779L40.5513 8.05783C42.3113 5.1245 44.4624 1.80005 47.3957 0.13783C48.2757 -0.351059 49.8401 0.528941 49.3513 1.70227C48.5204 3.61963 47.3554 5.3281 46.1838 7.04615C45.563 7.95652 44.9403 8.86958 44.3646 9.81783C41.519 14.5911 40.7416 20.3985 40.0099 25.8646C39.9622 26.221 39.9147 26.5759 39.8668 26.9289C39.4757 29.7645 35.1735 28.5912 35.5646 25.7556L36.1513 21.9423C35.7816 22.0532 35.412 22.1606 35.043 22.2678C33.4599 22.7277 31.889 23.1842 30.3824 23.8978C27.8402 25.0712 25.5913 26.9289 23.7335 28.9823C19.8224 33.2845 17.769 39.0534 17.3779 44.8223C16.5957 54.6001 20.0179 64.4756 26.2757 71.9067C31.4579 77.9689 44.7557 88.9201 51.1113 78.6534C53.5794 74.7043 53.4862 70.1323 53.3946 65.6361C53.3774 64.7887 53.3601 63.944 53.3601 63.1067C53.3601 57.4356 54.6313 52.2534 56.2935 46.7778C57.6624 42.0845 59.0313 37.0001 57.5646 32.1112C56.0001 27.0267 51.3068 24.9734 46.3201 24.3867C41.4313 23.7023 43.3868 16.7601 47.8846 18.7156L48.092 18.8059C54.078 21.412 59.7403 23.8771 61.8668 30.5467C64.0179 37.0978 61.9646 43.8445 60.009 50.1023C58.8357 54.0134 57.8579 57.8267 57.6624 61.9334C57.7602 61.9334 57.9557 62.0312 58.0535 62.2267C63.6268 64.8667 69.0046 66.2356 74.969 64.1823C77.1201 63.4978 79.369 62.6178 81.2268 61.3467C84.1601 59.1956 83.1824 56.9467 81.2268 54.5023C78.8801 51.6667 77.4135 48.7334 76.6313 45.2134C76.1224 42.8599 75.9342 40.3098 75.7437 37.7281C75.3485 32.3726 74.9433 26.8808 71.6446 22.7245C69.2001 19.5956 65.3868 18.0312 61.5735 17.6401C59.4785 17.3644 57.4457 17.6483 55.4224 17.9308C53.8574 18.1494 52.2981 18.3671 50.7201 18.3245C49.2535 18.2267 49.0579 16.6623 50.0357 15.8801C52.969 13.6312 58.0535 13.4356 61.5735 13.7289C65.3868 14.0223 69.1024 15.1956 72.1335 17.5423C78.0979 22.1378 79.0757 29.4712 79.7601 36.4134C79.7879 36.6982 79.8152 36.984 79.8426 37.2705ZM16.107 11.5773C11.3159 14.3151 7.50256 18.4218 4.86256 23.2129C14.0537 22.0395 23.3426 19.6929 30.8714 13.8262C29.7959 13.924 28.7203 14.0218 27.6448 14.2173C23.9292 14.9018 20.3114 16.0751 16.7914 17.6395C14.2492 18.8129 12.1959 15.0973 14.6403 14.0218C19.3337 11.9684 24.907 10.2084 30.3826 9.71954C28.8181 9.23065 27.1559 8.83954 25.5914 8.83954C22.1692 8.74176 18.9426 9.91509 16.107 11.5773Z" fill="white"/>
<path d="M31.4569 62.7147C32.1414 62.3236 32.6303 61.4436 32.6303 60.5636C32.6303 60.1725 32.5325 59.6836 32.3369 59.3903C32.0436 58.8036 31.5547 58.608 30.968 58.3147C30.4791 58.1191 29.7947 58.3147 29.3058 58.5103C29.0125 58.7058 28.8169 58.9014 28.6214 59.1947C28.5236 59.3903 28.328 59.5858 28.328 59.7814C28.0347 60.6614 28.328 61.6391 28.9147 62.2258C29.4036 63.1058 30.5769 63.2036 31.4569 62.7147Z" fill="white"/>
</svg>
