<svg width="24" height="26" viewBox="0 0 24 26" fill="none" xmlns="http://www.w3.org/2000/svg">
<path d="M17.9808 10.2606C18.7653 9.62438 19.5321 8.87913 20.3261 7.98273C20.6782 7.58141 21.0221 7.16143 21.3469 6.73523C21.5105 6.52094 21.6702 6.30234 21.8305 6.07609L22.2141 5.50687C22.2462 5.45664 22.2768 5.40881 22.3304 5.31505C23.0742 3.85948 22.4944 2.07003 21.0388 1.32574C20.3338 0.966027 19.5302 0.901452 18.7763 1.14588C18.0229 1.38983 17.4097 1.91265 17.0495 2.61772C17.0487 2.6193 17.0485 2.62113 17.0478 2.62274C17.0473 2.62358 17.0466 2.62406 17.0462 2.6249C17.0449 2.62759 17.0453 2.63046 17.0441 2.63318C17.0377 2.64833 17.0312 2.66364 17.028 2.67943C17.0208 2.6976 17.0079 2.73156 17.0079 2.73156L16.8362 3.12571C16.7525 3.30652 16.6649 3.48925 16.5721 3.67149C16.3889 4.03407 16.1895 4.39617 15.98 4.74631C15.5174 5.51452 15.063 6.15693 14.5894 6.71179C14.3192 7.03228 14.0379 7.32789 13.749 7.59528L13.8098 6.91126C13.8122 6.89308 13.8141 6.87491 13.816 6.86056C13.8246 6.83664 13.8294 6.81129 13.8298 6.78498C13.8576 5.60636 13.4247 4.48753 12.6111 3.63418C11.7974 2.78131 10.7001 2.29628 9.521 2.26806C8.35147 2.2384 7.22403 2.67273 6.37021 3.48686C5.51733 4.30051 5.0323 5.39781 5.00408 6.58886C5.00791 6.73093 5.01412 6.81559 5.02082 6.90313L5.12271 7.95403C5.17341 8.36875 5.22842 8.77868 5.29299 9.18479C5.3672 9.6596 5.45404 10.1326 5.54726 10.6026C5.54807 10.6084 5.54959 10.6139 5.55085 10.6197C5.61647 10.9498 5.68367 11.2793 5.75794 11.6033C6.12817 13.1937 6.55867 14.6086 7.0724 15.9183C6.96238 15.8868 6.85189 15.8533 6.74235 15.8183C6.45535 15.7256 6.16787 15.6213 5.88804 15.5084C5.74837 15.4524 5.61013 15.3931 5.47954 15.3357L5.19446 15.2003L5.18919 15.2085C5.16576 15.185 5.13753 15.1659 5.10596 15.153C4.54344 14.9291 3.92687 14.9373 3.37104 15.1764C2.81474 15.4156 2.38519 15.8571 2.16085 16.4191C1.6983 17.5805 2.26656 18.9012 3.43944 19.3686C3.50784 19.392 3.54898 19.4035 3.63221 19.4274L4.09094 19.5479C4.28945 19.5953 4.48652 19.6398 4.68312 19.6795C5.07487 19.7589 5.4738 19.8258 5.87034 19.878C6.75287 19.9909 7.55026 20.032 8.30603 20.0038C8.55811 19.9947 8.82455 19.9746 9.11633 19.943C9.33876 20.2827 9.57075 20.6137 9.80896 20.9289C10.416 21.7196 11.0254 22.3878 11.6721 22.9733C11.8943 23.1715 12.1237 23.3589 12.3564 23.5409C12.365 23.5486 12.374 23.5551 12.3836 23.5616C12.895 23.9596 13.4279 24.3205 13.9796 24.6322C14.4168 24.8804 14.8994 25 15.3782 25C16.1809 25 16.9744 24.6637 17.5298 24.0295C18.5563 22.8575 18.4449 21.0768 17.2924 20.0364C17.2902 20.0337 17.2877 20.0315 17.2854 20.0289C17.2772 20.0215 17.2716 20.0125 17.2633 20.0052L17.0983 19.8608C16.9826 19.7594 16.8668 19.6498 16.7487 19.5302C16.9505 19.4374 17.1495 19.3341 17.3423 19.2207C17.9349 18.8663 18.4884 18.4229 19.0337 17.8661C19.4799 17.4141 19.9076 16.8951 20.3419 16.2785C20.5328 16.0059 20.7179 15.7198 20.8925 15.429C20.9795 15.2836 21.0642 15.1358 21.1493 14.9822L21.3474 14.6039C21.3651 14.5675 21.3818 14.5345 21.4115 14.4647C21.7903 13.4625 21.2828 12.3389 20.2807 11.9601C19.28 11.5822 18.155 12.0883 17.7761 13.0909C17.7661 13.1177 17.7608 13.1454 17.7603 13.1727L17.7555 13.1722L17.6776 13.4243C17.6384 13.541 17.5977 13.6596 17.5527 13.7782C17.4647 14.0145 17.3671 14.2499 17.2624 14.4795C17.0347 14.975 16.7931 15.4132 16.543 15.783C16.266 16.1958 15.9675 16.5469 15.6566 16.8243C15.4796 16.9793 15.317 17.1008 15.1611 17.195C15.1582 17.1964 15.1548 17.1983 15.152 17.2003C14.731 16.2972 14.3991 15.2649 14.1628 14.127C14.0566 13.63 13.9667 13.0961 13.8959 12.5379C14.3144 12.4097 14.7109 12.2619 15.0788 12.0979C16.0732 11.6434 17.0227 11.0422 17.9808 10.2606ZM20.8159 1.76198C22.0314 2.38286 22.515 3.87718 21.8998 5.08163C21.8573 5.15577 21.83 5.19834 21.8018 5.24283L21.4287 5.79578C21.3602 5.89262 21.2894 5.98532 21.22 6.08039C20.3969 4.22938 18.3318 3.01028 17.619 2.63327C18.2983 1.57806 19.6756 1.17895 20.8159 1.76198ZM16.3999 4.9984C16.6162 4.63773 16.8209 4.26559 17.0089 3.89296C17.1041 3.70641 17.1945 3.51795 17.2825 3.32757L17.3939 3.06978C18.0944 3.44566 20.2199 4.71483 20.8737 6.54423C20.5797 6.92498 20.2733 7.30021 19.9588 7.6589C19.3042 8.39787 18.6686 9.02589 18.027 9.57786C17.7429 7.8862 16.0667 6.84866 15.3904 6.49481C15.7297 6.04996 16.0633 5.55751 16.3999 4.9984ZM9.41529 2.75692C9.44638 2.75692 9.47795 2.75692 9.50952 2.75787C10.5576 2.78275 11.5334 3.2142 12.2566 3.97237C12.5645 4.295 12.8067 4.66219 12.9865 5.05628C9.72385 4.25629 6.61571 5.5965 5.53028 6.15145C5.79061 4.22899 7.4415 2.75692 9.41529 2.75692ZM5.49966 6.72319C6.17316 6.356 9.69278 4.59103 13.1957 5.61542C13.298 5.98015 13.3475 6.36177 13.3405 6.75102C13.3309 6.78976 13.3266 6.82612 13.3233 6.8529L13.2582 7.59002C13.2521 7.68832 13.2483 7.78826 13.2442 7.88799C10.5047 7.62314 7.0072 9.55203 5.96278 10.1751C5.89611 9.82092 5.83271 9.46521 5.77707 9.10874C5.71345 8.70789 5.65844 8.3037 5.60917 7.89855L5.5092 6.86678C5.5057 6.82145 5.5025 6.77467 5.49966 6.72319ZM3.72692 18.9452C3.69009 18.9347 3.65517 18.9247 3.60877 18.9089C2.6985 18.5463 2.25317 17.5107 2.61623 16.6009C2.9635 15.7307 3.92624 15.294 4.80372 15.5733C4.43979 16.1469 3.70662 17.5851 4.2965 19.092C4.26714 19.0852 4.2374 19.0795 4.20813 19.0725L3.72692 18.9452ZM17.1615 23.7071C16.4272 24.5456 15.1902 24.757 14.2206 24.206C13.8293 23.9846 13.4465 23.7393 13.0751 23.4723C15.4773 22.7964 16.718 21.2423 17.145 20.5923C17.9205 21.4687 17.9524 22.8037 17.1615 23.7071ZM20.1075 12.4183C20.4706 12.5556 20.7585 12.8259 20.9183 13.1798C21.0781 13.5338 21.0905 13.9284 20.9575 14.281C20.9365 14.3293 20.9231 14.3566 20.8968 14.4101L20.7188 14.7483C20.7062 14.7712 20.6928 14.7931 20.68 14.8158C20.007 13.8294 18.8087 13.3392 18.2832 13.1648C18.6018 12.4843 19.3937 12.1485 20.1075 12.4183ZM15.1486 17.7547C15.2371 17.7121 15.3246 17.6671 15.4127 17.615C15.5949 17.505 15.78 17.3672 15.9809 17.1916C16.3244 16.885 16.6501 16.5028 16.9491 16.0566C17.2136 15.6658 17.469 15.2037 17.7077 14.6837C17.8177 14.4431 17.9191 14.1973 18.0115 13.9504C18.0513 13.8444 18.0884 13.737 18.1249 13.6292C18.6248 13.7964 19.8538 14.2972 20.3977 15.2923C20.2502 15.5326 20.0989 15.7711 19.9406 15.9972C19.523 16.5909 19.1121 17.0893 18.6845 17.5227C18.1684 18.0498 17.647 18.4678 17.0926 18.7993C16.819 18.9601 16.532 19.0997 16.2387 19.2145C16.1636 19.2442 16.1082 19.3088 16.0895 19.3872C16.0713 19.4657 16.0929 19.5479 16.1474 19.6077C16.3641 19.8455 16.5693 20.0487 16.7759 20.2291L16.7872 20.239C16.4485 20.7721 15.1716 22.4983 12.5768 23.0934C12.3808 22.9375 12.1877 22.7768 11.9997 22.6088C11.376 22.0448 10.7867 21.3977 10.1988 20.6318C9.93955 20.2889 9.68603 19.9249 9.44542 19.5498C9.39998 19.4795 9.32201 19.4374 9.23926 19.4374C9.2297 19.4374 9.22013 19.4379 9.21008 19.4393C8.87142 19.4795 8.57007 19.5044 8.28833 19.514C7.5603 19.5427 6.78875 19.502 5.93348 19.392C5.58708 19.3468 5.23909 19.2859 4.89469 19.2184C4.11928 17.7637 4.94826 16.2526 5.25993 15.7733L5.27721 15.7815C5.41784 15.8437 5.56086 15.9049 5.70532 15.9628C5.99519 16.08 6.29367 16.1881 6.59263 16.2847C6.86815 16.3727 7.14654 16.4507 7.42398 16.5205C7.43734 16.5237 7.44948 16.5175 7.46266 16.5182C8.05613 16.7007 8.65169 16.7784 9.23113 16.7784C11.3563 16.7784 13.2545 15.7664 13.9584 15.3412C14.1908 16.1697 14.4769 16.9421 14.8257 17.6494C14.8879 17.7652 15.03 17.8121 15.1486 17.7547ZM13.5596 12.127C13.4443 12.16 13.3702 12.272 13.3845 12.3911C13.4606 13.0387 13.5615 13.6572 13.6835 14.2279C13.7271 14.4384 13.7789 14.6403 13.8291 14.844C13.1894 15.2419 10.3476 16.8571 7.6604 16.0628C7.0994 14.6919 6.63179 13.197 6.23531 11.4932C6.17442 11.2273 6.12045 10.956 6.06536 10.6857C6.83168 10.2197 10.7084 7.97006 13.44 8.39649C13.4549 8.39868 13.4691 8.39473 13.4837 8.39416C13.4954 8.39389 13.5058 8.39428 13.5173 8.39237C13.5561 8.3854 13.5927 8.3715 13.6239 8.34809C13.6263 8.34633 13.6295 8.34669 13.6318 8.34483C14.0944 7.9703 14.5426 7.52688 14.9625 7.02845C15.0014 6.98298 15.0394 6.93311 15.078 6.88651C15.6403 7.17195 17.4913 8.24367 17.5726 9.95647C16.6807 10.6732 15.7972 11.2309 14.8769 11.6516C14.4737 11.8314 14.0308 11.9917 13.5596 12.127Z" fill="white" stroke="white" stroke-width="0.5"/>
</svg>
