<svg width="24" height="24" viewBox="0 0 24 24" fill="none" xmlns="http://www.w3.org/2000/svg">
<path d="M20.097 10.5295C20.097 8.60237 18.5292 7.03492 16.6021 7.03492C15.8037 7.03492 15.0454 7.31239 14.4354 7.79557C13.9358 7.3234 13.2987 6.9983 12.5899 6.88517C12.608 6.13791 12.7599 4.70324 13.6313 4.18046C13.8956 4.02178 13.9814 3.67882 13.823 3.41475C13.6643 3.15008 13.3213 3.06464 13.0573 3.22273C11.7036 4.03488 11.4895 5.94023 11.4708 6.88755C10.7726 7.00247 10.1445 7.3231 9.65026 7.78723C9.04144 7.30941 8.28585 7.03492 7.49424 7.03492C5.56745 7.03492 4 8.60267 4 10.5295C4 11.9326 4.81841 13.1594 6.05451 13.7138C5.77049 14.219 5.60675 14.8004 5.60675 15.42C5.60675 17.2869 7.07982 18.8121 8.92415 18.9053C8.67585 19.3852 8.53295 19.9285 8.53295 20.5049C8.53295 22.4323 10.1007 24 12.0275 24C13.9546 24 15.5223 22.432 15.5223 20.5049C15.5223 19.9285 15.3797 19.3858 15.1317 18.9065C16.9859 18.8237 18.47 17.2938 18.47 15.42C18.47 14.8028 18.3077 14.2235 18.0258 13.7197C19.2622 13.1699 20.097 11.9361 20.097 10.5295ZM12.0382 7.95336C13.3496 7.95336 14.4166 9.02006 14.4166 10.3312C14.4166 11.6426 13.3496 12.7096 12.0382 12.7096C10.7268 12.7096 9.65979 11.6426 9.65979 10.3312C9.65979 9.02006 10.7268 7.95336 12.0382 7.95336ZM5.11612 10.5295C5.11612 9.21833 6.18282 8.15134 7.49394 8.15134C8.03458 8.15134 8.55052 8.33949 8.96583 8.66697C8.6964 9.16207 8.54337 9.72921 8.54337 10.3315C8.54337 10.9087 8.68657 11.453 8.93546 11.9335C8.11616 11.9722 7.37099 12.2928 6.79372 12.8022C5.79818 12.4982 5.11612 11.5869 5.11612 10.5295ZM6.72287 15.42C6.72287 14.1082 7.78987 13.0412 9.10128 13.0412C10.4127 13.0412 11.4797 14.1082 11.4797 15.42C11.4797 16.7311 10.4127 17.7978 9.10128 17.7978C7.78987 17.7978 6.72287 16.7314 6.72287 15.42ZM12.0275 22.8839C10.7161 22.8839 9.64937 21.8169 9.64937 20.5052C9.64937 19.194 10.7161 18.127 12.0275 18.127C13.3389 18.127 14.4059 19.194 14.4059 20.5052C14.4059 21.8169 13.3389 22.8839 12.0275 22.8839ZM14.9748 17.7981C13.6634 17.7981 12.5964 16.7314 12.5964 15.4203C12.5964 14.1085 13.6634 13.0415 14.9748 13.0415C16.2865 13.0415 17.3535 14.1085 17.3535 15.4203C17.3535 16.7314 16.2865 17.7981 14.9748 17.7981ZM17.2872 12.8061C16.7093 12.294 15.9623 11.9722 15.141 11.9332C15.3035 11.6194 15.4187 11.2782 15.4797 10.9183C15.6358 10.8581 15.7468 10.7075 15.7468 10.53C15.7468 10.0588 16.1305 9.67532 16.6021 9.67532C16.8323 9.67532 17.0189 9.48866 17.0189 9.25852C17.0189 9.02839 16.8325 8.84173 16.6021 8.84173C16.1276 8.84173 15.6989 9.03911 15.3916 9.35558C15.3226 9.1186 15.2309 8.89145 15.1159 8.67828C15.533 8.34366 16.0537 8.15134 16.6021 8.15134C17.9135 8.15134 18.9805 9.21833 18.9805 10.5295C18.9805 11.5914 18.2821 12.5086 17.2872 12.8061ZM6.32304 4.77976C6.92859 5.2296 7.67971 5.45764 8.55528 5.45764C9.62109 5.45764 10.5044 5.11111 10.5416 5.09622C10.7381 5.01822 10.8733 4.83602 10.8914 4.62554C10.9007 4.51747 11.0995 1.9637 9.37101 0.678782C8.76457 0.228345 8.01285 0 7.13669 0C6.07177 0 5.18965 0.345643 5.15274 0.360528C4.95625 0.438529 4.82109 0.620728 4.80263 0.830912C4.7931 0.939279 4.59304 3.49364 6.32304 4.77976ZM7.13609 1.11642C7.76754 1.11642 8.29538 1.27093 8.70473 1.57489C9.61394 2.2507 9.76607 3.54009 9.78364 4.16796C9.49129 4.24775 9.04353 4.34123 8.55528 4.34123C7.92473 4.34123 7.39778 4.18701 6.98902 3.88364C6.07892 3.20724 5.92738 1.91726 5.91012 1.28879C6.20158 1.2099 6.64874 1.11642 7.13609 1.11642ZM6.63951 10.5298C6.63951 10.7599 6.45314 10.9465 6.22271 10.9465C5.99228 10.9465 5.80592 10.7599 5.80592 10.5298C5.80592 9.59881 6.563 8.84113 7.49394 8.84113C7.72407 8.84113 7.91074 9.0278 7.91074 9.25793C7.91074 9.48806 7.72437 9.67472 7.49394 9.67472C7.02266 9.67472 6.63951 10.0585 6.63951 10.5298ZM10.3493 10.3318C10.3493 9.40083 11.1067 8.64316 12.0376 8.64316C12.2677 8.64316 12.4544 8.82982 12.4544 9.05995C12.4544 9.29008 12.268 9.47675 12.0376 9.47675C11.5663 9.47675 11.1826 9.8602 11.1826 10.3315C11.1826 10.5616 10.9962 10.7483 10.7658 10.7483C10.5354 10.7483 10.3493 10.5622 10.3493 10.3318ZM9.10128 14.5649C8.63001 14.5649 8.24655 14.9484 8.24655 15.42C8.24655 15.6501 8.06019 15.8368 7.82976 15.8368C7.59933 15.8368 7.41296 15.6501 7.41296 15.42C7.41296 14.4887 8.17004 13.731 9.10099 13.731C9.33112 13.731 9.51778 13.9177 9.51778 14.1478C9.51778 14.378 9.33142 14.5649 9.10128 14.5649ZM15.3907 14.1481C15.3907 14.3783 15.2044 14.5649 14.9739 14.5649C14.5027 14.5649 14.1192 14.9484 14.1192 15.42C14.1192 15.6501 13.9328 15.8368 13.7024 15.8368C13.472 15.8368 13.2856 15.6501 13.2856 15.42C13.2856 14.4887 14.0427 13.731 14.9736 13.731C15.2044 13.731 15.3907 13.9177 15.3907 14.1481ZM12.4437 19.2336C12.4437 19.4638 12.2573 19.6504 12.0269 19.6504C11.5556 19.6504 11.1722 20.0339 11.1722 20.5052C11.1722 20.7353 10.9858 20.922 10.7554 20.922C10.5249 20.922 10.3386 20.7353 10.3386 20.5052C10.3386 19.5742 11.0957 18.8165 12.0266 18.8165C12.257 18.8165 12.4437 19.0032 12.4437 19.2336Z" fill="white"/>
</svg>
