<svg width="24" height="24" viewBox="0 0 24 24" fill="none" xmlns="http://www.w3.org/2000/svg">
<path d="M23.625 12C23.625 18.4203 18.4203 23.625 12 23.625C5.57969 23.625 0.375 18.4203 0.375 12C0.375 5.57969 5.57969 0.375 12 0.375C18.4203 0.375 23.625 5.57969 23.625 12Z" stroke="white" stroke-width="0.75" stroke-miterlimit="10"/>
<path d="M22.0771 12.0004C22.0771 17.5656 17.5656 22.0771 12.0004 22.0771C6.43528 22.0771 1.92383 17.5656 1.92383 12.0004C1.92383 6.43528 6.43528 1.92383 12.0004 1.92383C17.5656 1.92383 22.0771 6.43528 22.0771 12.0004Z" stroke="white" stroke-width="0.75" stroke-miterlimit="10"/>
<path d="M11.2245 5.21484L11.2245 5.21479C11.2046 5.12835 11.2107 5.0078 11.2596 4.84955L11.2596 4.8494C11.3901 4.42656 11.7061 4.24609 12.0003 4.24609C12.2944 4.24609 12.6105 4.42656 12.7409 4.8494L12.7409 4.84955C12.7898 5.00766 12.7959 5.12788 12.776 5.21484C12.776 5.21488 12.776 5.21493 12.776 5.21497L12.0003 8.58317L11.2245 5.21484Z" stroke="white" stroke-width="0.75" stroke-miterlimit="10"/>
<path d="M12.776 18.7853L12.776 18.7853C12.7959 18.8718 12.7898 18.9923 12.7409 19.1506L12.7409 19.1507C12.6105 19.5736 12.2944 19.754 12.0003 19.754C11.7061 19.754 11.3901 19.5736 11.2596 19.1507L11.2596 19.1506C11.2107 18.9925 11.2046 18.8722 11.2245 18.7853C11.2245 18.7852 11.2245 18.7852 11.2246 18.7851L12.0003 15.4169L12.776 18.7853Z" stroke="white" stroke-width="0.75" stroke-miterlimit="10"/>
<mask id="path-5-inside-1" fill="white">
<path d="M14.3223 19.2096C14.7094 19.6556 15.3829 19.4454 15.4793 18.874Z"/>
</mask>
<path d="M14.8886 18.718C14.6171 18.4052 14.1434 18.3717 13.8306 18.6433C13.5178 18.9148 13.4844 19.3885 13.7559 19.7013L14.8886 18.718ZM16.2188 18.9988C16.2878 18.5903 16.0125 18.2034 15.6041 18.1345C15.1956 18.0656 14.8087 18.3408 14.7397 18.7493L16.2188 18.9988ZM13.7559 19.7013C14.5828 20.6538 16.0232 20.1583 16.2188 18.9988L14.7397 18.7493C14.7387 18.7553 14.7396 18.7456 14.7517 18.7319C14.7624 18.7199 14.7774 18.71 14.7955 18.7046C14.814 18.6991 14.8365 18.6981 14.8591 18.7046C14.8842 18.7118 14.8933 18.7233 14.8886 18.718L13.7559 19.7013Z" fill="white" mask="url(#path-5-inside-1)"/>
<path d="M18.7853 11.2245L18.7853 11.2245C18.8718 11.2046 18.9923 11.2107 19.1506 11.2596L19.1507 11.2596C19.5736 11.3901 19.754 11.7061 19.754 12.0003C19.754 12.2944 19.5736 12.6105 19.1507 12.7409L19.1506 12.7409C18.9925 12.7898 18.8722 12.7959 18.7853 12.776C18.7852 12.776 18.7852 12.776 18.7851 12.776L15.4169 12.0003L18.7853 11.2245Z" stroke="white" stroke-width="0.75" stroke-miterlimit="10"/>
<path d="M5.21484 12.776L5.21479 12.776C5.12835 12.7959 5.0078 12.7898 4.84955 12.7409L4.8494 12.7409C4.42656 12.6105 4.24609 12.2944 4.24609 12.0003C4.24609 11.7061 4.42656 11.3901 4.8494 11.2596L4.84955 11.2596C5.00766 11.2107 5.12788 11.2046 5.21484 11.2245C5.21488 11.2245 5.21493 11.2245 5.21497 11.2246L8.58317 12.0003L5.21484 12.776Z" stroke="white" stroke-width="0.75" stroke-miterlimit="10"/>
<path d="M14.4157 9.5841L17.3457 7.7506C17.3457 7.75057 17.3458 7.75053 17.3458 7.7505C17.4215 7.70301 17.5023 7.61342 17.5796 7.46719L14.4157 9.5841ZM14.4157 9.5841L16.2492 6.65412C16.2492 6.6541 16.2492 6.65408 16.2492 6.65405C16.2967 6.57839 16.3864 6.49749 16.5327 6.41956C16.9235 6.21309 17.2745 6.30896 17.4825 6.51694C17.6905 6.72499 17.7864 7.07611 17.5796 7.46715L14.4157 9.5841Z" stroke="white" stroke-width="0.75" stroke-miterlimit="10"/>
<path d="M9.58469 14.4157L6.65471 16.2492C6.65468 16.2492 6.65465 16.2492 6.65462 16.2492C6.57899 16.2967 6.49814 16.3863 6.42077 16.5326L9.58469 14.4157ZM9.58469 14.4157L7.75119 17.3457C7.75117 17.3457 7.75115 17.3457 7.75113 17.3458C7.70365 17.4214 7.61401 17.5023 7.46773 17.5802C7.07686 17.7867 6.7259 17.6908 6.51792 17.4829C6.30987 17.2748 6.21401 16.9237 6.42075 16.5326L9.58469 14.4157Z" stroke="white" stroke-width="0.75" stroke-miterlimit="10"/>
<path d="M14.4157 14.4157L16.2492 17.3457C16.2492 17.3457 16.2492 17.3457 16.2493 17.3458C16.2967 17.4214 16.3863 17.5023 16.5326 17.5796L14.4157 14.4157ZM14.4157 14.4157L17.3457 16.2492C17.3457 16.2492 17.3457 16.2492 17.3457 16.2492C17.4214 16.2967 17.5023 16.3863 17.5802 16.5326C17.7867 16.9235 17.6908 17.2745 17.4829 17.4825C17.2748 17.6905 16.9237 17.7864 16.5326 17.5796L14.4157 14.4157Z" stroke="white" stroke-width="0.75" stroke-miterlimit="10"/>
<path d="M9.5841 9.58469L7.7506 6.65471C7.75057 6.65466 7.75054 6.65461 7.75051 6.65456C7.70302 6.57894 7.61343 6.49812 7.46719 6.42077L9.5841 9.58469ZM9.5841 9.58469L6.65412 7.75119C6.65407 7.75116 6.65402 7.75113 6.65397 7.7511C6.57833 7.7036 6.49746 7.61397 6.41956 7.46772C6.21309 7.07685 6.30897 6.7259 6.51694 6.51792C6.72499 6.30987 7.07611 6.21401 7.46715 6.42075L9.5841 9.58469Z" stroke="white" stroke-width="0.75" stroke-miterlimit="10"/>
<mask id="path-13-inside-2" fill="white">
<path d="M9.67754 19.2096C9.29044 19.6556 8.61689 19.4454 8.52051 18.874Z"/>
</mask>
<path d="M10.2439 19.7013C10.5154 19.3885 10.482 18.9148 10.1692 18.6433C9.85639 18.3717 9.38269 18.4052 9.11116 18.718L10.2439 19.7013ZM9.26006 18.7493C9.19115 18.3408 8.80419 18.0656 8.39575 18.1345C7.9873 18.2034 7.71205 18.5903 7.78096 18.9988L9.26006 18.7493ZM9.11116 18.718C9.10654 18.7233 9.11556 18.7118 9.14067 18.7046C9.16333 18.6981 9.18583 18.6991 9.20431 18.7046C9.22245 18.71 9.23737 18.7199 9.24806 18.7319C9.26022 18.7456 9.26107 18.7553 9.26006 18.7493L7.78096 18.9988C7.97656 20.1583 9.41704 20.6538 10.2439 19.7013L9.11116 18.718Z" fill="white" mask="url(#path-13-inside-2)"/>
<mask id="path-15-inside-3" fill="white">
<path d="M9.67754 4.79026C9.29044 4.34433 8.61689 4.55452 8.52051 5.12588Z"/>
</mask>
<path d="M9.11116 5.28191C9.38269 5.59471 9.85639 5.62817 10.1692 5.35664C10.482 5.08511 10.5154 4.61142 10.2439 4.29862L9.11116 5.28191ZM7.78096 5.00111C7.71205 5.40956 7.9873 5.79652 8.39575 5.86543C8.80419 5.93433 9.19115 5.65908 9.26006 5.25064L7.78096 5.00111ZM10.2439 4.29862C9.41704 3.34606 7.97656 3.84164 7.78096 5.00111L9.26006 5.25064C9.26107 5.24462 9.26022 5.2543 9.24806 5.26798C9.23737 5.28 9.22245 5.28991 9.20431 5.29532C9.18583 5.30083 9.16333 5.30177 9.14067 5.29529C9.11556 5.2881 9.10654 5.27658 9.11116 5.28191L10.2439 4.29862Z" fill="white" mask="url(#path-15-inside-3)"/>
<mask id="path-17-inside-4" fill="white">
<path d="M14.3223 4.79026C14.7094 4.34433 15.3829 4.55452 15.4793 5.12588Z"/>
</mask>
<path d="M13.7559 4.29862C13.4844 4.61142 13.5178 5.08511 13.8306 5.35664C14.1434 5.62817 14.6171 5.59471 14.8886 5.28191L13.7559 4.29862ZM14.7397 5.25064C14.8087 5.65908 15.1956 5.93433 15.6041 5.86543C16.0125 5.79652 16.2878 5.40956 16.2188 5.00111L14.7397 5.25064ZM14.8886 5.28191C14.8933 5.27658 14.8842 5.2881 14.8591 5.29529C14.8365 5.30177 14.814 5.30083 14.7955 5.29532C14.7774 5.28991 14.7624 5.28 14.7517 5.26798C14.7396 5.2543 14.7387 5.24462 14.7397 5.25064L16.2188 5.00111C16.0232 3.84164 14.5828 3.34606 13.7559 4.29862L14.8886 5.28191Z" fill="white" mask="url(#path-17-inside-4)"/>
<mask id="path-19-inside-5" fill="white">
<path d="M4.79026 14.3223C4.34433 14.7094 4.55452 15.3829 5.12588 15.4793Z"/>
</mask>
<path d="M5.28191 14.8886C5.59471 14.6171 5.62817 14.1434 5.35664 13.8306C5.08511 13.5178 4.61142 13.4844 4.29862 13.7559L5.28191 14.8886ZM5.00111 16.2188C5.40956 16.2878 5.79652 16.0125 5.86543 15.6041C5.93433 15.1956 5.65908 14.8087 5.25064 14.7397L5.00111 16.2188ZM4.29862 13.7559C3.34606 14.5828 3.84164 16.0232 5.00111 16.2188L5.25064 14.7397C5.24462 14.7387 5.2543 14.7396 5.26798 14.7517C5.28 14.7624 5.28991 14.7774 5.29532 14.7955C5.30083 14.814 5.30177 14.8365 5.29529 14.8591C5.2881 14.8842 5.27658 14.8933 5.28191 14.8886L4.29862 13.7559Z" fill="white" mask="url(#path-19-inside-5)"/>
<mask id="path-21-inside-6" fill="white">
<path d="M4.79026 9.67754C4.34433 9.29044 4.55452 8.61689 5.12588 8.52051Z"/>
</mask>
<path d="M4.29862 10.2439C4.61142 10.5154 5.08511 10.482 5.35664 10.1692C5.62817 9.85639 5.59471 9.38269 5.28191 9.11116L4.29862 10.2439ZM5.25064 9.26006C5.65908 9.19115 5.93433 8.80419 5.86543 8.39575C5.79652 7.9873 5.40956 7.71205 5.00111 7.78096L5.25064 9.26006ZM5.28191 9.11116C5.27658 9.10654 5.2881 9.11556 5.29529 9.14067C5.30177 9.16333 5.30083 9.18583 5.29532 9.20431C5.28991 9.22245 5.28 9.23737 5.26798 9.24806C5.2543 9.26022 5.24462 9.26107 5.25064 9.26006L5.00111 7.78096C3.84164 7.97656 3.34606 9.41704 4.29862 10.2439L5.28191 9.11116Z" fill="white" mask="url(#path-21-inside-6)"/>
<mask id="path-23-inside-7" fill="white">
<path d="M19.2096 9.67754C19.6556 9.29044 19.4454 8.61689 18.874 8.52051Z"/>
</mask>
<path d="M18.718 9.11116C18.4052 9.38269 18.3717 9.85639 18.6433 10.1692C18.9148 10.482 19.3885 10.5154 19.7013 10.2439L18.718 9.11116ZM18.9988 7.78096C18.5903 7.71205 18.2034 7.9873 18.1345 8.39575C18.0656 8.80419 18.3408 9.19115 18.7493 9.26006L18.9988 7.78096ZM19.7013 10.2439C20.6538 9.41704 20.1583 7.97656 18.9988 7.78096L18.7493 9.26006C18.7553 9.26107 18.7456 9.26022 18.7319 9.24806C18.7199 9.23737 18.71 9.22245 18.7046 9.20431C18.6991 9.18583 18.6981 9.16333 18.7046 9.14067C18.7118 9.11556 18.7233 9.10654 18.718 9.11116L19.7013 10.2439Z" fill="white" mask="url(#path-23-inside-7)"/>
<mask id="path-25-inside-8" fill="white">
<path d="M19.2096 14.3223C19.6556 14.7094 19.4454 15.3829 18.874 15.4793Z"/>
</mask>
<path d="M19.7013 13.7559C19.3885 13.4844 18.9148 13.5178 18.6433 13.8306C18.3717 14.1434 18.4052 14.6171 18.718 14.8886L19.7013 13.7559ZM18.7493 14.7397C18.3408 14.8087 18.0656 15.1956 18.1345 15.6041C18.2034 16.0125 18.5903 16.2878 18.9988 16.2188L18.7493 14.7397ZM18.718 14.8886C18.7233 14.8933 18.7118 14.8842 18.7046 14.8591C18.6981 14.8365 18.6991 14.814 18.7046 14.7955C18.71 14.7774 18.7199 14.7624 18.7319 14.7517C18.7456 14.7396 18.7553 14.7387 18.7493 14.7397L18.9988 16.2188C20.1583 16.0232 20.6538 14.5828 19.7013 13.7559L18.718 14.8886Z" fill="white" mask="url(#path-25-inside-8)"/>
<path d="M12 10.8389V11.226" stroke="white" stroke-width="0.75" stroke-miterlimit="10" stroke-linecap="round"/>
<path d="M12 12.7744V13.1615" stroke="white" stroke-width="0.75" stroke-miterlimit="10" stroke-linecap="round"/>
<path d="M13.1615 12H12.7744" stroke="white" stroke-width="0.75" stroke-miterlimit="10" stroke-linecap="round"/>
<path d="M11.226 12H10.8389" stroke="white" stroke-width="0.75" stroke-miterlimit="10" stroke-linecap="round"/>
</svg>
