<?xml version="1.0" encoding="UTF-8"?>
<svg width="24px" height="24px" viewBox="0 0 24 24" version="1.1" xmlns="http://www.w3.org/2000/svg" xmlns:xlink="http://www.w3.org/1999/xlink">
    <!-- Generator: Sketch 51.3 (57544) - http://www.bohemiancoding.com/sketch -->
    <title>icon strain flavor / gum</title>
    <desc>Created with Sketch.</desc>
    <defs></defs>
    <g id="icon-strain-flavor-/-gum" stroke="none" stroke-width="1" fill="none" fill-rule="evenodd">
        <g id="Group" fill="#FFFFFF" fill-rule="nonzero">
            <polygon id="Rectangle" transform="translate(11.039811, 11.461929) rotate(-45.000000) translate(-11.039811, -11.461929) " points="7.10538497 11.0684863 14.9742374 11.0684863 14.9742374 11.8553715 7.10538497 11.8553715"></polygon>
            <polygon id="Rectangle" transform="translate(12.150195, 12.571437) rotate(-45.000000) translate(-12.150195, -12.571437) " points="8.21576833 12.1779945 16.0846208 12.1779945 16.0846208 12.9648797 8.21576833 12.9648797"></polygon>
            <path d="M18.7734288,0.116379669 C18.6995535,0.0418960027 18.5989912,0 18.4940846,0 C18.389178,0 18.2886157,0.0418960027 18.2147403,0.116379669 L13.7727731,4.56228131 L13.6586748,4.44424852 C13.5847994,4.36976486 13.4842371,4.32786885 13.3793305,4.32786885 C13.2744239,4.32786885 13.1738616,4.36976486 13.0999862,4.44424852 L0.116379669,17.4278551 C0.0418960027,17.5017305 0,17.6022928 0,17.7071993 C0,17.8121059 0.0418960027,17.9126682 0.116379669,17.9865436 L5.62457639,23.4947403 C5.69845177,23.569224 5.79901408,23.61112 5.90392065,23.61112 C6.00882722,23.61112 6.10938953,23.569224 6.18326491,23.4947403 L19.1668715,10.5111338 C19.2413551,10.4372584 19.2832511,10.3366961 19.2832511,10.2317895 C19.2832511,10.1268829 19.2413551,10.0263206 19.1668715,9.95244524 L19.0488387,9.83834688 L23.4947403,5.39637967 C23.569224,5.32250429 23.61112,5.22194198 23.61112,5.11703541 C23.61112,5.01212883 23.569224,4.91156653 23.4947403,4.83769114 L18.7734288,0.116379669 Z M18.4940846,0.950478029 L20.0678551,2.52424852 C19.7180323,2.46576357 19.3610576,2.57504154 19.1039207,2.81933049 C18.8427087,3.10176395 18.7355292,3.49377652 18.8167075,3.86982229 C18.8442485,4.12556 18.8167075,4.20031409 18.7537567,4.28293705 C18.6908059,4.36556 18.5963797,4.37342885 18.3603141,4.34588787 C17.9842686,4.25099161 17.5860259,4.36082403 17.3117856,4.63506433 C17.0375453,4.90930462 16.9277129,5.30754733 17.0226092,5.68359278 C17.0501502,5.93933049 17.0462157,6.01408459 16.9635928,6.09670754 C16.8809698,6.17933049 16.8022813,6.18326491 16.5701502,6.15572393 C16.2363446,6.09067614 15.8904873,6.16611004 15.6140846,6.36424852 L14.3275272,5.11703541 L18.4940846,0.950478029 Z M5.90392065,22.660642 L0.950478029,17.7071993 L2.75637967,15.9012977 L7.70982229,20.8547403 L5.90392065,22.660642 Z M8.26457639,20.2999862 L3.31113377,15.3465436 L13.3793305,5.27834688 L18.3327731,10.2317895 L8.26457639,20.2999862 Z M18.4940846,9.28359278 L16.1570354,6.9465436 C16.2573439,6.93002942 16.3596778,6.93002942 16.4599862,6.9465436 C16.8358366,7.04221912 17.2342784,6.93246009 17.5081162,6.65781453 C17.7819539,6.38316897 17.8905389,5.98440562 17.7937567,5.60883868 C17.7701502,5.35703541 17.7937567,5.28228131 17.8567075,5.21539606 C17.9196584,5.14851082 18.0140846,5.12490426 18.2501502,5.15244524 C18.6261959,5.23362353 19.0182085,5.12644406 19.300642,4.86523213 C19.5618539,4.58279867 19.6690334,4.19078609 19.5878551,3.81474032 C19.5603141,3.55900262 19.5878551,3.48424852 19.6508059,3.40162557 C19.7137567,3.31900262 19.8081829,3.31113377 20.0442485,3.33867475 C20.2847163,3.37835802 20.5313554,3.3553203 20.7603141,3.2717895 L22.660642,5.11703541 L18.4940846,9.28359278 Z" id="Shape"></path>
        </g>
    </g>
</svg>