<svg width="24" height="24" viewBox="0 0 24 24" fill="none" xmlns="http://www.w3.org/2000/svg">
<path fill-rule="evenodd" clip-rule="evenodd" d="M20.5133 12.3453C20.6017 12.2784 20.651 12.1719 20.645 12.0612C20.6406 11.9818 20.1212 4.13664 12.2802 4.13664C12.2553 4.13664 12.229 4.1368 12.2039 4.13696H12.1292C12.1175 4.13696 12.1063 4.13748 12.0951 4.138L12.095 4.138C12.0845 4.13849 12.074 4.13898 12.0631 4.13904C12.1627 3.46493 12.5984 2.00021 14.5166 1.66171C14.6979 1.62965 14.8188 1.4568 14.7869 1.27549C14.755 1.09433 14.5813 0.973078 14.4007 1.00514C11.9934 1.4299 11.4962 3.38703 11.3933 4.16164C4.25806 4.63609 3.77135 11.9847 3.7671 12.0612C3.76107 12.1719 3.81039 12.2784 3.89877 12.3453C3.98698 12.4118 4.10271 12.4304 4.20769 12.3949C4.41539 12.3239 4.64488 12.2326 4.88542 12.1297C4.65733 13.3914 4.36009 16.3726 5.93554 18.9849C7.15673 21.0101 9.23647 22.3582 12.1172 22.9922C12.1408 22.9974 12.1647 23 12.1888 23C12.2125 23 12.2361 22.9974 12.2596 22.9924C15.1521 22.3643 17.2412 21.0181 18.4682 18.9911C20.0443 16.3875 19.7561 13.4142 19.5288 12.1437C19.7768 12.2411 20.0062 12.3272 20.2044 12.3949C20.3085 12.4304 20.4249 12.4122 20.5133 12.3453ZM17.8951 18.6504C16.776 20.4958 14.8566 21.7318 12.1893 22.3252C9.53367 21.7266 7.62271 20.4886 6.50927 18.6454C4.79529 15.8083 5.50016 12.3732 5.63893 11.7856C6.89532 11.1809 8.26445 10.3918 8.85317 10.0453C10.1806 12.2592 11.9349 13.5087 12.0122 13.5629C12.0703 13.6037 12.1372 13.6236 12.2037 13.6236C12.3009 13.6236 12.3969 13.5813 12.4625 13.5005C12.5062 13.4468 13.5057 12.2095 14.7548 10.0211C15.4514 10.3511 17.2853 11.2111 18.7857 11.8408C18.9486 12.5632 19.5679 15.892 17.8951 18.6504ZM14.7614 9.28603C14.603 9.21002 14.4127 9.27024 14.3266 9.42389C13.3621 11.1467 12.5138 12.3308 12.1432 12.8234C11.5924 12.3796 10.2529 11.1916 9.26333 9.42389C9.21922 9.34511 9.14516 9.28749 9.05793 9.26438C9.02977 9.25706 9.00112 9.25331 8.97248 9.25331C8.91242 9.25331 8.85285 9.26959 8.80044 9.30117L8.79982 9.30154C8.74631 9.33366 6.18891 10.8688 4.49024 11.5738C4.73633 9.89019 5.98828 4.80363 12.1292 4.80363H12.206C12.2304 4.80346 12.254 4.80346 12.2783 4.80346C18.4313 4.80346 19.6793 9.90663 19.9228 11.5821C18.1155 10.8859 14.9184 9.36093 14.7666 9.28856L14.7666 9.28855L14.7614 9.28603ZM7.3019 16.0829C7.25877 15.904 7.07827 15.7933 6.89972 15.8369C6.72069 15.8801 6.61066 16.0601 6.65379 16.2391C6.777 16.7505 6.94709 17.2282 7.15884 17.6589C7.21694 17.7767 7.33527 17.8451 7.45831 17.8451C7.50763 17.8451 7.55776 17.8342 7.60512 17.8109C7.77032 17.7295 7.83836 17.5298 7.75714 17.3646C7.56688 16.9779 7.41372 16.5466 7.3019 16.0829ZM8.78029 18.7755C9.29477 19.2786 9.93963 19.7045 10.6969 20.0415C10.8652 20.1162 10.9409 20.3133 10.8661 20.4814C10.8109 20.6056 10.689 20.6795 10.5614 20.6795C10.5161 20.6795 10.4701 20.6702 10.4261 20.6505C9.59604 20.2814 8.88543 19.8108 8.31415 19.2521C8.18247 19.1233 8.1802 18.9124 8.30894 18.7807C8.43784 18.6492 8.64862 18.6469 8.78029 18.7755Z" fill="white"/>
<path d="M20.645 12.0612L20.8946 12.0477L20.8946 12.0474L20.645 12.0612ZM20.5133 12.3453L20.3624 12.1459L20.3624 12.1459L20.5133 12.3453ZM12.2039 4.13696L12.2039 4.38697L12.2055 4.38696L12.2039 4.13696ZM12.0951 4.138L12.0835 3.8881L12.0743 3.88887L12.0951 4.138ZM12.095 4.138L12.1066 4.3879L12.1158 4.38714L12.095 4.138ZM12.0631 4.13904L11.8158 4.10251L11.7732 4.39061L12.0645 4.38904L12.0631 4.13904ZM14.5166 1.66171L14.56 1.90791L14.5601 1.90789L14.5166 1.66171ZM14.7869 1.27549L15.0331 1.23217L15.0331 1.23213L14.7869 1.27549ZM14.4007 1.00514L14.4441 1.25134L14.4444 1.25129L14.4007 1.00514ZM11.3933 4.16164L11.4099 4.41109L11.6142 4.39751L11.6411 4.19457L11.3933 4.16164ZM3.7671 12.0612L3.51748 12.0474L3.51746 12.0477L3.7671 12.0612ZM3.89877 12.3453L3.74789 12.5446L3.74818 12.5448L3.89877 12.3453ZM4.20769 12.3949L4.28774 12.6317L4.28853 12.6315L4.20769 12.3949ZM4.88542 12.1297L5.13143 12.1741L5.21406 11.717L4.78704 11.8998L4.88542 12.1297ZM5.93554 18.9849L6.14963 18.8558L6.14962 18.8558L5.93554 18.9849ZM12.1172 22.9922L12.171 22.7481L12.1709 22.748L12.1172 22.9922ZM12.2596 22.9924L12.3122 23.2368L12.3126 23.2367L12.2596 22.9924ZM18.4682 18.9911L18.2543 18.8616L18.2543 18.8616L18.4682 18.9911ZM19.5288 12.1437L19.6203 11.911L19.204 11.7475L19.2828 12.1877L19.5288 12.1437ZM20.2044 12.3949L20.1235 12.6315L20.1238 12.6316L20.2044 12.3949ZM12.1893 22.3252L12.1343 22.5691L12.1889 22.5814L12.2436 22.5692L12.1893 22.3252ZM17.8951 18.6504L18.1089 18.78L18.1089 18.78L17.8951 18.6504ZM6.50927 18.6454L6.72326 18.5161L6.72325 18.5161L6.50927 18.6454ZM5.63893 11.7856L5.53052 11.5603L5.42304 11.612L5.39563 11.7281L5.63893 11.7856ZM8.85317 10.0453L9.06758 9.91674L8.94006 9.70407L8.72636 9.82986L8.85317 10.0453ZM12.0122 13.5629L12.156 13.3584L12.1557 13.3582L12.0122 13.5629ZM12.4625 13.5005L12.6566 13.6582L12.6566 13.6581L12.4625 13.5005ZM14.7548 10.0211L14.8619 9.79513L14.6525 9.69595L14.5377 9.89712L14.7548 10.0211ZM18.7857 11.8408L19.0296 11.7858L19.0013 11.6601L18.8825 11.6103L18.7857 11.8408ZM14.3266 9.42389L14.1085 9.30167L14.1085 9.30176L14.3266 9.42389ZM14.7614 9.28603L14.6532 9.51141L14.6538 9.51169L14.7614 9.28603ZM12.1432 12.8234L11.9863 13.0181L12.1876 13.1803L12.343 12.9737L12.1432 12.8234ZM9.26333 9.42389L9.48147 9.30177L9.48146 9.30175L9.26333 9.42389ZM9.05793 9.26438L9.12195 9.02272L9.12086 9.02243L9.05793 9.26438ZM8.80044 9.30117L8.92899 9.51558L8.92945 9.51531L8.80044 9.30117ZM8.79982 9.30154L8.67127 9.08712L8.67116 9.08719L8.79982 9.30154ZM4.49024 11.5738L4.24287 11.5376L4.17914 11.9736L4.58606 11.8047L4.49024 11.5738ZM12.206 4.80363V5.05363L12.2077 5.05362L12.206 4.80363ZM19.9228 11.5821L19.8329 11.8154L20.2316 11.969L20.1702 11.5461L19.9228 11.5821ZM14.7666 9.28856L14.8744 9.06273L14.8651 9.05877L14.7666 9.28856ZM14.7666 9.28855L14.659 9.51439L14.6681 9.51833L14.7666 9.28855ZM6.89972 15.8369L6.95828 16.08L6.95905 16.0798L6.89972 15.8369ZM7.3019 16.0829L7.05887 16.1415L7.05887 16.1415L7.3019 16.0829ZM6.65379 16.2391L6.41075 16.2977L6.41075 16.2977L6.65379 16.2391ZM7.15884 17.6589L6.93449 17.7692L6.93461 17.7694L7.15884 17.6589ZM7.60512 17.8109L7.71539 18.0353L7.7156 18.0352L7.60512 17.8109ZM7.75714 17.3646L7.98149 17.2543L7.98146 17.2542L7.75714 17.3646ZM10.6969 20.0415L10.5953 20.2699L10.5955 20.27L10.6969 20.0415ZM8.78029 18.7755L8.95508 18.5968L8.95496 18.5967L8.78029 18.7755ZM10.8661 20.4814L10.6377 20.3797L10.6376 20.3799L10.8661 20.4814ZM10.4261 20.6505L10.5284 20.4224L10.5277 20.4221L10.4261 20.6505ZM8.31415 19.2521L8.48895 19.0734L8.48892 19.0733L8.31415 19.2521ZM8.30894 18.7807L8.1304 18.6057L8.13019 18.6059L8.30894 18.7807ZM20.3953 12.0748C20.3968 12.1026 20.3845 12.1292 20.3624 12.1459L20.6642 12.5446C20.8189 12.4275 20.9051 12.2412 20.8946 12.0477L20.3953 12.0748ZM12.2802 4.38664C16.0954 4.38664 18.1094 6.28525 19.1835 8.19186C19.7238 9.1509 20.027 10.1149 20.1951 10.8456C20.2791 11.2104 20.3291 11.5158 20.3581 11.7313C20.3726 11.8391 20.3819 11.9243 20.3876 11.9831C20.3904 12.0126 20.3924 12.0354 20.3936 12.0511C20.3949 12.0673 20.3953 12.0753 20.3953 12.0751L20.8946 12.0474C20.8915 11.9917 20.757 9.96618 19.6191 7.94645C18.4722 5.91062 16.306 3.88664 12.2802 3.88664V4.38664ZM12.2055 4.38696C12.2307 4.38679 12.2563 4.38664 12.2802 4.38664V3.88664C12.2544 3.88664 12.2273 3.88681 12.2023 3.88697L12.2055 4.38696ZM12.1292 4.38696H12.2039V3.88696H12.1292V4.38696ZM12.1066 4.38774C12.1186 4.38718 12.1242 4.38696 12.1292 4.38696V3.88696C12.1108 3.88696 12.0939 3.88779 12.0835 3.88827L12.1066 4.38774ZM12.1158 4.38714L12.1158 4.38714L12.0743 3.88887L12.0743 3.88887L12.1158 4.38714ZM12.0645 4.38904C12.0813 4.38894 12.0968 4.38819 12.1066 4.38774L12.0835 3.88827C12.0722 3.88879 12.0667 3.88902 12.0617 3.88904L12.0645 4.38904ZM14.4731 1.41552C13.4496 1.59615 12.8048 2.08287 12.4062 2.62674C12.0125 3.16395 11.869 3.74244 11.8158 4.10251L12.3104 4.17557C12.3568 3.86153 12.4809 3.3706 12.8095 2.92231C13.1332 2.48066 13.6654 2.06578 14.56 1.90791L14.4731 1.41552ZM14.5407 1.3188C14.5487 1.3643 14.5184 1.40751 14.473 1.41553L14.5601 1.90789C14.8774 1.85179 15.0889 1.5493 15.0331 1.23217L14.5407 1.3188ZM14.4444 1.25129C14.489 1.24337 14.5328 1.27384 14.5407 1.31884L15.0331 1.23213C14.9772 0.91483 14.6737 0.702781 14.357 0.758988L14.4444 1.25129ZM11.6411 4.19457C11.6898 3.82836 11.8315 3.18824 12.2391 2.59353C12.6415 2.00635 13.3106 1.45136 14.4441 1.25134L14.3572 0.758945C13.0835 0.98369 12.3004 1.61964 11.8267 2.31087C11.3581 2.99456 11.1998 3.72031 11.1455 4.12871L11.6411 4.19457ZM4.01671 12.0751C4.0167 12.0753 4.01715 12.0679 4.01834 12.0527C4.01949 12.0379 4.02129 12.0165 4.02392 11.9888C4.02919 11.9335 4.03779 11.8535 4.05119 11.7521C4.07801 11.5492 4.12404 11.2613 4.2011 10.9158C4.35541 10.2239 4.6331 9.30597 5.12679 8.37809C6.1098 6.53051 7.94704 4.64135 11.4099 4.41109L11.3767 3.91219C7.70435 4.15638 5.73059 6.17875 4.68538 8.14323C3.64678 10.0953 3.5205 11.993 3.51748 12.0474L4.01671 12.0751ZM4.04965 12.1459C4.02759 12.1292 4.01521 12.1026 4.01673 12.0748L3.51746 12.0477C3.50693 12.2412 3.59319 12.4275 3.74789 12.5446L4.04965 12.1459ZM4.12764 12.1581C4.10061 12.1672 4.07128 12.1622 4.04936 12.1457L3.74818 12.5448C3.90269 12.6614 4.1048 12.6936 4.28774 12.6317L4.12764 12.1581ZM4.78704 11.8998C4.54971 12.0014 4.32647 12.0901 4.12684 12.1583L4.28853 12.6315C4.50431 12.5577 4.74005 12.4638 4.9838 12.3595L4.78704 11.8998ZM6.14962 18.8558C4.62223 16.3231 4.90655 13.4181 5.13143 12.1741L4.63941 12.0852C4.40811 13.3646 4.09795 16.422 5.72146 19.114L6.14962 18.8558ZM12.1709 22.748C9.33952 22.1249 7.32705 20.8084 6.14963 18.8558L5.72145 19.114C6.98641 21.2118 9.13343 22.5915 12.0634 23.2363L12.1709 22.748ZM12.1888 22.75C12.1828 22.75 12.1769 22.7494 12.171 22.7481L12.0633 23.2363C12.1046 23.2454 12.1466 23.25 12.1888 23.25V22.75ZM12.207 22.7479C12.2001 22.7494 12.1941 22.75 12.1888 22.75V23.25C12.2309 23.25 12.2722 23.2454 12.3122 23.2368L12.207 22.7479ZM18.2543 18.8616C17.0713 20.8159 15.0498 22.1307 12.2065 22.748L12.3126 23.2367C15.2545 22.5979 17.411 21.2203 18.6821 19.1205L18.2543 18.8616ZM19.2828 12.1877C19.5068 13.4403 19.7823 16.3376 18.2543 18.8616L18.6821 19.1205C20.3063 16.4375 20.0053 13.388 19.7749 12.0997L19.2828 12.1877ZM20.2852 12.1583C20.092 12.0923 19.8664 12.0077 19.6203 11.911L19.4374 12.3764C19.6871 12.4745 19.9205 12.5621 20.1235 12.6315L20.2852 12.1583ZM20.3624 12.1459C20.3407 12.1624 20.3111 12.1672 20.285 12.1583L20.1238 12.6316C20.3059 12.6936 20.5091 12.6619 20.6642 12.5446L20.3624 12.1459ZM12.2436 22.5692C14.9586 21.9652 16.9455 20.6983 18.1089 18.78L17.6814 18.5208C16.6064 20.2933 14.7545 21.4984 12.135 22.0812L12.2436 22.5692ZM6.29528 18.7746C7.45268 20.6906 9.43088 21.9597 12.1343 22.5691L12.2442 22.0813C9.63646 21.4935 7.79274 20.2866 6.72326 18.5161L6.29528 18.7746ZM5.39563 11.7281C5.25531 12.3223 4.52599 15.846 6.29529 18.7746L6.72325 18.5161C5.06459 15.7706 5.74501 12.4241 5.88224 11.8431L5.39563 11.7281ZM8.72636 9.82986C8.13894 10.1756 6.77713 10.9604 5.53052 11.5603L5.74735 12.0109C7.0135 11.4015 8.38997 10.6081 8.97999 10.2608L8.72636 9.82986ZM12.1557 13.3582C12.0912 13.313 10.3692 12.0875 9.06758 9.91674L8.63876 10.1739C9.99209 12.4309 11.7785 13.7044 11.8687 13.7676L12.1557 13.3582ZM12.2037 13.3736C12.1872 13.3736 12.1708 13.3688 12.156 13.3584L11.8684 13.7674C11.9698 13.8387 12.0872 13.8736 12.2037 13.8736V13.3736ZM12.2685 13.3429C12.2523 13.3629 12.2287 13.3736 12.2037 13.3736V13.8736C12.3732 13.8736 12.5416 13.7996 12.6566 13.6582L12.2685 13.3429ZM14.5377 9.89712C13.2967 12.0713 12.3055 13.2973 12.2685 13.3429L12.6566 13.6581C12.7068 13.5963 13.7146 12.3477 14.972 10.145L14.5377 9.89712ZM18.8825 11.6103C17.3877 10.9829 15.5582 10.125 14.8619 9.79513L14.6478 10.247C15.3446 10.5771 17.183 11.4393 18.689 12.0713L18.8825 11.6103ZM18.1089 18.78C19.8361 15.9319 19.1943 12.5163 19.0296 11.7858L18.5418 11.8958C18.7029 12.6102 19.2997 15.8521 17.6814 18.5208L18.1089 18.78ZM14.5447 9.5461C14.5665 9.50729 14.614 9.49262 14.6532 9.51141L14.8695 9.06065C14.592 8.92742 14.259 9.03319 14.1085 9.30167L14.5447 9.5461ZM12.343 12.9737C12.7189 12.474 13.5737 11.2805 14.5448 9.54601L14.1085 9.30176C13.1505 11.0129 12.3087 12.1876 11.9434 12.6732L12.343 12.9737ZM9.04518 9.54601C10.0566 11.3527 11.423 12.5642 11.9863 13.0181L12.3001 12.6288C11.7618 12.195 10.4492 11.0305 9.48147 9.30177L9.04518 9.54601ZM8.9939 9.50605C9.01541 9.51174 9.03401 9.52604 9.04519 9.54602L9.48146 9.30175C9.40443 9.16418 9.27492 9.06324 9.12195 9.02272L8.9939 9.50605ZM8.97248 9.50331C8.97926 9.50331 8.98677 9.50419 8.99499 9.50633L9.12086 9.02243C9.07276 9.00992 9.02298 9.00331 8.97248 9.00331V9.50331ZM8.92945 9.51531C8.94262 9.50737 8.95754 9.50331 8.97248 9.50331V9.00331C8.8673 9.00331 8.76307 9.03181 8.67143 9.08703L8.92945 9.51531ZM8.92837 9.51595L8.92899 9.51558L8.67189 9.08675L8.67127 9.08712L8.92837 9.51595ZM4.58606 11.8047C6.30497 11.0913 8.87869 9.54578 8.92849 9.51588L8.67116 9.08719C8.61392 9.12154 6.07285 10.6463 4.39441 11.3429L4.58606 11.8047ZM12.1292 4.55363C8.97684 4.55363 7.05576 5.86493 5.89914 7.40738C4.75184 8.93739 4.36862 10.6773 4.24287 11.5376L4.73761 11.6099C4.85795 10.7867 5.22375 9.1415 6.29917 7.70734C7.36528 6.2856 9.14064 5.05363 12.1292 5.05363V4.55363ZM12.206 4.55363H12.1292V5.05363H12.206V4.55363ZM12.2783 4.55346C12.2542 4.55346 12.2297 4.55346 12.2044 4.55363L12.2077 5.05362C12.2311 5.05347 12.2539 5.05346 12.2783 5.05346V4.55346ZM20.1702 11.5461C20.0458 10.6899 19.6642 8.94785 18.5167 7.41468C17.36 5.86905 15.4368 4.55346 12.2783 4.55346V5.05346C15.2727 5.05346 17.0501 6.28947 18.1164 7.71428C19.1921 9.15155 19.5563 10.7988 19.6754 11.618L20.1702 11.5461ZM14.659 9.5142C14.8079 9.58521 18.0146 11.1149 19.8329 11.8154L20.0127 11.3488C18.2163 10.6568 15.0289 9.13665 14.8743 9.06291L14.659 9.5142ZM14.6681 9.51833L14.6682 9.51834L14.8651 9.05877L14.8651 9.05876L14.6681 9.51833ZM14.6538 9.51169L14.659 9.51421L14.8742 9.06288L14.8689 9.06037L14.6538 9.51169ZM6.95905 16.0798C7.00231 16.0692 7.04796 16.0962 7.05887 16.1415L7.54494 16.0243C7.46958 15.7118 7.15423 15.5174 6.84039 15.5941L6.95905 16.0798ZM6.89684 16.1806C6.88602 16.1357 6.91358 16.0908 6.95828 16.08L6.84117 15.5939C6.5278 15.6694 6.3353 15.9845 6.41075 16.2977L6.89684 16.1806ZM7.38318 17.5486C7.18026 17.1358 7.01613 16.6757 6.89684 16.1806L6.41075 16.2977C6.53788 16.8253 6.71392 17.3206 6.93449 17.7692L7.38318 17.5486ZM7.45831 17.5951C7.42685 17.5951 7.39749 17.5776 7.38306 17.5483L6.93461 17.7694C7.03639 17.9759 7.24369 18.0951 7.45831 18.0951V17.5951ZM7.49486 17.5865C7.48283 17.5924 7.47055 17.5951 7.45831 17.5951V18.0951C7.54471 18.0951 7.63269 18.0759 7.71539 18.0353L7.49486 17.5865ZM7.53279 17.4749C7.55307 17.5162 7.53616 17.5662 7.49465 17.5866L7.7156 18.0352C8.00449 17.8929 8.12364 17.5435 7.98149 17.2543L7.53279 17.4749ZM7.05887 16.1415C7.17454 16.6212 7.33361 17.0701 7.53282 17.475L7.98146 17.2542C7.80014 16.8857 7.65289 16.472 7.54494 16.0243L7.05887 16.1415ZM10.7986 19.813C10.0643 19.4864 9.44536 19.0762 8.95508 18.5968L8.6055 18.9543C9.14419 19.481 9.81492 19.9227 10.5953 20.2699L10.7986 19.813ZM11.0944 20.5831C11.2255 20.2888 11.0931 19.9438 10.7984 19.813L10.5955 20.27C10.6374 20.2886 10.6564 20.3377 10.6377 20.3797L11.0944 20.5831ZM10.5614 20.9295C10.7843 20.9295 10.9978 20.8006 11.0945 20.5829L10.6376 20.3799C10.6239 20.4106 10.5937 20.4295 10.5614 20.4295V20.9295ZM10.3239 20.8786C10.4008 20.9131 10.4818 20.9295 10.5614 20.9295V20.4295C10.5504 20.4295 10.5393 20.4273 10.5284 20.4224L10.3239 20.8786ZM8.13934 19.4308C8.73458 20.013 9.47096 20.4994 10.3245 20.8789L10.5277 20.4221C9.72112 20.0634 9.03629 19.6087 8.48895 19.0734L8.13934 19.4308ZM8.13019 18.6059C7.90501 18.8362 7.90888 19.2055 8.13937 19.4308L8.48892 19.0733C8.45607 19.0412 8.45539 18.9885 8.48769 18.9555L8.13019 18.6059ZM8.95496 18.5967C8.72462 18.3717 8.35582 18.3758 8.1304 18.6057L8.48747 18.9557C8.51987 18.9227 8.57262 18.9221 8.60563 18.9544L8.95496 18.5967Z" fill="white"/>
</svg>
