<svg width="88" height="88" viewBox="0 0 88 88" fill="none" xmlns="http://www.w3.org/2000/svg">
<path d="M76.5717 7.3336C76.5296 7.33275 76.4881 7.33382 76.4458 7.33662C75.6582 7.38092 57.0533 8.58596 48.6742 20.6521C47.7578 22.0073 46.9815 23.452 46.3569 24.9641C45.5767 24.9521 44.7964 24.9363 44 24.9363C22.6703 24.9362 0 29.5622 0 38.1363C0 53.5288 11.4473 66.736 27.6158 72.1626C24.8532 73.0167 23.129 75.761 23.5583 78.6206C23.9876 81.4802 26.4416 83.5973 29.3332 83.6026H58.6668C61.5585 83.5973 64.0124 81.4802 64.4417 78.6206C64.871 75.761 63.1468 73.0167 60.3842 72.1626C76.5601 66.736 88 53.5288 88 38.1363C88 34.9404 84.9406 32.1787 78.9786 29.9024C81.271 19.4701 78.0752 8.83694 77.9329 8.37055C77.7513 7.76162 77.1974 7.3463 76.5717 7.3336ZM75.4367 10.3797C77.5267 18.7953 77.9033 31.0788 72.5031 37.6744C68.2717 43.541 61.0191 46.4903 55.6174 47.9408C54.0363 48.0655 52.467 48.1638 50.924 48.2342C54.2138 43.5013 56.1969 40.6457 57.4465 38.8476C58.8677 38.8754 63.4392 38.9604 63.2896 38.9604C64.0996 38.9679 64.7627 38.3179 64.7704 37.5078C64.778 36.6978 64.1275 36.0348 63.3175 36.0271L59.4543 35.952C60.041 35.1072 59.8135 35.4257 62.6589 31.3322C64.0801 31.3585 68.6621 31.4437 68.511 31.4437C69.321 31.4519 69.9843 30.8019 69.9924 29.9918C70.0004 29.1818 69.3502 28.5185 68.5402 28.5104L64.6713 28.4353C66.0881 26.3981 67.9449 23.7258 70.4265 20.1589C70.8894 19.491 70.723 18.5744 70.0552 18.1115C69.3873 17.6485 68.4707 17.8146 68.0078 18.4824L62.26 26.7506L60.8474 23.1762C60.6551 22.6886 60.2174 22.3407 59.699 22.2635C59.1806 22.1862 58.6605 22.3916 58.3344 22.8019C58.0083 23.2122 57.926 23.7652 58.1183 24.2528L60.2462 29.6531C57.5432 33.5441 57.6751 33.3579 57.04 34.2775L55.6264 30.693C55.3291 29.9389 54.4768 29.5686 53.7227 29.8659C52.9686 30.1631 52.5979 31.0154 52.8952 31.7696L55.0292 37.1772L47.941 47.3762C46.272 39.1086 46.288 29.2659 51.0855 22.3286C57.5066 13.0813 71.3198 10.8563 75.4367 10.3797ZM44 27.8695C44.44 27.8695 44.864 27.883 45.2981 27.8875C44.7642 29.801 44.4032 31.7586 44.2199 33.7366C33.1949 33.7366 14.118 35.121 4.63895 40.7677C3.72048 40.1746 3.09972 39.217 2.93329 38.1365C2.93329 33.8495 18.5563 27.8695 44 27.8695ZM78.2098 32.7447C82.5218 34.4314 85.0667 36.4056 85.0667 38.1363C84.9026 39.2126 84.2862 40.1674 83.3728 40.76C81.043 39.4487 78.5675 38.415 75.997 37.6801C76.9132 36.121 77.655 34.4659 78.2098 32.7447ZM44.0353 36.6696C43.9555 40.6075 44.3319 44.5414 45.1571 48.3926C34.5091 48.4792 17.0325 47.2192 7.52994 42.5362C16.7993 37.9617 33.707 36.6696 44.0353 36.6696ZM74.2047 40.2041C76.3635 40.7969 78.4662 41.5773 80.4892 42.5362C76.0894 44.5303 71.4305 45.8942 66.6499 46.5873C69.5481 44.955 72.1113 42.789 74.2047 40.2041ZM84.5299 43.5526C81.3649 59.5876 64.3999 71.8692 44 71.8692C23.6001 71.8692 6.63513 59.5875 3.47006 43.554C12.8362 50.2082 35.4434 51.581 46.9172 51.295C48.1037 51.3581 56.1235 50.8389 56.3156 50.7905C64.6213 50.1041 77.7657 48.3604 84.5299 43.5526ZM29.3332 74.8028H58.6668C60.2868 74.8028 61.6001 76.116 61.6001 77.7361C61.6001 79.3561 60.2868 80.6693 58.6668 80.6693H29.3332C27.7132 80.6693 26.3999 79.3561 26.3999 77.7361C26.3999 76.116 27.7132 74.8028 29.3332 74.8028Z" fill="white"/>
</svg>
