<svg width="24" height="24" viewBox="0 0 24 24" fill="none" xmlns="http://www.w3.org/2000/svg">
<path d="M20.7363 12.3682L20.6991 12.5358L20.8701 12.5197C21.206 12.488 21.5452 12.4706 21.8887 12.4706C22.3106 12.4706 22.6525 12.8125 22.6525 13.2344C22.6525 19.0964 17.8319 23.8687 11.9006 23.8745C11.8987 23.8745 11.8967 23.8745 11.8948 23.8746C11.8906 23.8746 11.8865 23.8747 11.8824 23.875C5.94875 23.8716 1.125 19.0982 1.125 13.2342C1.125 12.8123 1.4669 12.4704 1.8888 12.4704C2.23171 12.4704 2.57127 12.488 2.90702 12.5194L3.07782 12.5354L3.0407 12.3679C2.46306 9.76156 2.69945 7.03088 3.74297 4.54368C3.90529 4.15734 4.34754 3.97302 4.73663 4.13227C5.774 4.55694 6.7375 5.1093 7.62051 5.76343L7.75136 5.86036L7.81118 5.7089C8.60033 3.71048 9.80485 1.87345 11.3521 0.345541L11.3521 0.345466C11.6493 0.0515484 12.1277 0.0514517 12.4255 0.345534L12.4255 0.345541C13.9724 1.87319 15.1772 3.70996 15.9666 5.70864L16.0264 5.86001L16.1572 5.7632C17.0406 5.10955 18.0041 4.55666 19.0409 4.13255L19.041 4.13251C19.4293 3.97328 19.8725 4.15743 20.0345 4.54386L20.0345 4.54388C21.0781 7.03136 21.3142 9.7626 20.7363 12.3682ZM18.9497 6.00382L18.9045 5.8658L18.7747 5.93104C17.0631 6.79173 15.6049 8.0493 14.5035 9.60515L14.4567 9.67129L14.498 9.74103C15.2671 11.0408 15.8054 12.465 16.0856 13.9533L16.119 14.1306L16.2733 14.037C17.1009 13.5352 18.0033 13.1421 18.9582 12.8748L19.0248 12.8561L19.0444 12.7897C19.6992 10.566 19.6699 8.20331 18.9497 6.00382ZM11.9822 2.09672L11.8888 1.9917L11.7954 2.09673C10.5585 3.48776 9.61192 5.111 9.01401 6.85416L8.98856 6.92834L9.04428 6.98352C9.4347 7.37024 9.80516 7.77565 10.1442 8.20882L10.2414 8.33301L10.3401 8.21002C10.6551 7.81761 10.9911 7.44018 11.3521 7.08365L11.3521 7.08358C11.6493 6.78966 12.1277 6.78957 12.4255 7.08365L12.5133 6.99471L12.4255 7.08365C12.7862 7.43993 13.1228 7.81764 13.4377 8.21002L13.5364 8.33306L13.6336 8.20879C13.9724 7.77562 14.3429 7.36996 14.7333 6.98326L14.789 6.92805L14.7635 6.85386C14.1651 5.11075 13.2191 3.48724 11.9822 2.09672ZM5.00253 5.93103L4.87279 5.86582L4.8276 6.00381C4.10737 8.20278 4.07835 10.5657 4.73234 12.7892L4.75187 12.8556L4.81851 12.8743C5.77397 13.1421 6.67603 13.5354 7.50393 14.0378L7.65821 14.1314L7.69162 13.9541C7.97212 12.4653 8.51013 11.0408 9.27929 9.74103L9.32055 9.6713L9.27374 9.60516C8.17262 8.0493 6.71475 6.79173 5.00253 5.93103ZM2.83927 14.0463L2.68623 14.0308L2.70235 14.1838C3.15267 18.4571 6.6078 21.8601 10.9383 22.2996L11.0913 22.3151L11.0752 22.1621C10.6249 17.8885 7.1695 14.4852 2.83927 14.0463ZM11.775 18.9034L11.8895 19.1653L12.0041 18.9035C12.6203 17.495 13.5341 16.2427 14.6687 15.2265L14.7165 15.1837L14.7096 15.1199C14.4583 12.8033 13.5118 10.6155 11.9834 8.84555L11.8888 8.73599L11.7942 8.84555C10.2658 10.6155 9.3195 12.8031 9.06771 15.1201L9.06077 15.1839L9.10859 15.2267C10.2438 16.2433 11.1594 17.4951 11.775 18.9034ZM12.7026 22.1618L12.6865 22.3148L12.8395 22.2993C17.1695 21.8601 20.6246 18.4571 21.0752 14.1835L21.0913 14.0306L20.9383 14.0461C16.608 14.485 13.1529 17.8882 12.7026 22.1618Z" fill="white" stroke="#125936" stroke-width="0.25"/>
</svg>
