<?xml version="1.0" encoding="UTF-8"?>
<svg width="24px" height="24px" viewBox="0 0 24 24" version="1.1" xmlns="http://www.w3.org/2000/svg" xmlns:xlink="http://www.w3.org/1999/xlink">
    <!-- Generator: Sketch 51.3 (57544) - http://www.bohemiancoding.com/sketch -->
    <title>icon strain flavor / lavender</title>
    <desc>Created with Sketch.</desc>
    <defs></defs>
    <g id="icon-strain-flavor-/-lavender" stroke="none" stroke-width="1" fill="none" fill-rule="evenodd">
        <path d="M18.9144828,0.149793103 C19.0242759,0.0700689655 19.1942069,0 19.2838621,0 C19.5536552,0 19.9434483,0.369655172 20.1233103,0.819034483 C20.3230345,1.30868966 20.3528276,2.36772414 20.1732414,2.69710345 L20.0634483,2.90703448 L19.553931,2.62731034 C19.2742069,2.47751724 18.9343448,2.20772414 18.8046897,2.02786207 C18.3550345,1.43834483 18.4046897,0.499586207 18.9144828,0.149793103 Z M9.63365517,1.65131034 C10.0532414,1.49158621 10.3828966,1.76137931 10.3831724,2.26068966 C10.3831724,2.72027586 10.2532414,3.04993103 9.8137931,3.65931034 C9.32386207,4.33848276 8.77462069,4.39862069 8.65489655,3.77931034 C8.54482759,3.1897931 9.17406897,1.82124138 9.63365517,1.65131034 Z M21.6215172,1.66841379 C21.7315862,1.63834483 21.8513103,1.61848276 21.8915862,1.60855172 C21.9313103,1.60855172 22.0413793,1.71834483 22.1412414,1.8582069 C22.5406897,2.46758621 21.7613793,3.38648276 20.8521379,3.39668966 C20.4027586,3.39668966 20.3928276,3.32689655 20.7125517,2.64744828 C20.9622069,2.10786207 21.3017931,1.74841379 21.6215172,1.66841379 Z M6.9862069,2.57765517 C7.4857931,2.17765517 8.07503448,2.44744828 8.27475862,3.15668966 C8.37462069,3.49627586 8.26482759,4.89489655 8.12496552,5.11475862 C8.04496552,5.23475862 7.55558621,5.09489655 7.3257931,4.88496552 C7.21572414,4.77544828 7.016,4.48524138 6.89627586,4.23558621 C6.59668966,3.64634483 6.63668966,2.85710345 6.9862069,2.57765517 Z M18.2548966,3.09682759 C18.5249655,2.87724138 19.0742069,2.83696552 19.374069,2.99696552 C19.6135172,3.12689655 20.0731034,3.896 20.0731034,4.1657931 C20.0731034,4.27586207 20.0132414,4.42565517 19.9332414,4.48524138 C19.7133793,4.67531034 18.7244138,4.74510345 18.3848276,4.59531034 C17.8353103,4.37572414 17.7553103,3.48634483 18.2548966,3.09682759 Z M8.96027586,4.63806897 C9.24993103,4.46813793 9.86924138,4.49793103 10.0491034,4.67806897 C10.1787586,4.808 10.1886897,4.87806897 10.0788966,5.13765517 C9.91917241,5.53737931 9.59972414,5.76689655 8.91034483,6.00662069 C8.01075862,6.31641379 7.71117241,6.35613793 7.71117241,6.17655172 C7.71117241,5.82675862 8.45075862,4.9177931 8.96027586,4.63806897 Z M5.67751724,4.83503448 C6.48689655,4.02593103 7.28606897,4.87503448 7.28606897,6.54344828 C7.28606897,7.00303448 7.26593103,7.04303448 7.05627586,7.04303448 C6.65655172,7.04303448 5.80744828,6.55337931 5.58758621,6.20386207 C5.288,5.71448276 5.328,5.19475862 5.67751724,4.83503448 Z M20.6126897,4.59531034 C21.0722759,4.37572414 21.392,4.34565517 21.6816552,4.49544828 C21.9914483,4.66537931 21.9511724,5.42455172 21.6115862,5.68413793 C21.2717241,5.95393103 20.7522759,6.04386207 20.1931034,5.9337931 C19.5335172,5.80413793 19.4435862,5.58427586 19.8733793,5.14482759 C20.0532414,4.95503448 20.3928276,4.70510345 20.6126897,4.59531034 Z M8.05544828,6.56496552 C8.34482759,6.41517241 8.70455172,6.29517241 8.86455172,6.29517241 C9.5337931,6.29517241 9.8137931,7.17434483 9.28413793,7.59393103 C9.0342069,7.79393103 8.9142069,7.8137931 8.17517241,7.7737931 C7.72551724,7.74372414 7.3062069,7.68386207 7.25627586,7.63393103 C7.0662069,7.44441379 7.50593103,6.85462069 8.05544828,6.56496552 Z M17.4758621,5.81958621 C17.7155862,5.57986207 18.3550345,5.5497931 18.7743448,5.76965517 C19.2537931,6.01958621 19.5235862,6.72882759 19.2835862,7.10841379 C19.2237241,7.20827586 18.9638621,7.26841379 18.5544828,7.2982069 C18.0548966,7.31834483 17.8551724,7.28855172 17.6055172,7.12855172 C17.3161379,6.94841379 17.2758621,6.86868966 17.2758621,6.46896552 C17.2758621,6.14924138 17.3357241,5.95944828 17.4758621,5.81958621 Z M4.68441379,6.80303448 C4.904,6.56331034 5.50344828,6.51337931 5.78317241,6.72358621 C5.90317241,6.81324138 6.03282759,7.17296552 6.15282759,7.75227586 C6.42262069,9.05075862 6.41241379,9.17075862 6.00303448,9.24082759 C5.23393103,9.39062069 4.49462069,8.58151724 4.49462069,7.58206897 C4.49462069,7.16275862 4.54455172,6.96303448 4.68441379,6.80303448 Z M20.3227586,6.97296552 C20.5128276,6.93324138 20.6926897,6.90317241 20.7224828,6.89296552 C20.7525517,6.89296552 20.8822069,6.95310345 21.0022069,7.04275862 C21.2518621,7.22262069 21.3017931,7.81213793 21.0822069,8.10206897 C20.8623448,8.40165517 20.1332414,8.60137931 19.5536552,8.54151724 C18.8245517,8.46124138 18.7045517,8.40165517 18.7842759,8.1417931 C18.934069,7.65241379 19.6433103,7.11282759 20.3227586,6.97296552 Z M16.5293793,7.43586207 C16.8689655,7.096 17.2085517,7.15586207 17.6582069,7.62565517 C18.1177931,8.11503448 18.3473103,9.08413793 18.0675862,9.36386207 C17.8777931,9.55365517 17.3784828,9.50372414 17.0286897,9.264 C16.6292414,8.9942069 16.4193103,8.63475862 16.3293793,8.10510345 C16.2797241,7.75531034 16.2993103,7.66565517 16.5293793,7.43586207 Z M7.66758621,8.08413793 C8.34703448,7.78427586 8.80634483,7.91393103 8.91668966,8.42372414 C9.04662069,8.98317241 8.40689655,9.41268966 7.42813793,9.41268966 C6.76855172,9.41268966 6.56882759,9.34262069 6.56882759,9.12303448 C6.56882759,8.89324138 7.22813793,8.26372414 7.66758621,8.08413793 Z M15.3577931,9.13324138 C15.6675862,8.85351724 15.9671724,8.84358621 16.3067586,9.10344828 C16.6063448,9.34317241 16.7762759,9.85268966 16.7762759,10.5321379 C16.7762759,11.1613793 16.6364138,11.2013793 15.8273103,10.8217931 C15.3577931,10.592 15.1478621,10.432 15.078069,10.2422069 C14.9382069,9.87282759 15.048,9.42317241 15.3577931,9.13324138 Z M19.1067586,8.96855172 C19.7161379,8.80855172 19.856,8.80855172 20.2057931,8.93875862 C20.5453793,9.06841379 20.6353103,9.18841379 20.6353103,9.59806897 C20.6353103,10.2474483 19.4562759,10.6471724 18.6071724,10.2973793 C18.2874483,10.1575172 18.2375172,10.0973793 18.2375172,9.7977931 C18.2375172,9.368 18.4871724,9.13848276 19.1067586,8.96855172 Z M4.31889655,9.34289655 C4.74868966,9.15282759 4.81848276,9.16275862 5.10841379,9.39282759 C5.50813793,9.70234483 5.81737931,10.5417931 5.80772414,11.2708966 C5.80772414,11.6204138 5.77765517,11.9404138 5.73765517,11.9702069 C5.60772414,12.1001379 4.82841379,11.5608276 4.41875862,11.0612414 C3.75944828,10.272 3.71944828,9.60248276 4.31889655,9.34289655 Z M7.1862069,9.68717241 C7.26593103,9.65682759 7.47586207,9.62703448 7.65572414,9.62703448 C8.24524138,9.60689655 8.37489655,10.2965517 7.88551724,10.856 C7.40606897,11.3953103 6.30703448,11.5351724 6.12717241,11.0755862 C5.99724138,10.745931 6.64662069,9.88689655 7.1862069,9.68717241 Z M14.2190345,10.5401379 C14.4190345,10.4601379 14.9583448,10.5001379 15.0582069,10.6002759 C15.2681379,10.809931 15.2681379,12.678069 15.0681379,12.808 C14.8982069,12.9078621 14.2788966,12.5282759 14.0788966,12.1986207 C13.6794483,11.5492414 13.7393103,10.750069 14.2190345,10.5401379 Z M17.4708966,10.7489655 C17.7602759,10.6093793 18.0902069,10.4896552 18.2102069,10.4896552 C18.8995862,10.4896552 19.3089655,11.6681379 18.7795862,12.088 C18.6096552,12.2176552 18.369931,12.2877241 18.0604138,12.2877241 C17.5806897,12.2877241 16.4617931,12.038069 16.321931,11.897931 C16.1922759,11.768 16.9415172,11.0088276 17.4708966,10.7489655 Z M1.74096552,11.2598621 C2.11034483,10.8204138 2.2902069,10.7804138 2.20082759,11.16 C1.72110345,13.4273103 1.87089655,13.9969655 3.40937931,15.6855172 C4.22841379,16.5944828 4.50813793,17.0438621 4.728,17.8333793 C4.85793103,18.3028966 4.77793103,18.4827586 4.44827586,18.4827586 C4.08855172,18.4827586 3.98841379,18.3925517 3.79917241,17.9531034 C3.61903448,17.513931 3.25958621,17.0342069 2.40055172,16.0852414 C2.07062069,15.7255172 1.67117241,15.1462069 1.51117241,14.7867586 C1.24165517,14.2366897 1.20137931,14.0270345 1.20137931,13.2877241 C1.20137931,12.2686897 1.33131034,11.7693793 1.74096552,11.2598621 Z M3.33986207,11.2888276 C3.55972414,10.8590345 4.01931034,10.8990345 4.34896552,11.3784828 C4.62841379,11.7881379 4.98813793,12.8670345 4.98813793,13.2968276 C4.98813793,13.6761379 4.80855172,13.7362759 4.32882759,13.5362759 C3.35972414,13.1368276 2.91006897,12.1078621 3.33986207,11.2888276 Z M12.4209655,11.4584828 C13.1801379,11.1486897 13.7594483,11.8783448 13.6797241,13.0369655 C13.649931,13.5365517 13.649931,13.5365517 13.2802759,13.5663448 C12.5707586,13.6264828 12.0013793,13.0769655 12.0013793,12.337931 C12.0013793,12.0278621 12.2411034,11.5282759 12.4209655,11.4584828 Z M6.704,11.753931 C7.50344828,11.3641379 7.97296552,12.2631724 7.47365517,13.2325517 C7.2137931,13.7318621 6.98372414,13.8617931 6.5942069,13.721931 C6.30455172,13.622069 5.97462069,13.2626207 5.97462069,13.0424828 C5.97462069,12.7826207 6.50427586,11.8435862 6.704,11.753931 Z M15.790069,12.7470345 C16.1994483,12.5674483 17.0187586,12.5373793 17.2990345,12.6871724 C17.5986207,12.8471724 17.5586207,13.5263448 17.2388966,13.8262069 C16.8990345,14.1462069 16.1897931,14.3257931 15.6703448,14.2457931 C15.2507586,14.176 14.7911724,13.8562759 14.7911724,13.6364138 C14.7911724,13.4565517 15.4005517,12.9169655 15.790069,12.7470345 Z M5.22813793,13.1070345 C5.33793103,12.9268966 5.56772414,12.9668966 5.68772414,13.1768276 C5.73765517,13.2866207 5.78758621,13.8364138 5.78758621,14.4057931 C5.78758621,15.6844138 6.01737931,17.8422069 6.27696552,19.1409655 C6.46675862,20.04 6.79668966,21.1188966 7.53572414,23.1668966 C7.67558621,23.5666207 7.77544828,23.9263448 7.74565517,23.9462069 C7.656,24.0358621 7.23613793,23.886069 6.88662069,23.6562759 C6.14731034,23.1569655 5.53793103,21.1988966 5.23834483,18.3715862 C5.05848276,16.7533793 5.05848276,13.3768276 5.22813793,13.1070345 Z M13.8993103,13.6422069 C14.0491034,13.4024828 14.6485517,13.801931 14.8982069,14.3213793 C15.097931,14.7211034 15.137931,15.2504828 14.9881379,15.6002759 C14.8182069,16.0096552 14.7583448,16.0598621 14.2488276,16.129931 C13.9092414,16.1795862 13.8391724,16.1495172 13.6993103,15.929931 C13.4893793,15.6102069 13.4794483,14.9608276 13.6893793,14.2615172 C13.7793103,13.9616552 13.8695172,13.6924138 13.8993103,13.6422069 Z M12.4308966,14.2457931 C12.9704828,13.966069 13.3795862,13.9158621 13.3798621,14.1062069 C13.3798621,14.176 13.0502069,14.5456552 12.6507586,14.9351724 C11.5415172,15.9942069 7.35586207,18.5213793 6.57655172,18.6016552 C6.02703448,18.6615172 6.35696552,17.8521379 7.016,17.5125517 C7.19613793,17.4226207 8.12496552,16.8532414 9.08413793,16.233931 C10.8524138,15.1051034 11.5315862,14.7053793 12.4308966,14.2457931 Z M17.064,16.9903448 C17.5431724,16.6604138 18.1528276,16.5804138 18.3423448,16.8002759 C18.5125517,17.009931 18.2126897,17.6893793 17.7828966,18.0788966 C17.4135172,18.4088276 16.4143448,18.8582069 15.0157241,19.3277241 C14.7462069,19.4173793 14.0168276,19.5671724 13.3975172,19.6573793 C12.1986207,19.8273103 12.0990345,19.8273103 9.42151724,19.3175172 C8.86206897,19.208 8.34289655,19.1878621 7.67337931,19.2278621 C6.84441379,19.288 6.74455172,19.2777931 6.8742069,19.1481379 C7.03393103,18.998069 7.77324138,18.7282759 8.37268966,18.6184828 C8.5622069,18.5784828 9.87089655,18.5486897 11.2695172,18.5384828 C13.6471724,18.5285517 13.8571034,18.5086897 14.4565517,18.2990345 C15.2157241,18.0292414 16.4444138,17.4096552 17.064,16.9903448 Z M3.28744828,20.1577931 C3.98675862,19.4584828 4.6262069,18.8891034 4.7062069,18.8891034 C4.80606897,18.8891034 4.90593103,19.0190345 4.95586207,19.2088276 C5.0457931,19.5282759 5.01572414,19.5685517 3.97682759,20.6474483 C3.06758621,21.5964138 2.848,21.886069 2.43834483,22.7153103 C1.96882759,23.6742069 1.64910345,24.033931 1.31944828,23.9638621 C0.480275862,23.8041379 1.34924138,22.1257931 3.28744828,20.1577931 Z" id="Combined-Shape" fill="#FFFFFF" fill-rule="nonzero"></path>
    </g>
</svg>