<svg width="24" height="24" viewBox="0 0 24 24" fill="none" xmlns="http://www.w3.org/2000/svg">
<path fill-rule="evenodd" clip-rule="evenodd" d="M16.8667 13.16C17.226 13.7017 17.4603 14.3166 17.5527 14.96C18.0667 15.3742 18.4817 15.898 18.7672 16.4932C19.0528 17.0884 19.2017 17.7399 19.2031 18.4C19.2086 19.5597 18.7539 20.6743 17.9387 21.4992C17.1235 22.324 16.0144 22.7919 14.8547 22.8C14.6365 22.7981 14.4187 22.7802 14.2031 22.7464C13.6801 23.133 13.0772 23.3977 12.4387 23.5211C11.8001 23.6445 11.1421 23.6235 10.5127 23.4596C9.92427 23.7817 9.27 23.965 8.59988 23.9955C7.92977 24.0259 7.26155 23.9028 6.64633 23.6354C6.0311 23.3681 5.48515 22.9636 5.05021 22.4529C4.61527 21.9422 4.30286 21.3388 4.13686 20.6889C3.97085 20.0389 3.95566 19.3596 4.09242 18.7029C4.22919 18.0462 4.51431 17.4294 4.92597 16.8998C5.33763 16.3702 5.86495 15.9417 6.4676 15.647C7.07025 15.3524 7.73229 15.1995 8.40309 15.2C8.54469 15.2 8.68309 15.208 8.82109 15.2212C8.88369 14.479 9.13498 13.765 9.55109 13.1472L10.4031 1.57081C10.4088 1.47009 10.4524 1.37524 10.5251 1.30528C10.5977 1.23532 10.6942 1.1954 10.795 1.19353C10.8959 1.19166 10.9937 1.22797 11.069 1.29519C11.1442 1.36241 11.1912 1.45557 11.2007 1.55601L11.6031 5.17801L12.0063 1.55601C12.0133 1.49234 12.0356 1.4313 12.0711 1.37801L12.8711 0.178007C12.9176 0.108336 12.9848 0.0550128 13.0632 0.0255563C13.1416 -0.00390029 13.2272 -0.00800422 13.3081 0.0138231C13.3889 0.0356505 13.4609 0.0823079 13.5138 0.147216C13.5668 0.212125 13.598 0.29201 13.6031 0.375606L14.1411 9.2448L15.1943 0.750806C15.2065 0.652145 15.2549 0.56155 15.3303 0.496677C15.4056 0.431805 15.5024 0.397306 15.6017 0.399902C15.7011 0.402499 15.796 0.442006 15.8678 0.510724C15.9396 0.579441 15.9833 0.672444 15.9903 0.771606L16.8667 13.16ZM15.9975 12.2L15.4831 4.92721L14.6731 11.4532C15.1548 11.6228 15.6031 11.8756 15.9975 12.2ZM11.2031 8.84401L10.8831 5.95001L10.4243 12.1916C11.208 11.5495 12.19 11.1989 13.2031 11.1996C13.2678 11.1996 13.3315 11.2036 13.3951 11.2077C13.4164 11.209 13.4377 11.2104 13.4591 11.2116L12.8759 1.61161L12.7899 1.74081L11.9983 8.84401C11.9875 8.94193 11.941 9.03242 11.8676 9.09816C11.7943 9.1639 11.6992 9.20025 11.6007 9.20025C11.5022 9.20025 11.4071 9.1639 11.3338 9.09816C11.2604 9.03242 11.2139 8.94193 11.2031 8.84401ZM15.2664 12.6474C14.6616 12.2245 13.9411 11.9985 13.2031 12C12.3034 12.0013 11.4367 12.3391 10.7735 12.947C10.1103 13.555 9.6985 14.389 9.61909 15.2852C10.2329 14.9694 10.9128 14.8031 11.6031 14.8C11.8321 14.8016 12.0606 14.8205 12.2867 14.8564C13.0288 14.3032 13.929 14.003 14.8547 14C15.4498 13.9991 16.0386 14.1227 16.5831 14.3628C16.331 13.6692 15.8713 13.0702 15.2664 12.6474ZM6.40304 22.5933C6.99506 22.9889 7.69108 23.2 8.40309 23.2C9.35752 23.1988 10.2725 22.8192 10.9474 22.1443C11.6223 21.4694 12.0019 20.5544 12.0031 19.6C12.0031 18.888 11.792 18.192 11.3964 17.5999C11.0008 17.0079 10.4386 16.5465 9.78075 16.274C9.12294 16.0016 8.3991 15.9303 7.70077 16.0692C7.00244 16.2081 6.36098 16.5509 5.85751 17.0544C5.35404 17.5579 5.01117 18.1993 4.87227 18.8977C4.73336 19.596 4.80465 20.3198 5.07713 20.9777C5.3496 21.6355 5.81102 22.1977 6.40304 22.5933ZM11.4207 22.7936C12.2935 22.8392 13.153 22.5652 13.8383 22.0228C14.2643 21.686 14.6085 21.2571 14.8449 20.7681C15.0813 20.2792 15.2037 19.7431 15.2031 19.2C15.2031 19.0804 15.1955 18.9648 15.1851 18.8492C15.1074 18.0744 14.7815 17.3454 14.2559 16.7709C13.7303 16.1964 13.0331 15.807 12.2683 15.6608L12.2511 15.6584C12.0371 15.6205 11.8204 15.601 11.6031 15.6C11.246 15.6017 10.8911 15.6567 10.5503 15.7632C11.1533 16.0991 11.6685 16.5724 12.0542 17.1448C12.4398 17.7172 12.685 18.3725 12.7698 19.0575C12.8546 19.7425 12.7766 20.4378 12.5422 21.0869C12.3078 21.7361 11.9235 22.3208 11.4207 22.7936ZM16.0031 19.2C16.0037 20.2194 15.6483 21.2071 14.9983 21.9924C15.7363 21.9506 16.4437 21.6831 17.0248 21.2261C17.6058 20.769 18.0323 20.1445 18.2467 19.4371C18.4611 18.7296 18.4529 17.9733 18.2233 17.2707C17.9938 16.568 17.5538 15.9528 16.9631 15.5084C16.3572 15.047 15.6162 14.7981 14.8547 14.8C14.3252 14.8017 13.803 14.9231 13.3271 15.1552C14.0525 15.4661 14.6813 15.9658 15.1481 16.6021C15.6149 17.2385 15.9027 17.9883 15.9815 18.7736C15.9947 18.9152 16.0031 19.0556 16.0031 19.2ZM8.40313 16.8C7.84934 16.8 7.30799 16.9642 6.84753 17.2719C6.38707 17.5796 6.02819 18.0169 5.81626 18.5285C5.60434 19.0401 5.54889 19.6031 5.65693 20.1462C5.76497 20.6894 6.03164 21.1883 6.42323 21.5799C6.81481 21.9715 7.31373 22.2382 7.85687 22.3462C8.40002 22.4542 8.96301 22.3988 9.47464 22.1869C9.98627 21.9749 10.4236 21.6161 10.7312 21.1556C11.0389 20.6951 11.2031 20.1538 11.2031 19.6C11.2023 18.8577 10.907 18.146 10.3821 17.621C9.85717 17.0961 9.14547 16.8008 8.40313 16.8ZM8.40313 21.6C8.00756 21.6 7.62088 21.4827 7.29199 21.2629C6.96309 21.0432 6.70674 20.7308 6.55537 20.3654C6.40399 19.9999 6.36438 19.5978 6.44156 19.2098C6.51873 18.8219 6.70921 18.4655 6.98891 18.1858C7.26862 17.9061 7.62498 17.7156 8.01294 17.6384C8.40091 17.5613 8.80304 17.6009 9.16849 17.7522C9.53394 17.9036 9.8463 18.16 10.0661 18.4889C10.2858 18.8178 10.4031 19.2044 10.4031 19.6C10.4025 20.1302 10.1916 20.6386 9.81664 21.0135C9.4417 21.3884 8.93336 21.5994 8.40313 21.6ZM8.403 18.4C8.10642 18.4009 7.82073 18.5118 7.60128 18.7113C7.38179 18.9109 7.24419 19.1848 7.21515 19.48H7.21115V19.5108C7.21021 19.5226 7.20858 19.5343 7.20695 19.5459C7.20445 19.5637 7.20195 19.5816 7.20195 19.6C7.20195 19.8373 7.27233 20.0693 7.40419 20.2667C7.53605 20.464 7.72346 20.6178 7.94273 20.7087C8.162 20.7995 8.40328 20.8232 8.63606 20.7769C8.86884 20.7306 9.08266 20.6163 9.25048 20.4485C9.4183 20.2807 9.53259 20.0669 9.57889 19.8341C9.6252 19.6013 9.60143 19.36 9.51061 19.1408C9.41978 18.9215 9.26598 18.7341 9.06864 18.6022C8.87159 18.4706 8.63997 18.4002 8.403 18.4ZM8.40315 20C8.32994 19.9994 8.25832 19.9786 8.1962 19.9398C8.13408 19.9011 8.08389 19.8459 8.05115 19.7804C8.03715 19.6936 8.02555 19.6088 8.01715 19.5312C8.03221 19.4394 8.07918 19.3558 8.14979 19.2952C8.2204 19.2347 8.31012 19.2009 8.40315 19.2C8.50924 19.2 8.61098 19.2421 8.686 19.3172C8.76101 19.3922 8.80315 19.4939 8.80315 19.6C8.80315 19.7061 8.76101 19.8078 8.686 19.8828C8.61098 19.9579 8.50924 20 8.40315 20Z" fill="white"/>
</svg>
