<?xml version="1.0" encoding="UTF-8"?>
<svg width="24px" height="24px" viewBox="0 0 24 24" version="1.1" xmlns="http://www.w3.org/2000/svg" xmlns:xlink="http://www.w3.org/1999/xlink">
    <!-- Generator: Sketch 51.3 (57544) - http://www.bohemiancoding.com/sketch -->
    <title>icon strain flavor / mango</title>
    <desc>Created with Sketch.</desc>
    <defs></defs>
    <g id="icon-strain-flavor-/-mango" stroke="none" stroke-width="1" fill="none" fill-rule="evenodd">
        <g id="Group-2" fill="#FFFFFF" fill-rule="nonzero">
            <path d="M8.31276755,9.66425663 C8.33943422,9.4509233 8.01943422,9.34425663 7.88610089,9.47758997 C6.65943422,10.7842566 6.68610089,13.0242566 7.08610089,14.67759 C7.27276755,15.4509233 8.49943422,15.1309233 8.28610089,14.35759 C8.07276755,13.55759 7.96610089,12.75759 8.01943422,11.9309233 C8.04610089,11.15759 8.25943422,10.43759 8.31276755,9.66425663 Z" id="Path"></path>
            <path d="M22.4194342,13.15759 C21.9394342,12.1709233 21.8594342,11.0242566 21.7527676,9.9309233 C21.5661009,8.03758997 21.2994342,6.03758997 19.6727676,4.78425663 C18.8461009,4.14425663 17.8327676,3.82425663 16.7927676,3.74425663 C15.8327676,3.66425663 14.4461009,3.71758997 13.6461009,4.3309233 C13.3794342,4.54425663 13.4327676,4.9709233 13.8327676,4.99758997 C14.8194342,5.02425663 15.7794342,4.67758997 16.7927676,4.8109233 C17.8327676,4.91758997 18.8727676,5.34425663 19.5394342,6.19758997 C20.8727676,7.87758997 20.4727676,10.35759 20.8994342,12.3309233 C21.1127676,13.2909233 21.5127676,14.0909233 22.1527676,14.8642566 C22.6861009,15.5309233 22.9527676,16.1442566 22.1527676,16.7309233 C21.6461009,17.07759 21.0327676,17.31759 20.4461009,17.5042566 C18.8194342,18.0642566 17.3527676,17.6909233 15.8327676,16.9709233 C15.8061009,16.91759 15.7527676,16.8909233 15.7261009,16.8909233 C15.7794342,15.7709233 16.0461009,14.7309233 16.3661009,13.6642566 C16.8994342,11.95759 17.4594342,10.11759 16.8727676,8.3309233 C16.2861009,6.4909233 14.7127676,5.82425663 13.0594342,5.10425663 C11.8327676,4.5709233 11.2994342,6.46425663 12.6327676,6.6509233 C13.9927676,6.8109233 15.2727676,7.3709233 15.6994342,8.75758997 C16.0994342,10.0909233 15.7261009,11.47759 15.3527676,12.75759 C14.8994342,14.2509233 14.5527676,15.6642566 14.5527676,17.2109233 C14.5527676,18.6509233 14.7394342,20.1709233 13.9394342,21.4509233 C12.2061009,24.2509233 8.57943422,21.2642566 7.16610089,19.6109233 C5.45943422,17.5842566 4.52610089,14.8909233 4.73943422,12.2242566 C4.84610089,10.6509233 5.40610089,9.07758997 6.47276755,7.90425663 C6.97943422,7.34425663 7.59276755,6.83758997 8.28610089,6.51758997 C8.79276755,6.27758997 9.32610089,6.14425663 9.85943422,5.98425663 C9.80610089,6.3309233 9.75276755,6.67758997 9.69943422,7.02425663 C9.59276755,7.79758997 10.7661009,8.11758997 10.8727676,7.34425663 C11.0861009,5.7709233 11.2727676,4.06425663 12.0994342,2.67758997 C12.5527676,1.9309233 13.1127676,1.26425663 13.4594342,0.464256632 C13.5927676,0.144256632 13.1661009,-0.0957433678 12.9261009,0.0375899655 C12.1261009,0.490923299 11.5394342,1.39758997 11.0594342,2.19758997 C10.9527676,2.4109233 10.8461009,2.62425663 10.7394342,2.83758997 L10.7127676,2.83758997 C10.2594342,2.7309233 9.80610089,2.67758997 9.35276755,2.67758997 C8.97943422,2.03758997 7.96610089,1.7709233 7.29943422,1.66425663 C6.33943422,1.47758997 5.35276755,1.6909233 4.44610089,2.0909233 C2.47276755,2.94425663 0.926100888,4.75758997 0.0461008876,6.70425663 C-0.0872324458,6.99758997 0.0727675542,7.47758997 0.472767554,7.4509233 C3.88610089,7.10425663 7.40610089,6.3309233 9.85943422,3.74425663 L9.88610089,3.71758997 C10.0727676,3.71758997 10.2594342,3.6909233 10.4461009,3.6909233 C10.3127676,4.11758997 10.1794342,4.5709233 10.0994342,5.0509233 C8.76610089,4.83758997 7.24610089,5.6109233 6.25943422,6.4109233 C5.00610089,7.4509233 4.17943422,8.94425663 3.77943422,10.4909233 C2.95276755,13.6909233 3.77943422,17.2109233 5.72610089,19.8509233 C7.29943422,22.0109233 10.8461009,25.1842566 13.6994342,23.4509233 C14.9527676,22.67759 15.4861009,21.23759 15.6461009,19.8509233 C15.6994342,19.4509233 15.6994342,19.0509233 15.7261009,18.6509233 C16.9794342,19.15759 18.2594342,19.4242566 19.6461009,19.2109233 C21.3527676,18.9442566 24.0727676,17.8509233 23.9394342,15.71759 C23.8327676,14.6509233 22.8461009,14.03759 22.4194342,13.15759 Z M1.32610089,6.3309233 C2.04610089,5.02425663 3.08610089,3.90425663 4.39276755,3.15758997 C5.16610089,2.70425663 6.04610089,2.38425663 6.97943422,2.4109233 C7.40610089,2.4109233 7.85943422,2.51758997 8.28610089,2.6509233 C6.79276755,2.78425663 5.27276755,3.26425663 3.99276755,3.82425663 C3.32610089,4.11758997 3.88610089,5.1309233 4.57943422,4.8109233 C5.53943422,4.38425663 6.52610089,4.06425663 7.53943422,3.87758997 C7.83276755,3.82425663 8.12610089,3.79758997 8.41943422,3.7709233 C6.36610089,5.3709233 3.83276755,6.0109233 1.32610089,6.3309233 Z" id="Shape"></path>
            <path d="M8.57943422,17.1042566 C8.76610089,16.99759 8.89943422,16.75759 8.89943422,16.51759 C8.89943422,16.4109233 8.87276755,16.27759 8.81943422,16.19759 C8.73943422,16.03759 8.60610089,15.9842566 8.44610089,15.9042566 C8.31276755,15.8509233 8.12610089,15.9042566 7.99276755,15.95759 C7.91276755,16.0109233 7.85943422,16.0642566 7.80610089,16.1442566 C7.77943422,16.19759 7.72610089,16.2509233 7.72610089,16.3042566 C7.64610089,16.5442566 7.72610089,16.8109233 7.88610089,16.9709233 C8.01943422,17.2109233 8.33943422,17.23759 8.57943422,17.1042566 Z" id="Path"></path>
        </g>
    </g>
</svg>