<?xml version="1.0" encoding="UTF-8"?>
<svg width="24px" height="24px" viewBox="0 0 24 24" version="1.1" xmlns="http://www.w3.org/2000/svg" xmlns:xlink="http://www.w3.org/1999/xlink">
    <!-- Generator: Sketch 51.3 (57544) - http://www.bohemiancoding.com/sketch -->
    <title>icon strain flavor / menthol</title>
    <desc>Created with Sketch.</desc>
    <defs></defs>
    <g id="icon-strain-flavor-/-menthol" stroke="none" stroke-width="1" fill="none" fill-rule="evenodd">
        <path d="M13.0796931,3.6723882 C13.6082882,3.1242155 14.247572,2.64908229 14.9877558,2.3478885 C15.0653132,2.31626316 15.1526594,2.35391238 15.1842847,2.43146978 C15.1963325,2.46158916 15.1985914,2.49321451 15.1910616,2.5225809 L15.1504004,2.78085458 C15.6360754,2.36897207 16.1834951,1.94202987 16.7836237,1.60921074 C17.5268194,1.19657524 18.3475725,0.930771724 19.2240464,1.01585897 C19.3068747,1.02338881 19.3678665,1.09718129 19.3595836,1.18000959 C19.3573247,1.20184613 19.3513008,1.22142373 19.340759,1.23949536 L19.2037158,1.51282872 C19.5576185,1.34641915 19.9627242,1.21841179 20.4024671,1.17097377 C20.9092257,1.11675889 21.4634222,1.1694678 22.0409613,1.39611613 C22.1185187,1.42623551 22.1569209,1.51358171 22.1268016,1.59113911 C22.1230366,1.60017492 22.1185187,1.60845775 22.1140008,1.61674058 L21.9362965,1.93675898 C22.2073709,1.86522546 22.5183535,1.8245643 22.8504196,1.85167174 C23.2261589,1.8825441 23.6282526,2.00076266 24.0258284,2.25903634 C24.0627247,2.27334304 24.093597,2.30195645 24.1101627,2.34035866 C24.1274813,2.38177281 24.1252224,2.42619889 24.1079037,2.46384811 C24.0393821,3.03536333 23.8549009,3.47736522 23.6214758,3.84030373 C23.4482893,4.11062516 23.2495014,4.33426155 23.0537255,4.53455542 L23.5190699,4.60232402 C23.6018982,4.61437177 23.659125,4.6904232 23.6470772,4.7732515 C23.6463242,4.77701642 23.6463242,4.78002836 23.6455713,4.78304029 C23.4889505,5.52171806 23.2735969,6.0826915 22.9693912,6.54502396 C22.7329541,6.90419756 22.445314,7.20012046 22.0906583,7.46893591 L22.5477199,7.52164483 C22.6305482,7.53143363 22.690034,7.60597909 22.6802452,7.68880738 C22.6794922,7.69407827 22.6787392,7.69859618 22.6779862,7.70386707 C22.3707685,9.52006562 21.3896298,10.2376598 20.4288216,10.8648959 L20.9559107,11.1698546 C21.0206674,11.2075038 21.0470218,11.2858142 21.0214204,11.3535828 C20.7337803,12.1080733 20.312862,12.6600109 19.8482706,13.0696344 C19.4732843,13.4009476 19.0726965,13.6373847 18.6916864,13.8143361 L19.1570308,14.108 C19.2278113,14.1524261 19.2488949,14.2450432 19.2044688,14.3158237 C18.8430363,14.9392949 18.3490785,15.3895796 17.7971408,15.7314346 C17.2497211,16.0710305 16.6473335,16.3029498 16.0652766,16.4919489 L16.0645236,16.4919489 C15.9704005,16.6854659 15.8732655,16.8578993 15.7783895,17.0077432 L16.4131554,17.2893594 C16.4861949,17.3187258 16.5253501,17.4008011 16.5005016,17.4768526 C16.1247623,18.6116002 15.7008321,19.3698555 15.2091332,19.8833909 C14.7166814,20.3976793 14.1594728,20.6649888 13.5171771,20.8178447 C13.6534673,21.6611873 13.7039172,22.4683866 13.6640091,23.2213711 C13.6632561,23.2319129 13.6617501,23.2424547 13.6587382,23.2529965 C13.616571,23.4322068 13.4968465,23.5745208 13.3552854,23.6724088 C13.184358,23.7898744 12.9735223,23.8455952 12.8236784,23.8230057 C12.7408501,23.810958 12.6843763,23.7341535 12.696424,23.6520782 C12.7679575,22.8335841 12.7325673,21.9473214 12.5955241,21.0151266 C12.0300328,21.1258153 11.4261392,21.1288273 10.8094449,21.0331982 C10.1325119,20.9285334 9.44127213,20.706403 8.76659804,20.3796077 C8.76283312,20.3773488 8.75831521,20.3758428 8.75455029,20.3735838 C8.68301676,20.3306637 8.65967425,20.2380466 8.70259436,20.1672661 L9.05122617,19.5837031 C8.40516549,19.3886801 7.71467873,19.1582669 7.07388894,18.811894 C6.36457757,18.427872 5.72002286,17.9015358 5.27124411,17.1259618 L5.26973814,17.1237028 C5.22531206,17.0529223 5.24639562,16.9603052 5.31717616,16.9158791 L5.83297053,16.5905898 C5.41958205,16.4008377 4.98435703,16.144823 4.57699243,15.7856494 C4.08077566,15.3474125 3.63049094,14.7578256 3.32252029,13.9506263 C3.29691882,13.8828577 3.32327328,13.8037943 3.38802994,13.7668981 L3.96858097,13.43182 C2.93623926,12.7578989 1.87754309,11.9921137 1.54773589,10.0396249 C1.5469829,10.035107 1.54622992,10.0298361 1.54547693,10.0245652 C1.53568813,9.94173693 1.59517391,9.86719147 1.6780022,9.85740267 L2.19530253,9.79716391 C1.80676254,9.50500593 1.49201503,9.18423455 1.23449434,8.79268262 C0.909205051,8.29872481 0.679544787,7.6978432 0.511629249,6.9072095 C0.510876264,6.90419756 0.51012328,6.90043264 0.51012328,6.8974207 C0.498075528,6.81459241 0.556055333,6.73854097 0.638130641,6.72649322 L1.15844291,6.65044179 C0.943842337,6.43207629 0.72547684,6.18810932 0.535724752,5.89293941 C0.286486891,5.50439942 0.0884519744,5.03152517 0.0154124804,4.42010178 C-0.00341213148,4.38245255 -0.0056710849,4.3365205 0.0124005425,4.29510636 C0.0289662009,4.25595116 0.0605915488,4.22733775 0.0974877881,4.21303105 C0.522924016,3.93668575 0.952125166,3.81018435 1.35346589,3.77705304 C1.71866336,3.74693366 2.05976533,3.7936187 2.35493524,3.87418803 L2.15162943,3.50823758 C2.14635854,3.49995475 2.14259362,3.49167192 2.1388287,3.48263611 C2.10870932,3.40507871 2.14711153,3.31773251 2.22466893,3.28761313 C2.8421162,3.04515213 3.43396199,2.98867829 3.97611082,3.0466581 C4.45877386,3.09861403 4.90077575,3.24168108 5.2863038,3.42540929 L5.12441214,3.10388492 C5.11462334,3.08581329 5.10784648,3.06623569 5.10558753,3.04439914 C5.09805768,2.96157085 5.15829644,2.88777837 5.24112473,2.88024853 C6.1785904,2.78913741 7.05581732,3.07376554 7.8517219,3.51501444 C8.50305348,3.87644699 9.09791121,4.34179139 9.62349437,4.78906417 L9.57530337,4.48259949 C9.56852651,4.4532331 9.57003248,4.42160775 9.58208023,4.39148837 C9.61370557,4.31393097 9.70105177,4.27703473 9.77860917,4.30790709 C10.5293347,4.6128658 11.1829252,5.08574005 11.7303449,5.63315977 C12.0375626,4.98333417 12.4901063,4.28230562 13.0796931,3.6723882 Z" id="Combined-Shape" fill="#FFFFFF" fill-rule="nonzero"></path>
        <path d="M14.9079394,9.91764143 C14.734753,9.29492327 14.4870211,8.6578984 14.1210706,7.99451908 L13.4893167,8.6142253 C13.4298309,8.6722051 13.3349548,8.67145212 13.2762221,8.61271933 C13.2604094,8.59615367 13.2483616,8.57732906 13.2415848,8.55699848 C12.9750283,7.80024908 12.4765525,6.89440876 11.7672412,6.10753999 C11.2559647,5.54054268 10.6355055,5.03604308 9.91489936,4.6956941 L9.98567991,5.1467318 C9.99848064,5.2288071 9.94200681,5.30561152 9.8599315,5.31841226 C9.81399944,5.32518912 9.77032635,5.31088241 9.73794801,5.28302199 C9.15212609,4.77099254 8.46615724,4.19797136 7.70714889,3.77705304 C7.02419197,3.39830185 6.27949032,3.14153414 5.49412752,3.16487666 L5.77273177,3.71982622 C5.80962801,3.79437168 5.77950863,3.88472982 5.70571615,3.92162606 C5.65752515,3.94572156 5.60255728,3.94120365 5.55963716,3.9148492 C5.1214002,3.64452777 4.56946258,3.41185557 3.94599144,3.34483995 C3.49645971,3.29664894 3.00852577,3.33505115 2.49875528,3.5074846 L2.81124383,4.069964 C2.851905,4.14300349 2.82555054,4.23411461 2.75251104,4.27477577 C2.71034391,4.29811829 2.66290589,4.29887128 2.62149175,4.28230562 C2.29620245,4.14676841 1.86022444,4.03683268 1.37982035,4.07674086 C1.09293326,4.10008338 0.790233504,4.17764078 0.486027777,4.33426155 C2.29921439,5.14447284 3.97234589,6.23404138 5.47454992,7.50282022 C5.43238279,7.35749421 5.3977455,7.20388538 5.37139105,7.04726461 C5.25317248,6.35150695 5.28253888,5.56614415 5.49789244,5.02776025 C5.51972899,4.97354537 5.54156554,4.92460138 5.56340209,4.88168126 C5.60105131,4.8071358 5.69216243,4.7777694 5.7667079,4.81541863 C5.84125336,4.85306785 5.87061975,4.94417897 5.83297053,5.01872444 C5.81188696,5.06013858 5.79381534,5.10004676 5.77800266,5.13844897 C5.58297968,5.62562992 5.55888418,6.349248 5.6695729,6.99756763 C5.72905867,7.3484584 5.82694665,7.67299471 5.95645998,7.91997361 C7.07765387,8.91918401 8.09644186,10.0170354 9.00002323,11.1698546 C8.9917404,10.9605249 9.00680009,10.7353826 9.04143737,10.4996984 C9.14534923,9.792646 9.42018856,8.9779168 9.72966518,8.20535473 C9.76053755,8.12779733 9.84863673,8.09090109 9.92544115,8.12177345 C10.0029985,8.15264582 10.0398948,8.240745 10.0090224,8.31754942 C9.70782863,9.07053389 9.43976616,9.86192057 9.33961923,10.5433715 C9.27185062,11.004951 9.28163942,11.4115626 9.41190574,11.7112504 C9.49247507,11.8204332 9.57229143,11.9296159 9.6513548,12.0387987 C9.6852391,12.0862367 9.71611146,12.1291568 9.74623084,12.1720769 C10.2447066,12.8761174 10.7010152,13.5944646 11.1121447,14.3195887 C11.1098857,13.963427 11.1641006,13.5929586 11.2567177,13.2179724 C11.4683063,12.361076 11.8794359,11.4823432 12.25894,10.71204 C12.2958363,10.6374946 12.3861944,10.6066222 12.4607399,10.6435185 C12.5352853,10.6804147 12.5661577,10.7707728 12.5292615,10.8453183 C12.1572871,11.6013147 11.7544404,12.461976 11.5496287,13.2895059 C11.385478,13.9536382 11.3485818,14.5974399 11.5601704,15.1463656 C11.6189032,15.2608193 11.676883,15.3752729 11.7341099,15.4889736 C11.7371218,15.4949974 11.7401337,15.5002683 11.7431457,15.5062922 C12.2529162,16.534869 12.6685636,17.5649517 12.9825581,18.569433 C13.3244131,18.2049886 13.6474434,17.8013889 13.9456253,17.3669168 C14.2927511,16.8609113 14.6044867,16.3142445 14.8717962,15.7397174 C14.9064334,15.6644189 14.9960386,15.6312876 15.07209,15.6659249 C15.1473885,15.7005622 15.1805198,15.7901673 15.1458825,15.8662188 C14.8717962,16.4558056 14.5510248,17.017532 14.1948631,17.5370913 C13.8545141,18.0333081 13.4810338,18.4918756 13.082705,18.9007462 C13.2430907,19.4504249 13.3726041,19.9918207 13.4689861,20.5196628 C14.0495371,20.3796077 14.5525307,20.1363937 14.9945326,19.6740613 C15.4365345,19.2124818 15.8235685,18.5295249 16.1729533,17.5114898 L15.4967733,17.211802 C15.4207218,17.1779177 15.3860846,17.0890656 15.4192159,17.0130141 C15.4244868,17.0009664 15.4312636,16.9904246 15.4387935,16.9806358 C15.7452581,16.535622 16.1127146,15.80598 16.2633115,14.8986337 C16.3649644,14.2864573 16.3672233,13.5937116 16.1850011,12.8542809 L15.5532471,13.0681285 C15.4741837,13.0944829 15.3890965,13.0523158 15.3619891,12.9740054 C15.3574711,12.9619577 15.3552122,12.9491569 15.3544592,12.9371092 C15.2912085,12.1020494 15.2226869,11.2767784 15.0374527,10.4341888 C15.0020625,10.2722971 14.9621543,10.1088995 14.9169752,9.94550185 C14.9124573,9.93571305 14.9101984,9.92667724 14.9079394,9.91764143 Z" id="Path" fill="#091E09" fill-rule="nonzero"></path>
        <path d="M0.790233504,5.72878879 C1.02667063,6.0969982 1.31732264,6.38614424 1.58463212,6.64667687 C1.6441179,6.70465667 1.64562387,6.8002857 1.58764406,6.85977148 C1.56354856,6.88461996 1.5326762,6.89967965 1.50105085,6.90419756 L0.842942418,7.00057957 C0.999563188,7.67675963 1.20588093,8.19782489 1.48749713,8.62627305 C1.78869092,9.0848406 2.18024284,9.44100225 2.6915193,9.77382139 C2.76154686,9.81900046 2.78112445,9.91237053 2.73594539,9.98239809 C2.71034391,10.0215533 2.66968275,10.0448958 2.62676264,10.0501667 L1.87453115,10.1375129 C2.22843385,11.9401577 3.28637704,12.6268796 4.2825755,13.2729402 L4.34130829,13.3113425 C4.41133584,13.3565215 4.43091344,13.4498916 4.38573437,13.5199192 C4.37218065,13.5402497 4.35486201,13.5568154 4.33528441,13.5681102 L3.65533943,13.9611681 C3.94222651,14.6576787 4.34206127,15.1727201 4.77954525,15.5597541 C5.24338369,15.9693776 5.75164821,16.2374401 6.21473366,16.4249333 C6.29229106,16.4565586 6.3291873,16.5439048 6.29831493,16.6214622 C6.28476121,16.6545935 6.26066571,16.680948 6.23129932,16.6967606 L5.60556922,17.0913245 C6.01820471,17.747174 6.59122589,18.2042356 7.22072092,18.5453375 C7.89840694,18.912794 8.64386157,19.1469721 9.32606551,19.349525 C9.40588186,19.3728675 9.45181391,19.4564487 9.42847139,19.5362651 C9.42395349,19.5505718 9.41792961,19.5641255 9.40964678,19.5761733 L9.05047319,20.1778079 C9.6513548,20.4541532 10.2627782,20.6431523 10.8591419,20.7357694 C11.4449638,20.8261275 12.017232,20.8231156 12.552604,20.7169448 C12.4614929,20.1747959 12.3372504,19.6190934 12.1806296,19.0536021 C12.1595461,19.0633909 12.1362036,19.0686617 12.1113551,19.0679088 C11.5533936,19.0490841 10.9954321,18.9903514 10.4427415,18.8924634 C9.89230983,18.7945754 9.34413713,18.6575322 8.8027413,18.4805809 C8.72367793,18.4549794 8.68000483,18.3698921 8.7056063,18.2908288 C8.73120777,18.2117654 8.81629502,18.1680923 8.89535839,18.1936938 C9.42169453,18.3653742 9.95631351,18.4994055 10.4939444,18.5950345 C11.0300694,18.6899106 11.5661943,18.7471374 12.0985543,18.765962 C11.9072963,18.1146304 11.6738711,17.4527571 11.4012907,16.7863658 C11.3975258,16.778836 11.3937609,16.7705531 11.3907489,16.7615173 C11.3674064,16.7035375 11.3433109,16.6463107 11.3184624,16.5883309 C10.9374523,15.9385053 9.41039977,15.6478533 7.83214431,15.3466595 C7.63486238,15.3090103 7.43607448,15.271361 7.31484397,15.2472655 C7.23276867,15.2314529 7.17930677,15.1523895 7.19587243,15.0703142 C7.2116851,14.9882389 7.29074847,14.934777 7.37282378,14.9513426 C7.59570718,14.9950157 7.74178617,15.0228762 7.88786516,15.0507366 C9.11598284,15.2849148 10.3139811,15.5130691 11.0323283,15.9362463 C10.5300877,14.8399009 9.92393518,13.7412966 9.22215365,12.6713056 C8.99776427,12.3302037 8.7635861,11.9913607 8.52037212,11.6570356 C8.5166072,11.6517647 8.51208929,11.6464938 8.50907735,11.6412229 C8.47971096,11.6005617 8.44959158,11.5606535 8.42022518,11.5199924 C8.17851717,11.2444001 7.71844365,11.052389 7.1537053,10.9160988 C6.48580807,10.7549602 5.67634976,10.6766498 4.89926978,10.6344826 C4.81644149,10.6299647 4.75243781,10.5591842 4.75695572,10.4756029 C4.76147362,10.3927746 4.83225416,10.3287709 4.91583544,10.3332889 C5.70646914,10.376209 6.53324609,10.4567783 7.22373285,10.6231879 C7.46694684,10.6819207 7.69284218,10.7511952 7.89614799,10.8340235 C7.21695599,9.9771272 6.4745133,9.15336218 5.67409081,8.38305907 C5.24790159,7.98774222 4.75921467,7.78895432 4.26375088,7.70010215 C3.72536699,7.60296715 3.17418235,7.63383951 2.68549543,7.68428947 C2.60266713,7.6925723 2.52887466,7.63233355 2.52059183,7.54950525 C2.512309,7.46667696 2.57254776,7.39288448 2.65537605,7.38460165 C3.16514654,7.33189274 3.74193264,7.30026739 4.31721278,7.40417925 C4.44371417,7.42676878 4.56946258,7.45613518 4.694458,7.4937844 C3.37673517,6.36355471 1.92347514,5.379404 0.35199654,4.61060685 C0.433318864,5.06164455 0.594457541,5.42383008 0.790233504,5.72878879 Z" id="Path" fill="#091E09" fill-rule="nonzero"></path>
        <path d="M15.1737429,9.46509776 C15.2618421,9.34386726 15.3461764,9.2301666 15.4320166,9.11571296 C15.656406,8.6578984 15.753541,8.00129594 15.6872783,7.3145741 C15.6134859,6.55405978 15.3393995,5.76116713 14.8153223,5.16254447 C14.6270762,4.94794389 14.4064518,4.75819181 14.149684,4.60382999 C14.0781505,4.56090987 14.055561,4.46829278 14.0984811,4.39675926 C14.1414012,4.32522573 14.2340183,4.3026362 14.3055518,4.34555632 C14.588674,4.51573081 14.833394,4.72656646 15.0419707,4.96450955 C15.6112269,5.61358217 15.9086558,6.46897253 15.9877192,7.28671367 C16.0268743,7.69407827 16.0118147,8.09316004 15.9493169,8.45459259 C16.6367918,7.6052261 17.3920352,6.7904969 18.2090233,6.03148855 C18.4266359,5.79429844 18.5237709,5.36886222 18.5313007,4.894482 C18.5410895,4.26498698 18.3897396,3.56169948 18.1465256,3.08355434 C18.1088764,3.00900887 18.1382428,2.91865074 18.2127883,2.88024853 C18.2873337,2.8425993 18.3776919,2.8719657 18.4160941,2.94651116 C18.6796386,3.4638115 18.8430363,4.22131388 18.8332475,4.89749393 C18.8294826,5.11887137 18.807646,5.33347195 18.7632199,5.52924791 C18.7775266,5.51795314 18.7918333,5.50665837 18.80614,5.49611659 C18.8852034,5.427595 18.9642668,5.36057939 19.0440831,5.29356377 C20.4295746,4.12944977 21.9709338,3.1287334 23.6387944,2.38026684 C23.3624491,2.24096471 23.0883627,2.17244312 22.8285831,2.15060657 C22.3828163,2.11371033 21.9777106,2.21536324 21.6750109,2.34186463 C21.6343497,2.35918327 21.5861587,2.3576773 21.5439916,2.33433478 C21.4709521,2.29367362 21.4453506,2.2025625 21.4852588,2.12952301 L21.7713929,1.6159876 C21.3015306,1.45861384 20.8519989,1.42397655 20.4371044,1.46915562 C19.8573064,1.53165333 19.343771,1.74775988 18.9364064,1.99925669 C18.8934862,2.02561115 18.8385184,2.03012906 18.7903274,2.00603355 C18.7157819,1.96913731 18.6856625,1.87877918 18.7233117,1.80423371 L18.9763145,1.30124009 C18.2511905,1.28316846 17.5644686,1.52111155 16.9327147,1.87124933 C16.2256622,2.26355424 15.5863784,2.79742024 15.0397117,3.27481239 C15.0073334,3.3034258 14.9636603,3.31773251 14.9177282,3.31020266 C14.8356529,3.29740193 14.7791791,3.22059751 14.7919798,3.1385222 L14.8552305,2.73642849 C14.2603728,3.02030364 13.7400605,3.42390332 13.2988116,3.88096489 C12.7016949,4.49916515 12.2506572,5.21525338 11.9577462,5.86658495 C11.969794,5.87938569 11.9810888,5.89218643 11.9931365,5.90574015 C12.6632927,6.64893582 13.1534856,7.49604336 13.4456436,8.23698008 L14.0487841,7.64588727 C14.0585729,7.63534548 14.0698677,7.62706265 14.0826684,7.61953281 C14.1549549,7.57811866 14.246819,7.60221417 14.2889862,7.67450068 C14.6632195,8.32206732 14.926764,8.9440325 15.1165161,9.550185 C15.1338348,9.5260895 15.1511534,9.501994 15.169225,9.47789849 C15.168472,9.4726276 15.170731,9.46886268 15.1737429,9.46509776 Z" id="Path" fill="#091E09" fill-rule="nonzero"></path>
        <path d="M15.9350102,8.95608025 C16.2663234,8.84313258 16.6601343,8.79042367 17.0900884,8.79042367 C17.9966817,8.79117665 19.0704376,9.02610781 20.0327517,9.42217764 C20.1095562,9.45380299 20.1464524,9.54190217 20.1148271,9.61870659 C20.0832017,9.69551101 19.9951025,9.73240724 19.9182981,9.7007819 C18.9898682,9.31901877 17.9575265,9.09161746 17.0900884,9.09086447 C16.4417688,9.09011149 15.8920901,9.21435393 15.5615299,9.49295818 C15.4945143,9.59159915 15.4192159,9.67819236 15.3371406,9.75198484 C15.2979854,9.80695271 15.2588302,9.86192057 15.220428,9.91613546 C15.2610891,10.0674853 15.2972324,10.2180822 15.3303637,10.3671732 C15.5050561,11.1623248 15.5780956,11.9363928 15.6383344,12.7172377 L16.239216,12.5139319 C16.2422279,12.5131789 16.2444869,12.5124259 16.2474988,12.5116729 C16.3273151,12.4898364 16.4108964,12.5365214 16.432733,12.6170908 C16.6684171,13.4611864 16.673688,14.2518201 16.5584814,14.9445658 C16.4869479,15.3767789 16.3679763,15.7713427 16.2294272,16.1177156 C16.7105842,15.951306 17.1962592,15.7487532 17.6397671,15.4739139 C18.1171592,15.177991 18.5478664,14.7962278 18.8724027,14.2826924 L18.2978755,13.9205069 C18.2685091,13.9046942 18.2444136,13.8783398 18.2308599,13.8452084 C18.1992346,13.767651 18.2368838,13.6803048 18.3144412,13.6486795 C18.7451483,13.4739871 19.2187755,13.2239963 19.6502356,12.8437391 C20.0560943,12.4853185 20.4265626,12.0086793 20.6931191,11.3648776 L20.066636,11.0026921 C20.0470585,10.9913973 20.0289868,10.9748316 20.0161861,10.954501 C19.971007,10.8844735 19.9905846,10.7911034 20.0606122,10.7459243 L20.11558,10.7105341 C21.040998,10.1096525 22.0236427,9.4726276 22.3549559,7.80326102 L21.6637161,7.72344467 C21.620796,7.71817378 21.5801348,7.69483126 21.5545334,7.65567606 C21.5093543,7.58564851 21.5289319,7.49227843 21.5989595,7.44709937 C22.0748456,7.13762275 22.4385371,6.80555659 22.7194004,6.37936738 C22.979933,5.98329755 23.171191,5.50138748 23.316517,4.87716335 L22.7133765,4.78906417 C22.6817511,4.78454626 22.6508788,4.76948657 22.6267833,4.74463809 C22.5688035,4.68515231 22.5703094,4.58952328 22.6297952,4.53154348 C22.8782801,4.28908248 23.1493545,4.01951404 23.369226,3.6769061 C23.5491892,3.39604289 23.6982802,3.06322376 23.7758376,2.64983528 C22.4114297,3.26050569 21.1321091,4.04285656 19.9544414,4.94869688 C20.5839364,4.78304029 21.233009,4.78304029 21.7608511,4.83725518 C21.8436794,4.84553801 21.9039182,4.92008347 21.8956353,5.00215878 C21.8873525,5.08498707 21.812807,5.14522583 21.7307317,5.136943 C21.2164433,5.08423408 20.5839364,5.08574005 19.9785369,5.25440858 C19.63367,5.35079059 19.2978389,5.50138748 18.9989041,5.72878879 C18.8008691,5.89971627 18.6065992,6.07440867 18.4160941,6.25136002 C18.3897396,6.27922045 18.3618792,6.3055749 18.3325128,6.32967041 C17.4590508,7.1496705 16.6571223,8.03442726 15.9357632,8.95683324 L15.9350102,8.95608025 Z" id="Path" fill="#091E09" fill-rule="nonzero"></path>
    </g>
</svg>