<svg width="24" height="24" viewBox="0 0 24 24" fill="none" xmlns="http://www.w3.org/2000/svg">
<path d="M21.9388 15.6753C21.7835 15.4941 21.7576 15.3647 21.7576 15.2871C21.7576 15.2612 21.7835 15.2353 21.8094 15.2094C21.8871 15.1576 21.9388 15.08 21.9647 15.0024C21.9906 14.9247 21.9647 14.8212 21.8871 14.7694C21.5247 14.3553 21.6541 14.1224 21.7835 13.9671C21.8353 13.9153 21.8612 13.8118 21.8612 13.7341L21.8353 13.6047L21.7059 13.5529C21.5247 13.4494 21.2659 13.1906 21.2659 13.0353C21.2659 13.0094 21.2659 12.9835 21.3176 12.9318C21.3953 12.8541 21.4212 12.7506 21.3953 12.6471C21.3694 12.5435 21.2918 12.4659 21.1882 12.44C20.9035 12.3624 20.6965 12.1812 20.6188 11.9741C20.5671 11.8447 20.5929 11.7412 20.6188 11.6894C20.6706 11.6118 20.6965 11.5082 20.6706 11.4047C20.6447 11.3012 20.5671 11.2494 20.4635 11.1976C19.8165 11.0165 19.7129 10.7576 19.7388 10.6541C19.7647 10.5765 19.7388 10.5247 19.7129 10.4471C19.9976 10.2141 20.2565 9.92941 20.36 9.77412C20.4118 9.69647 20.4376 9.61882 20.4118 9.54118C20.4118 9.46353 20.36 9.38588 20.2824 9.33412C20.2047 9.28235 20.2047 9.23059 20.2047 9.20471C20.2047 9.02353 20.4894 8.71294 20.8518 8.50588C20.9294 8.45412 20.9812 8.37647 21.0071 8.27294C21.0071 8.16941 20.9812 8.06588 20.9035 8.01412C20.7741 7.88471 20.7224 7.78118 20.7224 7.70353C20.7482 7.52235 20.9553 7.31529 21.3435 7.05647C21.4212 7.00471 21.4729 6.90118 21.4729 6.79765C21.4729 6.69412 21.4212 6.59059 21.3176 6.53882C21.24 6.48706 21.2141 6.43529 21.1882 6.38353C21.1624 6.22824 21.2918 5.96941 21.4988 5.68471C21.5506 5.60706 21.5765 5.52941 21.5765 5.45177C21.5506 5.37412 21.4988 5.29647 21.4471 5.24471C21.24 5.11529 21.24 4.62353 21.4729 4.13176C21.5247 4.05412 21.5247 3.95059 21.4729 3.84706C21.4212 3.79529 21.3435 3.71765 21.24 3.71765C20.9812 3.66588 20.9294 3.58824 20.9035 3.56235C20.8518 3.48471 20.8259 3.27765 20.9812 2.81176C21.0329 2.65647 20.9553 2.50118 20.8 2.42353C20.5929 2.34588 20.5412 2.03529 20.5153 1.72471C20.4894 1.51765 20.4894 1.33647 20.3082 1.25882C20.2565 1.23294 20.1529 1.20706 20.0235 1.28471C19.7129 1.41412 19.2988 1.49176 19.0659 1.33647C18.9624 1.25882 18.8071 1.25882 18.7035 1.31059C18.3153 1.51765 17.9529 1.51765 17.6165 1.31059C17.4612 1.23294 17.28 1.25882 17.1765 1.38824C16.7624 1.82824 16.2965 2.00941 16.0118 1.80235C15.8824 1.69882 15.7012 1.69882 15.5718 1.80235C15.3388 1.98353 15.0024 2.39765 14.8212 2.63059C14.7435 2.57882 14.6659 2.34588 14.64 2.19059C14.6141 2.06118 14.5624 1.90588 14.5106 1.80235C14.3553 1.49176 14.0706 1.18118 14.0706 1.18118L13.9153 1L13.7341 1.12941C13.6047 1.20706 12.9576 1.64706 12.7765 2.00941C12.7506 2.03529 12.7247 2.08706 12.7247 2.08706C12.6471 1.98353 12.5176 1.93176 12.3882 1.95765C12.2588 2.00941 12.1812 2.11294 12.1812 2.24235C12.2071 2.44941 12.1035 2.65647 12.0518 2.73412C12.0259 2.73412 12 2.70824 11.9741 2.65647C11.8965 2.55294 11.7412 2.52706 11.6118 2.57882C11.4824 2.63059 11.4306 2.76 11.4306 2.88941C11.4565 3.14824 11.4047 3.35529 11.3788 3.43294L11.3529 3.40706C11.2753 3.32941 11.1459 3.30353 11.0165 3.35529C10.9129 3.40706 10.8353 3.51059 10.8353 3.64C10.8353 4.20941 10.7576 4.39059 10.7318 4.44235C10.7059 4.44235 10.7059 4.41647 10.6541 4.41647C10.5506 4.33882 10.4212 4.33882 10.3176 4.41647C10.2141 4.49412 10.1882 4.62353 10.2141 4.72706C10.2918 5.01176 10.2918 5.24471 10.2918 5.34824C10.1882 5.27059 10.0588 5.27059 9.95529 5.34824C9.85176 5.42588 9.82588 5.55529 9.85176 5.68471C9.87765 5.76235 9.90353 5.84 9.92941 5.91765C9.67059 5.71059 9.33412 5.47765 9.04941 5.37412L8.84235 5.29647L8.73882 5.52941C8.63529 5.65882 8.58353 5.68471 8.55765 5.65882C8.42823 5.65882 8.19529 5.52941 7.93647 5.11529C7.88471 5.03765 7.78118 4.98588 7.67765 5.01176L7.52235 5.03765L7.44471 5.16706C7.39294 5.27059 7.34118 5.29647 7.28941 5.29647C7.13412 5.32235 6.77176 5.24471 6.30588 4.88235C6.22823 4.83059 6.12471 4.80471 6.04706 4.83059L5.89176 4.88235L5.86588 5.03765C5.84 5.14118 5.73647 5.24471 5.60706 5.32235C5.34823 5.45177 4.98588 5.37412 4.64941 5.16706C4.57176 5.11529 4.46824 5.11529 4.39059 5.14118L4.26118 5.21882V5.37412C4.26118 5.4 4.26118 5.42588 4.20941 5.47765C4.05412 5.58118 3.66588 5.63294 3.07059 5.45177L2.94118 5.42588L2.70824 5.52941L2.68235 5.65882C2.65647 5.84 2.44941 5.89177 1.95765 5.94353C1.67294 5.96941 1.36235 5.99529 1.12941 6.12471L1 6.20235V6.35765C1.02588 6.74588 1.31059 7.10824 1.54353 7.39294C1.62118 7.49647 1.72471 7.62588 1.77647 7.70353C1.72471 7.75529 1.67294 7.78118 1.62118 7.80706C1.54353 7.85882 1.38824 7.93647 1.38824 8.11765C1.38824 8.22118 1.46588 8.32471 1.56941 8.35059C2.32 8.63529 2.47529 8.79059 2.50118 8.86824C2.50118 8.86824 2.50118 8.92 2.42353 8.97176C2.34588 9.04941 2.29412 9.15294 2.32 9.25647C2.34588 9.36 2.42353 9.43765 2.52706 9.46353C3.27765 9.64471 3.38118 9.8 3.40706 9.82588C3.40706 9.85176 3.40706 9.90353 3.32941 9.98118C3.25176 10.0588 3.22588 10.1882 3.27765 10.2659C3.30353 10.3694 3.40706 10.4471 3.51059 10.4471C4.28706 10.5506 4.46824 10.6541 4.49412 10.7059C4.49412 10.7059 4.49412 10.7576 4.41647 10.8612C4.33882 10.9388 4.33882 11.0682 4.36471 11.1718C4.41647 11.2753 4.49412 11.3271 4.59765 11.3529C5.21882 11.4047 5.55529 11.6118 5.58118 11.6894C5.58118 11.6894 5.55529 11.7153 5.50353 11.7671L5.32235 11.9224L5.47765 12.1294C5.76235 12.5435 6.46118 12.5953 6.90118 12.5953C6.97882 12.5953 7.05647 12.5953 7.10824 12.5953C7.08235 12.7247 7.00471 12.8541 6.82353 12.9576C6.72 13.0353 6.66823 13.1129 6.66823 13.1906C6.66823 13.2682 6.66824 13.3718 6.72 13.4235C6.74588 13.4494 6.77176 13.4753 6.79765 13.5271C4.88235 14.3294 4.80471 14.6141 4.77882 14.7435C4.75294 14.8471 4.77882 14.9506 4.85647 15.0282C4.85647 15.0282 4.93412 15.1059 4.90824 15.2353C4.88235 15.3388 4.75294 15.5976 4.05412 15.8306C3.92471 15.8824 3.82118 16.0376 3.84706 16.1671C3.97647 16.84 3.84706 17.1247 3.30353 17.4612C3.17412 17.5388 3.12235 17.72 3.2 17.8494C3.48471 18.4188 3.07059 18.9882 2.81176 19.1953C2.68235 19.2988 2.68235 19.48 2.78588 19.6094C3.14824 20.0494 2.73412 20.6447 2.60471 20.8259C2.52706 20.9294 2.52706 21.0588 2.60471 21.1624C2.78588 21.4471 2.68235 21.8612 2.60471 22.1976C2.55294 22.3788 2.50118 22.56 2.50118 22.7153V22.9224L2.73412 22.9741C2.78588 22.9741 2.83765 23 2.88941 23C3.09647 23 3.38118 22.9224 3.66588 22.8706C3.89882 22.8188 4.28706 22.7153 4.41647 22.7412C4.44235 22.8188 4.49412 22.8965 4.54588 22.9482C4.62353 23 4.70118 23 4.80471 22.9741C5.08941 22.8965 5.37412 22.7412 5.60706 22.5859C5.81412 22.4824 6.12471 22.3012 6.22823 22.3271C6.22823 22.3271 6.25412 22.3529 6.28 22.4306C6.30588 22.5082 6.38353 22.5859 6.46118 22.6118C6.53882 22.6376 6.64235 22.6376 6.72 22.5859C6.84941 22.4824 7.00471 22.4047 7.13412 22.3012C7.34118 22.1459 7.70353 21.8871 7.78118 21.9129C7.78118 21.9129 7.80706 21.9388 7.85882 22.0682C7.8847 22.1718 7.96235 22.2494 8.04 22.2753C8.14353 22.3012 8.22118 22.3012 8.32471 22.2494C8.53176 22.12 8.71294 21.9388 8.92 21.7835C9.20471 21.5506 9.69647 21.1365 9.85176 21.1365C9.85176 21.1365 9.85176 21.1624 9.87765 21.1882C9.92941 21.2918 10.0329 21.3953 10.1365 21.3953C10.2659 21.3953 10.3694 21.3694 10.4212 21.2659C10.7318 20.6965 11.1459 20.36 11.3529 20.36C11.3788 20.36 11.4047 20.36 11.4565 20.4376C11.5082 20.5412 11.6118 20.5929 11.7153 20.5929C11.8188 20.5929 11.9224 20.5153 12 20.4118C12.3624 19.6871 12.6729 19.3506 12.8024 19.2212C12.8541 19.2988 12.9318 19.3506 13.0094 19.3765C13.1129 19.4024 13.2424 19.3506 13.2941 19.2729C13.7082 18.7553 14.0706 17.9529 14.1741 17.1765C14.4588 17.4353 14.8729 17.6682 15.08 17.7976L15.1835 17.8494L15.4682 17.6941L15.52 17.5906C15.5459 17.5388 15.5976 17.4094 15.8565 17.3835C15.96 17.3576 16.2188 17.5906 16.3482 17.7718L16.4259 17.8753H16.7106L16.7882 17.7718C16.8141 17.7459 16.8141 17.72 16.84 17.6941C16.9176 17.5906 16.9435 17.5647 17.0471 17.5647C17.1247 17.5647 17.28 17.7718 17.3576 17.9012L17.4094 17.9788C17.4612 18.0565 17.5647 18.1082 17.6682 18.1082C17.7718 18.1082 17.8494 18.0306 17.9012 17.9271C17.9271 17.8494 18.0565 17.7459 18.1341 17.7459C18.3153 17.72 18.5482 17.9271 18.7035 18.0565C18.7294 18.0824 18.7553 18.1082 18.7812 18.1341C18.8329 18.1859 18.8847 18.1859 18.9624 18.1859C18.9882 18.1859 19.0141 18.1859 19.04 18.1859L19.1694 18.1341L19.2212 18.0047C19.2471 17.9529 19.3506 17.8494 19.4541 17.8235C19.6353 17.7976 19.8165 17.9271 19.9718 18.0047L20.0494 18.0565C20.1529 18.1082 20.2565 18.1082 20.36 18.0565C20.4118 18.0047 20.4635 17.9529 20.4894 17.8753C20.9035 17.9788 21.8094 17.6682 22.0682 17.5906L22.2235 17.5388V17.3576C22.2494 17.28 22.3012 16.1412 21.9388 15.6753ZM15.8047 2.29412C16.2706 2.55294 16.9176 2.39765 17.4612 1.82824C17.9012 2.03529 18.3671 2.00941 18.8329 1.80235C19.1953 2.00941 19.6612 1.93176 19.9718 1.82824C19.9976 2.11294 20.0494 2.55294 20.4118 2.81176C20.2824 3.27765 20.3082 3.58824 20.4376 3.82118C20.5412 3.97647 20.6706 4.08 20.8776 4.15765C20.6965 4.64941 20.6706 5.21882 20.9812 5.55529C20.8 5.81412 20.6188 6.17647 20.6706 6.48706C20.6965 6.59059 20.7224 6.72 20.8 6.79765C20.4894 7.03059 20.2047 7.31529 20.1788 7.67765C20.1529 7.85882 20.2306 8.06588 20.36 8.22118C19.9976 8.48 19.6871 8.81647 19.6612 9.20471C19.6612 9.36 19.7129 9.51529 19.7906 9.61882C19.5059 9.95529 19.1435 10.2659 18.8847 10.24C18.7812 10.2141 18.6776 10.1624 18.6259 10.1106C18.6 10.0847 18.6 10.0588 18.6 10.0329C18.6 9.92941 18.5741 9.85177 18.5224 9.77412C18.4706 9.69647 18.3671 9.67059 18.2894 9.67059C17.4612 9.72235 16.6071 9.82588 15.4165 10.3953C15.2871 10.4729 15.1318 10.5506 15.0024 10.6282V10.6024L14.8988 10.5247C14.6659 10.3694 14.6918 10.3694 14.7176 10.2659C14.7435 10.1882 14.7435 10.1106 14.7176 10.0329C14.7176 10.0071 14.6918 9.98118 14.6659 9.98118C14.9765 9.74824 15.2094 9.56706 15.3388 9.43765C15.9341 8.84235 16.3741 7.80706 16.5035 7.28941C16.5294 7.21176 16.5035 7.10824 16.4518 7.03059C16.4 6.95294 16.2965 6.92706 16.2188 6.92706C16.1412 6.92706 16.1153 6.92706 16.1153 6.90118C16.0894 6.87529 16.0635 6.69412 16.2965 6.28C16.3482 6.20235 16.3482 6.09882 16.2965 5.99529C16.2447 5.91765 16.1671 5.84 16.0635 5.84C16.0118 5.84 15.96 5.81412 15.9341 5.73647C15.8824 5.63294 15.8824 5.4 16.0376 5.11529C16.0894 5.03765 16.0894 4.96 16.0635 4.88235C16.0376 4.80471 15.9859 4.72706 15.8824 4.70118C15.7529 4.64941 15.7271 4.59765 15.7012 4.54588C15.6494 4.44235 15.6753 4.23529 15.8047 3.95059C15.8306 3.87294 15.8306 3.79529 15.8047 3.71765C15.7788 3.64 15.7012 3.58824 15.6235 3.56235C15.2353 3.45882 15.1318 3.32941 15.1576 2.99294C15.3129 2.83765 15.5976 2.47529 15.8047 2.29412ZM9.74824 15.2612C9.67059 15.2353 9.59294 15.2612 9.48941 15.2612C9.48941 15.2612 9.48941 15.2612 9.46353 15.2612C9.25647 15.3129 9.04941 15.4424 8.86823 15.5976C8.66118 15.7529 8.22118 15.9859 7.78118 16.1671C7.72941 15.9341 7.6 15.6494 7.39294 15.3129C7.49647 15.08 7.54823 14.7694 7.47059 14.5106C7.41882 14.3553 7.36706 14.2518 7.26353 14.1482C7.34118 13.9671 7.36706 13.8118 7.36706 13.6565V13.6306C7.36706 13.5012 7.31529 13.3718 7.26353 13.2682C7.54823 12.9835 7.65176 12.6471 7.62588 12.3624C7.80706 12.2847 8.14353 12.1553 8.86823 11.9741C9.10118 11.8965 9.41177 11.8706 9.74824 11.8447C9.8 11.8447 9.85176 11.8188 9.90353 11.7671C9.92941 11.7929 9.98118 11.8447 10.0071 11.8706L10.0588 11.9224L10.1365 11.9482C10.1624 11.9482 10.1882 11.9482 10.2141 11.9482C8.99765 12.6729 8.63529 13.9153 8.60941 13.9929C8.58353 14.1224 8.66118 14.2776 8.79059 14.3035C8.81647 14.3035 8.84235 14.3035 8.86823 14.3035C8.97176 14.3035 9.07529 14.2259 9.12706 14.1224C9.12706 14.0965 9.67059 12.2847 11.6894 11.9741C11.6894 11.9741 11.6894 11.9741 11.7153 11.9741C11.7671 12.2588 12 12.4659 12.3882 12.5953C12.4141 12.5953 12.44 12.6212 12.4659 12.6212C12.5176 12.6212 12.5694 12.5953 12.6212 12.5694L12.7247 12.4918C12.7765 12.5176 12.8541 12.5435 12.9318 12.5694C13.1129 13.0353 12.9576 13.6565 12.8024 14.0188C12.7506 13.9929 12.6729 13.9671 12.6212 13.9671C12.3624 13.9412 12.0776 14.1224 11.8706 14.3812C11.6894 14.3294 11.5859 14.3035 11.4824 14.3294C11.2235 14.3553 10.9388 14.5624 10.7576 14.8729C10.6541 14.8212 10.5765 14.8212 10.5247 14.8212C10.24 14.8212 9.98118 15.0541 9.82588 15.3129C9.77412 15.2612 9.74824 15.2612 9.74824 15.2612ZM8.53176 9.92941C8.48 9.72235 8.29882 9.56706 8.04 9.41177C8.04 9.38588 8.04 9.38588 8.04 9.36C8.04 9.12706 7.85882 8.97176 7.67765 8.79059C7.62588 8.73882 7.52235 8.63529 7.49647 8.58353C7.47059 8.50588 7.44471 8.40235 7.41882 8.32471C7.70353 8.24706 8.06588 8.19529 8.19529 8.24706L8.27294 8.27294C8.53176 8.35059 8.84235 8.45412 9.07529 8.29882C9.12706 8.27294 9.15294 8.22118 9.17882 8.19529C9.51529 8.35059 9.85176 8.48 10.0847 8.37647C10.1106 8.37647 10.1365 8.35059 10.1624 8.32471C10.2141 8.35059 10.2659 8.37647 10.3435 8.37647C10.5506 8.53177 10.8353 8.68706 11.0941 8.66118C11.1718 8.66118 11.2494 8.63529 11.3012 8.58353C11.8447 8.97176 12.3106 9.85176 12.3106 10.4729C11.3012 10.2659 9.98118 9.56706 9.95529 9.54118C9.82588 9.46353 9.67059 9.51529 9.59294 9.64471C9.51529 9.77412 9.56706 9.92941 9.69647 10.0071C9.74823 10.0329 11.0165 10.7318 12.1035 10.9647C12.0776 10.9906 12.0518 10.9906 12.0259 10.9906L12 11.0165C11.7153 11.1718 10.8612 11.5341 10.2659 11.4565C10.0329 11.2235 9.77412 10.9906 9.28235 10.9647C9.28235 10.8871 9.25647 10.8094 9.20471 10.7318C9.10118 10.4988 8.86823 10.3176 8.55765 10.1882C8.55765 10.1106 8.55765 10.0329 8.53176 9.92941ZM13.1129 11.8447C13.0871 11.8706 13.0353 11.8965 13.0094 11.9482C12.9576 11.9482 12.88 11.9482 12.8282 12C12.7506 11.9482 12.6471 11.9224 12.5435 11.9224C12.4918 11.9224 12.44 11.9482 12.3624 11.9741C12.3365 12 12.3106 12 12.2847 12.0259C12.2071 11.9741 12.1553 11.9224 12.1553 11.8965C12.1294 11.7153 12.6212 11.3012 12.8024 11.1976C12.9576 11.0682 13.0612 10.9906 13.1129 10.9129C13.1647 10.8094 13.1388 10.68 13.1388 10.5247C13.0871 10.1106 13.0871 9.72235 13.4494 9.54118C13.5529 9.67059 13.6824 9.77412 13.8635 9.8C13.9153 10.0071 14.0447 10.2141 14.2259 10.3435C14.1741 10.6024 14.3035 10.7835 14.4847 10.9388C14.4588 11.1459 14.5882 11.3788 14.7176 11.56C14.6141 11.56 14.5106 11.5859 14.4329 11.6376C14.4071 11.6635 14.3812 11.6635 14.3812 11.6894C14.1741 11.6118 13.9412 11.5859 13.7859 11.7153C13.76 11.7412 13.7082 11.7671 13.6824 11.8188C13.4494 11.7412 13.2682 11.7412 13.1129 11.8447ZM10.4729 5.91765C10.5247 5.89176 10.5765 5.86588 10.6024 5.86588C10.8353 5.71059 10.8612 5.34824 10.8094 5.01176C10.8612 5.01176 10.9129 4.98588 10.9647 4.96C11.2235 4.83059 11.3012 4.49412 11.3271 4.02824C11.4306 4.05412 11.5341 4.00235 11.56 3.97647C11.7929 3.87294 11.8965 3.58824 11.9224 3.27765C12.0259 3.30353 12.1294 3.27765 12.2071 3.25177C12.44 3.14824 12.5694 2.91529 12.6212 2.65647C12.6471 2.65647 12.6471 2.65647 12.6729 2.65647C12.8024 2.65647 13.0094 2.60471 13.1906 2.26824C13.2682 2.11294 13.5529 1.88 13.7859 1.69882C13.8635 1.80235 13.9412 1.93176 14.0188 2.06118C14.0447 2.11294 14.0706 2.21647 14.0965 2.32C14.1741 2.60471 14.2776 3.01882 14.6141 3.14824C14.64 3.58824 14.8212 3.87294 15.2353 4.02824C15.1318 4.33882 15.1318 4.59765 15.2353 4.77882C15.2871 4.90824 15.3647 5.01176 15.4941 5.08941C15.3647 5.42588 15.3388 5.73647 15.4682 5.99529C15.52 6.09882 15.5976 6.20235 15.7012 6.25412C15.52 6.64235 15.4941 6.95294 15.6494 7.18588C15.7012 7.26353 15.7788 7.34118 15.9341 7.39294C15.7529 7.91059 15.3906 8.66118 14.9765 9.07529C14.8471 9.20471 14.64 9.38588 14.3294 9.59294C14.3553 9.48941 14.3294 9.38588 14.2518 9.33412C14.1741 9.25647 14.0965 9.23059 13.9929 9.23059C13.9412 9.23059 13.8376 9.25647 13.8118 9.17882C13.8118 9.10118 13.76 9.02353 13.6824 8.97176C13.6047 8.92 13.5271 8.92 13.4235 8.94588C13.0871 9.04941 12.88 9.20471 12.7506 9.38588C12.4141 7.08235 13.2424 5.19294 13.2682 5.19294C13.32 5.06353 13.2682 4.90824 13.1388 4.85647C13.0094 4.80471 12.8541 4.85647 12.8024 4.98588C12.7765 5.06353 12.0259 6.66824 12.1812 8.79059C11.9741 8.50588 11.7153 8.27294 11.4565 8.11765C11.3012 8.04 11.12 8.06588 11.0165 8.19529C10.9388 8.19529 10.7059 8.01412 10.4471 7.78118C10.2659 7.39294 10.1624 7.10824 10.1106 6.84941C10.2141 6.84941 10.3176 6.87529 10.3953 6.79765C10.6282 6.59059 10.5765 6.35765 10.4729 5.91765ZM6.02118 11.9482C6.09882 11.7929 6.09882 11.6376 6.07294 11.56C5.96941 11.1976 5.47765 10.9906 4.98588 10.8871C5.01176 10.7576 5.01176 10.6541 4.98588 10.5506C4.85647 10.24 4.44235 10.0847 3.92471 10.0071C3.97647 9.87765 3.95059 9.74824 3.92471 9.67059C3.82118 9.36 3.43294 9.17882 2.99294 9.04941C3.04471 8.94588 3.04471 8.84235 3.01882 8.76471C2.96706 8.42824 2.60471 8.19529 2.16471 8.01412C2.21647 7.96235 2.24235 7.91059 2.26824 7.85882C2.37176 7.6 2.19059 7.36706 1.93176 7.05647C1.80235 6.90118 1.62118 6.66824 1.54353 6.48706C1.67294 6.46118 1.82824 6.43529 1.98353 6.43529C2.37176 6.40941 2.88941 6.35765 3.09647 5.96941C3.66588 6.12471 4.15765 6.07294 4.44235 5.89176C4.52 5.84 4.57176 5.78824 4.59765 5.73647C5.01176 5.91765 5.42588 5.94353 5.78824 5.78824C5.96941 5.71059 6.12471 5.60706 6.20235 5.45177C6.53882 5.65882 6.97882 5.89176 7.36706 5.78824C7.47059 5.76235 7.54823 5.78824 7.65176 5.73647C7.93647 6.07294 8.22118 6.30588 8.50588 6.30588C8.63529 6.30588 8.81647 6.20235 8.97176 6.04706C9.17882 6.17647 9.43765 6.33177 9.64471 6.48706C9.43765 6.72 9.61882 7.26353 9.87765 7.83294C9.85176 7.85882 9.85176 7.88471 9.85176 7.88471C9.72235 7.88471 9.36 7.72941 9.17882 7.62588H9.15294C9.07529 7.57412 8.97176 7.6 8.89412 7.65177L8.7647 7.75529V7.91059C8.7647 7.93647 8.7647 7.93647 8.7647 7.93647C8.68706 7.93647 8.53176 7.88471 8.42823 7.85882L8.35059 7.83294C7.93647 7.70353 7.18588 7.93647 7.03059 7.98824L6.82353 8.06588L6.84941 8.27294C6.84941 8.27294 6.90118 8.55765 7.00471 8.81647C6.43529 8.79059 5.45176 8.63529 4.49412 7.85882C4.39059 7.78118 4.20941 7.78118 4.13176 7.91059C4.05412 8.01412 4.05412 8.19529 4.18353 8.27294C5.37412 9.20471 6.53882 9.33412 7.16 9.33412C7.28941 9.33412 7.39294 9.33412 7.44471 9.33412C7.47059 9.36 7.49647 9.38588 7.52235 9.41177C7.49647 9.46353 7.47059 9.54118 7.49647 9.61882C7.52235 9.72235 7.57412 9.8 7.67765 9.85177C7.98824 10.0071 8.06588 10.1365 8.06588 10.1624C8.06588 10.1624 8.06588 10.1882 8.04 10.24C7.98823 10.3176 7.98823 10.4212 8.01412 10.4988C8.04 10.5765 8.11765 10.6541 8.19529 10.68C8.53176 10.7835 8.68706 10.9388 8.73882 11.0424C8.76471 11.0941 8.76471 11.12 8.73882 11.1459C8.68706 11.2494 8.71294 11.3788 8.79059 11.4565C8.81647 11.4824 8.84235 11.5082 8.86823 11.5341C8.81647 11.5341 8.76471 11.56 8.68706 11.5859C7.70353 11.8447 7.34118 12.0259 7.21176 12.1035C7.16 12.1294 7.13412 12.1812 7.10824 12.2071C6.77176 12.1294 6.28 12.0776 6.02118 11.9482ZM13.0871 18.6518C13.0094 18.6 12.9576 18.6 12.9059 18.6C12.5694 18.5741 12.1553 18.9882 11.6894 19.8424C11.5859 19.7906 11.4824 19.7647 11.3788 19.7647C11.3788 19.7647 11.3788 19.7647 11.3529 19.7647C10.8871 19.7647 10.4471 20.2047 10.1106 20.6706C10.0588 20.6447 10.0329 20.6188 10.0071 20.6188C9.61882 20.5153 9.17882 20.8518 8.60941 21.3176C8.48 21.4212 8.37647 21.4988 8.24706 21.6024C8.16941 21.4988 8.09176 21.4212 7.96235 21.3694C7.62588 21.24 7.23765 21.5247 6.82353 21.8353C6.74588 21.8871 6.69412 21.9388 6.61647 21.9906C6.53882 21.9129 6.46118 21.8612 6.38353 21.8353C6.07294 21.7318 5.73647 21.9129 5.34823 22.12C5.16706 22.2235 4.98588 22.3271 4.80471 22.4047C4.77882 22.3529 4.72706 22.3271 4.70118 22.3012C4.41647 22.12 3.97647 22.2235 3.51059 22.3529C3.38118 22.3788 3.22588 22.4306 3.07059 22.4565C3.07059 22.4047 3.09647 22.3788 3.09647 22.3271C3.17412 21.9647 3.30353 21.4729 3.07059 21.0329C3.43294 20.4894 3.51059 19.92 3.25176 19.4541C3.64 19.04 3.89882 18.4188 3.69176 17.7976C4.26118 17.4094 4.44235 16.9435 4.33882 16.2447C4.93412 16.0118 5.27059 15.7012 5.34823 15.3388C5.4 15.1318 5.34824 14.9506 5.27059 14.8212C5.47765 14.6659 6.04706 14.3812 6.61647 14.1224C6.59059 14.2 6.56471 14.2776 6.59059 14.3294C6.61647 14.4071 6.66823 14.4847 6.77176 14.5106C6.79765 14.5106 6.84941 14.5365 6.87529 14.6659C6.92706 14.8212 6.87529 15.0282 6.79765 15.1576C6.72 15.2612 6.72 15.4165 6.79765 15.52C7.16 15.9859 7.21176 16.3741 7.23765 16.5035C7.23765 16.6071 7.28941 16.6847 7.39294 16.7365C7.44471 16.7624 7.49647 16.7882 7.54824 16.7882C7.6 16.7882 7.62588 16.7882 7.67765 16.7624C7.83294 16.6847 8.14353 16.5553 8.42823 16.4C7.6 17.3576 6.69412 18.2118 6.66823 18.2118C6.56471 18.3153 6.56471 18.4706 6.66823 18.5741C6.72 18.6259 6.79765 18.6518 6.84941 18.6518C6.90118 18.6518 6.97882 18.6259 7.03059 18.5741C7.10824 18.5224 8.66118 17.0212 9.59294 15.7788C9.6447 15.8565 9.72235 15.8824 9.82588 15.8824L10.0071 15.8565L10.0588 15.7012C10.1882 15.4424 10.3694 15.2612 10.4471 15.2612C10.4471 15.2612 10.4729 15.2871 10.4988 15.3388C10.5506 15.4424 10.6541 15.52 10.7835 15.4941C10.9129 15.4941 10.9906 15.4165 11.0424 15.3129C11.1718 14.9765 11.3788 14.7953 11.4824 14.7953C11.5082 14.7953 11.5341 14.7953 11.56 14.8471C11.6118 14.9506 11.7153 15.0024 11.8447 15.0024C11.9482 15.0024 12.0518 14.9247 12.1035 14.8212C12.2071 14.5624 12.4141 14.4588 12.4918 14.4588C12.5176 14.5624 12.5953 14.6141 12.6988 14.64L12.8541 14.6659L12.88 14.64C13.0353 15.3906 13.4235 16.0376 13.6824 16.4259C13.8118 17.2024 13.4753 18.0565 13.0871 18.6518ZM20.5929 17.4353C20.3341 17.3576 20.1788 17.4353 20.1012 17.4871L20.0753 17.5129C19.8941 17.4353 19.6871 17.3318 19.4282 17.3576C19.2212 17.3835 19.0659 17.4871 18.9365 17.5906C18.7294 17.4353 18.4447 17.2282 18.1082 17.2541C17.9271 17.28 17.7718 17.3576 17.6682 17.4612C17.5129 17.2541 17.3318 17.0729 17.0471 17.0729C16.8141 17.0729 16.6847 17.1506 16.5812 17.2541C16.4 17.0729 16.1153 16.84 15.8306 16.8659C15.5718 16.8918 15.3647 16.9694 15.2094 17.1506C14.8729 16.9435 14.5106 16.6847 14.4071 16.5294C14.3812 16.5035 14.3553 16.4518 14.3035 16.3741C14.2776 16.3224 14.2518 16.2965 14.2 16.2447C14.1741 16.1929 14.1482 16.1412 14.1224 16.1153C13.7859 15.6235 13.32 14.7694 13.3459 13.8635C13.4753 13.4494 13.5012 12.9318 13.3718 12.4659C13.4235 12.4141 13.4235 12.3365 13.4235 12.2588C13.4235 12.2588 13.5529 12.2847 13.6824 12.3106C13.76 12.3365 13.8376 12.3365 13.9153 12.3106C16.9694 12.6212 18.3153 14.0965 18.3153 14.1224C18.3671 14.1741 18.4447 14.2 18.5224 14.2C18.5741 14.2 18.6518 14.1741 18.7035 14.1482C18.8071 14.0447 18.8329 13.8894 18.7294 13.7859C18.6776 13.7341 17.6682 12.5694 15.3129 12.0259C15.3388 12.0259 15.3388 12 15.3647 12C15.4424 11.9224 15.4682 11.8188 15.4424 11.7153C15.3906 11.56 15.2871 11.4047 15.1835 11.2494C15.3647 11.12 15.5459 11.0165 15.7271 10.9129C16.7365 10.4212 17.4871 10.3176 18.1859 10.2659C18.2118 10.3435 18.2635 10.4212 18.3412 10.4988C18.4706 10.6282 18.6776 10.7059 18.9106 10.7576V10.7318C19.0141 10.7318 19.1435 10.8094 19.2471 10.8094C19.2988 11.0424 19.48 11.4047 20.1012 11.6376C20.0753 11.7929 20.0753 11.9741 20.1529 12.1553C20.2565 12.4659 20.4894 12.7247 20.8259 12.88C20.8 12.9576 20.8 13.0353 20.8 13.1388C20.8259 13.4494 21.1106 13.7341 21.2918 13.8894C21.1624 14.1224 21.0847 14.5106 21.4212 14.9765C21.3694 15.0541 21.3176 15.1318 21.3176 15.2353C21.2918 15.4165 21.3176 15.6753 21.5765 16.0376C21.7318 16.2447 21.7835 16.8141 21.7835 17.2541C21.2659 17.3576 20.7224 17.4612 20.5929 17.4353Z" fill="white" stroke="white" stroke-width="0.3"/>
</svg>
