<svg width="88" height="88" viewBox="0 0 88 88" fill="none" xmlns="http://www.w3.org/2000/svg">
<path fill-rule="evenodd" clip-rule="evenodd" d="M59.654 32.8458C54.821 36.127 50.0373 36.3196 46.2109 34.7297V85.6921H42.6362V58.384C40.2591 61.0514 36.6002 62.8801 31.6577 62.9048C21.3182 62.9552 13.8103 47.4752 10.3611 39.2934C10.1218 38.738 10.1996 38.0716 10.616 37.579C11.203 36.8857 12.2402 36.7993 12.9341 37.3858C16.0717 40.032 21.1573 39.1902 26.2828 38.3417C30.1049 37.709 33.9493 37.0726 37.0246 37.8763C39.3518 38.4848 41.2223 39.6271 42.6367 41.0995V32.505C37.845 28.3385 36.1618 20.9121 41.071 15.2442C43.1518 12.8422 46.6812 11.1921 50.1904 9.55149C54.8968 7.35108 59.5669 5.16769 60.6569 1.21031C60.8967 0.334604 61.802 -0.181054 62.6777 0.0587994C63.299 0.228897 63.7401 0.734897 63.8565 1.32836C65.6418 10.0259 68.2082 27.0383 59.654 32.8458ZM42.6361 49.0884C42.4349 45.5019 40.2649 42.1246 36.1858 41.0584C33.4091 40.3328 30.0428 40.9361 26.523 41.567C22.7498 42.2433 18.8002 42.9512 15.2112 42.0876C17.994 47.96 24.2892 59.6522 31.6431 59.6162C36.3978 59.5921 39.5894 57.4892 41.2624 54.6941C35.8343 54.5213 30.6745 53.0006 26.8809 50.4841C22.1063 47.3177 22.4079 46.7789 27.806 48.4327C31.7863 49.6523 36.8367 50.813 42.6361 50.1911V49.0884ZM54.6422 18.7348C52.05 21.9919 48.5413 25.8064 43.4077 28.5747C40.9759 25.4217 40.5182 20.9069 43.5601 17.3955C45.4392 15.2261 48.5563 13.8191 51.8156 12.3479C55.3095 10.7709 58.9668 9.12005 61.4375 6.37723C62.4662 12.7932 63.8892 25.9964 57.8054 30.127C53.8717 32.7971 50.0496 32.869 47.0887 31.5109C51.4662 28.2978 54.8606 24.1243 56.5654 19.9035C58.7106 14.5913 58.1579 14.3176 54.6422 18.7348Z" fill="white"/>
</svg>
