<svg width="88" height="88" viewBox="0 0 88 88" fill="none" xmlns="http://www.w3.org/2000/svg">
<path fill-rule="evenodd" clip-rule="evenodd" d="M75.29 26.1962C82.7607 33.667 86.9327 43.6604 86.9327 54.2359V85.8655C86.9327 86.9327 86.0595 87.8059 84.9923 87.8059L53.0717 88C42.4961 88 32.5028 83.828 25.032 76.3572L17.6582 68.9835C16.9791 69.2745 16.2029 69.3716 15.4267 69.3716C13.5832 69.3716 11.8368 68.5954 10.5755 67.3341L7.66483 64.4234C2.71665 59.3782 0 52.7806 0 45.7949C0 38.8093 2.71665 32.2117 7.56781 27.2635L13.0011 21.8302L0.873208 13.1951C0.388093 12.9041 0.0970235 12.419 0.0970235 11.8368C0.0970235 11.2547 0.29107 10.6725 0.679162 10.2845L10.3815 0.582139C10.8666 0.194047 11.3517 0 11.9338 0C12.419 0 13.0011 0.29107 13.2922 0.776185L21.9272 12.9041L26.1962 8.63506C31.2415 3.68688 37.839 0.970231 44.8247 0.970231C51.9074 0.970231 58.505 3.68688 63.4531 8.63506L66.3638 11.5458C68.2073 13.4862 68.7894 16.2999 67.9162 18.7255L75.29 26.1962ZM18.3374 21.9272H20.957V19.3076L18.3374 21.9272ZM24.7409 25.8082V34.2492H33.1819V25.8082H24.7409ZM33.1819 38.0331H24.7409V46.4741H33.1819V38.0331ZM44.1455 38.0331H37.0628V45.1158L44.1455 38.0331ZM37.0628 34.2492H45.5039V25.8082H37.0628V34.2492ZM49.2878 25.8082V32.8908L56.3704 25.8082H49.2878ZM49.2878 13.4862V21.9272H57.7288V13.4862H49.2878ZM49.2878 5.23925V9.70231H58.796C55.9824 7.47078 52.7806 5.91841 49.2878 5.23925ZM37.0628 21.9272H45.5039V13.4862H37.0628V21.9272ZM30.7563 9.70231H33.1819V8.05292C32.3087 8.53804 31.5325 9.12018 30.7563 9.70231ZM33.1819 21.9272V13.4862H26.7784L24.7409 15.5237V21.9272H33.1819ZM20.957 25.8082H14.5535L12.516 27.8456V34.2492H20.957V25.8082ZM20.957 38.0331H12.516V46.4741H20.957V38.0331ZM20.957 50.258H12.516V58.699H20.957V50.258ZM31.8236 50.258H24.7409V57.3407L31.8236 50.258ZM64.5204 16.3969C64.5204 15.6207 64.2293 14.8445 63.6472 14.2624L61.5127 12.3219V20.6659L63.6472 18.5314C64.2293 17.9493 64.5204 17.1731 64.5204 16.3969ZM45.5039 9.70231V4.85116C42.011 4.85116 39.4884 5.23925 37.0628 6.20948V9.70231H45.5039ZM11.4487 4.85116L4.94818 11.3517L15.9118 19.0165L19.2106 15.7178L11.4487 4.85116ZM8.73208 34.2492V31.8236C8.05292 32.5998 7.56781 33.376 7.08269 34.2492H8.73208ZM8.73208 38.0331H5.23925C4.26902 40.4587 3.88093 42.4961 3.88093 46.4741H8.73208V38.0331ZM8.73208 50.258H4.26902C4.94818 53.7508 6.50055 57.0496 8.73208 59.7663V50.258ZM11.2547 62.5799L13.2922 64.6174C13.8743 65.1996 14.6505 65.4906 15.4267 65.4906C16.2029 65.4906 16.979 65.1996 17.5612 64.6174L19.5987 62.5799H11.2547ZM53.0717 84.1191H53.2657L83.1488 83.925V54.2359C83.1488 44.7277 79.462 35.7045 72.6703 28.9129L65.6847 21.9272L20.86 66.7519L27.7486 73.6406C34.4432 80.4322 43.4664 84.1191 53.0717 84.1191ZM53.5574 75.5825L78.2013 75.4855C79.2686 75.4855 80.1418 76.3587 80.1418 77.3289C80.1418 78.3962 79.2686 79.2694 78.2013 79.2694L53.5574 79.3664H53.3634C45.2134 79.3664 37.1605 76.0676 31.3391 70.2462L28.7195 67.6266C27.9433 66.8504 27.9433 65.6861 28.7195 64.9099C29.4957 64.1338 30.66 64.1338 31.4362 64.9099L34.0558 67.5296C39.198 72.6718 46.2807 75.5825 53.4604 75.5825H53.5574Z" fill="white"/>
</svg>
