<?xml version="1.0" encoding="UTF-8"?>
<svg width="24px" height="24px" viewBox="0 0 24 24" version="1.1" xmlns="http://www.w3.org/2000/svg" xmlns:xlink="http://www.w3.org/1999/xlink">
    <!-- Generator: Sketch 51.3 (57544) - http://www.bohemiancoding.com/sketch -->
    <title>icon strain flavor / peach</title>
    <desc>Created with Sketch.</desc>
    <defs></defs>
    <g id="icon-strain-flavor-/-peach" stroke="none" stroke-width="1" fill="none" fill-rule="evenodd">
        <path d="M16.6177812,4.2161801 C17.35943,3.46423455 17.768438,2.40024162 18.059034,1.37657744 C18.131969,1.11973184 18.0661844,0.907791308 17.9334713,0.754484799 C17.8734072,0.554843113 17.7223889,0.383517369 17.4561046,0.315158683 C16.0094175,-0.0560947668 14.384254,-0.269751413 13.1060324,0.674685329 C12.7173318,0.961849014 12.209647,1.55591174 11.8258087,2.21776111 C11.69996,1.89741915 11.5352127,1.59452438 11.305253,1.32795411 C10.5575977,0.461314702 9.41409134,0.260814958 8.32349858,0.247944075 C7.40079932,0.23707533 7.4019434,1.66717336 8.32349858,1.67804211 C8.99821883,1.68605066 9.71670008,1.73753419 10.2132301,2.24521899 C10.620522,2.66194956 10.7174827,3.34610846 10.7429384,3.96848712 C5.31400027,3.66816653 1.11151419,8.46871961 1.00196868,13.959438 C0.880696368,20.0467933 6.38056739,25.1734087 12.4350304,23.6944013 C13.1040303,23.8737356 13.8027762,23.9801349 14.5258337,23.9975821 C19.9493375,24.1280071 23.6289798,18.9593468 23.7288006,13.959724 C23.6389905,9.46063561 20.874897,5.33222861 16.6177812,4.2161801 Z M14.1488599,1.69062697 C14.8227221,1.26817601 15.7245419,1.37857958 16.5105238,1.55562572 C16.2588265,2.33131089 15.9058784,3.09526926 15.1976938,3.53917169 C14.8298726,3.76970349 14.3816799,3.80459789 13.960087,3.8106043 C13.6843641,3.81460857 13.4077831,3.77599592 13.1366365,3.73223493 C13.0365297,3.71421569 12.9378529,3.69019004 12.8383181,3.66902459 C13.0897293,2.89534156 13.4423915,2.13367134 14.1488599,1.69062697 Z M2.43206672,13.959438 C2.34597481,9.63138932 5.557975,5.78499764 9.66064024,5.41975061 C7.01009654,7.29632525 5.38865139,10.6642061 5.32286688,13.959438 C5.25336412,17.4477331 7.04813715,20.7143631 9.82767569,22.5262973 C5.60860047,22.2820365 2.5193027,18.3306757 2.43206672,13.959438 Z M14.5258337,22.5674841 C13.8940164,22.5826431 13.2930892,22.5099942 12.7236242,22.3669843 C12.6215152,22.3006278 12.4988128,22.2625872 12.3598073,22.2648753 C8.96017822,21.1991663 6.82332574,17.4954984 6.75296492,13.959724 C6.6651569,9.5524479 10.0175927,5.46007937 14.5258337,5.35196396 C19.1633557,5.24041631 22.2140408,9.72234355 22.2987026,13.959724 C22.2108946,18.3667141 19.1647858,22.4559364 14.5258337,22.5674841 Z M9.74530204,10.31183 C8.87465836,12.3093909 8.77769771,14.4307983 9.28195028,16.5359026 C9.496751,17.4322881 8.11756446,17.8126941 7.90304975,16.9160227 C7.30240858,14.4079167 7.4791687,11.9564427 8.5105554,9.58991647 C8.87809059,8.74644465 10.109977,9.47522261 9.74530204,10.31183 Z" id="Shape" fill="#FFFFFF" fill-rule="nonzero"></path>
    </g>
</svg>