<?xml version="1.0" encoding="UTF-8"?>
<svg width="24px" height="24px" viewBox="0 0 24 24" version="1.1" xmlns="http://www.w3.org/2000/svg" xmlns:xlink="http://www.w3.org/1999/xlink">
    <!-- Generator: Sketch 51.3 (57544) - http://www.bohemiancoding.com/sketch -->
    <title>icon strain flavor / peach alt</title>
    <desc>Created with Sketch.</desc>
    <defs></defs>
    <g id="icon-strain-flavor-/-peach-alt" stroke="none" stroke-width="1" fill="none" fill-rule="evenodd">
        <g id="Group" transform="translate(2.000000, 0.000000)" fill-rule="nonzero">
            <path d="M9.7688,4.27037083 C15.1586667,7.53277083 19.7488,1.61917083 20.1634667,1.10610416 C19.5584,0.81437083 13.2152,-2.60429584 9.7688,4.27037083 Z M10.8741333,3.7642375 C11.7976,2.85970416 18.2544,1.31117083 18.7365333,1.4058375 L10.8741333,3.7642375 Z" id="Shape" fill="#000000"></path>
            <rect id="Rectangle" fill="#000000" x="8.98773333" y="2.62370416" width="1.1344" height="3.0712"></rect>
            <path d="M9.68453333,5.10050416 C9.37813333,5.10050416 9.07786667,5.11357083 8.78133333,5.1354375 C8.77733333,5.13570416 8.77333333,5.13570416 8.76933333,5.13597083 C8.7312,5.13890416 8.69253333,5.1402375 8.6544,5.14317083 C8.65173333,5.14450416 8.6488,5.14637083 8.64613333,5.14770416 C3.52666667,5.57810416 0,9.18850416 0,14.1279708 C0,18.1919708 2.60986667,21.8007708 6.8112,22.9514375 C7.77626667,23.6301042 8.72853333,23.9999708 9.4632,23.9999708 C15.3184,23.9999708 19.3690667,19.0535708 19.3690667,14.1279708 C19.3690667,8.86077083 15.36,5.10050416 9.68453333,5.10050416 Z" id="Shape" stroke="#000000"></path>
        </g>
    </g>
</svg>