<svg width="88" height="88" viewBox="0 0 88 88" fill="none" xmlns="http://www.w3.org/2000/svg">
<path fill-rule="evenodd" clip-rule="evenodd" d="M64.5122 25.8261C66.0023 25.8243 67.332 26.852 67.6736 28.3524L72.7769 50.9965L75.7828 64.33C78.0553 74.4259 69.8597 84.332 58.2152 84.332L32.6166 84.3331C21.0835 84.3331 12.7532 74.5192 15.0498 64.3323L18.04 51.0703L23.1603 28.3534C23.4937 26.8745 24.8069 25.8252 26.3206 25.8263L29.0188 25.8261V21.562L27.1259 21.562C24.5306 21.562 22.2664 19.2978 22.2664 16.7025L22.2652 8.52593C22.2654 5.84059 24.4369 3.66638 27.1248 3.66638H63.7055C65.0032 3.66638 66.225 4.17201 67.1423 5.08935C68.0596 6.00668 68.565 7.22825 68.565 8.52593L68.5662 16.7025C68.5664 19.3828 66.3872 21.562 63.7066 21.562L61.814 21.5618L61.814 25.8263L64.5122 25.8261ZM62.0857 10.1459L28.7448 10.1457L28.7457 15.0825C28.0568 15.0827 61.5954 15.0827 62.0869 15.0825L62.0857 10.1459ZM55.3345 21.5618H35.4981L35.4981 25.8263L55.3345 25.8263L55.3345 21.5618ZM61.9214 32.3056L58.5742 32.3057L28.9115 32.3057L24.9975 49.675C35.4016 53.0651 41.0878 51.4207 47.1983 49.6535C52.1029 48.2351 57.2809 46.7377 65.3915 47.7011L61.9214 32.3056ZM32.6164 77.8538L58.215 77.8527C65.7338 77.8504 70.8112 71.7539 69.459 65.7564L66.9244 54.5066C58.8165 53.0759 53.5188 54.5679 48.2421 56.0539C41.731 57.8876 35.2518 59.7123 23.564 56.0261L21.3705 65.7575C20.0019 71.8329 25.1941 77.8513 32.6164 77.8538ZM54.1924 68.0706C52.9273 66.8055 52.9259 64.755 54.1924 63.4885C55.4587 62.2222 57.5094 62.2234 58.7745 63.4885L59.6014 64.3153C60.8665 65.5804 60.8676 67.6311 59.6014 68.8974C58.3349 70.1639 56.2844 70.1625 55.0193 68.8974L54.1924 68.0706ZM34.5522 63.9871L34.5455 63.9805L33.7164 63.156C32.4467 61.8954 30.3973 61.8998 29.1345 63.1695C27.8758 64.4346 27.8781 66.4819 29.1412 67.7449L29.1478 67.7515L29.9767 68.5759C31.2464 69.8369 33.296 69.8323 34.5588 68.5626C35.8173 67.2973 35.8152 65.2502 34.5522 63.9871ZM47.2847 67.6894L48.1104 68.5151C49.3755 69.7802 49.3769 71.8307 48.1104 73.0972C46.8441 74.3635 44.7934 74.3623 43.5283 73.0972L42.7026 72.2715C41.4375 71.0064 41.4364 68.9557 42.7026 67.6894C43.9691 66.4229 46.0196 66.4243 47.2847 67.6894Z" fill="white"/>
<path d="M67.6736 28.3524L68.6491 28.1326L68.6487 28.1305L67.6736 28.3524ZM64.5122 25.8261L64.5123 26.8261L64.5134 26.8261L64.5122 25.8261ZM72.7769 50.9965L71.8014 51.2164L71.8014 51.2164L72.7769 50.9965ZM75.7828 64.33L76.7584 64.1104L76.7583 64.11L75.7828 64.33ZM58.2152 84.332L58.2152 83.332L58.2152 83.332L58.2152 84.332ZM32.6166 84.3331L32.6166 85.3331L32.6167 85.3331L32.6166 84.3331ZM15.0498 64.3323L14.0743 64.1123L14.0743 64.1123L15.0498 64.3323ZM18.04 51.0703L19.0156 51.2902L19.0156 51.2902L18.04 51.0703ZM23.1603 28.3534L22.1848 28.1335L22.1848 28.1335L23.1603 28.3534ZM26.3206 25.8263L26.3198 26.8263L26.3207 26.8263L26.3206 25.8263ZM29.0188 25.8261L29.0188 26.8261L30.0188 26.826V25.8261H29.0188ZM29.0188 21.562H30.0188V20.562L29.0188 20.562L29.0188 21.562ZM27.1259 21.562L27.1259 22.562L27.1259 22.562L27.1259 21.562ZM22.2664 16.7025L23.2664 16.7025L23.2664 16.7023L22.2664 16.7025ZM22.2652 8.52593L21.2652 8.52584L21.2652 8.52607L22.2652 8.52593ZM67.1423 5.08935L67.8494 4.38224L67.8494 4.38224L67.1423 5.08935ZM68.565 8.52593L67.565 8.52595L67.565 8.52607L68.565 8.52593ZM68.5662 16.7025L69.5662 16.7024L69.5662 16.7023L68.5662 16.7025ZM63.7066 21.562L63.7065 22.562H63.7066V21.562ZM61.814 21.5618L61.8141 20.5618L60.814 20.5617L60.814 21.5618L61.814 21.5618ZM61.814 25.8263L60.814 25.8263L60.814 26.8264L61.8141 26.8263L61.814 25.8263ZM28.7448 10.1457L28.7448 9.1457L27.7446 9.14569L27.7448 10.1459L28.7448 10.1457ZM62.0857 10.1459L63.0857 10.1457L63.0855 9.14593L62.0857 9.14593L62.0857 10.1459ZM28.7457 15.0825L28.746 16.0825L29.7459 16.0821L29.7457 15.0823L28.7457 15.0825ZM62.0869 15.0825L62.0873 16.0825L63.0871 16.082L63.0869 15.0822L62.0869 15.0825ZM35.4981 21.5618V20.5618H34.4981L34.4981 21.5618L35.4981 21.5618ZM55.3345 21.5618L56.3345 21.5618L56.3345 20.5618H55.3345V21.5618ZM35.4981 25.8263L34.4981 25.8263L34.4981 26.8263L35.4981 26.8263L35.4981 25.8263ZM55.3345 25.8263L55.3345 26.8263L56.3345 26.8263L56.3345 25.8263L55.3345 25.8263ZM58.5742 32.3057L58.5742 33.3057L58.5742 33.3057L58.5742 32.3057ZM61.9214 32.3056L62.897 32.0858L62.7211 31.3056L61.9214 31.3056L61.9214 32.3056ZM28.9115 32.3057L28.9115 31.3057L28.1118 31.3057L27.936 32.0858L28.9115 32.3057ZM24.9975 49.675L24.022 49.4552L23.8218 50.3437L24.6877 50.6258L24.9975 49.675ZM47.1983 49.6535L46.9205 48.6929L46.9205 48.6929L47.1983 49.6535ZM65.3915 47.7011L65.2735 48.6941L66.678 48.8609L66.367 47.4812L65.3915 47.7011ZM58.215 77.8527L58.215 78.8527L58.2153 78.8527L58.215 77.8527ZM32.6164 77.8538L32.6161 78.8538L32.6164 78.8538L32.6164 77.8538ZM69.459 65.7564L68.4835 65.9762L68.4835 65.9763L69.459 65.7564ZM66.9244 54.5066L67.8999 54.2868L67.7536 53.6375L67.0982 53.5218L66.9244 54.5066ZM48.2421 56.0539L47.971 55.0914L47.971 55.0914L48.2421 56.0539ZM23.564 56.0261L23.8648 55.0724L22.8276 54.7452L22.5885 55.8062L23.564 56.0261ZM21.3705 65.7575L20.395 65.5376L20.395 65.5377L21.3705 65.7575ZM54.1924 63.4885L53.4853 62.7814L53.4853 62.7814L54.1924 63.4885ZM54.1924 68.0706L53.4853 68.7777L53.4853 68.7777L54.1924 68.0706ZM59.6014 68.8974L58.8943 68.1903L58.8942 68.1903L59.6014 68.8974ZM55.0193 68.8974L55.7264 68.1903L55.7264 68.1903L55.0193 68.8974ZM34.5455 63.9805L35.2525 63.2733L35.2506 63.2714L34.5455 63.9805ZM34.5522 63.9871L35.2593 63.28L35.2592 63.2799L34.5522 63.9871ZM33.7164 63.156L34.4215 62.4469L34.4209 62.4463L33.7164 63.156ZM29.1345 63.1695L29.8434 63.8748L29.8435 63.8747L29.1345 63.1695ZM29.1412 67.7449L28.4341 68.452L28.4341 68.452L29.1412 67.7449ZM29.1478 67.7515L28.4407 68.4587L28.4426 68.4606L29.1478 67.7515ZM29.9767 68.5759L29.2716 69.285L29.272 69.2854L29.9767 68.5759ZM34.5588 68.5626L35.2678 69.2678L35.2678 69.2678L34.5588 68.5626ZM48.1104 68.5151L48.8175 67.808L48.8175 67.808L48.1104 68.5151ZM47.2847 67.6894L46.5776 68.3965L46.5776 68.3965L47.2847 67.6894ZM48.1104 73.0972L47.4033 72.3901L47.4033 72.3901L48.1104 73.0972ZM43.5283 73.0972L44.2354 72.3901L44.2354 72.3901L43.5283 73.0972ZM42.7026 72.2715L41.9955 72.9786L41.9955 72.9786L42.7026 72.2715ZM42.7026 67.6894L43.4097 68.3965L43.4097 68.3965L42.7026 67.6894ZM68.6487 28.1305C68.202 26.1688 66.4624 24.8237 64.511 24.8261L64.5134 26.8261C65.5421 26.8248 66.462 27.5352 66.6986 28.5744L68.6487 28.1305ZM73.7524 50.7766L68.6491 28.1326L66.6981 28.5723L71.8014 51.2164L73.7524 50.7766ZM76.7583 64.11L73.7524 50.7766L71.8014 51.2164L74.8073 64.5499L76.7583 64.11ZM58.2152 85.332C70.4218 85.332 79.1884 74.9062 76.7584 64.1104L74.8072 64.5496C76.9221 73.9457 69.2976 83.332 58.2152 83.332V85.332ZM32.6167 85.3331L58.2153 85.332L58.2152 83.332L32.6166 83.3331L32.6167 85.3331ZM14.0743 64.1123C11.618 75.0079 20.5307 85.3331 32.6166 85.3331V83.3331C21.6363 83.3331 13.8885 74.0305 16.0253 64.5522L14.0743 64.1123ZM17.0645 50.8503L14.0743 64.1123L16.0253 64.5522L19.0156 51.2902L17.0645 50.8503ZM22.1848 28.1335L17.0645 50.8504L19.0156 51.2902L24.1358 28.5732L22.1848 28.1335ZM26.3214 24.8263C24.3394 24.8248 22.6209 26.1986 22.1848 28.1335L24.1358 28.5733C24.3664 27.5504 25.2744 26.8255 26.3198 26.8263L26.3214 24.8263ZM29.0187 24.8261L26.3205 24.8263L26.3207 26.8263L29.0188 26.8261L29.0187 24.8261ZM28.0188 21.562V25.8261H30.0188V21.562H28.0188ZM27.1259 22.562L29.0188 22.562L29.0188 20.562L27.1259 20.562L27.1259 22.562ZM21.2664 16.7025C21.2664 19.85 23.9783 22.562 27.1259 22.562V20.562C25.0829 20.562 23.2664 18.7455 23.2664 16.7025H21.2664ZM21.2652 8.52607L21.2664 16.7026L23.2664 16.7023L23.2652 8.52579L21.2652 8.52607ZM27.1248 2.66638C23.8842 2.66638 21.2655 5.2887 21.2652 8.52584L23.2652 8.52602C23.2654 6.39248 24.9896 4.66638 27.1248 4.66638V2.66638ZM63.7055 2.66638H27.1248V4.66638H63.7055V2.66638ZM67.8494 4.38224C66.7443 3.27717 65.2681 2.66638 63.7055 2.66638V4.66638C64.7382 4.66638 65.7056 5.06685 66.4352 5.79646L67.8494 4.38224ZM69.565 8.52591C69.565 6.96339 68.9545 5.48737 67.8494 4.38224L66.4352 5.79645C67.1647 6.526 67.565 7.49311 67.565 8.52595L69.565 8.52591ZM69.5662 16.7023L69.565 8.52579L67.565 8.52607L67.5662 16.7026L69.5662 16.7023ZM63.7066 22.562C66.9394 22.562 69.5665 19.9351 69.5662 16.7024L67.5662 16.7025C67.5664 18.8304 65.8349 20.562 63.7066 20.562V22.562ZM61.8139 22.5618L63.7065 22.562L63.7068 20.562L61.8141 20.5618L61.8139 22.5618ZM62.814 25.8263L62.814 21.5618L60.814 21.5618L60.814 25.8263L62.814 25.8263ZM64.5121 24.8261L61.8139 24.8263L61.8141 26.8263L64.5123 26.8261L64.5121 24.8261ZM28.7448 11.1457L62.0857 11.1459L62.0857 9.14593L28.7448 9.1457L28.7448 11.1457ZM29.7457 15.0823L29.7448 10.1455L27.7448 10.1459L27.7457 15.0826L29.7457 15.0823ZM62.0864 14.0825C61.841 14.0826 53.3339 14.0826 44.9736 14.0826C40.7937 14.0826 36.6505 14.0826 33.5955 14.0826C32.068 14.0826 30.8125 14.0826 29.9604 14.0825C29.5343 14.0825 29.2091 14.0825 29.0012 14.0825C28.8973 14.0825 28.8227 14.0825 28.7795 14.0825C28.7578 14.0825 28.7442 14.0825 28.7388 14.0825C28.7372 14.0825 28.7371 14.0825 28.7376 14.0825C28.7392 14.0825 29.7352 15.0812 28.7436 16.0824C28.7407 16.0824 28.7374 16.0825 28.7372 16.0825C28.7373 16.0825 28.7374 16.0825 28.7379 16.0825C28.7384 16.0825 28.7389 16.0825 28.7397 16.0825C28.7413 16.0825 28.7433 16.0825 28.746 16.0825L28.7453 14.0825C28.7402 14.0825 28.7362 14.0825 28.7343 14.0825C28.7335 14.0825 28.7299 14.0825 28.7268 14.0825C27.7352 15.0838 28.7313 16.0825 28.7333 16.0825C28.7346 16.0825 28.7364 16.0825 28.7376 16.0825C28.7436 16.0825 28.7576 16.0825 28.7792 16.0825C28.8225 16.0825 28.8972 16.0825 29.0011 16.0825C29.2091 16.0825 29.5343 16.0825 29.9603 16.0825C30.8124 16.0826 32.068 16.0826 33.5955 16.0826C36.6505 16.0826 40.7936 16.0826 44.9736 16.0826C53.3333 16.0826 61.8413 16.0826 62.0873 16.0825L62.0864 14.0825ZM61.0857 10.1462L61.0869 15.0827L63.0869 15.0822L63.0857 10.1457L61.0857 10.1462ZM35.4981 22.5618H55.3345V20.5618H35.4981V22.5618ZM36.4981 25.8263L36.4981 21.5618L34.4981 21.5618L34.4981 25.8263L36.4981 25.8263ZM55.3345 24.8263L35.4981 24.8263L35.4981 26.8263L55.3345 26.8263L55.3345 24.8263ZM54.3345 21.5618L54.3345 25.8263L56.3345 25.8263L56.3345 21.5618L54.3345 21.5618ZM58.5742 33.3057L61.9214 33.3056L61.9214 31.3056L58.5742 31.3057L58.5742 33.3057ZM28.9115 33.3057L58.5742 33.3057L58.5742 31.3057L28.9115 31.3057L28.9115 33.3057ZM25.9731 49.8949L29.8871 32.5255L27.936 32.0858L24.022 49.4552L25.9731 49.8949ZM46.9205 48.6929C43.8563 49.5791 41.008 50.3993 37.6484 50.6C34.3038 50.7998 30.4069 50.3859 25.3073 48.7242L24.6877 50.6258C29.9923 52.3543 34.1405 52.8132 37.7676 52.5965C41.3798 52.3807 44.4298 51.4952 47.4761 50.6142L46.9205 48.6929ZM65.5094 46.708C57.1925 45.7201 51.8552 47.2658 46.9205 48.6929L47.4761 50.6142C52.3507 49.2045 57.3693 47.7552 65.2735 48.6941L65.5094 46.708ZM60.9459 32.5255L64.416 47.9209L66.367 47.4812L62.897 32.0858L60.9459 32.5255ZM58.215 76.8527L32.6164 76.8538L32.6164 78.8538L58.215 78.8527L58.215 76.8527ZM68.4835 65.9763C69.6687 71.233 65.2166 76.8505 58.2147 76.8527L58.2153 78.8527C66.2509 78.8502 71.9537 72.2748 70.4345 65.5364L68.4835 65.9763ZM65.9489 54.7264L68.4835 65.9762L70.4346 65.5366L67.8999 54.2868L65.9489 54.7264ZM48.5132 57.0165C53.762 55.5383 58.8761 54.1019 66.7506 55.4914L67.0982 53.5218C58.7568 52.05 53.2756 53.5975 47.971 55.0914L48.5132 57.0165ZM23.2632 56.9797C29.2087 58.8549 33.8721 59.3407 37.9019 59.1083C41.9191 58.8766 45.2641 57.9315 48.5132 57.0165L47.971 55.0914C44.709 56.01 41.5589 56.8941 37.7868 57.1116C34.0273 57.3284 29.6071 56.8834 23.8648 55.0724L23.2632 56.9797ZM22.3461 65.9774L24.5395 56.2459L22.5885 55.8062L20.395 65.5376L22.3461 65.9774ZM32.6167 76.8538C25.6986 76.8515 21.1468 71.3008 22.3461 65.9773L20.395 65.5377C18.8569 72.365 24.6895 78.8511 32.6161 78.8538L32.6167 76.8538ZM53.4853 62.7814C51.828 64.4387 51.8299 67.1223 53.4853 68.7777L54.8995 67.3635C54.0247 66.4886 54.0238 65.0713 54.8995 64.1956L53.4853 62.7814ZM59.4816 62.7814C57.8262 61.126 55.1423 61.1243 53.4853 62.7814L54.8995 64.1956C55.775 63.3201 57.1926 63.3208 58.0674 64.1956L59.4816 62.7814ZM60.3085 63.6082L59.4816 62.7814L58.0674 64.1956L58.8942 65.0224L60.3085 63.6082ZM60.3085 69.6045C61.9655 67.9475 61.9639 65.2636 60.3085 63.6082L58.8942 65.0224C59.7691 65.8972 59.7698 67.3148 58.8943 68.1903L60.3085 69.6045ZM54.3121 69.6045C55.9675 71.2599 58.6512 71.2618 60.3085 69.6045L58.8942 68.1903C58.0186 69.066 56.6012 69.0652 55.7264 68.1903L54.3121 69.6045ZM53.4853 68.7777L54.3122 69.6045L55.7264 68.1903L54.8995 67.3635L53.4853 68.7777ZM33.8385 64.6877L33.8452 64.6944L35.2592 63.2799L35.2525 63.2733L33.8385 64.6877ZM33.0112 63.865L33.8404 64.6895L35.2506 63.2714L34.4215 62.4469L33.0112 63.865ZM29.8435 63.8747C30.7165 62.9969 32.1332 62.9933 33.0119 63.8656L34.4209 62.4463C32.7602 60.7975 30.0782 60.8026 28.4255 62.4643L29.8435 63.8747ZM29.8483 67.0378C28.9749 66.1645 28.9737 64.749 29.8434 63.8748L28.4256 62.4642C26.778 64.1202 26.7813 66.7993 28.4341 68.452L29.8483 67.0378ZM29.8549 67.0444L29.8483 67.0378L28.4341 68.452L28.4407 68.4587L29.8549 67.0444ZM30.6819 67.8668L29.8529 67.0425L28.4426 68.4606L29.2716 69.285L30.6819 67.8668ZM33.8498 67.8574C32.9767 68.7352 31.5599 68.7389 30.6814 67.8664L29.272 69.2854C30.9329 70.9349 33.6152 70.9294 35.2678 69.2678L33.8498 67.8574ZM33.8451 64.6943C34.7183 65.5675 34.7196 66.9828 33.8498 67.8574L35.2678 69.2678C36.915 67.6117 36.9122 64.9329 35.2593 63.28L33.8451 64.6943ZM48.8175 67.808L47.9918 66.9823L46.5776 68.3965L47.4033 69.2222L48.8175 67.808ZM48.8175 73.8043C50.4748 72.147 50.4729 69.4634 48.8175 67.808L47.4033 69.2222C48.2782 70.0971 48.279 71.5144 47.4033 72.3901L48.8175 73.8043ZM42.8212 73.8043C44.4766 75.4597 47.1605 75.4613 48.8175 73.8043L47.4033 72.3901C46.5278 73.2656 45.1102 73.2649 44.2354 72.3901L42.8212 73.8043ZM41.9955 72.9786L42.8212 73.8043L44.2354 72.3901L43.4097 71.5644L41.9955 72.9786ZM41.9955 66.9823C40.3385 68.6393 40.3401 71.3232 41.9955 72.9786L43.4097 71.5644C42.5349 70.6896 42.5342 69.272 43.4097 68.3965L41.9955 66.9823ZM47.9918 66.9823C46.3365 65.3269 43.6528 65.325 41.9955 66.9823L43.4097 68.3965C44.2854 67.5208 45.7027 67.5216 46.5776 68.3965L47.9918 66.9823Z" fill="#07642C"/>
</svg>
