<?xml version="1.0" encoding="UTF-8"?>
<svg width="24px" height="24px" viewBox="0 0 24 24" version="1.1" xmlns="http://www.w3.org/2000/svg" xmlns:xlink="http://www.w3.org/1999/xlink">
    <!-- Generator: Sketch 51.3 (57544) - http://www.bohemiancoding.com/sketch -->
    <title>icon strain flavor / pineapple</title>
    <desc>Created with Sketch.</desc>
    <defs></defs>
    <g id="icon-strain-flavor-/-pineapple" stroke="none" stroke-width="1" fill="none" fill-rule="evenodd">
        <path d="M7.2816,22.728 C7.89216,23.35968 8.76576,23.78304 9.96192,23.98704 L10.00608,23.99472 L10.07088,23.99472 L13.7376,24 L13.7952,24 L13.84176,23.99232 C15.03936,23.79312 15.86544,23.37648 16.43136,22.73568 C16.99728,22.09488 17.26944,21.26736 17.36544,20.23872 L17.36784,20.21136 L17.36784,20.18064 L17.36592,16.79952 C17.36544,15.0624 17.09328,13.30128 16.42656,11.76864 C15.91488,10.59312 15.17088,9.55104 14.14224,8.75232 L16.68816,5.06448 L17.76336,3.50688 L15.96144,4.08192 L14.09472,4.6776 L14.8416,2.00064 L15.39984,0 L13.80336,1.332 L11.48976,3.26256 L9.24864,2.22144 L7.84608,1.57008 L8.36928,3.02688 L9.06048,4.95168 L7.68864,4.69776 L6,4.38528 L7.0656,5.7336 L9.456,8.75904 C8.4312,9.5568 7.69008,10.59696 7.17984,11.7696 C6.51312,13.30176 6.24096,15.06288 6.24048,16.8 L6.23856,20.18112 L6.23856,20.21184 L6.24144,20.2392 C6.33648,21.25344 6.66096,22.08576 7.2816,22.728 Z M7.72176,21.02928 L9.6672,20.01408 L11.64384,21.0456 L11.90736,21.18336 L12.17088,21.0456 L14.14704,20.01408 L15.93696,20.94768 C15.83472,21.32112 15.68208,21.63168 15.46368,21.87984 C15.10608,22.28544 14.53728,22.55952 13.68,22.70784 L10.13616,22.70304 C9.2472,22.5456 8.62128,22.25328 8.21376,21.83184 C7.99728,21.60816 7.83552,21.33984 7.72176,21.02928 Z M9.6672,16.54992 L11.64384,17.58144 L11.90736,17.7192 L12.17088,17.58144 L14.14704,16.54992 L16.0752,17.55552 L16.07616,19.73472 L14.41104,18.86592 L14.14752,18.72864 L13.884,18.86592 L11.90784,19.89744 L9.9312,18.86592 L9.66768,18.72864 L9.40416,18.86592 L7.53168,19.8432 L7.53312,17.664 L7.692,17.58096 L9.6672,16.54992 Z M9.63168,13.08624 L11.60832,14.11776 L11.87184,14.25552 L12.13584,14.11776 L14.11248,13.08624 L15.77856,13.95552 C15.94608,14.7024 16.03728,15.48192 16.0656,16.26576 L14.41152,15.40272 L14.148,15.26544 L13.88448,15.40272 L11.90832,16.43424 L9.93168,15.40272 L9.66816,15.26544 L9.40464,15.40272 L7.53984,16.37568 C7.5624,15.5832 7.6488,14.7936 7.81248,14.03616 L9.63168,13.08624 Z M10.4952,9.5952 L13.1112,9.5952 C14.07984,10.2696 14.77152,11.20752 15.24096,12.2856 L15.29856,12.42096 L14.37552,11.93952 L14.11152,11.80224 L13.848,11.93952 L11.87136,12.97104 L9.89472,11.93952 L9.6312,11.80224 L9.36768,11.93952 L8.27136,12.51168 L8.36544,12.28608 C8.83488,11.20704 9.52656,10.2696 10.4952,9.5952 Z M12.2064,6.63552 L13.34544,6.27168 L14.5488,5.88768 L12.88464,8.29824 L10.73856,8.29824 L9.14448,6.28128 L9.93216,6.4272 L11.03616,6.63216 L10.65648,5.57376 L10.1088,4.04784 L11.3184,4.60992 L11.68896,4.78224 L12.00528,4.51872 L13.03776,3.65664 L12.52848,5.48352 L12.2064,6.63552 Z" id="Shape" fill="#FFFFFF" fill-rule="nonzero"></path>
    </g>
</svg>