<?xml version="1.0" encoding="UTF-8"?>
<svg width="24px" height="24px" viewBox="0 0 24 24" version="1.1" xmlns="http://www.w3.org/2000/svg" xmlns:xlink="http://www.w3.org/1999/xlink">
    <!-- Generator: Sketch 51.3 (57544) - http://www.bohemiancoding.com/sketch -->
    <title>icon strain flavor / pine</title>
    <desc>Created with Sketch.</desc>
    <defs></defs>
    <g id="icon-strain-flavor-/-pine" stroke="none" stroke-width="1" fill="none" fill-rule="evenodd">
        <path d="M12.9299942,17.3489886 L18.4440905,17.3489886 L15.0175831,11.6784049 L16.6762299,11.6784049 L13.4213657,6.30025043 L14.6944531,6.30025043 L12.0756259,1.79600166 L9.45847318,6.30025043 L10.731784,6.30025043 L7.47691982,11.6784049 L9.13556661,11.6784049 L5.70905919,17.3489886 L11.3778463,17.3489886 L11.3778463,22.6 L12.9299942,22.6 L12.9299942,17.3489886 Z M13.7299942,23.4 L10.5778463,23.4 L10.5778463,18.1489886 L4.29094081,18.1489886 L7.71744823,12.4784049 L6.05765926,12.4784049 L9.31252345,7.10025043 L8.06840025,7.10025043 L12.0754047,0.203998344 L16.0849728,7.10025043 L14.8406262,7.10025043 L18.0954904,12.4784049 L16.4357015,12.4784049 L19.8622089,18.1489886 L13.7299942,18.1489886 L13.7299942,23.4 Z" id="Path" fill="#FFFFFF" fill-rule="nonzero"></path>
    </g>
</svg>