<?xml version="1.0" encoding="UTF-8"?>
<svg width="24px" height="24px" viewBox="0 0 24 24" version="1.1" xmlns="http://www.w3.org/2000/svg" xmlns:xlink="http://www.w3.org/1999/xlink">
    <!-- Generator: Sketch 51.3 (57544) - http://www.bohemiancoding.com/sketch -->
    <title>icon strain flavor / pineapple alt</title>
    <desc>Created with Sketch.</desc>
    <defs></defs>
    <g id="icon-strain-flavor-/-pineapple-alt" stroke="none" stroke-width="1" fill="none" fill-rule="evenodd">
        <path d="M5.47518994,11.9086291 C5.40039343,12.2286142 5.33799634,12.5449994 5.280799,12.8577848 L5.280799,12.8653845 C4.62322967,16.478816 5.12600622,19.545073 6.73193133,21.5657787 C7.22823954,22.190328 7.84150987,22.7121648 8.53744712,23.1021071 C8.55802087,23.1154247 8.57985909,23.1266788 8.60264408,23.1357055 C9.7092045,23.7237948 10.9471426,24.0208229 12.2000763,23.9988653 C13.4526051,24.020775 14.6901758,23.7241819 15.7967086,23.1369055 C15.8248183,23.1266815 15.8516598,23.1132607 15.8767048,23.0969073 C16.567623,22.7072106 17.1766462,22.1875579 17.6702212,21.5665787 C19.2797461,19.5386733 19.7809228,16.4628167 19.1161538,12.8393857 C19.1161538,12.8341859 19.1161538,12.8297861 19.1133539,12.8249864 C19.0581565,12.5238004 18.9973593,12.2198146 18.9253627,11.911029 C18.591833,10.2489024 17.7130322,8.74566458 16.4282791,7.6396282 C16.7644667,6.77840803 17.4463998,6.09763571 18.3081914,5.76291573 C18.4730175,5.71098247 18.5858512,5.55906564 18.587943,5.38626423 C18.5900348,5.21346282 18.4809117,5.05885915 18.317391,5.00295117 C17.7071216,4.79169691 17.0774009,4.64150183 16.4374787,4.55457208 C17.3022384,3.59941662 18.0682026,2.87105059 18.0774022,2.86385093 C18.1867243,2.76102957 18.2292886,2.60566324 18.1876358,2.46148072 C18.1459831,2.3172982 18.0271235,2.20856541 17.8798114,2.17988283 C16.1154937,1.81709975 14.6983598,2.00509098 13.6480088,2.72425744 C13.3891319,1.70799073 12.8343901,0.791448695 12.0540831,0.0907802552 C11.9445793,0.000924713256 11.7957171,-0.0243112734 11.6627169,0.0244335491 C11.5297167,0.0731783716 11.4324179,0.188632806 11.4069133,0.327969194 C11.2481396,1.13720085 11.0225782,1.93188329 10.7325448,2.70385839 C9.68219374,1.99669137 8.26705973,1.81989961 6.52034119,2.17988283 C6.37419401,2.20977624 6.25682563,2.31851368 6.21587794,2.4619567 C6.17493025,2.60539973 6.21720814,2.75971029 6.32555028,2.862251 C6.33354991,2.86945067 7.0991142,3.59741672 7.9654738,4.55297215 C7.32554775,4.63988119 6.69582504,4.79007675 6.08556147,5.00135124 C5.92211717,5.05751014 5.81322676,5.21229198 5.81559149,5.385099 C5.81795622,5.55790603 5.9310412,5.70965031 6.09596099,5.7613158 C6.95638946,6.09791207 7.63762846,6.77784656 7.97587331,7.63762829 C6.68995867,8.74310114 5.80988237,10.2462129 5.47518994,11.9086291 Z M8.68744013,8.07960768 C8.99016927,7.85356381 9.31328125,7.65618832 9.65259512,7.49003518 C10.2449812,8.16655548 10.8846961,8.80012187 11.5669058,9.38594676 C10.7887514,9.99806114 9.96566906,10.5507938 9.10462067,11.0394696 C8.50464865,10.5142941 7.92507568,9.96631969 7.40310003,9.42874476 C7.75830042,8.91485815 8.19164427,8.45965142 8.68744013,8.07960768 Z M10.5873515,7.0972535 C10.6249498,7.08525406 10.6609481,7.07485454 10.6977464,7.06365506 C10.7345447,7.05245559 10.7613434,7.04405598 10.792142,7.03525639 C10.8321401,7.02405691 10.8689384,7.01445736 10.9069366,7.00405784 C10.9341353,6.99685818 10.9617341,6.98885855 10.9869329,6.98205887 C11.0249311,6.97245932 11.0609294,6.96445969 11.0977277,6.9556601 L11.1729242,6.93766094 C11.2129223,6.92886135 11.2529205,6.92086172 11.2897188,6.91326208 L11.3465161,6.90126264 L11.4729102,6.87806372 L11.5077086,6.87166402 C11.5501066,6.86446435 11.5905047,6.85846463 11.6301029,6.85246491 L11.6553017,6.8484651 L11.7752961,6.83246584 L11.7880955,6.83246584 C11.9744868,6.80966691 12.1036808,6.80286723 12.1624781,6.80086732 C12.1752775,6.80086732 12.1864769,6.80806698 12.1992763,6.80806698 C12.2120758,6.80806698 12.2220753,6.80166728 12.2344747,6.80046734 C12.2652733,6.80046734 12.314471,6.80366719 12.3860676,6.80926693 C12.9291273,6.8564679 13.4639503,6.97273376 13.9775934,7.15525079 C13.4238612,7.76756813 12.830047,8.34240807 12.2000763,8.87597054 C11.5697599,8.34279947 10.9756716,7.76822008 10.4217592,7.15605075 L10.4617574,7.14285137 C10.5033554,7.12765208 10.5457535,7.11245279 10.5873515,7.0992534 L10.5873515,7.0972535 Z M17.9046103,13.1013735 C17.0987965,13.8580007 16.2519556,14.5697103 15.3679286,15.2332741 C14.5491668,14.8284929 13.7324048,14.3729142 12.9308422,13.8733375 C13.7688031,13.2993642 14.5943646,12.6733934 15.3955273,12.0026247 C16.2038747,12.429779 17.0424893,12.7970155 17.9046103,13.1013735 Z M17.8550126,19.7190649 C17.4256993,19.5950706 16.9998525,19.4577437 16.5774722,19.3070841 C17.1993098,18.8732376 17.811148,18.4117925 18.4129866,17.9227486 C18.2972128,18.5411148 18.1099654,19.1439307 17.8550126,19.7190649 Z M12.2000763,20.9522073 C11.2961927,20.5129696 10.4162017,20.0261774 9.56379926,19.4938754 C10.4641711,19.1172733 11.3441421,18.6936429 12.2000763,18.2247345 C13.0559961,18.6937907 13.9359679,19.117555 14.8363534,19.4942753 C13.9838092,20.0262152 13.1038305,20.5128671 12.2000763,20.9522073 Z M5.98756604,17.9211487 C6.58593814,18.407526 7.19750961,18.8688378 7.82228048,19.3050842 C7.40043348,19.4546772 6.97472,19.5920041 6.54514004,19.7170649 C6.29013982,19.1421217 6.10301941,18.5394168 5.98756604,17.9211487 Z M9.00462534,12.0038247 C9.80458803,12.6737934 10.6305495,13.3001642 11.4693104,13.8745374 C10.6693477,14.3725142 9.85178583,14.828093 9.03222405,15.234474 C8.14814718,14.570973 7.3013029,13.8592606 6.49554235,13.1025734 C7.35760421,12.7980658 8.19620806,12.4308341 9.00462534,12.0038247 Z M14.6407625,15.7636493 C13.8535958,16.3194961 13.0390075,16.8354554 12.2000763,17.3095772 C11.3613831,16.8350563 10.5470612,16.3186961 9.7601901,15.7624494 C10.5813518,15.341269 11.4001136,14.8712909 12.2000763,14.3593148 C13.000039,14.8712909 13.8192008,15.341269 14.6399625,15.7624494 L14.6407625,15.7636493 Z M5.81957388,16.5796113 C5.76705917,15.6146147 5.81248923,14.6467802 5.95516755,13.690946 C6.66833429,14.3613147 7.42709891,15.0064846 8.22226182,15.620456 C7.44789794,15.9752395 6.64353545,16.2960245 5.81957388,16.5796113 Z M6.40034679,17.2243812 C7.26642425,16.9148679 8.1160367,16.5610853 8.94582808,16.1644306 C9.73939107,16.7408038 10.5533531,17.2747788 11.3761147,17.7579563 C10.5203574,18.2075941 9.64068922,18.6101745 8.74103763,18.9639001 C7.94107494,18.4279251 7.15591155,17.8439523 6.40034679,17.2243812 Z M13.0240379,17.7591563 C13.8471995,17.2755788 14.6611615,16.7420037 15.4543245,16.1656306 C16.2841663,16.5621724 17.1337729,16.9159526 17.9998058,17.2255811 C17.2398413,17.8479521 16.4562778,18.4307249 15.658715,18.9651 C14.7592415,18.6112617 13.8797125,18.2086839 13.0240379,17.7591563 Z M18.5805787,16.5808112 C17.7574171,16.2972244 16.9530546,15.9768394 16.1778908,15.620856 C16.9706538,15.0088845 17.7263519,14.3657145 18.4449851,13.691346 C18.588043,14.6470087 18.6334749,15.6147492 18.5805787,16.5796113 L18.5805787,16.5808112 Z M12.2000763,13.4041594 C11.370115,12.8489853 10.5509532,12.2394137 9.75499034,11.5858442 C10.6091251,11.0856259 11.4262534,10.5247442 12.2000763,9.90752243 C12.9737777,10.5251999 13.7907673,11.0866129 14.6447623,11.5874441 C13.8483994,12.2394137 13.0296376,12.8493852 12.2000763,13.4041594 Z M6.97352006,10.1327119 C7.40576657,10.5721581 7.86494515,11.0081378 8.35105582,11.4406509 C7.65368213,11.7937315 6.93406031,12.1010338 6.19675629,12.360608 C6.21635537,12.2706122 6.23315459,12.1818164 6.2543536,12.0914206 C6.40814726,11.410101 6.64989685,10.7516763 6.97352006,10.1327119 Z M7.35710217,21.0682019 C7.19978181,20.8677682 7.05523598,20.6576291 6.92432235,20.4390313 C7.50549525,20.2666393 8.08106841,20.0750483 8.64424214,19.8590583 C9.49352437,20.4110548 10.3700598,20.919942 11.2705197,21.3837872 C10.4595616,21.739901 9.63091736,22.0542972 8.78783545,22.3257433 C8.23941831,21.9956881 7.75480029,21.5697336 7.35710217,21.0682019 Z M9.84018637,22.8125206 C10.6345493,22.5281338 11.4245125,22.2017491 12.2000763,21.838566 C12.9764401,22.2017491 13.7664033,22.5281338 14.5599663,22.8125206 C13.0288213,23.3273325 11.3713313,23.3273325 9.84018637,22.8125206 Z M17.0438504,21.0682019 C16.6462654,21.5693631 16.1617731,21.9949197 15.6135171,22.3245433 C14.7705442,22.0527864 13.9419157,21.7383962 13.1308329,21.3825873 C14.0313276,20.9188056 14.9078662,20.4099166 15.7571104,19.8578584 C16.3206841,20.0742483 16.8962573,20.2658394 17.4770302,20.4378313 C17.3457718,20.6568729 17.2008239,20.8674147 17.0430504,21.0682019 L17.0438504,21.0682019 Z M18.2037963,12.3582081 C17.4661972,12.0995262 16.7464105,11.7926115 16.0490968,11.439451 C16.5336075,11.0082711 16.9929195,10.5722914 17.4270325,10.131512 C17.7504596,10.7502249 17.9924581,11.4081919 18.146999,12.0890207 C18.167398,12.1802164 18.1837972,12.2686123 18.2033963,12.3594081 L18.2037963,12.3582081 Z M16.9974526,9.42714484 C16.4774768,9.96511975 15.8967039,10.5130942 15.2955319,11.0378697 C14.4347884,10.55025 13.6118495,9.99872719 12.8336468,9.38794667 C13.5158565,8.80212177 14.1555714,8.16855538 14.7479575,7.49203508 C14.8731516,7.55523214 15.0023456,7.61202949 15.1215401,7.68402613 C15.3265417,7.80454431 15.5240909,7.93731232 15.7131125,8.08160759 C16.2085787,8.46049026 16.641786,8.91448076 16.9970526,9.42714484 L16.9974526,9.42714484 Z M15.7683099,7.14365133 C15.7283118,7.11765254 15.6827139,7.09685351 15.6415158,7.07165469 C15.5403205,7.0092576 15.4355254,6.95166029 15.3303303,6.89366299 C15.2551338,6.85366486 15.1847371,6.80526711 15.1075407,6.76646892 C15.1119405,6.75446948 15.1155403,6.74207006 15.1199401,6.73007062 C15.1515387,6.63807491 15.186337,6.54567922 15.2247352,6.45488345 C15.231135,6.43928418 15.2379346,6.42488485 15.2443343,6.40968556 C15.2807326,6.32568948 15.3187309,6.24289334 15.3571291,6.16369703 C15.3647287,6.14849774 15.3719284,6.13289847 15.379128,6.11769918 C15.4215261,6.03250315 15.4635241,5.95170692 15.5035222,5.87771037 L15.5291211,5.83051257 C15.5691192,5.75931589 15.6063175,5.69091908 15.6391159,5.63532168 C15.6963133,5.53532634 15.7615102,5.43173117 15.830707,5.32693606 L15.852706,5.29453757 C16.2850286,5.32422225 16.7141071,5.39004908 17.1354461,5.49132839 C16.5425591,5.91250931 16.0710371,6.48239143 15.7683099,7.14365133 Z M16.9562545,2.83985205 C16.6362694,3.16183703 16.2134891,3.59981661 15.7631101,4.10259316 C15.6066794,4.27718642 15.4598051,4.46011167 15.3231307,4.6505676 C15.1811373,4.85055827 15.0543432,5.04654913 14.9471482,5.23334042 C14.8907508,5.33053589 14.8299537,5.44053076 14.7691565,5.55572539 C14.7527573,5.58612397 14.737558,5.61692253 14.7215587,5.64812108 C14.673161,5.7421167 14.6263632,5.8385122 14.5799653,5.9393075 C14.5639661,5.97410588 14.5479668,6.00770431 14.5323675,6.04330265 C14.4743702,6.17489651 14.4187728,6.30849028 14.372375,6.44328399 L14.3463762,6.43488439 C14.1835838,6.37528717 14.0263911,6.32368957 13.8743982,6.27889166 L13.8403998,6.26889213 C13.6804073,6.22209431 13.5252145,6.18329612 13.3812212,6.15129761 C13.235628,6.1192991 13.1012343,6.09410028 12.9772401,6.07410121 L12.9536412,6.07050138 C12.8400465,6.05210224 12.7376512,6.03850287 12.6468555,6.02850334 L12.6336561,6.02850334 C12.6336561,6.01530395 12.6372559,6.00130461 12.6392558,5.9885052 C12.6448556,5.9457072 12.6520552,5.90010933 12.6600549,5.85251155 C12.6636547,5.82931263 12.6672545,5.80691367 12.6716543,5.78251481 C12.6839204,5.71371802 12.6987197,5.6413214 12.7160522,5.56532494 C12.720452,5.54612584 12.7260518,5.52532681 12.7308516,5.5061277 C12.7464508,5.44213069 12.76405,5.37573378 12.7836491,5.30613703 C12.7904488,5.28253813 12.7972485,5.25853925 12.8044481,5.23454037 C12.8312469,5.1481444 12.8604455,5.05974852 12.8944439,4.9701527 C12.8996437,4.95615335 12.9060434,4.942154 12.9116431,4.92815466 C12.9424417,4.84815839 12.9768401,4.76816212 13.0140383,4.68816585 C13.0248378,4.66496693 13.0356373,4.64176801 13.0468368,4.61856909 C13.0928347,4.52537344 13.1420324,4.43177781 13.1976298,4.33858215 C13.2020296,4.33098251 13.2072293,4.32418282 13.2116291,4.31698316 C13.2636267,4.23218711 13.321224,4.14899099 13.3820212,4.06699482 C13.3988204,4.04459586 13.4160196,4.02179693 13.4336188,3.99979795 C13.5037017,3.90919792 13.5788866,3.8226619 13.6588083,3.74061004 C14.4083733,2.98224541 15.5143217,2.67985951 16.9562545,2.83985205 Z M12.0276844,1.22672728 C12.5146562,1.83358993 12.833686,2.55771718 12.9528412,3.32662935 C12.9408418,3.34022871 12.9312422,3.35462804 12.9196428,3.36662748 C12.8644453,3.43022451 12.8132477,3.49502149 12.76365,3.56021845 C12.742851,3.58781716 12.720452,3.6150159 12.700453,3.64301459 C12.6340561,3.7350103 12.572059,3.82860594 12.5156616,3.92300153 C12.5044621,3.94100069 12.4956625,3.95899985 12.485263,3.97699901 C12.4396651,4.05699528 12.3960672,4.13419168 12.356469,4.21338799 C12.3396698,4.24618646 12.3248705,4.27898493 12.3092712,4.3117834 C12.2780727,4.37698036 12.2484741,4.44177734 12.2212753,4.50657432 C12.2148756,4.52217359 12.206476,4.53817284 12.2000763,4.55377212 C12.1928766,4.53657292 12.1836771,4.51897374 12.1760774,4.50137456 C12.142479,4.42137829 12.1064807,4.34138202 12.0668825,4.26138575 C12.0512832,4.22938724 12.034484,4.19778872 12.0180848,4.16619019 C11.9780867,4.0929936 11.9380885,4.02059698 11.8960905,3.94780038 C11.8772914,3.91580187 11.8584922,3.88380336 11.8380932,3.85140487 C11.7876955,3.7714086 11.7328981,3.69141233 11.6753008,3.61381595 C11.6597015,3.59221696 11.6457022,3.57021799 11.6293029,3.54861899 C11.5543731,3.45102354 11.4743768,3.35569466 11.3893141,3.26263233 C11.3845143,3.25743257 11.3809145,3.25183283 11.3761147,3.24663308 C11.6450288,2.59112661 11.8628677,1.9158129 12.0276844,1.22672728 Z M10.6277496,3.63581493 C10.7164761,3.71767422 10.800096,3.80490073 10.878138,3.89700275 C10.899337,3.92140161 10.9181361,3.94620045 10.9393351,3.97099929 C11.0025322,4.04899566 11.0617294,4.12899193 11.1161269,4.2109881 C11.1253264,4.22538743 11.1361259,4.2389868 11.1453255,4.25338612 C11.2061227,4.3481817 11.2605201,4.44417723 11.3105178,4.54057273 C11.3241172,4.5669715 11.3369166,4.59337027 11.3505159,4.620569 C11.3885142,4.70056527 11.4241125,4.77656173 11.455711,4.85375813 C11.4649106,4.8757571 11.4749101,4.89775607 11.4833097,4.91935507 C11.520508,5.01375066 11.5533065,5.10694632 11.5821051,5.19934201 C11.5897048,5.22294091 11.5961045,5.24573984 11.6029042,5.26893876 C11.6249031,5.34173537 11.6449022,5.41333203 11.6621014,5.4825288 C11.6677011,5.50452778 11.6737009,5.52652675 11.6785006,5.54812574 C11.6980997,5.63172184 11.7152989,5.71251808 11.7292983,5.78811455 C11.7316982,5.80131393 11.7332981,5.81251341 11.735698,5.82531282 C11.7472974,5.89170972 11.757297,5.95410681 11.7652966,6.01170412 L11.7680965,6.03250315 L11.7596968,6.03250315 C11.6665012,6.04290267 11.5597062,6.05690201 11.4441116,6.07570114 L11.4261124,6.07850101 C11.1344904,6.12609987 10.8459858,6.19114697 10.5621527,6.27329192 L10.5289542,6.28369144 C10.376428,6.32795604 10.2185687,6.38008694 10.0553763,6.44008414 L10.0313775,6.44768379 C9.98417965,6.31249009 9.92898223,6.17969629 9.87138491,6.04770244 C9.85498568,6.01050418 9.83858644,5.9757058 9.82178723,5.93890752 C9.77618935,5.84051211 9.7301915,5.74611651 9.6829937,5.65452078 C9.66619448,5.62132233 9.65019523,5.5897238 9.63339601,5.55772529 C9.57299883,5.44373061 9.51340161,5.3345357 9.45700424,5.23774022 C9.34860929,5.04894902 9.22181521,4.8521582 9.07982183,4.65296749 L9.07982183,4.6505676 C8.94385113,4.4615051 8.79777897,4.27991631 8.64224224,4.10659297 C8.18706346,3.60301646 7.76308324,3.16303698 7.44389812,2.83985205 C8.8102344,2.68945906 9.8801845,2.95464669 10.6269497,3.63581493 L10.6277496,3.63581493 Z M7.26550644,5.49092841 C7.68680726,5.38945498 8.11590221,5.32362563 8.54824662,5.29413759 C8.55544628,5.30533707 8.56384589,5.31693652 8.57104556,5.328136 C8.63984235,5.43253113 8.70543929,5.5361263 8.7630366,5.6369216 C8.79503511,5.69131906 8.83223338,5.756916 8.87063158,5.82811268 L8.89943024,5.88051024 C8.93942838,5.95410681 8.97942651,6.03290313 9.01942465,6.11689922 C9.02742427,6.13289847 9.0354239,6.15009767 9.04342353,6.1664969 C9.08142175,6.24649317 9.11862002,6.32648944 9.15461834,6.4088856 C9.16141802,6.42448487 9.16821771,6.43928418 9.17461741,6.45488345 C9.21461554,6.54567922 9.24781399,6.63807491 9.2798125,6.73007062 C9.28381232,6.74247004 9.28741215,6.75446948 9.29181194,6.76646892 C9.21501552,6.80646706 9.14541877,6.85166495 9.07062226,6.89286303 C8.9646272,6.95086032 8.85943211,7.00885762 8.75743686,7.07165469 C8.71743873,7.09685351 8.67144087,7.11765254 8.63104276,7.14365133 C8.328597,6.48234047 7.85735405,5.91232412 7.26470648,5.49092841 L7.26550644,5.49092841 Z" id="Shape" fill="#FFFFFF" fill-rule="nonzero"></path>
    </g>
</svg>