<svg width="24" height="24" viewBox="0 0 24 24" fill="none" xmlns="http://www.w3.org/2000/svg">
<path d="M20.816 3.6C17.8384 3.6 15.5124 4.0216 13.8748 4.8536C14.106 4.37332 14.4012 3.92659 14.7524 3.5256C15.039 3.22225 15.1957 2.81895 15.1891 2.4017C15.1826 1.98445 15.0132 1.58627 14.7173 1.29208C14.4213 0.997896 14.0221 0.830978 13.6049 0.826927C13.1876 0.822876 12.7852 0.982013 12.4836 1.2704C12.2051 1.56455 11.951 1.88078 11.7236 2.216C10.4604 0.0332003 8.8864 2.1011e-07 8.816 2.1011e-07C8.74095 -7.6702e-05 8.66739 0.0209635 8.60373 0.060716C8.54007 0.100469 8.48887 0.15733 8.456 0.2248C7.88988 1.46695 7.57815 2.80988 7.5392 4.1744C5.85816 3.7616 4.13069 3.56852 2.4 3.6C2.32572 3.6 2.2529 3.62069 2.18971 3.65974C2.12652 3.69879 2.07545 3.75467 2.04223 3.82112C2.00901 3.88756 1.99495 3.96194 2.00162 4.03592C2.00829 4.10991 2.03543 4.18057 2.08 4.24C2.7111 5.04883 3.40916 5.80309 4.1668 6.4948C4.06054 6.57594 3.95929 6.66343 3.8636 6.7568C2.896 7.7292 2.6864 9.1112 3.3052 10.08C3.11397 10.2895 2.95025 10.5226 2.818 10.7736C2.098 12.1416 2.3836 13.8136 3.456 14.5004C3.59315 14.5871 3.74108 14.6554 3.896 14.7036C3.8098 14.892 3.74279 15.0886 3.696 15.2904C3.4112 16.5304 3.936 17.74 4.886 18.186C4.84031 18.3875 4.81683 18.5934 4.816 18.8C4.816 20.1236 5.7132 21.2 6.816 21.2C6.854 21.2 6.8912 21.1932 6.9288 21.1904C7.02401 21.6282 7.26014 22.0227 7.60101 22.3134C7.94188 22.6041 8.36868 22.7751 8.816 22.8C9.0725 22.7976 9.3251 22.737 9.5548 22.6228C9.73683 23.0209 10.026 23.3606 10.39 23.6038C10.754 23.847 11.1785 23.9842 11.616 24C12.0535 23.9842 12.478 23.847 12.842 23.6038C13.206 23.3606 13.4952 23.0209 13.6772 22.6228C13.9069 22.7369 14.1595 22.7975 14.416 22.8C14.8634 22.7752 15.2903 22.6043 15.6313 22.3136C15.9723 22.0228 16.2084 21.6283 16.3036 21.1904C16.3412 21.1932 16.378 21.2 16.416 21.2C17.5188 21.2 18.416 20.1236 18.416 18.8C18.4158 18.5936 18.393 18.3878 18.348 18.1864C19.2988 17.7404 19.8228 16.5312 19.5376 15.2892C19.4909 15.0879 19.4239 14.8918 19.3376 14.704C19.4925 14.6557 19.6404 14.5874 19.7776 14.5008C20.8504 13.814 21.1376 12.1408 20.4176 10.776C20.2864 10.5233 20.122 10.2892 19.9288 10.08C20.5464 9.116 20.3368 7.7308 19.3688 6.7568C19.2731 6.66313 19.1716 6.57562 19.0648 6.4948C19.8174 5.80284 20.5103 5.04856 21.136 4.24C21.1806 4.18057 21.2077 4.10991 21.2144 4.03592C21.2211 3.96194 21.207 3.88756 21.1738 3.82112C21.1405 3.75467 21.0895 3.69879 21.0263 3.65974C20.9631 3.62069 20.8903 3.6 20.816 3.6V3.6ZM13.0508 1.8348C13.2023 1.6946 13.4022 1.61842 13.6086 1.62218C13.815 1.62594 14.012 1.70934 14.1584 1.85496C14.3047 2.00058 14.3891 2.19713 14.3939 2.40352C14.3986 2.60992 14.3234 2.81016 14.184 2.9624C13.5077 3.72462 13.0066 4.62575 12.716 5.6024C12.7048 5.6116 12.696 5.6216 12.6848 5.6308C12.5688 5.7288 12.4596 5.8276 12.3608 5.9272C12.3484 5.9396 12.3376 5.9524 12.3256 5.9648C12.2304 6.06293 12.1429 6.16107 12.0632 6.2592L12.0412 6.2852C11.9612 6.3864 11.8892 6.4852 11.8232 6.5872C11.8112 6.6048 11.7996 6.6224 11.788 6.64C11.7259 6.73707 11.6701 6.83307 11.6208 6.928C11.6172 6.9348 11.612 6.942 11.6084 6.9488C11.6012 6.9344 11.5916 6.9196 11.584 6.9048C11.5692 6.8772 11.5532 6.85 11.5376 6.8224C11.4952 6.7476 11.4488 6.6724 11.3992 6.5968C11.3832 6.5728 11.3684 6.5488 11.3516 6.5244C11.2857 6.42893 11.2132 6.3332 11.134 6.2372C11.1164 6.216 11.0972 6.1948 11.0788 6.1736C11.0424 6.1308 11.0072 6.088 10.9676 6.0456C10.99 5.9256 11.0168 5.8088 11.0444 5.6908C11.072 5.5728 11.0964 5.4528 11.1288 5.3352C11.1724 5.1792 11.226 5.0264 11.278 4.8728C11.3148 4.7656 11.3464 4.6568 11.3872 4.5528C11.4532 4.3816 11.5308 4.2136 11.608 4.0452C11.648 3.96 11.68 3.8732 11.722 3.7888C11.8468 3.5376 11.9828 3.29 12.1328 3.0468C12.3961 2.61214 12.7037 2.20597 13.0508 1.8348V1.8348ZM14.6204 8.8024C14.6888 8.7868 14.7564 8.77 14.8244 8.7536C15.0684 8.6944 15.3084 8.6304 15.5444 8.5616C15.5844 8.5496 15.628 8.5408 15.6684 8.5288C15.6896 8.5408 15.7108 8.552 15.732 8.5648C15.7628 8.5844 15.7936 8.6048 15.8236 8.626C15.8672 8.6568 15.9096 8.6896 15.9512 8.7244C15.978 8.7468 16.0056 8.7688 16.0312 8.7924C16.0756 8.8324 16.118 8.8768 16.16 8.9212C16.1812 8.944 16.2032 8.9648 16.2236 8.9884C16.2854 9.05941 16.3433 9.13365 16.3972 9.2108C16.6625 9.58753 16.8084 10.0353 16.816 10.496C16.8291 10.9069 16.6795 11.3064 16.3996 11.6076C16.3444 11.6674 16.2828 11.7211 16.216 11.7676C16.1314 11.8257 16.0401 11.8733 15.944 11.9092C15.9096 11.9224 15.8724 11.9272 15.8368 11.9376C15.7749 11.9571 15.7116 11.9722 15.6476 11.9828C15.6044 11.9888 15.5596 11.9868 15.5156 11.9888C15.4556 11.9922 15.3956 11.9922 15.3356 11.9888C15.2888 11.9852 15.2416 11.9752 15.1948 11.9676C15.1349 11.9593 15.0755 11.9478 15.0168 11.9332C14.9692 11.9204 14.922 11.902 14.8748 11.8852C14.816 11.8644 14.7576 11.8452 14.7 11.8172C14.6536 11.7952 14.608 11.7692 14.562 11.7436C14.5056 11.712 14.4492 11.6796 14.3948 11.6424C14.3504 11.6124 14.3076 11.5788 14.2648 11.5448C14.212 11.5048 14.16 11.4596 14.1096 11.412C14.0696 11.374 14.0296 11.332 13.9896 11.292C13.9632 11.2632 13.9384 11.2316 13.9128 11.2012C13.9284 11.14 13.9364 11.078 13.9484 11.016C13.958 10.9668 13.9692 10.918 13.9764 10.8684C14.0247 10.5689 14.0265 10.2637 13.9816 9.9636C13.9756 9.92 13.9668 9.8776 13.9592 9.834C13.9412 9.732 13.9192 9.6316 13.8912 9.5324C13.8784 9.488 13.8664 9.444 13.8512 9.4004C13.8149 9.28962 13.7721 9.18103 13.7232 9.0752C13.7128 9.052 13.7044 9.0272 13.6932 9.0044C13.6908 8.9992 13.6892 8.9936 13.6868 8.9888C13.6984 8.9868 13.7096 8.9836 13.7216 8.9816C14.0276 8.9308 14.326 8.8696 14.6204 8.8024ZM14.7616 18.7796C14.7472 18.7796 14.7332 18.7796 14.7192 18.7796C14.6363 18.775 14.5541 18.7615 14.474 18.7396C14.4568 18.7352 14.44 18.7296 14.4232 18.7244C14.3402 18.6989 14.2598 18.6654 14.1832 18.6244C14.1716 18.6184 14.1604 18.6104 14.1488 18.6036C14.0716 18.5596 13.9983 18.5092 13.9296 18.4528C13.9228 18.4472 13.9152 18.4424 13.908 18.4364V18.432C13.9389 18.311 13.9631 18.1884 13.9804 18.0648C13.9848 18.0348 13.9884 18.0048 13.992 17.9744C14.0274 17.7033 14.0243 17.4286 13.9828 17.1584C13.9792 17.132 13.9764 17.106 13.972 17.0784C13.9497 16.9407 13.9183 16.8047 13.878 16.6712C13.87 16.6456 13.8612 16.6208 13.8528 16.5952C13.8094 16.4604 13.7567 16.3287 13.6952 16.2012L13.6884 16.1896C13.6265 16.0671 13.5558 15.9494 13.4768 15.8372C13.4684 15.8248 13.4624 15.8108 13.454 15.7972C13.468 15.778 13.4788 15.7572 13.494 15.7364C13.516 15.7036 13.536 15.6696 13.5572 15.6356C13.6135 15.5452 13.6646 15.4517 13.7104 15.3556C13.7288 15.3156 13.7484 15.2796 13.7652 15.24C13.7724 15.2228 13.782 15.2068 13.7892 15.1896C13.8595 15.2621 13.9335 15.331 14.0108 15.396C14.0264 15.4092 14.0432 15.4204 14.0592 15.4336C14.1276 15.4888 14.1972 15.5408 14.2688 15.5884C14.2964 15.6068 14.3248 15.6236 14.3528 15.6412C14.4155 15.6796 14.4792 15.7152 14.544 15.748C14.5744 15.7632 14.604 15.7784 14.6348 15.792C14.7036 15.8232 14.7732 15.85 14.8436 15.872C14.8692 15.8812 14.8948 15.892 14.9208 15.9C15.0113 15.9276 15.1035 15.9493 15.1968 15.9648C15.2348 15.9712 15.2728 15.9732 15.3112 15.9772C15.368 15.9836 15.4248 15.9892 15.482 15.9908C15.5004 15.9908 15.5184 15.9952 15.5368 15.9952C15.5832 15.9952 15.63 15.9912 15.6764 15.9876C15.6828 15.9876 15.6896 15.9876 15.696 15.9876L15.7008 15.9944C15.7579 16.0878 15.8082 16.1853 15.8512 16.286C15.8616 16.3108 15.872 16.3356 15.8816 16.3608C15.9235 16.4648 15.9578 16.5718 15.984 16.6808C16.043 16.9366 16.0557 17.2009 16.0216 17.4612V17.4652C16.0006 17.697 15.9281 17.9213 15.8094 18.1215C15.6906 18.3217 15.5286 18.4929 15.3352 18.6224C15.2365 18.6798 15.1301 18.7229 15.0192 18.7504C14.9348 18.7705 14.8483 18.7803 14.7616 18.7796V18.7796ZM9.3076 18.4508C9.23655 18.5092 9.16068 18.5616 9.0808 18.6072C9.072 18.6124 9.0632 18.6184 9.054 18.6236C8.97472 18.6659 8.89153 18.7005 8.8056 18.7268C8.7916 18.7312 8.7776 18.7356 8.7656 18.7392C8.6833 18.7616 8.5988 18.7751 8.5136 18.7792C8.5016 18.7792 8.4896 18.7792 8.478 18.7792C8.39077 18.7818 8.30356 18.7735 8.2184 18.7544C8.10696 18.7269 8.00002 18.6837 7.9008 18.626C7.70709 18.4961 7.54487 18.3245 7.42604 18.1238C7.30721 17.9231 7.23476 17.6983 7.214 17.466C7.19666 17.3376 7.19117 17.2078 7.1976 17.0784C7.20405 16.9463 7.22212 16.815 7.2516 16.686C7.27797 16.577 7.31233 16.47 7.3544 16.366C7.364 16.3416 7.3736 16.3176 7.3836 16.294C7.42692 16.1918 7.47787 16.093 7.536 15.9984L7.5392 15.994C7.5588 15.994 7.5792 15.994 7.5984 15.994C7.63 15.994 7.662 15.9992 7.6936 15.9992C7.7144 15.9992 7.7336 15.9964 7.7556 15.9956C7.7776 15.9948 7.804 15.9932 7.8284 15.9916C7.89 15.9872 7.9516 15.9804 8.0136 15.9708C8.03 15.9684 8.046 15.9656 8.0624 15.9624C8.13093 15.9501 8.1992 15.9343 8.2672 15.9148L8.3032 15.9048C8.3736 15.8835 8.44333 15.8587 8.5124 15.8304L8.5464 15.8168C8.614 15.788 8.6812 15.7552 8.7464 15.7196C8.7592 15.7128 8.7724 15.7068 8.7864 15.6996C8.8492 15.6644 8.9112 15.6252 8.9724 15.584C8.9876 15.574 9.0032 15.5648 9.018 15.5544C9.0768 15.5144 9.1344 15.468 9.1912 15.4212C9.2068 15.4084 9.2228 15.3972 9.2384 15.3836C9.30907 15.3233 9.37773 15.2588 9.4444 15.19C9.4524 15.2096 9.4632 15.2276 9.4716 15.2472C9.4868 15.2828 9.5044 15.3168 9.5208 15.3516C9.56763 15.4508 9.62012 15.5472 9.678 15.6404C9.6992 15.6748 9.718 15.7092 9.7416 15.742C9.7552 15.7616 9.766 15.782 9.7796 15.8024C9.7712 15.8144 9.7652 15.8288 9.7564 15.8424C9.67765 15.9547 9.60707 16.0724 9.5452 16.1948L9.5384 16.2064C9.47686 16.3339 9.4242 16.4656 9.3808 16.6004C9.3724 16.626 9.3636 16.6508 9.3556 16.6764C9.31529 16.8099 9.28389 16.9459 9.2616 17.0836C9.2572 17.1096 9.2544 17.136 9.2508 17.1636C9.22935 17.3081 9.21772 17.4539 9.216 17.6C9.21533 17.7096 9.22134 17.8191 9.234 17.928V17.9328C9.234 17.9388 9.2364 17.9444 9.2372 17.95C9.25416 18.0972 9.28088 18.2431 9.3172 18.3868C9.3212 18.4032 9.322 18.4196 9.3264 18.436C9.32 18.44 9.3136 18.4456 9.3076 18.4508V18.4508ZM11.664 9.2H11.696H11.7336H11.7932H11.8416C11.8676 9.2 11.8968 9.1976 11.9268 9.196L11.99 9.1928L12.0952 9.1864L12.1752 9.1812L12.3012 9.1716L12.394 9.1636L12.5388 9.1504L12.6468 9.1392L12.8068 9.1216L12.8368 9.1184C12.8692 9.166 12.8964 9.2176 12.9248 9.2684C12.948 9.3084 12.9744 9.3484 12.9952 9.3928C13.0244 9.4548 13.046 9.5208 13.0696 9.5856C13.0852 9.628 13.104 9.668 13.1172 9.7112C13.1392 9.7856 13.1532 9.8632 13.168 9.9404C13.1752 9.9776 13.1868 10.0136 13.192 10.0516C13.2084 10.167 13.2164 10.2834 13.216 10.4C13.216 10.6621 13.174 10.9224 13.0916 11.1712V11.1712C12.9993 11.4519 12.847 11.7092 12.6452 11.9252C12.5155 12.0708 12.3571 12.1881 12.18 12.2698C12.003 12.3515 11.811 12.3958 11.616 12.4C11.5579 12.4001 11.4999 12.3962 11.4424 12.3884C11.3626 12.377 11.2841 12.358 11.208 12.3316C11.1419 12.31 11.0775 12.2833 11.0156 12.2516C11.01 12.2488 11.004 12.2468 10.9984 12.2436C10.845 12.1596 10.706 12.0516 10.5868 11.9236V11.9236C10.4873 11.8181 10.4 11.7018 10.3264 11.5768C10.2507 11.4482 10.1887 11.312 10.1416 11.1704C10.0217 10.8085 9.98783 10.4237 10.0428 10.0464C10.0496 10.0012 10.0628 9.9576 10.0716 9.9132C10.0856 9.8444 10.0976 9.7748 10.1176 9.7084C10.1344 9.6516 10.1576 9.598 10.1796 9.5428C10.2016 9.4876 10.2156 9.44 10.2384 9.3912C10.2612 9.3424 10.2956 9.2884 10.3248 9.2376C10.3488 9.1956 10.3712 9.152 10.398 9.1124L10.4504 9.118L10.5448 9.1284C10.6012 9.1344 10.6568 9.1404 10.7096 9.1452C10.752 9.1496 10.7896 9.1528 10.8296 9.1564L10.932 9.1652L11.07 9.1756L11.1192 9.1788C11.4128 9.198 11.5876 9.1992 11.5992 9.1992H11.6632L11.664 9.2ZM13.202 14.248C13.1617 14.7248 12.9648 15.1748 12.642 15.528C12.5128 15.6732 12.3549 15.79 12.1784 15.8713C12.0018 15.9525 11.8103 15.9963 11.616 16C11.5579 16.0001 11.4999 15.9962 11.4424 15.9884C11.1126 15.9365 10.8106 15.773 10.5868 15.5252C10.2644 15.1694 10.0685 14.717 10.0296 14.2384C10.0201 14.1593 10.0155 14.0797 10.016 14C10.0171 13.8696 10.0286 13.7394 10.0504 13.6108C10.0568 13.5708 10.0656 13.5344 10.074 13.4964C10.0928 13.4068 10.1168 13.3184 10.146 13.2316C10.1588 13.194 10.1712 13.156 10.186 13.1196C10.2257 13.0191 10.2731 12.9217 10.3276 12.8284C10.3352 12.8148 10.3412 12.8 10.3492 12.7884L10.354 12.7824C10.4431 12.846 10.5367 12.9031 10.634 12.9532L10.6548 12.9636C10.9508 13.1194 11.2803 13.2008 11.6148 13.2008C11.9493 13.2008 12.2788 13.1194 12.5748 12.9636L12.5956 12.9532C12.6929 12.9032 12.7865 12.8462 12.8756 12.7828H12.8784L12.8832 12.7888C12.8912 12.802 12.8972 12.8168 12.9048 12.8288C12.9593 12.9221 13.0067 13.0195 13.0464 13.12C13.0608 13.1564 13.0732 13.1944 13.0864 13.232C13.1156 13.3188 13.1396 13.4072 13.1584 13.4968C13.1668 13.5348 13.1756 13.5724 13.182 13.6112C13.2036 13.7397 13.215 13.8697 13.216 14C13.2166 14.0829 13.212 14.1657 13.202 14.248ZM10.584 19.1224C10.3948 18.9204 10.2494 18.6816 10.1568 18.4208C10.0917 18.232 10.0488 18.0363 10.0288 17.8376C10.0196 17.7587 10.0153 17.6794 10.016 17.6C10.0171 17.4696 10.0286 17.3394 10.0504 17.2108C10.0568 17.1708 10.0656 17.1344 10.074 17.0964C10.0928 17.0068 10.1168 16.9184 10.146 16.8316C10.1588 16.794 10.1712 16.756 10.186 16.7196C10.2257 16.6191 10.2731 16.5217 10.3276 16.4284C10.3352 16.4148 10.3412 16.4 10.3492 16.3884L10.354 16.3824C10.4431 16.4461 10.5367 16.5033 10.634 16.5536L10.6544 16.564C10.9506 16.7191 11.28 16.8001 11.6144 16.8001C11.9488 16.8001 12.2782 16.7191 12.5744 16.564L12.596 16.5528C12.6933 16.5029 12.7869 16.4461 12.876 16.3828V16.3828L12.88 16.3884C12.8876 16.4004 12.8924 16.4136 12.8996 16.4256C12.9548 16.5203 13.0028 16.6189 13.0432 16.7208C13.0576 16.7572 13.0696 16.7944 13.0832 16.8316C13.1127 16.9189 13.137 17.0078 13.156 17.098C13.164 17.1356 13.1728 17.1732 13.1792 17.2116C13.249 17.6172 13.2123 18.034 13.0728 18.4212C12.9778 18.6824 12.8316 18.922 12.6428 19.126C12.5131 19.2709 12.3551 19.3878 12.1785 19.4693C12.0019 19.5508 11.8104 19.5953 11.616 19.6C11.5579 19.6001 11.4999 19.5962 11.4424 19.5884C11.1114 19.5358 10.8084 19.3713 10.584 19.1224V19.1224ZM7.132 8.86C7.1488 8.8432 7.1652 8.8252 7.1828 8.8088C7.28769 8.7115 7.40153 8.62431 7.5228 8.5484C7.5348 8.5408 7.5476 8.5336 7.56 8.5264C7.5852 8.534 7.6092 8.54 7.6344 8.5472C7.76773 8.58693 7.89893 8.624 8.028 8.6584L8.1432 8.6896C8.3032 8.7316 8.4608 8.7696 8.6124 8.8052C8.632 8.81 8.65 8.8136 8.6692 8.8176C8.7996 8.8472 8.9252 8.874 9.0472 8.8976L9.1852 8.9248C9.2824 8.9436 9.3756 8.9608 9.4652 8.9764L9.5396 8.9904C9.5372 8.996 9.5352 9.002 9.5324 9.0076C9.5224 9.028 9.5152 9.0496 9.506 9.07C9.45611 9.17817 9.41257 9.28916 9.3756 9.4024C9.3616 9.4452 9.35 9.488 9.338 9.5312C9.30998 9.63145 9.28702 9.73304 9.2692 9.8356C9.2616 9.8784 9.2528 9.9204 9.2472 9.9636C9.20232 10.2639 9.20407 10.5694 9.2524 10.8692C9.2596 10.918 9.2708 10.966 9.28 11.0144C9.292 11.0768 9.3004 11.14 9.316 11.2016C9.2908 11.232 9.266 11.2632 9.2396 11.2916C9.1996 11.334 9.1596 11.3756 9.1196 11.4144C9.0704 11.4608 9.0196 11.5032 8.9676 11.544C8.924 11.5788 8.88 11.6136 8.8344 11.6444C8.7808 11.6808 8.726 11.7128 8.6704 11.7436C8.624 11.7696 8.5772 11.7964 8.53 11.8188C8.4728 11.8452 8.4148 11.866 8.3564 11.8864C8.3092 11.9032 8.262 11.922 8.214 11.9348C8.15463 11.9493 8.09455 11.9608 8.034 11.9692C7.988 11.9768 7.9416 11.9868 7.896 11.9904C7.83414 11.9934 7.77216 11.9926 7.7104 11.988C7.668 11.988 7.6256 11.988 7.584 11.9828C7.51785 11.9719 7.4526 11.9562 7.3888 11.9356C7.3552 11.926 7.32 11.9216 7.2876 11.9092C7.19125 11.8734 7.09974 11.8257 7.0152 11.7672C6.94405 11.7175 6.87871 11.6599 6.8204 11.5956C6.54719 11.2959 6.40205 10.9013 6.416 10.496C6.42323 10.0356 6.56858 9.58801 6.8332 9.2112C6.92163 9.08508 7.02167 8.9675 7.132 8.86ZM6.412 13.6508C6.40913 13.5448 6.41287 13.4387 6.4232 13.3332C6.4264 13.2988 6.4332 13.2648 6.438 13.2308C6.4476 13.1596 6.458 13.0884 6.4736 13.018C6.4828 12.978 6.4948 12.938 6.506 12.898C6.5228 12.8352 6.5412 12.7724 6.5628 12.7108C6.578 12.6684 6.5952 12.6264 6.6124 12.5844C6.6256 12.552 6.6408 12.5204 6.6556 12.4884C6.6792 12.5028 6.7048 12.5112 6.7288 12.5248C6.79804 12.5643 6.86949 12.5998 6.9428 12.6312C6.9828 12.6488 7.026 12.6656 7.068 12.6804C7.14511 12.7068 7.22363 12.7288 7.3032 12.7464C7.3432 12.7552 7.3796 12.7656 7.4184 12.772C7.52214 12.7887 7.62694 12.7981 7.732 12.8C7.7472 12.8 7.7624 12.8032 7.7776 12.8032H7.7888C7.90695 12.8023 8.02487 12.7927 8.1416 12.7744C8.1736 12.7696 8.2048 12.7616 8.2368 12.7552C8.32736 12.7384 8.41696 12.7168 8.5052 12.6904C8.5452 12.6784 8.5824 12.6652 8.6212 12.6504C8.70678 12.62 8.79076 12.5853 8.8728 12.5464C8.908 12.53 8.9432 12.5148 8.978 12.4968C9.08859 12.4397 9.19547 12.3757 9.298 12.3052C9.3032 12.3012 9.3092 12.2984 9.3144 12.2948C9.42462 12.2163 9.52964 12.1308 9.6288 12.0388C9.638 12.0308 9.6476 12.0248 9.6568 12.0164C9.6948 12.0788 9.7368 12.1392 9.7768 12.1984C9.768 12.2108 9.762 12.2256 9.7532 12.2384C9.6745 12.3503 9.60404 12.4678 9.5424 12.59L9.536 12.6012C9.47446 12.7287 9.4218 12.8604 9.3784 12.9952C9.37 13.0204 9.3612 13.0452 9.3532 13.0712C9.31285 13.2046 9.28144 13.3405 9.2592 13.478C9.2548 13.504 9.252 13.5304 9.2484 13.558C9.2275 13.7044 9.21667 13.8521 9.216 14C9.216 14.056 9.216 14.1116 9.22 14.1676C9.2116 14.1816 9.2024 14.1956 9.1936 14.2096C9.11456 14.3396 9.02421 14.4623 8.9236 14.5764C8.9124 14.586 8.902 14.596 8.8916 14.6068C8.78852 14.7175 8.67417 14.8171 8.5504 14.904C8.39195 15.024 8.21007 15.1095 8.01653 15.1548C7.82298 15.2002 7.62208 15.2044 7.4268 15.1672C7.30409 15.1424 7.18722 15.0945 7.0824 15.026C6.98092 14.9612 6.88976 14.8815 6.812 14.7896C6.55427 14.4658 6.41321 14.0646 6.4116 13.6508H6.412ZM16.1584 15.0236C16.0469 15.0943 15.9234 15.1438 15.794 15.1696C15.7151 15.1868 15.6347 15.1956 15.554 15.196C15.514 15.196 15.4696 15.1884 15.4272 15.1844C15.3848 15.1804 15.3472 15.18 15.3072 15.1724C15.2672 15.1648 15.2232 15.1496 15.1812 15.1372C15.1392 15.1248 15.1012 15.1168 15.0612 15.1016C15.0212 15.0864 14.9812 15.0656 14.9444 15.0472C14.9076 15.0288 14.8596 15.0092 14.8184 14.9856C14.7772 14.962 14.7464 14.9384 14.7108 14.9148C14.6684 14.8864 14.626 14.8596 14.5852 14.8276C14.5508 14.8008 14.5184 14.7696 14.4852 14.7404C14.4452 14.7048 14.4052 14.6704 14.3652 14.6312C14.3332 14.598 14.3032 14.5616 14.2728 14.526C14.2424 14.4904 14.2008 14.4436 14.1672 14.3992C14.1336 14.3548 14.1092 14.3156 14.0812 14.2732C14.058 14.2384 14.0348 14.2032 14.0132 14.1664C14.016 14.1112 14.016 14.0556 14.016 14C14.0148 13.8527 14.0036 13.7057 13.9824 13.56C13.9788 13.5336 13.976 13.5076 13.9716 13.48C13.9494 13.3423 13.918 13.2063 13.8776 13.0728C13.8696 13.0468 13.8608 13.022 13.8524 12.9968C13.809 12.862 13.7563 12.7303 13.6948 12.6028L13.6884 12.5916C13.6268 12.4694 13.5563 12.3519 13.4776 12.24C13.4688 12.2272 13.4628 12.2128 13.454 12.2C13.4964 12.1408 13.5368 12.08 13.574 12.018C13.5836 12.0264 13.5936 12.0328 13.6032 12.0416C13.7016 12.1326 13.8057 12.2173 13.9148 12.2952C13.9256 12.3028 13.9376 12.3084 13.9484 12.316C14.0451 12.3821 14.1457 12.4423 14.2496 12.4964C14.2896 12.5168 14.3296 12.5336 14.3696 12.552C14.4472 12.588 14.5252 12.6208 14.6044 12.6492C14.648 12.6648 14.6916 12.6796 14.7356 12.6928C14.8163 12.7168 14.8981 12.7366 14.9808 12.7524C15.0208 12.76 15.0584 12.77 15.0976 12.7756C15.2123 12.7931 15.328 12.8023 15.444 12.8032H15.4504C15.4788 12.8032 15.5064 12.798 15.5344 12.7972C15.6269 12.794 15.719 12.7852 15.8104 12.7708C15.854 12.7636 15.8964 12.752 15.9392 12.7424C16.0149 12.7253 16.0897 12.7042 16.1632 12.6792C16.2068 12.664 16.2496 12.6468 16.2924 12.6288C16.3658 12.5971 16.4374 12.5613 16.5068 12.5216C16.53 12.5084 16.5552 12.5004 16.5784 12.486C16.5936 12.5196 16.6096 12.5532 16.6236 12.5872C16.6376 12.6212 16.6564 12.6672 16.6708 12.7072C16.6928 12.7696 16.7108 12.8332 16.7284 12.8968C16.7392 12.9368 16.7512 12.9768 16.76 13.0168C16.7756 13.0872 16.786 13.158 16.7956 13.2292C16.8004 13.2636 16.8072 13.2976 16.8104 13.332C16.8208 13.4383 16.8245 13.5452 16.8216 13.652C16.8282 13.917 16.7715 14.1797 16.6561 14.4182C16.5406 14.6568 16.3699 14.8644 16.158 15.0236H16.1584ZM9.056 0.8444C9.496 0.9644 10.446 1.4016 11.234 2.9932C11.1692 3.1092 11.114 3.2276 11.052 3.3452C11.0244 3.3992 10.9944 3.4528 10.968 3.5076C10.8467 3.7572 10.7368 4.01053 10.6384 4.2676C10.6164 4.324 10.5984 4.3812 10.5776 4.438C10.5003 4.65133 10.4311 4.86627 10.37 5.0828C10.3508 5.1496 10.33 5.216 10.314 5.2828C10.3016 5.3312 10.2856 5.3784 10.274 5.4264L10.2708 5.4244C10.1508 5.3364 10.0276 5.2524 9.8984 5.1708C9.8584 5.1452 9.816 5.1204 9.7748 5.0956C9.6764 5.0364 9.57493 4.9788 9.4704 4.9228C9.4276 4.9 9.3856 4.8768 9.342 4.8544C9.1972 4.7808 9.0484 4.7092 8.8924 4.6416C8.876 4.6344 8.858 4.628 8.8416 4.6212C8.7004 4.5608 8.554 4.5036 8.404 4.4488C8.3812 4.4404 8.3608 4.4308 8.338 4.4228C8.34063 3.19448 8.58458 1.97865 9.056 0.8444V0.8444ZM3.256 4.4124C4.8036 4.42645 6.34175 4.6553 7.8264 5.0924C8.0088 5.1524 8.1816 5.2172 8.35 5.284C9.05597 5.54404 9.7025 5.94327 10.2512 6.458C10.3397 6.5444 10.4204 6.63133 10.4932 6.7188C10.5212 6.752 10.5436 6.7852 10.5696 6.8184C10.6116 6.872 10.6556 6.926 10.6924 6.9784C10.7184 7.016 10.7392 7.0528 10.7624 7.09C10.7932 7.1388 10.8256 7.1876 10.8524 7.2352C10.8744 7.2752 10.8924 7.312 10.9104 7.3508C10.9332 7.396 10.958 7.4416 10.9776 7.486C10.9944 7.526 11.0068 7.56 11.0216 7.5972C11.0384 7.6408 11.0572 7.6848 11.0716 7.7268C11.0824 7.7592 11.0904 7.79 11.1 7.8216C10.5658 7.40393 10.0037 7.02331 9.4176 6.6824C9.32615 6.62968 9.21756 6.61524 9.11552 6.64224C9.01347 6.66924 8.92623 6.73548 8.87281 6.82653C8.8194 6.91758 8.80414 7.02605 8.83036 7.1283C8.85658 7.23055 8.92216 7.31829 9.0128 7.3724C9.50206 7.65728 9.97445 7.9702 10.4276 8.3096C10.3752 8.3032 10.3248 8.2976 10.27 8.2904C10.1936 8.2804 10.112 8.2696 10.0256 8.2568C9.21051 8.13742 8.40614 7.95378 7.62 7.7076C7.5508 7.6872 7.4816 7.6648 7.4108 7.642L7.3416 7.62C7.07621 7.52578 6.81929 7.40923 6.5736 7.2716C6.4696 7.2156 6.3676 7.166 6.2612 7.1004C5.84662 6.84189 5.45229 6.55226 5.0816 6.234V6.234C4.42736 5.6744 3.81703 5.06541 3.256 4.4124V4.4124ZM4.43 7.3228C4.53866 7.2134 4.65746 7.11455 4.7848 7.0276C4.8008 7.0408 4.8164 7.0516 4.8324 7.0644C4.972 7.176 5.1124 7.2828 5.2476 7.3824C5.2732 7.4012 5.2988 7.418 5.3244 7.4364C5.442 7.5204 5.5588 7.5992 5.6744 7.674C5.712 7.6984 5.7496 7.7228 5.7872 7.746C5.9232 7.8308 6.0584 7.9112 6.1912 7.9836L6.2312 8.004C6.3512 8.0684 6.4712 8.1264 6.5912 8.18C6.6104 8.1888 6.6312 8.2 6.6492 8.2084C6.5948 8.2588 6.5448 8.3148 6.4936 8.3684C6.466 8.3976 6.4364 8.4244 6.4096 8.4548C6.32544 8.55071 6.24691 8.65141 6.1744 8.7564C6.09187 8.87747 6.01769 9.00403 5.9524 9.1352C5.9316 9.1752 5.9152 9.2192 5.896 9.2612C5.856 9.352 5.816 9.4432 5.7848 9.5368C5.7676 9.5872 5.7532 9.6376 5.7384 9.6884C5.7128 9.7768 5.6916 9.8652 5.6744 9.9544C5.6644 10.0072 5.6544 10.0592 5.6472 10.112C5.6432 10.1412 5.6352 10.17 5.632 10.1992C5.6196 10.2024 5.6076 10.2036 5.5956 10.2064C5.53136 10.2222 5.46634 10.2346 5.4008 10.2436C5.3788 10.2464 5.3568 10.2472 5.3348 10.2492C5.2812 10.2544 5.2276 10.2584 5.1748 10.2588C5.1496 10.2588 5.1256 10.2588 5.1008 10.2588C5.0524 10.2568 5.004 10.2536 4.9568 10.2476C4.9312 10.2444 4.9056 10.2404 4.8804 10.236C4.836 10.228 4.792 10.2184 4.7492 10.2068C4.7236 10.1996 4.6984 10.1928 4.6736 10.1844C4.6336 10.1708 4.5936 10.1548 4.5536 10.1376C4.5296 10.1272 4.5056 10.1172 4.4824 10.1056C4.4424 10.0852 4.4024 10.0616 4.3668 10.0376C4.3472 10.0248 4.3268 10.014 4.308 10.0004C4.25278 9.96111 4.20087 9.91737 4.1528 9.8696L4.1288 9.8456C3.536 9.218 3.6712 8.086 4.4308 7.3228H4.43ZM3.5252 11.1472C3.61683 10.9738 3.72752 10.8112 3.8552 10.6624C3.8704 10.6732 3.8868 10.682 3.9024 10.692C3.918 10.702 3.9344 10.7124 3.9504 10.7224C4.05754 10.7904 4.17052 10.8488 4.288 10.8968C4.3016 10.9024 4.3156 10.9064 4.328 10.9116C4.45196 10.9594 4.57994 10.9961 4.7104 11.0212C4.7172 11.0212 4.7244 11.0212 4.7312 11.0244C4.86749 11.0486 5.00559 11.061 5.144 11.0616C5.1484 11.0616 5.1528 11.0616 5.1572 11.0616H5.1644C5.2156 11.0616 5.2668 11.0576 5.3184 11.0544C5.3488 11.0524 5.3788 11.0524 5.4096 11.0492C5.4708 11.0436 5.532 11.0332 5.5936 11.0228C5.6152 11.0192 5.6364 11.0176 5.6576 11.0132H5.6636C5.68841 11.1341 5.72224 11.253 5.7648 11.3688C5.7736 11.3928 5.7816 11.4168 5.7908 11.4408C5.83525 11.5534 5.88875 11.6621 5.9508 11.766C5.9668 11.7924 5.9832 11.818 6 11.846C6.0168 11.874 6.0268 11.8908 6.04 11.9116C6.0284 11.9328 6.0172 11.954 6.006 11.9752C5.9402 12.1006 5.88209 12.2299 5.832 12.3624C5.8152 12.4072 5.8032 12.4532 5.788 12.4988C5.7584 12.5872 5.7292 12.6756 5.708 12.7656C5.6948 12.8192 5.6864 12.8732 5.6756 12.9256C5.6592 13.0096 5.6436 13.0936 5.6356 13.1788C5.6288 13.2352 5.6256 13.292 5.622 13.3488C5.6188 13.396 5.6116 13.4432 5.6104 13.4904C5.5788 13.5212 5.5468 13.5516 5.5136 13.5796C5.4804 13.6076 5.4392 13.6432 5.4008 13.6712C5.34786 13.7089 5.29299 13.7437 5.2364 13.7756C5.1964 13.7988 5.1564 13.8244 5.1164 13.844C5.05941 13.8702 5.00091 13.8929 4.9412 13.912C4.9012 13.9256 4.8612 13.9436 4.8212 13.952C4.7366 13.9739 4.65004 13.9873 4.5628 13.992C4.5504 13.992 4.538 13.9964 4.5256 13.9968C4.30011 14.006 4.07708 13.947 3.8856 13.8276C3.1684 13.3668 3.0028 12.1396 3.5252 11.1472ZM4.4736 15.4712C4.52946 15.2259 4.62716 14.9921 4.7624 14.78L4.7748 14.7776C4.8296 14.7704 4.884 14.7584 4.9388 14.7468C4.9644 14.7412 4.9904 14.7376 5.016 14.7312C5.09637 14.7109 5.17555 14.6862 5.2532 14.6572C5.2704 14.6508 5.2872 14.642 5.3044 14.6352C5.3656 14.6108 5.4268 14.5856 5.4868 14.5552C5.5156 14.5412 5.5436 14.5236 5.572 14.508C5.62 14.4824 5.6676 14.4568 5.7144 14.428L5.728 14.4204C5.734 14.4408 5.744 14.4604 5.7504 14.4788C5.78025 14.573 5.81551 14.6654 5.856 14.7556C5.868 14.782 5.8784 14.8092 5.8912 14.8356C5.94395 14.9427 6.00493 15.0455 6.0736 15.1432C6.0884 15.164 6.1052 15.1832 6.1208 15.2032C6.17786 15.2789 6.24015 15.3506 6.3072 15.4176C6.3304 15.4408 6.3536 15.464 6.3776 15.4864C6.46349 15.5662 6.5561 15.6385 6.6544 15.7024C6.6852 15.7224 6.7168 15.7424 6.7484 15.7588C6.7396 15.7748 6.734 15.7928 6.7256 15.8096C6.6856 15.8856 6.6532 15.9636 6.6212 16.0428C6.6068 16.0788 6.5904 16.1136 6.5772 16.15C6.53572 16.2637 6.50099 16.3798 6.4732 16.4976L6.4704 16.5072C6.44335 16.6291 6.42385 16.7525 6.412 16.8768C6.4096 16.904 6.4068 16.9308 6.4048 16.9568C6.39462 17.0792 6.39222 17.2021 6.3976 17.3248C6.3768 17.3384 6.3576 17.3552 6.3356 17.3676C6.3048 17.3864 6.2736 17.4028 6.242 17.4188C6.18853 17.4458 6.13334 17.4694 6.0768 17.4892C6.0448 17.5004 6.0128 17.512 5.9804 17.5204C5.92245 17.535 5.86348 17.5451 5.804 17.5508C5.7752 17.5536 5.7464 17.5596 5.7176 17.5604C5.63094 17.5639 5.54418 17.5569 5.4592 17.5396C5.4472 17.5372 5.4352 17.5352 5.4232 17.5336C4.6788 17.3512 4.2536 16.4292 4.4736 15.4712ZM5.616 18.8C5.6158 18.6533 5.63109 18.5071 5.6616 18.3636H5.6724H5.6804C5.7024 18.3636 5.724 18.3584 5.746 18.3576C5.808 18.3536 5.87 18.348 5.932 18.3396C5.994 18.3312 6.052 18.3232 6.1124 18.3096C6.19919 18.2906 6.28469 18.2662 6.3684 18.2364C6.3976 18.226 6.426 18.2136 6.4548 18.2016C6.4908 18.1868 6.5272 18.1748 6.5628 18.158C6.5756 18.1924 6.5924 18.2248 6.6068 18.2584C6.6244 18.3012 6.6416 18.344 6.6616 18.3852C6.6816 18.4264 6.7056 18.4676 6.7288 18.5084C6.752 18.5492 6.7688 18.5836 6.7924 18.6192C6.816 18.6548 6.8468 18.6992 6.8752 18.7392C6.8984 18.7716 6.9212 18.804 6.946 18.8348C6.9768 18.8728 7.0092 18.908 7.042 18.9436C7.0684 18.9724 7.0944 19.0012 7.122 19.0284C7.1332 19.0392 7.1428 19.0516 7.154 19.062C7.1516 19.0664 7.15 19.0708 7.1476 19.0752C7.1372 19.0944 7.1296 19.1152 7.1192 19.1348C7.06765 19.2349 7.02249 19.3382 6.984 19.444C6.9692 19.484 6.9568 19.5264 6.944 19.5684C6.91516 19.663 6.89126 19.759 6.8724 19.856C6.8644 19.896 6.8556 19.938 6.8492 19.98C6.82806 20.119 6.81696 20.2594 6.816 20.4C6.1544 20.4 5.616 19.6824 5.616 18.8ZM8.816 22C8.2424 22 7.736 21.4308 7.6356 20.6696C7.62239 20.5803 7.61584 20.4902 7.616 20.4C7.61659 20.3006 7.62435 20.2014 7.6392 20.1032C7.6432 20.0748 7.6488 20.0468 7.654 20.0188C7.66702 19.9489 7.68385 19.8797 7.7044 19.8116C7.7124 19.7848 7.7196 19.758 7.7288 19.7316C7.7588 19.6438 7.79558 19.5585 7.8388 19.4764C7.9023 19.4988 7.96692 19.5179 8.0324 19.5336C8.1014 19.5496 8.17124 19.5618 8.2416 19.57C8.2668 19.5728 8.292 19.5728 8.3172 19.5748C8.3624 19.578 8.4076 19.5824 8.4532 19.5824H8.46C8.484 19.5824 8.508 19.5792 8.532 19.5784C8.5764 19.5784 8.6208 19.5756 8.6652 19.5708C8.6956 19.5676 8.7256 19.5612 8.7556 19.5568C8.7956 19.5504 8.8356 19.5448 8.8756 19.536C8.908 19.5292 8.9396 19.5196 8.9716 19.5108C9.0036 19.502 9.0464 19.4912 9.0832 19.4788C9.12 19.4664 9.1484 19.4548 9.1808 19.4424C9.2132 19.43 9.252 19.4152 9.2872 19.3992C9.3224 19.3832 9.3508 19.3684 9.3828 19.352C9.4148 19.3356 9.452 19.3172 9.486 19.2976C9.52 19.278 9.5464 19.2608 9.5764 19.2416C9.5988 19.2272 9.6224 19.2148 9.6444 19.2016L9.6516 19.2124C9.668 19.2392 9.686 19.2644 9.7032 19.2924C9.7276 19.3304 9.7512 19.3692 9.7772 19.4056C9.7684 19.418 9.7624 19.4324 9.754 19.4456C9.67467 19.5584 9.60368 19.6769 9.5416 19.8L9.5372 19.808C9.47536 19.9357 9.42256 20.0677 9.3792 20.2028C9.3708 20.228 9.362 20.2524 9.3544 20.2776C9.31409 20.4111 9.28269 20.5471 9.2604 20.6848C9.256 20.7112 9.2532 20.7372 9.2496 20.7648C9.22859 20.9089 9.21736 21.0543 9.216 21.2C9.21531 21.3103 9.22146 21.4205 9.2344 21.53V21.534C9.2344 21.5532 9.2408 21.572 9.2432 21.5912C9.254 21.6792 9.2664 21.7668 9.2832 21.8524C9.2832 21.8572 9.2832 21.8628 9.2856 21.8676C9.14404 21.9537 8.98167 21.9994 8.816 22V22ZM11.616 23.2C11.2624 23.1725 10.9268 23.0328 10.6582 22.8012C10.3895 22.5695 10.202 22.2581 10.1228 21.9124C10.0765 21.7575 10.045 21.5985 10.0288 21.4376C10.0196 21.3587 10.0153 21.2794 10.016 21.2C10.0171 21.0696 10.0286 20.9394 10.0504 20.8108C10.0568 20.7708 10.0656 20.7344 10.074 20.6964C10.0928 20.6068 10.1168 20.5184 10.146 20.4316C10.1588 20.394 10.1712 20.356 10.186 20.3196C10.2257 20.2191 10.2731 20.1217 10.3276 20.0284C10.3352 20.0148 10.3412 20 10.3492 19.9884L10.354 19.9824C10.4431 20.046 10.5367 20.1031 10.634 20.1532L10.6548 20.1636C10.9509 20.3193 11.2803 20.4006 11.6148 20.4006C11.9493 20.4006 12.2787 20.3193 12.5748 20.1636L12.596 20.1524C12.6934 20.1027 12.787 20.0458 12.876 19.9824H12.8788L12.8836 19.9884C12.8916 20.0016 12.8976 20.0164 12.9052 20.0284C12.9597 20.1217 13.0071 20.2191 13.0468 20.3196C13.0612 20.356 13.0736 20.394 13.0868 20.4316C13.116 20.5184 13.14 20.6068 13.1588 20.6964C13.1672 20.7344 13.176 20.772 13.1824 20.8108C13.2039 20.9394 13.2151 21.0696 13.216 21.2C13.216 21.4409 13.1801 21.6805 13.1096 21.9108V21.9108C13.0305 22.2568 12.843 22.5685 12.5743 22.8004C12.3056 23.0323 11.9699 23.1723 11.616 23.2V23.2ZM14.416 22C14.2503 21.9997 14.0878 21.9542 13.946 21.8684C13.9548 21.8284 13.9588 21.7836 13.966 21.7416C13.9732 21.6996 13.9792 21.6648 13.9844 21.626C14.0272 21.3385 14.0265 21.0461 13.9824 20.7588C13.9788 20.7324 13.976 20.7064 13.9716 20.6788C13.9494 20.5411 13.918 20.4051 13.8776 20.2716C13.8696 20.2456 13.8608 20.2208 13.8524 20.1956C13.809 20.0608 13.7563 19.9292 13.6948 19.8016L13.6884 19.7904C13.6268 19.6682 13.5563 19.5507 13.4776 19.4388C13.4688 19.426 13.4628 19.4116 13.454 19.3988C13.494 19.3448 13.5288 19.2884 13.564 19.2312L13.5748 19.2148C13.5784 19.2088 13.5828 19.2032 13.5864 19.1972C13.6088 19.2124 13.632 19.2252 13.6548 19.2396C13.6848 19.2588 13.7148 19.2796 13.7452 19.2956C13.7756 19.3116 13.8136 19.3324 13.848 19.35C13.8824 19.3676 13.9124 19.3832 13.9448 19.398C13.9772 19.4128 14.0128 19.4256 14.0468 19.438C14.0808 19.4504 14.1152 19.4656 14.15 19.478C14.1848 19.4904 14.2164 19.4972 14.2496 19.5064C14.2828 19.5156 14.3224 19.5272 14.3592 19.5352C14.396 19.5432 14.4236 19.5464 14.456 19.5516C14.4884 19.5568 14.532 19.5652 14.5704 19.5692C14.602 19.5728 14.634 19.5732 14.666 19.5748C14.698 19.5764 14.7364 19.5808 14.772 19.5808H14.7824C14.8144 19.5808 14.846 19.5768 14.8776 19.5752C14.9176 19.5728 14.9544 19.5724 14.9924 19.568C15.0626 19.5596 15.1323 19.5475 15.2012 19.5316C15.2661 19.516 15.3302 19.4971 15.3932 19.4748C15.4364 19.5569 15.4732 19.6422 15.5032 19.73C15.5124 19.7564 15.5196 19.7832 15.5276 19.81C15.5482 19.8778 15.565 19.9467 15.578 20.0164C15.5832 20.0448 15.5888 20.0728 15.5928 20.1016C15.6077 20.2004 15.6155 20.3001 15.616 20.4C15.6161 20.4924 15.6092 20.5846 15.5956 20.676C15.496 21.4308 14.9896 22 14.416 22ZM16.416 20.4C16.4149 20.2591 16.4037 20.1185 16.3824 19.9792C16.376 19.9392 16.3672 19.8964 16.3592 19.8552C16.3403 19.7582 16.3164 19.6622 16.2876 19.5676C16.2748 19.5276 16.2624 19.484 16.2476 19.4432C16.2091 19.3374 16.1639 19.2341 16.1124 19.134C16.102 19.1144 16.0944 19.094 16.084 19.0744C16.0816 19.07 16.08 19.0656 16.0776 19.0612C16.0872 19.0524 16.0956 19.0416 16.1052 19.0324C16.1388 18.9996 16.1708 18.9644 16.2028 18.9292C16.2348 18.894 16.2568 18.8704 16.2828 18.8392C16.3088 18.808 16.3404 18.7632 16.368 18.7244C16.3956 18.6856 16.416 18.6584 16.438 18.6236C16.46 18.5888 16.4868 18.5404 16.51 18.498C16.5304 18.4616 16.55 18.4256 16.57 18.3876C16.59 18.3496 16.61 18.2984 16.6288 18.2528C16.642 18.2208 16.6576 18.1904 16.6688 18.158C16.706 18.1756 16.7444 18.1888 16.782 18.204C16.8072 18.2144 16.832 18.2252 16.8572 18.2348C16.9463 18.2671 17.0376 18.2932 17.1304 18.3128C17.18 18.324 17.2292 18.3308 17.2788 18.3376C17.3524 18.348 17.4264 18.3552 17.5016 18.3588C17.518 18.3588 17.5344 18.3636 17.5512 18.3636H17.5588H17.57C17.6006 18.507 17.6161 18.6533 17.616 18.8C17.616 19.6824 17.0776 20.4 16.416 20.4ZM17.8088 17.5348C17.7968 17.5364 17.7848 17.5384 17.7728 17.5408C17.6878 17.558 17.6011 17.5652 17.5144 17.562C17.4852 17.562 17.456 17.5552 17.4268 17.552C17.3684 17.5463 17.3105 17.5363 17.2536 17.522C17.2196 17.5132 17.186 17.5008 17.152 17.4892C17.0973 17.47 17.0438 17.4473 16.992 17.4212C16.9592 17.4048 16.9268 17.3876 16.8944 17.3684C16.8736 17.356 16.8544 17.3396 16.8336 17.326C16.8386 17.2033 16.8362 17.0804 16.8264 16.958C16.8264 16.9308 16.8216 16.904 16.8192 16.878C16.8074 16.7534 16.7879 16.6297 16.7608 16.5076C16.7326 16.3871 16.6972 16.2683 16.6548 16.152C16.6408 16.112 16.6236 16.0772 16.6084 16.0396C16.5768 15.9596 16.5436 15.8852 16.506 15.8104C16.4976 15.794 16.4916 15.776 16.4832 15.7596C16.5163 15.7415 16.5495 15.7223 16.5828 15.702C16.6803 15.6381 16.7721 15.5658 16.8572 15.486C16.8816 15.4636 16.9048 15.4404 16.928 15.4168C16.9938 15.3501 17.0552 15.2792 17.1116 15.2044C17.1276 15.1832 17.1448 15.1644 17.16 15.1424C17.2281 15.0451 17.2886 14.9427 17.3408 14.836C17.3536 14.8096 17.3644 14.7816 17.3764 14.756C17.4165 14.6666 17.4514 14.575 17.4808 14.4816C17.4872 14.4616 17.4972 14.4436 17.5032 14.4232C17.5072 14.4256 17.5116 14.4276 17.5156 14.4304C17.5724 14.466 17.63 14.4976 17.688 14.5284C17.706 14.538 17.7236 14.5492 17.742 14.5584C17.8937 14.6345 18.0533 14.6938 18.218 14.7352C18.228 14.738 18.2384 14.7388 18.2488 14.7412C18.3175 14.7581 18.3871 14.7714 18.4572 14.7812L18.4692 14.7832C18.6042 14.9946 18.7016 15.2278 18.7572 15.4724C18.9784 16.4292 18.5532 17.3512 17.8088 17.5348ZM19.3444 13.8272C19.1521 13.9505 18.9256 14.0096 18.6976 13.996C18.599 13.9929 18.5012 13.9783 18.406 13.9524C18.3728 13.944 18.34 13.9288 18.3072 13.9176C18.2412 13.8969 18.1767 13.8717 18.114 13.8424C18.076 13.824 18.0392 13.8 18.002 13.7784C17.9427 13.7451 17.8853 13.7087 17.83 13.6692C17.7928 13.642 17.7572 13.6112 17.7208 13.5812C17.6844 13.5512 17.6536 13.5204 17.62 13.4892C17.62 13.4416 17.612 13.3948 17.6088 13.3476C17.6052 13.2908 17.602 13.2348 17.5952 13.1784C17.5852 13.0928 17.5696 13.008 17.5528 12.9228C17.5424 12.87 17.534 12.8172 17.5212 12.7628C17.4988 12.6708 17.4696 12.5812 17.4412 12.4912C17.4268 12.4476 17.4152 12.4032 17.3988 12.36C17.3489 12.2278 17.2911 12.0988 17.2256 11.9736L17.19 11.9076C17.2064 11.8848 17.2196 11.8596 17.2352 11.836C17.2508 11.8124 17.2596 11.798 17.2716 11.7788C17.3387 11.6687 17.3964 11.5531 17.444 11.4332C17.4512 11.4148 17.4576 11.3956 17.4644 11.3768C17.5088 11.2579 17.5439 11.1356 17.5692 11.0112H17.5752C17.5988 11.016 17.6224 11.018 17.6464 11.022C17.7052 11.0316 17.764 11.0416 17.8224 11.0472C17.86 11.0512 17.8972 11.0512 17.9344 11.0532C17.9788 11.0556 18.0232 11.0596 18.0672 11.0596H18.0756C18.0808 11.0596 18.086 11.0596 18.0912 11.0596C18.2269 11.0585 18.3623 11.0462 18.496 11.0228L18.5244 11.0188C18.6526 10.9937 18.7784 10.9577 18.9004 10.9112C18.9164 10.9048 18.9328 10.9 18.9488 10.8936C19.0647 10.8461 19.1762 10.7885 19.282 10.7216C19.2992 10.7108 19.3168 10.7004 19.3336 10.6888C19.3504 10.6772 19.366 10.67 19.3812 10.6588C19.5092 10.8072 19.6192 10.9702 19.7088 11.1444C20.2292 12.1396 20.0636 13.3668 19.3444 13.8272V13.8272ZM19.1088 9.84L19.0812 9.8676C19.0329 9.91541 18.9809 9.95929 18.9256 9.9988C18.9076 10.012 18.8876 10.0224 18.8688 10.0344C18.8308 10.0596 18.7916 10.0828 18.7512 10.104C18.7284 10.1152 18.7044 10.1248 18.6812 10.1352C18.6412 10.1524 18.6012 10.1688 18.5612 10.1828C18.5364 10.1908 18.5112 10.1976 18.4856 10.2048C18.4428 10.2164 18.3988 10.226 18.3544 10.234C18.3288 10.2384 18.3036 10.2424 18.278 10.2456C18.2304 10.2516 18.1824 10.2548 18.134 10.2568C18.1092 10.2568 18.0848 10.2592 18.06 10.2568C18.0072 10.2568 17.9536 10.2524 17.9 10.2472C17.878 10.2472 17.8564 10.2444 17.8344 10.2416C17.769 10.2326 17.7041 10.2202 17.64 10.2044C17.6276 10.2016 17.6156 10.2004 17.6032 10.1972C17.6 10.168 17.592 10.1392 17.588 10.11C17.5808 10.0572 17.5708 10.0052 17.5608 9.9524C17.5436 9.8632 17.5208 9.7748 17.4968 9.6864C17.482 9.6356 17.4676 9.5852 17.4504 9.5348C17.418 9.4412 17.38 9.35 17.3388 9.2588C17.32 9.2168 17.3036 9.1744 17.2828 9.1332C17.2174 9.00198 17.1432 8.8753 17.0608 8.754C16.9867 8.64792 16.9065 8.54615 16.8208 8.4492C16.7928 8.4176 16.7624 8.3896 16.7332 8.3592C16.6844 8.3076 16.6368 8.254 16.5852 8.2064C16.6024 8.1992 16.6204 8.1888 16.6376 8.1808C16.7608 8.1256 16.8852 8.0652 17.0108 7.9984C17.0212 7.9928 17.0312 7.9884 17.0412 7.9828C17.1768 7.9096 17.3144 7.828 17.4528 7.7428C17.4864 7.722 17.52 7.7 17.554 7.6784C17.6756 7.5984 17.7983 7.51493 17.922 7.428C17.9424 7.4136 17.962 7.4004 17.9824 7.3856C18.1232 7.2832 18.2652 7.1732 18.408 7.058C18.4216 7.0476 18.4344 7.0384 18.448 7.0276C18.5753 7.11388 18.6941 7.21206 18.8028 7.3208C19.5592 8.0844 19.696 9.2132 19.1088 9.84ZM18.1488 6.234C17.4912 6.83266 16.727 7.30253 15.896 7.6192L15.7916 7.6536C15.7308 7.6736 15.6716 7.6936 15.5984 7.7144C15.3891 7.77973 15.1769 7.8408 14.962 7.8976C14.3043 8.07092 13.6363 8.20251 12.962 8.2916V8.2916C12.9072 8.2988 12.858 8.304 12.8064 8.3104C13.2596 7.97114 13.732 7.65822 14.2212 7.3732C14.3118 7.3191 14.3774 7.23135 14.4036 7.1291C14.4299 7.02685 14.4146 6.91838 14.3612 6.82733C14.3078 6.73628 14.2205 6.67004 14.1185 6.64304C14.0164 6.61604 13.9079 6.63048 13.8164 6.6832C13.2211 7.02952 12.6507 7.41713 12.1096 7.8432C12.1188 7.8116 12.1304 7.7788 12.1412 7.7464C12.156 7.7008 12.1688 7.656 12.1872 7.6088C12.2056 7.5616 12.2272 7.5192 12.2468 7.4744C12.2664 7.4296 12.2868 7.3768 12.3136 7.3268C12.3404 7.2768 12.3672 7.2348 12.3936 7.1888C12.42 7.1428 12.4496 7.0876 12.4836 7.036C12.5176 6.9844 12.556 6.9384 12.5924 6.8892C12.6288 6.84 12.662 6.7904 12.7032 6.7408C12.7508 6.684 12.8076 6.6268 12.8632 6.57C12.9032 6.528 12.9368 6.4864 12.9796 6.4448C13.0864 6.34142 13.1984 6.24356 13.3152 6.1516V6.1516C14.6664 5.0868 16.9012 4.5036 19.9668 4.414C19.4085 5.06697 18.8007 5.67597 18.1488 6.2356V6.234Z" fill="white"/>
</svg>
