<svg width="25" height="25" viewBox="0 0 25 25" fill="none" xmlns="http://www.w3.org/2000/svg">
<path d="M18.4227 18.7322C18.8552 18.7322 19.2058 18.3816 19.2058 17.9491C19.2058 17.5166 18.8552 17.166 18.4227 17.166C17.9902 17.166 17.6396 17.5166 17.6396 17.9491C17.6396 18.3816 17.9902 18.7322 18.4227 18.7322Z" fill="white"/>
<path d="M18.9276 22.117C19.3601 22.117 19.7107 21.7664 19.7107 21.3339C19.7107 20.9014 19.3601 20.5508 18.9276 20.5508C18.4951 20.5508 18.1445 20.9014 18.1445 21.3339C18.1445 21.7664 18.4951 22.117 18.9276 22.117Z" fill="white"/>
<path d="M16.6288 24.491C17.0613 24.491 17.4119 24.1404 17.4119 23.7079C17.4119 23.2754 17.0613 22.9248 16.6288 22.9248C16.1963 22.9248 15.8457 23.2754 15.8457 23.7079C15.8457 24.1404 16.1963 24.491 16.6288 24.491Z" fill="white"/>
<path d="M15.8456 20.8787C16.2781 20.8787 16.6287 20.5281 16.6287 20.0956C16.6287 19.6631 16.2781 19.3125 15.8456 19.3125C15.4131 19.3125 15.0625 19.6631 15.0625 20.0956C15.0625 20.5281 15.4131 20.8787 15.8456 20.8787Z" fill="white"/>
<path d="M11.9051 7.26334C10.7936 7.08652 9.70741 7.36439 8.44436 7.8696C7.13079 8.37482 5.43831 8.45061 4.07422 8.34956L10.7178 13.9322L14.4059 10.2441L11.9051 7.26334Z" fill="white"/>
<path d="M16.8565 9.66305L9.70762 1.15011C9.37923 0.745938 8.87401 0.51859 8.36879 0.493329C7.83831 0.468068 7.3331 0.670156 6.97944 1.02381L1.52308 6.48017C1.14417 6.85908 0.967342 7.3643 0.992603 7.86952C1.01786 8.4 1.24521 8.87996 1.64939 9.20835L10.1623 16.3572C12.0316 18.1002 14.9619 18.0749 16.7807 16.2561C18.5742 14.4626 18.5995 11.5324 16.8565 9.66305ZM2.35669 8.37474C2.20513 8.22317 2.10408 8.04635 2.07882 7.84426C2.07882 7.64217 2.15461 7.44008 2.30617 7.28852L7.73727 1.83216C7.88884 1.68059 8.06566 1.60481 8.26775 1.60481H8.29301C8.4951 1.60481 8.69719 1.70585 8.82349 1.85742L15.9218 10.2946L10.7938 15.4731L2.35669 8.37474ZM13.6231 15.9278C13.3957 16.1551 13.0168 16.1551 12.7895 15.9278C12.5621 15.7004 12.5621 15.3215 12.7895 15.0941C13.0168 14.8668 13.3957 14.8668 13.6231 15.0941C13.8504 15.3215 13.8504 15.7004 13.6231 15.9278ZM15.9471 15.4731C15.7197 15.7004 15.3408 15.7004 15.1135 15.4731C14.8861 15.2457 14.8861 14.8668 15.1135 14.6394C15.3408 14.4121 15.7197 14.4121 15.9471 14.6394C16.1744 14.8668 16.1744 15.2457 15.9471 15.4731ZM16.4018 13.1238C16.1744 13.3511 15.7955 13.3511 15.5682 13.1238C15.3408 12.8964 15.3408 12.5175 15.5682 12.2902C15.7955 12.0628 16.1744 12.0628 16.4018 12.2902C16.6291 12.5428 16.6291 12.8964 16.4018 13.1238Z" fill="white"/>
</svg>
