<svg width="24" height="24" viewBox="0 0 24 24" fill="none" xmlns="http://www.w3.org/2000/svg">
<path d="M18.2237 15.0157C16.4075 15.7842 14.6597 15.3305 12.769 15.6418C12.7598 15.6436 12.7492 15.6456 12.7399 15.6472C13.2286 15.0219 13.6424 14.3436 14.0095 13.6266C14.0241 13.6222 14.0393 13.6182 14.0537 13.6134C15.9653 13.8439 18.2898 13.62 19.7496 12.3303C20.6854 11.5036 21.5103 10.5343 22.0314 9.39948C22.3905 8.61713 22.9683 7.06444 22.4216 6.2689C22.2612 6.03601 21.9277 5.895 21.6485 5.99407C21.081 6.1956 20.9258 6.73966 20.6792 7.25874C20.1198 8.43812 19.2533 9.37708 18.2926 10.2371C17.8502 10.6332 17.4172 10.9455 16.9566 11.1948C18.016 10.0106 18.8017 8.53818 19.3075 7.09931C19.7676 5.79067 19.7578 4.5056 19.7107 3.13847C19.6837 2.3599 19.8541 0.527987 19.0538 0.0538511C18.7648 -0.117319 18.3188 0.150918 18.2005 0.419155C17.673 1.61454 17.7615 2.89501 17.0045 4.05302C16.4496 4.90107 16.2799 5.90073 16.0985 6.87482C15.8944 7.97152 15.5405 8.8973 15.0643 9.84659C15.0757 9.78308 14.9954 7.3282 14.581 6.23651C14.0862 4.93487 12.0995 2.5353 10.4334 3.1229C10.2426 3.19021 9.99019 3.38953 10.0108 3.62102C10.0859 4.46049 11.0382 5.23226 11.3941 5.98981C11.9679 7.21194 12.1503 8.23839 11.9256 9.56676C11.7367 10.6863 11.8753 12.811 13.0633 13.4617C12.8829 13.8274 12.689 14.1869 12.4751 14.5386C12.0942 15.1639 11.6662 15.6399 11.1954 16.0456C11.6288 14.598 11.5731 12.52 11.2306 11.5537C10.8483 10.4741 9.66228 9.57673 8.85937 8.83754C8.06306 8.10371 7.14849 7.16019 6.08072 6.86123C5.75636 6.77056 5.36571 6.98406 5.26304 7.30084C5.24447 7.35896 5.10845 7.64897 5.24007 7.92637C5.62056 8.76103 6.26289 9.42496 6.80656 10.1565C7.8006 11.4934 8.41038 13.0702 8.49449 14.7301C8.55641 15.9485 8.31633 16.5567 9.15679 17.4351C9.00679 17.5263 8.8548 17.6194 8.69961 17.7157C8.13236 18.0692 7.62208 18.4631 7.14232 18.8907C7.46328 17.6164 7.43153 16.3945 7.18047 14.8928C6.99951 13.8131 5.13207 11.496 4.0483 12.874C3.8979 13.0659 3.88652 13.3733 3.98698 13.5878C4.76872 15.2474 5.14862 16.3727 4.38105 18.2006C3.92008 19.2983 4.06587 20.3765 4.32692 21.4991C4.33471 21.5315 4.3447 21.5585 4.35468 21.5858C3.58154 22.1513 2.7321 22.5992 1.86007 23.0486C1.27104 23.353 1.42366 24.275 2.11213 23.9198C3.08663 23.4171 4.02334 22.9386 4.88178 22.2949C5.6717 22.7748 8.26397 22.2294 8.54161 22.1848C10.2982 21.905 11.8184 21.8513 13.2618 23.0187C13.7927 23.4485 14.6785 23.8314 15.3711 23.6796C15.7586 23.6321 16.1793 23.2109 15.941 22.8707C15.9366 22.8647 15.8869 22.7763 15.8519 22.7491C14.5549 20.9527 12.671 19.4955 10.4106 19.4396C9.64245 19.4206 8.72209 19.4595 7.83385 19.6385C8.51813 19.0495 9.23657 18.498 10.0888 17.9901C10.1807 17.9354 10.266 17.8767 10.3549 17.8196C10.3694 17.8234 14.0614 18.4415 15.8734 18.2743C16.7938 18.1893 17.7205 17.7547 18.5532 17.3899C19.6699 16.9014 21.021 17.7492 22.1527 17.8397C22.3951 17.8589 22.6494 17.7512 22.7818 17.5443C24.0187 15.6054 19.5286 14.4633 18.2232 15.0156L18.2237 15.0157ZM16.1932 9.84075C16.6436 9.01146 16.954 8.19838 17.1149 7.26985C17.328 6.04154 17.5829 4.99514 18.2336 3.90483C18.3946 3.6354 18.5071 3.35957 18.5933 3.08055C18.5961 3.2639 18.5985 3.40831 18.6025 3.47761C18.6291 3.92521 18.6335 4.34402 18.6177 4.7521C18.4729 4.72973 18.3271 4.73712 18.1847 4.80363C17.8487 4.95962 17.813 5.3471 18.2466 5.37348C18.3525 5.39745 18.4605 5.41063 18.5684 5.42501C18.5534 5.56023 18.534 5.69504 18.513 5.82986C18.3838 5.78013 18.2438 5.76895 18.1002 5.79531C17.7784 5.85423 17.7567 6.21614 18.0525 6.34277C18.083 6.36374 18.23 6.44723 18.376 6.52572C18.3429 6.66253 18.3065 6.79995 18.2658 6.93856C18.1645 6.9106 18.0577 6.90441 17.945 6.93337C17.6201 7.01645 17.498 7.38495 17.8805 7.50281C17.9005 7.51339 17.9696 7.54435 18.0535 7.5805C17.5144 9.05711 16.4976 10.6042 15.2079 11.6029C15.4698 10.9723 15.9403 10.3052 16.1932 9.84084L16.1932 9.84075ZM15.0673 12.7702C15.6262 12.5932 16.312 12.5511 16.752 12.4197C17.541 12.1846 18.2244 11.6721 18.8497 11.157C19.5037 10.6187 20.1658 10.0435 20.6731 9.36082C20.7735 9.226 20.8674 9.08918 20.9625 8.95217C20.8726 9.15809 20.7899 9.33405 20.7346 9.45469C20.3779 10.2318 19.6812 10.8652 19.0908 11.469C18.0812 12.5012 16.5023 12.8295 15.0209 12.7956C15.0365 12.7868 15.0525 12.779 15.0673 12.7702L15.0673 12.7702ZM13.1157 9.14952C13.203 8.6332 13.3708 8.20258 13.2268 7.66115C13.0392 6.95212 12.7568 6.27525 12.5004 5.58877C12.3434 5.16894 11.904 4.71295 11.5694 4.27318C12.2154 4.79768 12.9104 5.77693 13.0994 6.12406C13.5232 6.90319 13.8397 7.92903 13.961 8.80525C14.0976 9.79571 13.7861 10.7932 13.37 11.6778C13.3031 11.8204 13.2642 11.9464 13.2404 12.0653C12.8799 11.1888 13.0219 9.70567 13.1157 9.14963L13.1157 9.14952ZM5.74217 20.1309C5.70043 20.2181 5.33253 20.7542 5.15397 20.9214C4.97581 20.1351 4.87914 19.4909 5.16056 18.6629C5.38845 17.9928 5.82567 17.4493 5.80388 16.7043C5.76713 15.4873 5.4977 14.5832 5.06627 13.5823C5.59834 13.9224 6.32496 15.3469 6.32235 15.3387C6.5061 15.9813 6.51929 16.7023 6.56123 17.3682C6.62414 18.3726 6.15977 19.2554 5.74211 20.1308L5.74217 20.1309ZM10.5461 20.4301C11.4602 20.4524 12.3726 20.9372 13.1691 21.5839C12.6872 21.3272 12.1549 21.1712 11.6284 21.0404C10.6973 20.8093 9.61512 21.0041 8.60391 21.1956C8.59472 21.1231 8.57175 21.0518 8.51803 20.9797C8.37003 20.7804 7.96939 20.7921 7.96939 21.0937C7.96101 21.1189 7.94343 21.2164 7.93065 21.3194C7.77686 21.346 7.62546 21.3712 7.47906 21.3909C6.62743 21.5066 5.62496 21.4463 7.16948 20.7902C8.22604 20.3412 9.42521 20.4023 10.5461 20.43L10.5461 20.4301ZM10.2119 14.4473C10.1752 14.7419 9.8486 17.138 9.62493 16.1204C9.43958 15.2778 9.64291 14.2911 9.54164 13.4209C9.52846 13.3106 9.50909 13.2018 9.48612 13.0935C9.56541 13.0512 9.63452 12.9922 9.68405 12.9014C9.82127 12.6535 9.65609 12.2854 9.34152 12.4418C9.33413 12.4436 9.31975 12.4476 9.30257 12.4526C9.16995 12.0767 9.00657 11.7096 8.85358 11.3519C8.3932 10.275 7.56253 9.42369 6.90821 8.47915C7.99172 9.28686 9.02134 10.5282 9.74776 11.3669C10.5385 12.2802 10.3475 13.3643 10.2119 14.4473L10.2119 14.4473ZM19.4763 16.3591C18.6396 16.2972 17.8857 16.7072 17.134 16.9994C16.6313 17.1949 16.1206 17.301 15.6059 17.3501C15.6143 17.2477 15.5999 17.144 15.553 17.0415C15.4132 16.737 15.0295 16.6818 14.9806 17.0785C14.9706 17.1102 14.9384 17.2421 14.9071 17.3837C14.7664 17.3843 14.6256 17.3815 14.4838 17.3759C14.4942 17.2664 14.4754 17.1614 14.3956 17.0547C14.2416 16.8494 13.8681 16.8744 13.8463 17.1684C13.8395 17.1883 13.8269 17.2541 13.8157 17.3308C13.0179 17.2563 12.2159 17.1226 11.4204 17.029C11.4453 17.0074 11.4719 16.9872 11.4965 16.9657C12.0962 16.5412 13.348 16.4385 13.8743 16.3798C14.7097 16.2868 15.5344 16.6874 16.3513 16.5702C17.0002 16.4769 17.5233 16.3081 18.1289 16.0411C18.6438 15.7537 19.204 15.64 19.8088 15.7002C20.0702 15.7455 21.4102 16.3025 21.7078 16.8552C20.9642 16.6972 20.251 16.4162 19.4762 16.3591L19.4763 16.3591Z" fill="white"/>
</svg>
