<svg width="88" height="88" viewBox="0 0 88 88" fill="none" xmlns="http://www.w3.org/2000/svg">
<path d="M77.5955 3.67458C76.9591 3.64932 76.3395 3.68476 75.7402 3.77297C73.3432 4.12576 71.3244 5.28328 69.7071 6.60947C67.5992 8.33799 66.184 10.3194 65.4025 11.5487C65.1776 11.4462 64.9571 11.3359 64.7269 11.2423C62.5065 10.3398 60.1542 9.87512 57.7675 9.81705C56.9719 9.79766 56.1747 9.82293 55.3745 9.89294C52.6444 10.1319 49.9119 10.9047 47.3087 12.1391C40.7568 15.246 35.0429 21.3676 32.3906 29.9312C25.6733 51.6195 18.3268 64.0373 12.8329 71.2417C10.0859 74.844 7.81134 77.1345 6.24511 78.6802C5.46199 79.453 4.85593 80.0194 4.39547 80.5693C4.16524 80.8442 3.96272 81.1174 3.79863 81.5279C3.63455 81.9384 3.5766 82.6683 3.90561 83.2062C4.20472 83.6953 4.53059 83.8205 4.77835 83.9287C5.02611 84.0368 5.24678 84.0891 5.49061 84.1395C5.97828 84.2405 6.53542 84.2994 7.21356 84.3222C8.56985 84.368 10.3891 84.2743 12.5992 83.9906C17.0193 83.4232 23.0026 82.0737 29.7414 79.369C43.219 73.9594 59.6832 63.1118 72.1733 42.4158C78.4952 32.5795 77.3968 18.9721 67.9276 12.9544C68.6275 11.8798 69.8342 10.2265 71.5368 8.83038C72.8766 7.73174 74.4432 6.8742 76.1651 6.62078C77.8869 6.36736 79.8015 6.6701 82.0913 8.13039C83.7163 9.16332 85.2703 6.72879 83.6453 5.69587C81.5608 4.36626 79.5046 3.75036 77.5955 3.67458ZM57.669 12.7013C59.7389 12.7467 61.7596 13.1457 63.6402 13.9102C69.103 16.1308 73.0192 21.3049 73.367 27.8902C71.6198 27.9133 69.8867 27.5095 68.3642 26.6702C65.7322 25.2047 63.9772 22.66 63.598 19.794C63.4791 18.9034 62.5818 18.3395 61.7258 18.6161C59.0659 19.4877 56.1325 19.2069 53.7023 17.8627C52.1026 16.9701 50.8235 15.6678 49.9805 14.1238C51.824 13.4064 53.7111 12.9411 55.5857 12.7716C56.2829 12.7086 56.979 12.6862 57.669 12.7013ZM47.3735 15.3354C48.4771 17.4349 50.1778 19.196 52.2974 20.3787C55.0937 21.9294 58.2803 22.3204 61.0698 21.7506C61.8073 24.662 63.9599 27.5189 66.9594 29.189C68.8896 30.2559 71.0678 30.7892 73.2684 30.7802C72.9457 33.9653 71.8417 37.3916 69.7071 40.9286C57.5646 61.0486 41.6626 71.4762 28.666 76.6926C22.1677 79.3009 16.3982 80.599 12.2276 81.1343C10.2597 81.387 8.721 81.445 7.58799 81.4211C7.8375 81.1714 7.94407 81.0505 8.26929 80.7295C9.85763 79.1621 12.2661 76.7293 15.1217 72.9847C20.8327 65.4955 28.3458 52.7416 35.1468 30.783C37.4107 23.4732 42.0495 18.2369 47.3735 15.3354ZM63.8006 37.6563C63.2757 37.6822 62.8064 37.9914 62.576 38.4632C62.2403 39.1225 61.8641 39.792 61.4583 40.4704C60.3243 42.1485 62.9787 43.7383 63.9273 41.949C64.3627 41.2211 64.7716 40.4952 65.1407 39.7704C65.6656 38.7852 64.9169 37.6042 63.8006 37.6563V37.6563ZM59.9156 43.9787C59.4386 43.9642 58.9853 44.1863 58.705 44.5719C54.5377 50.0839 49.5834 55.1041 43.891 60.5423C42.496 61.8672 44.4906 63.9547 45.8814 62.6254C51.6107 57.152 56.6811 52.0191 61.0023 46.3036C61.7277 45.3764 61.0932 44.019 59.9156 43.9787V43.9787Z" fill="white" stroke="white"/>
</svg>
