<svg width="25" height="29" viewBox="0 0 25 29" fill="none" xmlns="http://www.w3.org/2000/svg">
<path fill-rule="evenodd" clip-rule="evenodd" d="M10.6863 8.61887C10.404 8.02213 10.249 7.37315 10.2312 6.71324C10.2132 4.31474 12.3709 2.35202 12.3709 2.35202C12.3709 2.35202 13.9328 3.72968 14.4229 5.61514C15.6545 4.1751 17.5366 3.59044 17.5366 3.59044C17.5366 3.59044 18.3268 5.39594 18.0533 7.25039C19.7946 6.39721 21.8634 6.6653 21.8634 6.6653C21.8634 6.6653 21.7884 9.5898 19.9586 11.1571C19.4477 11.5801 18.8539 11.8915 18.2153 12.0714C20.0506 13.9253 20.7231 16.3618 19.3939 19.2715C18.0646 22.1812 12.8347 24.9523 9.9971 25.315C9.23767 25.4045 8.46824 25.2838 7.7727 24.966C7.07716 24.6483 6.4822 24.1457 6.05268 23.513C4.47108 21.1263 3.1488 15.3438 4.46927 12.4534C5.78973 9.56292 8.07844 8.45596 10.6863 8.61887ZM13.7563 6.63882L13.8325 6.47206C13.7449 5.17618 12.9285 4.03317 12.3891 3.40948C11.8227 4.08359 10.9662 5.33061 10.9765 6.69967C11.0012 7.40941 11.2004 8.10211 11.5564 8.71661C12.0735 8.80029 12.584 8.9212 13.0837 9.07841C13.1803 8.92356 13.2734 8.75936 13.3608 8.58485C13.3548 7.91562 13.4895 7.2526 13.7563 6.63882ZM17.0942 4.5589C16.2973 4.92873 14.9906 5.69617 14.4163 6.95325C14.0893 7.74853 13.9913 8.61943 14.1334 9.4675C14.3325 9.54815 14.5319 9.63406 14.7314 9.72521C14.931 9.81637 15.125 9.91017 15.3135 10.0066C16.0474 9.55841 16.6421 8.91475 17.031 8.14772C17.6124 6.88618 17.3373 5.40126 17.0942 4.5589ZM19.4853 10.5868C20.5351 9.69169 20.914 8.23427 21.0497 7.36598C20.2156 7.36479 18.8119 7.49615 17.779 8.275L17.7029 8.44175C17.4157 9.04656 17.0046 9.5842 16.4962 10.0198C16.4161 10.1951 16.3583 10.378 16.3045 10.5524C16.7493 10.8259 17.1738 11.1312 17.5746 11.4659C18.2743 11.3353 18.9308 11.0332 19.4853 10.5868ZM6.66328 23.1098C7.01681 23.6278 7.50521 24.0394 8.07568 24.3C8.64615 24.5606 9.277 24.6604 9.90005 24.5885C12.5299 24.2394 17.5234 21.5954 18.7257 18.9637C19.5647 17.1272 19.564 15.4318 18.7178 13.9185C18.3587 13.2939 17.901 12.7313 17.3624 12.2528C17.1065 12.0203 16.8376 11.8026 16.557 11.6006C16.4155 11.4972 16.2679 11.3962 16.1162 11.2984C15.9037 11.16 15.6824 11.0262 15.452 10.8968L15.343 10.847C15.0867 10.7067 14.8201 10.5719 14.541 10.4419L14.308 10.3354C14.03 10.2084 13.7527 10.0972 13.4809 9.99634L13.3719 9.94653C13.1233 9.85709 12.8772 9.77739 12.6335 9.70742C12.4582 9.65573 12.282 9.61143 12.1101 9.56909C11.7762 9.4895 11.438 9.42904 11.0972 9.38801C10.3828 9.29413 9.65799 9.3164 8.95073 9.45396C7.25499 9.80594 5.97079 10.9144 5.13183 12.7509C3.93498 15.3877 5.20057 20.904 6.6623 23.1119L6.66328 23.1098ZM7.06239 12.579C6.82034 12.4684 6.80384 11.9854 7.02554 11.5001C7.24723 11.0148 7.62317 10.7111 7.86522 10.8216C8.10727 10.9322 8.12377 11.4152 7.90207 11.9005C7.68038 12.3858 7.30444 12.6896 7.06239 12.579ZM10.5387 13.1046C10.317 13.5899 10.3335 14.0729 10.5755 14.1835C10.8176 14.2941 11.1935 13.9903 11.4152 13.5051C11.6369 13.0198 11.6204 12.5367 11.3784 12.4262C11.1363 12.3156 10.7604 12.6193 10.5387 13.1046ZM14.0858 15.788C13.8438 15.6775 13.8273 15.1944 14.049 14.7092C14.2706 14.2239 14.6466 13.9201 14.8886 14.0307C15.1307 14.1413 15.1472 14.6243 14.9255 15.1096C14.7038 15.5949 14.3279 15.8986 14.0858 15.788ZM8.13188 18.3724C7.91019 18.8577 7.92669 19.3407 8.16874 19.4513C8.41079 19.5619 8.78672 19.2581 9.00842 18.7729C9.23011 18.2876 9.21361 17.8045 8.97156 17.694C8.72951 17.5834 8.35358 17.8871 8.13188 18.3724ZM11.68 21.0549C11.4379 20.9443 11.4214 20.4613 11.6431 19.976C11.8648 19.4907 12.2407 19.187 12.4828 19.2975C12.7248 19.4081 12.7413 19.8912 12.5196 20.3764C12.298 20.8617 11.922 21.1655 11.68 21.0549ZM17.5611 16.3146C17.3394 16.7999 17.3559 17.283 17.598 17.3935C17.84 17.5041 18.216 17.2004 18.4377 16.7151C18.6594 16.2298 18.6429 15.7468 18.4008 15.6362C18.1588 15.5256 17.7828 15.8294 17.5611 16.3146ZM7.61413 16.0147C7.37208 15.9041 7.35558 15.4211 7.57727 14.9358C7.79897 14.4505 8.17491 14.1467 8.41695 14.2573C8.659 14.3679 8.67551 14.8509 8.45381 15.3362C8.23212 15.8215 7.85618 16.1252 7.61413 16.0147ZM11.0904 16.5403C10.8687 17.0256 10.8852 17.5086 11.1273 17.6192C11.3693 17.7298 11.7453 17.426 11.967 16.9407C12.1886 16.4555 12.1721 15.9724 11.9301 15.8619C11.6881 15.7513 11.3121 16.055 11.0904 16.5403ZM8.72047 22.888C8.47843 22.7774 8.46193 22.2943 8.68362 21.8091C8.90531 21.3238 9.28125 21.02 9.5233 21.1306C9.76535 21.2412 9.78185 21.7242 9.56016 22.2095C9.33846 22.6948 8.96252 22.9985 8.72047 22.888ZM14.6036 18.1448C14.3819 18.6301 14.3984 19.1132 14.6404 19.2237C14.8825 19.3343 15.2584 19.0306 15.4801 18.5453C15.7018 18.06 15.6853 17.577 15.4432 17.4664C15.2012 17.3558 14.8253 17.6596 14.6036 18.1448Z" fill="white"/>
<path d="M10.2312 6.71324L10.0313 6.71862L10.0312 6.71474L10.2312 6.71324ZM10.6863 8.61887L10.8671 8.53333L11.012 8.8396L10.6738 8.81848L10.6863 8.61887ZM12.3709 2.35202L12.2363 2.20407L12.3688 2.08353L12.5032 2.20203L12.3709 2.35202ZM14.4229 5.61514L14.5749 5.74513L14.3258 6.03644L14.2294 5.66546L14.4229 5.61514ZM17.5366 3.59044L17.4773 3.39944L17.6481 3.34637L17.7198 3.51024L17.5366 3.59044ZM18.0533 7.25039L18.1413 7.42999L17.8 7.59723L17.8555 7.2212L18.0533 7.25039ZM21.8634 6.6653L21.8891 6.46696L22.0679 6.49014L22.0633 6.67043L21.8634 6.6653ZM19.9586 11.1571L20.0888 11.309L20.0862 11.3112L19.9586 11.1571ZM18.2153 12.0714L18.0732 12.2121L17.8344 11.9708L18.1611 11.8788L18.2153 12.0714ZM9.9971 25.315L10.0225 25.5134L10.0205 25.5136L9.9971 25.315ZM6.05268 23.513L5.88721 23.6254L5.88597 23.6235L6.05268 23.513ZM13.8325 6.47206L14.032 6.45857L14.0355 6.5091L14.0144 6.55517L13.8325 6.47206ZM13.7563 6.63882L13.5729 6.55908L13.5744 6.55571L13.7563 6.63882ZM12.3891 3.40948L12.236 3.28083L12.3869 3.10119L12.5404 3.27865L12.3891 3.40948ZM10.9765 6.69967L10.7765 6.70666L10.7765 6.70117L10.9765 6.69967ZM11.5564 8.71661L11.5245 8.91405L11.4309 8.8989L11.3833 8.81687L11.5564 8.71661ZM13.0837 9.07841L13.2534 9.18425L13.1714 9.31567L13.0237 9.26919L13.0837 9.07841ZM13.3608 8.58485L13.5608 8.58304L13.5613 8.63131L13.5396 8.67447L13.3608 8.58485ZM14.4163 6.95325L14.2312 6.87714L14.2344 6.87014L14.4163 6.95325ZM17.0942 4.5589L17.01 4.37749L17.2216 4.27926L17.2863 4.50344L17.0942 4.5589ZM14.1334 9.4675L14.0583 9.65288L13.9546 9.61089L13.9361 9.50054L14.1334 9.4675ZM15.3135 10.0066L15.4177 10.1773L15.3221 10.2357L15.2224 10.1847L15.3135 10.0066ZM17.031 8.14772L17.2127 8.2315L17.2093 8.23816L17.031 8.14772ZM21.0497 7.36598L21.05 7.16598L21.2833 7.16632L21.2473 7.39686L21.0497 7.36598ZM19.4853 10.5868L19.6151 10.7391L19.6107 10.7426L19.4853 10.5868ZM17.779 8.275L17.5971 8.19189L17.6182 8.14581L17.6586 8.11531L17.779 8.275ZM17.7029 8.44175L17.8848 8.52487L17.8835 8.52753L17.7029 8.44175ZM16.4962 10.0198L16.3142 9.93666L16.3326 9.89656L16.366 9.86788L16.4962 10.0198ZM16.3045 10.5524L16.1997 10.7228L16.0677 10.6415L16.1134 10.4934L16.3045 10.5524ZM17.5746 11.4659L17.6113 11.6625L17.5187 11.6798L17.4464 11.6195L17.5746 11.4659ZM6.66328 23.1098L6.48136 23.0267L6.62866 22.7042L6.82848 22.997L6.66328 23.1098ZM9.90005 24.5885L9.92637 24.7867L9.92298 24.7871L9.90005 24.5885ZM18.7178 13.9185L18.8912 13.8188L18.8923 13.8209L18.7178 13.9185ZM17.3624 12.2528L17.2296 12.4023L17.2279 12.4008L17.3624 12.2528ZM16.557 11.6006L16.4401 11.7629L16.4389 11.762L16.557 11.6006ZM16.1162 11.2984L16.0079 11.4666L16.007 11.466L16.1162 11.2984ZM15.452 10.8968L15.5352 10.7149L15.5427 10.7184L15.55 10.7224L15.452 10.8968ZM15.343 10.847L15.2599 11.0289L15.2533 11.0259L15.247 11.0224L15.343 10.847ZM14.541 10.4419L14.6241 10.2599L14.6255 10.2606L14.541 10.4419ZM13.4809 9.99634L13.4113 10.1838L13.4044 10.1813L13.3978 10.1783L13.4809 9.99634ZM13.3719 9.94653L13.4396 9.75834L13.4474 9.76115L13.455 9.76461L13.3719 9.94653ZM12.6335 9.70742L12.5783 9.89965L12.577 9.89926L12.6335 9.70742ZM12.1101 9.56909L12.1565 9.37453L12.158 9.3749L12.1101 9.56909ZM11.0972 9.38801L11.0733 9.58659L11.0712 9.58631L11.0972 9.38801ZM8.95073 9.45396L8.91008 9.25812L8.91255 9.25764L8.95073 9.45396ZM5.13183 12.7509L4.94971 12.6682L4.94991 12.6678L5.13183 12.7509ZM6.6623 23.1119L6.84422 23.195L6.69447 23.5228L6.49554 23.2223L6.6623 23.1119ZM10.4312 6.70786C10.4482 7.34001 10.5966 7.9617 10.8671 8.53333L10.5055 8.7044C10.2113 8.08257 10.0498 7.40629 10.0313 6.71862L10.4312 6.70786ZM12.3709 2.35202C12.5055 2.49997 12.5055 2.49993 12.5055 2.49991C12.5055 2.49991 12.5056 2.49989 12.5055 2.4999C12.5055 2.4999 12.5055 2.49994 12.5054 2.5C12.5053 2.50013 12.505 2.50038 12.5046 2.50075C12.5038 2.50148 12.5025 2.50268 12.5007 2.50435C12.4971 2.50768 12.4916 2.51287 12.4842 2.51987C12.4694 2.53387 12.4473 2.5551 12.4189 2.5832C12.3621 2.6394 12.2803 2.72298 12.1818 2.83095C11.9847 3.04708 11.7218 3.3599 11.4597 3.7456C10.9329 4.52084 10.4227 5.5707 10.4312 6.71174L10.0312 6.71474C10.0218 5.45728 10.5813 4.32653 11.1289 3.52078C11.404 3.11599 11.6794 2.78822 11.8863 2.5614C11.9898 2.44789 12.0764 2.35939 12.1375 2.29888C12.1681 2.26863 12.1923 2.24535 12.2091 2.22943C12.2176 2.22147 12.2241 2.21534 12.2287 2.2111C12.231 2.20898 12.2328 2.20733 12.234 2.20616C12.2347 2.20557 12.2352 2.2051 12.2356 2.20476C12.2358 2.20458 12.2359 2.20444 12.236 2.20432C12.2361 2.20427 12.2362 2.20421 12.2362 2.20418C12.2363 2.20412 12.2363 2.20407 12.3709 2.35202ZM14.2294 5.66546C13.9937 4.75902 13.498 3.96793 13.0553 3.39942C12.8347 3.11613 12.6291 2.8905 12.4791 2.7361C12.4042 2.65895 12.3433 2.59972 12.3014 2.56012C12.2805 2.54032 12.2644 2.52543 12.2537 2.51567C12.2484 2.5108 12.2444 2.5072 12.2418 2.50491C12.2406 2.50377 12.2397 2.50296 12.2391 2.50247C12.2388 2.50223 12.2387 2.50207 12.2386 2.50199C12.2385 2.50195 12.2385 2.50194 12.2385 2.50194C12.2385 2.50194 12.2385 2.50196 12.2385 2.50196C12.2386 2.50198 12.2386 2.50201 12.3709 2.35202C12.5032 2.20203 12.5032 2.20207 12.5033 2.20211C12.5033 2.20213 12.5034 2.20218 12.5034 2.20223C12.5035 2.20231 12.5036 2.20242 12.5038 2.20255C12.5041 2.20281 12.5045 2.20315 12.5049 2.20358C12.5059 2.20444 12.5072 2.20562 12.5089 2.20715C12.5123 2.21019 12.5172 2.21456 12.5234 2.22023C12.5358 2.23158 12.5537 2.24813 12.5765 2.26968C12.622 2.31278 12.6869 2.37592 12.7661 2.45738C12.9242 2.62021 13.1398 2.85684 13.3709 3.15365C13.8317 3.74533 14.362 4.5858 14.6165 5.56483L14.2294 5.66546ZM17.5366 3.59044C17.5959 3.78143 17.596 3.78142 17.596 3.78141C17.596 3.78141 17.596 3.7814 17.5961 3.7814C17.5961 3.7814 17.596 3.7814 17.596 3.78142C17.5959 3.78145 17.5957 3.78152 17.5953 3.78162C17.5947 3.78182 17.5936 3.78217 17.5921 3.78266C17.589 3.78364 17.5842 3.7852 17.5777 3.78734C17.5647 3.79161 17.545 3.79821 17.5192 3.8072C17.4677 3.82519 17.3919 3.85271 17.2968 3.8903C17.1064 3.96551 16.8392 4.08076 16.5342 4.24005C15.9224 4.55962 15.1681 5.05157 14.5749 5.74513L14.2709 5.48515C14.9093 4.73867 15.7119 4.21827 16.349 3.8855C16.6685 3.71862 16.9488 3.59769 17.1498 3.51828C17.2504 3.47855 17.3312 3.44915 17.3874 3.42954C17.4155 3.41973 17.4375 3.41236 17.4527 3.40737C17.4603 3.40487 17.4662 3.40297 17.4703 3.40165C17.4724 3.40099 17.474 3.40048 17.4751 3.40011C17.4757 3.39992 17.4762 3.39978 17.4766 3.39966C17.4767 3.39961 17.4769 3.39956 17.477 3.39952C17.4771 3.39951 17.4771 3.39948 17.4772 3.39947C17.4772 3.39946 17.4773 3.39944 17.5366 3.59044ZM17.8555 7.2212C17.9871 6.3285 17.8631 5.44108 17.703 4.77151C17.6232 4.43781 17.5351 4.16089 17.4672 3.96795C17.4332 3.87154 17.4044 3.79627 17.3842 3.74554C17.3741 3.72019 17.3662 3.70098 17.3609 3.68834C17.3583 3.68203 17.3563 3.67736 17.355 3.67439C17.3544 3.6729 17.3539 3.67184 17.3536 3.67121C17.3535 3.6709 17.3534 3.67069 17.3534 3.67059C17.3534 3.67054 17.3533 3.67052 17.3534 3.67053C17.3534 3.67053 17.3534 3.67055 17.3534 3.67056C17.3534 3.67059 17.3534 3.67063 17.5366 3.59044C17.7198 3.51024 17.7199 3.5103 17.7199 3.51036C17.7199 3.51038 17.7199 3.51045 17.7199 3.51051C17.72 3.51062 17.7201 3.51077 17.7201 3.51094C17.7203 3.51128 17.7205 3.51173 17.7207 3.51229C17.7212 3.51341 17.7219 3.51497 17.7227 3.51695C17.7244 3.52093 17.7269 3.52662 17.7299 3.53398C17.7361 3.54871 17.7449 3.5701 17.7559 3.59773C17.7779 3.65299 17.8086 3.73326 17.8445 3.83509C17.9161 4.03864 18.0085 4.329 18.0921 4.67848C18.2587 5.37527 18.393 6.31782 18.2512 7.27957L17.8555 7.2212ZM21.8634 6.6653C21.8377 6.86364 21.8377 6.86365 21.8377 6.86365C21.8378 6.86365 21.8378 6.86366 21.8378 6.86366C21.8378 6.86366 21.8378 6.86365 21.8377 6.86364C21.8376 6.86363 21.8373 6.8636 21.837 6.86355C21.8362 6.86346 21.835 6.86331 21.8333 6.8631C21.8299 6.86269 21.8245 6.86205 21.8173 6.86124C21.8029 6.85961 21.781 6.85728 21.7523 6.85456C21.6948 6.84913 21.6099 6.8422 21.5023 6.83646C21.2869 6.82496 20.9811 6.81825 20.6221 6.83761C19.9015 6.87647 18.9786 7.01972 18.1413 7.42999L17.9653 7.07079C18.8692 6.62788 19.8514 6.47859 20.6005 6.43819C20.9764 6.41793 21.2967 6.42492 21.5236 6.43703C21.6371 6.44308 21.7274 6.45043 21.7899 6.45633C21.8211 6.45928 21.8454 6.46187 21.8621 6.46376C21.8705 6.4647 21.877 6.46546 21.8815 6.46601C21.8837 6.46629 21.8855 6.46651 21.8868 6.46667C21.8874 6.46674 21.8879 6.46681 21.8883 6.46686C21.8885 6.46688 21.8887 6.4669 21.8888 6.46692C21.8888 6.46693 21.8889 6.46694 21.889 6.46694C21.889 6.46695 21.8891 6.46696 21.8634 6.6653ZM19.8285 11.0052C20.6994 10.2592 21.1612 9.18114 21.4039 8.27188C21.5247 7.81948 21.5897 7.41455 21.6245 7.12306C21.6418 6.97744 21.6516 6.86049 21.657 6.78051C21.6597 6.74052 21.6614 6.70981 21.6623 6.6894C21.6628 6.6792 21.6631 6.67157 21.6632 6.66666C21.6633 6.6642 21.6634 6.66242 21.6634 6.66133C21.6634 6.66079 21.6634 6.66042 21.6634 6.66023C21.6634 6.66013 21.6634 6.66008 21.6634 6.66007C21.6634 6.66006 21.6634 6.66009 21.6634 6.66009C21.6634 6.66012 21.6634 6.66017 21.8634 6.6653C22.0633 6.67043 22.0633 6.6705 22.0633 6.67058C22.0633 6.67062 22.0633 6.67072 22.0633 6.6708C22.0633 6.67097 22.0633 6.67118 22.0633 6.67144C22.0633 6.67196 22.0632 6.67265 22.0632 6.67352C22.0632 6.67526 22.0631 6.6777 22.063 6.68082C22.0628 6.68707 22.0624 6.69605 22.0619 6.70765C22.0608 6.73085 22.059 6.7645 22.0561 6.80754C22.0503 6.89361 22.0399 7.01738 22.0217 7.17043C21.9852 7.47626 21.9171 7.90041 21.7904 8.37505C21.5382 9.31986 21.0476 10.4877 20.0887 11.309L19.8285 11.0052ZM18.1611 11.8788C18.7728 11.7066 19.3416 11.4083 19.8311 11.003L20.0862 11.3112C19.5537 11.752 18.9349 12.0765 18.2696 12.2639L18.1611 11.8788ZM19.212 19.1884C19.8621 17.7654 20.0173 16.4711 19.7949 15.3133C19.5724 14.1547 18.9685 13.1164 18.0732 12.2121L18.3575 11.9306C19.2975 12.8803 19.9475 13.9873 20.1877 15.2378C20.4281 16.4892 20.255 17.8679 19.5758 19.3546L19.212 19.1884ZM9.97174 25.1166C11.3536 24.94 13.3436 24.1705 15.1579 23.0771C16.9765 21.9811 18.5731 20.587 19.212 19.1884L19.5758 19.3546C18.8855 20.8657 17.2024 22.312 15.3644 23.4197C13.522 24.53 11.4782 25.3273 10.0225 25.5134L9.97174 25.1166ZM7.85581 24.7841C8.51804 25.0866 9.25063 25.2016 9.97369 25.1164L10.0205 25.5136C9.22471 25.6074 8.41844 25.4809 7.6896 25.1479L7.85581 24.7841ZM6.21815 23.4007C6.62711 24.003 7.19358 24.4816 7.85581 24.7841L7.6896 25.1479C6.96075 24.815 6.3373 24.2883 5.88722 23.6254L6.21815 23.4007ZM4.65118 12.5365C4.01669 13.9253 4.00845 16.0437 4.36979 18.1381C4.73025 20.2274 5.44921 22.2403 6.2194 23.4025L5.88597 23.6235C5.07456 22.3991 4.34158 20.3273 3.97561 18.2061C3.61052 16.0899 3.60138 13.8718 4.28735 12.3702L4.65118 12.5365ZM10.6738 8.81848C9.40194 8.73903 8.21861 8.96965 7.19547 9.56404C6.17303 10.158 5.29677 11.1233 4.65118 12.5365L4.28735 12.3702C4.96222 10.893 5.89055 9.85954 6.99454 9.21817C8.09784 8.57721 9.36279 8.3358 10.6988 8.41926L10.6738 8.81848ZM14.0144 6.55517L13.9382 6.72192L13.5744 6.55571L13.6506 6.38895L14.0144 6.55517ZM12.5404 3.27865C13.0864 3.91 13.9399 5.09502 14.032 6.45857L13.6329 6.48555C13.5499 5.25734 12.7706 4.15634 12.2378 3.54031L12.5404 3.27865ZM10.7765 6.70117C10.7657 5.25641 11.664 3.96161 12.236 3.28083L12.5422 3.53813C11.9815 4.20557 11.1668 5.4048 11.1765 6.69818L10.7765 6.70117ZM11.3833 8.81687C11.0109 8.17395 10.8025 7.44921 10.7766 6.70665L11.1763 6.6927C11.2 7.36961 11.3899 8.03028 11.7295 8.61636L11.3833 8.81687ZM13.0237 9.26919C12.5331 9.11487 12.0321 8.99618 11.5245 8.91405L11.5883 8.51918C12.115 8.60439 12.6348 8.72753 13.1437 8.88763L13.0237 9.26919ZM13.5396 8.67447C13.4492 8.85489 13.353 9.02449 13.2534 9.18425L12.914 8.97257C13.0075 8.82262 13.0975 8.66383 13.1821 8.49522L13.5396 8.67447ZM13.9397 6.71854C13.6841 7.30661 13.555 7.94185 13.5608 8.58304L13.1609 8.58665C13.1546 7.88939 13.2949 7.19859 13.5729 6.55909L13.9397 6.71854ZM14.2344 6.87014C14.8401 5.54418 16.2049 4.75111 17.01 4.37749L17.1784 4.74032C16.3897 5.10636 15.141 5.84816 14.5982 7.03636L14.2344 6.87014ZM13.9361 9.50054C13.7879 8.61568 13.8902 7.70699 14.2313 6.8772L14.6013 7.02931C14.2885 7.79008 14.1947 8.62319 14.3306 9.43446L13.9361 9.50054ZM14.6483 9.90713C14.4514 9.81716 14.2547 9.73241 14.0583 9.65288L14.2084 9.28212C14.4104 9.36389 14.6124 9.45095 14.8145 9.5433L14.6483 9.90713ZM15.2224 10.1847C15.0366 10.0896 14.8453 9.9971 14.6483 9.90713L14.8145 9.5433C15.0167 9.63564 15.2134 9.73073 15.4046 9.82858L15.2224 10.1847ZM17.2093 8.23816C16.8037 9.0383 16.1833 9.70974 15.4177 10.1773L15.2092 9.83594C15.9115 9.40707 16.4805 8.7912 16.8526 8.05729L17.2093 8.23816ZM17.2863 4.50344C17.5321 5.35494 17.8259 6.90082 17.2126 8.23144L16.8493 8.064C17.399 6.87154 17.1425 5.44757 16.902 4.61436L17.2863 4.50344ZM21.2473 7.39686C21.1102 8.27472 20.7224 9.79482 19.615 10.739L19.3555 10.4346C20.3478 9.58856 20.7179 8.19382 20.8521 7.3351L21.2473 7.39686ZM17.6586 8.11531C18.7458 7.29546 20.2058 7.16477 21.05 7.16598L21.0494 7.56598C20.2254 7.5648 18.8779 7.69683 17.8995 8.43468L17.6586 8.11531ZM17.5209 8.35865L17.5971 8.19189L17.961 8.35811L17.8848 8.52486L17.5209 8.35865ZM16.366 9.86788C16.8532 9.45056 17.2471 8.93544 17.5222 8.35598L17.8835 8.52753C17.5844 9.15767 17.156 9.71784 16.6263 10.1717L16.366 9.86788ZM16.1134 10.4934C16.167 10.3197 16.2281 10.1252 16.3142 9.93666L16.6781 10.1029C16.604 10.2649 16.5497 10.4363 16.4956 10.6114L16.1134 10.4934ZM17.4464 11.6195C17.053 11.2909 16.6363 10.9912 16.1997 10.7228L16.4093 10.382C16.8623 10.6606 17.2946 10.9716 17.7028 11.3124L17.4464 11.6195ZM19.6107 10.7426C19.0305 11.2097 18.3435 11.5258 17.6113 11.6625L17.5379 11.2693C18.2051 11.1447 18.8311 10.8567 19.3599 10.431L19.6107 10.7426ZM7.99257 24.4819C7.38894 24.2062 6.87216 23.7707 6.49808 23.2225L6.82848 22.997C7.16146 23.485 7.62147 23.8726 8.15878 24.1181L7.99257 24.4819ZM9.92298 24.7871C9.26372 24.8632 8.5962 24.7577 7.99257 24.4819L8.15878 24.1181C8.6961 24.3636 9.29028 24.4575 9.87712 24.3898L9.92298 24.7871ZM18.9076 19.0468C18.2801 20.4203 16.6861 21.7654 14.9509 22.8037C13.2104 23.8451 11.2781 24.6073 9.92636 24.7867L9.87373 24.3902C11.1518 24.2206 13.0312 23.4862 14.7455 22.4605C16.4651 21.4315 17.969 20.1387 18.5438 18.8806L18.9076 19.0468ZM18.8923 13.8209C19.7752 15.3997 19.768 17.1635 18.9076 19.0468L18.5438 18.8806C19.3614 17.091 19.3528 15.4639 18.5432 14.0161L18.8923 13.8209ZM17.4952 12.1033C18.05 12.5962 18.5214 13.1755 18.8912 13.8188L18.5444 14.0182C18.1961 13.4122 17.7521 12.8665 17.2296 12.4023L17.4952 12.1033ZM16.6738 11.4382C16.9606 11.6447 17.2354 11.8672 17.4969 12.1047L17.2279 12.4008C16.9776 12.1734 16.7146 11.9605 16.4401 11.7629L16.6738 11.4382ZM16.2245 11.1303C16.3793 11.23 16.5302 11.3333 16.675 11.4391L16.4389 11.762C16.3009 11.6611 16.1565 11.5623 16.0079 11.4666L16.2245 11.1303ZM15.55 10.7224C15.784 10.8538 16.0091 10.99 16.2253 11.1308L16.007 11.466C15.7984 11.3301 15.5808 11.1985 15.3541 11.0712L15.55 10.7224ZM15.4261 10.6651L15.5352 10.7149L15.3689 11.0787L15.2599 11.0289L15.4261 10.6651ZM14.6255 10.2606C14.9083 10.3924 15.1788 10.5291 15.4391 10.6716L15.247 11.0224C14.9946 10.8843 14.7319 10.7515 14.4565 10.6231L14.6255 10.2606ZM14.3911 10.1535L14.6241 10.2599L14.4579 10.6238L14.2249 10.5173L14.3911 10.1535ZM13.5505 9.80884C13.8255 9.91094 14.1076 10.024 14.3911 10.1535L14.2249 10.5173C13.9525 10.3929 13.6798 10.2835 13.4113 10.1838L13.5505 9.80884ZM13.455 9.76461L13.564 9.81442L13.3978 10.1783L13.2888 10.1284L13.455 9.76461ZM12.6887 9.51519C12.9368 9.58642 13.1871 9.66748 13.4396 9.75834L13.3042 10.1347C13.0596 10.0467 12.8176 9.96836 12.5783 9.89965L12.6887 9.51519ZM12.158 9.3749C12.3301 9.41729 12.51 9.46251 12.6901 9.51558L12.577 9.89926C12.4063 9.84895 12.234 9.80557 12.0623 9.76328L12.158 9.3749ZM11.1211 9.18945C11.4695 9.23139 11.8152 9.29319 12.1565 9.37454L12.0638 9.76364C11.7373 9.68582 11.4066 9.6267 11.0733 9.58658L11.1211 9.18945ZM8.91255 9.25764C9.64097 9.11596 10.3875 9.09302 11.1233 9.18972L11.0712 9.58631C10.3782 9.49523 9.67501 9.51684 8.98891 9.65028L8.91255 9.25764ZM4.94991 12.6678C5.81035 10.7843 7.14111 9.62532 8.91008 9.25814L8.99138 9.64979C7.36888 9.98656 6.13123 11.0445 5.31374 12.834L4.94991 12.6678ZM6.49554 23.2223C5.7439 22.087 5.05525 20.1264 4.70313 18.1269C4.35204 16.1333 4.32521 14.0441 4.94971 12.6682L5.31394 12.8335C4.7416 14.0945 4.74914 16.0819 5.09707 18.0576C5.44396 20.0274 6.11897 21.9289 6.82907 23.0015L6.49554 23.2223ZM6.84519 23.1929L6.84422 23.195L6.48039 23.0288L6.48136 23.0267L6.84519 23.1929ZM7.20745 11.5832C7.10668 11.8038 7.06454 12.015 7.06994 12.1732C7.07581 12.3449 7.13073 12.3903 7.1455 12.3971L6.97929 12.7609C6.752 12.6571 6.67765 12.4057 6.67018 12.1869C6.66224 11.9546 6.7227 11.6817 6.84362 11.417L7.20745 11.5832ZM7.78211 11.0035C7.76735 10.9968 7.69707 10.985 7.56344 11.093C7.44033 11.1925 7.30822 11.3626 7.20745 11.5832L6.84362 11.417C6.96454 11.1523 7.13125 10.9279 7.31205 10.7818C7.48232 10.6443 7.72104 10.5359 7.94832 10.6397L7.78211 11.0035ZM7.72016 11.8174C7.82093 11.5968 7.86307 11.3856 7.85767 11.2274C7.8518 11.0557 7.79688 11.0103 7.78211 11.0035L7.94832 10.6397C8.17561 10.7435 8.24996 10.995 8.25743 11.2137C8.26537 11.446 8.20491 11.7189 8.08399 11.9836L7.72016 11.8174ZM7.1455 12.3971C7.16026 12.4038 7.23054 12.4156 7.36417 12.3076C7.48728 12.2082 7.61939 12.038 7.72016 11.8174L8.08399 11.9836C7.96307 12.2483 7.79636 12.4727 7.61556 12.6188C7.44529 12.7563 7.20657 12.8647 6.97929 12.7609L7.1455 12.3971ZM10.4924 14.3654C10.2651 14.2616 10.1908 14.0102 10.1833 13.7914C10.1754 13.5591 10.2358 13.2862 10.3568 13.0215L10.7206 13.1877C10.6198 13.4083 10.5777 13.6196 10.5831 13.7778C10.589 13.9495 10.6439 13.9949 10.6586 14.0016L10.4924 14.3654ZM11.5971 13.5882C11.4762 13.8529 11.3095 14.0772 11.1287 14.2233C10.9584 14.3609 10.7197 14.4693 10.4924 14.3654L10.6586 14.0016C10.6734 14.0083 10.7437 14.0201 10.8773 13.9122C11.0004 13.8127 11.1325 13.6425 11.2333 13.422L11.5971 13.5882ZM11.4615 12.2443C11.6888 12.3481 11.7631 12.5995 11.7706 12.8183C11.7785 13.0506 11.7181 13.3235 11.5971 13.5882L11.2333 13.422C11.3341 13.2014 11.3762 12.9901 11.3708 12.8319C11.3649 12.6602 11.31 12.6148 11.2953 12.6081L11.4615 12.2443ZM10.3568 13.0215C10.4777 12.7568 10.6444 12.5325 10.8252 12.3864C10.9955 12.2488 11.2342 12.1404 11.4615 12.2443L11.2953 12.6081C11.2805 12.6013 11.2102 12.5895 11.0766 12.6975C10.9535 12.797 10.8214 12.9671 10.7206 13.1877L10.3568 13.0215ZM14.2309 14.7923C14.1301 15.0128 14.088 15.2241 14.0934 15.3823C14.0992 15.554 14.1542 15.5994 14.1689 15.6061L14.0027 15.97C13.7754 15.8661 13.7011 15.6147 13.6936 15.3959C13.6857 15.1636 13.7461 14.8907 13.867 14.626L14.2309 14.7923ZM14.8055 14.2126C14.7908 14.2059 14.7205 14.1941 14.5869 14.302C14.4637 14.4015 14.3316 14.5717 14.2309 14.7923L13.867 14.626C13.988 14.3614 14.1547 14.137 14.3355 13.9909C14.5057 13.8533 14.7445 13.745 14.9717 13.8488L14.8055 14.2126ZM14.7436 15.0265C14.8443 14.8059 14.8865 14.5946 14.8811 14.4365C14.8752 14.2648 14.8203 14.2194 14.8055 14.2126L14.9717 13.8488C15.199 13.9526 15.2734 14.204 15.2809 14.4228C15.2888 14.6551 15.2283 14.928 15.1074 15.1927L14.7436 15.0265ZM14.1689 15.6061C14.1837 15.6129 14.254 15.6247 14.3876 15.5167C14.5107 15.4172 14.6428 15.2471 14.7436 15.0265L15.1074 15.1927C14.9865 15.4574 14.8198 15.6817 14.639 15.8278C14.4687 15.9654 14.23 16.0738 14.0027 15.97L14.1689 15.6061ZM8.08563 19.6332C7.85835 19.5294 7.784 19.278 7.77652 19.0592C7.76859 18.8269 7.82904 18.554 7.94997 18.2893L8.3138 18.4555C8.21303 18.6761 8.17089 18.8874 8.17629 19.0456C8.18216 19.2173 8.23708 19.2627 8.25184 19.2694L8.08563 19.6332ZM9.19033 18.856C9.06941 19.1207 8.9027 19.345 8.72191 19.4911C8.55163 19.6287 8.31292 19.7371 8.08563 19.6332L8.25184 19.2694C8.26661 19.2761 8.33689 19.2879 8.47052 19.18C8.59363 19.0805 8.72573 18.9103 8.8265 18.6898L9.19033 18.856ZM9.05467 17.5121C9.28195 17.6159 9.3563 17.8673 9.36378 18.0861C9.37171 18.3184 9.31126 18.5913 9.19033 18.856L8.8265 18.6898C8.92727 18.4692 8.96941 18.2579 8.96401 18.0997C8.95815 17.928 8.90322 17.8826 8.88846 17.8759L9.05467 17.5121ZM7.94997 18.2893C8.07089 18.0246 8.2376 17.8003 8.41839 17.6542C8.58867 17.5166 8.82739 17.4082 9.05467 17.5121L8.88846 17.8759C8.87369 17.8691 8.80342 17.8573 8.66979 17.9653C8.54667 18.0648 8.41457 18.2349 8.3138 18.4555L7.94997 18.2893ZM11.825 20.0591C11.7243 20.2797 11.6821 20.4909 11.6875 20.6491C11.6934 20.8208 11.7483 20.8662 11.7631 20.873L11.5969 21.2368C11.3696 21.133 11.2952 20.8816 11.2878 20.6628C11.2798 20.4305 11.3403 20.1576 11.4612 19.8929L11.825 20.0591ZM12.3997 19.4795C12.3849 19.4727 12.3146 19.4609 12.181 19.5689C12.0579 19.6684 11.9258 19.8385 11.825 20.0591L11.4612 19.8929C11.5821 19.6282 11.7488 19.4038 11.9296 19.2578C12.0999 19.1202 12.3386 19.0118 12.5659 19.1156L12.3997 19.4795ZM12.3377 20.2933C12.4385 20.0727 12.4806 19.8615 12.4752 19.7033C12.4694 19.5316 12.4145 19.4862 12.3997 19.4795L12.5659 19.1156C12.7932 19.2195 12.8675 19.4709 12.875 19.6896C12.8829 19.9219 12.8225 20.1948 12.7016 20.4595L12.3377 20.2933ZM11.7631 20.873C11.7778 20.8797 11.8481 20.8915 11.9817 20.7835C12.1049 20.6841 12.237 20.5139 12.3377 20.2933L12.7016 20.4595C12.5806 20.7242 12.4139 20.9486 12.2331 21.0947C12.0629 21.2323 11.8241 21.3406 11.5969 21.2368L11.7631 20.873ZM17.5149 17.5755C17.2876 17.4716 17.2133 17.2202 17.2058 17.0014C17.1978 16.7691 17.2583 16.4962 17.3792 16.2315L17.7431 16.3977C17.6423 16.6183 17.6001 16.8296 17.6056 16.9878C17.6114 17.1595 17.6663 17.2049 17.6811 17.2116L17.5149 17.5755ZM18.6196 16.7982C18.4987 17.0629 18.332 17.2872 18.1512 17.4333C17.9809 17.5709 17.7422 17.6793 17.5149 17.5755L17.6811 17.2116C17.6959 17.2184 17.7661 17.2302 17.8998 17.1222C18.0229 17.0227 18.155 16.8526 18.2558 16.632L18.6196 16.7982ZM18.4839 15.4543C18.7112 15.5581 18.7856 15.8095 18.793 16.0283C18.801 16.2606 18.7405 16.5335 18.6196 16.7982L18.2558 16.632C18.3565 16.4114 18.3987 16.2001 18.3933 16.0419C18.3874 15.8702 18.3325 15.8248 18.3177 15.8181L18.4839 15.4543ZM17.3792 16.2315C17.5002 15.9668 17.6669 15.7425 17.8477 15.5964C18.0179 15.4588 18.2566 15.3504 18.4839 15.4543L18.3177 15.8181C18.303 15.8114 18.2327 15.7996 18.099 15.9075C17.9759 16.007 17.8438 16.1772 17.7431 16.3977L17.3792 16.2315ZM7.75919 15.0189C7.65842 15.2395 7.61628 15.4507 7.62168 15.6089C7.62755 15.7806 7.68247 15.826 7.69724 15.8328L7.53102 16.1966C7.30374 16.0928 7.22939 15.8413 7.22192 15.6226C7.21398 15.3903 7.27443 15.1174 7.39536 14.8527L7.75919 15.0189ZM8.33385 14.4392C8.31908 14.4325 8.24881 14.4207 8.11518 14.5287C7.99207 14.6281 7.85996 14.7983 7.75919 15.0189L7.39536 14.8527C7.51628 14.588 7.68299 14.3636 7.86379 14.2175C8.03406 14.08 8.27278 13.9716 8.50006 14.0754L8.33385 14.4392ZM8.2719 15.2531C8.37267 15.0325 8.41481 14.8213 8.4094 14.6631C8.40354 14.4914 8.34861 14.446 8.33385 14.4392L8.50006 14.0754C8.72734 14.1792 8.8017 14.4306 8.80917 14.6494C8.81711 14.8817 8.75665 15.1546 8.63573 15.4193L8.2719 15.2531ZM7.69724 15.8328C7.712 15.8395 7.78228 15.8513 7.91591 15.7433C8.03902 15.6439 8.17112 15.4737 8.2719 15.2531L8.63573 15.4193C8.5148 15.684 8.34809 15.9084 8.1673 16.0545C7.99702 16.192 7.75831 16.3004 7.53102 16.1966L7.69724 15.8328ZM11.0442 17.8011C10.8169 17.6973 10.7425 17.4459 10.7351 17.2271C10.7271 16.9948 10.7876 16.7219 10.9085 16.4572L11.2723 16.6234C11.1716 16.844 11.1294 17.0553 11.1348 17.2134C11.1407 17.3851 11.1956 17.4305 11.2104 17.4373L11.0442 17.8011ZM12.1489 17.0239C12.0279 17.2885 11.8612 17.5129 11.6804 17.659C11.5102 17.7966 11.2715 17.905 11.0442 17.8011L11.2104 17.4373C11.2251 17.444 11.2954 17.4558 11.4291 17.3479C11.5522 17.2484 11.6843 17.0782 11.785 16.8576L12.1489 17.0239ZM12.0132 15.6799C12.2405 15.7838 12.3148 16.0352 12.3223 16.254C12.3302 16.4863 12.2698 16.7592 12.1489 17.0239L11.785 16.8576C11.8858 16.6371 11.928 16.4258 11.9225 16.2676C11.9167 16.0959 11.8618 16.0505 11.847 16.0438L12.0132 15.6799ZM10.9085 16.4572C11.0294 16.1925 11.1961 15.9682 11.3769 15.8221C11.5472 15.6845 11.7859 15.5761 12.0132 15.6799L11.847 16.0438C11.8322 16.037 11.762 16.0252 11.6283 16.1332C11.5052 16.2327 11.3731 16.4028 11.2723 16.6234L10.9085 16.4572ZM8.86554 21.8922C8.76477 22.1128 8.72262 22.324 8.72803 22.4822C8.73389 22.6539 8.78882 22.6993 8.80358 22.706L8.63737 23.0699C8.41008 22.966 8.33573 22.7146 8.32826 22.4959C8.32033 22.2636 8.38078 21.9907 8.5017 21.726L8.86554 21.8922ZM9.44019 21.3125C9.42543 21.3058 9.35515 21.294 9.22152 21.402C9.09841 21.5014 8.96631 21.6716 8.86554 21.8922L8.5017 21.726C8.62263 21.4613 8.78934 21.2369 8.97013 21.0908C9.14041 20.9532 9.37912 20.8449 9.60641 20.9487L9.44019 21.3125ZM9.37824 22.1264C9.47901 21.9058 9.52115 21.6946 9.51575 21.5364C9.50988 21.3647 9.45496 21.3193 9.44019 21.3125L9.60641 20.9487C9.83369 21.0525 9.90804 21.3039 9.91551 21.5227C9.92345 21.755 9.86299 22.0279 9.74207 22.2926L9.37824 22.1264ZM8.80358 22.706C8.81835 22.7128 8.88862 22.7246 9.02225 22.6166C9.14536 22.5171 9.27747 22.347 9.37824 22.1264L9.74207 22.2926C9.62115 22.5573 9.45444 22.7817 9.27364 22.9277C9.10337 23.0653 8.86465 23.1737 8.63737 23.0699L8.80358 22.706ZM14.5573 19.4057C14.33 19.3018 14.2557 19.0504 14.2482 18.8316C14.2403 18.5993 14.3007 18.3264 14.4216 18.0617L14.7855 18.228C14.6847 18.4485 14.6426 18.6598 14.648 18.818C14.6538 18.9897 14.7088 19.0351 14.7235 19.0418L14.5573 19.4057ZM15.662 18.6284C15.5411 18.8931 15.3744 19.1174 15.1936 19.2635C15.0233 19.4011 14.7846 19.5095 14.5573 19.4057L14.7235 19.0418C14.7383 19.0486 14.8086 19.0604 14.9422 18.9524C15.0653 18.8529 15.1974 18.6828 15.2982 18.4622L15.662 18.6284ZM15.5263 17.2845C15.7536 17.3883 15.828 17.6397 15.8355 17.8585C15.8434 18.0908 15.7829 18.3637 15.662 18.6284L15.2982 18.4622C15.399 18.2416 15.4411 18.0303 15.4357 17.8721C15.4298 17.7004 15.3749 17.655 15.3601 17.6483L15.5263 17.2845ZM14.4216 18.0617C14.5426 17.797 14.7093 17.5727 14.8901 17.4266C15.0603 17.289 15.2991 17.1806 15.5263 17.2845L15.3601 17.6483C15.3454 17.6416 15.2751 17.6298 15.1415 17.7377C15.0184 17.8372 14.8862 18.0074 14.7855 18.228L14.4216 18.0617Z" fill="white"/>
</svg>
