<svg width="26" height="24" viewBox="0 0 26 24" fill="none" xmlns="http://www.w3.org/2000/svg">
<path d="M24.9938 12.8656V12.824C24.9912 12.7975 24.9856 12.7715 24.9771 12.7463C24.9784 12.7371 24.9784 12.7278 24.9771 12.7186C24.9661 12.6836 24.9493 12.6508 24.9272 12.6215C24.9272 12.6215 24.9272 12.6215 24.9272 12.6021C24.912 12.5823 24.8954 12.5638 24.8773 12.5466L20.107 8.31438C20.0512 8.26497 19.9833 8.23125 19.9102 8.21663C19.8371 8.20201 19.7615 8.20703 19.691 8.23118L18.3043 8.7193L17.0119 3.02823V3.00327C17.0132 2.9978 17.0132 2.9921 17.0119 2.98663C17.0119 2.98663 17.0119 2.98663 17.0119 2.97277C17.0034 2.95074 16.9932 2.92941 16.9814 2.90898C16.9804 2.90254 16.9804 2.896 16.9814 2.88956C16.9461 2.83749 16.8996 2.79391 16.8455 2.76199H16.826C16.8049 2.7504 16.7826 2.7411 16.7595 2.73425H16.7456L10.4832 1.01473C10.4128 0.995485 10.3386 0.995091 10.268 1.01359C10.1975 1.03209 10.133 1.06883 10.0811 1.12012L5.26641 5.87931C5.24918 5.89843 5.23342 5.91883 5.21926 5.94033C5.21361 5.94803 5.20895 5.95642 5.2054 5.96529C5.19381 5.98643 5.18451 6.00874 5.17766 6.03185C5.17649 6.04013 5.17649 6.04853 5.17766 6.05681C5.16921 6.08766 5.16363 6.11923 5.16102 6.15111C5.15964 6.17512 5.15964 6.1992 5.16102 6.22322L5.73789 9.6373C5.74453 9.66098 5.75288 9.68416 5.76286 9.70664L1.1978 12.7574C1.18522 12.7669 1.17318 12.7771 1.16175 12.7879L1.12292 12.8212L1.07022 12.8878C1.0585 12.9014 1.04827 12.9163 1.03972 12.9321C1.0316 12.9471 1.02509 12.9629 1.0203 12.9793C1.01264 12.9954 1.00615 13.0121 1.00089 13.0292C1.00089 13.0458 1.00089 13.0653 1.00089 13.0819C0.999704 13.0967 0.999704 13.1115 1.00089 13.1263V19.5717C1.00062 19.6511 1.02323 19.7289 1.06602 19.7958C1.10881 19.8627 1.16997 19.9158 1.24218 19.9489L7.54617 22.8887L7.60163 22.9081H7.62937C7.65982 22.9109 7.69045 22.9109 7.72089 22.9081C7.76327 22.9085 7.80542 22.9019 7.8457 22.8887L7.88452 22.8721L7.94554 22.8443L13.1901 18.9366L16.7373 22.004C16.7646 22.0243 16.7945 22.0411 16.826 22.0539C16.8821 22.0852 16.9449 22.1024 17.0091 22.1038V22.1038C17.0368 22.1066 17.0646 22.1066 17.0923 22.1038H17.12C17.1371 22.0995 17.1537 22.094 17.1699 22.0872L23.2715 19.5273C23.3301 19.502 23.3824 19.464 23.4246 19.416C23.4668 19.3681 23.4979 19.3114 23.5155 19.25L24.9993 12.9765V12.9349C25.0002 12.9285 25.0002 12.9219 24.9993 12.9155C24.9989 12.8987 24.997 12.882 24.9938 12.8656V12.8656ZM16.765 20.9307L13.6172 18.2072L13.4147 12.1889L13.5728 11.6619L17.9881 15.9219L16.765 20.9307ZM19.7354 9.09926L23.8373 12.7519L18.5428 15.2923L14.1469 11.0573L19.7354 9.09926ZM13.3981 10.4388L13.0431 8.56121L16.3989 4.09046L17.5083 8.99664L13.3981 10.4388ZM10.4999 1.88004L15.9053 3.36659L12.4413 7.97047L6.33973 5.99025L10.4999 1.88004ZM6.0818 6.78068L12.236 8.77754L12.6964 11.1987C12.7097 11.2669 12.7414 11.3302 12.7879 11.3818L12.7408 11.5426L7.37144 8.89125C7.30564 8.85941 7.2327 8.84522 7.15977 8.85009C7.08683 8.85495 7.01641 8.87869 6.95543 8.91898L6.49504 9.22683L6.0818 6.78068ZM7.2189 9.74546L12.236 12.2221L7.6682 15.994L6.45344 15.345L2.22119 13.0874L7.2189 9.74546ZM1.83014 13.8196L6.12617 16.1243L7.30211 16.7511V21.8598L1.83014 19.3082V13.8196ZM8.13413 21.6712V16.679L12.6104 12.9931L12.7852 18.2016L8.13413 21.6712ZM22.739 18.8284L17.6081 20.9861L18.8201 16.08L23.9842 13.6061L22.739 18.8284Z" fill="white" stroke="white" stroke-width="0.25"/>
</svg>
