<svg width="88" height="88" viewBox="0 0 88 88" fill="none" xmlns="http://www.w3.org/2000/svg">
<path fill-rule="evenodd" clip-rule="evenodd" d="M34.2969 68.5492C38.7958 68.5516 43.251 67.6657 47.4068 65.9424C51.5626 64.219 55.3372 61.6921 58.5142 58.5066L58.5289 58.4846L58.5509 58.4699C64.1476 52.8545 67.6244 45.4726 68.3893 37.5815C69.1543 29.6903 67.1599 21.7781 62.746 15.1923C58.332 8.60661 51.7715 3.75472 44.1818 1.46308C36.5921 -0.828558 28.4427 -0.418207 21.1216 2.62424C13.8005 5.66668 7.76057 11.153 4.0305 18.1489C0.300436 25.1447 -0.889036 33.2173 0.664687 40.9916C2.21841 48.766 6.41923 55.7613 12.5516 60.7861C18.684 65.8109 26.3688 68.5543 34.2969 68.5492ZM34.2969 4.86453C40.1102 4.86453 45.793 6.5884 50.6267 9.81813C55.4603 13.0479 59.2277 17.6384 61.4524 23.0093C63.6771 28.3801 64.2591 34.2901 63.125 39.9917C61.9909 45.6934 59.1915 50.9307 55.0808 55.0414C50.9701 59.1521 45.7328 61.9515 40.0311 63.0856C34.3295 64.2197 28.4195 63.6376 23.0487 61.413C17.6778 59.1883 13.0873 55.4209 9.85753 50.5873C6.6278 45.7536 4.90393 40.0708 4.90393 34.2575C4.91236 26.4646 8.01182 18.9932 13.5222 13.4828C19.0326 7.97241 26.504 4.87296 34.2969 4.86453ZM34.2981 58.7493C39.1426 58.7493 43.8783 57.3127 47.9063 54.6213C51.9344 51.9298 55.0738 48.1044 56.9277 43.6287C58.7816 39.153 59.2667 34.228 58.3216 29.4766C57.3765 24.7252 55.0436 20.3608 51.6181 16.9352C48.1925 13.5097 43.8281 11.1768 39.0767 10.2317C34.3253 9.28662 29.4004 9.77168 24.9247 11.6256C20.4489 13.4795 16.6235 16.619 13.932 20.647C11.2406 24.675 9.80404 29.4107 9.80404 34.2552C9.81117 40.7492 12.3941 46.9753 16.9861 51.5672C21.5781 56.1592 27.8041 58.7421 34.2981 58.7493ZM34.2981 14.6599C38.1737 14.6599 41.9623 15.8091 45.1847 17.9623C48.4071 20.1155 50.9187 23.1758 52.4018 26.7564C53.8849 30.337 54.273 34.2769 53.5169 38.078C52.7608 41.8791 50.8945 45.3707 48.1541 48.1111C45.4136 50.8516 41.9221 52.7178 38.121 53.4739C34.3199 54.23 30.3799 53.842 26.7993 52.3589C23.2188 50.8757 20.1584 48.3642 18.0053 45.1417C15.8521 41.9193 14.7029 38.1308 14.7029 34.2552C14.7087 29.06 16.7751 24.0792 20.4486 20.4057C24.1222 16.7321 29.1029 14.6657 34.2981 14.6599ZM34.2974 48.9509C37.2041 48.9509 40.0455 48.0889 42.4623 46.4741C44.8791 44.8592 46.7628 42.5639 47.8751 39.8785C48.9875 37.1931 49.2785 34.2381 48.7114 31.3873C48.1444 28.5364 46.7447 25.9178 44.6893 23.8624C42.634 21.8071 40.0153 20.4074 37.1645 19.8403C34.3137 19.2733 31.3587 19.5643 28.6733 20.6766C25.9879 21.789 23.6926 23.6727 22.0777 26.0895C20.4628 28.5063 19.6009 31.3477 19.6009 34.2544C19.6048 38.151 21.1544 41.8868 23.9097 44.6421C26.665 47.3974 30.4008 48.947 34.2974 48.9509ZM34.2974 24.4568C36.2352 24.4568 38.1294 25.0314 39.7406 26.108C41.3519 27.1845 42.6077 28.7147 43.3492 30.505C44.0908 32.2953 44.2848 34.2653 43.9068 36.1658C43.5287 38.0664 42.5956 39.8122 41.2253 41.1824C39.8551 42.5526 38.1094 43.4857 36.2088 43.8638C34.3082 44.2418 32.3383 44.0478 30.548 43.3062C28.7577 42.5647 27.2275 41.3089 26.1509 39.6977C25.0744 38.0865 24.4997 36.1922 24.4997 34.2544C24.4997 31.6559 25.532 29.1638 27.3694 27.3264C29.2068 25.489 31.6989 24.4568 34.2974 24.4568ZM39.1954 34.2608C39.1954 36.9663 37.0022 39.1596 34.2966 39.1596C31.5911 39.1596 29.3978 36.9663 29.3978 34.2608C29.3978 31.5553 31.5911 29.362 34.2966 29.362C37.0022 29.362 39.1954 31.5553 39.1954 34.2608ZM85.543 87.9567C86.1933 87.9567 86.8177 87.7016 87.2821 87.2463C87.741 86.7838 87.9985 86.1587 87.9985 85.5072C87.9985 84.8557 87.741 84.2306 87.2821 83.7681L63.6881 60.1742C63.561 60.3092 63.4339 60.4468 63.306 60.5854C63.0394 60.874 62.7693 61.1665 62.4879 61.4478L61.4837 62.4521C61.2023 62.7335 60.9098 63.0036 60.6212 63.2702C60.4826 63.3981 60.345 63.5252 60.21 63.6523L83.8039 87.2463C84.2682 87.7016 84.8926 87.9567 85.543 87.9567Z" fill="white"/>
</svg>
