<svg width="24" height="24" viewBox="0 0 24 24" fill="none" xmlns="http://www.w3.org/2000/svg">
<path fill-rule="evenodd" clip-rule="evenodd" d="M16.9172 2.00075C16.7479 1.99257 16.5824 2.05167 16.4566 2.16515C16.0522 2.53035 15.7213 2.96471 15.4774 3.4446C15.4501 3.44402 15.4227 3.44377 15.3954 3.44388V3.48314C14.963 3.48318 14.535 3.56878 14.1359 3.735C13.7368 3.90123 13.3746 4.14479 13.07 4.45166C12.6324 4.88853 12.3269 5.44005 12.1888 6.04281C12.1764 6.09664 12.1655 6.15068 12.1559 6.20489L1.23879 8.54399C1.12629 8.54622 1.01433 8.56341 0.9059 8.59528C0.744155 8.64284 0.593501 8.72213 0.46273 8.82853C0.331959 8.93494 0.223691 9.06632 0.144243 9.21502C0.0647958 9.36372 0.015761 9.52675 0 9.6946V9.82112V17.0981H0.00436281C0.00455298 17.4204 0.126467 17.7307 0.345697 17.9669C0.564927 18.2031 0.865292 18.3478 1.18666 18.372L22.4418 21.7662C22.7754 21.8178 23.1159 21.7352 23.3889 21.5366C23.6619 21.338 23.8453 21.0394 23.8989 20.7061C23.9031 20.6407 23.9031 20.5751 23.8989 20.5098V13.0931L23.999 11.6191C24.0067 11.4139 23.9632 11.21 23.8725 11.0258L21.4337 5.35423C21.3286 5.06929 21.1258 4.8309 20.8613 4.68151C20.5969 4.53211 20.288 4.4814 19.9897 4.5384L18.1428 4.93062C18.0428 4.77719 17.9294 4.63148 17.8036 4.49529L17.7207 4.4124C17.4469 4.13429 17.1253 3.90809 16.7718 3.74437C16.9233 3.50895 17.106 3.2931 17.3161 3.10313C17.3777 3.04731 17.4278 2.97988 17.4633 2.9047C17.4989 2.82952 17.5193 2.74807 17.5233 2.665C17.5274 2.58193 17.515 2.49888 17.4869 2.42059C17.4589 2.34231 17.4156 2.27033 17.3597 2.20877C17.2454 2.08371 17.0863 2.00892 16.9172 2.00075ZM15.0813 4.75036C15.0934 4.8529 15.1304 4.95191 15.1902 5.03833C15.2858 5.17641 15.4321 5.27115 15.5972 5.30194C15.7642 5.32994 15.9355 5.29122 16.0742 5.19411C16.1694 5.12748 16.244 5.03703 16.2914 4.93304C16.367 4.97062 16.4404 5.01305 16.5112 5.06017C16.8417 5.28031 17.0998 5.59317 17.2531 5.95948C17.3125 6.10142 17.3552 6.24893 17.3808 6.39907L17.0357 6.42689C17.0251 6.36821 17.0117 6.30992 16.9954 6.2522C16.8968 5.90277 16.6969 5.59041 16.4208 5.35458C16.3669 5.31974 16.3014 5.30753 16.2385 5.32059C16.1757 5.33366 16.1205 5.37094 16.0849 5.42438C16.0498 5.47711 16.0371 5.54154 16.0493 5.60364C16.0616 5.66575 16.0979 5.72049 16.1503 5.75595C16.1534 5.75595 16.4541 5.97198 16.5416 6.46671L13.402 6.71976L13.4021 6.70145C13.4073 6.411 13.4753 6.12403 13.6026 5.86064C13.7675 5.51951 14.0252 5.23175 14.3461 5.03038C14.5714 4.88908 14.8213 4.79432 15.0813 4.75036ZM16.542 6.46896L13.4018 6.72247C13.4012 6.80125 13.4053 6.88025 13.414 6.95907C13.4556 7.33567 13.6025 7.69291 13.8379 7.98982C14.1301 7.98925 14.422 8.0126 14.7104 8.05963C15.4132 8.1519 16.1226 8.18256 16.8307 8.15124C17.1092 7.86815 17.2979 7.50911 17.373 7.11917C17.4189 6.88105 17.4212 6.63788 17.3811 6.4012L17.3808 6.39907V6.40123L17.036 6.42907C17.0887 6.72493 17.0682 7.03019 16.9749 7.3178C16.9682 7.34883 16.9554 7.37822 16.9372 7.40426C16.9191 7.43031 16.8959 7.4525 16.8692 7.46954C16.8424 7.48658 16.8125 7.49814 16.7812 7.50355C16.7499 7.50896 16.7179 7.5081 16.6869 7.50104C16.6257 7.4855 16.5728 7.44683 16.5394 7.39313C16.5061 7.33944 16.4948 7.27491 16.5081 7.2131C16.5772 6.91647 16.5772 6.66981 16.542 6.46896ZM17.3808 6.40123V6.40128L17.3811 6.4012L17.3808 6.40123ZM20.2471 5.7905L18.623 6.13657C18.6589 6.33362 18.6769 6.53479 18.6761 6.73772C18.6723 7.16457 18.5864 7.5867 18.4231 7.9811C18.4129 8.00618 18.4024 8.03112 18.3916 8.0559C18.4738 8.03209 18.5557 8.0069 18.6371 7.98033C18.7934 7.93147 18.9626 7.94469 19.1094 8.01723C19.2562 8.08977 19.3694 8.21607 19.4255 8.3699C19.4817 8.52372 19.4764 8.69327 19.4109 8.84332C19.3453 8.99337 19.2244 9.11241 19.0734 9.17571C18.1879 9.46064 17.2639 9.60778 16.3336 9.61198C15.4619 9.65756 14.589 9.55077 13.7542 9.29652C13.5882 9.28689 13.4253 9.24571 13.2745 9.17501C12.6594 9.05047 12.0255 9.03842 11.4038 9.14081V9.15826C11.321 9.17201 11.2363 9.16932 11.1546 9.15034C11.0728 9.13136 10.9956 9.09647 10.9273 9.04765C10.8591 8.99884 10.8011 8.93705 10.7567 8.86583C10.7123 8.79461 10.6824 8.71534 10.6687 8.63255C10.6549 8.54976 10.6576 8.46508 10.6766 8.38333C10.6956 8.30159 10.7304 8.22438 10.7793 8.15612C10.8281 8.08786 10.8899 8.02988 10.9611 7.98549C11.0323 7.94111 11.1116 7.91119 11.1944 7.89744C11.5528 7.84077 11.9142 7.8142 12.2749 7.81744C12.2413 7.71663 12.2126 7.61453 12.189 7.5115L5.40928 8.95851L22.3512 10.6802L20.2471 5.7905ZM1.39406 9.8155L1.36526 9.82165H1.27827V10.9518H1.29084C2.35534 10.9209 3.39761 11.2601 4.24004 11.9116C5.13944 12.7253 6.37521 12.5762 7.41488 12.4508L7.47281 12.4438C7.82099 12.3889 8.17203 12.3539 8.52422 12.3391C9.21323 12.3508 9.88657 12.5466 10.4744 12.9063C11.1757 13.3366 11.9981 13.5265 12.8171 13.4473C13.9127 13.2551 15.0271 13.1936 16.1371 13.264C17.3386 13.3367 18.4907 13.7683 19.4441 14.503C20.1163 15.0278 21.4307 14.9016 22.6248 14.6258V12.8014L22.625 12.7974V11.985L1.39406 9.8155ZM1.27827 15.0333V12.4438C1.97745 12.4082 2.6671 12.6181 3.22789 13.0372C4.63969 14.3206 6.2193 14.1064 7.58823 13.9207L7.66913 13.9097C7.97786 13.857 8.28976 13.825 8.60275 13.8137C9.03998 13.8667 9.4601 14.0157 9.83303 14.25C10.7996 14.8398 11.9387 15.0814 13.0614 14.9349C14.0362 14.7529 15.0293 14.6885 16.0194 14.743C16.9234 14.7968 17.7901 15.1222 18.5061 15.6766C19.509 16.4667 21.1641 16.4101 22.6248 16.1172V17.5877L1.27827 15.0333ZM1.27827 16.3968V17.0981L22.6248 20.5097V18.955L1.27827 16.3968Z" fill="white"/>
</svg>
