<svg width="24" height="24" viewBox="0 0 24 24" fill="none" xmlns="http://www.w3.org/2000/svg">
<path fill-rule="evenodd" clip-rule="evenodd" d="M5.42319 22.4671C5.36698 22.4671 5.28266 22.439 5.22645 22.4109C5.14213 22.3547 5.08592 22.2141 5.08592 22.1017C5.11402 21.8207 5.08592 21.4553 5.0297 21.0337C4.94539 20.3029 4.86107 19.3754 5.0297 18.1669C5.28266 16.6773 5.81667 15.5249 6.21016 14.9347C5.42319 14.6255 4.29895 13.9229 3.37145 12.9954C2.50016 12.1241 2.05046 11.3371 1.68508 10.6907C1.48834 10.3253 1.2916 10.0161 1.09486 9.79128C1.01054 9.70696 0.982434 9.59454 1.01054 9.48212C1.03865 9.36969 1.15107 9.28537 1.26349 9.25727C1.54455 9.20106 1.88183 9.06052 2.24721 8.89189C2.92175 8.58272 3.76493 8.21734 4.97349 8.0206C6.46311 7.79575 7.72788 7.96439 8.40243 8.13303C8.45864 7.28984 8.76781 5.99697 9.35803 4.84462C9.90608 3.77592 10.5076 3.10797 11.0062 2.55425L11.0062 2.55424L11.0062 2.55424L11.0444 2.51182C11.3255 2.20265 11.5784 1.92159 11.7189 1.66864C11.7752 1.55621 11.8876 1.5 12 1.5C12.1124 1.5 12.2248 1.55621 12.2811 1.66864C12.4216 1.92159 12.6745 2.20265 12.9556 2.51182L12.9938 2.55424L12.9938 2.55425L12.9938 2.55426L12.9938 2.55427C13.4924 3.10799 14.0939 3.77593 14.642 4.84462C15.2884 6.10939 15.5414 7.37416 15.5976 8.13303C16.8623 7.79575 19.2514 7.71143 21.6404 8.86378C22.1182 9.08863 22.5117 9.22916 22.7365 9.28537C22.8489 9.31348 22.9333 9.3978 22.9895 9.51022C23.0176 9.62265 22.9895 9.73507 22.9051 9.81939C22.7604 9.96412 22.6309 10.1849 22.483 10.437C22.4299 10.5276 22.3744 10.6222 22.3149 10.7188C21.9495 11.3652 21.4998 12.1522 20.6286 13.0235C19.5605 14.0915 18.4363 14.6817 17.7898 14.9347C18.2395 15.6373 18.7455 16.874 18.9422 18.1669C19.1359 19.3567 19.0299 20.2741 18.9461 20.9996L18.9422 21.0337C18.886 21.4553 18.8579 21.8207 18.886 22.1017C18.9141 22.2141 18.8579 22.3266 18.7454 22.4109C18.6611 22.4671 18.5206 22.4952 18.4082 22.439C18.1552 22.3266 17.7898 22.2423 17.3683 22.1579C16.6375 22.0174 15.7381 21.8207 14.642 21.2585C13.2086 20.5278 12.3373 19.6284 11.9438 19.1506C10.9882 20.331 9.04887 21.6801 6.63175 22.1298C6.09773 22.2423 5.70425 22.3266 5.4794 22.439C5.53561 22.4671 5.4794 22.4671 5.42319 22.4671ZM1.90993 9.79128C1.95275 9.86621 1.99964 9.94113 2.0475 10.0176C2.12532 10.142 2.2057 10.2704 2.27531 10.4096C2.61258 11.0279 3.06228 11.7868 3.87736 12.5738C4.97349 13.6699 6.26637 14.3445 6.8566 14.4569C6.96902 14.485 7.05334 14.5693 7.08144 14.6817C7.10955 14.7942 7.08144 14.9066 7.02523 14.9909C6.82849 15.2157 6.04152 16.4243 5.73235 18.2793C5.56372 19.4035 5.64804 20.2748 5.73235 20.9775C5.76046 21.2304 5.78857 21.4834 5.78857 21.6801C5.84927 21.665 5.91407 21.6477 5.98241 21.6296L5.98247 21.6296C6.16726 21.5804 6.37796 21.5244 6.60364 21.4834C9.07697 21.0056 11.0163 19.5722 11.747 18.4479V18.4198C11.8033 18.3074 11.9157 18.2512 12.0281 18.2512C12.1405 18.2512 12.253 18.3074 12.3092 18.4198V18.4479C12.3092 18.4479 13.1523 19.7127 15.0073 20.6683C16.0192 21.1742 16.8905 21.371 17.565 21.5115C17.818 21.5677 18.0428 21.6239 18.2676 21.6801C18.2676 21.478 18.2904 21.2758 18.3154 21.0533L18.3239 20.9775C18.4082 20.2748 18.4925 19.4035 18.3239 18.2793C18.0709 16.7616 17.3964 15.4125 17.031 14.9909C16.9467 14.9066 16.9186 14.7942 16.9748 14.6817C17.0029 14.5693 17.0872 14.485 17.1996 14.4569C17.4807 14.4007 18.8579 13.8667 20.1789 12.5738C20.9002 11.8524 21.3134 11.175 21.6522 10.6196C21.6962 10.5475 21.7389 10.4775 21.7809 10.4096C21.9214 10.1848 22.0338 9.98812 22.1462 9.79143L22.1462 9.79135L22.1463 9.79128C21.9214 9.70696 21.6685 9.59454 21.3593 9.45401C18.7173 8.21734 16.1878 8.52651 15.4008 8.89189C15.2884 8.9481 15.176 8.91999 15.0917 8.86378C15.0073 8.80757 14.9511 8.69515 14.9511 8.58272C15.0073 8.13303 14.8387 6.69962 14.0798 5.18189C13.588 4.1982 13.0165 3.55985 12.546 3.03442L12.5059 2.98962C12.4251 2.89534 12.3443 2.80751 12.2666 2.72305L12.2666 2.72304C12.1821 2.63125 12.1013 2.54343 12.0281 2.45561C11.9549 2.54342 11.8741 2.63124 11.7897 2.72303L11.7896 2.72305C11.7119 2.80752 11.6311 2.89534 11.5503 2.98962L11.5102 3.03441C11.0398 3.55985 10.4682 4.1982 9.97637 5.18189C9.27372 6.55909 9.04887 8.0206 9.10508 8.58272C9.10508 8.69515 9.07697 8.80757 8.96455 8.86378C8.88023 8.91999 8.7397 8.9481 8.65538 8.89189C8.37432 8.77946 6.99713 8.38598 5.14213 8.66704C4.08805 8.82515 3.33046 9.15621 2.7072 9.42857L2.7072 9.42858L2.58448 9.48212C2.4659 9.53481 2.35351 9.58751 2.24728 9.63732L2.24723 9.63735L2.24721 9.63735L2.2472 9.63736C2.12685 9.69379 2.01443 9.7465 1.90993 9.79128ZM12.1132 17.0298C11.1014 17.0298 10.2582 16.2709 10.1458 15.2872C9.33068 15.0342 8.76855 14.2754 8.76855 13.4041C8.76855 13.2355 8.90909 13.0949 9.07772 13.0949C9.24636 13.0949 9.38689 13.2355 9.38689 13.4041C9.38689 14.0505 9.83659 14.6126 10.483 14.7251C10.6517 14.7532 10.7641 14.8937 10.736 15.0623C10.736 15.8212 11.3262 16.4114 12.057 16.4114C12.7877 16.4114 13.3779 15.8212 13.3779 15.0905V15.0342C13.3779 14.8937 13.4623 14.7532 13.6028 14.7251C14.193 14.5564 14.5865 14.0505 14.5865 13.4322C14.5865 13.2636 14.727 13.123 14.8957 13.123C15.0643 13.123 15.2048 13.2636 15.2048 13.4322C15.2048 14.2473 14.6989 14.9499 13.9682 15.2591C13.9963 16.2428 13.1531 17.0298 12.1132 17.0298ZM11.7461 12.5697C11.7461 12.7383 11.8866 12.8788 12.0553 12.8788C12.2239 12.8788 12.3644 12.7102 12.3644 12.5416V9.30936C12.3644 9.14073 12.2239 9.0002 12.0553 9.0002C11.8866 9.0002 11.7461 9.14073 11.7461 9.30936V12.5697ZM10.2295 12.7946C10.0889 12.7946 9.97652 12.7103 9.92031 12.5979L9.10523 10.4899C9.04902 10.3213 9.13334 10.1245 9.30198 10.0683C9.47061 10.0121 9.66735 10.0964 9.72357 10.2651L10.5386 12.373C10.5949 12.5416 10.5105 12.7384 10.3419 12.7946H10.2295ZM13.6574 12.7653C13.6856 12.7934 13.7418 12.7934 13.7699 12.7934C13.8823 12.7934 14.0228 12.7091 14.079 12.5686L14.8941 10.4606C14.9503 10.292 14.866 10.0952 14.6974 10.039C14.5287 9.98281 14.332 10.0671 14.2758 10.2358L13.4607 12.3437C13.4045 12.5124 13.4888 12.7091 13.6574 12.7653Z" fill="white"/>
<path d="M5.22645 22.4109L5.08777 22.6189L5.10072 22.6275L5.11465 22.6345L5.22645 22.4109ZM5.08592 22.1017L4.83716 22.0769L4.83592 22.0893V22.1017H5.08592ZM5.0297 21.0337L4.78131 21.0624L4.7819 21.0667L5.0297 21.0337ZM5.0297 18.1669L4.78312 18.125L4.7821 18.1323L5.0297 18.1669ZM6.21016 14.9347L6.41817 15.0734L6.59016 14.8154L6.30157 14.702L6.21016 14.9347ZM3.37145 12.9954L3.19467 13.1721L3.19467 13.1721L3.37145 12.9954ZM1.68508 10.6907L1.46492 10.8092L1.46744 10.8137L1.68508 10.6907ZM1.09486 9.79128L1.283 9.62666L1.27752 9.62039L1.27163 9.61451L1.09486 9.79128ZM1.01054 9.48212L0.768004 9.42148L1.01054 9.48212ZM1.26349 9.25727L1.21441 9.01184L1.20286 9.01473L1.26349 9.25727ZM2.24721 8.89189L2.14304 8.66462L2.14244 8.6649L2.24721 8.89189ZM4.97349 8.0206L4.93618 7.77338L4.93332 7.77385L4.97349 8.0206ZM8.40243 8.13303L8.34179 8.37556L8.63198 8.44811L8.65187 8.14966L8.40243 8.13303ZM9.35803 4.84462L9.13558 4.73054L9.13552 4.73065L9.35803 4.84462ZM11.0062 2.55425L10.8292 2.37723L10.8204 2.38696L11.0062 2.55425ZM11.0062 2.55424L10.8351 2.37176L10.8294 2.37746L11.0062 2.55424ZM11.0062 2.55424L11.1772 2.73662L11.1849 2.72938L11.192 2.72151L11.0062 2.55424ZM11.0444 2.51182L10.8594 2.34365L10.8586 2.34454L11.0444 2.51182ZM11.7189 1.66864L11.9377 1.79016L11.9425 1.78044L11.7189 1.66864ZM12.2811 1.66864L12.0572 1.78055L12.0625 1.79005L12.2811 1.66864ZM12.9556 2.51182L13.1414 2.34454L13.1406 2.34365L12.9556 2.51182ZM12.9938 2.55424L12.8078 2.72175L12.817 2.73102L12.9938 2.55424ZM12.9938 2.55425L13.1777 2.38454L13.1706 2.37747L12.9938 2.55425ZM12.9938 2.55426L12.81 2.72396L12.817 2.73103L12.9938 2.55426ZM12.9938 2.55427L13.1799 2.38675L13.1706 2.37749L12.9938 2.55427ZM14.642 4.84462L14.8646 4.73084L14.8644 4.73054L14.642 4.84462ZM15.5976 8.13303L15.3483 8.15149L15.3705 8.4523L15.662 8.37458L15.5976 8.13303ZM21.6404 8.86378L21.5318 9.08897L21.5339 9.08999L21.6404 8.86378ZM22.7365 9.28537L22.7971 9.04284L22.7971 9.04284L22.7365 9.28537ZM22.9895 9.51022L23.232 9.44959L23.2253 9.42297L23.2131 9.39842L22.9895 9.51022ZM22.9051 9.81939L22.7284 9.64261L22.7284 9.64261L22.9051 9.81939ZM22.483 10.437L22.2674 10.3105L22.2674 10.3105L22.483 10.437ZM22.3149 10.7188L22.1019 10.5877L22.0973 10.5958L22.3149 10.7188ZM20.6286 13.0235L20.4518 12.8467L20.4518 12.8467L20.6286 13.0235ZM17.7898 14.9347L17.6987 14.7019L17.4151 14.8129L17.5793 15.0694L17.7898 14.9347ZM18.9422 18.1669L18.695 18.2045L18.6954 18.207L18.9422 18.1669ZM18.9461 20.9996L18.6978 20.9709L18.6978 20.9709L18.9461 20.9996ZM18.9422 21.0337L19.19 21.0667L19.1905 21.0624L18.9422 21.0337ZM18.886 22.1017L18.6372 22.1266L18.639 22.1447L18.6434 22.1624L18.886 22.1017ZM18.7454 22.4109L18.8843 22.6192L18.8954 22.6109L18.7454 22.4109ZM18.4082 22.439L18.5201 22.2152L18.5097 22.2105L18.4082 22.439ZM17.3683 22.1579L17.4173 21.9128L17.4155 21.9124L17.3683 22.1579ZM14.642 21.2585L14.756 21.0361L14.7555 21.0358L14.642 21.2585ZM11.9438 19.1506L12.1368 18.9917L11.9421 18.7553L11.7495 18.9933L11.9438 19.1506ZM6.63175 22.1298L6.58601 21.884L6.58024 21.8852L6.63175 22.1298ZM5.4794 22.439L5.3676 22.2154L4.92039 22.439L5.36759 22.6626L5.4794 22.439ZM2.0475 10.0176L1.83558 10.1502L1.83558 10.1502L2.0475 10.0176ZM1.90993 9.79128L1.81145 9.5615L1.55379 9.67192L1.69287 9.91532L1.90993 9.79128ZM2.27531 10.4096L2.05156 10.5215L2.05584 10.5293L2.27531 10.4096ZM3.87736 12.5738L4.05416 12.397L4.051 12.3939L3.87736 12.5738ZM6.8566 14.4569L6.91723 14.2143L6.91035 14.2126L6.90337 14.2113L6.8566 14.4569ZM7.08144 14.6817L7.32398 14.6211L7.32398 14.6211L7.08144 14.6817ZM7.02523 14.9909L7.21338 15.1555L7.22416 15.1432L7.23325 15.1296L7.02523 14.9909ZM5.73235 18.2793L5.48572 18.2382L5.48512 18.2422L5.73235 18.2793ZM5.73235 20.9775L5.98083 20.9499L5.98057 20.9477L5.73235 20.9775ZM5.78857 21.6801H5.53857V22.0003L5.8492 21.9227L5.78857 21.6801ZM5.98241 21.6296L5.92952 21.3849L5.91819 21.388L5.98241 21.6296ZM5.98247 21.6296L6.03536 21.8742L6.04669 21.8712L5.98247 21.6296ZM6.60364 21.4834L6.64837 21.7294L6.65106 21.7289L6.60364 21.4834ZM11.747 18.4479L11.9567 18.5842L11.997 18.5221V18.4479H11.747ZM11.747 18.4198L11.5234 18.308L11.497 18.3608V18.4198H11.747ZM12.3092 18.4198H12.5592V18.3608L12.5328 18.308L12.3092 18.4198ZM12.3092 18.4479H12.0592V18.5236L12.1012 18.5866L12.3092 18.4479ZM15.0073 20.6683L14.8928 20.8906L14.8955 20.8919L15.0073 20.6683ZM17.565 21.5115L17.6192 21.2674L17.616 21.2668L17.565 21.5115ZM18.2676 21.6801L18.207 21.9227L18.5176 22.0003V21.6801H18.2676ZM18.3154 21.0533L18.5638 21.0812L18.5638 21.0811L18.3154 21.0533ZM18.3239 20.9775L18.0756 20.9477L18.0754 20.9497L18.3239 20.9775ZM18.3239 18.2793L18.5711 18.2422L18.5705 18.2382L18.3239 18.2793ZM17.031 14.9909L17.2199 14.8272L17.2141 14.8204L17.2078 14.8141L17.031 14.9909ZM16.9748 14.6817L17.1984 14.7935L17.2106 14.769L17.2173 14.7424L16.9748 14.6817ZM17.1996 14.4569L17.1505 14.2115L17.139 14.2143L17.1996 14.4569ZM20.1789 12.5738L20.3537 12.7525L20.3556 12.7506L20.1789 12.5738ZM21.6522 10.6196L21.8656 10.7498L21.8656 10.7498L21.6522 10.6196ZM21.7809 10.4096L21.5689 10.2771L21.5683 10.278L21.7809 10.4096ZM22.1462 9.79135L21.9326 9.66131L21.9292 9.66731L22.1462 9.79135ZM22.1463 9.79128L22.3598 9.92127L22.5169 9.66326L22.2341 9.5572L22.1463 9.79128ZM21.3593 9.45401L21.2533 9.68045L21.2559 9.6816L21.3593 9.45401ZM15.4008 8.89189L15.2955 8.66504L15.289 8.66828L15.4008 8.89189ZM15.0917 8.86378L15.2303 8.65577L15.2303 8.65577L15.0917 8.86378ZM14.9511 8.58272L14.7031 8.55171L14.7011 8.56716V8.58272H14.9511ZM14.0798 5.18189L14.3035 5.07009L14.3035 5.07009L14.0798 5.18189ZM12.546 3.03442L12.3597 3.20116L12.3598 3.20118L12.546 3.03442ZM12.5059 2.98962L12.3161 3.15236L12.3196 3.15636L12.5059 2.98962ZM12.2666 2.72305L12.0797 2.88917L12.0826 2.89233L12.2666 2.72305ZM12.2666 2.72304L12.4534 2.55692L12.4505 2.55376L12.2666 2.72304ZM12.0281 2.45561L12.2202 2.29556L12.0281 2.06509L11.8361 2.29556L12.0281 2.45561ZM11.7897 2.72303L11.6057 2.55374L11.604 2.55564L11.7897 2.72303ZM11.7896 2.72305L11.9736 2.89234L11.9753 2.89044L11.7896 2.72305ZM11.5503 2.98962L11.7366 3.1564L11.7401 3.15232L11.5503 2.98962ZM11.5102 3.03441L11.6965 3.20118L11.6965 3.20115L11.5102 3.03441ZM9.97637 5.18189L10.1991 5.29551L10.2 5.29369L9.97637 5.18189ZM9.10508 8.58272H9.35508V8.57025L9.35384 8.55785L9.10508 8.58272ZM8.96455 8.86378L8.85275 8.64018L8.83882 8.64714L8.82587 8.65577L8.96455 8.86378ZM8.65538 8.89189L8.79406 8.68388L8.7724 8.66944L8.74823 8.65977L8.65538 8.89189ZM5.14213 8.66704L5.17921 8.91428L5.17958 8.91422L5.14213 8.66704ZM2.7072 9.42857L2.60709 9.19949L2.59481 9.20486L2.58317 9.21151L2.7072 9.42857ZM2.7072 9.42858L2.80716 9.65772L2.81952 9.65233L2.83123 9.64564L2.7072 9.42858ZM2.58448 9.48212L2.48451 9.25297L2.48294 9.25366L2.58448 9.48212ZM2.24728 9.63732L2.34989 9.86533L2.35342 9.86367L2.24728 9.63732ZM2.24723 9.63735L2.34722 9.8665L2.34982 9.86533L2.24723 9.63735ZM2.24721 9.63735L2.14722 9.40822L2.13487 9.41361L2.12317 9.42029L2.24721 9.63735ZM2.2472 9.63736L2.35333 9.86371L2.36247 9.85943L2.37123 9.85442L2.2472 9.63736ZM10.1458 15.2872L10.3941 15.2588L10.3756 15.0968L10.2199 15.0484L10.1458 15.2872ZM10.483 14.7251L10.4402 14.9714L10.4419 14.9717L10.483 14.7251ZM10.736 15.0623L10.4894 15.0212L10.486 15.0417V15.0623H10.736ZM13.6028 14.7251L13.6518 14.9702L13.6617 14.9682L13.6715 14.9655L13.6028 14.7251ZM13.9682 15.2591L13.8708 15.0288L13.7134 15.0954L13.7183 15.2662L13.9682 15.2591ZM9.92031 12.5979L9.68713 12.688L9.6914 12.6991L9.6967 12.7097L9.92031 12.5979ZM9.10523 10.4899L8.8678 10.5691L8.87206 10.5801L9.10523 10.4899ZM9.30198 10.0683L9.22292 9.83115L9.22292 9.83115L9.30198 10.0683ZM9.72357 10.2651L9.48613 10.3442L9.49039 10.3552L9.72357 10.2651ZM10.5386 12.373L10.7761 12.2939L10.7718 12.2829L10.5386 12.373ZM10.3419 12.7946V13.0446H10.3825L10.421 13.0318L10.3419 12.7946ZM13.6574 12.7653L13.8342 12.5885L13.7925 12.5468L13.7365 12.5281L13.6574 12.7653ZM14.079 12.5686L14.3112 12.6614L14.3122 12.6587L14.079 12.5686ZM14.8941 10.4606L15.1275 10.5509L15.1313 10.5397L14.8941 10.4606ZM14.6974 10.039L14.7764 9.80185L14.7764 9.80185L14.6974 10.039ZM14.2758 10.2358L14.5092 10.326L14.5129 10.3148L14.2758 10.2358ZM13.4607 12.3437L13.2273 12.2535L13.2235 12.2647L13.4607 12.3437ZM5.11465 22.6345C5.185 22.6697 5.31033 22.7171 5.42319 22.7171V22.2171C5.4287 22.2171 5.4287 22.2177 5.42193 22.2164C5.41582 22.2153 5.40723 22.2133 5.39665 22.2101C5.37476 22.2035 5.35304 22.1947 5.33824 22.1873L5.11465 22.6345ZM4.83592 22.1017C4.83592 22.196 4.85863 22.2933 4.89552 22.3776C4.93107 22.4589 4.9916 22.5548 5.08777 22.6189L5.36512 22.2029C5.3727 22.2079 5.37313 22.2103 5.36892 22.2047C5.36498 22.1994 5.35933 22.1903 5.3536 22.1772C5.3413 22.1491 5.33592 22.1198 5.33592 22.1017H4.83592ZM4.7819 21.0667C4.83776 21.4858 4.86218 21.8266 4.83716 22.0769L5.33467 22.1266C5.36587 21.8147 5.33407 21.4248 5.27751 21.0007L4.7819 21.0667ZM4.7821 18.1323C4.60917 19.3717 4.6961 20.3235 4.78135 21.0624L5.27806 21.005C5.19467 20.2824 5.11296 19.3792 5.2773 18.2014L4.7821 18.1323ZM6.00214 14.796C5.58818 15.417 5.04175 16.6026 4.78323 18.125L5.27617 18.2087C5.52356 16.7519 6.04516 15.6329 6.41817 15.0734L6.00214 14.796ZM3.19467 13.1721C4.14448 14.122 5.29725 14.8446 6.11874 15.1674L6.30157 14.702C5.54913 14.4064 4.45341 13.7238 3.54822 12.8186L3.19467 13.1721ZM1.46744 10.8137C1.8352 11.4643 2.29841 12.2759 3.19467 13.1721L3.54822 12.8186C2.70191 11.9723 2.26572 11.2099 1.90273 10.5677L1.46744 10.8137ZM0.906714 9.95591C1.08549 10.1602 1.27188 10.4506 1.46497 10.8092L1.9052 10.5721C1.70481 10.2 1.49771 9.87204 1.283 9.62666L0.906714 9.95591ZM0.768004 9.42148C0.7195 9.6155 0.769088 9.81907 0.918081 9.96806L1.27163 9.61451C1.25199 9.59486 1.24537 9.57358 1.25308 9.54275L0.768004 9.42148ZM1.20286 9.01473C1.03435 9.05686 0.82579 9.19034 0.768004 9.42148L1.25308 9.54275C1.25158 9.54873 1.25121 9.54218 1.26688 9.52892C1.28245 9.51575 1.3039 9.50486 1.32413 9.4998L1.20286 9.01473ZM2.14244 8.6649C1.77604 8.83401 1.46317 8.96238 1.21447 9.01212L1.31252 9.50241C1.62593 9.43973 1.98761 9.28704 2.35197 9.11888L2.14244 8.6649ZM4.93332 7.77385C3.69183 7.97595 2.82472 8.35219 2.14304 8.66462L2.35137 9.11915C3.01878 8.81326 3.83803 8.45873 5.01366 8.26735L4.93332 7.77385ZM8.46306 7.89049C7.76065 7.71489 6.46242 7.54303 4.93618 7.7734L5.0108 8.2678C6.4638 8.04848 7.69512 8.21389 8.34179 8.37556L8.46306 7.89049ZM9.13552 4.73065C8.5297 5.91345 8.21144 7.23948 8.15298 8.1164L8.65187 8.14966C8.70584 7.34021 9.00592 6.08048 9.58054 4.95859L9.13552 4.73065ZM10.8204 2.38696C10.3197 2.94301 9.69938 3.63113 9.13558 4.73054L9.58049 4.9587C10.1128 3.92071 10.6954 3.27293 11.192 2.72154L10.8204 2.38696ZM10.8294 2.37746L10.8294 2.37747L11.183 2.73102L11.183 2.73102L10.8294 2.37746ZM10.8352 2.37185L10.8352 2.37186L11.1772 2.73663L11.1772 2.73662L10.8352 2.37185ZM10.8586 2.34454L10.8204 2.38696L11.192 2.72151L11.2302 2.67909L10.8586 2.34454ZM11.5004 1.54723C11.377 1.76935 11.1471 2.02716 10.8594 2.34365L11.2294 2.67999C11.5038 2.37814 11.7798 2.07383 11.9375 1.79005L11.5004 1.54723ZM12 1.25C11.8067 1.25 11.5998 1.34799 11.4953 1.55683L11.9425 1.78044C11.9476 1.77037 11.9541 1.76397 11.9624 1.75922C11.9718 1.75388 11.9848 1.75 12 1.75V1.25ZM12.5047 1.55683C12.4002 1.34798 12.1933 1.25 12 1.25V1.75C12.0152 1.75 12.0282 1.75388 12.0376 1.75922C12.0459 1.76397 12.0524 1.77037 12.0575 1.78044L12.5047 1.55683ZM13.1406 2.34365C12.8529 2.02716 12.623 1.76935 12.4996 1.54723L12.0625 1.79005C12.2202 2.07383 12.4962 2.37814 12.7706 2.67999L13.1406 2.34365ZM13.1796 2.38696L13.1414 2.34454L12.7698 2.67909L12.808 2.72152L13.1796 2.38696ZM13.1706 2.37747L13.1706 2.37746L12.817 2.73102L12.817 2.73103L13.1706 2.37747ZM13.1775 2.38469L13.1775 2.38468L12.8101 2.72382L12.8101 2.72383L13.1775 2.38469ZM13.1706 2.37749L13.1706 2.37748L12.817 2.73103L12.8171 2.73104L13.1706 2.37749ZM14.8644 4.73054C14.3006 3.63115 13.6803 2.94303 13.1796 2.38697L12.808 2.72156C13.3046 3.27295 13.8872 3.92072 14.4195 4.9587L14.8644 4.73054ZM15.8469 8.11456C15.7886 7.32729 15.5282 6.02931 14.8646 4.73084L14.4194 4.9584C15.0486 6.18947 15.2941 7.42103 15.3483 8.15149L15.8469 8.11456ZM21.749 8.63861C19.3005 7.45758 16.8494 7.54047 15.5332 7.89147L15.662 8.37458C16.8753 8.05104 19.2022 7.96529 21.5318 9.08896L21.749 8.63861ZM22.7971 9.04284C22.5935 8.99192 22.216 8.85838 21.7468 8.63758L21.5339 9.08999C22.0203 9.31888 22.4298 9.4664 22.6759 9.52791L22.7971 9.04284ZM23.2131 9.39842C23.1358 9.24387 23.0021 9.09408 22.7971 9.04284L22.6759 9.52791C22.6957 9.53287 22.7307 9.55172 22.7659 9.62202L23.2131 9.39842ZM23.0819 9.99617C23.2309 9.84717 23.2805 9.6436 23.232 9.44959L22.7469 9.57085C22.7546 9.60169 22.748 9.62297 22.7284 9.64261L23.0819 9.99617ZM22.6986 10.5635C22.8525 10.3012 22.9649 10.1132 23.0819 9.99616L22.7284 9.64261C22.5559 9.81507 22.4093 10.0686 22.2674 10.3105L22.6986 10.5635ZM22.5278 10.8498C22.5889 10.7506 22.6457 10.6538 22.6986 10.5635L22.2674 10.3105C22.2141 10.4014 22.1598 10.4938 22.102 10.5878L22.5278 10.8498ZM20.8053 13.2003C21.7016 12.304 22.1648 11.4924 22.5326 10.8418L22.0973 10.5958C21.7343 11.238 21.2981 12.0004 20.4518 12.8467L20.8053 13.2003ZM17.8809 15.1675C18.5542 14.9041 19.7092 14.2964 20.8053 13.2003L20.4518 12.8467C19.4119 13.8866 18.3184 14.4594 17.6987 14.7019L17.8809 15.1675ZM19.1893 18.1293C18.9876 16.8035 18.4698 15.5334 18.0004 14.7999L17.5793 15.0694C18.0092 15.7413 18.5033 16.9446 18.695 18.2045L19.1893 18.1293ZM19.1945 21.0282C19.2786 20.2998 19.3886 19.353 19.1889 18.1267L18.6954 18.207C18.8832 19.3604 18.7812 20.2484 18.6978 20.9709L19.1945 21.0282ZM19.1905 21.0624L19.1945 21.0282L18.6978 20.9709L18.6938 21.005L19.1905 21.0624ZM19.1347 22.0769C19.1097 21.8266 19.1341 21.4858 19.19 21.0667L18.6944 21.0007C18.6378 21.4248 18.606 21.8147 18.6372 22.1266L19.1347 22.0769ZM18.8954 22.6109C19.0556 22.4908 19.1896 22.2854 19.1285 22.0411L18.6434 22.1624C18.6432 22.1614 18.643 22.1597 18.6432 22.158C18.6434 22.1565 18.6436 22.1575 18.6419 22.1611C18.6381 22.1691 18.626 22.1879 18.5954 22.2109L18.8954 22.6109ZM18.2964 22.6626C18.5071 22.768 18.7436 22.7126 18.8841 22.6189L18.6068 22.2029C18.5992 22.2079 18.5809 22.2161 18.5581 22.2188C18.5362 22.2214 18.5239 22.2174 18.52 22.2154L18.2964 22.6626ZM17.3192 22.4031C17.7446 22.4882 18.0829 22.568 18.3066 22.6675L18.5097 22.2105C18.2275 22.0851 17.8351 21.9964 17.4173 21.9128L17.3192 22.4031ZM14.5279 21.481C15.6551 22.059 16.5814 22.2612 17.321 22.4034L17.4155 21.9124C16.6936 21.7736 15.8212 21.5823 14.756 21.0361L14.5279 21.481ZM11.7508 19.3095C12.1607 19.8073 13.0577 20.7315 14.5284 21.4813L14.7555 21.0358C13.3594 20.3241 12.5138 19.4495 12.1368 18.9917L11.7508 19.3095ZM6.67747 22.3756C9.15343 21.915 11.1453 20.5343 12.1381 19.3079L11.7495 18.9933C10.8311 20.1278 8.9443 21.4453 6.58602 21.8841L6.67747 22.3756ZM5.5912 22.6626C5.67856 22.6189 5.81158 22.575 6.00131 22.5267C6.1885 22.479 6.41496 22.431 6.68325 22.3745L6.58024 21.8852C6.31452 21.9411 6.07723 21.9914 5.87797 22.0421C5.68124 22.0922 5.50509 22.1466 5.3676 22.2154L5.5912 22.6626ZM5.42319 22.7171C5.43606 22.7171 5.45488 22.7171 5.47251 22.7165C5.48499 22.7161 5.51905 22.7149 5.55409 22.7061C5.56593 22.7032 5.61872 22.6904 5.66765 22.6467C5.69657 22.6209 5.73155 22.5775 5.74616 22.5143C5.76103 22.4501 5.74832 22.3934 5.73069 22.3537C5.70151 22.2881 5.65258 22.2534 5.64159 22.2455C5.62253 22.2317 5.60404 22.2218 5.59121 22.2154L5.36759 22.6626C5.36752 22.6626 5.36592 22.6618 5.36323 22.6602C5.36071 22.6587 5.35569 22.6557 5.34927 22.6511C5.34575 22.6486 5.30121 22.6185 5.27378 22.5568C5.25703 22.5191 5.24454 22.4642 5.25903 22.4016C5.27325 22.3401 5.30724 22.2982 5.33463 22.2738C5.38048 22.2328 5.428 22.2223 5.43282 22.2211C5.45381 22.2158 5.46678 22.2164 5.45467 22.2168C5.44771 22.2171 5.43842 22.2171 5.42319 22.2171V22.7171ZM2.25942 9.88498C2.21105 9.8077 2.16689 9.73707 2.12699 9.66725L1.69287 9.91532C1.7386 9.99535 1.78822 10.0746 1.83558 10.1502L2.25942 9.88498ZM2.49892 10.2978C2.42312 10.1462 2.33635 10.0079 2.25942 9.88498L1.83558 10.1502C1.91428 10.276 1.98828 10.3946 2.0517 10.5214L2.49892 10.2978ZM4.051 12.3939C3.26244 11.6326 2.82704 10.899 2.49479 10.2899L2.05584 10.5293C2.39812 11.1569 2.86212 11.9411 3.70371 12.7536L4.051 12.3939ZM6.90337 14.2113C6.65041 14.1631 6.20906 13.9834 5.68511 13.6697C5.16687 13.3595 4.58625 12.9291 4.05413 12.397L3.70058 12.7506C4.2646 13.3146 4.87849 13.7696 5.42828 14.0987C5.97235 14.4245 6.47255 14.6382 6.80982 14.7025L6.90337 14.2113ZM7.32398 14.6211C7.27348 14.4191 7.11923 14.2648 6.91723 14.2143L6.79596 14.6994C6.81881 14.7051 6.8332 14.7195 6.83891 14.7424L7.32398 14.6211ZM7.23325 15.1296C7.32314 14.9947 7.37139 14.8107 7.32398 14.6211L6.83891 14.7424C6.84771 14.7776 6.83975 14.8184 6.81722 14.8522L7.23325 15.1296ZM5.97895 18.3204C6.28099 16.5082 7.04919 15.3432 7.21338 15.1555L6.83709 14.8263C6.60779 15.0883 5.80205 16.3405 5.48576 18.2382L5.97895 18.3204ZM5.98057 20.9477C5.89717 20.2527 5.81592 19.4075 5.97959 18.3164L5.48512 18.2422C5.31152 19.3995 5.3989 20.297 5.48413 21.0073L5.98057 20.9477ZM6.03857 21.6801C6.03857 21.4665 6.00839 21.198 5.98083 20.9499L5.48388 21.0051C5.51253 21.2629 5.53857 21.5003 5.53857 21.6801H6.03857ZM5.91819 21.388C5.84943 21.4062 5.7865 21.423 5.72793 21.4376L5.8492 21.9227C5.91204 21.907 5.97871 21.8892 6.04664 21.8712L5.91819 21.388ZM5.92963 21.3852L5.92958 21.3852L6.03525 21.8739L6.0353 21.8739L5.92963 21.3852ZM6.55892 21.2374C6.32201 21.2805 6.1021 21.3391 5.91824 21.3879L6.04669 21.8712C6.23242 21.8218 6.43392 21.7684 6.64836 21.7294L6.55892 21.2374ZM11.5374 18.3117C10.8493 19.3703 8.97386 20.7709 6.55622 21.2379L6.65106 21.7289C9.18009 21.2403 11.1832 19.7741 11.9567 18.5842L11.5374 18.3117ZM11.497 18.4198V18.4479H11.997V18.4198H11.497ZM12.0281 18.0012C11.8349 18.0012 11.6279 18.0992 11.5234 18.308L11.9707 18.5316C11.9757 18.5216 11.9822 18.5152 11.9905 18.5104C11.9999 18.5051 12.0129 18.5012 12.0281 18.5012V18.0012ZM12.5328 18.308C12.4283 18.0992 12.2214 18.0012 12.0281 18.0012V18.5012C12.0433 18.5012 12.0563 18.5051 12.0657 18.5104C12.074 18.5152 12.0805 18.5216 12.0856 18.5316L12.5328 18.308ZM12.5592 18.4479V18.4198H12.0592V18.4479H12.5592ZM15.1218 20.4461C14.2205 19.9818 13.566 19.4428 13.138 19.0216C12.924 18.811 12.767 18.6302 12.6642 18.5032C12.6129 18.4398 12.5752 18.3899 12.5508 18.3565C12.5386 18.3398 12.5297 18.3273 12.5241 18.3193C12.5213 18.3153 12.5193 18.3124 12.5182 18.3107C12.5176 18.3099 12.5172 18.3093 12.5171 18.3091C12.517 18.309 12.517 18.3089 12.517 18.309C12.517 18.309 12.517 18.309 12.517 18.3091C12.5171 18.3091 12.5171 18.3091 12.5171 18.3091C12.5171 18.3092 12.5172 18.3093 12.3092 18.4479C12.1012 18.5866 12.1012 18.5867 12.1013 18.5868C12.1013 18.5868 12.1013 18.5869 12.1014 18.5869C12.1015 18.5871 12.1016 18.5872 12.1017 18.5874C12.1019 18.5877 12.1022 18.5881 12.1025 18.5886C12.1032 18.5896 12.104 18.5909 12.1051 18.5925C12.1073 18.5956 12.1103 18.6 12.1141 18.6055C12.1218 18.6165 12.1328 18.632 12.1473 18.6518C12.1762 18.6914 12.2189 18.7477 12.2756 18.8178C12.3889 18.9578 12.5586 19.1529 12.7873 19.378C13.2446 19.828 13.9392 20.3993 14.8929 20.8906L15.1218 20.4461ZM17.616 21.2668C16.9473 21.1275 16.1015 20.9359 15.1192 20.4447L14.8955 20.8919C15.9368 21.4126 16.8336 21.6145 17.514 21.7562L17.616 21.2668ZM18.3283 21.4376C18.1037 21.3815 17.8758 21.3245 17.6192 21.2675L17.5108 21.7555C17.7601 21.8109 17.9819 21.8664 18.207 21.9227L18.3283 21.4376ZM18.0669 21.0254C18.0422 21.2452 18.0176 21.4615 18.0176 21.6801H18.5176C18.5176 21.4945 18.5385 21.3065 18.5638 21.0812L18.0669 21.0254ZM18.0754 20.9497L18.0669 21.0255L18.5638 21.0811L18.5723 21.0053L18.0754 20.9497ZM18.0766 18.3164C18.2403 19.4075 18.159 20.2527 18.0756 20.9477L18.5721 21.0073C18.6573 20.297 18.7447 19.3995 18.5711 18.2422L18.0766 18.3164ZM16.8421 15.1546C16.9995 15.3363 17.2473 15.751 17.4894 16.3217C17.729 16.8864 17.9545 17.5841 18.0773 18.3204L18.5705 18.2382C18.4402 17.4568 18.202 16.7211 17.9497 16.1264C17.7 15.5377 17.4278 15.0671 17.2199 14.8272L16.8421 15.1546ZM16.7512 14.5699C16.6403 14.7917 16.7047 15.0181 16.8542 15.1677L17.2078 14.8141C17.1949 14.8013 17.1947 14.7949 17.1953 14.7978C17.1956 14.7991 17.1956 14.8004 17.1955 14.801C17.1954 14.8015 17.1956 14.7991 17.1984 14.7935L16.7512 14.5699ZM17.139 14.2143C16.937 14.2648 16.7827 14.4191 16.7322 14.6211L17.2173 14.7424C17.223 14.7195 17.2374 14.7051 17.2603 14.6994L17.139 14.2143ZM20.004 12.3951C19.362 13.0235 18.7062 13.4674 18.178 13.7605C17.6428 14.0574 17.2544 14.191 17.1506 14.2117L17.2486 14.702C17.4259 14.6666 17.8666 14.505 18.4206 14.1977C18.9814 13.8865 19.6748 13.4169 20.3537 12.7524L20.004 12.3951ZM21.4387 10.4895C21.1011 11.0431 20.7008 11.6982 20.0021 12.397L20.3556 12.7506C21.0997 12.0065 21.5258 11.307 21.8656 10.7498L21.4387 10.4895ZM21.5683 10.278C21.5258 10.3467 21.4827 10.4175 21.4387 10.4895L21.8656 10.7498C21.9097 10.6776 21.952 10.6082 21.9935 10.5412L21.5683 10.278ZM21.9291 9.66739C21.8166 9.86429 21.7065 10.057 21.5689 10.2771L21.9929 10.5421C22.1363 10.3126 22.251 10.112 22.3633 9.91546L21.9291 9.66739ZM21.9292 9.66731L21.9291 9.66739L22.3633 9.91546L22.3633 9.91538L21.9292 9.66731ZM21.9327 9.6613L21.9327 9.66136L22.3598 9.92134L22.3598 9.92127L21.9327 9.6613ZM21.2559 9.6816C21.5644 9.82185 21.8246 9.93766 22.0585 10.0254L22.2341 9.5572C22.0182 9.47627 21.7725 9.36723 21.4628 9.22642L21.2559 9.6816ZM15.5061 9.11864C15.8512 8.95841 16.6372 8.79109 17.677 8.82207C18.7086 8.85281 19.9672 9.07841 21.2533 9.68043L21.4653 9.22759C20.1095 8.59294 18.7823 8.35479 17.6919 8.32229C16.6096 8.29004 15.7374 8.45999 15.2956 8.66514L15.5061 9.11864ZM14.953 9.07179C15.088 9.16183 15.2972 9.22321 15.5126 9.1155L15.289 8.66828C15.2836 8.67099 15.28 8.67186 15.2778 8.67221C15.2754 8.67258 15.2726 8.6727 15.2687 8.67219C15.2604 8.67107 15.2468 8.66674 15.2303 8.65577L14.953 9.07179ZM14.7011 8.58272C14.7011 8.76797 14.7906 8.96355 14.953 9.07179L15.2303 8.65577C15.2305 8.65586 15.2283 8.65443 15.2248 8.65029C15.2213 8.64617 15.2172 8.64025 15.2134 8.63253C15.2053 8.61634 15.2011 8.59824 15.2011 8.58272H14.7011ZM13.8562 5.29369C14.2252 6.03158 14.4506 6.74911 14.5767 7.33539C14.7045 7.92917 14.726 8.36789 14.7031 8.55171L15.1992 8.61373C15.2324 8.34785 15.1978 7.84502 15.0656 7.23024C14.9317 6.60796 14.6934 5.84993 14.3035 5.07009L13.8562 5.29369ZM12.3598 3.20118C12.8287 3.72498 13.3805 4.34218 13.8562 5.29369L14.3035 5.07009C13.7955 4.05422 13.2042 3.39473 12.7323 2.86765L12.3598 3.20118ZM12.3196 3.15636L12.3597 3.20116L12.7323 2.86768L12.6922 2.82288L12.3196 3.15636ZM12.0826 2.89233C12.1607 2.9772 12.2386 3.06189 12.3161 3.15232L12.6957 2.82692C12.6116 2.72879 12.5279 2.63783 12.4505 2.55377L12.0826 2.89233ZM12.0797 2.88913L12.0797 2.88914L12.4534 2.55696L12.4534 2.55695L12.0797 2.88913ZM11.8361 2.61565C11.9139 2.70904 11.999 2.80147 12.0826 2.89231L12.4505 2.55376C12.3652 2.46102 12.2887 2.37781 12.2202 2.29556L11.8361 2.61565ZM11.9736 2.89231C12.0572 2.80147 12.1423 2.70904 12.2202 2.61565L11.8361 2.29556C11.7675 2.37781 11.691 2.46102 11.6057 2.55375L11.9736 2.89231ZM11.9753 2.89044L11.9754 2.89041L11.604 2.55564L11.6039 2.55567L11.9753 2.89044ZM11.7401 3.15232C11.8176 3.06189 11.8955 2.97721 11.9736 2.89233L11.6057 2.55378C11.5283 2.63783 11.4446 2.72879 11.3605 2.82692L11.7401 3.15232ZM11.6965 3.20115L11.7366 3.15636L11.364 2.82288L11.3239 2.86767L11.6965 3.20115ZM10.2 5.29369C10.6757 4.34217 11.2275 3.72497 11.6965 3.20118L11.324 2.86765C10.852 3.39473 10.2607 4.05422 9.75276 5.07009L10.2 5.29369ZM9.35384 8.55785C9.32959 8.31534 9.36555 7.83946 9.50003 7.24294C9.63319 6.65225 9.85862 5.96277 10.1991 5.29551L9.75368 5.06827C9.39146 5.77821 9.15314 6.50809 9.01227 7.13298C8.87271 7.75204 8.82436 8.28798 8.85632 8.6076L9.35384 8.55785ZM9.07635 9.08739C9.31914 8.966 9.35508 8.7248 9.35508 8.58272H8.85508C8.85508 8.60075 8.85393 8.61515 8.85212 8.62635C8.85032 8.63753 8.84818 8.64354 8.84719 8.64585C8.84637 8.64775 8.84679 8.64616 8.84931 8.64339C8.85206 8.64039 8.85408 8.63951 8.85275 8.64018L9.07635 9.08739ZM8.51671 9.0999C8.62674 9.17325 8.75085 9.17933 8.84098 9.16806C8.93407 9.15643 9.02744 9.12232 9.10322 9.07179L8.82587 8.65577C8.82287 8.65777 8.81625 8.66149 8.80646 8.66507C8.79683 8.66861 8.78717 8.6709 8.77896 8.67193C8.77049 8.67298 8.76705 8.67228 8.7685 8.67252C8.77008 8.67278 8.78035 8.67474 8.79406 8.68388L8.51671 9.0999ZM5.17958 8.91422C6.987 8.64037 8.31929 9.02671 8.56254 9.12401L8.74823 8.65977C8.42935 8.53222 7.00726 8.13159 5.10468 8.41986L5.17958 8.91422ZM2.80731 9.65766C3.42846 9.38622 4.16018 9.06713 5.17921 8.91427L5.10504 8.41981C4.01592 8.58318 3.23246 8.92621 2.60709 9.19949L2.80731 9.65766ZM2.83123 9.64564L2.83124 9.64563L2.58317 9.21151L2.58316 9.21152L2.83123 9.64564ZM2.68445 9.71126L2.80716 9.65772L2.60723 9.19943L2.48451 9.25297L2.68445 9.71126ZM2.35342 9.86367C2.45991 9.81374 2.57009 9.76209 2.68601 9.71057L2.48294 9.25366C2.36171 9.30754 2.2471 9.36129 2.14115 9.41097L2.35342 9.86367ZM2.34982 9.86533L2.34987 9.8653L2.14469 9.40934L2.14464 9.40937L2.34982 9.86533ZM2.34719 9.86649L2.34721 9.86648L2.14724 9.40821L2.14722 9.40822L2.34719 9.86649ZM2.37123 9.85442L2.37124 9.85442L2.12317 9.42029L2.12316 9.4203L2.37123 9.85442ZM2.00841 10.0211C2.1175 9.97432 2.23392 9.9197 2.35333 9.86371L2.14106 9.41101C2.01977 9.46788 1.91135 9.51868 1.81145 9.5615L2.00841 10.0211ZM9.89737 15.3156C10.0243 16.4261 10.9748 17.2798 12.1132 17.2798V16.7798C11.2279 16.7798 10.4921 16.1157 10.3941 15.2588L9.89737 15.3156ZM8.51855 13.4041C8.51855 14.3842 9.15129 15.2403 10.0717 15.526L10.2199 15.0484C9.51006 14.8281 9.01855 14.1666 9.01855 13.4041H8.51855ZM9.07772 12.8449C8.77102 12.8449 8.51855 13.0974 8.51855 13.4041H9.01855C9.01855 13.3904 9.02419 13.3755 9.03668 13.363C9.04916 13.3506 9.06404 13.3449 9.07772 13.3449V12.8449ZM9.63689 13.4041C9.63689 13.0974 9.38443 12.8449 9.07772 12.8449V13.3449C9.0914 13.3449 9.10628 13.3506 9.11877 13.363C9.13125 13.3755 9.13689 13.3904 9.13689 13.4041H9.63689ZM10.5259 14.4788C10.0043 14.3881 9.63689 13.9342 9.63689 13.4041H9.13689C9.13689 14.1668 9.66891 14.8372 10.4402 14.9714L10.5259 14.4788ZM10.9826 15.1034C11.0359 14.7837 10.8136 14.5267 10.5241 14.4785L10.4419 14.9717C10.4682 14.976 10.4803 14.9871 10.4847 14.9929C10.487 14.9959 10.4885 14.999 10.4893 15.0024C10.4901 15.0057 10.491 15.0117 10.4894 15.0212L10.9826 15.1034ZM12.057 16.1614C11.4677 16.1614 10.986 15.6866 10.986 15.0623H10.486C10.486 15.9558 11.1847 16.6614 12.057 16.6614V16.1614ZM13.1279 15.0905C13.1279 15.6831 12.6496 16.1614 12.057 16.1614V16.6614C12.9258 16.6614 13.6279 15.9593 13.6279 15.0905H13.1279ZM13.1279 15.0342V15.0905H13.6279V15.0342H13.1279ZM13.5538 14.4799C13.2626 14.5382 13.1279 14.8128 13.1279 15.0342H13.6279C13.6279 15.012 13.6351 14.9916 13.6437 14.9791C13.6475 14.9735 13.6506 14.9711 13.6515 14.9704C13.652 14.9701 13.6521 14.9701 13.6519 14.9702C13.6517 14.9702 13.6516 14.9703 13.6518 14.9702L13.5538 14.4799ZM14.3365 13.4322C14.3365 13.9359 14.0199 14.3459 13.5341 14.4847L13.6715 14.9655C14.3661 14.767 14.8365 14.1651 14.8365 13.4322H14.3365ZM14.8957 12.873C14.589 12.873 14.3365 13.1255 14.3365 13.4322H14.8365C14.8365 13.4185 14.8421 13.4036 14.8546 13.3911C14.8671 13.3787 14.882 13.373 14.8957 13.373V12.873ZM15.4548 13.4322C15.4548 13.1255 15.2024 12.873 14.8957 12.873V13.373C14.9094 13.373 14.9242 13.3787 14.9367 13.3911C14.9492 13.4036 14.9548 13.4185 14.9548 13.4322H15.4548ZM14.0656 15.4893C14.8821 15.1439 15.4548 14.3548 15.4548 13.4322H14.9548C14.9548 14.1398 14.5157 14.756 13.8708 15.0288L14.0656 15.4893ZM12.1132 17.2798C13.274 17.2798 14.2507 16.3957 14.2181 15.2519L13.7183 15.2662C13.7418 16.0899 13.0322 16.7798 12.1132 16.7798V17.2798ZM12.0553 12.6288C12.0416 12.6288 12.0267 12.6232 12.0142 12.6107C12.0017 12.5982 11.9961 12.5833 11.9961 12.5697H11.4961C11.4961 12.8764 11.7486 13.1288 12.0553 13.1288V12.6288ZM12.1144 12.5416C12.1144 12.5587 12.1059 12.5852 12.0862 12.6073C12.0773 12.6174 12.0688 12.6233 12.0629 12.6262C12.0601 12.6277 12.0581 12.6283 12.057 12.6286C12.0559 12.6288 12.0554 12.6288 12.0553 12.6288V13.1288C12.2255 13.1288 12.3668 13.0443 12.4599 12.9395C12.5527 12.8352 12.6144 12.6931 12.6144 12.5416H12.1144ZM12.1144 9.30936V12.5416H12.6144V9.30936H12.1144ZM12.0553 9.2502C12.0689 9.2502 12.0838 9.25583 12.0963 9.26832C12.1088 9.2808 12.1144 9.29568 12.1144 9.30936H12.6144C12.6144 9.00266 12.362 8.7502 12.0553 8.7502V9.2502ZM11.9961 9.30936C11.9961 9.29568 12.0017 9.2808 12.0142 9.26832C12.0267 9.25583 12.0416 9.2502 12.0553 9.2502V8.7502C11.7486 8.7502 11.4961 9.00266 11.4961 9.30936H11.9961ZM11.9961 12.5697V9.30936H11.4961V12.5697H11.9961ZM9.6967 12.7097C9.78906 12.8944 9.98114 13.0446 10.2295 13.0446V12.5446C10.1967 12.5446 10.164 12.5262 10.1439 12.4861L9.6967 12.7097ZM8.87206 10.5801L9.68713 12.688L10.1535 12.5077L9.33841 10.3997L8.87206 10.5801ZM9.22292 9.83115C8.90705 9.93644 8.77381 10.2862 8.86806 10.569L9.3424 10.4109C9.33523 10.3893 9.33655 10.3631 9.34688 10.3404C9.3568 10.3186 9.3704 10.309 9.38103 10.3055L9.22292 9.83115ZM9.96074 10.186C9.85545 9.87014 9.50568 9.7369 9.22292 9.83115L9.38103 10.3055C9.40256 10.2983 9.42876 10.2996 9.45148 10.31C9.47331 10.3199 9.48285 10.3335 9.48639 10.3441L9.96074 10.186ZM10.7718 12.2829L9.95674 10.1749L9.49039 10.3552L10.3055 12.4632L10.7718 12.2829ZM10.421 13.0318C10.7368 12.9265 10.8701 12.5767 10.7758 12.294L10.3015 12.4521C10.3086 12.4736 10.3073 12.4998 10.297 12.5225C10.2871 12.5443 10.2735 12.5539 10.2628 12.5574L10.421 13.0318ZM10.2295 13.0446H10.3419V12.5446H10.2295V13.0446ZM13.7699 12.5434C13.7544 12.5434 13.7527 12.543 13.7548 12.5433C13.7566 12.5436 13.7652 12.5451 13.7776 12.5502C13.7899 12.5552 13.8119 12.5662 13.8342 12.5885L13.4807 12.9421C13.5501 13.0116 13.6341 13.0301 13.6726 13.0365C13.7167 13.0439 13.7573 13.0434 13.7699 13.0434V12.5434ZM13.8469 12.4757C13.8391 12.4953 13.824 12.5139 13.8039 12.5277C13.7819 12.5428 13.7671 12.5434 13.7699 12.5434V13.0434C13.9874 13.0434 14.2181 12.8942 14.3112 12.6614L13.8469 12.4757ZM14.6609 10.3705L13.8459 12.4784L14.3122 12.6587L15.1273 10.5508L14.6609 10.3705ZM14.6183 10.2762C14.6289 10.2797 14.6425 10.2893 14.6525 10.3111C14.6628 10.3338 14.6641 10.36 14.6569 10.3816L15.1313 10.5397C15.2255 10.2569 15.0923 9.90714 14.7764 9.80185L14.6183 10.2762ZM14.5129 10.3148C14.5165 10.3042 14.526 10.2906 14.5479 10.2807C14.5706 10.2703 14.5968 10.269 14.6183 10.2762L14.7764 9.80185C14.4937 9.7076 14.1439 9.84084 14.0386 10.1567L14.5129 10.3148ZM13.6939 12.4339L14.509 10.3259L14.0426 10.1456L13.2275 12.2536L13.6939 12.4339ZM13.7365 12.5281C13.7259 12.5246 13.7123 12.5151 13.7023 12.4932C13.692 12.4705 13.6907 12.4443 13.6979 12.4228L13.2235 12.2647C13.1293 12.5474 13.2625 12.8972 13.5784 13.0025L13.7365 12.5281Z" fill="white"/>
</svg>
