<svg width="24" height="24" viewBox="0 0 24 24" fill="none" xmlns="http://www.w3.org/2000/svg">
<path d="M23.4189 5H0.581053C0.252632 5 0 5.25263 0 5.58105V7.32421C0 13.9432 5.38105 19.3242 12 19.3242C18.6189 19.3242 24 13.9432 24 7.32421V5.58105C24 5.27789 23.7474 5 23.4189 5ZM3.78947 6.18737H20.2105V7.34947C20.2105 11.8716 16.5221 15.56 12 15.56C7.47789 15.56 3.78947 11.8716 3.78947 7.34947V6.18737ZM22.8379 7.34947C22.8379 13.3116 17.9874 18.1874 12 18.1874C6.03789 18.1874 1.16211 13.3368 1.16211 7.34947V6.18737H2.62737V7.34947C2.62737 12.5032 6.82105 16.7221 12 16.7221C17.1789 16.7221 21.3726 12.5284 21.3726 7.34947V6.18737H22.8379V7.34947V7.34947Z" fill="white"/>
<path d="M7.30099 8.46115C7.30099 8.05693 6.9473 7.50115 6.77046 7.22325C6.69467 7.1222 6.56836 7.1222 6.51783 7.22325C6.31573 7.50115 5.9873 8.05693 5.9873 8.46115C5.9873 8.84009 6.29046 9.11799 6.64415 9.11799C6.99783 9.14325 7.30099 8.84009 7.30099 8.46115Z" fill="white"/>
<path d="M9.32238 9.14338C9.70132 9.14338 9.97922 8.84022 9.97922 8.48654C9.97922 8.08233 9.62554 7.52654 9.44869 7.24864C9.3729 7.14759 9.24659 7.14759 9.19606 7.24864C8.99396 7.52654 8.66553 8.08233 8.66553 8.48654C8.64027 8.84022 8.94343 9.14338 9.32238 9.14338Z" fill="white"/>
<path d="M11.9996 9.14338C12.3786 9.14338 12.6565 8.84022 12.6565 8.48654C12.6565 8.08233 12.3028 7.52654 12.1259 7.24864C12.0501 7.14759 11.9238 7.14759 11.8733 7.24864C11.6712 7.52654 11.3428 8.08233 11.3428 8.48654C11.3428 8.84022 11.6207 9.14338 11.9996 9.14338Z" fill="white"/>
<path d="M14.6783 9.14338C15.0573 9.14338 15.3352 8.84022 15.3352 8.48654C15.3352 8.08233 14.9815 7.52654 14.8046 7.24864C14.7289 7.14759 14.6025 7.14759 14.552 7.24864C14.3499 7.52654 14.0215 8.08233 14.0215 8.48654C14.0215 8.84022 14.3246 9.14338 14.6783 9.14338Z" fill="white"/>
<path d="M17.381 9.14338C17.7599 9.14338 18.0378 8.84022 18.0378 8.48654C18.0378 8.08233 17.6841 7.52654 17.5073 7.24864C17.4315 7.14759 17.3052 7.14759 17.2547 7.24864C17.0526 7.52654 16.7241 8.08233 16.7241 8.48654C16.6989 8.84022 17.002 9.14338 17.381 9.14338Z" fill="white"/>
<path d="M7.98351 11.4676C8.36246 11.4676 8.64035 11.1644 8.64035 10.8108C8.64035 10.4065 8.28667 9.85075 8.10983 9.57286C8.03404 9.47181 7.90772 9.47181 7.85719 9.57286C7.65509 9.85075 7.32667 10.4065 7.32667 10.8108C7.3014 11.1644 7.60456 11.4676 7.98351 11.4676Z" fill="white"/>
<path d="M10.6612 11.4676C11.0402 11.4676 11.3181 11.1644 11.3181 10.8108C11.3181 10.4065 10.9644 9.85075 10.7876 9.57286C10.7118 9.47181 10.5855 9.47181 10.5349 9.57286C10.3328 9.85075 10.0044 10.4065 10.0044 10.8108C9.97914 11.1644 10.2823 11.4676 10.6612 11.4676Z" fill="white"/>
<path d="M13.3395 11.4676C13.7184 11.4676 13.9963 11.1644 13.9963 10.8108C13.9963 10.4065 13.6426 9.85075 13.4658 9.57286C13.39 9.47181 13.2637 9.47181 13.2131 9.57286C13.011 9.85075 12.6826 10.4065 12.6826 10.8108C12.6826 11.1644 12.9858 11.4676 13.3395 11.4676Z" fill="white"/>
<path d="M16.0172 11.4676C16.3961 11.4676 16.674 11.1644 16.674 10.8108C16.674 10.4065 16.3204 9.85075 16.1435 9.57286C16.0677 9.47181 15.9414 9.47181 15.8909 9.57286C15.6888 9.85075 15.3604 10.4065 15.3604 10.8108C15.3604 11.1644 15.6635 11.4676 16.0172 11.4676Z" fill="white"/>
<path d="M9.32238 13.7664C9.70132 13.7664 9.97922 13.4633 9.97922 13.1096C9.97922 12.7054 9.62554 12.1496 9.44869 11.8717C9.3729 11.7706 9.24659 11.7706 9.19606 11.8717C8.99396 12.1496 8.66553 12.7054 8.66553 13.1096C8.64027 13.4633 8.94343 13.7664 9.32238 13.7664Z" fill="white"/>
<path d="M11.9996 13.7664C12.3786 13.7664 12.6565 13.4633 12.6565 13.1096C12.6565 12.7054 12.3028 12.1496 12.1259 11.8717C12.0501 11.7706 11.9238 11.7706 11.8733 11.8717C11.6712 12.1496 11.3428 12.7054 11.3428 13.1096C11.3428 13.4633 11.6207 13.7664 11.9996 13.7664Z" fill="white"/>
<path d="M14.6783 13.7664C15.0573 13.7664 15.3352 13.4633 15.3352 13.1096C15.3352 12.7054 14.9815 12.1496 14.8046 11.8717C14.7289 11.7706 14.6025 11.7706 14.552 11.8717C14.3499 12.1496 14.0215 12.7054 14.0215 13.1096C14.0215 13.4633 14.3246 13.7664 14.6783 13.7664Z" fill="white"/>
</svg>
