<?xml version="1.0" encoding="UTF-8"?>
<svg width="24px" height="24px" viewBox="0 0 24 24" version="1.1" xmlns="http://www.w3.org/2000/svg" xmlns:xlink="http://www.w3.org/1999/xlink">
    <!-- Generator: Sketch 51.3 (57544) - http://www.bohemiancoding.com/sketch -->
    <title>icon strain flavor / wood</title>
    <desc>Created with Sketch.</desc>
    <defs></defs>
    <g id="icon-strain-flavor-/-wood" stroke="none" stroke-width="1" fill="none" fill-rule="evenodd">
        <g id="Group" transform="translate(0.000000, 1.000000)" fill="#FFFFFF" fill-rule="nonzero">
            <path d="M19.9621333,4.85546667 C19.7557333,4.85546667 19.5530667,4.876 19.3530667,4.90773333 C19.4549333,4.5608 19.5088,4.1976 19.5088,3.82586667 C19.5088,1.71626667 17.7925333,-2.13162821e-14 15.6832,-2.13162821e-14 C14.6602667,-2.13162821e-14 13.7026667,0.398666667 12.9805333,1.12053333 L8.56933333,4.6928 L5.6176,7.19493333 C4.70266667,8.00213333 4.12133333,9.17973333 4.12133333,10.4928 C4.12133333,10.8146667 4.15813333,11.1277333 4.224,11.4301333 L1.3104,14.344 C1.29786667,14.3562667 1.2856,14.3685333 1.2736,14.3808 L1.23173333,14.4226667 L1.2336,14.4245333 C0.471466667,15.2162667 -2.13162821e-14,16.2896 -2.13162821e-14,17.4728 C-2.13162821e-14,19.9002667 1.97466667,21.8749333 4.40213333,21.8749333 C6.04,21.8749333 7.4688,20.9741333 8.22693333,19.6437333 C8.98506667,20.9741333 10.4141333,21.8749333 12.0517333,21.8749333 C13.6394667,21.8749333 15.0293333,21.0272 15.8037333,19.7632 L23.1536,10.6853333 L23.3317333,10.4925333 C23.7149333,9.884 23.7874667,9.4032 23.7874667,8.6808 C23.7877333,6.57146667 22.0717333,4.85546667 19.9621333,4.85546667 Z M13.9810667,1.74186667 C14.4602667,1.34853333 15.0541333,1.13386667 15.6834667,1.13386667 C16.4682667,1.13386667 17.1733333,1.4736 17.6658667,2.0112 L13.6701333,6.30746667 L14.5002667,7.07973333 L18.2573333,3.04026667 C18.3333333,3.28906667 18.3749333,3.5528 18.3749333,3.82613333 C18.3749333,4.29946667 18.2514667,4.75306667 18.0234667,5.1536 L17.7312,5.492 C17.6418667,5.56666667 17.3402667,5.89253333 17.2568,5.976 L12.8768,11.1117333 C12.9056,10.9090667 12.9256,10.7034667 12.9256,10.4928 C12.9256,8.104 11.012,6.15786667 8.6376,6.09653333 L13.9810667,1.74186667 Z M4.65893333,12.5986667 C4.75813333,12.78 4.87333333,12.9509333 4.99626667,13.1157333 C4.8016,13.0893333 4.60426667,13.0709333 4.4024,13.0709333 C4.32586667,13.0709333 4.25093333,13.0786667 4.1752,13.0824 L4.65893333,12.5986667 Z M7.66026667,17.6757333 C7.55466667,19.3832 6.136,20.7410667 4.4024,20.7410667 C2.60026667,20.7410667 1.13413333,19.2749333 1.13413333,17.4728 C1.13413333,16.5829333 1.49253333,15.7757333 2.07173333,15.1858667 L2.11546667,15.1421333 C2.70533333,14.5632 3.51253333,14.2045333 4.4024,14.2045333 C6.136,14.2045333 7.55466667,15.5624 7.66026667,17.2698667 C7.65706667,17.3376 7.64986667,17.4042667 7.64986667,17.4728 C7.64986667,17.5413333 7.65733333,17.608 7.66026667,17.6757333 Z M8.2272,15.3021333 C8.1376,15.1448 8.03733333,14.9946667 7.9296,14.8501333 C8.1144,14.8752 8.30133333,14.892 8.49253333,14.8933333 C8.39706667,15.0248 8.308,15.1605333 8.2272,15.3021333 Z M5.2552,10.4928 C5.2552,8.69066667 6.72133333,7.22453333 8.52346667,7.22453333 C10.3256,7.22453333 11.7917333,8.69066667 11.7917333,10.4928 C11.7917333,12.2949333 10.3256,13.7610667 8.52346667,13.7610667 C6.72133333,13.7610667 5.2552,12.2949333 5.2552,10.4928 Z M14.8826667,19.0994667 L14.58,19.4733333 L14.6117333,19.4989333 C14.0125333,20.2541333 13.0888,20.7410667 12.0522667,20.7410667 C10.3186667,20.7410667 8.9,19.3832 8.7944,17.6757333 C8.7976,17.608 8.8048,17.5413333 8.8048,17.4728 C8.8048,17.4042667 8.7976,17.3376 8.7944,17.2698667 C8.9,15.5624 10.3186667,14.2045333 12.0522667,14.2045333 C13.8544,14.2045333 15.3205333,15.6706667 15.3205333,17.4728 C15.3202667,18.0653333 15.1594667,18.62 14.8826667,19.0994667 Z M22.4045333,9.80933333 L16.4392,17.1770667 C16.4106667,16.7514667 16.3216,16.3429333 16.1802667,15.9586667 L20.0712,11.4813333 L19.2154667,10.7376 L15.608,14.8885333 C14.9173333,13.9408 13.8597333,13.28 12.6442667,13.1154667 L18.3050667,6.56213333 C18.3264,6.54533333 18.3488,6.5296 18.3706667,6.5136 C18.3706667,6.5136 18.4448,6.46853333 18.4736,6.43786667 C18.9112,6.1464 19.4245333,5.9896 19.9621333,5.9896 C21.4464,5.9896 22.6541333,7.19706667 22.6541333,8.6816 C22.6538667,9.07386667 22.5672,9.4576 22.4045333,9.80933333 Z" id="Shape"></path>
            <path d="M4.30266667,18.7162667 C3.76933333,18.7162667 3.15866667,18.2306667 3.15866667,17.4306667 L2.0248,17.4306667 C2.0248,18.764 2.96933333,19.8501333 4.30266667,19.8501333 L4.30266667,19.2781333 C4.33573333,19.28 4.36853333,19.2832 4.4024,19.2832 L4.30266667,19.1837333 L4.30266667,18.7162667 Z" id="Path"></path>
            <path d="M12.036,18.7162667 C11.7106667,18.7162667 11.4504,18.6322667 11.252,18.4832 L11.0656,18.2968 C10.8989333,18.08 10.8085333,17.7890667 10.8085333,17.4304 L9.67466667,17.4304 C9.67466667,18.7637333 10.7024,19.8498667 12.0357333,19.8498667 L12.0357333,19.2821333 C12.0410667,19.2821333 12.0464,19.2829333 12.052,19.2829333 L12.036,19.2672 L12.036,18.7162667 Z" id="Path"></path>
            <path d="M7.55973333,11.3394667 C7.38186667,11.1333333 7.28026667,10.8533333 7.28026667,10.4973333 L6.71786667,10.4973333 L6.70266667,10.4928 C6.70266667,10.4944 6.70266667,10.4957333 6.70266667,10.4973333 L6.14613333,10.4973333 C6.14613333,11.8306667 7.236,12.8701333 8.56933333,12.8701333 L8.56933333,11.7362667 C8.196,11.7362667 7.89386667,11.6370667 7.67413333,11.4536 L7.55973333,11.3394667 Z" id="Path"></path>
        </g>
    </g>
</svg>