<svg width="728" height="559" viewBox="0 0 728 559" fill="none" xmlns="http://www.w3.org/2000/svg">
<g clip-path="url(#clip0_720_310)">
<path d="M417.299 355.572C436.79 369.816 475.773 414.796 475.773 480.767" stroke="black" stroke-width="19.2832"/>
<path d="M537.511 533.993C537.511 537.894 534.412 542.526 522.381 546.293C510.947 549.873 494.57 551.501 475.773 551.501C456.975 551.501 440.598 549.873 429.164 546.293C417.133 542.526 414.034 537.894 414.034 533.993C414.034 531.246 415.293 526.846 418.469 521.399C421.559 516.101 426.131 510.391 431.881 505.136C443.454 494.562 459.035 486.498 475.773 486.498C492.51 486.498 508.091 494.562 519.664 505.136C525.414 510.391 529.986 516.101 533.076 521.399C536.252 526.846 537.511 531.246 537.511 533.993Z" fill="white" stroke="black" stroke-width="14.4624"/>
<path d="M413.338 533.916C413.338 533.935 413.338 533.954 413.338 533.973C414.112 534 415.265 533.936 416.91 533.686C419.064 533.359 421.643 532.785 424.729 532.015C426.497 531.574 428.403 531.074 430.432 530.541C442.237 527.443 458.204 523.252 475.421 523.252C492.704 523.252 508.594 527.474 520.274 530.577C522.236 531.098 524.079 531.588 525.791 532.021C528.835 532.791 531.368 533.363 533.478 533.689C535.001 533.923 536.079 533.991 536.814 533.976C536.815 533.957 536.815 533.936 536.815 533.916C536.815 531.169 535.556 526.769 532.379 521.322C529.289 516.024 524.718 510.314 518.967 505.06C507.395 494.485 491.814 486.421 475.076 486.421C458.338 486.421 442.758 494.485 431.185 505.06C425.434 510.314 420.863 516.024 417.773 521.322C414.596 526.769 413.338 531.169 413.338 533.916ZM413.427 534.919C413.427 534.919 413.426 534.913 413.422 534.903C413.425 534.914 413.427 534.919 413.427 534.919ZM536.721 534.961C536.721 534.961 536.723 534.956 536.726 534.947C536.722 534.956 536.721 534.961 536.721 534.961Z" fill="#FDD102" stroke="black" stroke-width="14.4624"/>
<path d="M109.56 127.053C106.953 124.15 101.553 122.774 90.0846 128.01C79.1851 132.986 65.9129 142.716 51.9267 155.276C37.9406 167.835 26.8435 179.988 20.7278 190.292C14.293 201.133 15.082 206.65 17.6887 209.552C19.5241 211.596 23.4005 214.029 29.403 215.959C35.242 217.837 42.4585 219.031 50.2478 219.098C65.9233 219.234 82.904 214.824 95.3576 203.64C107.811 192.457 114.016 176.047 115.561 160.447C116.329 152.696 115.915 145.393 114.674 139.386C113.399 133.211 111.396 129.096 109.56 127.053Z" fill="white" stroke="black" stroke-width="14.4624"/>
<path d="M225.97 263.138C201.951 265.563 142.893 258.142 98.8151 209.057" stroke="black" stroke-width="19.2832"/>
<path d="M21.1519 214.493C21.1391 214.478 21.1265 214.464 21.1142 214.45C21.6724 213.913 22.5725 213.191 23.9635 212.277C25.7845 211.081 28.0869 209.785 30.8977 208.296C32.5082 207.443 34.2606 206.541 36.126 205.582C46.9794 200 61.6592 192.45 74.4691 180.947C87.3288 169.399 96.3306 155.641 102.947 145.529C104.059 143.83 105.103 142.234 106.087 140.768C107.838 138.161 109.34 136.043 110.692 134.391C111.669 133.199 112.426 132.428 112.983 131.948C112.996 131.962 113.01 131.977 113.023 131.993C114.859 134.037 116.862 138.151 118.138 144.326C119.379 150.333 119.792 157.636 119.024 165.387C117.479 180.987 111.274 197.397 98.8208 208.581C86.3672 219.764 69.3865 224.174 53.711 224.038C45.9217 223.971 38.7052 222.777 32.8662 220.899C26.8636 218.969 22.9873 216.536 21.1519 214.493ZM20.5484 213.686C20.5486 213.686 20.5512 213.692 20.5555 213.702C20.5503 213.692 20.5482 213.686 20.5484 213.686ZM112.256 131.278C112.256 131.278 112.26 131.28 112.268 131.285C112.26 131.281 112.256 131.278 112.256 131.278Z" fill="#FDD102" stroke="black" stroke-width="14.4624"/>
<path d="M503.031 254.842C526.821 258.948 586.254 255.695 633.671 209.827" stroke="black" stroke-width="19.2832"/>
<path d="M714.852 217.197C717.656 214.484 718.831 209.036 713.174 197.77C707.797 187.063 697.581 174.16 684.512 160.649C671.443 147.138 658.887 136.499 648.364 130.77C637.292 124.741 631.808 125.734 629.003 128.447C627.029 130.356 624.742 134.32 623.035 140.39C621.376 146.295 620.45 153.551 620.671 161.337C621.117 177.007 626.153 193.812 637.791 205.843C649.428 217.873 666.057 223.465 681.703 224.431C689.478 224.911 696.76 224.227 702.717 222.765C708.84 221.261 712.878 219.107 714.852 217.197Z" fill="white" stroke="black" stroke-width="14.4624"/>
<path d="M714.987 217.163C715.001 217.149 715.015 217.136 715.028 217.123C714.509 216.547 713.662 215.764 712.338 214.755C710.606 213.434 708.4 211.98 705.701 210.297C704.154 209.332 702.47 208.31 700.676 207.222C690.242 200.891 676.129 192.329 664.159 179.954C652.142 167.531 644.129 153.175 638.239 142.623C637.249 140.85 636.32 139.185 635.441 137.654C633.878 134.93 632.528 132.711 631.295 130.969C630.405 129.711 629.704 128.889 629.182 128.37C629.168 128.384 629.153 128.398 629.139 128.412C627.164 130.322 624.877 134.286 623.171 140.356C621.511 146.261 620.585 153.516 620.807 161.303C621.252 176.973 626.289 193.778 637.926 205.809C649.563 217.839 666.192 223.431 681.838 224.397C689.613 224.877 696.895 224.193 702.852 222.73C708.975 221.227 713.013 219.072 714.987 217.163ZM715.646 216.401C715.646 216.401 715.643 216.406 715.638 216.416C715.644 216.406 715.646 216.401 715.646 216.401ZM629.955 127.753C629.955 127.753 629.95 127.755 629.942 127.76C629.95 127.756 629.955 127.753 629.955 127.753Z" fill="#FDD102" stroke="black" stroke-width="14.4624"/>
<path d="M318.339 355.572C298.848 369.816 259.865 414.796 259.865 480.767" stroke="black" stroke-width="19.2832"/>
<path d="M198.128 533.993C198.128 537.895 201.227 542.527 213.258 546.293C224.692 549.873 241.068 551.501 259.866 551.501C278.664 551.501 295.04 549.873 306.475 546.293C318.506 542.527 321.605 537.895 321.605 533.993C321.605 531.246 320.346 526.846 317.169 521.4C314.079 516.101 309.508 510.391 303.757 505.137C292.185 494.563 276.604 486.498 259.866 486.498C243.128 486.498 227.548 494.563 215.975 505.137C210.224 510.391 205.653 516.101 202.563 521.4C199.387 526.846 198.128 531.246 198.128 533.993Z" fill="white" stroke="black" stroke-width="14.4624"/>
<path d="M239.624 387.056L189.396 69.9451H545.49L496.012 387.056H239.624Z" fill="url(#paint0_linear_720_310)" stroke="black" stroke-width="14.4624"/>
<path d="M596.392 29.4415C596.38 20.9722 589.517 14.1095 581.048 14.0972H155.262H155.215C146.754 14.1101 139.905 20.98 139.918 29.4415V55.0629C139.93 63.5323 146.793 70.3951 155.262 70.4071H581.048C589.507 70.3698 596.355 63.5218 596.392 55.0629V29.4415Z" fill="#F2C94C" stroke="black" stroke-width="14.4624"/>
<mask id="mask0_720_310" style="mask-type:alpha" maskUnits="userSpaceOnUse" x="381" y="118" width="87" height="138">
<path d="M462.682 186.556C462.682 204.806 458.043 221.123 450.77 232.741C443.46 244.418 433.913 250.793 424.085 250.793C414.257 250.793 404.71 244.418 397.4 232.741C390.128 221.123 385.488 204.806 385.488 186.556C385.488 168.306 390.128 151.988 397.4 140.371C404.71 128.694 414.257 122.318 424.085 122.318C433.913 122.318 443.46 128.694 450.77 140.371C458.043 151.988 462.682 168.306 462.682 186.556Z" fill="black" stroke="black" stroke-width="8.63696"/>
</mask>
<g mask="url(#mask0_720_310)">
<path d="M463.761 186.556C463.761 204.976 459.081 221.499 451.685 233.314C444.261 245.173 434.419 251.873 424.085 251.873C413.752 251.873 403.909 245.173 396.485 233.314C389.089 221.499 384.409 204.976 384.409 186.556C384.409 168.136 389.089 151.613 396.485 139.798C403.909 127.939 413.752 121.239 424.085 121.239C434.419 121.239 444.261 127.939 451.685 139.798C459.081 151.613 463.761 168.136 463.761 186.556Z" fill="white" stroke="black" stroke-width="6.47772"/>
<circle cx="424.085" cy="186.556" r="13.4952" fill="black"/>
<path d="M462.682 186.556C462.682 204.806 458.043 221.123 450.77 232.741C443.46 244.418 433.913 250.793 424.085 250.793C414.257 250.793 404.71 244.418 397.4 232.741C390.128 221.123 385.488 204.806 385.488 186.556C385.488 168.306 390.128 151.988 397.4 140.371C404.71 128.694 414.257 122.318 424.085 122.318C433.913 122.318 443.46 128.694 450.77 140.371C458.043 151.988 462.682 168.306 462.682 186.556Z" stroke="black" stroke-width="8.63696"/>
<path d="M424.085 53.7627C400.384 53.7627 381.17 84.3354 381.17 122.049H467C467 84.3354 447.786 53.7627 424.085 53.7627Z" fill="#F4CA3D"/>
<path d="M424.085 319.619C447.786 319.619 467 289.046 467 251.333L381.17 251.333C381.17 289.046 400.383 319.619 424.085 319.619Z" fill="#F4CA3D"/>
<path d="M462.682 186.556C462.682 204.806 458.043 221.123 450.77 232.741C443.46 244.418 433.913 250.793 424.085 250.793C414.257 250.793 404.71 244.418 397.4 232.741C390.128 221.123 385.488 204.806 385.488 186.556C385.488 168.306 390.128 151.988 397.4 140.371C404.71 128.694 414.257 122.318 424.085 122.318C433.913 122.318 443.46 128.694 450.77 140.371C458.043 151.988 462.682 168.306 462.682 186.556Z" stroke="black" stroke-width="8.63696"/>
<rect x="381.17" y="246.745" width="85.8298" height="8.63696" fill="black"/>
<rect x="381.17" y="118" width="85.8298" height="8.63696" fill="black"/>
</g>
<mask id="mask1_720_310" style="mask-type:alpha" maskUnits="userSpaceOnUse" x="267" y="118" width="86" height="138">
<path d="M348.512 186.556C348.512 204.806 343.873 221.123 336.6 232.741C329.29 244.418 319.743 250.793 309.915 250.793C300.087 250.793 290.54 244.418 283.23 232.741C275.958 221.123 271.318 204.806 271.318 186.556C271.318 168.306 275.958 151.988 283.23 140.371C290.54 128.694 300.087 122.318 309.915 122.318C319.743 122.318 329.29 128.694 336.6 140.371C343.873 151.988 348.512 168.306 348.512 186.556Z" fill="black" stroke="black" stroke-width="8.63696"/>
</mask>
<g mask="url(#mask1_720_310)">
<path d="M349.592 186.556C349.592 204.976 344.911 221.499 337.515 233.314C330.092 245.173 320.249 251.873 309.915 251.873C299.582 251.873 289.739 245.173 282.315 233.314C274.919 221.499 270.239 204.976 270.239 186.556C270.239 168.136 274.919 151.613 282.315 139.798C289.739 127.939 299.582 121.239 309.915 121.239C320.249 121.239 330.092 127.939 337.515 139.798C344.911 151.613 349.592 168.136 349.592 186.556Z" fill="white" stroke="black" stroke-width="6.47772"/>
<circle cx="309.915" cy="186.556" r="13.4952" fill="black"/>
<path d="M348.512 186.556C348.512 204.806 343.873 221.123 336.6 232.741C329.29 244.418 319.743 250.793 309.915 250.793C300.087 250.793 290.54 244.418 283.23 232.741C275.958 221.123 271.318 204.806 271.318 186.556C271.318 168.306 275.958 151.988 283.23 140.371C290.54 128.694 300.087 122.318 309.915 122.318C319.743 122.318 329.29 128.694 336.6 140.371C343.873 151.988 348.512 168.306 348.512 186.556Z" stroke="black" stroke-width="8.63696"/>
<path d="M309.915 53.7627C286.214 53.7627 267 84.3354 267 122.049H352.83C352.83 84.3354 333.616 53.7627 309.915 53.7627Z" fill="#F4CA3D"/>
<path d="M309.915 319.619C333.616 319.619 352.83 289.046 352.83 251.333L267 251.333C267 289.046 286.213 319.619 309.915 319.619Z" fill="#F4CA3D"/>
<path d="M348.512 186.556C348.512 204.806 343.873 221.123 336.6 232.741C329.29 244.418 319.743 250.793 309.915 250.793C300.087 250.793 290.54 244.418 283.23 232.741C275.958 221.123 271.318 204.806 271.318 186.556C271.318 168.306 275.958 151.988 283.23 140.371C290.54 128.694 300.087 122.318 309.915 122.318C319.743 122.318 329.29 128.694 336.6 140.371C343.873 151.988 348.512 168.306 348.512 186.556Z" stroke="black" stroke-width="8.63696"/>
<rect x="267" y="246.745" width="85.8298" height="8.63696" fill="black"/>
<rect x="267" y="118" width="85.8298" height="8.63696" fill="black"/>
</g>
<path d="M197.601 533.917C197.601 533.937 197.601 533.956 197.601 533.974C198.376 534.001 199.528 533.937 201.174 533.688C203.328 533.361 205.906 532.786 208.993 532.016C210.761 531.575 212.667 531.075 214.696 530.542C226.501 527.444 242.468 523.253 259.684 523.253C276.968 523.253 292.858 527.475 304.537 530.578C306.5 531.099 308.343 531.589 310.054 532.022C313.099 532.792 315.632 533.365 317.741 533.69C319.264 533.925 320.343 533.993 321.078 533.978C321.078 533.958 321.078 533.938 321.078 533.917C321.078 531.17 319.819 526.771 316.643 521.324C313.553 516.026 308.982 510.316 303.231 505.061C291.658 494.487 276.078 486.423 259.34 486.423C242.602 486.423 227.021 494.487 215.449 505.061C209.698 510.316 205.126 516.026 202.037 521.324C198.86 526.771 197.601 531.17 197.601 533.917ZM197.691 534.92C197.691 534.92 197.689 534.915 197.686 534.904C197.689 534.915 197.691 534.921 197.691 534.92ZM320.985 534.962C320.985 534.962 320.987 534.958 320.989 534.948C320.986 534.957 320.985 534.962 320.985 534.962Z" fill="#FDD102" stroke="black" stroke-width="14.4624"/>
<path d="M364.601 312.679C326.798 309.787 286.362 289.002 270.869 278.971C274.032 300.291 296.649 344.178 361.81 349.164C426.97 354.15 440.969 325.647 451.18 292.769C438.072 300.611 402.405 315.572 364.601 312.679Z" fill="black" stroke="black" stroke-width="6.96511"/>
</g>
<defs>
<linearGradient id="paint0_linear_720_310" x1="367.443" y1="69.9451" x2="367.443" y2="387.056" gradientUnits="userSpaceOnUse">
<stop stop-color="#F2C94C"/>
<stop offset="1" stop-color="#FED202"/>
</linearGradient>
<clipPath id="clip0_720_310">
<rect width="727.638" height="558.867" fill="white"/>
</clipPath>
</defs>
</svg>
