<svg width="720" height="553" viewBox="0 0 720 553" fill="none" xmlns="http://www.w3.org/2000/svg">
<g clip-path="url(#clip0)">
<path d="M412.918 351.84C432.205 365.934 470.778 410.442 470.778 475.721" stroke="black" stroke-width="18"/>
<path d="M532.023 528.388C532.023 532.36 528.858 536.977 516.943 540.707C505.606 544.257 489.383 545.867 470.778 545.867C452.172 545.867 435.949 544.257 424.612 540.707C412.697 536.977 409.532 532.36 409.532 528.388C409.532 525.631 410.792 521.249 413.942 515.848C417.008 510.591 421.542 504.929 427.242 499.72C438.713 489.239 454.166 481.236 470.778 481.236C487.389 481.236 502.842 489.239 514.313 499.72C520.013 504.929 524.547 510.591 527.613 515.848C530.763 521.249 532.023 525.631 532.023 528.388Z" fill="white" stroke="black" stroke-width="14"/>
<path d="M408.843 528.312C408.843 528.384 408.844 528.452 408.845 528.516C409.626 528.558 410.819 528.501 412.556 528.238C414.695 527.913 417.253 527.344 420.308 526.581C422.06 526.144 423.948 525.649 425.956 525.122C437.638 522.056 453.416 517.915 470.43 517.915C487.51 517.915 503.211 522.086 514.769 525.157C516.712 525.673 518.537 526.158 520.233 526.587C523.247 527.349 525.759 527.917 527.854 528.24C529.469 528.489 530.589 528.551 531.332 528.522C531.334 528.457 531.334 528.386 531.334 528.312C531.334 525.555 530.074 521.173 526.925 515.772C523.858 510.515 519.325 504.853 513.624 499.644C502.153 489.163 486.7 481.16 470.089 481.16C453.477 481.16 438.024 489.163 426.553 499.644C420.853 504.853 416.319 510.515 413.253 515.772C410.103 521.173 408.843 525.555 408.843 528.312ZM408.939 529.352C408.94 529.352 408.938 529.347 408.934 529.337C408.937 529.347 408.939 529.352 408.939 529.352ZM531.234 529.394C531.234 529.394 531.236 529.39 531.238 529.381C531.235 529.389 531.234 529.394 531.234 529.394Z" fill="#FDD102" stroke="black" stroke-width="14"/>
<path d="M108.524 125.617C105.87 122.661 100.43 121.341 89.0728 126.526C78.2664 131.46 65.1196 141.101 51.2763 153.532C37.433 165.963 26.4386 178.001 20.3751 188.216C14.0026 198.952 14.7318 204.503 17.3859 207.458C19.2279 209.509 23.0929 211.927 29.0452 213.842C34.8392 215.705 41.9956 216.888 49.7174 216.955C65.2548 217.089 82.099 212.719 94.4587 201.62C106.819 190.521 112.969 174.242 114.501 158.78C115.262 151.095 114.852 143.853 113.621 137.893C112.356 131.77 110.366 127.668 108.524 125.617Z" fill="white" stroke="black" stroke-width="14"/>
<path d="M223.597 260.374C199.83 262.774 141.392 255.431 97.7767 206.861" stroke="black" stroke-width="18"/>
<path d="M20.8132 212.344C20.7647 212.29 20.7197 212.239 20.6781 212.19C21.2316 211.637 22.1565 210.883 23.6256 209.918C25.4337 208.73 27.7171 207.445 30.4995 205.971C32.0952 205.126 33.8308 204.233 35.6777 203.283C46.4179 197.759 60.9234 190.299 73.5825 178.931C86.2906 167.519 95.1858 153.925 101.734 143.918C102.834 142.236 103.869 140.655 104.844 139.203C106.577 136.622 108.066 134.521 109.409 132.881C110.445 131.617 111.237 130.823 111.809 130.347C111.854 130.395 111.901 130.447 111.951 130.502C113.793 132.554 115.783 136.656 117.048 142.779C118.28 148.739 118.689 155.981 117.928 163.666C116.396 179.128 110.246 195.407 97.886 206.506C85.5263 217.605 68.6821 221.975 53.1446 221.841C45.4229 221.774 38.2665 220.591 32.4725 218.727C26.5202 216.813 22.6552 214.395 20.8132 212.344ZM20.1896 211.505C20.1899 211.505 20.1923 211.51 20.1962 211.52C20.1914 211.51 20.1894 211.505 20.1896 211.505ZM111.154 129.765C111.154 129.764 111.158 129.766 111.165 129.771C111.158 129.767 111.154 129.765 111.154 129.765Z" fill="#FDD102" stroke="black" stroke-width="14"/>
<path d="M497.749 252.165C521.289 256.229 580.098 253.009 627.017 207.624" stroke="black" stroke-width="18"/>
<path d="M707.455 215.029C710.31 212.267 711.427 206.782 705.824 195.625C700.494 185.009 690.372 172.229 677.436 158.856C664.501 145.483 652.064 134.942 641.63 129.261C630.666 123.291 625.146 124.226 622.291 126.987C620.31 128.904 618.036 132.856 616.344 138.875C614.697 144.734 613.78 151.93 613.999 159.649C614.441 175.18 619.433 191.851 630.982 203.791C642.532 215.731 659.027 221.274 674.536 222.231C682.243 222.707 689.465 222.029 695.376 220.578C701.448 219.087 705.473 216.946 707.455 215.029Z" fill="white" stroke="black" stroke-width="14"/>
<path d="M707.589 214.994C707.641 214.944 707.69 214.896 707.735 214.85C707.221 214.26 706.352 213.442 704.954 212.376C703.234 211.065 701.046 209.623 698.374 207.957C696.842 207.001 695.173 205.989 693.398 204.912C683.072 198.647 669.127 190.185 657.298 177.956C645.422 165.68 637.504 151.495 631.676 141.053C630.696 139.297 629.775 137.648 628.904 136.131C627.357 133.434 626.019 131.234 624.794 129.504C623.85 128.17 623.116 127.322 622.579 126.807C622.53 126.852 622.479 126.9 622.426 126.952C620.444 128.869 618.171 132.821 616.479 138.84C614.832 144.699 613.914 151.895 614.134 159.614C614.575 175.145 619.567 191.816 631.117 203.756C642.666 215.696 659.162 221.239 674.67 222.196C682.378 222.672 689.6 221.994 695.51 220.543C701.582 219.051 705.608 216.911 707.589 214.994ZM708.27 214.201C708.27 214.201 708.267 214.206 708.262 214.216C708.268 214.206 708.27 214.201 708.27 214.201ZM623.273 126.272C623.273 126.272 623.269 126.274 623.261 126.278C623.269 126.274 623.273 126.272 623.273 126.272Z" fill="#FDD102" stroke="black" stroke-width="14"/>
<path d="M314.999 351.84C295.712 365.934 257.138 410.442 257.138 475.721" stroke="black" stroke-width="18"/>
<path d="M195.893 528.388C195.893 532.36 199.059 536.977 210.973 540.707C222.31 544.257 238.533 545.867 257.139 545.867C275.744 545.867 291.968 544.257 303.304 540.707C315.219 536.977 318.385 532.36 318.385 528.388C318.385 525.631 317.124 521.249 313.975 515.848C310.909 510.591 306.375 504.929 300.674 499.72C289.203 489.239 273.751 481.236 257.139 481.236C240.527 481.236 225.074 489.239 213.604 499.72C207.903 504.929 203.369 510.591 200.303 515.848C197.153 521.249 195.893 525.631 195.893 528.388Z" fill="white" stroke="black" stroke-width="14"/>
<path d="M237.108 382.992L187.408 69.21H539.764L490.805 382.992H237.108Z" fill="url(#paint0_linear)" stroke="black" stroke-width="14"/>
<path d="M590.132 29.1315C590.119 20.7511 583.329 13.9605 574.948 13.9483H153.632H153.586C145.213 13.9611 138.436 20.7588 138.449 29.1315V54.4839C138.461 62.8644 145.252 69.6552 153.632 69.6671H574.948C583.319 69.6301 590.095 62.854 590.132 54.4839V29.1315Z" fill="#F2C94C" stroke="black" stroke-width="14"/>
<path d="M345.407 184.224C345.407 202.229 340.826 218.317 333.659 229.76C326.452 241.265 317.07 247.5 307.453 247.5C297.837 247.5 288.454 241.265 281.248 229.76C274.08 218.317 269.5 202.229 269.5 184.224C269.5 166.218 274.08 150.13 281.248 138.687C288.454 127.182 297.837 120.947 307.453 120.947C317.07 120.947 326.452 127.182 333.659 138.687C340.826 150.13 345.407 166.218 345.407 184.224Z" fill="white" stroke="black" stroke-width="9"/>
<path d="M458.407 184.223C458.407 202.228 453.826 218.316 446.659 229.759C439.452 241.264 430.07 247.499 420.453 247.499C410.837 247.499 401.454 241.264 394.248 229.759C387.08 218.316 382.5 202.228 382.5 184.223C382.5 166.217 387.08 150.129 394.248 138.686C401.454 127.181 410.837 120.946 420.453 120.946C430.07 120.946 439.452 127.181 446.659 138.686C453.826 150.129 458.407 166.217 458.407 184.223Z" fill="white" stroke="black" stroke-width="9"/>
<path d="M458.615 184.223C458.615 202.228 454.034 218.316 446.867 229.759C439.66 241.264 430.278 247.499 420.661 247.499C411.045 247.499 401.662 241.264 394.456 229.759C387.288 218.316 382.708 202.228 382.708 184.223C382.708 166.217 387.288 150.129 394.456 138.686C401.662 127.181 411.045 120.946 420.661 120.946C430.278 120.946 439.66 127.181 446.867 138.686C454.034 150.129 458.615 166.217 458.615 184.223Z" stroke="black" stroke-width="9"/>
<circle cx="421.406" cy="187.946" r="13.4063" fill="black"/>
<circle cx="306.708" cy="187.946" r="13.4063" fill="black"/>
<path d="M345.407 184.223C345.407 202.228 340.826 218.316 333.659 229.759C326.452 241.264 317.07 247.499 307.453 247.499C297.837 247.499 288.454 241.264 281.248 229.759C274.08 218.316 269.5 202.228 269.5 184.223C269.5 166.217 274.08 150.129 281.248 138.686C288.454 127.181 297.837 120.946 307.453 120.946C317.07 120.946 326.452 127.181 333.659 138.686C340.826 150.129 345.407 166.217 345.407 184.223Z" stroke="black" stroke-width="9"/>
<path d="M366.146 307.223C331.309 307.223 292.804 293.942 277.907 287.301C282.3 303.126 306.097 334.776 366.146 334.776C426.194 334.776 437.021 312.572 444.071 287.301C432.611 293.942 400.983 307.223 366.146 307.223Z" fill="black" stroke="black" stroke-width="9.54039"/>
<path d="M195.371 528.312C195.371 528.384 195.372 528.452 195.374 528.516C196.155 528.558 197.347 528.501 199.085 528.238C201.224 527.913 203.781 527.344 206.836 526.581C208.588 526.144 210.476 525.649 212.485 525.122C224.167 522.056 239.944 517.915 256.958 517.915C274.038 517.915 289.739 522.086 301.297 525.157C303.24 525.673 305.066 526.158 306.761 526.587C309.775 527.349 312.287 527.917 314.382 528.24C315.997 528.489 317.117 528.551 317.86 528.522C317.862 528.457 317.863 528.386 317.863 528.312C317.863 525.555 316.603 521.173 313.453 515.772C310.387 510.515 305.853 504.853 300.152 499.644C288.682 489.163 273.229 481.16 256.617 481.16C240.005 481.16 224.552 489.163 213.082 499.644C207.381 504.853 202.847 510.515 199.781 515.772C196.631 521.173 195.371 525.555 195.371 528.312ZM195.468 529.352C195.468 529.352 195.466 529.347 195.462 529.337C195.466 529.347 195.468 529.352 195.468 529.352ZM317.762 529.394C317.763 529.394 317.764 529.39 317.767 529.381C317.764 529.389 317.762 529.394 317.762 529.394Z" fill="#FDD102" stroke="black" stroke-width="14"/>
</g>
<defs>
<linearGradient id="paint0_linear" x1="363.586" y1="69.21" x2="363.586" y2="382.992" gradientUnits="userSpaceOnUse">
<stop stop-color="#F2C94C"/>
<stop offset="1" stop-color="#FED202"/>
</linearGradient>
<clipPath id="clip0">
<rect width="720" height="553" fill="white"/>
</clipPath>
</defs>
</svg>
