<svg width="592" height="1045" viewBox="0 0 592 1045" fill="none" xmlns="http://www.w3.org/2000/svg">
<g filter="url(#filter0_d)">
<mask id="mask0" mask-type="alpha" maskUnits="userSpaceOnUse" x="15" y="10" width="562" height="1016">
<path d="M164.143 139.25C168.874 118.372 178.037 60.352 182.026 33.952C184.019 18.2689 190.196 16.9174 193.035 18.202L358.56 39.2347C370.425 40.7423 371.363 46.1736 370.349 48.7008C364.914 80.1138 354.16 148.844 354.623 172.461C355.203 201.982 354.771 225.832 350.482 259.585C347.051 286.587 330.705 397.958 322.961 450.268C304.568 565.028 293.119 601.336 347.913 673.776C444.164 801.025 459.108 872.905 464.404 899.388C469.7 925.871 467.363 985.162 416.063 1004.45C364.763 1023.74 323.92 1005.74 312.674 1001.54C301.429 997.336 251.133 952.836 212.542 854.393C181.669 775.639 128.95 706.58 106.45 681.896C93.6144 670.218 66.8375 641.109 62.4169 618.098C56.8911 589.334 92.0281 541.833 103.367 520.755C114.707 499.677 115.392 456.112 119.421 424.405C123.45 392.698 140.06 274.247 145.342 244.951C150.623 215.655 158.228 165.348 164.143 139.25Z" fill="#FF0000" stroke="black" stroke-width="1.05923"/>
</mask>
<g mask="url(#mask0)">
<path d="M164.143 139.25C168.874 118.372 178.037 60.352 182.026 33.952C184.019 18.2689 190.196 16.9174 193.035 18.202L358.56 39.2347C370.425 40.7423 371.363 46.1736 370.349 48.7008C364.914 80.1138 354.16 148.844 354.623 172.461C355.203 201.982 354.771 225.832 350.482 259.585C347.051 286.587 330.705 397.958 322.961 450.268C304.568 565.028 293.119 601.336 347.913 673.776C444.164 801.025 459.108 872.905 464.404 899.388C469.7 925.871 467.363 985.162 416.063 1004.45C364.763 1023.74 323.92 1005.74 312.674 1001.54C301.429 997.336 251.133 952.836 212.542 854.393C181.669 775.639 128.95 706.58 106.45 681.896C93.6144 670.218 66.8375 641.109 62.4169 618.098C56.8911 589.334 92.0281 541.833 103.367 520.755C114.707 499.677 115.392 456.112 119.421 424.405C123.45 392.698 140.06 274.247 145.342 244.951C150.623 215.655 158.228 165.348 164.143 139.25Z" fill="#091E09" stroke="black" stroke-width="0.264809"/>
<path d="M143.521 347.027C148.254 347.629 150.932 347.515 154.891 347.044L156.141 337.206C152.926 337.966 149.096 337.934 145.259 337.446C138.352 336.569 137.604 330.177 138.546 322.767C139.488 315.357 141.794 309.483 148.7 310.361C152.537 310.848 156.254 311.775 159.177 313.315L160.427 303.477C156.712 302.031 154.147 301.251 149.414 300.649C135.345 298.862 127.574 306.832 125.756 321.142C123.938 335.451 129.452 345.24 143.521 347.027Z" fill="#FED202"/>
<path d="M319.246 369.355C323.978 369.956 326.657 369.842 330.616 369.371L331.866 359.533C328.65 360.293 324.82 360.261 320.983 359.773C314.077 358.896 313.329 352.504 314.271 345.094C315.212 337.684 317.518 331.81 324.425 332.688C328.262 333.175 331.978 334.102 334.902 335.642L336.152 325.804C332.437 324.358 329.871 323.578 325.139 322.977C311.07 321.189 303.299 329.159 301.481 343.469C299.662 357.778 305.177 367.567 319.246 369.355Z" fill="#FED202"/>
<path d="M247.332 285.419C252.064 286.02 254.743 285.906 258.702 285.436L259.952 275.598C256.736 276.358 252.906 276.325 249.069 275.838C242.162 274.96 241.415 268.569 242.357 261.159C243.298 253.748 245.604 247.875 252.511 248.752C256.348 249.24 260.064 250.166 262.988 251.706L264.238 241.868C260.522 240.423 257.957 239.642 253.225 239.041C239.156 237.253 231.385 245.224 229.566 259.533C227.748 273.843 233.263 283.631 247.332 285.419Z" fill="#FED202"/>
<path d="M229.05 432.693C233.782 433.295 236.461 433.181 240.42 432.71L241.67 422.872C238.454 423.632 234.624 423.6 230.787 423.112C223.88 422.235 223.133 415.843 224.074 408.433C225.016 401.023 227.322 395.149 234.229 396.027C238.066 396.514 241.782 397.441 244.705 398.981L245.956 389.143C242.24 387.697 239.675 386.917 234.943 386.315C220.874 384.528 213.102 392.498 211.284 406.808C209.466 421.117 214.98 430.906 229.05 432.693Z" fill="#FED202"/>
<path d="M309.499 437.891C309.556 437.145 309.613 436.399 309.696 435.455C311.963 438.334 315.04 440.488 318.552 441.619C318.782 441.694 319.029 441.704 319.264 441.647C319.502 441.589 319.718 441.465 319.888 441.29C320.059 441.115 320.176 440.896 320.228 440.659C320.277 440.431 320.265 440.194 320.191 439.972C319.566 437.97 318.62 436.089 317.396 434.403C322.23 435.39 327.261 435.025 331.933 433.324L331.949 433.319L331.965 433.312C332.182 433.225 332.372 433.081 332.515 432.896C332.657 432.711 332.748 432.491 332.777 432.26C332.807 432.029 332.774 431.793 332.682 431.579C332.59 431.364 332.443 431.177 332.254 431.038L332.254 431.038L332.243 431.03C329.029 428.724 325.363 427.149 321.501 426.404C325.819 423.703 329.33 419.85 331.627 415.254L331.637 415.236L331.645 415.217C331.733 415.022 331.772 414.809 331.759 414.595C331.746 414.381 331.681 414.174 331.569 413.991C331.457 413.808 331.301 413.655 331.115 413.545C330.929 413.436 330.719 413.374 330.504 413.366L330.478 413.365L330.453 413.365C325.547 413.404 320.751 414.746 316.543 417.235C319.357 406.762 314.62 397.542 313.647 395.798C313.552 395.621 313.416 395.467 313.251 395.351C313.078 395.228 312.877 395.15 312.666 395.123C312.454 395.096 312.24 395.122 312.042 395.197C311.853 395.269 311.683 395.383 311.547 395.531C310.169 396.975 303.279 404.716 303.352 415.518C299.905 412.049 295.599 409.543 290.859 408.271L290.834 408.264L290.809 408.258C290.598 408.213 290.379 408.22 290.172 408.279C289.965 408.339 289.776 408.448 289.621 408.597C289.467 408.746 289.352 408.931 289.286 409.134C289.22 409.338 289.204 409.554 289.241 409.765L289.244 409.786L289.249 409.807C290.322 414.805 292.738 419.393 296.215 423.081C292.302 422.864 288.377 423.493 284.708 424.935C284.49 425.018 284.299 425.158 284.154 425.34C284.004 425.527 283.91 425.751 283.88 425.988C283.849 426.225 283.885 426.466 283.983 426.685C284.08 426.902 284.235 427.089 284.432 427.224C288.543 430.059 293.345 431.675 298.294 431.916C296.661 433.258 295.254 434.864 294.134 436.674L294.124 436.691L294.114 436.709C294.001 436.907 293.943 437.131 293.943 437.358C293.943 437.586 294.002 437.81 294.116 438.008C294.229 438.206 294.392 438.372 294.59 438.488C294.788 438.604 295.013 438.666 295.242 438.668L295.278 438.668L295.314 438.666C298.998 438.444 302.516 437.127 305.434 434.909C305.277 435.846 305.146 436.583 305.014 437.321L305.012 437.337C304.792 438.569 304.571 439.807 304.234 441.961L304.232 441.976L304.23 441.991C304.208 442.161 304.22 442.334 304.265 442.5C304.31 442.665 304.387 442.821 304.492 442.957C304.597 443.094 304.728 443.208 304.878 443.294C305.027 443.38 305.193 443.436 305.364 443.458L307.626 443.745C307.797 443.767 307.971 443.754 308.138 443.709C308.304 443.663 308.46 443.585 308.596 443.479C308.732 443.373 308.845 443.242 308.93 443.092C309.015 442.943 309.069 442.779 309.091 442.609L309.093 442.594L309.094 442.579C309.307 440.408 309.403 439.155 309.498 437.907L309.499 437.891Z" fill="#2A5F2A" stroke="#2A5F2A" stroke-width="2.11847"/>
<path d="M330.756 290.995C330.813 290.249 330.87 289.503 330.953 288.559C333.22 291.437 336.297 293.591 339.809 294.722C340.039 294.797 340.285 294.807 340.52 294.75C340.759 294.692 340.975 294.568 341.145 294.393C341.315 294.219 341.433 294 341.484 293.762C341.534 293.534 341.521 293.297 341.448 293.076C340.823 291.073 339.877 289.193 338.653 287.507C343.487 288.493 348.517 288.129 353.189 286.428L353.206 286.422L353.221 286.416C353.439 286.328 353.629 286.184 353.772 285.999C353.914 285.814 354.005 285.595 354.034 285.363C354.064 285.132 354.031 284.897 353.939 284.682C353.847 284.467 353.7 284.28 353.511 284.141L353.511 284.141L353.5 284.134C350.286 281.827 346.62 280.253 342.758 279.508C347.076 276.807 350.587 272.953 352.884 268.358L352.893 268.339L352.902 268.321C352.99 268.126 353.029 267.912 353.016 267.698C353.003 267.485 352.938 267.277 352.826 267.094C352.713 266.911 352.558 266.758 352.372 266.649C352.186 266.54 351.976 266.478 351.76 266.469L351.735 266.468L351.71 266.469C346.804 266.508 342.008 267.85 337.799 270.339C340.613 259.866 335.877 250.645 334.904 248.902C334.808 248.724 334.673 248.571 334.508 248.454C334.335 248.332 334.133 248.253 333.922 248.227C333.711 248.2 333.497 248.225 333.299 248.301C333.109 248.372 332.94 248.487 332.804 248.635C331.426 250.079 324.536 257.819 324.609 268.621C321.162 265.153 316.856 262.647 312.116 261.374L312.091 261.367L312.066 261.362C311.855 261.316 311.636 261.323 311.429 261.383C311.221 261.442 311.032 261.551 310.878 261.701C310.724 261.85 310.609 262.034 310.543 262.238C310.476 262.441 310.461 262.658 310.497 262.869L310.501 262.89L310.505 262.91C311.579 267.908 313.995 272.496 317.472 276.185C313.559 275.968 309.634 276.597 305.965 278.039C305.747 278.122 305.556 278.262 305.411 278.443C305.261 278.63 305.166 278.855 305.136 279.092C305.106 279.329 305.142 279.57 305.24 279.788C305.337 280.005 305.492 280.192 305.689 280.328C309.8 283.163 314.602 284.779 319.55 285.02C317.918 286.362 316.511 287.968 315.391 289.778L315.381 289.795L315.371 289.812C315.258 290.01 315.199 290.234 315.2 290.462C315.2 290.689 315.259 290.913 315.372 291.111C315.486 291.31 315.649 291.475 315.847 291.591C316.044 291.708 316.269 291.77 316.499 291.772L316.535 291.772L316.571 291.77C320.255 291.548 323.773 290.231 326.691 288.012C326.534 288.949 326.403 289.687 326.271 290.425L326.269 290.44C326.049 291.672 325.828 292.91 325.491 295.065L325.489 295.08L325.487 295.095C325.465 295.265 325.477 295.438 325.522 295.603C325.567 295.769 325.644 295.924 325.749 296.061C325.854 296.197 325.985 296.312 326.134 296.398C326.284 296.484 326.45 296.539 326.621 296.561L328.883 296.849C329.054 296.87 329.228 296.858 329.395 296.812C329.561 296.766 329.717 296.688 329.853 296.582C329.988 296.476 330.102 296.345 330.187 296.196C330.271 296.047 330.326 295.882 330.348 295.712L330.35 295.697L330.351 295.682C330.564 293.512 330.659 292.258 330.755 291.01L330.756 290.995Z" fill="#2A5F2A" stroke="#2A5F2A" stroke-width="2.11847"/>
<path d="M135.046 415.725C135.103 414.979 135.16 414.233 135.242 413.289C137.509 416.168 140.586 418.322 144.099 419.453C144.329 419.528 144.575 419.538 144.81 419.481C145.048 419.423 145.265 419.299 145.435 419.124C145.605 418.949 145.722 418.73 145.774 418.493C145.823 418.265 145.811 418.028 145.738 417.806C145.112 415.804 144.166 413.923 142.942 412.237C147.777 413.224 152.807 412.859 157.479 411.158L157.495 411.153L157.511 411.146C157.729 411.059 157.919 410.915 158.061 410.73C158.204 410.544 158.294 410.325 158.324 410.094C158.353 409.863 158.32 409.627 158.229 409.413C158.137 409.198 157.989 409.011 157.8 408.872L157.8 408.872L157.79 408.864C154.575 406.558 150.909 404.983 147.048 404.238C151.366 401.537 154.876 397.684 157.174 393.088L157.183 393.07L157.192 393.051C157.28 392.856 157.319 392.643 157.306 392.429C157.292 392.215 157.227 392.008 157.115 391.825C157.003 391.642 156.847 391.489 156.662 391.379C156.476 391.27 156.266 391.208 156.05 391.2L156.025 391.199L156 391.199C151.093 391.238 146.297 392.58 142.089 395.069C144.903 384.596 140.167 375.376 139.193 373.632C139.098 373.455 138.963 373.301 138.797 373.185C138.624 373.062 138.423 372.984 138.212 372.957C138.001 372.93 137.787 372.956 137.588 373.031C137.399 373.103 137.23 373.217 137.093 373.365C135.715 374.809 128.825 382.55 128.898 393.352C125.451 389.883 121.146 387.377 116.406 386.105L116.381 386.098L116.355 386.092C116.144 386.047 115.925 386.054 115.718 386.113C115.511 386.173 115.322 386.282 115.168 386.431C115.013 386.58 114.898 386.765 114.832 386.968C114.766 387.172 114.75 387.388 114.787 387.599L114.791 387.62L114.795 387.641C115.868 392.638 118.285 397.227 121.761 400.915C117.848 400.698 113.924 401.327 110.255 402.769C110.037 402.852 109.845 402.992 109.7 403.174C109.551 403.361 109.456 403.585 109.426 403.822C109.396 404.059 109.431 404.3 109.529 404.519C109.626 404.736 109.782 404.923 109.979 405.058C114.089 407.893 118.891 409.509 123.84 409.75C122.207 411.092 120.801 412.698 119.681 414.508L119.67 414.525L119.66 414.543C119.548 414.741 119.489 414.965 119.489 415.192C119.489 415.42 119.549 415.644 119.662 415.842C119.775 416.04 119.939 416.206 120.136 416.322C120.334 416.438 120.559 416.5 120.789 416.502L120.825 416.502L120.861 416.5C124.545 416.278 128.063 414.961 130.981 412.743C130.824 413.68 130.692 414.417 130.561 415.155L130.558 415.171C130.338 416.403 130.118 417.641 129.781 419.795L129.778 419.81L129.776 419.825C129.755 419.995 129.767 420.168 129.811 420.334C129.856 420.499 129.933 420.655 130.038 420.791C130.143 420.928 130.274 421.042 130.424 421.128C130.574 421.214 130.739 421.27 130.911 421.292L133.172 421.579C133.344 421.601 133.518 421.588 133.684 421.543C133.851 421.497 134.006 421.419 134.142 421.313C134.278 421.207 134.391 421.076 134.476 420.926C134.561 420.777 134.616 420.613 134.637 420.443L134.639 420.428L134.641 420.413C134.853 418.242 134.949 416.989 135.044 415.741L135.046 415.725Z" fill="#2A5F2A" stroke="#2A5F2A" stroke-width="2.11847"/>
<path d="M152.268 266.589C152.325 265.842 152.382 265.097 152.465 264.152C154.732 267.031 157.809 269.185 161.321 270.316C161.551 270.391 161.798 270.401 162.033 270.344C162.271 270.286 162.487 270.162 162.657 269.987C162.828 269.812 162.945 269.594 162.997 269.356C163.046 269.128 163.034 268.891 162.96 268.67C162.335 266.667 161.389 264.787 160.165 263.101C164.999 264.087 170.03 263.722 174.702 262.022L174.718 262.016L174.734 262.009C174.952 261.922 175.141 261.778 175.284 261.593C175.427 261.408 175.517 261.188 175.546 260.957C175.576 260.726 175.543 260.491 175.451 260.276C175.36 260.061 175.212 259.874 175.023 259.735L175.023 259.735L175.012 259.727C171.798 257.421 168.132 255.847 164.27 255.102C168.589 252.401 172.099 248.547 174.396 243.952L174.406 243.933L174.414 243.914C174.502 243.719 174.542 243.506 174.528 243.292C174.515 243.079 174.45 242.871 174.338 242.688C174.226 242.505 174.07 242.352 173.884 242.243C173.698 242.133 173.488 242.072 173.273 242.063L173.247 242.062L173.222 242.062C168.316 242.102 163.52 243.444 159.312 245.932C162.126 235.46 157.389 226.239 156.416 224.495C156.321 224.318 156.185 224.165 156.02 224.048C155.847 223.925 155.646 223.847 155.435 223.82C155.224 223.794 155.009 223.819 154.811 223.894C154.622 223.966 154.452 224.081 154.316 224.229C152.938 225.672 146.048 233.413 146.121 244.215C142.674 240.746 138.368 238.24 133.628 236.968L133.603 236.961L133.578 236.956C133.367 236.91 133.148 236.917 132.941 236.976C132.734 237.036 132.545 237.145 132.39 237.294C132.236 237.444 132.121 237.628 132.055 237.832C131.989 238.035 131.973 238.252 132.01 238.462L132.013 238.483L132.018 238.504C133.091 243.502 135.507 248.09 138.984 251.778C135.071 251.562 131.146 252.19 127.477 253.633C127.259 253.715 127.068 253.855 126.923 254.037C126.773 254.224 126.679 254.449 126.649 254.685C126.618 254.922 126.654 255.163 126.752 255.382C126.849 255.599 127.004 255.786 127.201 255.921C131.312 258.756 136.114 260.372 141.063 260.613C139.43 261.955 138.023 263.562 136.903 265.371L136.893 265.389L136.883 265.406C136.77 265.604 136.712 265.828 136.712 266.055C136.712 266.283 136.771 266.507 136.885 266.705C136.998 266.903 137.161 267.069 137.359 267.185C137.557 267.301 137.782 267.364 138.011 267.365L138.047 267.366L138.083 267.363C141.767 267.141 145.285 265.824 148.203 263.606C148.047 264.543 147.915 265.281 147.783 266.019L147.781 266.034C147.561 267.266 147.34 268.504 147.003 270.658L147.001 270.673L146.999 270.689C146.977 270.859 146.989 271.031 147.034 271.197C147.079 271.363 147.156 271.518 147.261 271.655C147.366 271.791 147.497 271.906 147.647 271.992C147.796 272.078 147.962 272.133 148.133 272.155L150.395 272.442C150.566 272.464 150.74 272.452 150.907 272.406C151.074 272.36 151.229 272.282 151.365 272.176C151.501 272.07 151.614 271.939 151.699 271.79C151.784 271.64 151.838 271.476 151.86 271.306L151.862 271.291L151.863 271.276C152.076 269.106 152.172 267.852 152.267 266.604L152.268 266.589Z" fill="#2A5F2A" stroke="#2A5F2A" stroke-width="2.11847"/>
<path d="M236.303 353.791C236.36 353.044 236.417 352.299 236.499 351.354C238.767 354.233 241.844 356.387 245.356 357.518C245.586 357.593 245.832 357.603 246.067 357.546C246.306 357.488 246.522 357.364 246.692 357.189C246.862 357.015 246.98 356.796 247.031 356.558C247.081 356.33 247.068 356.093 246.995 355.872C246.37 353.869 245.424 351.989 244.2 350.303C249.034 351.289 254.064 350.924 258.736 349.224L258.752 349.218L258.768 349.212C258.986 349.124 259.176 348.98 259.319 348.795C259.461 348.61 259.552 348.39 259.581 348.159C259.61 347.928 259.578 347.693 259.486 347.478C259.394 347.263 259.246 347.076 259.057 346.937L259.057 346.937L259.047 346.93C255.832 344.623 252.167 343.049 248.305 342.304C252.623 339.603 256.134 335.749 258.431 331.154L258.44 331.135L258.449 331.116C258.537 330.922 258.576 330.708 258.563 330.494C258.55 330.281 258.484 330.073 258.372 329.89C258.26 329.707 258.105 329.554 257.919 329.445C257.733 329.336 257.523 329.274 257.307 329.265L257.282 329.264L257.257 329.264C252.351 329.304 247.554 330.646 243.346 333.135C246.16 322.662 241.424 313.441 240.45 311.698C240.355 311.52 240.22 311.367 240.055 311.25C239.881 311.128 239.68 311.049 239.469 311.023C239.258 310.996 239.044 311.021 238.845 311.096C238.656 311.168 238.487 311.283 238.35 311.431C236.973 312.875 230.083 320.615 230.156 331.417C226.708 327.949 222.403 325.443 217.663 324.17L217.638 324.163L217.613 324.158C217.402 324.112 217.183 324.119 216.975 324.179C216.768 324.238 216.579 324.347 216.425 324.497C216.271 324.646 216.156 324.83 216.089 325.034C216.023 325.237 216.008 325.454 216.044 325.665L216.048 325.685L216.052 325.706C217.126 330.704 219.542 335.292 223.019 338.98C219.106 338.764 215.181 339.393 211.512 340.835C211.294 340.918 211.102 341.057 210.957 341.239C210.808 341.426 210.713 341.651 210.683 341.888C210.653 342.124 210.689 342.365 210.787 342.584C210.884 342.801 211.039 342.988 211.236 343.124C215.347 345.959 220.149 347.575 225.097 347.816C223.465 349.157 222.058 350.764 220.938 352.574L220.927 352.591L220.918 352.608C220.805 352.806 220.746 353.03 220.747 353.258C220.747 353.485 220.806 353.709 220.919 353.907C221.033 354.106 221.196 354.271 221.394 354.387C221.591 354.503 221.816 354.566 222.046 354.568L222.082 354.568L222.118 354.566C225.802 354.343 229.32 353.027 232.238 350.808C232.081 351.745 231.95 352.483 231.818 353.221L231.815 353.236C231.596 354.468 231.375 355.706 231.038 357.861L231.036 357.876L231.034 357.891C231.012 358.061 231.024 358.233 231.069 358.399C231.114 358.565 231.191 358.72 231.295 358.857C231.4 358.993 231.532 359.108 231.681 359.194C231.831 359.28 231.997 359.335 232.168 359.357L234.429 359.644C234.601 359.666 234.775 359.654 234.942 359.608C235.108 359.562 235.264 359.484 235.4 359.378C235.535 359.272 235.649 359.141 235.733 358.992C235.818 358.843 235.873 358.678 235.895 358.508L235.896 358.493L235.898 358.478C236.11 356.308 236.206 355.054 236.302 353.806L236.303 353.791Z" fill="#2A5F2A" stroke="#2A5F2A" stroke-width="2.11847"/>
<path d="M255.01 206.575C255.068 205.829 255.125 205.083 255.207 204.139C257.474 207.017 260.551 209.171 264.064 210.302C264.293 210.378 264.54 210.387 264.775 210.33C265.013 210.272 265.23 210.148 265.4 209.974C265.57 209.799 265.687 209.58 265.739 209.342C265.788 209.114 265.776 208.877 265.703 208.656C265.077 206.653 264.131 204.773 262.907 203.087C267.742 204.073 272.772 203.709 277.444 202.008L277.46 202.002L277.476 201.996C277.694 201.908 277.884 201.764 278.026 201.579C278.169 201.394 278.259 201.175 278.289 200.943C278.318 200.712 278.285 200.477 278.194 200.262C278.102 200.047 277.954 199.86 277.765 199.721L277.765 199.721L277.755 199.714C274.54 197.407 270.874 195.833 267.012 195.088C271.331 192.387 274.841 188.533 277.139 183.938L277.148 183.92L277.156 183.901C277.245 183.706 277.284 183.492 277.27 183.279C277.257 183.065 277.192 182.858 277.08 182.675C276.968 182.491 276.812 182.338 276.626 182.229C276.441 182.12 276.23 182.058 276.015 182.049L275.99 182.048L275.964 182.049C271.058 182.088 266.262 183.43 262.054 185.919C264.868 175.446 260.132 166.225 259.158 164.482C259.063 164.304 258.928 164.151 258.762 164.034C258.589 163.912 258.388 163.834 258.177 163.807C257.966 163.78 257.752 163.805 257.553 163.881C257.364 163.952 257.194 164.067 257.058 164.215C255.68 165.659 248.79 173.399 248.863 184.201C245.416 180.733 241.11 178.227 236.371 176.954L236.345 176.947L236.32 176.942C236.109 176.896 235.89 176.904 235.683 176.963C235.476 177.022 235.287 177.132 235.132 177.281C234.978 177.43 234.863 177.615 234.797 177.818C234.731 178.021 234.715 178.238 234.752 178.449L234.755 178.47L234.76 178.49C235.833 183.488 238.25 188.076 241.726 191.765C237.813 191.548 233.888 192.177 230.22 193.619C230.001 193.702 229.81 193.842 229.665 194.023C229.516 194.21 229.421 194.435 229.391 194.672C229.361 194.909 229.396 195.15 229.494 195.368C229.591 195.585 229.746 195.772 229.943 195.908C234.054 198.743 238.856 200.359 243.805 200.6C242.172 201.942 240.765 203.548 239.646 205.358L239.635 205.375L239.625 205.392C239.513 205.59 239.454 205.814 239.454 206.042C239.454 206.269 239.514 206.493 239.627 206.691C239.74 206.89 239.903 207.055 240.101 207.172C240.299 207.288 240.524 207.35 240.753 207.352L240.79 207.352L240.826 207.35C244.51 207.128 248.027 205.811 250.945 203.592C250.789 204.529 250.657 205.267 250.526 206.005L250.523 206.02C250.303 207.253 250.083 208.49 249.746 210.645L249.743 210.66L249.741 210.675C249.72 210.845 249.731 211.018 249.776 211.183C249.821 211.349 249.898 211.504 250.003 211.641C250.108 211.777 250.239 211.892 250.389 211.978C250.539 212.064 250.704 212.12 250.876 212.141L253.137 212.429C253.309 212.45 253.483 212.438 253.649 212.392C253.816 212.346 253.971 212.268 254.107 212.162C254.243 212.056 254.356 211.925 254.441 211.776C254.526 211.627 254.58 211.463 254.602 211.293L254.604 211.277L254.605 211.262C254.818 209.092 254.914 207.838 255.009 206.59L255.01 206.575Z" fill="#2A5F2A" stroke="#2A5F2A" stroke-width="2.11847"/>
<path d="M165.207 200.188C169.939 200.789 172.618 200.675 176.577 200.204L177.827 190.366C174.611 191.126 170.781 191.094 166.944 190.606C160.037 189.729 159.29 183.337 160.232 175.927C161.173 168.517 163.479 162.643 170.386 163.521C174.223 164.008 177.939 164.935 180.863 166.475L182.113 156.637C178.397 155.191 175.832 154.411 171.1 153.81C157.031 152.022 149.26 159.992 147.441 174.302C145.623 188.611 151.138 198.4 165.207 200.188Z" fill="#FED202"/>
<path fill-rule="evenodd" clip-rule="evenodd" d="M546.339 246.239C559.109 247.862 567.19 239.711 568.838 226.74C570.486 213.768 564.701 203.856 551.931 202.233C539.16 200.61 531.08 208.761 529.432 221.732C527.783 234.704 533.568 244.616 546.339 246.239ZM322.88 216.492C319.132 216.939 316.596 217.048 312.116 216.479C298.796 214.787 293.578 205.5 295.303 191.923C297.028 178.345 304.388 170.78 317.707 172.473C322.187 173.042 324.616 173.782 328.133 175.153L326.947 184.487C324.179 183.027 320.661 182.149 317.029 181.687C310.49 180.856 308.305 186.43 307.412 193.461C306.518 200.493 307.224 206.557 313.763 207.388C317.396 207.849 321.022 207.879 324.066 207.157L322.88 216.492ZM342.403 210.258C341.017 213.412 339.79 216.278 338.965 218.887L326.775 217.338C330.589 206.721 342.105 183.022 346.107 176.746L358.6 178.334C360.906 185.411 366.128 211.237 367.166 222.47L354.976 220.921C354.83 218.189 354.359 215.107 353.805 211.706L342.403 210.258ZM345.821 201.404C346.799 198.602 349.842 191.795 351.019 189.384C351.556 192.013 352.799 199.364 353.046 202.322L345.821 201.404ZM384.912 199.07L381.704 224.318L371.108 222.972L376.491 180.608L386.724 181.908C390.33 187.423 397.638 202.537 399.384 207.199L402.346 183.893L412.942 185.239L407.559 227.603L396.962 226.257C394.557 219.044 388.199 205.161 384.912 199.07ZM422.759 229.534L425.967 204.285C429.254 210.377 435.612 224.259 438.018 231.472L448.614 232.819L453.997 190.455L443.401 189.108L440.439 212.415C438.694 207.752 431.385 192.639 427.779 187.123L417.546 185.823L412.163 228.187L422.759 229.534ZM468.507 226.281C467.12 229.435 465.893 232.301 465.068 234.91L452.878 233.361C456.692 222.745 468.208 199.045 472.21 192.77L484.704 194.357C487.009 201.434 492.232 227.26 493.269 238.494L481.079 236.945C480.933 234.212 480.462 231.131 479.908 227.73L468.507 226.281ZM471.592 217.385C472.57 214.583 475.613 207.775 476.79 205.365C477.327 207.993 478.57 215.345 478.816 218.303L471.592 217.385ZM523.523 241.988C519.775 242.435 517.239 242.544 512.759 241.975C499.439 240.283 494.221 230.996 495.946 217.419C497.671 203.841 505.031 196.276 518.35 197.969C522.831 198.538 525.259 199.278 528.776 200.649L527.59 209.983C524.823 208.523 521.304 207.645 517.672 207.183C511.133 206.352 508.948 211.926 508.055 218.957C507.161 225.989 507.867 232.053 514.406 232.884C518.039 233.345 521.665 233.375 524.709 232.653L523.523 241.988ZM541.582 223.28C540.722 230.047 541.782 236.32 547.508 237.048C553.233 237.775 555.828 231.966 556.688 225.2C557.548 218.433 556.488 212.16 550.762 211.432C545.037 210.705 542.442 216.514 541.582 223.28Z" fill="white"/>
<path d="M130.945 500.433C135.677 501.034 138.356 500.92 142.315 500.449L143.565 490.612C140.349 491.371 136.519 491.339 132.682 490.852C125.775 489.974 125.028 483.582 125.969 476.172C126.911 468.762 129.217 462.888 136.124 463.766C139.961 464.253 143.677 465.18 146.601 466.72L147.851 456.882C144.135 455.436 141.57 454.656 136.838 454.055C122.769 452.267 114.998 460.238 113.179 474.547C111.361 488.856 116.875 498.645 130.945 500.433Z" fill="#FED202"/>
<path d="M304.12 522.439C308.853 523.04 311.532 522.926 315.49 522.455L316.74 512.617C313.525 513.377 309.695 513.345 305.858 512.857C298.951 511.98 298.204 505.588 299.145 498.178C300.087 490.768 302.393 484.894 309.299 485.772C313.136 486.259 316.853 487.186 319.776 488.726L321.026 478.888C317.311 477.442 314.746 476.662 310.014 476.061C295.944 474.273 288.173 482.243 286.355 496.553C284.537 510.862 290.051 520.651 304.12 522.439Z" fill="#FED202"/>
<path d="M216.337 507.557C216.394 506.811 216.451 506.065 216.534 505.121C218.801 508 221.878 510.154 225.39 511.285C225.62 511.36 225.866 511.37 226.101 511.313C226.34 511.255 226.556 511.131 226.726 510.956C226.896 510.781 227.014 510.562 227.065 510.325C227.115 510.097 227.102 509.86 227.029 509.638C226.404 507.636 225.458 505.755 224.234 504.069C229.068 505.056 234.099 504.691 238.77 502.99L238.787 502.985L238.803 502.978C239.02 502.891 239.21 502.747 239.353 502.562C239.495 502.377 239.586 502.157 239.615 501.926C239.645 501.695 239.612 501.459 239.52 501.245C239.428 501.03 239.281 500.843 239.092 500.704L239.092 500.704L239.081 500.696C235.867 498.39 232.201 496.815 228.339 496.07C232.657 493.369 236.168 489.516 238.465 484.92L238.475 484.902L238.483 484.883C238.571 484.688 238.61 484.475 238.597 484.261C238.584 484.047 238.519 483.84 238.407 483.657C238.295 483.474 238.139 483.321 237.953 483.211C237.767 483.102 237.557 483.04 237.341 483.032L237.316 483.031L237.291 483.031C232.385 483.071 227.589 484.412 223.38 486.901C226.194 476.428 221.458 467.208 220.485 465.464C220.389 465.287 220.254 465.133 220.089 465.017C219.916 464.894 219.715 464.816 219.503 464.789C219.292 464.762 219.078 464.788 218.88 464.863C218.69 464.935 218.521 465.049 218.385 465.197C217.007 466.641 210.117 474.382 210.19 485.184C206.743 481.715 202.437 479.209 197.697 477.937L197.672 477.93L197.647 477.924C197.436 477.879 197.217 477.886 197.01 477.945C196.802 478.005 196.613 478.114 196.459 478.263C196.305 478.412 196.19 478.597 196.124 478.8C196.057 479.004 196.042 479.22 196.078 479.431L196.082 479.452L196.086 479.473C197.16 484.471 199.576 489.059 203.053 492.747C199.14 492.53 195.215 493.159 191.546 494.601C191.328 494.684 191.137 494.824 190.992 495.006C190.842 495.193 190.748 495.417 190.717 495.654C190.687 495.891 190.723 496.132 190.821 496.351C190.918 496.568 191.073 496.755 191.27 496.89C195.381 499.725 200.183 501.341 205.131 501.582C203.499 502.924 202.092 504.53 200.972 506.34L200.962 506.357L200.952 506.375C200.839 506.573 200.78 506.797 200.781 507.024C200.781 507.252 200.84 507.476 200.953 507.674C201.067 507.872 201.23 508.038 201.428 508.154C201.626 508.27 201.85 508.332 202.08 508.334L202.116 508.334L202.152 508.332C205.836 508.11 209.354 506.793 212.272 504.575C212.115 505.512 211.984 506.249 211.852 506.987L211.85 507.003C211.63 508.235 211.409 509.473 211.072 511.627L211.07 511.642L211.068 511.657C211.046 511.827 211.058 512 211.103 512.166C211.148 512.331 211.225 512.487 211.33 512.623C211.435 512.76 211.566 512.874 211.715 512.96C211.865 513.046 212.031 513.102 212.202 513.124L214.464 513.411C214.635 513.433 214.809 513.42 214.976 513.375C215.142 513.329 215.298 513.251 215.434 513.145C215.569 513.039 215.683 512.908 215.768 512.758C215.852 512.609 215.907 512.445 215.929 512.275L215.931 512.26L215.932 512.245C216.145 510.074 216.24 508.821 216.336 507.573L216.337 507.557Z" fill="#2A5F2A" stroke="#2A5F2A" stroke-width="2.11847"/>
<path d="M205.294 805.635C209.64 803.668 211.862 802.167 214.987 799.692L210.898 790.658C208.557 792.99 205.278 794.969 201.754 796.564C195.411 799.435 191.426 794.382 188.346 787.577C185.266 780.772 184.153 774.56 190.495 771.69C194.019 770.095 197.67 768.937 200.967 768.717L196.878 759.682C192.956 760.397 190.362 761.077 186.016 763.044C173.096 768.892 170.652 779.752 176.6 792.893C182.548 806.034 192.373 811.483 205.294 805.635Z" fill="#FED202"/>
<path d="M366.671 732.592C371.017 730.625 373.239 729.124 376.364 726.649L372.275 717.615C369.934 719.947 366.655 721.926 363.131 723.521C356.788 726.392 352.803 721.339 349.723 714.534C346.643 707.729 345.53 701.517 351.872 698.647C355.396 697.052 359.047 695.894 362.344 695.674L358.255 686.639C354.333 687.354 351.739 688.034 347.393 690.001C334.473 695.849 332.029 706.709 337.977 719.85C343.925 732.991 353.75 738.44 366.671 732.592Z" fill="#FED202"/>
<path d="M261.443 698.772C265.789 696.805 268.011 695.304 271.136 692.829L267.047 683.795C264.706 686.127 261.427 688.106 257.903 689.7C251.56 692.571 247.575 687.519 244.495 680.714C241.415 673.908 240.302 667.697 246.644 664.826C250.168 663.231 253.819 662.074 257.116 661.854L253.027 652.819C249.105 653.534 246.511 654.213 242.165 656.18C229.245 662.028 226.801 672.889 232.749 686.03C238.697 699.171 248.522 704.62 261.443 698.772Z" fill="#FED202"/>
<path d="M323.024 833.793C327.37 831.826 329.592 830.326 332.717 827.851L328.628 818.816C326.287 821.148 323.008 823.127 319.484 824.722C313.141 827.593 309.156 822.54 306.076 815.735C302.996 808.93 301.883 802.719 308.225 799.848C311.749 798.253 315.4 797.095 318.697 796.875L314.608 787.841C310.686 788.556 308.092 789.235 303.746 791.202C290.826 797.05 288.382 807.91 294.33 821.051C300.278 834.193 310.103 839.641 323.024 833.793Z" fill="#FED202"/>
<path d="M394.269 796.076C393.926 795.411 393.584 794.746 393.16 793.898C396.599 795.163 400.349 795.385 403.933 794.508C404.168 794.452 404.383 794.331 404.553 794.159C404.726 793.985 404.845 793.766 404.899 793.528C404.952 793.29 404.937 793.043 404.857 792.813C404.78 792.593 404.645 792.398 404.466 792.247C402.884 790.869 401.094 789.763 399.168 788.968C403.802 787.276 407.896 784.33 410.984 780.434L410.995 780.42L411.005 780.406C411.145 780.218 411.231 779.996 411.256 779.763C411.28 779.531 411.242 779.297 411.146 779.084C411.05 778.872 410.899 778.689 410.708 778.554C410.518 778.419 410.294 778.337 410.06 778.317L410.06 778.317L410.047 778.316C406.101 778.036 402.154 778.616 398.474 780.004C400.737 775.441 401.708 770.32 401.258 765.202L401.256 765.181L401.253 765.161C401.226 764.948 401.148 764.746 401.025 764.571C400.901 764.396 400.737 764.253 400.546 764.156C400.354 764.059 400.142 764.01 399.926 764.014C399.711 764.019 399.499 764.076 399.311 764.182L399.289 764.194L399.268 764.208C395.109 766.812 391.727 770.467 389.446 774.792C386.357 764.397 377.492 759.024 375.749 758.049C375.575 757.948 375.38 757.888 375.178 757.875C374.966 757.862 374.754 757.901 374.56 757.988C374.366 758.076 374.197 758.21 374.067 758.378C373.943 758.538 373.859 758.725 373.821 758.922C373.403 760.874 371.59 771.077 377.311 780.239C372.558 779.091 367.577 779.212 362.873 780.611L362.849 780.619L362.824 780.627C362.62 780.699 362.438 780.82 362.292 780.979C362.147 781.138 362.043 781.33 361.99 781.538C361.937 781.746 361.935 781.964 361.986 782.172C362.036 782.379 362.136 782.572 362.278 782.733L362.292 782.748L362.306 782.764C365.839 786.458 370.301 789.1 375.194 790.421C371.748 792.286 368.734 794.878 366.365 798.029C366.222 798.213 366.133 798.433 366.104 798.664C366.075 798.901 366.112 799.142 366.21 799.36C366.309 799.577 366.465 799.764 366.663 799.899C366.86 800.033 367.09 800.111 367.329 800.123C372.315 800.384 377.252 799.245 381.594 796.858C380.906 798.856 380.549 800.961 380.544 803.089L380.544 803.109L380.544 803.129C380.552 803.357 380.619 803.579 380.739 803.772C380.858 803.966 381.026 804.126 381.226 804.235C381.427 804.345 381.653 804.4 381.882 804.395C382.111 804.391 382.335 804.326 382.532 804.207L382.563 804.189L382.592 804.168C385.614 802.048 387.92 799.084 389.244 795.666C389.601 796.546 389.876 797.243 390.15 797.94L390.156 797.955C390.614 799.12 391.075 800.289 391.916 802.301L391.922 802.315L391.929 802.329C391.999 802.485 392.1 802.626 392.225 802.744C392.35 802.861 392.497 802.954 392.658 803.015C392.818 803.076 392.99 803.105 393.163 803.1C393.335 803.095 393.505 803.055 393.663 802.984L395.74 802.044C395.897 801.973 396.039 801.871 396.157 801.745C396.275 801.618 396.366 801.47 396.426 801.309C396.487 801.148 396.514 800.976 396.509 800.805C396.503 800.633 396.463 800.465 396.392 800.309L396.386 800.295L396.379 800.281C395.423 798.321 394.848 797.203 394.276 796.09L394.269 796.076Z" fill="#2A5F2A" stroke="#2A5F2A" stroke-width="2.11847"/>
<path d="M335.42 659.815C335.077 659.149 334.735 658.484 334.311 657.636C337.75 658.901 341.5 659.123 345.084 658.246C345.319 658.19 345.534 658.07 345.704 657.898C345.877 657.724 345.996 657.505 346.049 657.267C346.103 657.029 346.088 656.781 346.008 656.551C345.93 656.331 345.796 656.136 345.617 655.986C344.035 654.608 342.245 653.501 340.318 652.707C344.953 651.014 349.047 648.068 352.135 644.172L352.146 644.158L352.156 644.145C352.296 643.956 352.382 643.734 352.407 643.501C352.431 643.269 352.393 643.035 352.297 642.822C352.201 642.61 352.05 642.427 351.859 642.292C351.669 642.157 351.445 642.075 351.211 642.056L351.211 642.056L351.198 642.055C347.252 641.774 343.305 642.354 339.625 643.742C341.888 639.179 342.859 634.058 342.409 628.94L342.407 628.919L342.404 628.899C342.377 628.687 342.299 628.484 342.175 628.309C342.052 628.134 341.888 627.992 341.697 627.895C341.505 627.797 341.293 627.748 341.077 627.753C340.861 627.757 340.65 627.814 340.462 627.92L340.44 627.933L340.419 627.946C336.26 630.55 332.878 634.205 330.597 638.53C327.508 628.135 318.643 622.763 316.9 621.788C316.726 621.686 316.53 621.627 316.329 621.614C316.117 621.6 315.904 621.639 315.711 621.727C315.517 621.814 315.348 621.948 315.218 622.116C315.094 622.277 315.01 622.463 314.971 622.661C314.554 624.612 312.741 634.815 318.462 643.978C313.709 642.829 308.728 642.95 304.024 644.35L303.999 644.357L303.975 644.366C303.771 644.437 303.589 644.558 303.443 644.717C303.298 644.876 303.194 645.068 303.141 645.276C303.088 645.484 303.086 645.702 303.136 645.91C303.187 646.118 303.287 646.31 303.429 646.471L303.442 646.487L303.457 646.502C306.99 650.197 311.452 652.839 316.345 654.159C312.899 656.025 309.885 658.616 307.516 661.767C307.373 661.952 307.283 662.171 307.255 662.402C307.226 662.64 307.263 662.88 307.361 663.098C307.46 663.315 307.616 663.502 307.814 663.637C308.011 663.771 308.241 663.849 308.48 663.861C313.466 664.122 318.403 662.983 322.744 660.596C322.057 662.594 321.7 664.699 321.694 666.828L321.694 666.848L321.695 666.868C321.703 667.095 321.77 667.317 321.89 667.511C322.009 667.704 322.177 667.864 322.377 667.973C322.578 668.083 322.803 668.138 323.033 668.134C323.262 668.129 323.486 668.064 323.683 667.945L323.714 667.927L323.743 667.906C326.765 665.787 329.071 662.822 330.395 659.404C330.752 660.284 331.026 660.981 331.301 661.679L331.307 661.693C331.765 662.858 332.226 664.028 333.067 666.039L333.073 666.054L333.079 666.067C333.15 666.224 333.251 666.364 333.376 666.482C333.501 666.6 333.648 666.692 333.808 666.753C333.969 666.814 334.141 666.843 334.314 666.838C334.486 666.833 334.656 666.794 334.814 666.722L336.891 665.782C337.048 665.711 337.19 665.609 337.308 665.483C337.426 665.357 337.517 665.208 337.577 665.047C337.638 664.886 337.665 664.715 337.659 664.543C337.653 664.372 337.614 664.203 337.543 664.047L337.537 664.033L337.53 664.019C336.574 662.059 335.999 660.941 335.427 659.828L335.42 659.815Z" fill="#2A5F2A" stroke="#2A5F2A" stroke-width="2.11847"/>
<path d="M234.063 868.59C233.721 867.924 233.379 867.259 232.954 866.412C236.394 867.676 240.143 867.899 243.727 867.022C243.962 866.966 244.177 866.845 244.348 866.673C244.52 866.499 244.64 866.28 244.693 866.042C244.746 865.804 244.732 865.556 244.651 865.327C244.574 865.107 244.439 864.911 244.261 864.761C242.679 863.383 240.888 862.277 238.962 861.482C243.597 859.789 247.69 856.843 250.779 852.947L250.79 852.934L250.8 852.92C250.94 852.731 251.026 852.509 251.05 852.277C251.075 852.045 251.037 851.81 250.941 851.598C250.845 851.386 250.694 851.202 250.503 851.067C250.312 850.932 250.088 850.851 249.854 850.831L249.854 850.831L249.842 850.83C245.895 850.55 241.948 851.129 238.268 852.518C240.531 847.955 241.503 842.833 241.052 837.715L241.05 837.695L241.048 837.674C241.021 837.462 240.942 837.26 240.819 837.085C240.696 836.91 240.532 836.767 240.34 836.67C240.149 836.573 239.936 836.524 239.721 836.528C239.505 836.532 239.294 836.59 239.105 836.696L239.084 836.708L239.062 836.721C234.904 839.325 231.521 842.981 229.241 847.305C226.151 836.911 217.286 831.538 215.543 830.563C215.37 830.462 215.174 830.402 214.972 830.389C214.76 830.376 214.548 830.414 214.354 830.502C214.16 830.59 213.991 830.724 213.861 830.892C213.738 831.052 213.654 831.238 213.615 831.436C213.198 833.388 211.384 843.59 217.106 852.753C212.352 851.605 207.372 851.726 202.668 853.125L202.643 853.132L202.619 853.141C202.415 853.213 202.232 853.333 202.087 853.493C201.941 853.652 201.838 853.844 201.784 854.052C201.731 854.26 201.73 854.477 201.78 854.685C201.83 854.893 201.93 855.086 202.072 855.246L202.086 855.262L202.101 855.277C205.633 858.972 210.095 861.614 214.989 862.934C211.542 864.8 208.529 867.392 206.159 870.542C206.017 870.727 205.927 870.947 205.899 871.177C205.869 871.415 205.906 871.656 206.005 871.873C206.103 872.091 206.26 872.277 206.458 872.412C206.654 872.546 206.884 872.624 207.123 872.637C212.11 872.898 217.047 871.758 221.388 869.371C220.7 871.369 220.344 873.475 220.338 875.603L220.338 875.623L220.339 875.643C220.347 875.871 220.414 876.092 220.533 876.286C220.653 876.48 220.821 876.639 221.021 876.749C221.221 876.858 221.447 876.914 221.676 876.909C221.906 876.904 222.13 876.84 222.326 876.721L222.357 876.702L222.387 876.681C225.408 874.562 227.715 871.597 229.038 868.179C229.396 869.059 229.67 869.757 229.945 870.454L229.95 870.469C230.409 871.633 230.869 872.803 231.711 874.815L231.717 874.829L231.723 874.843C231.794 874.999 231.894 875.14 232.019 875.257C232.144 875.375 232.291 875.467 232.452 875.528C232.613 875.59 232.785 875.619 232.957 875.613C233.13 875.608 233.3 875.569 233.457 875.498L235.534 874.558C235.692 874.486 235.833 874.385 235.951 874.258C236.069 874.132 236.161 873.984 236.221 873.823C236.281 873.661 236.309 873.49 236.303 873.319C236.297 873.147 236.258 872.978 236.187 872.822L236.181 872.808L236.174 872.795C235.218 870.835 234.643 869.717 234.07 868.604L234.063 868.59Z" fill="#2A5F2A" stroke="#2A5F2A" stroke-width="2.11847"/>
<path d="M170.598 732.536C170.256 731.871 169.914 731.206 169.489 730.358C172.929 731.623 176.678 731.845 180.262 730.968C180.498 730.912 180.713 730.791 180.883 730.619C181.056 730.445 181.175 730.226 181.228 729.988C181.282 729.75 181.267 729.502 181.186 729.273C181.109 729.053 180.974 728.857 180.796 728.707C179.214 727.329 177.423 726.223 175.497 725.428C180.132 723.736 184.226 720.79 187.314 716.894L187.325 716.88L187.335 716.866C187.475 716.678 187.561 716.456 187.585 716.223C187.61 715.991 187.572 715.756 187.476 715.544C187.38 715.332 187.229 715.149 187.038 715.014C186.847 714.879 186.623 714.797 186.39 714.777L186.39 714.777L186.377 714.776C182.43 714.496 178.483 715.076 174.803 716.464C177.067 711.901 178.038 706.78 177.587 701.662L177.586 701.641L177.583 701.621C177.556 701.408 177.477 701.206 177.354 701.031C177.231 700.856 177.067 700.713 176.875 700.616C176.684 700.519 176.471 700.47 176.256 700.474C176.04 700.479 175.829 700.536 175.641 700.642L175.619 700.654L175.597 700.668C171.439 703.272 168.057 706.927 165.776 711.252C162.686 700.857 153.821 695.484 152.079 694.509C151.905 694.408 151.709 694.348 151.507 694.335C151.295 694.322 151.083 694.361 150.889 694.448C150.695 694.536 150.526 694.67 150.397 694.838C150.273 694.998 150.189 695.185 150.15 695.382C149.733 697.334 147.919 707.537 153.641 716.699C148.887 715.551 143.907 715.672 139.203 717.071L139.178 717.079L139.154 717.087C138.95 717.159 138.767 717.28 138.622 717.439C138.476 717.598 138.373 717.79 138.32 717.998C138.266 718.206 138.265 718.424 138.315 718.631C138.365 718.839 138.466 719.032 138.607 719.192L138.621 719.208L138.636 719.224C142.168 722.918 146.63 725.56 151.524 726.881C148.077 728.746 145.064 731.338 142.694 734.489C142.552 734.673 142.462 734.893 142.434 735.124C142.405 735.361 142.441 735.602 142.54 735.82C142.638 736.037 142.795 736.224 142.993 736.359C143.189 736.493 143.419 736.571 143.658 736.583C148.645 736.844 153.582 735.705 157.923 733.317C157.235 735.316 156.879 737.421 156.873 739.549L156.873 739.569L156.874 739.589C156.882 739.817 156.949 740.039 157.068 740.232C157.188 740.426 157.356 740.586 157.556 740.695C157.756 740.805 157.982 740.86 158.211 740.855C158.441 740.851 158.665 740.786 158.862 740.667L158.892 740.648L158.922 740.628C161.943 738.508 164.25 735.544 165.573 732.126C165.931 733.006 166.205 733.703 166.48 734.4L166.485 734.415C166.944 735.58 167.404 736.749 168.246 738.761L168.252 738.775L168.258 738.789C168.329 738.945 168.429 739.086 168.554 739.204C168.679 739.321 168.826 739.414 168.987 739.475C169.148 739.536 169.32 739.565 169.492 739.56C169.665 739.555 169.835 739.515 169.993 739.444L172.069 738.504C172.227 738.433 172.369 738.331 172.487 738.205C172.604 738.078 172.696 737.93 172.756 737.769C172.816 737.608 172.844 737.436 172.838 737.265C172.832 737.093 172.793 736.925 172.722 736.769L172.716 736.755L172.709 736.741C171.753 734.781 171.178 733.663 170.605 732.55L170.598 732.536Z" fill="#2A5F2A" stroke="#2A5F2A" stroke-width="2.11847"/>
<path d="M287.869 762.789C287.527 762.124 287.185 761.459 286.76 760.611C290.2 761.875 293.949 762.098 297.533 761.221C297.769 761.165 297.984 761.044 298.154 760.872C298.327 760.698 298.446 760.479 298.499 760.241C298.553 760.003 298.538 759.755 298.457 759.526C298.38 759.306 298.245 759.11 298.067 758.96C296.485 757.582 294.694 756.476 292.768 755.681C297.403 753.989 301.497 751.043 304.585 747.147L304.596 747.133L304.606 747.119C304.746 746.931 304.832 746.708 304.856 746.476C304.881 746.244 304.843 746.009 304.747 745.797C304.651 745.585 304.5 745.402 304.309 745.267C304.118 745.132 303.894 745.05 303.661 745.03L303.661 745.03L303.648 745.029C299.701 744.749 295.754 745.328 292.074 746.717C294.338 742.154 295.309 737.033 294.858 731.915L294.857 731.894L294.854 731.874C294.827 731.661 294.748 731.459 294.625 731.284C294.502 731.109 294.338 730.966 294.146 730.869C293.955 730.772 293.742 730.723 293.527 730.727C293.311 730.732 293.1 730.789 292.912 730.895L292.89 730.907L292.868 730.92C288.71 733.524 285.328 737.18 283.047 741.505C279.957 731.11 271.092 725.737 269.35 724.762C269.176 724.661 268.98 724.601 268.778 724.588C268.566 724.575 268.354 724.614 268.16 724.701C267.966 724.789 267.797 724.923 267.668 725.091C267.544 725.251 267.46 725.438 267.421 725.635C267.004 727.587 265.19 737.789 270.912 746.952C266.158 745.804 261.178 745.925 256.474 747.324L256.449 747.332L256.425 747.34C256.221 747.412 256.038 747.533 255.893 747.692C255.747 747.851 255.644 748.043 255.591 748.251C255.537 748.459 255.536 748.676 255.586 748.884C255.636 749.092 255.737 749.285 255.878 749.445L255.892 749.461L255.907 749.476C259.439 753.171 263.901 755.813 268.795 757.134C265.348 758.999 262.335 761.591 259.965 764.741C259.823 764.926 259.733 765.146 259.705 765.377C259.676 765.614 259.712 765.855 259.811 766.072C259.909 766.29 260.066 766.477 260.264 766.611C260.46 766.746 260.69 766.823 260.929 766.836C265.916 767.097 270.853 765.958 275.194 763.57C274.506 765.569 274.15 767.674 274.144 769.802L274.144 769.822L274.145 769.842C274.153 770.07 274.22 770.291 274.339 770.485C274.459 770.679 274.627 770.838 274.827 770.948C275.027 771.057 275.253 771.113 275.482 771.108C275.712 771.104 275.936 771.039 276.132 770.92L276.163 770.901L276.193 770.881C279.214 768.761 281.521 765.797 282.844 762.378C283.202 763.259 283.476 763.956 283.751 764.653L283.756 764.668C284.215 765.833 284.675 767.002 285.517 769.014L285.523 769.028L285.529 769.042C285.6 769.198 285.7 769.339 285.825 769.457C285.95 769.574 286.097 769.666 286.258 769.728C286.419 769.789 286.591 769.818 286.763 769.813C286.936 769.807 287.106 769.768 287.264 769.697L289.34 768.757C289.498 768.686 289.64 768.584 289.758 768.457C289.875 768.331 289.967 768.183 290.027 768.022C290.087 767.86 290.115 767.689 290.109 767.518C290.103 767.346 290.064 767.178 289.993 767.022L289.987 767.008L289.98 766.994C289.024 765.034 288.449 763.916 287.876 762.803L287.869 762.789Z" fill="#2A5F2A" stroke="#2A5F2A" stroke-width="2.11847"/>
<path d="M274.951 942.892C279.297 940.925 281.519 939.424 284.644 936.949L280.555 927.915C278.214 930.247 274.935 932.226 271.411 933.821C265.069 936.691 261.083 931.639 258.003 924.834C254.923 918.028 253.81 911.817 260.153 908.946C263.676 907.351 267.327 906.194 270.624 905.974L266.535 896.939C262.613 897.654 260.019 898.333 255.673 900.3C242.753 906.149 240.309 917.009 246.257 930.15C252.205 943.291 262.031 948.74 274.951 942.892Z" fill="#FED202"/>
<path d="M433.985 870.909C438.331 868.942 440.553 867.442 443.678 864.967L439.589 855.932C437.248 858.264 433.969 860.243 430.445 861.838C424.102 864.709 420.117 859.656 417.037 852.851C413.957 846.046 412.844 839.835 419.186 836.964C422.71 835.369 426.361 834.211 429.658 833.991L425.569 824.957C421.647 825.672 419.053 826.351 414.707 828.318C401.787 834.166 399.343 845.027 405.291 858.168C411.239 871.309 421.064 876.757 433.985 870.909Z" fill="#FED202"/>
<path d="M351.416 904.226C351.074 903.56 350.732 902.895 350.307 902.048C353.747 903.312 357.496 903.535 361.08 902.658C361.316 902.601 361.53 902.481 361.701 902.309C361.873 902.135 361.993 901.916 362.046 901.678C362.099 901.44 362.085 901.192 362.004 900.962C361.927 900.742 361.792 900.547 361.614 900.397C360.032 899.019 358.241 897.913 356.315 897.118C360.95 895.425 365.043 892.479 368.132 888.583L368.143 888.57L368.153 888.556C368.293 888.367 368.379 888.145 368.403 887.913C368.428 887.68 368.39 887.446 368.294 887.234C368.198 887.021 368.047 886.838 367.856 886.703C367.665 886.568 367.441 886.486 367.207 886.467L367.207 886.467L367.195 886.466C363.248 886.186 359.301 886.765 355.621 888.153C357.884 883.59 358.856 878.469 358.405 873.351L358.403 873.331L358.401 873.31C358.374 873.098 358.295 872.895 358.172 872.72C358.049 872.545 357.885 872.403 357.693 872.306C357.502 872.208 357.289 872.159 357.074 872.164C356.858 872.168 356.647 872.226 356.459 872.331L356.437 872.344L356.415 872.357C352.257 874.961 348.874 878.617 346.594 882.941C343.504 872.547 334.639 867.174 332.896 866.199C332.723 866.098 332.527 866.038 332.325 866.025C332.113 866.011 331.901 866.05 331.707 866.138C331.513 866.226 331.344 866.359 331.214 866.528C331.091 866.688 331.007 866.874 330.968 867.072C330.551 869.023 328.737 879.226 334.459 888.389C329.705 887.24 324.725 887.361 320.021 888.761L319.996 888.768L319.972 888.777C319.768 888.848 319.585 888.969 319.44 889.128C319.294 889.287 319.191 889.48 319.137 889.688C319.084 889.895 319.083 890.113 319.133 890.321C319.183 890.529 319.283 890.721 319.425 890.882L319.439 890.898L319.454 890.913C322.986 894.608 327.448 897.25 332.342 898.57C328.895 900.436 325.882 903.027 323.512 906.178C323.37 906.363 323.28 906.582 323.252 906.813C323.222 907.051 323.259 907.291 323.358 907.509C323.456 907.727 323.613 907.913 323.811 908.048C324.007 908.182 324.237 908.26 324.476 908.272C329.463 908.533 334.4 907.394 338.741 905.007C338.053 907.005 337.697 909.11 337.691 911.239L337.691 911.259L337.692 911.279C337.7 911.506 337.767 911.728 337.886 911.922C338.006 912.115 338.174 912.275 338.374 912.384C338.574 912.494 338.8 912.55 339.029 912.545C339.259 912.54 339.483 912.475 339.679 912.357L339.71 912.338L339.74 912.317C342.761 910.198 345.068 907.233 346.391 903.815C346.749 904.695 347.023 905.392 347.298 906.09L347.303 906.104C347.762 907.269 348.222 908.439 349.064 910.451L349.07 910.465L349.076 910.479C349.147 910.635 349.247 910.776 349.372 910.893C349.497 911.011 349.644 911.103 349.805 911.164C349.966 911.225 350.138 911.254 350.31 911.249C350.483 911.244 350.653 911.205 350.81 911.133L352.887 910.193C353.045 910.122 353.187 910.02 353.304 909.894C353.422 909.768 353.514 909.62 353.574 909.458C353.634 909.297 353.662 909.126 353.656 908.954C353.65 908.783 353.611 908.614 353.54 908.458L353.534 908.444L353.527 908.43C352.571 906.471 351.996 905.353 351.423 904.24L351.416 904.226Z" fill="#2A5F2A" stroke="#2A5F2A" stroke-width="2.11847"/>
<path d="M45.2611 656.617C49.053 657.098 51.1995 657.007 54.3717 656.63L55.3733 648.747C52.7966 649.356 49.7277 649.33 46.6531 648.939C41.1189 648.236 40.52 643.115 41.2745 637.177C42.0289 631.239 43.8767 626.533 49.4109 627.236C52.4855 627.626 55.4633 628.369 57.8059 629.603L58.8076 621.72C55.8305 620.561 53.7751 619.936 49.9831 619.454C38.7096 618.022 32.4828 624.409 31.0258 635.875C29.5689 647.341 33.9876 655.184 45.2611 656.617Z" fill="#FED202"/>
<path d="M1.28706 705.482C1.24342 706.005 1.20866 706.459 1.17389 706.914L1.17296 706.926C1.09643 707.927 1.01948 708.933 0.849 710.674L0.847513 710.69L0.84559 710.705C0.824824 710.868 0.772258 711.026 0.690695 711.17C0.609155 711.313 0.500121 711.439 0.369507 711.541C0.238883 711.643 0.0892655 711.718 -0.0709265 711.762C-0.231187 711.806 -0.398661 711.818 -0.563705 711.797L-2.37571 711.567C-2.54075 711.546 -2.69991 711.493 -2.84405 711.41C-2.98815 711.327 -3.11419 711.217 -3.21518 711.086C-3.31617 710.954 -3.39015 710.805 -3.43324 710.646C-3.47632 710.486 -3.48773 710.32 -3.46696 710.157L-3.46503 710.142L-3.46268 710.127C-3.19223 708.398 -3.0151 707.404 -2.83894 706.416L-2.83679 706.404C-2.75655 705.954 -2.67643 705.505 -2.58738 704.985C-4.87223 706.601 -7.57094 707.559 -10.3894 707.729L-10.4255 707.731L-10.4616 707.731C-10.6826 707.729 -10.899 707.669 -11.0892 707.558C-11.2794 707.446 -11.4365 707.286 -11.5455 707.096C-11.6543 706.905 -11.7114 706.69 -11.7116 706.471C-11.7119 706.252 -11.6553 706.037 -11.5472 705.847L-11.5373 705.829L-11.5267 705.812C-10.7102 704.492 -9.70587 703.306 -8.5495 702.288C-12.3675 702.009 -16.0594 700.718 -19.2399 698.525M1.28706 705.482L-18.6401 697.652M1.28706 705.482C3.09283 707.618 5.46598 709.219 8.15267 710.085C8.37402 710.157 8.61128 710.167 8.83775 710.112C9.06733 710.056 9.27574 709.936 9.4396 709.768C9.60341 709.6 9.71635 709.389 9.76613 709.16C9.81375 708.941 9.80193 708.714 9.73187 708.501C9.27617 707.043 8.6113 705.664 7.76176 704.407C11.5154 705.08 15.3962 704.752 19.0116 703.436L19.0277 703.431L19.0437 703.424C19.2532 703.34 19.4358 703.201 19.573 703.023C19.7101 702.845 19.797 702.634 19.8253 702.412C19.8535 702.19 19.8221 701.964 19.7339 701.757C19.6456 701.55 19.5035 701.37 19.3216 701.237L19.3217 701.237L19.3113 701.229C16.8524 699.465 14.0672 698.23 11.13 697.591M1.28706 705.482L11.13 697.591M-19.2399 698.525C-19.2404 698.525 -19.2409 698.524 -19.2414 698.524L-18.6401 697.652M-19.2399 698.525C-19.2392 698.525 -19.2384 698.526 -19.2377 698.526L-18.6401 697.652M-19.2399 698.525C-19.4302 698.394 -19.5802 698.214 -19.6741 698.004C-19.7683 697.794 -19.8025 697.562 -19.7736 697.334C-19.7446 697.105 -19.6534 696.889 -19.5096 696.709C-19.3701 696.535 -19.1861 696.4 -18.9764 696.32C-18.979 696.321 -18.9817 696.322 -18.9843 696.323L-18.5965 697.309C-18.63 697.321 -18.6595 697.342 -18.6818 697.37C-18.7041 697.398 -18.7183 697.432 -18.7228 697.467C-18.7273 697.503 -18.7219 697.539 -18.7073 697.571C-18.6927 697.604 -18.6695 697.632 -18.6401 697.652M11.13 697.591C14.4228 695.424 17.1032 692.414 18.8833 688.853L18.8926 688.835L18.9011 688.816C18.9858 688.629 19.0235 688.423 19.0108 688.218C18.9981 688.013 18.9353 687.813 18.8276 687.637C18.7198 687.461 18.5701 687.314 18.3913 687.208C18.2125 687.103 18.0104 687.044 17.8028 687.036L17.7777 687.035L17.7525 687.035C13.9518 687.065 10.233 688.062 6.93542 689.915M-17.9336 698.118C-18.0129 698.193 -18.1061 698.253 -18.2087 698.295C-18.2179 698.298 -18.2272 698.302 -18.2366 698.305L-18.2225 698.3L-18.2086 698.295C-18.0938 698.249 -17.9785 698.205 -17.863 698.162C-17.8866 698.148 -17.9101 698.133 -17.9336 698.118Z" fill="#FED202" stroke="#FED202" stroke-width="2.11847"/>
<path d="M18.497 586.413C18.4534 586.937 18.4186 587.391 18.3839 587.846L18.3829 587.858C18.3064 588.858 18.2294 589.865 18.059 591.606L18.0575 591.621L18.0556 591.636C18.0348 591.8 17.9822 591.958 17.9007 592.101C17.8191 592.245 17.7101 592.371 17.5795 592.473C17.4488 592.575 17.2992 592.65 17.139 592.694C16.9788 592.738 16.8113 592.75 16.6463 592.729L14.8343 592.499C14.6692 592.478 14.5101 592.424 14.3659 592.342C14.2218 592.259 14.0958 592.148 13.9948 592.017C13.8938 591.886 13.8198 591.736 13.7767 591.577C13.7336 591.418 13.7222 591.252 13.743 591.088L13.7449 591.073L13.7473 591.058C14.0177 589.33 14.1949 588.336 14.371 587.348L14.3732 587.336C14.4534 586.886 14.5335 586.436 14.6226 585.916C12.3377 587.532 9.63902 588.491 6.82054 588.661L6.78449 588.663L6.74837 588.663C6.5274 588.661 6.31099 588.601 6.12072 588.489C5.93052 588.377 5.77343 588.218 5.6645 588.027C5.55562 587.837 5.49855 587.621 5.49831 587.403C5.49808 587.184 5.55469 586.969 5.66277 586.778L5.6727 586.761L5.68329 586.744C6.4998 585.424 7.50409 584.238 8.66046 583.22C4.84243 582.941 1.15056 581.65 -2.02996 579.456M18.497 586.413L-1.4301 578.583M18.497 586.413C20.3028 588.549 22.6759 590.151 25.3626 591.016C25.584 591.089 25.8212 591.098 26.0477 591.043C26.2773 590.987 26.4857 590.868 26.6496 590.7C26.8134 590.531 26.9263 590.321 26.9761 590.092C27.0237 589.873 27.0119 589.645 26.9418 589.433C26.4861 587.974 25.8213 586.596 24.9717 585.339C28.7254 586.011 32.6061 585.684 36.2215 584.368L36.2377 584.362L36.2536 584.356C36.4632 584.272 36.6458 584.133 36.7829 583.955C36.92 583.777 37.007 583.566 37.0352 583.344C37.0635 583.121 37.0321 582.895 36.9438 582.689C36.8556 582.482 36.7135 582.302 36.5316 582.168L36.5316 582.168L36.5213 582.161C34.0623 580.397 31.2772 579.162 28.34 578.523M18.497 586.413L28.34 578.523M-2.02996 579.456C-2.03046 579.456 -2.03096 579.456 -2.03146 579.455L-1.4301 578.583M-2.02996 579.456C-2.02921 579.457 -2.02846 579.458 -2.02771 579.458L-1.4301 578.583M-2.02996 579.456C-2.22028 579.326 -2.37025 579.145 -2.46413 578.936C-2.55835 578.725 -2.59258 578.493 -2.5636 578.265C-2.53461 578.037 -2.44344 577.821 -2.29959 577.641C-2.16011 577.466 -1.97614 577.332 -1.76642 577.252C-1.76908 577.253 -1.77173 577.254 -1.77439 577.255L-1.38653 578.241C-1.42002 578.253 -1.44954 578.274 -1.47183 578.302C-1.49412 578.33 -1.5083 578.363 -1.51281 578.399C-1.51732 578.434 -1.51198 578.47 -1.49739 578.503C-1.48279 578.535 -1.4595 578.563 -1.4301 578.583M28.34 578.523C31.6328 576.355 34.3131 573.346 36.0933 569.785L36.1025 569.767L36.1111 569.748C36.1958 569.56 36.2335 569.355 36.2207 569.15C36.208 568.944 36.1453 568.745 36.0375 568.569C35.9297 568.393 35.7801 568.245 35.6013 568.14C35.4225 568.035 35.2203 567.976 35.0128 567.967L34.9877 567.966L34.9625 567.967C31.1618 567.997 27.4429 568.994 24.1454 570.846M-0.723684 579.05C-0.80289 579.125 -0.896107 579.185 -0.998713 579.226C-1.00795 579.23 -1.01726 579.233 -1.02664 579.237L-1.01259 579.232L-0.998678 579.226C-0.883791 579.181 -0.768561 579.137 -0.653004 579.094C-0.676592 579.079 -0.700149 579.064 -0.723684 579.05Z" fill="#FED202" stroke="#FED202" stroke-width="2.11847"/>
<path d="M37.2763 471.357C37.2327 471.88 37.1979 472.334 37.1632 472.789L37.1622 472.801C37.0857 473.802 37.0087 474.808 36.8383 476.549L36.8368 476.565L36.8348 476.58C36.8141 476.743 36.7615 476.901 36.68 477.045C36.5984 477.188 36.4894 477.314 36.3588 477.416C36.2281 477.518 36.0785 477.593 35.9183 477.637C35.7581 477.681 35.5906 477.693 35.4256 477.672L33.6136 477.442C33.4485 477.421 33.2893 477.368 33.1452 477.285C33.0011 477.202 32.8751 477.092 32.7741 476.961C32.6731 476.829 32.5991 476.68 32.556 476.521C32.5129 476.361 32.5015 476.195 32.5223 476.032L32.5242 476.017L32.5266 476.002C32.797 474.273 32.9742 473.279 33.1503 472.291L33.1525 472.279C33.2327 471.829 33.3128 471.38 33.4019 470.86C31.117 472.476 28.4183 473.434 25.5998 473.604L25.5638 473.606L25.5277 473.606C25.3067 473.604 25.0903 473.544 24.9 473.433C24.7098 473.321 24.5527 473.161 24.4438 472.971C24.3349 472.78 24.2778 472.565 24.2776 472.346C24.2774 472.127 24.334 471.912 24.4421 471.722L24.452 471.704L24.4626 471.687C25.2791 470.367 26.2834 469.181 27.4398 468.163C23.6217 467.884 19.9299 466.593 16.7493 464.4M37.2763 471.357L17.3492 463.527M37.2763 471.357C39.0821 473.493 41.4552 475.094 44.1419 475.96C44.3633 476.032 44.6005 476.042 44.827 475.987C45.0566 475.931 45.265 475.811 45.4289 475.643C45.5927 475.475 45.7056 475.264 45.7554 475.035C45.803 474.816 45.7912 474.589 45.7211 474.376C45.2654 472.918 44.6006 471.539 43.751 470.282C47.5047 470.955 51.3854 470.627 55.0008 469.311L55.017 469.306L55.0329 469.299C55.2425 469.215 55.4251 469.076 55.5622 468.898C55.6993 468.72 55.7863 468.509 55.8145 468.287C55.8428 468.065 55.8114 467.839 55.7231 467.632C55.6349 467.425 55.4928 467.245 55.3109 467.112L55.3109 467.112L55.3006 467.104C52.8416 465.34 50.0565 464.105 47.1193 463.466M37.2763 471.357L47.1193 463.466M16.7493 464.4C16.7488 464.4 16.7483 464.399 16.7478 464.399L17.3492 463.527M16.7493 464.4C16.7501 464.4 16.7508 464.401 16.7516 464.401L17.3492 463.527M16.7493 464.4C16.559 464.269 16.409 464.089 16.3152 463.879C16.2209 463.669 16.1867 463.437 16.2157 463.209C16.2447 462.98 16.3359 462.764 16.4797 462.584C16.6192 462.41 16.8032 462.275 17.0129 462.195C17.0102 462.196 17.0076 462.197 17.0049 462.198L17.3928 463.184C17.3593 463.196 17.3298 463.217 17.3075 463.245C17.2852 463.273 17.271 463.307 17.2665 463.342C17.262 463.378 17.2673 463.414 17.2819 463.446C17.2965 463.479 17.3198 463.507 17.3492 463.527M47.1193 463.466C50.4121 461.299 53.0924 458.289 54.8726 454.728L54.8818 454.71L54.8904 454.691C54.9751 454.504 55.0128 454.298 55 454.093C54.9873 453.888 54.9246 453.688 54.8168 453.512C54.709 453.336 54.5594 453.189 54.3806 453.083C54.2018 452.978 53.9996 452.919 53.7921 452.911L53.767 452.91L53.7418 452.91C49.9411 452.94 46.2222 453.937 42.9247 455.79M18.0556 463.993C17.9764 464.068 17.8832 464.128 17.7806 464.17C17.7713 464.173 17.762 464.177 17.7527 464.18L17.7667 464.175L17.7806 464.17C17.8955 464.124 18.0107 464.08 18.1263 464.037C18.1027 464.023 18.0791 464.008 18.0556 463.993Z" fill="#FED202" stroke="#FED202" stroke-width="2.11847"/>
<path d="M62.6361 538.956C66.428 539.438 68.5745 539.347 71.7467 538.97L72.7483 531.087C70.1716 531.696 67.1027 531.67 64.0281 531.279C58.4939 530.576 57.895 525.454 58.6495 519.517C59.4039 513.579 61.2517 508.872 66.7859 509.576C69.8605 509.966 72.8383 510.709 75.1809 511.943L76.1826 504.06C73.2055 502.901 71.1501 502.276 67.3581 501.794C56.0846 500.362 49.8578 506.748 48.4008 518.214C46.9439 529.68 51.3626 537.524 62.6361 538.956Z" fill="#FED202"/>
<path d="M336.74 513.854C340.532 514.336 342.678 514.244 345.85 513.867L346.852 505.984C344.275 506.593 341.206 506.567 338.132 506.177C332.597 505.473 331.998 500.352 332.753 494.414C333.507 488.476 335.355 483.77 340.889 484.473C343.964 484.864 346.942 485.606 349.284 486.84L350.286 478.957C347.309 477.799 345.254 477.174 341.462 476.692C330.188 475.259 323.961 481.646 322.504 493.112C321.047 504.578 325.466 512.421 336.74 513.854Z" fill="#FED202"/>
<path d="M378.693 698.986C382.485 699.468 384.632 699.376 387.804 698.999L388.805 691.116C386.229 691.725 383.16 691.699 380.085 691.308C374.551 690.605 373.952 685.484 374.707 679.546C375.461 673.608 377.309 668.902 382.843 669.605C385.918 669.996 388.895 670.738 391.238 671.972L392.24 664.089C389.263 662.931 387.207 662.305 383.415 661.824C372.142 660.391 365.915 666.778 364.458 678.244C363.001 689.71 367.42 697.553 378.693 698.986Z" fill="#FED202"/>
<path d="M393.683 581.022C397.475 581.504 399.621 581.412 402.794 581.035L403.795 573.152C401.218 573.761 398.15 573.735 395.075 573.345C389.541 572.641 388.942 567.52 389.696 561.582C390.451 555.644 392.299 550.938 397.833 551.641C400.907 552.032 403.885 552.774 406.228 554.008L407.229 546.125C404.252 544.967 402.197 544.341 398.405 543.86C387.132 542.427 380.905 548.814 379.448 560.28C377.991 571.746 382.409 579.589 393.683 581.022Z" fill="#FED202"/>
<path d="M415.232 681.341C415.188 681.865 415.153 682.319 415.119 682.773L415.118 682.786C415.041 683.786 414.964 684.792 414.794 686.534L414.792 686.549L414.79 686.564C414.77 686.727 414.717 686.885 414.636 687.029C414.554 687.172 414.445 687.299 414.314 687.4C414.184 687.502 414.034 687.578 413.874 687.622C413.714 687.666 413.546 687.678 413.381 687.657L411.569 687.426C411.404 687.405 411.245 687.352 411.101 687.269C410.957 687.187 410.831 687.076 410.73 686.945C410.629 686.814 410.555 686.664 410.512 686.505C410.469 686.346 410.457 686.18 410.478 686.016L410.48 686.001L410.482 685.986C410.753 684.257 410.93 683.264 411.106 682.276L411.108 682.264C411.188 681.814 411.268 681.364 411.357 680.844C409.073 682.46 406.374 683.418 403.555 683.588L403.519 683.591L403.483 683.59C403.262 683.589 403.046 683.529 402.856 683.417C402.665 683.305 402.508 683.146 402.399 682.955C402.29 682.765 402.233 682.549 402.233 682.33C402.233 682.112 402.29 681.896 402.398 681.706L402.408 681.688L402.418 681.671C403.235 680.352 404.239 679.165 405.395 678.148C401.577 677.869 397.885 676.577 394.705 674.384M415.232 681.341L395.305 673.511M415.232 681.341C417.038 683.477 419.411 685.079 422.097 685.944C422.319 686.017 422.556 686.026 422.783 685.971C423.012 685.915 423.221 685.796 423.384 685.627C423.548 685.459 423.661 685.248 423.711 685.02C423.759 684.801 423.747 684.573 423.677 684.361C423.221 682.902 422.556 681.523 421.707 680.267C425.46 680.939 429.341 680.612 432.956 679.296L432.973 679.29L432.988 679.283C433.198 679.199 433.381 679.061 433.518 678.883C433.655 678.705 433.742 678.494 433.77 678.271C433.798 678.049 433.767 677.823 433.679 677.616C433.59 677.41 433.448 677.23 433.266 677.096L433.266 677.096L433.256 677.089C430.797 675.324 428.012 674.09 425.075 673.451M415.232 681.341L425.075 673.451M394.705 674.384C394.704 674.384 394.704 674.384 394.703 674.383L395.305 673.511M394.705 674.384C394.706 674.385 394.706 674.385 394.707 674.386L395.305 673.511M394.705 674.384C394.515 674.254 394.365 674.073 394.271 673.864C394.177 673.653 394.142 673.421 394.171 673.193C394.2 672.965 394.291 672.749 394.435 672.569C394.575 672.394 394.759 672.259 394.968 672.18C394.966 672.181 394.963 672.182 394.96 672.183L395.348 673.168C395.315 673.18 395.285 673.202 395.263 673.23C395.241 673.257 395.227 673.291 395.222 673.326C395.218 673.362 395.223 673.398 395.237 673.431C395.252 673.463 395.275 673.491 395.305 673.511M425.075 673.451C428.368 671.283 431.048 668.273 432.828 664.713L432.837 664.694L432.846 664.675C432.931 664.488 432.968 664.283 432.956 664.077C432.943 663.872 432.88 663.672 432.772 663.496C432.665 663.32 432.515 663.173 432.336 663.068C432.157 662.963 431.955 662.903 431.748 662.895L431.723 662.894L431.697 662.894C427.897 662.925 424.178 663.922 420.88 665.774M396.011 673.977C395.932 674.053 395.839 674.113 395.736 674.154C395.727 674.158 395.718 674.161 395.708 674.165L395.722 674.159L395.736 674.154C395.851 674.109 395.966 674.065 396.082 674.022C396.058 674.007 396.035 673.992 396.011 673.977Z" fill="#FED202" stroke="#FED202" stroke-width="2.11847"/>
<path d="M418.924 638.681C418.881 639.205 418.846 639.659 418.811 640.113L418.81 640.125C418.734 641.126 418.657 642.132 418.486 643.874L418.485 643.889L418.483 643.904C418.462 644.067 418.409 644.225 418.328 644.369C418.246 644.512 418.137 644.639 418.007 644.74C417.876 644.842 417.726 644.917 417.566 644.961C417.406 645.006 417.239 645.018 417.074 644.997L415.261 644.766C415.096 644.745 414.937 644.692 414.793 644.609C414.649 644.526 414.523 644.416 414.422 644.285C414.321 644.154 414.247 644.004 414.204 643.845C414.161 643.685 414.149 643.519 414.17 643.356L414.172 643.341L414.175 643.326C414.445 641.597 414.622 640.604 414.798 639.616L414.8 639.604C414.881 639.154 414.961 638.704 415.05 638.184C412.765 639.8 410.066 640.758 407.248 640.928L407.212 640.93L407.176 640.93C406.955 640.928 406.738 640.868 406.548 640.757C406.358 640.645 406.201 640.486 406.092 640.295C405.983 640.104 405.926 639.889 405.926 639.67C405.925 639.451 405.982 639.236 406.09 639.046L406.1 639.028L406.111 639.011C406.927 637.692 407.931 636.505 409.088 635.488C405.27 635.208 401.578 633.917 398.397 631.724M418.924 638.681L398.997 630.851M418.924 638.681C420.73 640.817 423.103 642.419 425.79 643.284C426.011 643.356 426.248 643.366 426.475 643.311C426.705 643.255 426.913 643.136 427.077 642.967C427.241 642.799 427.354 642.588 427.403 642.359C427.451 642.141 427.439 641.913 427.369 641.7C426.913 640.242 426.249 638.863 425.399 637.607C429.153 638.279 433.033 637.952 436.649 636.636L436.665 636.63L436.681 636.623C436.89 636.539 437.073 636.401 437.21 636.223C437.347 636.045 437.434 635.834 437.462 635.611C437.491 635.389 437.459 635.163 437.371 634.956C437.283 634.75 437.141 634.57 436.959 634.436L436.959 634.436L436.949 634.428C434.49 632.664 431.704 631.429 428.767 630.791M418.924 638.681L428.767 630.791M398.397 631.724C398.397 631.724 398.396 631.723 398.396 631.723L398.997 630.851M398.397 631.724C398.398 631.725 398.399 631.725 398.4 631.726L398.997 630.851M398.397 631.724C398.207 631.593 398.057 631.413 397.963 631.203C397.869 630.993 397.835 630.761 397.864 630.533C397.893 630.305 397.984 630.089 398.128 629.908C398.267 629.734 398.451 629.599 398.661 629.519C398.658 629.52 398.656 629.521 398.653 629.522L399.041 630.508C399.007 630.52 398.978 630.541 398.955 630.569C398.933 630.597 398.919 630.631 398.914 630.666C398.91 630.702 398.915 630.738 398.93 630.77C398.944 630.803 398.968 630.831 398.997 630.851M428.767 630.791C432.06 628.623 434.74 625.613 436.521 622.053L436.53 622.034L436.538 622.015C436.623 621.828 436.661 621.622 436.648 621.417C436.635 621.212 436.573 621.012 436.465 620.836C436.357 620.66 436.207 620.513 436.029 620.408C435.85 620.303 435.648 620.243 435.44 620.235L435.415 620.234L435.39 620.234C431.589 620.265 427.87 621.261 424.573 623.114M399.704 631.317C399.624 631.393 399.531 631.453 399.429 631.494C399.419 631.497 399.41 631.501 399.401 631.504L399.415 631.499L399.429 631.494C399.543 631.449 399.659 631.405 399.774 631.361C399.751 631.347 399.727 631.332 399.704 631.317Z" fill="#FED202" stroke="#FED202" stroke-width="2.11847"/>
<path d="M330.953 567.568C330.909 568.092 330.874 568.546 330.839 569.001L330.838 569.013C330.762 570.014 330.685 571.02 330.515 572.761L330.513 572.776L330.511 572.792C330.49 572.955 330.438 573.113 330.356 573.256C330.275 573.4 330.166 573.526 330.035 573.628C329.904 573.73 329.755 573.805 329.595 573.849C329.434 573.893 329.267 573.905 329.102 573.884L327.29 573.654C327.125 573.633 326.966 573.58 326.821 573.497C326.677 573.414 326.551 573.304 326.45 573.173C326.349 573.041 326.275 572.892 326.232 572.732C326.189 572.573 326.178 572.407 326.199 572.244L326.2 572.228L326.203 572.213C326.473 570.485 326.65 569.491 326.827 568.503L326.829 568.491C326.909 568.041 326.989 567.592 327.078 567.072C324.793 568.687 322.095 569.646 319.276 569.816L319.24 569.818L319.204 569.818C318.983 569.816 318.767 569.756 318.576 569.644C318.386 569.533 318.229 569.373 318.12 569.183C318.011 568.992 317.954 568.777 317.954 568.558C317.954 568.339 318.01 568.124 318.118 567.933L318.128 567.916L318.139 567.899C318.955 566.579 319.96 565.393 321.116 564.375C317.298 564.096 313.606 562.805 310.426 560.612M330.953 567.568L311.025 559.739M330.953 567.568C332.758 569.705 335.132 571.306 337.818 572.171C338.04 572.244 338.277 572.253 338.503 572.198C338.733 572.143 338.941 572.023 339.105 571.855C339.269 571.687 339.382 571.476 339.432 571.247C339.479 571.028 339.467 570.801 339.397 570.588C338.942 569.13 338.277 567.751 337.427 566.494C341.181 567.167 345.062 566.839 348.677 565.523L348.693 565.517L348.709 565.511C348.919 565.427 349.101 565.288 349.238 565.11C349.376 564.932 349.463 564.721 349.491 564.499C349.519 564.277 349.488 564.051 349.399 563.844C349.311 563.637 349.169 563.457 348.987 563.324L348.987 563.323L348.977 563.316C346.518 561.552 343.733 560.317 340.796 559.678M330.953 567.568L340.796 559.678M310.426 560.612C310.425 560.611 310.425 560.611 310.424 560.611L311.025 559.739M310.426 560.612C310.426 560.612 310.427 560.613 310.428 560.613L311.025 559.739M310.426 560.612C310.235 560.481 310.085 560.301 309.991 560.091C309.897 559.881 309.863 559.649 309.892 559.421C309.921 559.192 310.012 558.976 310.156 558.796C310.295 558.621 310.479 558.487 310.689 558.407C310.686 558.408 310.684 558.409 310.681 558.41L311.069 559.396C311.036 559.408 311.006 559.429 310.984 559.457C310.961 559.485 310.947 559.519 310.943 559.554C310.938 559.59 310.944 559.626 310.958 559.658C310.973 559.691 310.996 559.719 311.025 559.739M340.796 559.678C344.088 557.511 346.769 554.501 348.549 550.94L348.558 550.922L348.567 550.903C348.651 550.716 348.689 550.51 348.676 550.305C348.664 550.099 348.601 549.9 348.493 549.724C348.385 549.548 348.236 549.4 348.057 549.295C347.878 549.19 347.676 549.131 347.468 549.123L347.443 549.122L347.418 549.122C343.617 549.152 339.898 550.149 336.601 552.001M311.732 560.205C311.653 560.28 311.559 560.34 311.457 560.381C311.448 560.385 311.438 560.389 311.429 560.392L311.443 560.387L311.457 560.382C311.572 560.336 311.687 560.292 311.803 560.249C311.779 560.234 311.755 560.22 311.732 560.205Z" fill="#FED202" stroke="#FED202" stroke-width="2.11847"/>
<path d="M448.433 515.365C445.832 513.818 442.951 512.826 439.97 512.441C443.065 510 445.478 506.771 446.946 503.072L446.954 503.052L446.961 503.033C447.029 502.839 447.049 502.631 447.019 502.427C446.989 502.224 446.909 502.03 446.787 501.864C446.664 501.698 446.503 501.564 446.315 501.475C446.128 501.385 445.922 501.343 445.714 501.353L445.689 501.354L445.664 501.357C441.88 501.713 438.26 503.024 435.133 505.152C436.424 496.742 432.124 489.891 431.236 488.579C431.13 488.417 430.988 488.282 430.82 488.184C430.644 488.08 430.444 488.022 430.239 488.013C430.035 488.005 429.831 488.047 429.647 488.136C429.472 488.22 429.319 488.344 429.201 488.496C428.21 489.731 423.369 496.207 423.946 504.665C421.005 502.284 417.505 500.677 413.762 500.01L413.736 500.005L413.71 500.002C413.504 499.975 413.295 500 413.101 500.074C412.907 500.148 412.735 500.269 412.6 500.424C412.464 500.58 412.369 500.766 412.323 500.967C412.276 501.167 412.279 501.376 412.331 501.575L412.337 501.595L412.343 501.615C413.504 505.404 415.632 508.803 418.498 511.484C415.506 511.645 412.568 512.414 409.866 513.754C409.663 513.852 409.492 514.001 409.368 514.187C409.24 514.379 409.167 514.602 409.158 514.832C409.149 515.062 409.203 515.29 409.315 515.492C409.426 515.692 409.59 515.858 409.79 515.972C413.147 517.885 416.937 518.856 420.765 518.807C419.7 519.92 418.801 521.188 418.101 522.573L418.092 522.591L418.084 522.609C417.992 522.808 417.954 523.027 417.973 523.245C417.992 523.463 418.067 523.673 418.192 523.853C418.317 524.034 418.487 524.179 418.686 524.274C418.886 524.369 419.106 524.411 419.327 524.393L419.363 524.391L419.398 524.385C422.192 523.975 424.799 522.788 426.937 520.983C426.892 521.509 426.851 521.963 426.81 522.419L426.809 522.431C426.718 523.43 426.626 524.435 426.505 526.181L426.504 526.196L426.503 526.211C426.497 526.376 426.522 526.54 426.579 526.695C426.635 526.85 426.722 526.993 426.834 527.115C426.946 527.237 427.081 527.336 427.231 527.406C427.382 527.476 427.545 527.516 427.711 527.523L429.536 527.597C429.703 527.604 429.868 527.577 430.024 527.52C430.18 527.462 430.323 527.374 430.444 527.262C430.566 527.149 430.663 527.014 430.732 526.864C430.801 526.714 430.84 526.552 430.847 526.388L430.848 526.372L430.848 526.357C430.868 524.608 430.859 523.599 430.849 522.595L430.849 522.583C430.845 522.127 430.841 521.672 430.839 521.146C432.822 523.12 435.324 524.512 438.075 525.144C438.301 525.197 438.538 525.186 438.759 525.112C438.983 525.037 439.18 524.9 439.329 524.718C439.478 524.536 439.572 524.317 439.602 524.085C439.631 523.863 439.6 523.637 439.512 523.431C438.933 522.017 438.152 520.7 437.198 519.521C440.996 519.869 444.834 519.211 448.323 517.59L448.339 517.583L448.354 517.575C448.556 517.473 448.726 517.319 448.847 517.13C448.969 516.941 449.037 516.723 449.046 516.5C449.056 516.276 449.005 516.053 448.899 515.855C448.794 515.656 448.637 515.489 448.444 515.372L448.444 515.372L448.433 515.365Z" fill="#FED202" stroke="#FED202" stroke-width="2.11847"/>
<path d="M128.863 985.626C132.655 986.108 134.801 986.017 137.973 985.64L138.975 977.757C136.398 978.366 133.329 978.34 130.255 977.949C124.72 977.246 124.122 972.124 124.876 966.187C125.631 960.249 127.478 955.542 133.012 956.246C136.087 956.636 139.065 957.379 141.407 958.613L142.409 950.73C139.432 949.571 137.377 948.946 133.585 948.464C122.311 947.032 116.084 953.418 114.627 964.884C113.17 976.35 117.589 984.194 128.863 985.626Z" fill="#FED202"/>
<path d="M249.214 1000.92C253.006 1001.4 255.153 1001.31 258.325 1000.93L259.326 993.049C256.75 993.658 253.681 993.632 250.606 993.241C245.072 992.538 244.473 987.416 245.228 981.479C245.982 975.541 247.83 970.834 253.364 971.538C256.439 971.928 259.416 972.671 261.759 973.905L262.761 966.022C259.784 964.863 257.728 964.238 253.936 963.756C242.663 962.324 236.436 968.71 234.979 980.176C233.522 991.642 237.941 999.486 249.214 1000.92Z" fill="#FED202"/>
<path d="M188.182 933.229C191.974 933.711 194.121 933.619 197.293 933.242L198.295 925.359C195.718 925.968 192.649 925.942 189.575 925.552C184.04 924.848 183.441 919.727 184.196 913.789C184.95 907.851 186.798 903.145 192.332 903.848C195.407 904.239 198.385 904.981 200.727 906.215L201.729 898.332C198.752 897.174 196.696 896.549 192.905 896.067C181.631 894.634 175.404 901.021 173.947 912.487C172.49 923.953 176.909 931.796 188.182 933.229Z" fill="#FED202"/>
<path d="M180.354 1052.1C184.146 1052.58 186.292 1052.49 189.464 1052.12L190.466 1044.23C187.889 1044.84 184.82 1044.82 181.746 1044.43C176.212 1043.72 175.613 1038.6 176.367 1032.66C177.122 1026.73 178.969 1022.02 184.504 1022.72C187.578 1023.11 190.556 1023.86 192.899 1025.09L193.9 1017.21C190.923 1016.05 188.868 1015.42 185.076 1014.94C173.802 1013.51 167.576 1019.89 166.119 1031.36C164.662 1042.83 169.08 1050.67 180.354 1052.1Z" fill="#FED202"/>
<path d="M272.405 1058.32C272.362 1058.84 272.327 1059.3 272.292 1059.75L272.291 1059.76C272.215 1060.76 272.138 1061.77 271.967 1063.51L271.966 1063.53L271.964 1063.54C271.943 1063.7 271.89 1063.86 271.809 1064.01C271.727 1064.15 271.618 1064.28 271.488 1064.38C271.357 1064.48 271.207 1064.55 271.047 1064.6C270.887 1064.64 270.72 1064.65 270.554 1064.63L268.742 1064.4C268.577 1064.38 268.418 1064.33 268.274 1064.25C268.13 1064.16 268.004 1064.05 267.903 1063.92C267.802 1063.79 267.728 1063.64 267.685 1063.48C267.642 1063.32 267.63 1063.16 267.651 1062.99L267.653 1062.98L267.655 1062.96C267.926 1061.23 268.103 1060.24 268.279 1059.25L268.281 1059.24C268.362 1058.79 268.442 1058.34 268.531 1057.82C266.246 1059.44 263.547 1060.39 260.729 1060.56L260.693 1060.57L260.657 1060.57C260.436 1060.57 260.219 1060.51 260.029 1060.39C259.839 1060.28 259.682 1060.12 259.573 1059.93C259.464 1059.74 259.407 1059.53 259.407 1059.31C259.406 1059.09 259.463 1058.87 259.571 1058.68L259.581 1058.67L259.591 1058.65C260.408 1057.33 261.412 1056.14 262.569 1055.12C258.751 1054.85 255.059 1053.55 251.878 1051.36M272.405 1058.32L252.478 1050.49M272.405 1058.32C274.211 1060.45 276.584 1062.06 279.271 1062.92C279.492 1062.99 279.729 1063 279.956 1062.95C280.185 1062.89 280.394 1062.77 280.558 1062.6C280.722 1062.44 280.835 1062.22 280.884 1062C280.932 1061.78 280.92 1061.55 280.85 1061.34C280.394 1059.88 279.729 1058.5 278.88 1057.24C282.634 1057.92 286.514 1057.59 290.13 1056.27L290.146 1056.27L290.162 1056.26C290.371 1056.18 290.554 1056.04 290.691 1055.86C290.828 1055.68 290.915 1055.47 290.943 1055.25C290.972 1055.03 290.94 1054.8 290.852 1054.59C290.764 1054.39 290.622 1054.21 290.44 1054.07L290.44 1054.07L290.43 1054.07C287.971 1052.3 285.185 1051.07 282.248 1050.43M272.405 1058.32L282.248 1050.43M251.878 1051.36C251.878 1051.36 251.877 1051.36 251.877 1051.36L252.478 1050.49M251.878 1051.36C251.879 1051.36 251.88 1051.36 251.88 1051.36L252.478 1050.49M251.878 1051.36C251.688 1051.23 251.538 1051.05 251.444 1050.84C251.35 1050.63 251.316 1050.4 251.345 1050.17C251.374 1049.94 251.465 1049.73 251.609 1049.55C251.748 1049.37 251.932 1049.24 252.142 1049.16C252.139 1049.16 252.136 1049.16 252.134 1049.16L252.522 1050.14C252.488 1050.16 252.459 1050.18 252.436 1050.21C252.414 1050.23 252.4 1050.27 252.395 1050.3C252.391 1050.34 252.396 1050.37 252.411 1050.41C252.425 1050.44 252.449 1050.47 252.478 1050.49M282.248 1050.43C285.541 1048.26 288.221 1045.25 290.001 1041.69L290.011 1041.67L290.019 1041.65C290.104 1041.46 290.142 1041.26 290.129 1041.05C290.116 1040.85 290.053 1040.65 289.946 1040.47C289.838 1040.3 289.688 1040.15 289.51 1040.04C289.331 1039.94 289.129 1039.88 288.921 1039.87L288.896 1039.87L288.871 1039.87C285.07 1039.9 281.351 1040.9 278.054 1042.75M253.185 1050.95C253.105 1051.03 253.012 1051.09 252.909 1051.13C252.9 1051.13 252.891 1051.14 252.882 1051.14L252.896 1051.14L252.91 1051.13C253.024 1051.09 253.14 1051.04 253.255 1051C253.232 1050.98 253.208 1050.97 253.185 1050.95Z" fill="#FED202" stroke="#FED202" stroke-width="2.11847"/>
<path d="M186.486 987.465C186.443 987.989 186.408 988.443 186.373 988.897L186.372 988.91C186.296 989.91 186.219 990.916 186.048 992.658L186.047 992.673L186.045 992.688C186.024 992.852 185.971 993.009 185.89 993.153C185.808 993.296 185.699 993.423 185.569 993.525C185.438 993.626 185.288 993.702 185.128 993.746C184.968 993.79 184.801 993.802 184.636 993.781L182.824 993.55C182.658 993.53 182.499 993.476 182.355 993.393C182.211 993.311 182.085 993.2 181.984 993.069C181.883 992.938 181.809 992.788 181.766 992.629C181.723 992.47 181.711 992.304 181.732 992.14L181.734 992.125L181.737 992.11C182.007 990.381 182.184 989.388 182.36 988.4L182.362 988.388C182.443 987.938 182.523 987.488 182.612 986.968C180.327 988.584 177.628 989.542 174.81 989.712L174.774 989.715L174.738 989.714C174.517 989.713 174.3 989.653 174.11 989.541C173.92 989.429 173.763 989.27 173.654 989.079C173.545 988.889 173.488 988.673 173.488 988.454C173.487 988.236 173.544 988.02 173.652 987.83L173.662 987.812L173.673 987.795C174.489 986.476 175.493 985.289 176.65 984.272C172.832 983.993 169.14 982.701 165.959 980.508M186.486 987.465L166.559 979.635M186.486 987.465C188.292 989.601 190.665 991.203 193.352 992.068C193.573 992.141 193.811 992.15 194.037 992.095C194.267 992.039 194.475 991.92 194.639 991.751C194.803 991.583 194.916 991.372 194.965 991.144C195.013 990.925 195.001 990.697 194.931 990.485C194.475 989.026 193.811 987.648 192.961 986.391C196.715 987.063 200.595 986.736 204.211 985.42L204.227 985.414L204.243 985.408C204.452 985.323 204.635 985.185 204.772 985.007C204.909 984.829 204.996 984.618 205.024 984.395C205.053 984.173 205.021 983.947 204.933 983.74C204.845 983.534 204.703 983.354 204.521 983.22L204.521 983.22L204.511 983.213C202.052 981.448 199.266 980.214 196.329 979.575M186.486 987.465L196.329 979.575M165.959 980.508C165.959 980.508 165.958 980.508 165.958 980.507L166.559 979.635M165.959 980.508C165.96 980.509 165.961 980.509 165.962 980.51L166.559 979.635M165.959 980.508C165.769 980.378 165.619 980.197 165.525 979.988C165.431 979.777 165.397 979.545 165.426 979.317C165.455 979.089 165.546 978.873 165.69 978.693C165.829 978.518 166.013 978.383 166.223 978.304C166.22 978.305 166.218 978.306 166.215 978.307L166.603 979.292C166.569 979.304 166.54 979.326 166.517 979.354C166.495 979.381 166.481 979.415 166.476 979.451C166.472 979.486 166.477 979.522 166.492 979.555C166.506 979.587 166.53 979.615 166.559 979.635M196.329 979.575C199.622 977.407 202.302 974.397 204.083 970.837L204.092 970.818L204.1 970.799C204.185 970.612 204.223 970.407 204.21 970.201C204.197 969.996 204.135 969.796 204.027 969.62C203.919 969.444 203.769 969.297 203.591 969.192C203.412 969.087 203.21 969.027 203.002 969.019L202.977 969.018L202.952 969.018C199.151 969.049 195.432 970.046 192.135 971.898M167.266 980.101C167.186 980.177 167.093 980.237 166.991 980.278C166.981 980.282 166.972 980.285 166.963 980.289L166.977 980.283L166.991 980.278C167.105 980.233 167.221 980.189 167.336 980.146C167.313 980.131 167.289 980.116 167.266 980.101Z" fill="#FED202" stroke="#FED202" stroke-width="2.11847"/>
<path d="M103.83 798.197C103.786 798.721 103.752 799.175 103.717 799.63L103.716 799.642C103.639 800.643 103.562 801.649 103.392 803.39L103.39 803.405L103.389 803.421C103.368 803.584 103.315 803.742 103.234 803.885C103.152 804.029 103.043 804.155 102.912 804.257C102.782 804.359 102.632 804.434 102.472 804.478C102.312 804.522 102.144 804.534 101.979 804.513L100.167 804.283C100.002 804.262 99.8431 804.208 99.6989 804.126C99.5548 804.043 99.4288 803.933 99.3278 803.801C99.2268 803.67 99.1528 803.521 99.1097 803.361C99.0667 803.202 99.0552 803.036 99.076 802.873L99.0779 802.857L99.0803 802.842C99.3507 801.114 99.5279 800.12 99.704 799.132L99.7062 799.12C99.7864 798.67 99.8665 798.221 99.9556 797.701C97.6707 799.316 94.972 800.275 92.1535 800.445L92.1175 800.447L92.0814 800.447C91.8604 800.445 91.644 800.385 91.4537 800.273C91.2635 800.162 91.1064 800.002 90.9975 799.812C90.8886 799.621 90.8316 799.406 90.8313 799.187C90.8311 798.968 90.8877 798.753 90.9958 798.562L91.0057 798.545L91.0163 798.528C91.8328 797.208 92.8371 796.022 93.9935 795.004C90.1754 794.725 86.4836 793.434 83.3031 791.241M103.83 798.197L83.9029 790.368M103.83 798.197C105.636 800.333 108.009 801.935 110.696 802.8C110.917 802.873 111.154 802.882 111.381 802.827C111.61 802.772 111.819 802.652 111.983 802.484C112.146 802.316 112.259 802.105 112.309 801.876C112.357 801.657 112.345 801.43 112.275 801.217C111.819 799.759 111.154 798.38 110.305 797.123C114.058 797.796 117.939 797.468 121.555 796.152L121.571 796.146L121.587 796.14C121.796 796.056 121.979 795.917 122.116 795.739C122.253 795.561 122.34 795.35 122.368 795.128C122.396 794.906 122.365 794.679 122.277 794.473C122.189 794.266 122.046 794.086 121.865 793.952L121.865 793.952L121.854 793.945C119.395 792.181 116.61 790.946 113.673 790.307M103.83 798.197L113.673 790.307M83.3031 791.241C83.3026 791.24 83.3021 791.24 83.3016 791.24L83.9029 790.368M83.3031 791.241C83.3038 791.241 83.3045 791.242 83.3053 791.242L83.9029 790.368M83.3031 791.241C83.1127 791.11 82.9628 790.93 82.8689 790.72C82.7747 790.51 82.7404 790.277 82.7694 790.049C82.7984 789.821 82.8896 789.605 83.0334 789.425C83.1729 789.25 83.3569 789.116 83.5666 789.036C83.5639 789.037 83.5613 789.038 83.5586 789.039L83.9465 790.025C83.913 790.037 83.8835 790.058 83.8612 790.086C83.8389 790.114 83.8247 790.147 83.8202 790.183C83.8157 790.218 83.821 790.254 83.8356 790.287C83.8502 790.32 83.8735 790.348 83.9029 790.368M113.673 790.307C116.966 788.14 119.646 785.13 121.426 781.569L121.436 781.551L121.444 781.532C121.529 781.344 121.566 781.139 121.554 780.934C121.541 780.728 121.478 780.529 121.371 780.353C121.263 780.177 121.113 780.029 120.934 779.924C120.755 779.819 120.553 779.76 120.346 779.752L120.321 779.751L120.296 779.751C116.495 779.781 112.776 780.778 109.478 782.63M84.6093 790.834C84.5301 790.909 84.4369 790.969 84.3343 791.01C84.3251 791.014 84.3157 791.018 84.3064 791.021L84.3204 791.016L84.3343 791.01C84.4492 790.965 84.5644 790.921 84.68 790.878C84.6564 790.863 84.6329 790.849 84.6093 790.834Z" fill="#FED202" stroke="#FED202" stroke-width="2.11847"/>
<path d="M146.24 867.965C150.032 868.447 152.179 868.356 155.351 867.979L156.352 860.096C153.776 860.704 150.707 860.679 147.632 860.288C142.098 859.585 141.499 854.463 142.253 848.526C143.008 842.588 144.856 837.881 150.39 838.584C153.465 838.975 156.442 839.718 158.785 840.951L159.787 833.069C156.81 831.91 154.754 831.285 150.962 830.803C139.689 829.371 133.462 835.757 132.005 847.223C130.548 858.689 134.967 866.533 146.24 867.965Z" fill="#FED202"/>
<path d="M137.789 11L502.592 57.3543L488.556 167.818L123.753 121.464L137.789 11Z" fill="#2A5F2A"/>
<path d="M13.376 1047.39L550.723 876.913L579.198 966.667L41.8513 1137.14L13.376 1047.39Z" fill="#2A5F2A"/>
<path d="M171.687 605.896L86.526 532.062L65.6211 488.533L11.4126 612.658L71.7093 674.697L171.687 605.896Z" fill="#2A5F2A"/>
</g>
</g>
<defs>
<filter id="filter0_d" x="0.578435" y="0.25922" width="590.711" height="1044.53" filterUnits="userSpaceOnUse" color-interpolation-filters="sRGB">
<feFlood flood-opacity="0" result="BackgroundImageFix"/>
<feColorMatrix in="SourceAlpha" type="matrix" values="0 0 0 0 0 0 0 0 0 0 0 0 0 0 0 0 0 0 127 0"/>
<feOffset dy="4.23694"/>
<feGaussianBlur stdDeviation="7.41464"/>
<feColorMatrix type="matrix" values="0 0 0 0 0 0 0 0 0 0 0 0 0 0 0 0 0 0 0.08 0"/>
<feBlend mode="normal" in2="BackgroundImageFix" result="effect1_dropShadow"/>
<feBlend mode="normal" in="SourceGraphic" in2="effect1_dropShadow" result="shape"/>
</filter>
</defs>
</svg>
