<svg width="728" height="559" viewBox="0 0 728 559" fill="none" xmlns="http://www.w3.org/2000/svg">
<g clip-path="url(#clip0_720_646)">
<path d="M417.299 355.572C436.79 369.816 475.773 414.796 475.773 480.767" stroke="black" stroke-width="19.2832"/>
<path d="M537.511 533.993C537.511 537.894 534.412 542.526 522.381 546.293C510.947 549.873 494.57 551.501 475.773 551.501C456.975 551.501 440.598 549.873 429.164 546.293C417.133 542.526 414.034 537.894 414.034 533.993C414.034 531.246 415.293 526.846 418.469 521.399C421.559 516.101 426.131 510.391 431.881 505.136C443.454 494.562 459.035 486.498 475.773 486.498C492.51 486.498 508.091 494.562 519.664 505.136C525.414 510.391 529.986 516.101 533.076 521.399C536.252 526.846 537.511 531.246 537.511 533.993Z" fill="white" stroke="black" stroke-width="14.4624"/>
<path d="M413.338 533.916C413.338 533.935 413.338 533.954 413.338 533.973C414.112 534 415.265 533.936 416.91 533.686C419.064 533.359 421.643 532.785 424.729 532.015C426.497 531.574 428.403 531.074 430.432 530.541C442.237 527.443 458.204 523.252 475.421 523.252C492.705 523.252 508.594 527.474 520.274 530.577C522.236 531.098 524.08 531.588 525.791 532.021C528.836 532.791 531.368 533.363 533.478 533.689C535.001 533.923 536.079 533.991 536.815 533.976C536.815 533.957 536.815 533.936 536.815 533.916C536.815 531.169 535.556 526.769 532.379 521.322C529.29 516.024 524.718 510.314 518.967 505.06C507.395 494.485 491.814 486.421 475.076 486.421C458.338 486.421 442.758 494.485 431.185 505.06C425.435 510.314 420.863 516.024 417.773 521.322C414.597 526.769 413.338 531.169 413.338 533.916ZM413.427 534.919C413.427 534.919 413.426 534.913 413.422 534.903C413.425 534.914 413.427 534.919 413.427 534.919ZM536.721 534.961C536.721 534.961 536.723 534.956 536.726 534.947C536.723 534.956 536.721 534.961 536.721 534.961Z" fill="#FDD102" stroke="black" stroke-width="14.4624"/>
<path d="M109.56 127.053C106.953 124.15 101.552 122.774 90.0841 128.01C79.1846 132.986 65.9124 142.716 51.9262 155.276C37.9401 167.835 26.8431 179.988 20.7273 190.292C14.2925 201.133 15.0815 206.65 17.6882 209.552C19.5236 211.596 23.4 214.029 29.4025 215.959C35.2415 217.837 42.458 219.031 50.2473 219.098C65.9229 219.234 82.9035 214.824 95.3571 203.64C107.811 192.457 114.015 176.047 115.561 160.447C116.329 152.696 115.915 145.393 114.674 139.386C113.398 133.211 111.395 129.096 109.56 127.053Z" fill="white" stroke="black" stroke-width="14.4624"/>
<path d="M225.97 263.138C201.951 265.563 142.893 258.142 98.8153 209.057" stroke="black" stroke-width="19.2832"/>
<path d="M21.1517 214.493C21.1388 214.478 21.1262 214.464 21.1139 214.45C21.6721 213.913 22.5723 213.191 23.9633 212.277C25.7842 211.081 28.0867 209.785 30.8975 208.296C32.5079 207.443 34.2603 206.541 36.1258 205.582C46.9792 200 61.659 192.45 74.4689 180.947C87.3285 169.399 96.3303 155.641 102.947 145.529C104.059 143.83 105.103 142.234 106.087 140.768C107.838 138.161 109.34 136.043 110.692 134.391C111.668 133.199 112.425 132.428 112.983 131.948C112.996 131.962 113.009 131.977 113.023 131.993C114.858 134.037 116.862 138.151 118.137 144.326C119.378 150.333 119.792 157.636 119.024 165.387C117.479 180.987 111.274 197.397 98.8206 208.581C86.3669 219.764 69.3863 224.174 53.7107 224.038C45.9215 223.971 38.705 222.777 32.866 220.899C26.8634 218.969 22.987 216.536 21.1517 214.493ZM20.5481 213.686C20.5484 213.686 20.551 213.692 20.5552 213.702C20.55 213.692 20.5479 213.686 20.5481 213.686ZM112.256 131.278C112.256 131.278 112.26 131.28 112.268 131.285C112.26 131.281 112.256 131.278 112.256 131.278Z" fill="#FDD102" stroke="black" stroke-width="14.4624"/>
<path d="M503.031 254.842C526.821 258.948 586.254 255.695 633.671 209.827" stroke="black" stroke-width="19.2832"/>
<path d="M714.852 217.197C717.656 214.484 718.831 209.036 713.174 197.77C707.797 187.063 697.581 174.16 684.512 160.649C671.442 147.138 658.887 136.499 648.364 130.77C637.291 124.741 631.808 125.734 629.003 128.447C627.029 130.356 624.742 134.32 623.035 140.39C621.375 146.295 620.45 153.551 620.671 161.337C621.117 177.007 626.153 193.812 637.79 205.843C649.428 217.873 666.056 223.465 681.703 224.431C689.478 224.911 696.76 224.227 702.717 222.765C708.84 221.261 712.878 219.107 714.852 217.197Z" fill="white" stroke="black" stroke-width="14.4624"/>
<path d="M714.988 217.163C715.001 217.149 715.015 217.136 715.028 217.123C714.509 216.547 713.662 215.764 712.339 214.755C710.606 213.434 708.4 211.98 705.701 210.297C704.155 209.332 702.47 208.31 700.676 207.222C690.242 200.891 676.129 192.329 664.159 179.954C652.142 167.531 644.129 153.175 638.239 142.623C637.249 140.85 636.32 139.185 635.441 137.654C633.878 134.93 632.529 132.711 631.296 130.969C630.406 129.711 629.705 128.889 629.182 128.37C629.168 128.384 629.154 128.398 629.139 128.412C627.164 130.322 624.877 134.286 623.171 140.356C621.511 146.261 620.585 153.516 620.807 161.303C621.252 176.973 626.289 193.778 637.926 205.809C649.563 217.839 666.192 223.431 681.838 224.397C689.613 224.877 696.896 224.193 702.852 222.73C708.975 221.227 713.013 219.072 714.988 217.163ZM715.646 216.401C715.646 216.401 715.643 216.406 715.638 216.416C715.644 216.406 715.646 216.401 715.646 216.401ZM629.955 127.753C629.955 127.753 629.95 127.755 629.942 127.76C629.95 127.756 629.955 127.753 629.955 127.753Z" fill="#FDD102" stroke="black" stroke-width="14.4624"/>
<path d="M318.339 355.572C298.848 369.816 259.865 414.796 259.865 480.767" stroke="black" stroke-width="19.2832"/>
<path d="M198.128 533.993C198.128 537.895 201.227 542.527 213.258 546.293C224.692 549.873 241.068 551.501 259.866 551.501C278.664 551.501 295.04 549.873 306.475 546.293C318.506 542.527 321.605 537.895 321.605 533.993C321.605 531.246 320.346 526.846 317.169 521.4C314.079 516.101 309.508 510.391 303.757 505.137C292.185 494.563 276.604 486.498 259.866 486.498C243.128 486.498 227.548 494.563 215.975 505.137C210.224 510.391 205.653 516.101 202.563 521.4C199.387 526.846 198.128 531.246 198.128 533.993Z" fill="white" stroke="black" stroke-width="14.4624"/>
<path d="M239.624 387.056L189.396 69.9451H545.49L496.012 387.056H239.624Z" fill="url(#paint0_linear_720_646)" stroke="black" stroke-width="14.4624"/>
<path d="M596.392 29.4415C596.38 20.9722 589.517 14.1095 581.048 14.0972H155.262H155.215C146.754 14.1101 139.905 20.98 139.918 29.4415V55.0629C139.93 63.5323 146.793 70.3951 155.262 70.4071H581.048C589.507 70.3698 596.355 63.5218 596.392 55.0629V29.4415Z" fill="#F2C94C" stroke="black" stroke-width="14.4624"/>
<mask id="mask0_720_646" style="mask-type:alpha" maskUnits="userSpaceOnUse" x="381" y="118" width="87" height="138">
<path d="M462.682 186.556C462.682 204.806 458.043 221.123 450.77 232.741C443.46 244.418 433.913 250.793 424.085 250.793C414.257 250.793 404.71 244.418 397.4 232.741C390.128 221.123 385.488 204.806 385.488 186.556C385.488 168.306 390.128 151.988 397.4 140.371C404.71 128.694 414.257 122.318 424.085 122.318C433.913 122.318 443.46 128.694 450.77 140.371C458.043 151.988 462.682 168.306 462.682 186.556Z" fill="black" stroke="black" stroke-width="8.63696"/>
</mask>
<g mask="url(#mask0_720_646)">
<path d="M463.761 186.556C463.761 204.976 459.081 221.499 451.685 233.314C444.261 245.173 434.419 251.873 424.085 251.873C413.752 251.873 403.909 245.173 396.485 233.314C389.089 221.499 384.409 204.976 384.409 186.556C384.409 168.136 389.089 151.613 396.485 139.798C403.909 127.939 413.752 121.239 424.085 121.239C434.419 121.239 444.261 127.939 451.685 139.798C459.081 151.613 463.761 168.136 463.761 186.556Z" fill="#F895A6" stroke="black" stroke-width="6.47772"/>
<circle cx="424.085" cy="186.556" r="13.4952" fill="black"/>
<path d="M401.292 239.196L403.561 227.487C403.63 227.131 403.839 226.818 404.141 226.618L407.237 224.563C407.605 224.318 407.83 223.91 407.841 223.468L408.028 215.566C408.035 215.235 408.164 214.919 408.39 214.676L413.264 209.447" stroke="#B22B31" stroke-width="3.23886" stroke-linecap="round"/>
<path d="M436.33 208.659L443.005 218.543C443.208 218.843 443.282 219.212 443.21 219.567L442.474 223.209C442.387 223.642 442.516 224.091 442.821 224.41L448.276 230.13C448.505 230.37 448.638 230.685 448.649 231.016L448.901 238.159" stroke="#B22B31" stroke-width="3.23886" stroke-linecap="round"/>
<path d="M388.998 221.275L391.928 213.145C392.06 212.778 392.345 212.486 392.709 212.344L396.535 210.852C396.984 210.677 397.305 210.277 397.38 209.802L398.634 201.798C398.691 201.435 398.893 201.111 399.194 200.9L405.449 196.519" stroke="#B22B31" stroke-width="3.23886" stroke-linecap="round"/>
<path d="M441.956 197.47L449.564 201.57C449.907 201.755 450.154 202.079 450.241 202.46L451.151 206.465C451.258 206.934 451.606 207.312 452.065 207.455L459.397 209.754C459.961 209.931 460.344 210.453 460.344 211.044L460.344 215.452" stroke="#B22B31" stroke-width="3.23886" stroke-linecap="round"/>
<path d="M425.104 213.343L426.929 228.902C426.974 229.283 426.855 229.664 426.602 229.952L423.003 234.045C422.692 234.398 422.587 234.888 422.726 235.337L425.857 245.461C425.963 245.802 425.929 246.171 425.763 246.488L421.262 255.069" stroke="#B22B31" stroke-width="3.23886" stroke-linecap="round"/>
<path d="M462.682 186.556C462.682 204.806 458.043 221.123 450.77 232.741C443.46 244.418 433.913 250.793 424.085 250.793C414.257 250.793 404.71 244.418 397.4 232.741C390.128 221.123 385.488 204.806 385.488 186.556C385.488 168.306 390.128 151.988 397.4 140.371C404.71 128.694 414.257 122.318 424.085 122.318C433.913 122.318 443.46 128.694 450.77 140.371C458.043 151.988 462.682 168.306 462.682 186.556Z" stroke="black" stroke-width="8.63696"/>
<path d="M424.085 118C400.384 118 381.17 148.573 381.17 186.286H467C467 148.573 447.786 118 424.085 118Z" fill="#F4CA3D"/>
<path d="M424.085 319.619C447.786 319.619 467 289.046 467 251.333L381.17 251.333C381.17 289.046 400.383 319.619 424.085 319.619Z" fill="#F4CA3D"/>
<path d="M462.682 186.556C462.682 204.806 458.043 221.123 450.77 232.741C443.46 244.418 433.913 250.793 424.085 250.793C414.257 250.793 404.71 244.418 397.4 232.741C390.128 221.123 385.488 204.806 385.488 186.556C385.488 168.306 390.128 151.988 397.4 140.371C404.71 128.694 414.257 122.318 424.085 122.318C433.913 122.318 443.46 128.694 450.77 140.371C458.043 151.988 462.682 168.306 462.682 186.556Z" stroke="black" stroke-width="8.63696"/>
<rect x="381.17" y="246.745" width="85.8298" height="8.63696" fill="black"/>
<rect x="381.17" y="177.919" width="85.8298" height="8.63696" fill="black"/>
</g>
<mask id="mask1_720_646" style="mask-type:alpha" maskUnits="userSpaceOnUse" x="267" y="118" width="86" height="138">
<path d="M348.512 186.556C348.512 204.806 343.873 221.123 336.6 232.741C329.29 244.418 319.743 250.793 309.915 250.793C300.087 250.793 290.54 244.418 283.23 232.741C275.958 221.123 271.318 204.806 271.318 186.556C271.318 168.306 275.958 151.988 283.23 140.371C290.54 128.694 300.087 122.318 309.915 122.318C319.743 122.318 329.29 128.694 336.6 140.371C343.873 151.988 348.512 168.306 348.512 186.556Z" fill="black" stroke="black" stroke-width="8.63696"/>
</mask>
<g mask="url(#mask1_720_646)">
<path d="M349.592 186.556C349.592 204.976 344.911 221.499 337.515 233.314C330.092 245.173 320.249 251.873 309.915 251.873C299.582 251.873 289.739 245.173 282.315 233.314C274.919 221.499 270.239 204.976 270.239 186.556C270.239 168.136 274.919 151.613 282.315 139.798C289.739 127.939 299.582 121.239 309.915 121.239C320.249 121.239 330.092 127.939 337.515 139.798C344.911 151.613 349.592 168.136 349.592 186.556Z" fill="#F895A6" stroke="black" stroke-width="6.47772"/>
<circle cx="309.915" cy="186.556" r="13.4952" fill="black"/>
<path d="M287.932 239.196L290.201 227.487C290.27 227.131 290.479 226.818 290.781 226.618L293.876 224.563C294.244 224.318 294.47 223.91 294.48 223.468L294.667 215.566C294.675 215.235 294.804 214.919 295.03 214.676L299.903 209.447" stroke="#B22B31" stroke-width="3.23886" stroke-linecap="round"/>
<path d="M322.97 208.659L329.645 218.543C329.848 218.843 329.921 219.212 329.85 219.567L329.114 223.209C329.026 223.642 329.156 224.091 329.46 224.41L334.916 230.13C335.144 230.37 335.277 230.685 335.289 231.016L335.54 238.159" stroke="#B22B31" stroke-width="3.23886" stroke-linecap="round"/>
<path d="M275.637 221.275L278.568 213.145C278.7 212.778 278.985 212.486 279.348 212.344L283.175 210.852C283.623 210.677 283.945 210.277 284.019 209.802L285.274 201.798C285.331 201.435 285.533 201.111 285.834 200.9L292.089 196.519" stroke="#B22B31" stroke-width="3.23886" stroke-linecap="round"/>
<path d="M328.595 197.47L336.203 201.57C336.547 201.755 336.794 202.079 336.88 202.46L337.791 206.465C337.897 206.934 338.245 207.312 338.705 207.455L346.036 209.754C346.6 209.931 346.984 210.453 346.984 211.044L346.984 215.452" stroke="#B22B31" stroke-width="3.23886" stroke-linecap="round"/>
<path d="M311.743 213.343L313.569 228.902C313.613 229.283 313.494 229.664 313.241 229.952L309.642 234.045C309.331 234.398 309.227 234.888 309.366 235.337L312.497 245.461C312.602 245.802 312.568 246.171 312.402 246.488L307.901 255.069" stroke="#B22B31" stroke-width="3.23886" stroke-linecap="round"/>
<path d="M348.512 186.556C348.512 204.806 343.873 221.123 336.6 232.741C329.29 244.418 319.743 250.793 309.915 250.793C300.087 250.793 290.54 244.418 283.23 232.741C275.958 221.123 271.318 204.806 271.318 186.556C271.318 168.306 275.958 151.988 283.23 140.371C290.54 128.694 300.087 122.318 309.915 122.318C319.743 122.318 329.29 128.694 336.6 140.371C343.873 151.988 348.512 168.306 348.512 186.556Z" stroke="black" stroke-width="8.63696"/>
<path d="M309.915 118C286.214 118 267 148.573 267 186.286H352.83C352.83 148.573 333.616 118 309.915 118Z" fill="#F4CA3D"/>
<path d="M309.915 319.619C333.616 319.619 352.83 289.046 352.83 251.333L267 251.333C267 289.046 286.213 319.619 309.915 319.619Z" fill="#F4CA3D"/>
<path d="M348.512 186.556C348.512 204.806 343.873 221.123 336.6 232.741C329.29 244.418 319.743 250.793 309.915 250.793C300.087 250.793 290.54 244.418 283.23 232.741C275.958 221.123 271.318 204.806 271.318 186.556C271.318 168.306 275.958 151.988 283.23 140.371C290.54 128.694 300.087 122.318 309.915 122.318C319.743 122.318 329.29 128.694 336.6 140.371C343.873 151.988 348.512 168.306 348.512 186.556Z" stroke="black" stroke-width="8.63696"/>
<rect x="267" y="246.745" width="85.8298" height="8.63696" fill="black"/>
<rect x="267" y="177.919" width="85.8298" height="8.63696" fill="black"/>
</g>
<path d="M197.601 533.917C197.601 533.937 197.601 533.956 197.601 533.974C198.376 534.001 199.528 533.937 201.174 533.688C203.328 533.361 205.906 532.786 208.993 532.016C210.761 531.575 212.667 531.075 214.696 530.542C226.501 527.444 242.468 523.253 259.684 523.253C276.968 523.253 292.858 527.475 304.537 530.578C306.5 531.099 308.343 531.589 310.054 532.022C313.099 532.792 315.632 533.365 317.741 533.69C319.264 533.925 320.343 533.993 321.078 533.978C321.078 533.958 321.078 533.938 321.078 533.917C321.078 531.17 319.819 526.771 316.643 521.324C313.553 516.026 308.982 510.316 303.231 505.061C291.658 494.487 276.078 486.423 259.34 486.423C242.602 486.423 227.021 494.487 215.449 505.061C209.698 510.316 205.126 516.026 202.037 521.324C198.86 526.771 197.601 531.17 197.601 533.917ZM197.691 534.92C197.691 534.92 197.689 534.915 197.686 534.904C197.689 534.915 197.691 534.921 197.691 534.92ZM320.985 534.962C320.985 534.962 320.987 534.958 320.989 534.948C320.986 534.957 320.985 534.962 320.985 534.962Z" fill="#FDD102" stroke="black" stroke-width="14.4624"/>
<path d="M364.602 312.679C326.798 309.787 286.362 289.002 270.869 278.971C274.032 300.291 296.649 344.178 361.81 349.164C426.971 354.15 440.969 325.647 451.18 292.769C438.072 300.611 402.405 315.572 364.602 312.679Z" fill="black" stroke="black" stroke-width="6.96511"/>
</g>
<defs>
<linearGradient id="paint0_linear_720_646" x1="367.443" y1="69.9451" x2="367.443" y2="387.056" gradientUnits="userSpaceOnUse">
<stop stop-color="#F2C94C"/>
<stop offset="1" stop-color="#FED202"/>
</linearGradient>
<clipPath id="clip0_720_646">
<rect width="727.638" height="558.867" fill="white"/>
</clipPath>
</defs>
</svg>
