<svg width="497" height="491" viewBox="0 0 497 491" fill="none" xmlns="http://www.w3.org/2000/svg">
<path fill-rule="evenodd" clip-rule="evenodd" d="M372.937 301.761C414.152 269.125 445.441 225.373 463 175.459L463.06 175.29L463.113 175.118C463.678 173.285 463.785 171.34 463.425 169.455C463.065 167.571 462.247 165.802 461.043 164.304C459.839 162.807 458.283 161.626 456.512 160.869C454.741 160.112 452.809 159.802 450.889 159.969L450.672 159.988L450.457 160.017C400.215 166.789 352.869 187.068 313.364 218.533C330.104 108.904 269.799 21.1902 257.722 4.87762C256.675 3.40819 255.298 2.20004 253.698 1.35237C252.023 0.464788 250.155 0 248.257 0C246.359 0 244.492 0.464823 242.817 1.35237C241.216 2.20016 239.839 3.40852 238.792 4.87823C226.722 21.1814 166.429 108.87 182.783 218.119C143.32 186.584 95.995 166.229 45.7538 159.382L45.5315 159.351L45.3079 159.332C43.3874 159.165 41.4561 159.475 39.6847 160.232C37.9136 160.989 36.3581 162.169 35.1535 163.667C33.9491 165.165 33.1322 166.934 32.772 168.818C32.4118 170.703 32.5189 172.647 33.0843 174.481L33.1382 174.656L33.1992 174.828C50.6997 224.466 81.7549 268.023 122.646 300.634C81.9311 302.951 42.1454 314.281 6.18513 333.907C4.34111 334.884 2.79532 336.338 1.70818 338.116C0.590356 339.944 0 342.044 0 344.184C0 346.323 0.590278 348.423 1.70818 350.251C2.82252 352.074 4.41872 353.556 6.32408 354.533C52.1839 378.172 103.69 388.091 154.739 383.359C138.907 399.402 125.96 418.14 116.531 438.755L116.459 438.914L116.392 439.075C115.614 440.963 115.342 443.02 115.603 445.044C115.863 447.068 116.646 448.991 117.878 450.622C119.111 452.253 120.75 453.536 122.634 454.34C124.518 455.144 126.582 455.441 128.618 455.2L128.928 455.163L129.235 455.105C166.95 448.007 201.41 429.476 228.084 402.245C227.655 413.742 227.226 422.295 226.796 430.85L226.789 431.007C226.155 443.621 225.518 456.283 224.883 478.271L224.879 478.403V478.536C224.879 480.073 225.181 481.595 225.768 483.017C226.355 484.439 227.216 485.732 228.304 486.823C229.392 487.914 230.685 488.781 232.11 489.373C233.536 489.965 235.065 490.27 236.609 490.27H259.694C261.238 490.27 262.767 489.965 264.192 489.373C265.618 488.781 266.911 487.914 267.999 486.823C269.087 485.732 269.948 484.438 270.535 483.017C271.122 481.595 271.424 480.072 271.424 478.536V478.403L271.42 478.271C270.785 456.284 270.148 443.622 269.514 431.009L269.506 430.85C269.077 422.305 268.648 413.763 268.22 402.286C294.86 429.54 329.327 448.064 367.048 455.102C369.167 455.51 371.358 455.32 373.377 454.552C375.422 453.774 377.203 452.435 378.519 450.694C379.834 448.953 380.632 446.878 380.824 444.708C381.008 442.622 380.626 440.525 379.719 438.64C370.392 418.32 357.631 399.832 342.048 383.972C392.902 388.534 444.168 378.625 489.874 355.169L490.006 355.101L490.136 355.029C491.971 354.011 493.497 352.521 494.558 350.716C495.618 348.912 496.177 346.858 496.177 344.768C496.177 342.677 495.619 340.623 494.558 338.819C493.497 337.014 491.971 335.524 490.136 334.506L490.088 334.48L490.04 334.453C453.839 314.931 413.825 303.798 372.937 301.761Z" fill="#2A5F2A"/>
<path fill-rule="evenodd" clip-rule="evenodd" d="M372.937 301.761C414.152 269.125 445.441 225.373 463 175.459L463.06 175.29L463.113 175.118C463.678 173.285 463.785 171.34 463.425 169.455C463.065 167.571 462.247 165.802 461.043 164.304C459.839 162.807 458.283 161.626 456.512 160.869C454.741 160.112 452.809 159.802 450.889 159.969L450.672 159.988L450.457 160.017C400.215 166.789 352.869 187.068 313.364 218.533C330.104 108.904 269.799 21.1902 257.722 4.87762C256.675 3.40819 255.298 2.20004 253.698 1.35237C252.023 0.464788 250.155 0 248.257 0C246.359 0 244.492 0.464823 242.817 1.35237C241.216 2.20016 239.839 3.40852 238.792 4.87823C226.722 21.1814 166.429 108.87 182.783 218.119C143.32 186.584 95.995 166.229 45.7538 159.382L45.5315 159.351L45.3079 159.332C43.3874 159.165 41.4561 159.475 39.6847 160.232C37.9136 160.989 36.3581 162.169 35.1535 163.667C33.9491 165.165 33.1322 166.934 32.772 168.818C32.4118 170.703 32.5189 172.647 33.0843 174.481L33.1382 174.656L33.1992 174.828C50.6997 224.466 81.7549 268.023 122.646 300.634C81.9311 302.951 42.1454 314.281 6.18513 333.907C4.34111 334.884 2.79532 336.338 1.70818 338.116C0.590356 339.944 0 342.044 0 344.184C0 346.323 0.590278 348.423 1.70818 350.251C2.82252 352.074 4.41872 353.556 6.32408 354.533C52.1839 378.172 103.69 388.091 154.739 383.359C138.907 399.402 125.96 418.14 116.531 438.755L116.459 438.914L116.392 439.075C115.614 440.963 115.342 443.02 115.603 445.044C115.863 447.068 116.646 448.991 117.878 450.622C119.111 452.253 120.75 453.536 122.634 454.34C124.518 455.144 126.582 455.441 128.618 455.2L128.928 455.163L129.235 455.105C166.95 448.007 201.41 429.476 228.084 402.245C227.655 413.742 227.226 422.295 226.796 430.85L226.789 431.007C226.155 443.621 225.518 456.283 224.883 478.271L224.879 478.403V478.536C224.879 480.073 225.181 481.595 225.768 483.017C226.355 484.439 227.216 485.732 228.304 486.823C229.392 487.914 230.685 488.781 232.11 489.373C233.536 489.965 235.065 490.27 236.609 490.27H259.694C261.238 490.27 262.767 489.965 264.192 489.373C265.618 488.781 266.911 487.914 267.999 486.823C269.087 485.732 269.948 484.438 270.535 483.017C271.122 481.595 271.424 480.072 271.424 478.536V478.403L271.42 478.271C270.785 456.284 270.148 443.622 269.514 431.009L269.506 430.85C269.077 422.305 268.648 413.763 268.22 402.286C294.86 429.54 329.327 448.064 367.048 455.102C369.167 455.51 371.358 455.32 373.377 454.552C375.422 453.774 377.203 452.435 378.519 450.694C379.834 448.953 380.632 446.878 380.824 444.708C381.008 442.622 380.626 440.525 379.719 438.64C370.392 418.32 357.631 399.832 342.048 383.972C392.902 388.534 444.168 378.625 489.874 355.169L490.006 355.101L490.136 355.029C491.971 354.011 493.497 352.521 494.558 350.716C495.618 348.912 496.177 346.858 496.177 344.768C496.177 342.677 495.619 340.623 494.558 338.819C493.497 337.014 491.971 335.524 490.136 334.506L490.088 334.48L490.04 334.453C453.839 314.931 413.825 303.798 372.937 301.761Z" fill="url(#paint0_radial)" fill-opacity="0.4"/>
<defs>
<radialGradient id="paint0_radial" cx="0" cy="0" r="1" gradientUnits="userSpaceOnUse" gradientTransform="translate(240.19 295.716) rotate(98.7194) scale(300.557 304.178)">
<stop stop-color="#449D44"/>
<stop offset="1" stop-color="#2A5F2A"/>
</radialGradient>
</defs>
</svg>
