<svg width="497" height="491" viewBox="0 0 497 491" fill="none" xmlns="http://www.w3.org/2000/svg">
<path fill-rule="evenodd" clip-rule="evenodd" d="M373.48 301.771C414.695 269.135 445.984 225.383 463.542 175.469L463.602 175.299L463.655 175.127C464.22 173.294 464.328 171.35 463.967 169.465C463.607 167.58 462.79 165.811 461.586 164.314C460.381 162.816 458.826 161.636 457.055 160.879C455.283 160.121 453.352 159.812 451.432 159.979L451.215 159.998L450.999 160.027C400.758 166.799 353.412 187.077 313.907 218.543C330.647 108.913 270.342 21.1999 258.265 4.88738C257.217 3.41795 255.84 2.2098 254.241 1.36213C252.565 0.474553 250.698 0.00976562 248.8 0.00976562C246.902 0.00976562 245.034 0.474588 243.359 1.36213C241.759 2.20992 240.382 3.41828 239.335 4.88799C227.264 21.1912 166.971 108.88 183.326 218.129C143.862 186.594 96.5375 166.239 46.2963 159.392L46.0739 159.361L45.8504 159.342C43.9298 159.175 41.9986 159.484 40.2272 160.241C38.4561 160.998 36.9006 162.179 35.696 163.677C34.4916 165.174 33.6747 166.944 33.3145 168.828C32.9543 170.712 33.0614 172.657 33.6267 174.49L33.6807 174.665L33.7416 174.838C51.2422 224.476 82.2973 268.033 123.189 300.643C82.4736 302.96 42.6879 314.291 6.72761 333.917C4.88359 334.894 3.3378 336.348 2.25067 338.126C1.13284 339.954 0.54248 342.054 0.54248 344.193C0.54248 346.333 1.13276 348.433 2.25067 350.261C3.365 352.083 4.9612 353.566 6.86656 354.542C52.7264 378.181 104.232 388.101 155.282 383.369C139.45 399.411 126.502 418.15 117.074 438.764L117.001 438.923L116.935 439.085C116.157 440.973 115.885 443.03 116.145 445.054C116.405 447.078 117.189 449.001 118.421 450.632C119.653 452.263 121.292 453.546 123.176 454.35C125.061 455.154 127.124 455.451 129.161 455.209L129.471 455.173L129.778 455.115C167.492 448.017 201.952 429.485 228.627 402.255C228.198 413.752 227.769 422.304 227.339 430.86L227.331 431.017C226.697 443.631 226.061 456.293 225.425 478.28L225.421 478.413V478.546C225.421 480.083 225.723 481.605 226.31 483.027C226.897 484.448 227.759 485.742 228.847 486.833C229.934 487.924 231.228 488.79 232.653 489.383C234.078 489.975 235.607 490.28 237.151 490.28H260.237C261.781 490.28 263.309 489.975 264.735 489.383C266.16 488.791 267.453 487.924 268.541 486.833C269.629 485.742 270.491 484.448 271.078 483.027C271.665 481.605 271.967 480.082 271.967 478.546V478.413L271.963 478.28C271.327 456.294 270.691 443.632 270.057 431.018L270.049 430.86C269.619 422.315 269.191 413.772 268.762 402.296C295.403 429.549 329.869 448.074 367.59 455.111C369.709 455.519 371.901 455.329 373.919 454.562C375.965 453.783 377.746 452.445 379.061 450.703C380.377 448.962 381.174 446.888 381.366 444.717C381.551 442.631 381.169 440.535 380.261 438.65C370.934 418.33 358.173 399.842 342.59 383.981C393.444 388.543 444.711 378.635 490.416 355.179L490.549 355.111L490.679 355.039C492.513 354.021 494.039 352.531 495.1 350.726C496.161 348.922 496.719 346.868 496.719 344.777C496.719 342.687 496.161 340.633 495.1 338.829C494.039 337.024 492.513 335.534 490.679 334.516L490.631 334.489L490.582 334.463C454.381 314.941 414.368 303.808 373.48 301.771Z" fill="#2A5F2A"/>
<path fill-rule="evenodd" clip-rule="evenodd" d="M373.48 301.771C414.695 269.135 445.984 225.383 463.542 175.469L463.602 175.299L463.655 175.127C464.22 173.294 464.328 171.35 463.967 169.465C463.607 167.58 462.79 165.811 461.586 164.314C460.381 162.816 458.826 161.636 457.055 160.879C455.283 160.121 453.352 159.812 451.432 159.979L451.215 159.998L450.999 160.027C400.758 166.799 353.412 187.077 313.907 218.543C330.647 108.913 270.342 21.1999 258.265 4.88738C257.217 3.41795 255.84 2.2098 254.241 1.36213C252.565 0.474553 250.698 0.00976562 248.8 0.00976562C246.902 0.00976562 245.034 0.474588 243.359 1.36213C241.759 2.20992 240.382 3.41828 239.335 4.88799C227.264 21.1912 166.971 108.88 183.326 218.129C143.862 186.594 96.5375 166.239 46.2963 159.392L46.0739 159.361L45.8504 159.342C43.9298 159.175 41.9986 159.484 40.2272 160.241C38.4561 160.998 36.9006 162.179 35.696 163.677C34.4916 165.174 33.6747 166.944 33.3145 168.828C32.9543 170.712 33.0614 172.657 33.6267 174.49L33.6807 174.665L33.7416 174.838C51.2422 224.476 82.2973 268.033 123.189 300.643C82.4736 302.96 42.6879 314.291 6.72761 333.917C4.88359 334.894 3.3378 336.348 2.25067 338.126C1.13284 339.954 0.54248 342.054 0.54248 344.193C0.54248 346.333 1.13276 348.433 2.25067 350.261C3.365 352.083 4.9612 353.566 6.86656 354.542C52.7264 378.181 104.232 388.101 155.282 383.369C139.45 399.411 126.502 418.15 117.074 438.764L117.001 438.923L116.935 439.085C116.157 440.973 115.885 443.03 116.145 445.054C116.405 447.078 117.189 449.001 118.421 450.632C119.653 452.263 121.292 453.546 123.176 454.35C125.061 455.154 127.124 455.451 129.161 455.209L129.471 455.173L129.778 455.115C167.492 448.017 201.952 429.485 228.627 402.255C228.198 413.752 227.769 422.304 227.339 430.86L227.331 431.017C226.697 443.631 226.061 456.293 225.425 478.28L225.421 478.413V478.546C225.421 480.083 225.723 481.605 226.31 483.027C226.897 484.448 227.759 485.742 228.847 486.833C229.934 487.924 231.228 488.79 232.653 489.383C234.078 489.975 235.607 490.28 237.151 490.28H260.237C261.781 490.28 263.309 489.975 264.735 489.383C266.16 488.791 267.453 487.924 268.541 486.833C269.629 485.742 270.491 484.448 271.078 483.027C271.665 481.605 271.967 480.082 271.967 478.546V478.413L271.963 478.28C271.327 456.294 270.691 443.632 270.057 431.018L270.049 430.86C269.619 422.315 269.191 413.772 268.762 402.296C295.403 429.549 329.869 448.074 367.59 455.111C369.709 455.519 371.901 455.329 373.919 454.562C375.965 453.783 377.746 452.445 379.061 450.703C380.377 448.962 381.174 446.888 381.366 444.717C381.551 442.631 381.169 440.535 380.261 438.65C370.934 418.33 358.173 399.842 342.59 383.981C393.444 388.543 444.711 378.635 490.416 355.179L490.549 355.111L490.679 355.039C492.513 354.021 494.039 352.531 495.1 350.726C496.161 348.922 496.719 346.868 496.719 344.777C496.719 342.687 496.161 340.633 495.1 338.829C494.039 337.024 492.513 335.534 490.679 334.516L490.631 334.489L490.582 334.463C454.381 314.941 414.368 303.808 373.48 301.771Z" fill="url(#paint0_radial)"/>
<defs>
<radialGradient id="paint0_radial" cx="0" cy="0" r="1" gradientUnits="userSpaceOnUse" gradientTransform="translate(240.732 295.726) rotate(98.7194) scale(300.557 304.178)">
<stop stop-color="#449D44"/>
<stop offset="1" stop-color="#2A5F2A"/>
</radialGradient>
</defs>
</svg>
