<svg width="6440" height="2654" viewBox="0 0 6440 2654" fill="none" xmlns="http://www.w3.org/2000/svg">
<path fill-rule="evenodd" clip-rule="evenodd" d="M6060 874H5505.54C4976.43 397.78 4231.63 20.0006 3226.22 20C2220.81 19.9994 1476.9 397.779 946.652 874H380C181.177 874 20 1035.18 20 1234V1714C20 1912.82 181.177 2074 380 2074H1395V2434C1395 2544.46 1484.54 2634 1595 2634H3356.02H4845C4955.46 2634 5045 2544.46 5045 2434V2074H6060C6258.82 2074 6420 1912.82 6420 1714V1234C6420 1035.18 6258.82 874 6060 874ZM3224.44 642.433C2972.3 640.53 2570.23 698.037 2163.45 874H4303.94C4002 732.224 3644.2 642.433 3224.44 642.433Z" fill="#2A5F2A"/>
<path d="M5505.54 874L5492.16 888.866L5497.86 894H5505.54V874ZM3226.22 20V0V20ZM946.652 874V894H954.315L960.016 888.88L946.652 874ZM1395 2074H1415V2054H1395V2074ZM5045 2074V2054H5025V2074H5045ZM2163.45 874L2155.51 855.644L2163.45 894V874ZM3224.44 642.433L3224.29 662.433L3224.37 662.433H3224.44V642.433ZM4303.94 874V894L4312.44 855.896L4303.94 874ZM5505.54 894H6060V854H5505.54V894ZM3226.22 40C4226.12 40.0006 4966.27 415.551 5492.16 888.866L5518.92 859.134C4986.58 380.008 4237.14 0.000587463 3226.22 0V40ZM960.016 888.88C1487.05 415.544 2226.33 39.9994 3226.22 40V0C2215.3 -0.000587463 1466.75 380.014 933.288 859.12L960.016 888.88ZM380 894H946.652V854H380V894ZM40 1234C40 1046.22 192.223 894 380 894V854C170.132 854 0 1024.13 0 1234H40ZM40 1714V1234H0V1714H40ZM380 2054C192.223 2054 40 1901.78 40 1714H0C0 1923.87 170.132 2094 380 2094V2054ZM1395 2054H380V2094H1395V2054ZM1415 2434V2074H1375V2434H1415ZM1595 2614C1495.59 2614 1415 2533.41 1415 2434H1375C1375 2555.5 1473.5 2654 1595 2654V2614ZM3356.02 2614H1595V2654H3356.02V2614ZM4845 2614H3356.02V2654H4845V2614ZM5025 2434C5025 2533.41 4944.41 2614 4845 2614V2654C4966.5 2654 5065 2555.5 5065 2434H5025ZM5025 2074V2434H5065V2074H5025ZM6060 2054H5045V2094H6060V2054ZM6400 1714C6400 1901.78 6247.78 2054 6060 2054V2094C6269.87 2094 6440 1923.87 6440 1714H6400ZM6400 1234V1714H6440V1234H6400ZM6060 894C6247.78 894 6400 1046.22 6400 1234H6440C6440 1024.13 6269.87 854 6060 854V894ZM2171.39 892.356C2575.48 717.555 2974.78 660.549 3224.29 662.433L3224.59 622.434C2969.81 620.51 2564.97 678.52 2155.51 855.644L2171.39 892.356ZM4303.94 854H2163.45V894H4303.94V854ZM3224.44 662.433C3641.25 662.433 3996.15 751.571 4295.44 892.104L4312.44 855.896C4007.86 712.877 3647.15 622.433 3224.44 622.433V662.433Z" fill="#003214"/>
<path fill-rule="evenodd" clip-rule="evenodd" d="M6060 874H5505.54C4976.43 397.78 4231.63 20.0006 3226.22 20C2220.81 19.9994 1476.9 397.779 946.652 874H380C181.177 874 20 1035.18 20 1234V1714C20 1912.82 181.177 2074 380 2074H1395V2434C1395 2544.46 1484.54 2634 1595 2634H3356.02H4845C4955.46 2634 5045 2544.46 5045 2434V2074H6060C6258.82 2074 6420 1912.82 6420 1714V1234C6420 1035.18 6258.82 874 6060 874ZM3224.44 642.433C2972.3 640.53 2570.23 698.037 2163.45 874H4303.94C4002 732.224 3644.2 642.433 3224.44 642.433Z" fill="url(#paint0_linear)" fill-opacity="0.4"/>
<path d="M5505.54 874L5492.16 888.866L5497.86 894H5505.54V874ZM3226.22 20V0V20ZM946.652 874V894H954.315L960.016 888.88L946.652 874ZM1395 2074H1415V2054H1395V2074ZM5045 2074V2054H5025V2074H5045ZM2163.45 874L2155.51 855.644L2163.45 894V874ZM3224.44 642.433L3224.29 662.433L3224.37 662.433H3224.44V642.433ZM4303.94 874V894L4312.44 855.896L4303.94 874ZM5505.54 894H6060V854H5505.54V894ZM3226.22 40C4226.12 40.0006 4966.27 415.551 5492.16 888.866L5518.92 859.134C4986.58 380.008 4237.14 0.000587463 3226.22 0V40ZM960.016 888.88C1487.05 415.544 2226.33 39.9994 3226.22 40V0C2215.3 -0.000587463 1466.75 380.014 933.288 859.12L960.016 888.88ZM380 894H946.652V854H380V894ZM40 1234C40 1046.22 192.223 894 380 894V854C170.132 854 0 1024.13 0 1234H40ZM40 1714V1234H0V1714H40ZM380 2054C192.223 2054 40 1901.78 40 1714H0C0 1923.87 170.132 2094 380 2094V2054ZM1395 2054H380V2094H1395V2054ZM1415 2434V2074H1375V2434H1415ZM1595 2614C1495.59 2614 1415 2533.41 1415 2434H1375C1375 2555.5 1473.5 2654 1595 2654V2614ZM3356.02 2614H1595V2654H3356.02V2614ZM4845 2614H3356.02V2654H4845V2614ZM5025 2434C5025 2533.41 4944.41 2614 4845 2614V2654C4966.5 2654 5065 2555.5 5065 2434H5025ZM5025 2074V2434H5065V2074H5025ZM6060 2054H5045V2094H6060V2054ZM6400 1714C6400 1901.78 6247.78 2054 6060 2054V2094C6269.87 2094 6440 1923.87 6440 1714H6400ZM6400 1234V1714H6440V1234H6400ZM6060 894C6247.78 894 6400 1046.22 6400 1234H6440C6440 1024.13 6269.87 854 6060 854V894ZM2171.39 892.356C2575.48 717.555 2974.78 660.549 3224.29 662.433L3224.59 622.434C2969.81 620.51 2564.97 678.52 2155.51 855.644L2171.39 892.356ZM4303.94 854H2163.45V894H4303.94V854ZM3224.44 662.433C3641.25 662.433 3996.15 751.571 4295.44 892.104L4312.44 855.896C4007.86 712.877 3647.15 622.433 3224.44 622.433V662.433Z" fill="#003214"/>
<mask id="path-5-outside-1" maskUnits="userSpaceOnUse" x="1837" y="149" width="2765" height="598" fill="black">
<rect fill="white" x="1837" y="149" width="2765" height="598"/>
<path fill-rule="evenodd" clip-rule="evenodd" d="M3109.55 487.427L3184.66 487.429L3184.79 310.166C3213.08 349.369 3269.67 439.706 3292.81 487.431L3367.92 487.433L3368.14 190.006L3293.03 190.004L3292.91 353.632C3276.62 322.951 3212.32 224.944 3182.3 190.002L3109.77 190L3109.55 487.427ZM2773.18 519.586L2698.62 528.638L2662.66 233.372L2734.66 224.63C2768.7 255.697 2844.46 345.232 2864.36 373.724L2844.57 211.285L2919.13 202.233L2955.09 497.499L2880.54 506.551C2851.76 461.966 2784.6 379.114 2751.74 343.611L2773.18 519.586ZM2303.69 309.803C2293.44 360.658 2278.27 543.61 2280.27 622.167L2363.97 601.394C2362.74 582.375 2363.49 560.669 2364.55 536.689L2442.83 517.26C2455.09 537.933 2466 556.745 2473.89 574.111L2557.59 553.338C2522.27 483.049 2422.52 328.62 2389.47 288.514L2303.69 309.803ZM2366.69 379.37C2376.87 395.288 2403.68 440.459 2412.82 459.271L2363.68 471.466C2362.87 450.587 2365.21 398.182 2366.69 379.37ZM2116.84 600.527C2099.33 613.765 2075.95 623.864 2051.29 631.228C2006.9 644.484 1985.06 607.839 1970.75 560.493C1956.44 513.147 1954.58 471.426 1998.97 458.17C2023.63 450.805 2048.74 446.421 2070.69 447.876L2051.68 385.02C2025.17 386.262 2007.46 388.437 1977.04 397.52C1886.62 424.523 1860.91 493.614 1888.55 585.041C1916.19 676.468 1976.21 720.845 2066.63 693.842C2097.04 684.759 2113.03 676.87 2135.84 663.383L2116.84 600.527ZM3515.51 494.434C3542.86 420.646 3624.96 256.083 3653.38 212.556L3740.93 224.266C3756.7 273.704 3791.9 453.955 3798.55 532.29L3713.13 520.865C3712.26 501.818 3709.13 480.316 3705.43 456.588L3625.53 445.902C3615.63 467.811 3606.86 487.721 3600.93 505.859L3515.51 494.434ZM3699.12 391.636C3697.63 370.785 3689.54 318.932 3686 300.389C3677.64 317.341 3655.98 365.214 3648.97 384.929L3699.12 391.636ZM4123.16 538.617C4101.33 541.225 4076.04 538.166 4051.05 532.107C4006.05 521.201 4005.93 478.602 4017.73 430.556C4029.54 382.511 4049.21 345.587 4094.2 356.493C4119.2 362.552 4143.06 371.409 4161.23 383.712L4176.9 319.927C4153.43 307.655 4137.06 300.616 4106.24 293.143C4014.59 270.927 3957.22 317.582 3934.42 410.359C3911.62 503.137 3940.69 571.625 4032.34 593.841C4063.17 601.314 4080.96 602.555 4107.49 602.401L4123.16 538.617ZM4392.95 638.461C4431.62 649.762 4456.08 612.465 4469.65 566.654C4483.22 520.842 4482.99 476.333 4444.31 465.032C4405.64 453.731 4381.18 491.028 4367.61 536.839C4354.05 582.651 4354.28 627.161 4392.95 638.461ZM4462.6 403.268C4549 428.514 4577.86 503.165 4551.93 590.698C4526.01 678.231 4461.06 725.471 4374.66 700.225C4288.26 674.979 4259.41 600.328 4285.33 512.795C4311.25 425.263 4376.2 378.022 4462.6 403.268Z"/>
</mask>
<path fill-rule="evenodd" clip-rule="evenodd" d="M3109.55 487.427L3184.66 487.429L3184.79 310.166C3213.08 349.369 3269.67 439.706 3292.81 487.431L3367.92 487.433L3368.14 190.006L3293.03 190.004L3292.91 353.632C3276.62 322.951 3212.32 224.944 3182.3 190.002L3109.77 190L3109.55 487.427ZM2773.18 519.586L2698.62 528.638L2662.66 233.372L2734.66 224.63C2768.7 255.697 2844.46 345.232 2864.36 373.724L2844.57 211.285L2919.13 202.233L2955.09 497.499L2880.54 506.551C2851.76 461.966 2784.6 379.114 2751.74 343.611L2773.18 519.586ZM2303.69 309.803C2293.44 360.658 2278.27 543.61 2280.27 622.167L2363.97 601.394C2362.74 582.375 2363.49 560.669 2364.55 536.689L2442.83 517.26C2455.09 537.933 2466 556.745 2473.89 574.111L2557.59 553.338C2522.27 483.049 2422.52 328.62 2389.47 288.514L2303.69 309.803ZM2366.69 379.37C2376.87 395.288 2403.68 440.459 2412.82 459.271L2363.68 471.466C2362.87 450.587 2365.21 398.182 2366.69 379.37ZM2116.84 600.527C2099.33 613.765 2075.95 623.864 2051.29 631.228C2006.9 644.484 1985.06 607.839 1970.75 560.493C1956.44 513.147 1954.58 471.426 1998.97 458.17C2023.63 450.805 2048.74 446.421 2070.69 447.876L2051.68 385.02C2025.17 386.262 2007.46 388.437 1977.04 397.52C1886.62 424.523 1860.91 493.614 1888.55 585.041C1916.19 676.468 1976.21 720.845 2066.63 693.842C2097.04 684.759 2113.03 676.87 2135.84 663.383L2116.84 600.527ZM3515.51 494.434C3542.86 420.646 3624.96 256.083 3653.38 212.556L3740.93 224.266C3756.7 273.704 3791.9 453.955 3798.55 532.29L3713.13 520.865C3712.26 501.818 3709.13 480.316 3705.43 456.588L3625.53 445.902C3615.63 467.811 3606.86 487.721 3600.93 505.859L3515.51 494.434ZM3699.12 391.636C3697.63 370.785 3689.54 318.932 3686 300.389C3677.64 317.341 3655.98 365.214 3648.97 384.929L3699.12 391.636ZM4123.16 538.617C4101.33 541.225 4076.04 538.166 4051.05 532.107C4006.05 521.201 4005.93 478.602 4017.73 430.556C4029.54 382.511 4049.21 345.587 4094.2 356.493C4119.2 362.552 4143.06 371.409 4161.23 383.712L4176.9 319.927C4153.43 307.655 4137.06 300.616 4106.24 293.143C4014.59 270.927 3957.22 317.582 3934.42 410.359C3911.62 503.137 3940.69 571.625 4032.34 593.841C4063.17 601.314 4080.96 602.555 4107.49 602.401L4123.16 538.617ZM4392.95 638.461C4431.62 649.762 4456.08 612.465 4469.65 566.654C4483.22 520.842 4482.99 476.333 4444.31 465.032C4405.64 453.731 4381.18 491.028 4367.61 536.839C4354.05 582.651 4354.28 627.161 4392.95 638.461ZM4462.6 403.268C4549 428.514 4577.86 503.165 4551.93 590.698C4526.01 678.231 4461.06 725.471 4374.66 700.225C4288.26 674.979 4259.41 600.328 4285.33 512.795C4311.25 425.263 4376.2 378.022 4462.6 403.268Z" fill="white"/>
<path d="M3184.66 487.429L3184.66 527.429L3224.63 527.429L3224.66 487.458L3184.66 487.429ZM3109.55 487.427L3069.55 487.397L3069.52 527.426L3109.55 527.427L3109.55 487.427ZM3184.79 310.166L3217.22 286.755L3144.88 186.531L3144.79 310.136L3184.79 310.166ZM3292.81 487.431L3256.82 504.883L3267.75 527.431L3292.81 527.431L3292.81 487.431ZM3367.92 487.433L3367.92 527.433L3407.89 527.434L3407.92 487.462L3367.92 487.433ZM3368.14 190.006L3408.14 190.036L3408.17 150.007L3368.14 150.006L3368.14 190.006ZM3293.03 190.004L3293.03 150.004L3253.06 150.003L3253.03 189.975L3293.03 190.004ZM3292.91 353.632L3257.58 372.387L3332.91 353.661L3292.91 353.632ZM3182.3 190.002L3212.64 163.937L3200.67 150.002L3182.3 150.002L3182.3 190.002ZM3109.77 190L3109.77 150L3069.8 149.999L3069.77 189.971L3109.77 190ZM2698.62 528.638L2658.91 533.474L2663.75 573.165L2703.44 568.346L2698.62 528.638ZM2773.18 519.586L2778 559.294L2817.72 554.471L2812.88 514.749L2773.18 519.586ZM2662.66 233.372L2657.84 193.663L2618.11 198.486L2622.95 238.208L2662.66 233.372ZM2734.66 224.63L2761.62 195.082L2748.06 182.709L2729.83 184.922L2734.66 224.63ZM2864.36 373.724L2831.56 396.627L2904.06 368.887L2864.36 373.724ZM2844.57 211.285L2839.75 171.577L2800.03 176.4L2804.87 216.122L2844.57 211.285ZM2919.13 202.233L2958.83 197.397L2954 157.706L2914.31 162.525L2919.13 202.233ZM2955.09 497.499L2959.91 537.208L2999.64 532.385L2994.8 492.663L2955.09 497.499ZM2880.54 506.551L2846.93 528.243L2860.51 549.277L2885.36 546.26L2880.54 506.551ZM2751.74 343.611L2781.1 316.441L2697.08 225.658L2712.04 348.447L2751.74 343.611ZM2280.27 622.167L2240.29 623.185L2241.55 672.99L2289.91 660.989L2280.27 622.167ZM2303.69 309.803L2294.06 270.981L2269.49 277.08L2264.48 301.899L2303.69 309.803ZM2363.97 601.394L2373.6 640.216L2406.04 632.165L2403.88 598.814L2363.97 601.394ZM2364.55 536.689L2354.92 497.867L2325.92 505.064L2324.59 534.914L2364.55 536.689ZM2442.83 517.26L2477.24 496.857L2462.07 471.272L2433.2 478.437L2442.83 517.26ZM2473.89 574.111L2437.48 590.66L2451.24 620.947L2483.53 612.933L2473.89 574.111ZM2557.59 553.338L2567.22 592.16L2615.8 580.104L2593.33 535.381L2557.59 553.338ZM2389.47 288.514L2420.34 263.074L2404.3 243.619L2379.83 249.692L2389.47 288.514ZM2412.82 459.271L2422.45 498.093L2470.37 486.201L2448.8 441.793L2412.82 459.271ZM2366.69 379.37L2400.39 357.815L2336.14 257.38L2326.81 376.24L2366.69 379.37ZM2363.68 471.466L2323.71 473.019L2325.62 522.127L2373.32 510.288L2363.68 471.466ZM2051.29 631.228L2062.73 669.556H2062.73L2051.29 631.228ZM2116.84 600.527L2155.13 588.951L2138.51 533.99L2092.71 568.622L2116.84 600.527ZM1970.75 560.493L2009.04 548.917L1970.75 560.493ZM1998.97 458.17L1987.52 419.842H1987.52L1998.97 458.17ZM2070.69 447.876L2068.04 487.788L2125.7 491.611L2108.98 436.3L2070.69 447.876ZM2051.68 385.02L2089.97 373.444L2080.95 343.605L2049.81 345.064L2051.68 385.02ZM1977.04 397.52L1965.6 359.193L1965.6 359.193L1977.04 397.52ZM1888.55 585.041L1926.84 573.465L1888.55 585.041ZM2066.63 693.842L2078.08 732.169L2066.63 693.842ZM2135.84 663.383L2156.2 697.814L2183.21 681.843L2174.13 651.807L2135.84 663.383ZM3653.38 212.556L3658.68 172.909L3633.68 169.565L3619.89 190.687L3653.38 212.556ZM3515.51 494.434L3478 480.534L3460.62 527.448L3510.21 534.081L3515.51 494.434ZM3740.93 224.266L3779.03 212.105L3771.33 187.977L3746.23 184.619L3740.93 224.266ZM3798.55 532.29L3793.25 571.937L3842.63 578.541L3838.41 528.905L3798.55 532.29ZM3713.13 520.865L3673.17 522.692L3674.7 556.081L3707.83 560.512L3713.13 520.865ZM3705.43 456.588L3744.95 450.432L3740.36 420.903L3710.73 416.941L3705.43 456.588ZM3625.53 445.902L3630.84 406.255L3601.34 402.31L3589.08 429.426L3625.53 445.902ZM3600.93 505.859L3595.63 545.506L3628.61 549.917L3638.95 518.287L3600.93 505.859ZM3686 300.389L3725.29 292.897L3702.94 175.657L3650.13 282.69L3686 300.389ZM3699.12 391.636L3693.82 431.283L3742.52 437.798L3739.02 388.783L3699.12 391.636ZM3648.97 384.929L3611.28 371.53L3594.75 418.033L3643.67 424.576L3648.97 384.929ZM4051.05 532.107L4060.47 493.233V493.233L4051.05 532.107ZM4123.16 538.617L4162 548.162L4175.8 492.043L4118.41 498.899L4123.16 538.617ZM4017.73 430.556L3978.89 421.01L4017.73 430.556ZM4094.2 356.493L4103.62 317.619V317.619L4094.2 356.493ZM4161.23 383.712L4138.8 416.83L4186.36 449.046L4200.07 393.257L4161.23 383.712ZM4176.9 319.927L4215.74 329.473L4223.23 299.014L4195.44 284.481L4176.9 319.927ZM4106.24 293.143L4115.66 254.269V254.269L4106.24 293.143ZM3934.42 410.359L3973.26 419.905V419.905L3934.42 410.359ZM4032.34 593.841L4022.92 632.715L4032.34 593.841ZM4107.49 602.401L4107.72 642.401L4138.89 642.22L4146.33 611.947L4107.49 602.401ZM4469.65 566.654L4508 578.012L4469.65 566.654ZM4392.95 638.461L4404.17 600.067L4392.95 638.461ZM4444.31 465.032L4433.09 503.426L4444.31 465.032ZM4367.61 536.839L4329.26 525.481L4329.26 525.481L4367.61 536.839ZM4551.93 590.698L4590.29 602.056L4551.93 590.698ZM4462.6 403.268L4473.82 364.874L4462.6 403.268ZM4374.66 700.225L4385.88 661.83L4374.66 700.225ZM4285.33 512.795L4323.68 524.154L4285.33 512.795ZM3184.66 447.429L3109.55 447.427L3109.55 527.427L3184.66 527.429L3184.66 447.429ZM3144.79 310.136L3144.66 487.399L3224.66 487.458L3224.79 310.195L3144.79 310.136ZM3328.8 469.979C3304.37 419.584 3246.43 327.225 3217.22 286.755L3152.35 333.576C3179.74 371.513 3234.97 459.828 3256.82 504.883L3328.8 469.979ZM3367.92 447.433L3292.81 447.431L3292.81 527.431L3367.92 527.433L3367.92 447.433ZM3328.14 189.977L3327.92 487.404L3407.92 487.462L3408.14 190.036L3328.14 189.977ZM3293.03 230.004L3368.14 230.006L3368.14 150.006L3293.03 150.004L3293.03 230.004ZM3332.91 353.661L3333.03 190.034L3253.03 189.975L3252.91 353.602L3332.91 353.661ZM3151.96 216.067C3165.23 231.511 3187.62 262.921 3209.5 295.646C3231.34 328.311 3250.48 359.006 3257.58 372.387L3328.24 334.877C3319.06 317.577 3297.9 283.928 3276.01 251.184C3254.16 218.499 3229.39 183.435 3212.64 163.937L3151.96 216.067ZM3109.77 230L3182.3 230.002L3182.3 150.002L3109.77 150L3109.77 230ZM3149.55 487.456L3149.77 190.029L3069.77 189.971L3069.55 487.397L3149.55 487.456ZM2703.44 568.346L2778 559.294L2768.36 479.877L2693.8 488.929L2703.44 568.346ZM2622.95 238.208L2658.91 533.474L2738.33 523.801L2702.36 228.535L2622.95 238.208ZM2729.83 184.922L2657.84 193.663L2667.48 273.08L2739.48 264.339L2729.83 184.922ZM2897.15 350.82C2885.93 334.757 2860.84 303.908 2835.13 274.044C2809.46 244.233 2780.61 212.415 2761.62 195.082L2707.69 254.178C2722.75 267.912 2748.8 296.395 2774.5 326.242C2800.15 356.034 2822.88 384.199 2831.56 396.627L2897.15 350.82ZM2804.87 216.122L2824.65 378.56L2904.06 368.887L2884.28 206.449L2804.87 216.122ZM2914.31 162.525L2839.75 171.577L2849.39 250.994L2923.95 241.942L2914.31 162.525ZM2994.8 492.663L2958.83 197.397L2879.42 207.07L2915.39 502.336L2994.8 492.663ZM2885.36 546.26L2959.91 537.208L2950.27 457.791L2875.72 466.843L2885.36 546.26ZM2722.39 370.78C2754.18 405.138 2819.76 486.149 2846.93 528.243L2914.14 484.86C2883.76 437.784 2815.02 353.09 2781.1 316.441L2722.39 370.78ZM2812.88 514.749L2791.45 338.774L2712.04 348.447L2733.47 524.422L2812.88 514.749ZM2320.26 621.148C2319.31 584.064 2322.46 520.422 2327.27 458.704C2332.11 396.578 2338.33 340.427 2342.91 317.707L2264.48 301.899C2258.81 330.034 2252.32 390.787 2247.51 452.489C2242.67 514.601 2239.23 581.713 2240.29 623.185L2320.26 621.148ZM2354.33 562.572L2270.64 583.345L2289.91 660.989L2373.6 640.216L2354.33 562.572ZM2324.59 534.914C2323.54 558.663 2322.66 582.463 2324.05 603.975L2403.88 598.814C2402.82 582.287 2403.44 562.675 2404.51 538.464L2324.59 534.914ZM2433.2 478.437L2354.92 497.867L2374.19 575.511L2452.47 556.082L2433.2 478.437ZM2510.31 557.561C2501.39 537.927 2489.38 517.331 2477.24 496.857L2408.43 537.662C2420.81 558.535 2430.62 575.564 2437.48 590.66L2510.31 557.561ZM2547.95 514.516L2464.26 535.289L2483.53 612.933L2567.22 592.16L2547.95 514.516ZM2358.6 313.954C2373.38 331.883 2405.38 378.559 2438.97 431.144C2472.35 483.385 2505.17 538.107 2521.84 571.295L2593.33 535.381C2574.69 498.28 2539.98 440.643 2506.39 388.072C2473.02 335.843 2438.62 285.251 2420.34 263.074L2358.6 313.954ZM2313.33 348.625L2399.11 327.336L2379.83 249.692L2294.06 270.981L2313.33 348.625ZM2448.8 441.793C2438.63 420.872 2410.84 374.156 2400.39 357.815L2332.99 400.924C2342.91 416.42 2368.72 460.046 2376.84 476.75L2448.8 441.793ZM2373.32 510.288L2422.45 498.093L2403.18 420.449L2354.05 432.644L2373.32 510.288ZM2326.81 376.24C2325.3 395.554 2322.81 449.792 2323.71 473.019L2403.65 469.913C2402.93 451.381 2405.13 400.809 2406.57 382.499L2326.81 376.24ZM2062.73 669.556C2089.74 661.489 2118.15 649.68 2140.96 632.432L2092.71 568.622C2080.51 577.85 2062.15 586.238 2039.84 592.901L2062.73 669.556ZM1932.46 572.068C1939.96 596.886 1951.17 625.605 1970.79 646.187C1981.21 657.117 1994.65 666.453 2011.51 671.029C2028.4 675.616 2045.78 674.619 2062.73 669.556L2039.84 592.901C2034.6 594.465 2032.6 593.859 2032.47 593.824C2032.3 593.777 2031.07 593.478 2028.69 590.986C2022.72 584.722 2015.85 571.446 2009.04 548.917L1932.46 572.068ZM1987.52 419.842C1970.71 424.862 1955.67 433.415 1944.04 446.383C1932.4 459.362 1926.22 474.48 1923.5 489.348C1918.39 517.257 1924.97 547.301 1932.46 572.068L2009.04 548.917C2002.21 526.339 2000.71 511.849 2002.19 503.747C2002.77 500.61 2003.55 499.852 2003.59 499.801C2003.65 499.738 2005.02 498.106 2010.41 496.497L1987.52 419.842ZM2073.33 407.964C2044.77 406.07 2014.54 411.774 1987.52 419.842L2010.41 496.497C2032.71 489.837 2052.7 486.771 2068.04 487.788L2073.33 407.964ZM2013.4 396.596L2032.4 459.452L2108.98 436.3L2089.97 373.444L2013.4 396.596ZM1988.49 435.848C2015.25 427.855 2029.68 426.095 2053.56 424.976L2049.81 345.064C2020.67 346.429 1999.66 349.02 1965.6 359.193L1988.49 435.848ZM1926.84 573.465C1914.62 533.043 1916.08 503.577 1925.07 483.386C1933.5 464.439 1951.59 446.867 1988.49 435.847L1965.6 359.193C1912.08 375.176 1872.1 405.651 1851.98 450.857C1832.41 494.819 1834.84 545.612 1850.26 596.617L1926.84 573.465ZM2055.18 655.514C2018.47 666.479 1993.5 661.669 1975.69 650.213C1956.72 638.006 1939.05 613.867 1926.84 573.465L1850.26 596.617C1865.69 647.642 1891.85 691.404 1932.41 717.492C1974.12 744.331 2024.37 748.207 2078.08 732.169L2055.18 655.514ZM2115.48 628.951C2094.95 641.092 2081.95 647.522 2055.18 655.514L2078.08 732.169C2112.14 721.996 2131.11 712.647 2156.2 697.814L2115.48 628.951ZM2078.55 612.102L2097.55 674.958L2174.13 651.807L2155.13 588.951L2078.55 612.102ZM3619.89 190.687C3604.17 214.753 3575.56 268.852 3548.16 324.468C3520.58 380.449 3492.44 441.588 3478 480.534L3553.02 508.334C3565.93 473.491 3592.51 415.455 3619.92 359.826C3647.51 303.832 3674.16 253.887 3686.87 234.426L3619.89 190.687ZM3746.23 184.619L3658.68 172.909L3648.08 252.203L3735.62 263.913L3746.23 184.619ZM3838.41 528.905C3834.9 487.553 3824.1 421.199 3812.46 359.971C3800.89 299.145 3787.76 239.453 3779.03 212.105L3702.82 236.427C3709.87 258.517 3722.22 313.669 3733.87 374.912C3745.43 435.753 3755.56 498.693 3758.7 535.676L3838.41 528.905ZM3707.83 560.512L3793.25 571.937L3803.86 492.643L3718.43 481.218L3707.83 560.512ZM3665.91 462.744C3669.64 486.701 3672.42 506.137 3673.17 522.692L3753.09 519.038C3752.11 497.498 3748.62 473.931 3744.95 450.432L3665.91 462.744ZM3620.23 485.549L3700.13 496.235L3710.73 416.941L3630.84 406.255L3620.23 485.549ZM3638.95 518.287C3644.11 502.516 3651.98 484.498 3661.98 462.378L3589.08 429.426C3579.28 451.124 3569.62 472.925 3562.91 493.431L3638.95 518.287ZM3510.21 534.081L3595.63 545.506L3606.24 466.212L3520.81 454.787L3510.21 534.081ZM3646.71 307.881C3650.15 325.93 3657.9 375.979 3659.22 394.489L3739.02 388.783C3737.36 365.591 3728.92 311.935 3725.29 292.897L3646.71 307.881ZM3686.66 398.328C3692.89 380.82 3713.73 334.59 3721.87 318.087L3650.13 282.69C3641.55 300.092 3619.08 349.608 3611.28 371.53L3686.66 398.328ZM3704.42 351.989L3654.27 345.282L3643.67 424.576L3693.82 431.283L3704.42 351.989ZM4041.62 570.981C4069.01 577.621 4099.49 581.729 4127.91 578.334L4118.41 498.899C4103.17 500.721 4083.07 498.712 4060.47 493.233L4041.62 570.981ZM3978.89 421.01C3972.71 446.175 3967.7 476.612 3974.12 504.297C3977.54 519.013 3984.39 533.902 3996.63 546.396C4008.91 558.916 4024.43 566.814 4041.62 570.981L4060.47 493.233C4055.16 491.947 4053.8 490.431 4053.76 490.394C4053.7 490.332 4052.82 489.524 4052.06 486.221C4050.12 477.868 4050.96 462.983 4056.58 440.102L3978.89 421.01ZM4103.62 317.619C4086.57 313.485 4069.29 313.306 4052.72 318.617C4036.15 323.93 4023.17 333.814 4013.29 345.229C3994.71 366.677 3985.07 395.861 3978.89 421.01L4056.58 440.102C4062.21 417.205 4068.3 403.905 4073.76 397.606C4075.89 395.147 4077.01 394.842 4077.14 394.798C4077.29 394.752 4079.33 394.047 4084.78 395.367L4103.62 317.619ZM4183.66 350.593C4159.98 334.56 4131.01 324.256 4103.62 317.619L4084.78 395.367C4107.39 400.847 4126.14 408.259 4138.8 416.83L4183.66 350.593ZM4138.06 310.382L4122.38 374.166L4200.07 393.257L4215.74 329.473L4138.06 310.382ZM4096.81 332.017C4123.93 338.591 4137.24 344.329 4158.37 355.374L4195.44 284.481C4169.62 270.982 4150.19 262.64 4115.66 254.269L4096.81 332.017ZM3973.26 419.905C3983.34 378.896 3999.64 354.135 4017.77 341.167C4034.82 328.981 4059.44 322.958 4096.81 332.017L4115.66 254.269C4061.38 241.112 4011.5 247.308 3971.24 276.09C3932.08 304.09 3908.29 349.045 3895.57 400.814L3973.26 419.905ZM4041.77 554.967C4004.56 545.948 3985.61 529.262 3976.18 510.557C3966.11 490.583 3963.18 460.931 3973.26 419.905L3895.57 400.814C3882.85 452.565 3883.06 503.546 3904.74 546.565C3927.06 590.852 3968.48 619.519 4022.92 632.715L4041.77 554.967ZM4107.25 562.402C4083.37 562.54 4068.89 561.541 4041.77 554.967L4022.92 632.715C4057.45 641.087 4078.56 642.57 4107.72 642.401L4107.25 562.402ZM4084.32 529.071L4068.64 592.856L4146.33 611.947L4162 548.162L4084.32 529.071ZM4431.3 555.295C4425.2 575.876 4417.88 589.767 4411.38 596.779C4408.48 599.905 4406.87 600.446 4406.8 600.469C4406.76 600.482 4406.72 600.499 4406.54 600.5C4406.33 600.501 4405.59 600.48 4404.17 600.067L4381.73 676.856C4398.58 681.778 4415.67 681.788 4431.89 676.433C4447.7 671.209 4460.3 661.683 4470.05 651.17C4488.83 630.907 4500.53 603.243 4508 578.012L4431.3 555.295ZM4433.09 503.426C4434.51 503.84 4435.14 504.222 4435.29 504.321C4435.34 504.352 4435.37 504.374 4435.38 504.385C4435.39 504.391 4435.4 504.395 4435.4 504.397C4435.4 504.398 4435.4 504.399 4435.4 504.399C4435.4 504.4 4435.4 504.4 4435.4 504.4C4435.4 504.4 4435.4 504.4 4435.4 504.4C4435.4 504.4 4435.4 504.399 4435.4 504.399C4435.4 504.399 4435.4 504.398 4435.4 504.398C4435.4 504.398 4435.4 504.398 4435.4 504.398C4435.4 504.398 4435.4 504.399 4435.4 504.401C4435.41 504.404 4435.41 504.409 4435.41 504.416C4435.44 504.441 4435.68 504.741 4436.02 505.546C4436.37 506.381 4436.81 507.746 4437.17 509.794C4438.8 519.12 4437.39 534.7 4431.3 555.295L4508 578.012C4515.47 552.796 4520.73 523.216 4515.97 496.008C4513.5 481.884 4508.08 467.026 4497.57 454.056C4486.8 440.761 4472.38 431.56 4455.53 426.637L4433.09 503.426ZM4405.97 548.198C4412.06 527.617 4419.38 513.727 4425.88 506.714C4428.78 503.589 4430.4 503.047 4430.46 503.025C4430.5 503.011 4430.54 502.994 4430.72 502.993C4430.93 502.992 4431.68 503.013 4433.09 503.426L4455.53 426.637C4438.68 421.715 4421.59 421.705 4405.38 427.06C4389.56 432.284 4376.96 441.811 4367.22 452.323C4348.43 472.586 4336.73 500.25 4329.26 525.481L4405.97 548.198ZM4404.17 600.067C4402.75 599.653 4402.12 599.271 4401.97 599.172C4401.92 599.141 4401.9 599.12 4401.88 599.108C4401.87 599.103 4401.87 599.099 4401.86 599.096C4401.86 599.095 4401.86 599.094 4401.86 599.094C4401.86 599.093 4401.86 599.093 4401.86 599.093C4401.86 599.093 4401.86 599.093 4401.86 599.093C4401.86 599.094 4401.86 599.094 4401.86 599.094C4401.86 599.095 4401.86 599.095 4401.86 599.095C4401.86 599.095 4401.86 599.096 4401.86 599.096C4401.86 599.096 4401.86 599.094 4401.86 599.092C4401.86 599.089 4401.85 599.085 4401.85 599.078C4401.83 599.052 4401.59 598.752 4401.25 597.947C4400.9 597.112 4400.45 595.747 4400.09 593.699C4398.46 584.373 4399.87 568.793 4405.97 548.198L4329.26 525.481C4321.79 550.697 4316.53 580.278 4321.29 607.485C4323.76 621.609 4329.18 636.467 4339.69 649.438C4350.46 662.732 4364.89 671.933 4381.73 676.856L4404.17 600.067ZM4590.29 602.056C4605.16 551.826 4605.6 500.97 4585.85 457.182C4565.66 412.411 4526.73 380.332 4473.82 364.874L4451.39 441.663C4484.88 451.45 4503.57 469.32 4512.93 490.069C4522.73 511.802 4524.63 542.037 4513.58 579.339L4590.29 602.056ZM4363.44 738.619C4416.35 754.079 4466.46 748.028 4507.71 721.334C4548.07 695.214 4575.41 652.301 4590.29 602.056L4513.58 579.339C4502.54 616.628 4484.44 641.101 4464.24 654.173C4444.93 666.671 4419.37 671.617 4385.88 661.83L4363.44 738.619ZM4246.98 501.437C4232.1 551.668 4231.66 602.523 4251.41 646.311C4271.6 691.083 4310.54 723.161 4363.44 738.619L4385.88 661.83C4352.38 652.043 4333.69 634.173 4324.34 613.424C4314.54 591.691 4312.64 561.456 4323.68 524.154L4246.98 501.437ZM4473.82 364.874C4420.92 349.414 4370.8 355.465 4329.55 382.159C4289.2 408.279 4261.86 451.192 4246.98 501.437L4323.68 524.154C4334.73 486.866 4352.82 462.392 4373.02 449.32C4392.33 436.822 4417.89 431.876 4451.39 441.663L4473.82 364.874Z" fill="#003214" mask="url(#path-5-outside-1)"/>
<path d="M200 1274C200 1152.5 298.497 1054 420 1054H1020C1141.5 1054 1240 1152.5 1240 1274V1674C1240 1795.5 1141.5 1894 1020 1894H760.247H420C298.497 1894 200 1795.5 200 1674V1274Z" fill="black" stroke="#003214" stroke-width="40"/>
<path d="M200 1274C200 1152.5 298.497 1054 420 1054H1020C1141.5 1054 1240 1152.5 1240 1274V1674C1240 1795.5 1141.5 1894 1020 1894H760.247H420C298.497 1894 200 1795.5 200 1674V1274Z" fill="url(#paint1_linear)" fill-opacity="0.3" stroke="#003214" stroke-width="40"/>
<path d="M5200 1274C5200 1152.5 5298.5 1054 5420 1054H6020C6141.5 1054 6240 1152.5 6240 1274V1674C6240 1795.5 6141.5 1894 6020 1894H5760.25H5420C5298.5 1894 5200 1795.5 5200 1674V1274Z" fill="black" stroke="#003214" stroke-width="40"/>
<path d="M5200 1274C5200 1152.5 5298.5 1054 5420 1054H6020C6141.5 1054 6240 1152.5 6240 1274V1674C6240 1795.5 6141.5 1894 6020 1894H5760.25H5420C5298.5 1894 5200 1795.5 5200 1674V1274Z" fill="url(#paint2_linear)" fill-opacity="0.3" stroke="#003214" stroke-width="40"/>
<path d="M1535 1694C1535 1572.5 1633.5 1474 1755 1474H4685C4806.5 1474 4905 1572.5 4905 1694C4905 1815.5 4806.5 1914 4685 1914H3345.59H1755C1633.5 1914 1535 1815.5 1535 1694Z" fill="#003214"/>
<path d="M2591.52 1313H2630.32V1173.4H2591.52V1225.4H2554.12V1173.4H2515.32V1313H2554.12V1257.6H2591.52V1313ZM2674.29 1313H2713.09V1173.4H2674.29V1313ZM2830.89 1259.6V1279C2830.89 1283 2828.29 1283.8 2826.49 1284.2C2823.29 1285 2819.49 1285.6 2815.89 1285.6C2795.49 1285.6 2789.89 1268.6 2789.89 1243.2C2789.89 1218 2797.09 1200.8 2821.89 1200.8C2835.49 1200.8 2846.69 1202.6 2862.69 1209V1177.8C2853.09 1173.8 2838.69 1170.6 2821.89 1170.6C2773.09 1170.6 2749.89 1196.6 2749.89 1243.2C2749.89 1290.2 2771.49 1315.8 2815.89 1315.8C2832.29 1315.8 2843.49 1312.2 2851.69 1307.8C2866.69 1299.4 2867.69 1293.8 2867.69 1279V1231.8H2813.09V1259.6H2830.89ZM2985.42 1313H3024.22V1173.4H2985.42V1225.4H2948.02V1173.4H2909.22V1313H2948.02V1257.6H2985.42V1313ZM3150.59 1243.2C3150.59 1265.6 3144.59 1285.6 3125.79 1285.6C3106.99 1285.6 3100.99 1265.6 3100.99 1243.2C3100.99 1220.8 3106.99 1200.8 3125.79 1200.8C3144.59 1200.8 3150.59 1220.8 3150.59 1243.2ZM3190.59 1243.2C3190.59 1200.4 3167.79 1170.6 3125.79 1170.6C3083.79 1170.6 3060.99 1200.4 3060.99 1243.2C3060.99 1286 3083.79 1315.8 3125.79 1315.8C3167.79 1315.8 3190.59 1286 3190.59 1243.2ZM3375.75 1173.4H3331.35C3321.75 1189.4 3308.15 1226.2 3303.35 1244.2C3298.55 1226.2 3284.95 1189.4 3275.35 1173.4H3230.95L3223.75 1313H3260.55L3263.95 1223C3272.35 1241 3279.35 1261.8 3285.95 1286.6H3320.75C3327.35 1261.8 3334.35 1241 3342.75 1223L3346.15 1313H3382.95L3375.75 1173.4ZM3423.43 1313H3521.03V1282.8H3462.23V1256.4H3512.83V1226.6H3462.23V1203.6H3521.03V1173.4H3423.43V1313ZM3579.18 1313H3617.98V1204.8H3652.98V1173.4H3544.18V1204.8H3579.18V1313ZM3682.97 1313H3780.57V1282.8H3721.77V1256.4H3772.37V1226.6H3721.77V1203.6H3780.57V1173.4H3682.97V1313ZM3817.72 1313H3856.72V1285.4C3856.72 1271 3859.72 1268.8 3862.92 1268C3863.72 1267.8 3866.72 1267 3867.12 1267C3874.32 1276.6 3886.12 1297 3892.92 1313H3935.92C3927.12 1293.4 3914.52 1271 3902.52 1257.4C3916.52 1251 3927.32 1239.4 3927.32 1219.4C3927.32 1184.6 3905.32 1171.4 3865.32 1171.4C3853.92 1171.4 3833.52 1172 3817.72 1174.6V1313ZM3856.72 1201.6C3859.52 1201.2 3861.12 1201 3864.72 1201C3880.72 1201 3887.72 1208.2 3887.72 1219.4C3887.72 1231 3879.52 1237.2 3868.32 1238.4C3863.12 1239 3859.52 1239.6 3856.72 1240.8V1201.6Z" fill="white"/>
<path d="M377.645 1305.4C390.045 1311.8 409.045 1315.8 423.845 1315.8C454.645 1315.8 481.645 1303.8 481.645 1271.8C481.645 1244.6 464.845 1233.4 442.445 1227L434.845 1224.8C426.445 1222.4 416.645 1219 416.645 1211.4C416.645 1204.8 421.845 1200.8 430.845 1200.8C446.845 1200.8 460.045 1204 473.645 1209.6V1178C460.045 1172.8 445.445 1170.6 431.445 1170.6C398.245 1170.6 376.645 1184.6 376.645 1212.6C376.645 1242.2 397.445 1252.2 419.045 1258.2L426.845 1260.4C434.445 1262.6 441.645 1265.8 441.645 1273C441.645 1280.8 435.445 1285.6 424.245 1285.6C408.245 1285.6 390.045 1278.8 377.645 1272.8V1305.4ZM601.181 1243.2C601.181 1265.6 595.181 1285.6 576.381 1285.6C557.581 1285.6 551.581 1265.6 551.581 1243.2C551.581 1220.8 557.581 1200.8 576.381 1200.8C595.181 1200.8 601.181 1220.8 601.181 1243.2ZM641.181 1243.2C641.181 1200.4 618.381 1170.6 576.381 1170.6C534.381 1170.6 511.581 1200.4 511.581 1243.2C511.581 1286 534.381 1315.8 576.381 1315.8C618.381 1315.8 641.181 1286 641.181 1243.2ZM770.545 1280.6C760.945 1284.2 749.145 1285.6 737.145 1285.6C715.545 1285.6 710.745 1266.2 710.745 1243C710.745 1219.8 715.545 1200.8 737.145 1200.8C749.145 1200.8 760.945 1202.2 770.545 1205.8V1175C758.545 1172 750.345 1170.6 735.545 1170.6C691.545 1170.6 670.745 1198.2 670.745 1243C670.745 1287.8 691.545 1315.8 735.545 1315.8C750.345 1315.8 758.545 1314.4 770.545 1311.4V1280.6ZM806.641 1313H845.441V1301C845.441 1280 851.841 1269.6 856.441 1263.6L858.641 1260.8C869.841 1274.4 881.841 1296.2 889.841 1313H935.241C917.241 1277 893.841 1243.4 884.241 1233.8L929.441 1173.4H884.041L861.041 1207C852.641 1219 847.841 1229 845.441 1236.6V1173.4H806.641V1313ZM959.419 1305.4C971.819 1311.8 990.819 1315.8 1005.62 1315.8C1036.42 1315.8 1063.42 1303.8 1063.42 1271.8C1063.42 1244.6 1046.62 1233.4 1024.22 1227L1016.62 1224.8C1008.22 1222.4 998.419 1219 998.419 1211.4C998.419 1204.8 1003.62 1200.8 1012.62 1200.8C1028.62 1200.8 1041.82 1204 1055.42 1209.6V1178C1041.82 1172.8 1027.22 1170.6 1013.22 1170.6C980.019 1170.6 958.419 1184.6 958.419 1212.6C958.419 1242.2 979.219 1252.2 1000.82 1258.2L1008.62 1260.4C1016.22 1262.6 1023.42 1265.8 1023.42 1273C1023.42 1280.8 1017.22 1285.6 1006.02 1285.6C990.019 1285.6 971.819 1278.8 959.419 1272.8V1305.4Z" fill="white"/>
<path d="M5398.13 1201.6C5400.93 1201.2 5402.53 1201 5406.13 1201C5422.13 1201 5428.73 1208.2 5428.73 1219.4C5428.73 1233.4 5422.93 1239.6 5409.73 1241.2C5404.53 1241.8 5400.93 1242.4 5398.13 1243.6V1201.6ZM5359.33 1313H5398.13V1288.2C5398.13 1272.2 5400.73 1270.6 5411.93 1269.4C5446.73 1265.4 5468.73 1253 5468.73 1219.4C5468.73 1184.6 5446.73 1171.4 5406.73 1171.4C5395.13 1171.4 5375.33 1172 5359.33 1174.6V1313ZM5503.07 1313H5541.87V1173.4H5503.07V1313ZM5678.46 1280.6C5668.86 1284.2 5657.06 1285.6 5645.06 1285.6C5623.46 1285.6 5618.66 1266.2 5618.66 1243C5618.66 1219.8 5623.46 1200.8 5645.06 1200.8C5657.06 1200.8 5668.86 1202.2 5678.46 1205.8V1175C5666.46 1172 5658.26 1170.6 5643.46 1170.6C5599.46 1170.6 5578.66 1198.2 5578.66 1243C5578.66 1287.8 5599.46 1315.8 5643.46 1315.8C5658.26 1315.8 5666.46 1314.4 5678.46 1311.4V1280.6ZM5714.56 1313H5753.36V1301C5753.36 1280 5759.76 1269.6 5764.36 1263.6L5766.56 1260.8C5777.76 1274.4 5789.76 1296.2 5797.76 1313H5843.16C5825.16 1277 5801.76 1243.4 5792.16 1233.8L5837.36 1173.4H5791.96L5768.96 1207C5760.56 1219 5755.76 1229 5753.36 1236.6V1173.4H5714.56V1313ZM5873.14 1313H5959.14V1281.6H5911.94V1173.4H5873.14V1313ZM5989.92 1313H6087.52V1282.8H6028.72V1256.4H6079.32V1226.6H6028.72V1203.6H6087.52V1173.4H5989.92V1313Z" fill="white"/>
<path d="M2054.3 1642.32H2018.78C2011.1 1655.12 2000.22 1684.56 1996.38 1698.96C1992.54 1684.56 1981.66 1655.12 1973.98 1642.32H1938.46L1932.7 1754H1962.14L1964.86 1682C1971.58 1696.4 1977.18 1713.04 1982.46 1732.88H2010.3C2015.58 1713.04 2021.18 1696.4 2027.9 1682L2030.62 1754H2060.06L2054.3 1642.32ZM2092.44 1754H2123.48V1642.32H2092.44V1754ZM2158.68 1754H2227.48V1728.88H2189.72V1642.32H2158.68V1754ZM2252.1 1753.68C2263.94 1755.28 2280.74 1755.6 2290.02 1755.6C2328.58 1755.6 2347.14 1735.92 2347.14 1698.48C2347.14 1661.04 2328.58 1640.72 2290.02 1640.72C2280.74 1640.72 2264.9 1641.04 2252.1 1643.28V1753.68ZM2283.14 1665.2C2284.42 1665.04 2285.86 1664.88 2289.06 1664.88C2308.9 1664.88 2315.14 1678 2315.14 1698.48C2315.14 1718.96 2308.26 1731.44 2289.06 1731.44C2285.86 1731.44 2284.42 1731.28 2283.14 1731.12V1665.2Z" fill="white"/>
<path d="M2988.08 1642.32H2952.56C2944.88 1655.12 2934 1684.56 2930.16 1698.96C2926.32 1684.56 2915.44 1655.12 2907.76 1642.32H2872.24L2866.48 1754H2895.92L2898.64 1682C2905.36 1696.4 2910.96 1713.04 2916.24 1732.88H2944.08C2949.36 1713.04 2954.96 1696.4 2961.68 1682L2964.4 1754H2993.84L2988.08 1642.32ZM3026.22 1754H3104.3V1729.84H3057.26V1708.72H3097.74V1684.88H3057.26V1666.48H3104.3V1642.32H3026.22V1754ZM3134.02 1753.68C3145.86 1755.28 3162.66 1755.6 3171.94 1755.6C3210.5 1755.6 3229.06 1735.92 3229.06 1698.48C3229.06 1661.04 3210.5 1640.72 3171.94 1640.72C3162.66 1640.72 3146.82 1641.04 3134.02 1643.28V1753.68ZM3165.06 1665.2C3166.34 1665.04 3167.78 1664.88 3170.98 1664.88C3190.82 1664.88 3197.06 1678 3197.06 1698.48C3197.06 1718.96 3190.18 1731.44 3170.98 1731.44C3167.78 1731.44 3166.34 1731.28 3165.06 1731.12V1665.2ZM3258.54 1754H3289.58V1642.32H3258.54V1754ZM3355.5 1642.32H3324.46V1713.04C3324.46 1741.84 3341.42 1756.24 3369.26 1756.24C3397.1 1756.24 3414.06 1741.84 3414.06 1713.04V1642.32H3383.02V1712.24C3383.02 1725.04 3378.54 1732.08 3369.26 1732.08C3359.98 1732.08 3355.5 1725.04 3355.5 1712.24V1642.32ZM3567.7 1642.32H3532.18C3524.5 1655.12 3513.62 1684.56 3509.78 1698.96C3505.94 1684.56 3495.06 1655.12 3487.38 1642.32H3451.86L3446.1 1754H3475.54L3478.26 1682C3484.98 1696.4 3490.58 1713.04 3495.86 1732.88H3523.7C3528.98 1713.04 3534.58 1696.4 3541.3 1682L3544.02 1754H3573.46L3567.7 1642.32Z" fill="white"/>
<path d="M4187.41 1754H4218.45V1642.32H4187.41V1683.92H4157.49V1642.32H4126.45V1754H4157.49V1709.68H4187.41V1754ZM4253.63 1754H4284.67V1642.32H4253.63V1754ZM4378.91 1711.28V1726.8C4378.91 1730 4376.83 1730.64 4375.39 1730.96C4372.83 1731.6 4369.79 1732.08 4366.91 1732.08C4350.59 1732.08 4346.11 1718.48 4346.11 1698.16C4346.11 1678 4351.87 1664.24 4371.71 1664.24C4382.59 1664.24 4391.55 1665.68 4404.35 1670.8V1645.84C4396.67 1642.64 4385.15 1640.08 4371.71 1640.08C4332.67 1640.08 4314.11 1660.88 4314.11 1698.16C4314.11 1735.76 4331.39 1756.24 4366.91 1756.24C4380.03 1756.24 4388.99 1753.36 4395.55 1749.84C4407.55 1743.12 4408.35 1738.64 4408.35 1726.8V1689.04H4364.67V1711.28H4378.91ZM4502.53 1754H4533.57V1642.32H4502.53V1683.92H4472.61V1642.32H4441.57V1754H4472.61V1709.68H4502.53V1754Z" fill="white"/>
<defs>
<linearGradient id="paint0_linear" x1="3220" y1="20" x2="3220" y2="2634" gradientUnits="userSpaceOnUse">
<stop stop-opacity="0"/>
<stop offset="1"/>
</linearGradient>
<linearGradient id="paint1_linear" x1="720" y1="1034" x2="720" y2="1914" gradientUnits="userSpaceOnUse">
<stop stop-color="white"/>
<stop offset="1" stop-color="white" stop-opacity="0"/>
</linearGradient>
<linearGradient id="paint2_linear" x1="5720" y1="1034" x2="5720" y2="1914" gradientUnits="userSpaceOnUse">
<stop stop-color="white"/>
<stop offset="1" stop-color="white" stop-opacity="0"/>
</linearGradient>
</defs>
</svg>
