<svg width="24" height="24" viewBox="0 0 24 24" fill="none" xmlns="http://www.w3.org/2000/svg">
<path d="M23.2966 6.59856L18.9701 5.3069C18.8787 5.27881 18.7827 5.26465 18.6889 5.26465C18.5929 5.26465 18.4966 5.27881 18.4052 5.3069L9.75086 7.9123C9.33495 8.03761 9.05007 8.42095 9.05007 8.85591V9.42312L6.77201 8.71404C6.67601 8.68476 6.57737 8.66939 6.48017 8.66939C6.22242 8.66939 5.97162 8.77141 5.78298 8.95888L4.96147 9.78054C4.63795 10.1041 4.57939 10.6058 4.81843 10.9949L6.16962 13.1855L5.59218 13.0134C5.50074 12.9865 5.40595 12.9724 5.30971 12.9724C5.21467 12.9724 5.11987 12.9865 5.02843 13.0134L0.703193 14.306C0.286077 14.4304 0 14.8147 0 15.2508V16.4136C0 16.8495 0.285837 17.2341 0.703193 17.3584L5.02843 18.6501C5.12107 18.6782 5.21587 18.6923 5.31091 18.6923C5.40595 18.6923 5.50074 18.6782 5.59218 18.6501L9.91862 17.3584C10.3357 17.2341 10.6218 16.8498 10.6218 16.4136V16.3387L11.462 16.62C11.5652 16.6551 11.6706 16.6716 11.7762 16.6716C12.0328 16.6716 12.2848 16.5708 12.4722 16.3834L13.1096 15.7482L14.0787 16.0365C14.1726 16.0646 14.2662 16.0787 14.3624 16.0787C14.4563 16.0787 14.5523 16.0646 14.6461 16.0365L23.2992 13.4299C23.7142 13.3056 24 12.9224 24 12.4863V7.54312C23.9998 7.10721 23.7139 6.72386 23.2966 6.59856ZM18.6889 6.2505L22.1575 7.28652L14.3624 9.63412L10.8925 8.5981L18.6889 6.2505ZM12.5987 14.8639L12.1405 15.3233L11.5674 14.2568L10.2455 11.7955L10.6979 11.343L12.4064 14.5077L12.5987 14.8639ZM6.48041 9.65524L9.05031 10.4546L9.92222 10.7253L9.4991 11.1485L9.05031 11.0103L6.05274 10.0844L6.48041 9.65524ZM5.31091 13.9568L6.94673 14.4467L8.77959 14.9952L7.66504 15.3303L5.31067 16.0382L1.84222 14.9952L5.31091 13.9568ZM0.98447 15.7641L4.81891 16.9196V17.5596L0.98447 16.4136V15.7641ZM9.63734 16.4136L5.8029 17.5598V16.9175L9.25863 15.879L9.6371 15.7641V16.0055V16.4136H9.63734ZM10.6218 15.2977V15.2508C10.6218 15.1618 10.6077 15.0751 10.5856 14.993C10.4977 14.6695 10.2515 14.4071 9.91886 14.3063L9.08799 14.0578L7.588 13.6102L6.05058 11.1147L9.05055 12.0405L9.30015 12.1178L10.036 13.488L10.2364 13.8608L10.8937 15.0845L11.0941 15.4573L10.6218 15.2977ZM13.4648 14.3975L11.3202 10.4229C11.1983 10.1956 10.9921 10.0256 10.7459 9.94929L10.0357 9.72894V9.37031L13.8702 10.5156V14.946L13.5843 14.8593C13.5819 14.7024 13.5445 14.543 13.4648 14.3975ZM23.0153 12.4858L14.8547 14.9438V10.5156L23.0155 8.05777V12.4858H23.0153Z" fill="white"/>
</svg>
