<?xml version="1.0" encoding="UTF-8"?>
<svg width="24px" height="24px" viewBox="0 0 24 24" version="1.1" xmlns="http://www.w3.org/2000/svg" xmlns:xlink="http://www.w3.org/1999/xlink">
    <!-- Generator: Sketch 51.3 (57544) - http://www.bohemiancoding.com/sketch -->
    <title>icon strain flavor / chocolate</title>
    <desc>Created with Sketch.</desc>
    <defs></defs>
    <g id="icon-strain-flavor-/-chocolate" stroke="none" stroke-width="1" fill="none" fill-rule="evenodd">
        <g id="Group-2" transform="translate(2.000000, 0.000000)" fill="#FFFFFF" fill-rule="nonzero">
            <path d="M5.19998571,4.79996 L6.79998571,4.79996 L6.79998571,2.39996 L5.19998571,2.39996 L5.19998571,4.79996 Z M7.19998571,5.59996 L4.79998571,5.59996 C4.57878571,5.59996 4.39998571,5.42076 4.39998571,5.19996 L4.39998571,1.99996 C4.39998571,1.77876 4.57878571,1.59996 4.79998571,1.59996 L7.19998571,1.59996 C7.42118571,1.59996 7.59998571,1.77876 7.59998571,1.99996 L7.59998571,5.19996 C7.59998571,5.42076 7.42118571,5.59996 7.19998571,5.59996 Z" id="Shape"></path>
            <path d="M9.19998571,4.79996 L10.7999857,4.79996 L10.7999857,2.39996 L9.19998571,2.39996 L9.19998571,4.79996 Z M11.1999857,5.59996 L8.79998571,5.59996 C8.57878571,5.59996 8.39998571,5.42076 8.39998571,5.19996 L8.39998571,1.99996 C8.39998571,1.77876 8.57878571,1.59996 8.79998571,1.59996 L11.1999857,1.59996 C11.4211857,1.59996 11.5999857,1.77876 11.5999857,1.99996 L11.5999857,5.19996 C11.5999857,5.42076 11.4211857,5.59996 11.1999857,5.59996 Z" id="Shape"></path>
            <path d="M13.1999857,4.79996 L14.7999857,4.79996 L14.7999857,2.39996 L13.1999857,2.39996 L13.1999857,4.79996 Z M15.1999857,5.59996 L12.7999857,5.59996 C12.5787857,5.59996 12.3999857,5.42076 12.3999857,5.19996 L12.3999857,1.99996 C12.3999857,1.77876 12.5787857,1.59996 12.7999857,1.59996 L15.1999857,1.59996 C15.4211857,1.59996 15.5999857,1.77876 15.5999857,1.99996 L15.5999857,5.19996 C15.5999857,5.42076 15.4211857,5.59996 15.1999857,5.59996 Z" id="Shape"></path>
            <path d="M7.99998571,11.59988 C8.05718571,11.59988 8.11398571,11.61188 8.16758571,11.63668 L13.1343857,13.92908 L15.7399857,11.69628 C15.8119857,11.63388 15.9047857,11.59988 15.9999857,11.59988 L18.8527857,11.59988 L17.0199857,8.85108 L8.48878571,10.79028 C8.41438571,10.80708 8.33718571,10.80228 8.26558571,10.77628 L2.95958571,8.88148 L1.14718571,11.59988 L3.59998571,11.59988 C3.70638571,11.59988 3.80798571,11.64188 3.88278571,11.71708 L5.62478571,13.45868 L7.74358571,11.69228 C7.81718571,11.63148 7.90838571,11.59988 7.99998571,11.59988 M13.1999857,14.79988 C13.1427857,14.79988 13.0859857,14.78788 13.0323857,14.76308 L8.06158571,12.46908 L5.85638571,14.30748 C5.69718571,14.44028 5.46358571,14.42908 5.31718571,14.28268 L3.43438571,12.39988 L0.399985715,12.39988 C0.252385715,12.39988 0.116785715,12.31868 0.0471857149,12.18868 C-0.0224142851,12.05828 -0.0144142851,11.90068 0.0671857149,11.77788 L2.46718571,8.17788 C2.56918571,8.02548 2.76238571,7.96068 2.93438571,8.02348 L8.42478571,9.98388 L17.1111857,8.00948 C17.2747857,7.97388 17.4407857,8.04028 17.5327857,8.17788 L19.9327857,11.77788 C20.0143857,11.90068 20.0223857,12.05828 19.9527857,12.18868 C19.8831857,12.31868 19.7475857,12.39988 19.5999857,12.39988 L16.1479857,12.39988 L13.4599857,14.70348 C13.3863857,14.76708 13.2935857,14.79988 13.1999857,14.79988" id="Shape"></path>
            <path d="M17.1999857,23.99988 L2.79998571,23.99988 C2.57878571,23.99988 2.39998571,23.82108 2.39998571,23.59988 L2.39998571,11.99988 C2.39998571,11.77868 2.57878571,11.59988 2.79998571,11.59988 C3.02118571,11.59988 3.19998571,11.77868 3.19998571,11.99988 L3.19998571,23.19988 L16.7999857,23.19988 L16.7999857,11.99988 C16.7999857,11.77868 16.9787857,11.59988 17.1999857,11.59988 C17.4211857,11.59988 17.5999857,11.77868 17.5999857,11.99988 L17.5999857,23.59988 C17.5999857,23.82108 17.4211857,23.99988 17.1999857,23.99988" id="Path"></path>
            <path d="M3.59998571,8.2608 L8.42518571,9.984 L16.3999857,8.1716 L16.3999857,0.8 L3.59998571,0.8 L3.59998571,8.2608 Z M8.39998571,10.8 C8.35438571,10.8 8.30878571,10.792 8.26558571,10.7764 L3.06558571,8.9192 C2.90638571,8.8628 2.79998571,8.712 2.79998571,8.5428 L2.79998571,0.4 C2.79998571,0.1788 2.97878571,0 3.19998571,0 L16.7999857,0 C17.0211857,0 17.1999857,0.1788 17.1999857,0.4 L17.1999857,8.4908 C17.1999857,8.6776 17.0707857,8.8396 16.8887857,8.8812 L8.48878571,10.79 C8.45918571,10.7968 8.42958571,10.8 8.39998571,10.8 Z" id="Shape"></path>
            <path d="M13.1999857,7.19988 L13.1999857,8.89868 L14.7999857,8.53548 L14.7999857,7.19988 L13.1999857,7.19988 Z M12.7999857,9.79988 C12.7099857,9.79988 12.6219857,9.76988 12.5503857,9.71228 C12.4555857,9.63668 12.3999857,9.52148 12.3999857,9.39988 L12.3999857,6.79988 C12.3999857,6.57868 12.5787857,6.39988 12.7999857,6.39988 L15.1999857,6.39988 C15.4211857,6.39988 15.5999857,6.57868 15.5999857,6.79988 L15.5999857,8.85468 C15.5999857,9.04148 15.4707857,9.20348 15.2887857,9.24468 L12.8887857,9.79028 C12.8591857,9.79668 12.8295857,9.79988 12.7999857,9.79988 Z" id="Shape"></path>
            <path d="M9.19998571,9.59988 L10.1151857,9.59988 L10.7999857,9.44428 L10.7999857,7.19988 L9.19998571,7.19988 L9.19998571,9.59988 Z M10.1599857,10.39988 L8.79998571,10.39988 C8.57878571,10.39988 8.39998571,10.22108 8.39998571,9.99988 L8.39998571,6.79988 C8.39998571,6.57868 8.57878571,6.39988 8.79998571,6.39988 L11.1999857,6.39988 C11.4211857,6.39988 11.5999857,6.57868 11.5999857,6.79988 L11.5999857,9.76348 C11.5999857,9.95028 11.4707857,10.11228 11.2887857,10.15388 L10.2487857,10.39028 C10.2195857,10.39628 10.1899857,10.39988 10.1599857,10.39988 Z" id="Shape"></path>
            <path d="M5.19998571,8.83188 L6.79998571,9.40388 L6.79998571,7.19988 L5.19998571,7.19988 L5.19998571,8.83188 Z M7.19998571,10.37148 C7.15478571,10.37148 7.10918571,10.36348 7.06518571,10.34788 L4.66518571,9.49028 C4.50638571,9.43388 4.39998571,9.28308 4.39998571,9.11388 L4.39998571,6.79988 C4.39998571,6.57868 4.57878571,6.39988 4.79998571,6.39988 L7.19998571,6.39988 C7.42118571,6.39988 7.59998571,6.57868 7.59998571,6.79988 L7.59998571,9.97148 C7.59998571,10.10148 7.53678571,10.22348 7.43038571,10.29828 C7.36198571,10.34628 7.28118571,10.37148 7.19998571,10.37148 Z" id="Shape"></path>
        </g>
    </g>
</svg>