<svg width="24" height="24" viewBox="0 0 24 24" fill="none" xmlns="http://www.w3.org/2000/svg">
<path fill-rule="evenodd" clip-rule="evenodd" d="M15.9084 19.2586C17.493 18.2774 19.0888 16.5337 20.2422 14.2264C21.3956 11.9191 21.8327 9.59621 21.6666 7.73986C21.5085 5.97322 20.8392 4.82044 19.9446 4.28038C19.4682 4.61201 18.8696 5.1157 18.3191 5.7603C17.5906 6.61339 16.9798 7.67354 16.8088 8.87018C16.6381 10.0655 16.721 11.1012 16.8019 12.1107L16.8019 12.1108L16.8019 12.1109C16.8303 12.4647 16.8584 12.8154 16.8752 13.1685C16.9387 14.5014 16.821 15.8251 15.6559 16.9901C14.8643 17.7818 13.9899 18.5629 13.23 19.1885C12.8639 19.4898 12.5111 19.7661 12.1999 19.9925C13.1598 20.3383 14.4477 20.1631 15.9084 19.2586ZM17.3305 4.91608C17.6546 4.53662 17.9941 4.19831 18.325 3.90551C17.5753 3.94397 16.7154 4.22421 15.7856 4.8C14.3623 5.68132 12.9299 7.17781 11.8173 9.14536C11.7047 9.42411 11.5571 9.73769 11.3895 10.094C11.1681 10.5646 10.9117 11.1097 10.6542 11.7477C10.1022 13.3936 9.90746 14.9779 10.0274 16.3187C10.1422 17.6007 10.5261 18.5594 11.0699 19.1953C11.3727 18.9978 11.8399 18.649 12.4038 18.1848C13.1351 17.5828 13.9779 16.8297 14.7367 16.0709C15.5097 15.2979 15.6343 14.4412 15.5767 13.2304C15.5632 12.948 15.5386 12.6428 15.5124 12.3176L15.5124 12.3175C15.4287 11.2803 15.3286 10.0393 15.5219 8.68633C15.7386 7.16967 16.5005 5.888 17.3305 4.91608ZM11.444 7.2939C7.98271 4.38382 3.75972 3.71172 1.89007 5.8205C-0.0299608 7.98613 1.25901 12.2645 4.76907 15.3765C5.91274 16.3905 7.41365 17.1684 8.76855 17.6709C8.82911 17.6934 8.88938 17.7153 8.94932 17.7367C9.33104 19.2519 10.1365 20.4343 11.3438 21.0378C14.4134 22.5722 18.9179 19.7829 21.405 14.8077C23.8921 9.83247 23.4199 4.55531 20.3503 3.02084C17.7108 1.70142 14.0104 3.5788 11.444 7.2939ZM10.6408 8.58541C10.6418 8.58278 10.6428 8.58015 10.6438 8.57752C10.6757 8.49433 10.6977 8.42887 10.7128 8.3786C9.14845 7.03377 7.44645 6.23329 5.98664 5.97887C5.01286 5.80916 4.23568 5.88952 3.65756 6.13041C3.72721 7.11856 4.15028 8.68354 5.72521 9.81819C6.07468 10.07 6.4275 10.2795 6.77944 10.4634C7.24886 10.7086 7.707 10.9036 8.1634 11.0979L8.16342 11.0979L8.34202 11.174C8.67054 11.3144 9.00373 11.4597 9.32219 11.6247C9.34718 11.5469 9.37226 11.4704 9.39733 11.3952L9.40938 11.3591L9.42352 11.3238C9.42722 11.3145 9.43092 11.3053 9.43461 11.2961C9.66482 10.6156 9.9493 9.93044 10.289 9.2509C10.4022 9.02448 10.5196 8.80258 10.6408 8.58541ZM7.83121 12.3694C8.271 12.5573 8.64484 12.7241 8.96617 12.9116C8.75466 13.8411 8.61137 14.9304 8.65233 16.2271C7.58311 15.7764 6.47952 15.1556 5.6315 14.4038C4.0273 12.9815 2.9789 11.332 2.53802 9.8686C2.20216 8.7538 2.24344 7.86824 2.51703 7.23345C2.79166 8.38925 3.46183 9.78979 4.96531 10.873C5.37438 11.1677 5.78189 11.409 6.17749 11.6156C6.69566 11.8863 7.20277 12.102 7.65569 12.2947L7.6557 12.2947L7.83121 12.3694Z" fill="white"/>
</svg>
