<svg width="24" height="24" viewBox="0 0 24 24" fill="none" xmlns="http://www.w3.org/2000/svg">
<path fill-rule="evenodd" clip-rule="evenodd" d="M1 12C1 5.95228 5.95228 1 12 1C18.0477 1 23 5.95228 23 12C23 18.0477 18.0477 23 12 23C5.95228 23 1 18.0477 1 12ZM0 12C0 5.4 5.4 0 12 0C18.6 0 24 5.4 24 12C24 18.6 18.6 24 12 24C5.4 24 0 18.6 0 12ZM14.4 3.48047C14.4 2.76047 13.92 2.28047 13.2 2.28047C12.48 2.28047 12 2.76047 12 3.48047C12 4.20047 12.48 4.68047 13.2 4.68047C13.92 4.68047 14.4 4.20047 14.4 3.48047ZM8.4 4.80047C8.4 4.08047 7.92 3.60047 7.2 3.60047C6.48 3.60047 6 4.08047 6 4.80047C6 5.52047 6.48 6.00047 7.2 6.00047C7.92 6.00047 8.4 5.52047 8.4 4.80047ZM3.6 12.0005C3.6 12.7205 4.08 13.2005 4.8 13.2005C5.52 13.2005 6 12.7205 6 12.0005C6 11.2805 5.52 10.8005 4.8 10.8005C4.08 10.8005 3.6 11.2805 3.6 12.0005ZM6 19.2005C6 19.9205 6.48 20.4005 7.2 20.4005C7.92 20.4005 8.4 19.9205 8.4 19.2005C8.4 18.4805 7.92 18.0005 7.2 18.0005C6.48 18.0005 6 18.4805 6 19.2005ZM8.4 14.4005C8.4 15.1205 8.88 15.6005 9.6 15.6005C10.32 15.6005 10.8 15.1205 10.8 14.4005C10.8 13.6805 10.32 13.2005 9.6 13.2005C8.88 13.2005 8.4 13.6805 8.4 14.4005ZM10.8 9.60047C10.8 10.3205 11.28 10.8005 12 10.8005C12.72 10.8005 13.2 10.3205 13.2 9.60047C13.2 8.88047 12.72 8.40047 12 8.40047C11.28 8.40047 10.8 8.88047 10.8 9.60047ZM13.2 19.2005C13.2 19.9205 13.68 20.4005 14.4 20.4005C15.12 20.4005 15.6 19.9205 15.6 19.2005C15.6 18.4805 15.12 18.0005 14.4 18.0005C13.68 18.0005 13.2 18.4805 13.2 19.2005ZM15.6 7.20047C15.6 7.92047 16.08 8.40047 16.8 8.40047C17.52 8.40047 18 7.92047 18 7.20047C18 6.48047 17.52 6.00047 16.8 6.00047C16.08 6.00047 15.6 6.48047 15.6 7.20047ZM18 13.2005C18 13.9205 18.48 14.4005 19.2 14.4005C19.92 14.4005 20.4 13.9205 20.4 13.2005C20.4 12.4805 19.92 12.0005 19.2 12.0005C18.48 12.0005 18 12.4805 18 13.2005Z" fill="white"/>
</svg>
