<svg width="24" height="24" viewBox="0 0 24 24" fill="none" xmlns="http://www.w3.org/2000/svg">
<path d="M24 11.2545C24 8.6 22.8727 6.2 20.9818 4.34545C20.9455 4.30909 20.9091 4.27273 20.8727 4.23636C18.7273 2.23636 15.7091 1 12.3636 1C9.70909 1 7.27273 1.8 5.30909 3.10909H5.27273C4.10909 3.90909 3.09091 4.89091 2.32727 6.05455C2.32727 6.09091 2.29091 6.09091 2.29091 6.12727C1.78182 6.92727 1.38182 7.76364 1.09091 8.67273C0.363636 10.0182 0 11.5091 0 13.0364C0 17.0364 2.32727 21.6182 7.41818 22.2C8 22.2727 8.54545 22.4909 9.12727 22.7091C9.89091 23 10.6909 23.2909 11.5636 23.2909C12.2909 23.4727 13.1273 23.6182 14 23.6182C15.3091 23.6182 16.6545 23.3273 17.6364 22.4909C17.8182 22.3455 18.0727 22.1636 18.3636 22.0182C19.1273 21.6182 19.8182 21.1455 20.4 20.5273C21.3818 19.5455 22.0727 18.3455 22.5455 16.8182C23.3818 15.3636 23.8545 13.5091 24 11.2545ZM21.9273 16.4909C21.7455 16.8182 21.5636 17.1091 21.3818 17.3636C21.3455 17.4 21.3091 17.4727 21.2727 17.5091C21.2364 17.5818 21.1636 17.6545 21.1273 17.7273C21.0909 17.8 21.0182 17.8364 20.9818 17.9091C20.9091 17.9818 20.8364 18.0545 20.7636 18.1273C20.7273 18.1636 20.6909 18.2 20.6545 18.2364C20.4 18.5273 20.1091 18.7455 19.7818 19C19.5273 19.1818 19.2727 19.3273 19.0182 19.4727C18.9455 19.5091 18.8727 19.5455 18.8 19.5818H18.7636C18.6909 19 18.4727 18.4545 18.1455 18.1636C18.0364 18.0545 17.8909 17.9818 17.7818 17.9091C17.3818 17.6545 17.0545 17.4364 17.0545 16.3455C17.0545 14.9273 15.6 13.2545 14.9818 12.6C15.0545 12.5273 15.1636 12.4545 15.2364 12.3818C15.3091 12.3455 16.1455 11.8364 17.4182 12.2727C18.4 12.6364 18.9091 12.7091 19.3091 12.7818C19.5273 12.8182 19.6727 12.8182 19.8545 12.8909C20.6545 13.1455 22.1091 14.2727 22.5455 15.2182C22.3273 15.6545 22.1455 16.0909 21.9273 16.4909ZM17.9636 20.1273C17.0909 20.8545 15.8909 21.1091 14.6909 21.0727C14.2909 21.0727 13.8909 21.0364 13.4909 20.9636C14.2182 19.9091 14.6545 18.2364 14.5818 17.3636C14.5818 17.1091 14.5091 16.8909 14.4727 16.6727C14.4 16.3091 14.2909 15.8364 14.2545 14.8182C14.2545 14.0182 14 13.4 13.7455 12.9636C13.9273 12.9636 14.1091 12.9273 14.2909 12.8909C14.9455 13.5455 16.3273 15.1455 16.2909 16.3091C16.2909 17.8 16.9091 18.2 17.3818 18.4909C17.4909 18.5636 17.6 18.6364 17.6727 18.6727C17.8909 18.8545 18.1091 19.4364 18.0727 20.0182C18.0364 20.0545 18.0364 20.0545 18 20.0545C18 20.1273 17.9636 20.1273 17.9636 20.1273ZM1.52727 10.5273C1.52727 10.3818 1.56364 10.2727 1.56364 10.1273C1.56364 10.0909 1.56364 10.0182 1.6 9.98182C1.63636 9.83636 1.63636 9.69091 1.67273 9.54545C1.67273 9.50909 1.67273 9.47273 1.70909 9.43636C1.74545 9.25455 1.78182 9.07273 1.85455 8.89091C2.07273 8.2 2.36364 7.54546 2.72727 6.92727C3.45455 7.76364 4.43636 8.6 5.2 8.89091C5.45455 9 5.70909 9.07273 5.96364 9.10909C6.4 9.21818 6.94545 9.32727 8 9.83636C8.58182 10.1273 9.2 10.2364 9.81818 10.2364C9.89091 10.2364 10 10.2364 10.0727 10.2364C10.0364 10.3818 10 10.5273 9.96364 10.6727C9.92727 10.7818 9.92727 10.8545 9.92727 10.9636C8.10909 11.3636 6.76364 11.4 6.14545 11.0727C4.83636 10.4182 4.18182 10.7818 3.70909 11.0727C3.6 11.1455 3.49091 11.1818 3.41818 11.2182C3.2 11.2909 2.14545 11.1455 1.56364 10.9636C1.56364 10.8545 1.56364 10.7455 1.56364 10.6727C1.49091 10.6364 1.49091 10.6 1.52727 10.5273ZM9.49091 2.49091C9.6 2.63636 9.70909 2.74545 9.78182 2.85455C10.1091 3.18182 10.4 3.47273 10.1455 4.49091C9.81818 5.83636 10.7636 7.69091 11.2727 8.52727C11.1636 8.6 11.0545 8.67273 10.9455 8.74546C9.67273 7.87273 8.32727 6.63636 8.10909 5.61818C7.78182 4.05455 7.01818 3.76364 6.43636 3.54545C6.32727 3.50909 6.21818 3.47273 6.10909 3.4C7.05455 2.81818 8.14545 2.34545 9.30909 2.05455C9.34545 2.27273 9.41818 2.41818 9.49091 2.49091ZM11.9273 9.07273C12.1818 9 12.4727 8.96364 12.8 9C14.5091 9.32727 15.1273 9.76364 15.1273 10.7455C15.1273 11.2909 14.9091 11.7636 14.5091 12.0545C14.1091 12.3091 13.6 12.3818 13.0545 12.1636C12.8364 12.0182 12.6182 11.9455 12.4 11.8727C12.1091 11.8 11.8182 11.7636 11.5636 11.7273C11.1636 11.6909 10.8 11.6182 10.6909 11.4727C10.5818 11.3273 10.6182 11.0364 10.6545 10.8182C10.7636 10.0545 11.2 9.32727 11.9273 9.07273C11.9273 9.07273 11.8909 9.07273 11.9273 9.07273ZM16.4364 2.74545C16.4364 2.63636 16.4364 2.49091 16.4364 2.38182C17.7455 2.85455 18.9455 3.50909 19.9273 4.38182C19.2 4.63636 18.4727 4.96364 18.0727 5.29091C17.8545 5.47273 17.7455 5.61818 17.6 5.8C17.3455 6.09091 17.0545 6.41818 16.2909 7.03636C15.4545 7.69091 15.0545 8.45455 14.9091 8.96364C14.5818 8.74545 14.1455 8.6 13.7091 8.49091C13.8545 7.58182 14.3636 5.54546 15.3091 4.92727C16.5091 4.01818 16.4364 3.29091 16.4364 2.74545ZM9.92727 11.6909C9.96364 11.7636 10 11.8364 10.0364 11.9091C10.1455 12.0545 10.2545 12.1273 10.4 12.2364C10.1818 12.6727 9.74545 13.1818 9.05455 13.5818C7.96364 14.2 7.52727 14.6 7.16364 14.9273C6.98182 15.0727 6.83636 15.2182 6.65455 15.3636C5.81818 15.9091 3.92727 16.3091 2.69091 16.1273C1.92727 14.8182 1.52727 13.2909 1.45455 11.8364C2.14545 12.0182 3.2 12.1636 3.6 12.0182C3.74545 11.9455 3.89091 11.8727 4 11.8C4.4 11.5455 4.76364 11.3273 5.70909 11.8364C6.10909 12.0545 6.69091 12.1273 7.30909 12.1273C8.14545 12.0182 9.09091 11.8727 9.92727 11.6909ZM3.23636 16.8182C3.30909 16.8182 3.34545 16.8182 3.41818 16.8182C4.72727 16.8182 6.29091 16.4182 7.09091 15.9091C7.34545 15.7636 7.52727 15.5818 7.70909 15.4364C8.03636 15.1455 8.43636 14.7818 9.45455 14.2C10.3636 13.6909 10.8727 13 11.1273 12.4545C11.2364 12.4545 11.3091 12.4909 11.4182 12.4909C11.5273 12.4909 11.6364 12.5273 11.7818 12.5273C11.3455 13.6909 10.4 15.9091 9.41818 16.4182C8.10909 17.1455 8.07273 17.8727 8.03636 18.4182C8.03636 18.5273 8.03636 18.6364 8 18.7455C7.96364 18.9636 7.70909 19.2909 7.34546 19.5455C7.30909 19.5455 7.30909 19.5455 7.27273 19.5091C5.52727 19.0727 4.18182 18.0909 3.23636 16.8182ZM8.25455 19.6909C8.47273 19.4364 8.65455 19.1455 8.72727 18.8909C8.76364 18.7455 8.76364 18.6 8.76364 18.4545C8.8 17.9818 8.8 17.5818 9.74545 17.0727C11.0545 16.3455 12.0727 13.7636 12.4364 12.7455C12.4727 12.7818 12.5455 12.7818 12.5818 12.8182C12.5818 12.8182 13.4545 13.4727 13.4909 14.8909C13.4909 15.9818 13.6364 16.4909 13.7091 16.8909C13.7455 17.1091 13.7818 17.2545 13.8182 17.4727C13.8545 18.3091 13.3818 20.0909 12.6545 20.8909C12.5818 20.8545 12.5091 20.8545 12.4364 20.8182C12.4 20.8182 12.3636 20.8182 12.3273 20.8182C11.5636 20.8182 10.8364 20.5636 10.1091 20.2727C9.52727 20.0545 8.94545 19.8364 8.29091 19.7636C8.29091 19.7273 8.29091 19.6909 8.25455 19.6909ZM15.4909 9.54545C15.4909 9.43636 15.6727 8.41818 16.7273 7.61818C17.5636 6.96364 17.8909 6.6 18.1455 6.30909C18.2909 6.16364 18.4 6.01818 18.5455 5.90909C18.9091 5.61818 19.6727 5.21818 20.5455 5C21.9636 6.41818 22.9091 8.16364 23.1636 10.1273C22.6182 9.83636 22 9.76364 21.6 9.87273C21.4545 9.90909 21.3091 9.98182 21.2 10.0545C20.8364 10.2727 20.5091 10.4545 19.6727 9.90909C18.5091 9.14545 16.4364 9.58182 15.6 9.76364C15.5636 9.69091 15.5273 9.61818 15.4909 9.54545ZM15.7091 2.16364C15.7091 2.2 15.6727 2.27273 15.6727 2.30909C15.6364 2.45455 15.6727 2.63636 15.6727 2.78182C15.7091 3.25455 15.7091 3.65455 14.8364 4.27273C13.6 5.14545 13.0909 7.54545 12.9455 8.30909C12.9091 8.30909 12.8727 8.30909 12.8727 8.30909C12.5455 8.23636 12.2182 8.27273 11.9273 8.30909C11.5273 7.65455 10.5455 5.83636 10.8364 4.70909C11.1636 3.29091 10.6545 2.74545 10.2909 2.38182C10.2182 2.27273 10.1091 2.2 10.0727 2.12727C10.0727 2.09091 10.0364 2.05455 10 1.98182C10.7636 1.83636 11.5636 1.76364 12.3636 1.76364C13.5273 1.72727 14.6545 1.87273 15.7091 2.16364ZM5.45455 3.87273C5.52727 3.94545 5.63636 4.01818 5.70909 4.05455C5.85455 4.16364 6.03636 4.2 6.18182 4.27273C6.69091 4.45455 7.12727 4.63636 7.38182 5.8C7.67273 7.21818 9.41818 8.6 10.4364 9.29091C10.4 9.32727 10.3636 9.4 10.3273 9.43636C9.63636 9.58182 8.90909 9.47273 8.18182 9.14545C7.05455 8.6 6.47273 8.49091 6 8.38182C5.74545 8.30909 5.56364 8.27273 5.34545 8.2C4.72727 7.94546 3.74545 7.14545 3.01818 6.23636C3.70909 5.36364 4.54545 4.56364 5.45455 3.87273ZM19.9273 20.0182C19.3818 20.5636 18.7636 21 18.0727 21.3636C17.7091 21.5455 17.4182 21.7636 17.2 21.9455C15.7455 23.1091 13.4182 23.0364 11.7091 22.6C11.6727 22.6 11.6364 22.6 11.6 22.6C10.8364 22.6 10.1091 22.3455 9.34546 22.0545C8.72727 21.8364 8.10909 21.5818 7.45455 21.5091C2.83636 20.9636 0.727273 16.7455 0.727273 13.0364C0.727273 12.7091 0.763636 12.3818 0.8 12.0545V12.0909C0.836364 12.3091 0.836364 12.5273 0.872727 12.7455C0.872727 12.7455 0.872727 12.7455 0.872727 12.7818C0.909091 13 0.945455 13.2182 0.981818 13.4727C0.981818 13.4727 0.981818 13.4727 0.981818 13.5091C1.01818 13.7273 1.09091 13.9455 1.16364 14.1636C1.16364 14.2 1.16364 14.2 1.16364 14.2364C1.23636 14.4545 1.30909 14.6727 1.38182 14.8545C1.38182 14.8909 1.41818 14.8909 1.41818 14.9273C1.49091 15.1455 1.56364 15.3273 1.67273 15.5455C1.67273 15.5818 1.70909 15.6182 1.70909 15.6182C1.78182 15.8 1.89091 16.0182 2 16.2C2 16.2364 2.03636 16.2364 2.03636 16.2727C2.14545 16.4545 2.25455 16.6364 2.36364 16.8545C2.36364 16.8909 2.4 16.8909 2.4 16.9273C2.50909 17.1091 2.65455 17.2909 2.8 17.4727C2.8 17.4727 2.8 17.4727 2.83636 17.5091C2.98182 17.6909 3.12727 17.8727 3.30909 18.0545C3.45455 18.2364 3.63636 18.3818 3.81818 18.5273L3.85455 18.5636C4.03636 18.7091 4.21818 18.8545 4.4 19C4.43636 19 4.43636 19.0364 4.47273 19.0364C4.65455 19.1818 4.83636 19.2909 5.05455 19.4C5.09091 19.4 5.12727 19.4364 5.12727 19.4364C5.30909 19.5455 5.52727 19.6545 5.74545 19.7636C5.78182 19.7636 5.81818 19.8 5.85455 19.8C6.07273 19.9091 6.29091 19.9818 6.50909 20.0545C6.54545 20.0545 6.58182 20.0909 6.61818 20.0909C6.83636 20.1636 7.09091 20.2364 7.34546 20.2727C7.38182 20.2727 7.38182 20.2727 7.41818 20.2727C7.67273 20.3455 7.96364 20.3818 8.21818 20.4182H8.25455C8.8 20.4909 9.34545 20.6727 9.92727 20.8909C10.6909 21.1818 11.4909 21.4727 12.3636 21.4727C12.4 21.4727 12.4 21.4727 12.4364 21.5091C12.5818 21.5455 12.6909 21.5818 12.8364 21.6182C12.8727 21.6182 12.9455 21.6545 12.9818 21.6545C13.1636 21.6909 13.3091 21.7273 13.4909 21.7273C13.5273 21.7273 13.5636 21.7273 13.5636 21.7273C13.7455 21.7636 13.8909 21.7636 14.0727 21.7636C14.1091 21.7636 14.1455 21.7636 14.1818 21.7636C14.3636 21.7636 14.5455 21.8 14.7636 21.8H14.8C14.8364 21.8 14.8364 21.8 14.8727 21.8C14.9818 21.8 15.0909 21.8 15.2364 21.8C15.2727 21.8 15.3091 21.8 15.3455 21.8C15.4545 21.8 15.6 21.7636 15.7091 21.7636C15.7455 21.7636 15.7818 21.7636 15.8182 21.7636C16.1455 21.7273 16.4364 21.6545 16.7273 21.5818H16.7636C16.8727 21.5455 17.0182 21.5091 17.1273 21.4727C17.1636 21.4727 17.2 21.4364 17.2364 21.4364C17.3455 21.4 17.4545 21.3636 17.5636 21.2909C17.6 21.2545 17.6364 21.2545 17.6727 21.2182C17.7818 21.1818 17.8909 21.1091 17.9636 21.0364C18 21 18.0364 21 18.0727 20.9636C18.1818 20.8909 18.3273 20.7818 18.4364 20.7091C18.4727 20.7091 18.4727 20.6727 18.5091 20.6727C18.6909 20.5273 18.9091 20.3818 19.1273 20.2727L19.1636 20.2364C19.3818 20.1273 19.6 19.9818 19.8182 19.8727C19.8909 19.8364 19.9273 19.8 20 19.7636C20.1455 19.6545 20.2909 19.5455 20.4364 19.4364C20.4727 19.4 20.5091 19.4 20.5455 19.3636C20.3273 19.5818 20.1455 19.8 19.9273 20.0182ZM22.8 14.3091C22.0727 13.3636 20.8364 12.4545 20.0364 12.2C19.7818 12.1273 19.6 12.0909 19.3818 12.0545C19.0182 12.0182 18.5818 11.9455 17.6364 11.5818C16.8727 11.2909 16.2182 11.3273 15.7091 11.4C15.7818 11.1818 15.7818 10.9636 15.7818 10.7455C15.7818 10.6364 15.7818 10.5273 15.7818 10.4545C16.6909 10.2364 18.4 9.94545 19.2727 10.4909C20.4727 11.2545 21.0909 10.9273 21.5636 10.6727C21.6727 10.6 21.7455 10.5636 21.8545 10.5273C22.1818 10.4182 22.8727 10.6 23.2727 11.0364C23.2727 11.1091 23.2727 11.1455 23.2727 11.2182C23.2 12.3818 23.0182 13.4 22.8 14.3091Z" fill="white"/>
</svg>
