<svg width="88" height="88" viewBox="0 0 88 88" fill="none" xmlns="http://www.w3.org/2000/svg">
<path d="M49.5753 21.1146C48.976 21.1146 48.3766 20.6366 48.2568 19.9195C47.5376 15.9758 46.2191 11.9126 44.0615 7.8494C42.0238 11.9126 40.5855 15.8563 39.8663 19.9195C39.7464 20.6366 39.0273 21.1146 38.3081 20.9951C37.5889 20.8756 37.1094 20.1586 37.2293 19.4415C38.0683 14.4222 39.9862 9.40298 42.8629 4.38371C43.1026 3.90568 43.5821 3.66667 44.0615 3.66667C44.541 3.66667 45.0204 3.90568 45.2602 4.38371C48.1369 9.40298 50.0547 14.5418 50.8938 19.4415C51.0137 20.1586 50.5342 20.8756 49.815 20.9951C49.6951 21.1146 49.6952 21.1146 49.5753 21.1146Z" fill="white"/>
<path d="M44.0634 84.332C43.7038 84.332 43.3442 84.2125 42.9846 83.854C42.7449 83.615 38.0702 78.1177 36.8716 68.5572C36.7517 67.8401 37.351 67.1231 38.0702 67.0036C38.7894 66.8841 39.5086 67.4816 39.6284 68.1986C40.3476 74.174 42.625 78.4762 44.0634 80.5078C45.3819 78.3567 47.7792 74.0545 48.4984 68.1986C48.6182 67.4816 49.3374 66.8841 50.0566 67.0036C50.7758 67.1231 51.3751 67.7206 51.2552 68.5572C50.0566 77.9982 45.3819 83.615 45.1422 83.854C44.9024 84.093 44.423 84.332 44.0634 84.332Z" fill="white"/>
<path d="M68.2712 50.8722C67.6719 50.8722 67.0725 50.3942 66.9527 49.6772C66.8328 48.9601 67.3123 48.2431 68.0315 48.1236C71.987 47.4065 76.0623 46.092 80.1377 43.9408C76.0623 41.9092 72.1068 40.4752 68.0315 39.7581C67.3123 39.6386 66.8328 38.9216 66.9527 38.2045C67.0725 37.4875 67.7917 37.0095 68.5109 37.129C73.5452 37.9655 78.5795 39.8776 83.6138 42.7458C84.0932 42.9848 84.333 43.4628 84.333 43.9408C84.333 44.4189 84.0932 44.8969 83.6138 45.1359C78.5795 48.0041 73.4253 49.9162 68.391 50.7527C68.5109 50.8722 68.391 50.8722 68.2712 50.8722Z" fill="white"/>
<path d="M19.6087 51.1122H19.4888C10.0195 49.9172 4.38593 45.2564 4.1462 45.0174C3.78661 44.7784 3.66675 44.4199 3.66675 43.9419C3.66675 43.5833 3.78661 43.2248 4.1462 42.8663C4.38593 42.6273 9.89967 37.9665 19.3689 36.7715C20.0881 36.652 20.8073 37.2495 20.9272 37.9665C21.047 38.6836 20.4477 39.4006 19.7285 39.5201C13.8552 40.2372 9.54008 42.5078 7.5024 43.9419C9.65995 45.2564 13.9751 47.6466 19.8484 48.3636C20.5676 48.4831 21.1669 49.0806 21.047 49.9172C20.9272 50.6342 20.3278 51.1122 19.6087 51.1122Z" fill="white"/>
<path d="M16.4953 72.8641C16.1357 72.8641 15.7761 72.7446 15.5364 72.5055C15.1768 72.147 15.0569 71.669 15.1768 71.191C19.372 55.6551 28.3618 48.6043 35.0742 45.3776C35.5537 45.1386 35.7934 44.541 35.7934 44.063C35.7934 43.824 35.7934 43.585 35.7934 43.346C35.7934 42.868 35.5537 42.3899 35.0742 42.1509C16.6152 33.3074 15.1768 17.2936 15.1768 16.5766C15.1768 16.218 15.2967 15.74 15.5364 15.501C15.7761 15.262 16.2556 15.023 16.6152 15.1425C17.3343 15.1425 33.3961 16.5765 42.2661 34.9805C42.5058 35.4586 42.9852 35.8171 43.4647 35.6976C43.9441 35.6976 44.4236 35.6976 44.7832 35.6976C45.2627 35.6976 45.7421 35.4586 45.9818 34.9805C54.8518 16.5765 70.9135 15.1425 71.6327 15.1425C71.9923 15.1425 72.4718 15.262 72.7115 15.501C72.9512 15.74 73.191 16.218 73.0711 16.5766C73.0711 17.2936 71.6327 33.3074 53.1737 42.1509C52.6942 42.3899 52.3346 42.868 52.4545 43.346C52.4545 43.585 52.4545 43.824 52.4545 44.063C52.4545 44.541 52.6942 45.1386 53.1737 45.3776C59.8861 48.6043 68.8759 55.6551 73.0711 71.191C73.191 71.669 73.0711 72.147 72.7115 72.5055C72.3519 72.8641 71.8725 72.9836 71.393 72.8641C55.8107 68.6813 48.7387 59.7184 45.5024 53.026C45.2627 52.548 44.6633 52.309 44.1839 52.309C43.7044 52.309 43.1051 52.548 42.8654 53.026C39.5092 59.7184 32.4372 68.6813 16.8549 72.8641C16.735 72.8641 16.6152 72.8641 16.4953 72.8641ZM44.064 49.5603C45.7421 49.5603 47.1805 50.3969 47.8997 51.8309C50.6565 57.6867 56.7696 65.3352 69.595 69.5179C65.3998 56.6112 57.7285 50.6359 51.8552 47.7677C50.4168 47.0507 49.5778 45.6166 49.5778 43.9435C49.5778 43.824 49.5778 43.585 49.5778 43.4655C49.4579 41.9119 50.4168 40.3583 51.8552 39.6413C65.3998 33.1879 68.9957 22.3129 69.9546 18.1301C65.7594 18.9667 54.9716 22.4324 48.3791 36.1756C47.6599 37.7292 46.1017 38.5657 44.4236 38.4462C44.064 38.4462 43.8243 38.4462 43.4647 38.4462C41.9065 38.5657 40.3482 37.6097 39.5092 36.1756C33.0365 22.6714 22.1289 19.0862 17.9337 18.1301C18.7727 22.3129 22.2488 33.0684 36.0331 39.6413C37.5914 40.3583 38.4304 41.9119 38.3105 43.585C38.3105 43.7045 38.3105 43.824 38.3105 44.063C38.3105 45.7361 37.4715 47.1702 36.0331 47.8872C30.1598 50.6359 22.4885 56.7307 18.2933 69.6374C31.2386 65.4547 37.2318 57.8063 40.1085 51.9504C40.9475 50.3969 42.3859 49.5603 44.064 49.5603Z" fill="white"/>
<path d="M43.9401 45.4958C44.8007 45.4958 45.4983 44.8003 45.4983 43.9423C45.4983 43.0842 44.8007 42.3887 43.9401 42.3887C43.0795 42.3887 42.3818 43.0842 42.3818 43.9423C42.3818 44.8003 43.0795 45.4958 43.9401 45.4958Z" fill="white"/>
</svg>
