<svg width="24" height="24" viewBox="0 0 24 24" fill="none" xmlns="http://www.w3.org/2000/svg">
<path fill-rule="evenodd" clip-rule="evenodd" d="M17.5897 5.58976C17.5881 6.21283 17.4471 6.82765 17.1772 7.38922C17.7427 7.94591 20.2725 10.6986 18.3421 13.7895C18.1566 14.0851 17.9441 14.3628 17.7071 14.619C18.127 15.844 18.3718 17.1221 18.4343 18.4156C18.5129 19.3138 18.4987 20.2178 18.392 21.1132C18.406 21.1957 18.393 21.2806 18.3549 21.3552C18.3529 21.3588 18.3493 21.3608 18.3473 21.3639C18.2331 22.2043 17.7989 22.9681 17.1353 23.4961C16.6429 23.8324 16.0586 24.0081 15.4624 23.9992C14.8757 23.9978 14.2989 23.8485 13.7852 23.5651C13.503 23.4116 13.2459 23.2159 13.0228 22.9849C12.7478 22.7002 12.5546 22.3466 12.4637 21.9614H11.5548C11.4639 22.3463 11.2707 22.6995 10.9957 22.9837C10.7721 23.2153 10.5145 23.4115 10.2318 23.5655C9.71804 23.8489 9.14119 23.9982 8.55451 23.9996C7.95911 24.0091 7.37539 23.8339 6.88364 23.4981C6.21652 22.9705 5.77969 22.2051 5.66484 21.3624C5.66404 21.3611 5.66265 21.36 5.66129 21.3589C5.65925 21.3573 5.65725 21.3557 5.65725 21.3536C5.6192 21.279 5.60618 21.1941 5.62011 21.1116C5.51331 20.2155 5.49926 19.3109 5.57818 18.412C5.64067 17.1195 5.88535 15.8423 6.30499 14.6182C6.06805 14.362 5.85547 14.0843 5.67003 13.7887C3.74997 10.7162 6.2407 7.97626 6.82494 7.3992C6.552 6.83496 6.40951 6.21654 6.40802 5.58976C6.41032 5.2029 6.46706 4.81828 6.57655 4.44723C6.27584 3.93647 5.5059 2.41056 6.27584 1.15941C6.59639 0.606588 7.13109 0.210763 7.75342 0.0656002C8.64237 -0.141261 9.75415 0.143872 10.9738 0.881864C11.6571 0.768846 12.3544 0.76952 13.0376 0.883861C14.2552 0.145869 15.3658 -0.140862 16.2571 0.0659995C16.8803 0.210019 17.4161 0.605704 17.7371 1.15901C18.521 2.43293 17.7227 3.97161 17.4264 4.46121C17.5329 4.82799 17.5879 5.20782 17.5897 5.58976ZM17.057 1.57793C16.8456 1.20833 16.4908 0.942657 16.0766 0.843926C15.4242 0.745791 14.7575 0.862551 14.1773 1.17658C15.369 1.59037 16.376 2.41221 17.0203 3.49679C17.2467 2.95767 17.4348 2.19172 17.057 1.57793ZM11.9989 9.58323C14.6414 9.58323 16.791 7.79176 16.791 5.58976C16.791 3.38776 14.6417 1.5963 11.9989 1.5963C9.80646 1.5963 7.95749 2.83107 7.39002 4.50873C7.38609 4.52561 7.38089 4.54216 7.37444 4.55825C7.26517 4.89126 7.20858 5.23929 7.20672 5.58976C7.20672 7.79176 9.3564 9.58323 11.9989 9.58323ZM7.93273 0.843527C7.51946 0.94335 7.16565 1.20918 6.95473 1.57832C6.58254 2.18294 6.76344 2.94249 6.98428 3.48161C7.63108 2.40173 8.63786 1.58443 9.82763 1.17339C9.2483 0.861376 8.58341 0.745634 7.93273 0.843527ZM6.4819 21.3775C6.58196 21.9567 6.88961 22.4796 7.34729 22.8483C8.01869 23.2693 8.85717 23.323 9.57684 22.9913C9.47421 22.3076 9.17669 21.5097 8.36762 21.1942C7.73928 21.0062 7.06225 21.072 6.4819 21.3775ZM14.4353 22.9945C15.1558 23.3256 15.9949 23.2707 16.666 22.8483V22.8471C17.1226 22.4795 17.4298 21.9582 17.5302 21.3807C16.9499 21.075 16.2728 21.0091 15.6445 21.1974C14.8346 21.5113 14.5379 22.3088 14.4353 22.9945ZM15.6074 11.9793C16.4968 11.976 17.3146 12.4664 17.7307 13.2524V13.2512C19.1236 10.8687 17.394 8.75219 16.7583 8.09406C15.6273 9.57187 13.8594 10.4217 11.9989 10.3819C10.1428 10.4209 8.37884 9.57475 7.24745 8.10285C6.60091 8.77096 4.8945 10.8795 6.28143 13.2512C6.69787 12.4656 7.51562 11.9758 8.40476 11.9793C8.62531 11.9793 8.8041 12.1581 8.8041 12.3787C8.8041 12.5992 8.62531 12.778 8.40476 12.778C7.66653 12.7927 7.0235 13.2854 6.81735 13.9944C6.88551 14.0719 6.95553 14.1464 7.02741 14.218L7.0334 14.2236C7.37446 14.5704 7.78064 14.8465 8.22864 15.0359C8.72568 15.246 9.28719 15.2427 9.7817 15.0267C10.0423 14.8936 10.2274 14.6482 10.2837 14.361C10.4086 13.7197 10.3598 13.0567 10.1423 12.4406C10.108 12.3351 10.068 12.2305 10.0281 12.1275C9.97502 11.9949 9.99669 11.8441 10.0849 11.7319C10.1732 11.6197 10.3146 11.563 10.4559 11.5833C10.5973 11.6036 10.717 11.6978 10.7701 11.8303C10.8177 11.9496 10.8615 12.0704 10.9015 12.1926C11.1637 12.9451 11.2197 13.7541 11.0636 14.5355C10.957 15.0518 10.6226 15.4923 10.1539 15.7336C9.8074 15.9084 9.42379 15.9969 9.03572 15.9915C8.65786 15.9906 8.28359 15.9181 7.93273 15.7779C7.58142 15.6345 7.25111 15.4443 6.95073 15.2124C6.62383 16.2667 6.43051 17.3579 6.37528 18.4603C6.31977 19.1608 6.31456 19.8644 6.3597 20.5657C7.08387 20.2381 7.90527 20.1973 8.65834 20.4514C9.52592 20.8211 10.1449 21.6078 10.3001 22.538C10.3156 22.5234 10.3324 22.5094 10.3493 22.4953C10.3727 22.4758 10.3962 22.4562 10.4171 22.4346C10.6397 22.2055 10.7769 21.9069 10.8056 21.5888C10.8054 21.5848 10.8043 21.581 10.8032 21.5773C10.802 21.5732 10.8008 21.5692 10.8008 21.5648C10.803 21.5499 10.8059 21.5351 10.8096 21.5205C10.8158 21.419 10.8128 21.3171 10.8004 21.2162C10.6582 20.4393 10.1969 19.7576 9.52852 19.3369C9.04603 19.043 8.50952 18.8488 7.9507 18.7658C7.80931 18.7463 7.68909 18.6528 7.63532 18.5205C7.58155 18.3883 7.60241 18.2375 7.69003 18.1248C7.77765 18.0121 7.91873 17.9548 8.06012 17.9743C8.72839 18.0711 9.36997 18.3029 9.94583 18.6556C10.8199 19.2033 11.4189 20.0977 11.5927 21.1144C11.5937 21.1229 11.5942 21.1314 11.5947 21.1399C11.5952 21.1484 11.5957 21.1569 11.5967 21.1655H12.4154C12.4194 21.1483 12.4194 21.1315 12.4194 21.1144C12.5929 20.0986 13.191 19.2049 14.0639 18.6572C14.6404 18.3037 15.2828 18.0714 15.952 17.9743C16.0934 17.9548 16.2345 18.0121 16.3221 18.1248C16.4097 18.2375 16.4306 18.3883 16.3768 18.5205C16.323 18.6528 16.2028 18.7463 16.0614 18.7658C15.5017 18.849 14.9644 19.0436 14.4812 19.3381C13.8143 19.7588 13.3539 20.4394 13.2117 21.215C13.1401 21.6594 13.2827 22.1116 13.5963 22.4346C13.6221 22.4607 13.65 22.4844 13.6785 22.5085C13.6896 22.518 13.7008 22.5275 13.7121 22.5372C13.8671 21.6069 14.4861 20.82 15.3538 20.4502C16.107 20.1963 16.9285 20.2371 17.6528 20.5645C17.6977 19.8639 17.6923 19.1609 17.6368 18.4611C17.5815 17.3581 17.3879 16.2664 17.0606 15.2116C16.7598 15.444 16.4289 15.6346 16.077 15.7783C15.7261 15.9185 15.3519 15.991 14.974 15.9919C14.5859 15.9973 14.2023 15.9088 13.8558 15.734C13.3871 15.4926 13.0527 15.0522 12.9461 14.5359C12.79 13.7546 12.846 12.9457 13.1083 12.1934C13.1485 12.0709 13.1923 11.95 13.2396 11.8307C13.3217 11.6259 13.5543 11.5263 13.7592 11.6083C13.9641 11.6904 14.0637 11.923 13.9816 12.1279C13.9401 12.2304 13.902 12.3349 13.8674 12.4413C13.6499 13.0573 13.6011 13.7202 13.726 14.3614C13.7823 14.6486 13.9674 14.894 14.228 15.0271C14.7226 15.2426 15.284 15.246 15.7811 15.0363C16.2291 14.8469 16.6353 14.5708 16.9763 14.224L16.9819 14.2184C17.0542 14.147 17.1241 14.0723 17.1924 13.9948C16.9865 13.2865 16.3448 12.7939 15.6074 12.778C15.3868 12.778 15.208 12.5992 15.208 12.3787C15.208 12.1581 15.3868 11.9793 15.6074 11.9793ZM9.60278 6.98722C9.60329 6.87609 9.6167 6.7654 9.64271 6.65736C9.10657 6.36786 8.78129 5.79906 8.80369 5.19016C8.75317 4.36466 9.3765 3.65229 10.2014 3.59277C11.0263 3.65229 11.6496 4.36466 11.5991 5.19016C11.5991 5.1945 11.5984 5.19875 11.5977 5.20304C11.597 5.20743 11.5963 5.21187 11.5963 5.21652C11.8633 5.18137 12.1337 5.18137 12.4006 5.21652C12.4004 5.21227 12.3998 5.20819 12.3992 5.20416C12.3985 5.19948 12.3978 5.19488 12.3978 5.19016C12.3473 4.36466 12.9706 3.65229 13.7955 3.59277C14.6204 3.65229 15.2437 4.36466 15.1932 5.19016C15.2158 5.79889 14.8908 6.36764 14.355 6.65736C14.3812 6.76536 14.3946 6.87608 14.3949 6.98722C14.3949 7.99477 13.3423 8.78428 11.9989 8.78428C10.6555 8.78428 9.60278 7.99477 9.60278 6.98722ZM13.7955 4.39147C13.4708 4.39147 13.1965 4.75727 13.1965 5.19016C13.1974 5.27452 13.2085 5.35846 13.2296 5.44015C13.5072 5.5588 13.7578 5.73272 13.966 5.95131C14.2466 5.80448 14.4145 5.50623 14.3945 5.19016C14.3945 4.75727 14.1202 4.39147 13.7955 4.39147ZM11.9985 7.98559C12.8642 7.98559 13.5958 7.52833 13.5958 6.98722C13.5958 6.4461 12.8646 5.98885 11.9985 5.98885C11.1323 5.98885 10.4011 6.4461 10.4011 6.98722C10.4011 7.52833 11.1327 7.98559 11.9985 7.98559ZM10.8004 5.19016C10.8004 4.75727 10.5261 4.39147 10.2014 4.39147C9.87673 4.39147 9.60238 4.75727 9.60238 5.19016C9.5824 5.50612 9.7501 5.80429 10.0305 5.95131C10.2388 5.7328 10.4893 5.5589 10.7669 5.44015C10.7883 5.35852 10.7996 5.27455 10.8004 5.19016Z" fill="white"/>
</svg>
