<svg width="24" height="24" viewBox="0 0 24 24" fill="none" xmlns="http://www.w3.org/2000/svg">
<path d="M22.8217 6.77664L14.9244 3.01583C14.9022 3.01258 14.8796 3.01258 14.8574 3.01583C14.8377 3.00838 14.8173 3.00308 14.7965 3H8.87433H8.81347H8.75564L1.17484 6.77981C1.10846 6.81228 1.05558 6.86859 1.02594 6.93839C0.996307 7.00819 0.991904 7.08678 1.01355 7.15969L2.35259 11.5663C2.37505 11.6395 2.42232 11.7017 2.48558 11.7413C2.54885 11.7809 2.62381 11.7952 2.69648 11.7816L6.23581 11.1199V20.6834C6.23581 20.7674 6.26787 20.8479 6.32495 20.9073C6.38202 20.9666 6.45943 21 6.54014 21H17.4625C17.5432 21 17.6206 20.9666 17.6777 20.9073C17.7347 20.8479 17.7668 20.7674 17.7668 20.6834V11.1199L21.3031 11.7816C21.3757 11.7952 21.4507 11.7809 21.514 11.7413C21.5772 11.7017 21.6245 11.6395 21.647 11.5663L22.986 7.15969C23.0083 7.08598 23.0038 7.00635 22.9736 6.93579C22.9433 6.86524 22.8893 6.80863 22.8217 6.77664V6.77664ZM14.474 3.63313C14.267 5.30144 12.5597 7.5554 11.8385 7.5554C11.2603 7.5554 9.49516 4.98488 9.22127 3.63313H14.474ZM21.1479 11.1104L17.5142 10.4298C17.4701 10.4219 17.4249 10.4242 17.3818 10.4365C17.3387 10.4489 17.2987 10.4709 17.2647 10.5011C17.2307 10.5314 17.2035 10.569 17.1851 10.6114C17.1667 10.6538 17.1575 10.6999 17.1581 10.7464V20.37H6.84447V10.7432C6.84454 10.6967 6.83476 10.6508 6.81582 10.6086C6.79689 10.5665 6.76926 10.5292 6.73491 10.4995C6.70077 10.4695 6.66072 10.4478 6.61759 10.4357C6.57446 10.4237 6.52932 10.4217 6.48536 10.4298L2.85169 11.1104L1.67394 7.2325L8.64609 3.76926C9.01432 5.21597 10.7003 8.17587 11.8385 8.17587C12.9767 8.17587 14.7783 5.64333 15.0583 3.77559L22.3256 7.23567L21.1479 11.1104Z" fill="white" stroke="white" stroke-width="0.5"/>
</svg>
