<svg width="24" height="24" viewBox="0 0 24 24" fill="none" xmlns="http://www.w3.org/2000/svg">
<path d="M4.33635 19.6636L4.51313 19.4869L4.33636 19.6637C6.04654 21.3738 8.96926 21.3738 10.6794 19.6636L14.4803 15.8627L14.6571 15.6859L14.4803 15.5091L8.49085 9.51965L8.31407 9.34288L8.1373 9.51965L4.33635 13.3206L4.50808 13.4923L4.33635 13.3206C2.62621 15.0308 2.62621 17.9535 4.33635 19.6636ZM12.1768 3.07735L12 2.90057L12.1768 3.07735C14.6132 0.640885 18.4862 0.640881 20.9226 3.07735L21.0994 2.90057L20.9227 3.07735C23.3591 5.51374 23.3591 9.38675 20.9226 11.8232L11.8232 20.9226L12 21.0994L11.8232 20.9227C9.38684 23.3591 5.51382 23.3591 3.07735 20.9226C0.640885 18.4863 0.640881 14.6132 3.07735 12.1768L12.1768 3.07735ZM20.0438 10.2526C21.4783 8.43956 21.3601 5.915 19.7848 4.22736L19.7849 4.22726L19.7788 4.22117C18.0686 2.51103 15.1459 2.51102 13.4358 4.22117L9.63484 8.02212L9.46143 8.19553L9.63147 8.37224L15.5058 14.4769L15.6825 14.6606L15.8627 14.4803L19.6636 10.6794L19.6636 10.6794L20.0904 10.2526H20.0438Z" fill="white" stroke="#091E09" stroke-width="0.5"/>
</svg>
