<svg width="29" height="29" viewBox="0 0 29 29" fill="none" xmlns="http://www.w3.org/2000/svg">
<path fill-rule="evenodd" clip-rule="evenodd" d="M9.80616 18.6835C12.2452 21.1225 16.2153 21.1225 18.6543 18.6835C21.0933 16.2445 21.0933 12.2744 18.6543 9.83544C16.2153 7.39644 12.2452 7.39644 9.80616 9.83544C7.36716 12.2744 7.36716 16.2445 9.80616 18.6835ZM10.3832 18.1065C8.26159 15.9849 8.26159 12.5341 10.3832 10.4125C12.5048 8.29087 15.9556 8.29087 18.0772 10.4125C20.1988 12.5341 20.1988 15.9849 18.0772 18.1065C15.9556 20.2281 12.5048 20.2281 10.3832 18.1065ZM9.67432 13.5107C9.61277 13.5723 9.52237 13.605 9.43004 13.5858C9.28193 13.5569 9.18576 13.4146 9.21461 13.2665C9.35118 12.5682 9.62816 11.9181 10.034 11.3353C10.1206 11.2141 10.2898 11.1833 10.4129 11.2679C10.5361 11.3526 10.5649 11.5238 10.4803 11.6469C10.1167 12.1681 9.87052 12.7452 9.74742 13.3723C9.7378 13.4242 9.71279 13.4723 9.67432 13.5107ZM19.1105 15.5575C19.047 15.6209 18.9508 15.6517 18.8566 15.6306C18.7104 15.5959 18.62 15.4478 18.6546 15.3016C18.8277 14.5669 18.8181 13.7955 18.6219 13.0685C18.5834 12.9223 18.67 12.7742 18.8142 12.7338C18.9604 12.6953 19.1085 12.7819 19.1489 12.9261C19.3663 13.7398 19.3798 14.6034 19.1855 15.4247C19.1701 15.4786 19.1451 15.5228 19.1105 15.5575ZM25.8092 8.40912L19.6732 10.4865L19.5001 10.2249C19.325 9.96139 19.125 9.71518 18.9019 9.49205C18.6787 9.26893 18.4325 9.06888 18.169 8.89384L17.9074 8.72073L19.9848 2.58476L20.3099 2.62131C20.3791 2.629 21.8987 2.81366 22.4238 4.21204C22.7527 4.2332 23.2547 4.3313 23.6664 4.68523L23.6895 4.70446L23.7087 4.72754C24.0626 5.13917 24.1588 5.63928 24.1819 5.97012C25.5803 6.49524 25.7649 8.0148 25.7726 8.08405L25.8092 8.40912ZM19.9963 9.51706L24.8878 7.86092C24.7647 7.47622 24.4512 6.85493 23.6779 6.67028L23.3259 6.58757L23.3663 6.23172C23.3682 6.21441 23.4144 5.66813 23.1105 5.28728C22.7258 4.97952 22.1718 5.02953 22.166 5.03146L21.8102 5.068L21.7256 4.72177C21.5428 3.95045 20.9215 3.63692 20.5349 3.51189L18.8788 8.40335C19.0904 8.56108 19.2923 8.73612 19.4789 8.9227C19.6636 9.10351 19.8367 9.30355 19.9963 9.51706ZM8.05411 25.8036L8.37918 25.8401L10.4566 19.7041L10.195 19.531C9.93145 19.356 9.68524 19.156 9.46211 18.9328C9.23899 18.7097 9.03894 18.4635 8.8639 18.2L8.69079 17.9384L2.55482 20.0158L2.59137 20.3408C2.59906 20.4101 2.78372 21.9296 4.1821 22.4548C4.20518 22.7856 4.30136 23.2857 4.65528 23.6973L4.67452 23.7204L4.6976 23.7397C5.10923 24.0936 5.61126 24.1917 5.94018 24.2128C6.4653 25.6112 7.98486 25.7959 8.05411 25.8036ZM6.19793 23.3973C6.19216 23.3992 5.63819 23.4492 5.25349 23.1414C4.94766 22.7625 4.99382 22.2162 4.99959 22.1951L5.03998 21.8392L4.68798 21.7565C3.91474 21.5719 3.60121 20.9506 3.4781 20.5659L8.36572 18.9097C8.52537 19.1233 8.69848 19.3233 8.88506 19.5099C9.07164 19.6965 9.27361 19.8715 9.48519 20.0292L7.83098 24.9188C7.44436 24.7937 6.81922 24.4802 6.63841 23.7108L6.55378 23.3607L6.19793 23.3973ZM10.9791 11.0477C11.079 10.9479 11.079 10.786 10.9791 10.6861C10.8793 10.5862 10.7174 10.5862 10.6175 10.6861C10.5176 10.786 10.5176 10.9479 10.6175 11.0477C10.7174 11.1476 10.8793 11.1476 10.9791 11.0477ZM18.8327 12.0657C18.9326 12.1655 18.9326 12.3274 18.8327 12.4273C18.7328 12.5271 18.5709 12.5271 18.4711 12.4273C18.3712 12.3274 18.3712 12.1655 18.4711 12.0657C18.5709 11.9658 18.7328 11.9658 18.8327 12.0657ZM7.43647 20.573C7.42108 20.5884 7.40184 20.6038 7.38261 20.6153L5.97268 21.4482C5.84381 21.5232 5.67646 21.4828 5.59952 21.352C5.52451 21.2231 5.5649 21.0558 5.6957 20.9788L7.10562 20.146C7.2345 20.0709 7.40184 20.1113 7.47878 20.2421C7.54226 20.3518 7.52302 20.4864 7.43647 20.573ZM7.03809 22.7325C7.14773 22.8036 7.29007 22.7844 7.37855 22.6959C7.39201 22.6825 7.40548 22.669 7.41509 22.6517L8.30183 21.2725C8.38261 21.1456 8.34799 20.9763 8.22104 20.8955C8.09409 20.8147 7.92482 20.8494 7.84403 20.9763L6.9573 22.3555C6.87651 22.4824 6.91114 22.6517 7.03809 22.7325ZM20.5369 7.49506C20.4503 7.58162 20.3157 7.60086 20.206 7.53738C20.0772 7.46237 20.0329 7.29502 20.1099 7.16422L20.9427 5.7543C21.0197 5.62735 21.1851 5.58118 21.3159 5.65812C21.4467 5.73506 21.489 5.90048 21.4121 6.03128L20.5792 7.44121C20.5677 7.46044 20.5542 7.47775 20.5369 7.49506ZM22.6177 7.47557C22.6331 7.46403 22.6485 7.45249 22.662 7.43903C22.7504 7.35054 22.7677 7.21013 22.6985 7.09857C22.6158 6.97354 22.4484 6.93699 22.3215 7.01778L20.9423 7.90451C20.8173 7.98722 20.7808 8.15457 20.8616 8.28152C20.9443 8.40655 21.1116 8.44309 21.2386 8.3623L22.6177 7.47557Z" fill="white"/>
</svg>
