<svg width="24" height="24" viewBox="0 0 24 24" fill="none" xmlns="http://www.w3.org/2000/svg">
<path d="M4.91698 4.91674L4.56343 4.56319C4.66066 4.46596 4.7128 4.304 4.69784 4.19937L4.69778 4.19938L4.69685 4.19209C4.57909 3.27234 4.88572 2.3493 5.54851 1.6865C6.73141 0.503603 8.64368 0.52837 9.80181 1.6865C10.9362 2.8209 10.9863 4.66865 9.84837 5.85383L9.84845 5.8539L9.84125 5.8611C9.68865 6.01371 9.67492 6.28798 9.86092 6.47398L17.4658 14.0789C17.6461 14.2591 17.9199 14.2574 18.0787 14.0986L18.0786 14.0985L18.086 14.0914C19.2684 12.9562 21.0965 12.9812 22.2533 14.138C23.4362 15.3209 23.4114 17.2332 22.2533 18.3913C21.5904 19.0542 20.6673 19.3609 19.7476 19.2429L19.7476 19.243L19.7404 19.242C19.6284 19.226 19.4879 19.2651 19.3766 19.3764C19.2794 19.4736 19.2273 19.6356 19.2422 19.7402L19.2423 19.7402L19.2432 19.7475C19.361 20.6672 19.0543 21.5903 18.3915 22.2531C17.2086 23.436 15.2964 23.4112 14.1382 22.2531C13.0038 21.1187 12.9538 19.2709 14.0917 18.0857L14.0916 18.0857L14.0988 18.0785C14.2514 17.9259 14.2651 17.6516 14.0791 17.4656C14.0791 17.4656 14.0791 17.4656 14.0791 17.4656L6.47409 9.86082C6.29384 9.68057 6.02001 9.68234 5.8612 9.84115L5.86127 9.84122L5.85393 9.84828C4.67148 10.9835 2.84338 10.9585 1.6866 9.80171C0.503705 8.61881 0.528471 6.70655 1.6866 5.54841C2.21822 5.0168 2.91782 4.71381 3.64919 4.67603L3.67004 5.07967L3.64919 4.67603C3.82884 4.66675 4.01079 4.67339 4.19234 4.69665L4.19234 4.6966L4.19945 4.69762C4.25235 4.70517 4.31191 4.7007 4.37309 4.68096C4.43984 4.65941 4.5062 4.62035 4.56365 4.56297L4.91698 4.91674ZM4.91698 4.91674C5.11406 4.71967 5.23224 4.40441 5.1928 4.12859L4.12879 5.1926C4.26047 5.2114 4.39666 5.19874 4.52664 5.15679C4.66885 5.1109 4.80364 5.02994 4.91698 4.91674Z" stroke="white"/>
</svg>
