<svg width="24" height="24" viewBox="0 0 24 24" fill="none" xmlns="http://www.w3.org/2000/svg">
<path fill-rule="evenodd" clip-rule="evenodd" d="M23.0222 7.85533C23.1202 7.81123 23.2335 7.81899 23.3269 7.87491C23.4196 7.93122 23.48 8.02893 23.4896 8.13759L23.6681 10.1686C23.6776 10.2773 23.6352 10.384 23.5537 10.4557C23.4997 10.5027 23.4332 10.5304 23.3641 10.5365C23.3287 10.5396 23.2925 10.537 23.2571 10.5282L21.6474 10.1373L21.6954 10.6833C21.7034 10.7744 21.6749 10.8642 21.6165 10.9338C21.5595 11.0013 21.4788 11.0435 21.3914 11.0512L21.3847 11.0518L4.00032 12.2405C3.81877 12.2527 3.65972 12.1153 3.64351 11.9308L3.46501 9.89975C3.44879 9.71527 3.58143 9.55214 3.76233 9.53247L15.3277 8.28684C15.3287 8.28675 15.3296 8.2865 15.3305 8.28625C15.3314 8.286 15.3323 8.28575 15.3333 8.28567L15.3333 8.28634L21.0872 7.66675C21.1786 7.65461 21.266 7.68444 21.336 7.74242C21.4057 7.80075 21.4494 7.88424 21.4574 7.9753L21.5053 8.52131L23.0222 7.85533ZM12.8921 9.23288L4.16168 10.1731L4.28181 11.54L7.61657 11.3117L12.8921 9.23288ZM9.85715 11.1585L20.9975 10.3968L20.8202 8.37931L15.4405 8.95848L9.85715 11.1585ZM21.5847 9.4241L22.9593 9.75751L22.8633 8.66583L21.568 9.23454L21.5847 9.4241ZM19.9165 12.5381C20.0158 12.4971 20.1289 12.5081 20.2207 12.5665C20.3118 12.6254 20.3694 12.7248 20.376 12.8337L20.498 14.869C20.5046 14.9778 20.4592 15.0834 20.3758 15.1527C20.3204 15.1982 20.2532 15.2241 20.184 15.2282C20.1485 15.2303 20.1124 15.2267 20.0772 15.2169L18.479 14.7814L18.5118 15.3285C18.5173 15.4198 18.4864 15.5088 18.426 15.5767C18.3672 15.6426 18.2853 15.6825 18.1977 15.6878L18.191 15.6882L0.780325 16.392C0.598506 16.3992 0.443327 16.2573 0.432239 16.0724L0.310169 14.0372C0.299081 13.8523 0.436193 13.6929 0.617565 13.6783L12.213 12.7554C12.215 12.7553 12.2167 12.7545 12.2187 12.7544L12.2187 12.7551L17.9876 12.296C18.0794 12.2875 18.1658 12.3187 18.2342 12.3786C18.3022 12.4389 18.3436 12.5236 18.349 12.6148L18.3819 13.162L19.9165 12.5381ZM9.75214 13.6332L0.998987 14.3298L1.08114 15.6996L4.42097 15.5643L9.75214 13.6332ZM6.66494 15.4736L17.8222 15.0226L17.7009 13.0009L12.3072 13.4299L6.66494 15.4736ZM18.4361 14.0663L19.8009 14.4382L19.7353 13.3443L18.4247 13.8767L18.4361 14.0663Z" fill="white"/>
</svg>
