<svg width="24" height="27" viewBox="0 0 24 27" fill="none" xmlns="http://www.w3.org/2000/svg">
<path fill-rule="evenodd" clip-rule="evenodd" d="M7.4215 4.16416L7.42151 4.16416C7.56488 4.18742 7.71011 4.21098 7.85782 4.2253C12.9376 5.10323 17.9113 9.14175 19.9417 14.0666C20.9569 16.5291 20.8317 19.0403 19.5628 20.8907C18.9825 21.7338 18.178 22.4523 17.2634 22.9804C15.8915 23.7724 14.2176 24.1292 12.7647 23.901C11.0334 23.6303 9.35309 22.568 8.09039 20.909C4.5443 16.3511 3.69477 9.42337 6.04162 4.51174C6.11194 4.36952 6.20426 4.26541 6.31858 4.19941C6.4329 4.1334 6.60733 4.08351 6.76566 4.09372C6.98133 4.09276 7.19918 4.1281 7.4215 4.16416ZM12.9387 22.5303C14.5118 22.7907 16.3645 22.1275 17.6146 20.9485C15.7192 12.0333 8.17374 6.53258 7.0022 5.73549C5.25327 10.0987 6.12596 16.0985 9.16171 20.0364C10.2103 21.4126 11.546 22.3181 12.9387 22.5303ZM18.7267 19.4426C19.3757 18.1025 19.3297 16.3508 18.6343 14.6182C17.1115 10.9246 13.8282 7.79001 10.094 6.33846C12.817 8.67868 17.0066 13.1191 18.7267 19.4426ZM10.3431 17.0665C10.5375 17.4032 10.4221 17.8338 10.0854 18.0282C9.74866 18.2226 9.31808 18.1073 9.12367 17.7705C8.92925 17.4338 9.04463 17.0032 9.38136 16.8088C9.7181 16.6144 10.1487 16.7297 10.3431 17.0665ZM13.4049 20.4306C13.7416 20.2361 13.857 19.8056 13.6626 19.4688C13.4682 19.1321 13.0376 19.0167 12.7009 19.2111C12.3641 19.4055 12.2488 19.8361 12.4432 20.1729C12.6376 20.5096 13.0682 20.625 13.4049 20.4306ZM13.1849 16.4423C13.3793 16.779 13.2639 17.2096 12.9272 17.404C12.5905 17.5984 12.1599 17.4831 11.9655 17.1463C11.771 16.8096 11.8864 16.379 12.2232 16.1846C12.5599 15.9902 12.9905 16.1056 13.1849 16.4423Z" fill="white"/>
</svg>
