<svg width="24" height="24" viewBox="0 0 24 24" fill="none" xmlns="http://www.w3.org/2000/svg">
<path d="M20.6827 9.14628L20.0478 8.36584L22.5901 6.43942C23.4744 5.76936 23.6485 4.50645 22.9784 3.62217C22.3084 2.73788 21.0454 2.56382 20.1612 3.23388L17.6188 5.1603L17.0325 4.38655C16.865 4.16548 16.5736 4.12531 16.3525 4.29282L14.0865 6.00985C13.8655 6.17736 13.8253 6.4688 13.9928 6.68987L14.9141 7.90577L2.0853 17.6702C1.86423 17.8377 1.82406 18.1291 1.99158 18.3502L1.93631 18.3921L1.83916 18.3787C1.54103 18.3871 1.2362 18.4441 0.959855 18.6535C0.683515 18.8629 0.490933 19.1828 0.444071 19.5228C0.397208 19.8628 0.496066 20.2229 0.705459 20.4993C0.914852 20.7756 1.23479 20.9682 1.5748 21.015C1.91481 21.0619 2.31679 21.0183 2.59313 20.8089C2.8142 20.6414 2.99339 20.4186 3.08213 20.1339C3.1374 20.092 3.19936 20.0016 3.20606 19.953C3.28981 20.0635 3.38027 20.1255 3.52599 20.1456C3.67171 20.1656 3.77555 20.1305 3.88608 20.0467L16.7635 10.289L17.6429 11.4496C17.7267 11.5601 17.8657 11.6288 17.9629 11.6422C18.06 11.6556 18.2124 11.6271 18.323 11.5433L20.589 9.82631C20.6995 9.74255 20.7614 9.6521 20.7815 9.50638C20.8016 9.36066 20.7664 9.25682 20.6827 9.14628ZM2.13745 19.8057C2.12764 19.8768 2.0954 19.9183 2.05451 19.9709C2.03955 19.9902 2.02343 20.0109 2.00683 20.0352C1.84102 20.1608 1.64673 20.134 1.52109 19.9682C1.47921 19.913 1.44403 19.8091 1.45742 19.712C1.47081 19.6148 1.53277 19.5244 1.58804 19.4825C1.64331 19.4406 1.74715 19.4054 1.84429 19.4188C2.03859 19.4456 2.191 19.4171 2.35011 19.34C2.23288 19.4724 2.16422 19.6114 2.13745 19.8057ZM20.7893 4.0629C21.2315 3.72787 21.8629 3.8149 22.198 4.25704C22.533 4.69919 22.446 5.33064 22.0038 5.66567L19.4615 7.59209L18.8333 6.76307L18.247 5.98932L20.7893 4.0629ZM3.63808 18.9731L3.05848 18.1508L15.4937 8.72809L16.08 9.50184L3.63808 18.9731ZM18.075 10.4697L15.1016 6.54572L16.5938 5.41499L19.5672 9.33901L18.075 10.4697Z" fill="white"/>
</svg>
