<svg width="30" height="30" viewBox="0 0 30 30" fill="none" xmlns="http://www.w3.org/2000/svg">
<path fill-rule="evenodd" clip-rule="evenodd" d="M18.862 4.43789C18.8867 4.43797 18.9114 4.43875 18.9361 4.44023C19.2816 4.46096 19.6188 4.61844 19.8812 4.88115C19.8999 4.89993 19.9183 4.91924 19.9362 4.93909C19.9465 4.95039 19.9561 4.96219 19.9659 4.97377C20.2531 5.3097 20.3931 5.75003 20.3501 6.18972L20.2134 7.59852C20.213 7.60185 20.2124 7.60503 20.212 7.6083L18.899 21.1018C18.8976 21.1154 18.8953 21.1286 18.8926 21.1417L18.6359 23.5741C18.6096 23.8256 18.5095 24.0498 18.3543 24.205L18.3542 24.205C18.2119 24.3473 18.0269 24.4252 17.8334 24.4241L17.2288 24.423L17.2308 25.6425C17.2315 26.0041 17.163 26.3848 17.0654 26.8261C16.9678 27.2674 16.4351 27.4398 16.0353 27.4443C15.6306 27.4488 15.2215 27.4315 14.8119 27.4141C14.4562 27.399 14.1002 27.384 13.7465 27.3832C13.4936 27.383 13.2457 27.2748 13.0491 27.0784C12.7792 26.8088 12.6239 26.4027 12.623 25.9644L12.6201 24.4148L12.2594 24.4142C11.8403 24.4123 11.5098 24.061 11.4547 23.5598L11.1794 21.0794C11.1778 21.065 11.1773 21.0506 11.1774 21.0362L9.81542 7.57806L9.81542 7.57794L9.67711 6.20872L9.67296 6.1678L9.6726 6.16288C9.62492 5.67973 9.79424 5.20576 10.1379 4.86206C10.3823 4.61769 10.6967 4.46471 11.0174 4.43058C11.0632 4.42569 11.1091 4.42327 11.155 4.42332L12.8706 4.42657L12.8718 4.4265L12.8731 4.42654L18.862 4.43789ZM19.6348 6.11729C19.6596 5.86368 19.5755 5.60957 19.404 5.42008C19.2705 5.27252 19.1008 5.18057 18.9297 5.16093L18.9327 6.44357C18.933 6.54285 18.8929 6.63265 18.828 6.6976C18.7631 6.76249 18.6735 6.80249 18.5743 6.80233C18.3758 6.80204 18.2146 6.64094 18.2141 6.4425L18.2111 5.15542L17.5058 5.15409L17.5073 6.4412C17.5074 6.54029 17.4674 6.62997 17.4026 6.69479C17.3376 6.75977 17.2477 6.79977 17.1484 6.79952C16.95 6.79901 16.7889 6.63771 16.7887 6.43925L16.7872 5.15267L16.0812 5.15134L16.0837 6.43773C16.0839 6.53694 16.0438 6.62671 15.9789 6.6916C15.914 6.75652 15.8243 6.79655 15.725 6.79636C15.5266 6.79598 15.3654 6.63481 15.365 6.43637L15.3626 5.14999L14.6565 5.14866L14.6592 6.43533C14.6594 6.53455 14.6194 6.62435 14.5545 6.68927C14.4896 6.75415 14.3999 6.79419 14.3007 6.79403C14.1023 6.79368 13.941 6.63254 13.9406 6.43411L13.9379 5.14731L13.2323 5.14598L13.2344 6.43331C13.2346 6.5325 13.1945 6.62217 13.1296 6.68706C13.0647 6.75201 12.9749 6.79201 12.8757 6.79179C12.6772 6.79134 12.5161 6.63011 12.5157 6.43168L12.5137 5.14453L11.8079 5.1432L11.8109 6.42968C11.8111 6.52896 11.7711 6.61876 11.7061 6.68371C11.6413 6.7486 11.5516 6.7886 11.4524 6.78844C11.254 6.78816 11.0927 6.62705 11.0923 6.42861L11.0892 5.14585C10.933 5.16381 10.7752 5.24363 10.6478 5.37106C10.4555 5.56334 10.3608 5.82841 10.388 6.09833L10.4979 7.18461L19.5292 7.20196L19.6348 6.11729ZM19.459 7.92104L10.5707 7.90343L11.8637 20.6822L17.745 20.6937L18.2142 20.6946L19.459 7.92104ZM16.3305 26.5428C16.4441 26.4079 16.5135 26.195 16.5128 25.9727L16.5102 24.4218L13.3388 24.4161L13.3417 25.9658C13.3422 26.2075 13.4243 26.4393 13.556 26.5709C13.5988 26.6136 13.6662 26.6645 13.7448 26.6645L16.1133 26.6698C16.1709 26.6698 16.2225 26.6422 16.2627 26.6106L16.3305 26.5428ZM17.8451 23.6959C17.8735 23.6675 17.9105 23.5982 17.9212 23.4963L18.1398 21.4243L11.9391 21.4123L12.169 23.4836C12.1834 23.6143 12.239 23.6874 12.2598 23.6959L12.9718 23.6971L12.978 23.6968L16.8681 23.7033C16.872 23.7032 16.8759 23.7038 16.8798 23.7039L17.8332 23.7055C17.8336 23.7055 17.8383 23.7027 17.8451 23.6959ZM16.7144 17.6392L16.7143 17.6393C16.2124 18.1411 15.6203 18.4062 15.002 18.4062C14.1687 18.406 13.3961 17.9307 12.8264 17.0676C12.2873 16.2508 11.9905 15.1721 11.9908 14.03C11.9906 12.583 12.4755 11.2341 13.2877 10.4218C13.7897 9.91984 14.3821 9.65471 15.001 9.65494C15.8339 9.65511 16.6064 10.1304 17.1759 10.9933C17.7149 11.8099 18.0118 12.8886 18.012 14.0309C18.0117 15.4781 17.5266 16.827 16.7144 17.6392ZM12.7166 14.0303C12.7164 15.0318 12.9705 15.9685 13.4322 16.6679C13.8631 17.3207 14.4206 17.6802 15.0019 17.6803C15.4236 17.6804 15.8382 17.4887 16.201 17.126L16.2012 17.1259C16.8804 16.4467 17.2859 15.2896 17.2862 14.0307C17.286 13.0291 17.0318 12.0923 16.5702 11.393C16.1395 10.7404 15.5821 10.3809 15.0009 10.3807C14.5788 10.3806 14.1639 10.5722 13.801 10.9351C13.1219 11.6142 12.7165 12.7713 12.7166 14.0303Z" fill="white"/>
</svg>
