<svg width="24" height="24" viewBox="0 0 24 24" fill="none" xmlns="http://www.w3.org/2000/svg">
<mask id="path-1-inside-1" fill="white">
<path fill-rule="evenodd" clip-rule="evenodd" d="M5.76491 18.2207L4.56481 17.0206L3.43351 18.1519L4.63361 19.352L5.76491 18.2207ZM6.63378 17.3518L7.76507 16.2206L6.56497 15.0205L5.43368 16.1517L6.63378 17.3518ZM18.4004 4.31636L19.6693 5.58527L22.4007 2.85384L21.1318 1.58493L18.4004 4.31636ZM18.8004 9.65441L19.5725 8.88234C19.8837 8.57032 19.8837 8.06307 19.5717 7.75105L16.2346 4.41317C16.0825 4.26717 15.8798 4.18564 15.6689 4.18564C15.4581 4.18564 15.2554 4.26717 15.1033 4.41317L14.3312 5.18523L18.8004 9.65441ZM6.04308 22.3259C6.14014 22.2856 6.22831 22.2266 6.30255 22.1522L10.8685 17.5863L6.39936 13.1171L1.83338 17.6831C1.68397 17.8334 1.60012 18.0368 1.60012 18.2487C1.60012 18.4607 1.68397 18.664 1.83338 18.8144L5.17126 22.1522C5.24549 22.2266 5.33366 22.2856 5.43072 22.3259C5.52778 22.3661 5.63183 22.3868 5.7369 22.3868C5.84198 22.3868 5.94602 22.3661 6.04308 22.3259ZM17.6691 10.7857L13.1999 6.31653L7.53065 11.9858L11.9998 16.455L17.6691 10.7857ZM22.2639 0.453638L23.532 1.72254C24.156 2.3458 24.156 3.36188 23.532 3.98513L20.791 6.72696C21.1981 7.18268 21.4159 7.7767 21.3997 8.38761C21.3835 8.99851 21.1345 9.58015 20.7038 10.0136L7.43385 23.2835C7.21115 23.5065 6.9466 23.6833 6.65538 23.8037C6.36417 23.9241 6.05203 23.9858 5.7369 23.9852C5.42178 23.9858 5.10964 23.9241 4.81843 23.8037C4.52721 23.6833 4.26266 23.5065 4.03996 23.2835L0.702084 19.9457C0.252508 19.4954 0 18.885 0 18.2487C0 17.6124 0.252508 17.0021 0.702084 16.5518L13.972 3.28187C14.8457 2.4082 16.3394 2.3858 17.2587 3.19547L20.0005 0.453638C20.6053 -0.152012 21.6598 -0.150412 22.2639 0.453638ZM11.6683 13.4489L15.0627 10.0545L13.9312 8.92304L10.5368 12.3174L11.6683 13.4489Z"/>
</mask>
<path fill-rule="evenodd" clip-rule="evenodd" d="M5.76491 18.2207L4.56481 17.0206L3.43351 18.1519L4.63361 19.352L5.76491 18.2207ZM6.63378 17.3518L7.76507 16.2206L6.56497 15.0205L5.43368 16.1517L6.63378 17.3518ZM18.4004 4.31636L19.6693 5.58527L22.4007 2.85384L21.1318 1.58493L18.4004 4.31636ZM18.8004 9.65441L19.5725 8.88234C19.8837 8.57032 19.8837 8.06307 19.5717 7.75105L16.2346 4.41317C16.0825 4.26717 15.8798 4.18564 15.6689 4.18564C15.4581 4.18564 15.2554 4.26717 15.1033 4.41317L14.3312 5.18523L18.8004 9.65441ZM6.04308 22.3259C6.14014 22.2856 6.22831 22.2266 6.30255 22.1522L10.8685 17.5863L6.39936 13.1171L1.83338 17.6831C1.68397 17.8334 1.60012 18.0368 1.60012 18.2487C1.60012 18.4607 1.68397 18.664 1.83338 18.8144L5.17126 22.1522C5.24549 22.2266 5.33366 22.2856 5.43072 22.3259C5.52778 22.3661 5.63183 22.3868 5.7369 22.3868C5.84198 22.3868 5.94602 22.3661 6.04308 22.3259ZM17.6691 10.7857L13.1999 6.31653L7.53065 11.9858L11.9998 16.455L17.6691 10.7857ZM22.2639 0.453638L23.532 1.72254C24.156 2.3458 24.156 3.36188 23.532 3.98513L20.791 6.72696C21.1981 7.18268 21.4159 7.7767 21.3997 8.38761C21.3835 8.99851 21.1345 9.58015 20.7038 10.0136L7.43385 23.2835C7.21115 23.5065 6.9466 23.6833 6.65538 23.8037C6.36417 23.9241 6.05203 23.9858 5.7369 23.9852C5.42178 23.9858 5.10964 23.9241 4.81843 23.8037C4.52721 23.6833 4.26266 23.5065 4.03996 23.2835L0.702084 19.9457C0.252508 19.4954 0 18.885 0 18.2487C0 17.6124 0.252508 17.0021 0.702084 16.5518L13.972 3.28187C14.8457 2.4082 16.3394 2.3858 17.2587 3.19547L20.0005 0.453638C20.6053 -0.152012 21.6598 -0.150412 22.2639 0.453638ZM11.6683 13.4489L15.0627 10.0545L13.9312 8.92304L10.5368 12.3174L11.6683 13.4489Z" fill="white"/>
<path d="M4.56481 17.0206L4.70623 16.8792L4.56481 16.7378L4.42339 16.8792L4.56481 17.0206ZM5.76491 18.2207L5.90633 18.3621L6.04775 18.2207L5.90633 18.0793L5.76491 18.2207ZM3.43351 18.1519L3.29209 18.0105L3.15067 18.1519L3.29209 18.2933L3.43351 18.1519ZM4.63361 19.352L4.49219 19.4934L4.63361 19.6349L4.77503 19.4934L4.63361 19.352ZM7.76507 16.2206L7.90649 16.362L8.04792 16.2206L7.90649 16.0791L7.76507 16.2206ZM6.63378 17.3518L6.49236 17.4933L6.63378 17.6347L6.7752 17.4933L6.63378 17.3518ZM6.56497 15.0205L6.70639 14.879L6.56497 14.7376L6.42355 14.879L6.56497 15.0205ZM5.43368 16.1517L5.29226 16.0103L5.15084 16.1517L5.29226 16.2932L5.43368 16.1517ZM19.6693 5.58527L19.5278 5.72669L19.6693 5.86811L19.8107 5.72669L19.6693 5.58527ZM18.4004 4.31636L18.2589 4.17494L18.1175 4.31636L18.2589 4.45778L18.4004 4.31636ZM22.4007 2.85384L22.5421 2.99526L22.6835 2.85384L22.5421 2.71242L22.4007 2.85384ZM21.1318 1.58493L21.2732 1.44351L21.1318 1.30209L20.9904 1.44351L21.1318 1.58493ZM19.5725 8.88234L19.7139 9.02376L19.7141 9.02358L19.5725 8.88234ZM18.8004 9.65441L18.659 9.79583L18.8004 9.93725L18.9418 9.79583L18.8004 9.65441ZM19.5717 7.75105L19.4302 7.89245L19.4302 7.89247L19.5717 7.75105ZM16.2346 4.41317L16.376 4.27173L16.3731 4.26888L16.2346 4.41317ZM15.1033 4.41317L14.9648 4.26885L14.9619 4.27175L15.1033 4.41317ZM14.3312 5.18523L14.1898 5.04381L14.0484 5.18523L14.1898 5.32665L14.3312 5.18523ZM6.30255 22.1522L6.16113 22.0108L6.16101 22.0109L6.30255 22.1522ZM6.04308 22.3259L5.96647 22.1411L5.96647 22.1411L6.04308 22.3259ZM10.8685 17.5863L11.01 17.7277L11.1514 17.5863L11.01 17.4448L10.8685 17.5863ZM6.39936 13.1171L6.54078 12.9757L6.39936 12.8343L6.25794 12.9757L6.39936 13.1171ZM1.83338 17.6831L1.69196 17.5417L1.69151 17.5421L1.83338 17.6831ZM1.83338 18.8144L1.69151 18.9553L1.69196 18.9558L1.83338 18.8144ZM5.17126 22.1522L5.3128 22.0109L5.31268 22.0108L5.17126 22.1522ZM5.43072 22.3259L5.50734 22.1411L5.50734 22.1411L5.43072 22.3259ZM13.1999 6.31653L13.3413 6.17511L13.1999 6.03368L13.0585 6.17511L13.1999 6.31653ZM17.6691 10.7857L17.8105 10.9271L17.9519 10.7857L17.8105 10.6443L17.6691 10.7857ZM7.53065 11.9858L7.38923 11.8444L7.24781 11.9858L7.38923 12.1272L7.53065 11.9858ZM11.9998 16.455L11.8584 16.5964L11.9998 16.7378L12.1412 16.5964L11.9998 16.455ZM23.532 1.72254L23.3905 1.86392L23.3907 1.86406L23.532 1.72254ZM22.2639 0.453638L22.4053 0.312262L22.4053 0.312217L22.2639 0.453638ZM23.532 3.98513L23.3907 3.84362L23.3905 3.84373L23.532 3.98513ZM20.791 6.72696L20.6495 6.58556L20.5159 6.71925L20.6418 6.86022L20.791 6.72696ZM21.3997 8.38761L21.5996 8.39291L21.5996 8.39291L21.3997 8.38761ZM20.7038 10.0136L20.8452 10.1551L20.8456 10.1546L20.7038 10.0136ZM7.43385 23.2835L7.29242 23.1421L7.29234 23.1422L7.43385 23.2835ZM5.7369 23.9852L5.73727 23.7852L5.73654 23.7852L5.7369 23.9852ZM4.03996 23.2835L4.18147 23.1422L4.18138 23.1421L4.03996 23.2835ZM0.702084 19.9457L0.560547 20.087L0.560663 20.0871L0.702084 19.9457ZM0.702084 16.5518L0.560663 16.4104L0.560548 16.4105L0.702084 16.5518ZM13.972 3.28187L13.8306 3.14045L13.8306 3.14045L13.972 3.28187ZM17.2587 3.19547L17.1265 3.34555L17.2673 3.46963L17.4001 3.33689L17.2587 3.19547ZM20.0005 0.453638L20.1419 0.59506L20.142 0.594966L20.0005 0.453638ZM15.0627 10.0545L15.2041 10.1959L15.3455 10.0545L15.2041 9.91308L15.0627 10.0545ZM11.6683 13.4489L11.5269 13.5903L11.6683 13.7317L11.8097 13.5903L11.6683 13.4489ZM13.9312 8.92304L14.0726 8.78162L13.9312 8.64019L13.7898 8.78162L13.9312 8.92304ZM10.5368 12.3174L10.3954 12.176L10.254 12.3174L10.3954 12.4589L10.5368 12.3174ZM4.42339 17.162L5.62349 18.3621L5.90633 18.0793L4.70623 16.8792L4.42339 17.162ZM3.57493 18.2933L4.70623 17.162L4.42339 16.8792L3.29209 18.0105L3.57493 18.2933ZM4.77503 19.2106L3.57493 18.0105L3.29209 18.2933L4.49219 19.4934L4.77503 19.2106ZM5.62349 18.0793L4.49219 19.2106L4.77503 19.4934L5.90633 18.3621L5.62349 18.0793ZM7.62365 16.0791L6.49236 17.2104L6.7752 17.4933L7.90649 16.362L7.62365 16.0791ZM6.42355 15.1619L7.62365 16.362L7.90649 16.0791L6.70639 14.879L6.42355 15.1619ZM5.5751 16.2932L6.70639 15.1619L6.42355 14.879L5.29226 16.0103L5.5751 16.2932ZM6.7752 17.2104L5.5751 16.0103L5.29226 16.2932L6.49236 17.4933L6.7752 17.2104ZM19.8107 5.44384L18.5418 4.17494L18.2589 4.45778L19.5278 5.72669L19.8107 5.44384ZM22.2593 2.71242L19.5278 5.44384L19.8107 5.72669L22.5421 2.99526L22.2593 2.71242ZM20.9904 1.72635L22.2593 2.99526L22.5421 2.71242L21.2732 1.44351L20.9904 1.72635ZM18.5418 4.45778L21.2732 1.72635L20.9904 1.44351L18.2589 4.17494L18.5418 4.45778ZM19.431 8.74092L18.659 9.51298L18.9418 9.79583L19.7139 9.02376L19.431 8.74092ZM19.4302 7.89247C19.6642 8.12642 19.6642 8.50717 19.4309 8.7411L19.7141 9.02358C20.1032 8.63346 20.1032 7.99973 19.7131 7.60963L19.4302 7.89247ZM16.0931 4.55457L19.4302 7.89245L19.7131 7.60964L16.376 4.27176L16.0931 4.55457ZM15.6689 4.38564C15.8282 4.38564 15.9812 4.4472 16.0961 4.55746L16.3731 4.26888C16.1837 4.08713 15.9314 3.98564 15.6689 3.98564V4.38564ZM15.2418 4.55746C15.3567 4.4472 15.5097 4.38564 15.6689 4.38564V3.98564C15.4065 3.98564 15.1542 4.08713 14.9648 4.26888L15.2418 4.55746ZM14.4726 5.32665L15.2447 4.55459L14.9619 4.27175L14.1898 5.04381L14.4726 5.32665ZM18.9418 9.51298L14.4726 5.04381L14.1898 5.32665L18.659 9.79583L18.9418 9.51298ZM6.16101 22.0109C6.10535 22.0667 6.03924 22.1109 5.96647 22.1411L6.1197 22.5106C6.24105 22.4603 6.35128 22.3865 6.44409 22.2935L6.16101 22.0109ZM10.7271 17.4448L6.16113 22.0108L6.44397 22.2937L11.01 17.7277L10.7271 17.4448ZM6.25794 13.2585L10.7271 17.7277L11.01 17.4448L6.54078 12.9757L6.25794 13.2585ZM1.9748 17.8245L6.54078 13.2585L6.25794 12.9757L1.69196 17.5417L1.9748 17.8245ZM1.80012 18.2487C1.80012 18.0896 1.86307 17.9369 1.97524 17.8241L1.69151 17.5421C1.50487 17.7299 1.40012 17.9839 1.40012 18.2487H1.80012ZM1.97524 18.6734C1.86307 18.5605 1.80012 18.4079 1.80012 18.2487H1.40012C1.40012 18.5135 1.50487 18.7675 1.69151 18.9553L1.97524 18.6734ZM5.31268 22.0108L1.9748 18.6729L1.69196 18.9558L5.02984 22.2937L5.31268 22.0108ZM5.50734 22.1411C5.43457 22.1109 5.36846 22.0667 5.3128 22.0109L5.02971 22.2935C5.12253 22.3865 5.23276 22.4603 5.35411 22.5106L5.50734 22.1411ZM5.7369 22.1868C5.65812 22.1868 5.58011 22.1713 5.50734 22.1411L5.35411 22.5106C5.47546 22.5609 5.60554 22.5868 5.7369 22.5868V22.1868ZM5.96647 22.1411C5.8937 22.1713 5.81569 22.1868 5.7369 22.1868V22.5868C5.86827 22.5868 5.99835 22.5609 6.1197 22.5106L5.96647 22.1411ZM13.0585 6.45795L17.5277 10.9271L17.8105 10.6443L13.3413 6.17511L13.0585 6.45795ZM7.67207 12.1272L13.3413 6.45795L13.0585 6.17511L7.38923 11.8444L7.67207 12.1272ZM12.1412 16.3136L7.67207 11.8444L7.38923 12.1272L11.8584 16.5964L12.1412 16.3136ZM17.5277 10.6443L11.8584 16.3136L12.1412 16.5964L17.8105 10.9271L17.5277 10.6443ZM23.6735 1.58117L22.4053 0.312262L22.1224 0.595015L23.3905 1.86392L23.6735 1.58117ZM23.6733 4.12664C24.3756 3.42527 24.3756 2.28241 23.6733 1.58103L23.3907 1.86406C23.9365 2.40918 23.9365 3.29849 23.3907 3.84362L23.6733 4.12664ZM20.9324 6.86836L23.6734 4.12653L23.3905 3.84373L20.6495 6.58556L20.9324 6.86836ZM21.5996 8.39291C21.6172 7.73103 21.3813 7.08744 20.9401 6.59371L20.6418 6.86022C21.015 7.27791 21.2146 7.82237 21.1997 8.3823L21.5996 8.39291ZM20.8456 10.1546C21.3123 9.68496 21.582 9.05479 21.5996 8.39291L21.1997 8.3823C21.1849 8.94223 20.9567 9.47535 20.5619 9.87266L20.8456 10.1546ZM7.57527 23.425L20.8452 10.1551L20.5623 9.87221L7.29242 23.1421L7.57527 23.425ZM6.7318 23.9885C7.04736 23.858 7.33404 23.6665 7.57535 23.4249L7.29234 23.1422C7.08826 23.3465 6.84583 23.5085 6.57896 23.6189L6.7318 23.9885ZM5.73654 24.1852C6.07801 24.1858 6.41624 24.119 6.7318 23.9885L6.57896 23.6189C6.31209 23.7292 6.02605 23.7857 5.73727 23.7852L5.73654 24.1852ZM4.74201 23.9885C5.05757 24.119 5.3958 24.1858 5.73727 24.1852L5.73654 23.7852C5.44776 23.7857 5.16172 23.7292 4.89485 23.6189L4.74201 23.9885ZM3.89846 23.4249C4.13977 23.6665 4.42645 23.858 4.74201 23.9885L4.89485 23.6189C4.62798 23.5085 4.38555 23.3465 4.18147 23.1422L3.89846 23.4249ZM0.560663 20.0871L3.89854 23.425L4.18138 23.1421L0.843506 19.8042L0.560663 20.0871ZM-0.2 18.2487C-0.2 18.938 0.0735343 19.5992 0.560548 20.087L0.843621 19.8044C0.431481 19.3915 0.2 18.8321 0.2 18.2487H-0.2ZM0.560548 16.4105C0.0735344 16.8983 -0.2 17.5594 -0.2 18.2487H0.2C0.2 17.6654 0.431481 17.1059 0.843621 16.6931L0.560548 16.4105ZM13.8306 3.14045L0.560663 16.4104L0.843506 16.6932L14.1134 3.4233L13.8306 3.14045ZM17.3909 3.04538C16.3948 2.16812 14.7812 2.18986 13.8306 3.14045L14.1134 3.4233C14.9102 2.62654 16.2839 2.60348 17.1265 3.34555L17.3909 3.04538ZM19.8591 0.312217L17.1172 3.05405L17.4001 3.33689L20.1419 0.59506L19.8591 0.312217ZM22.4053 0.312217C21.7233 -0.369758 20.5421 -0.37175 19.859 0.31231L20.142 0.594966C20.6686 0.0677254 21.5963 0.0689338 22.1225 0.59506L22.4053 0.312217ZM14.9213 9.91308L11.5269 13.3075L11.8097 13.5903L15.2041 10.1959L14.9213 9.91308ZM13.7898 9.06446L14.9213 10.1959L15.2041 9.91308L14.0726 8.78162L13.7898 9.06446ZM10.6782 12.4589L14.0726 9.06446L13.7898 8.78162L10.3954 12.176L10.6782 12.4589ZM11.8097 13.3075L10.6782 12.176L10.3954 12.4589L11.5269 13.5903L11.8097 13.3075Z" fill="#003317" mask="url(#path-1-inside-1)"/>
</svg>
