<svg width="24" height="24" viewBox="0 0 24 24" fill="none" xmlns="http://www.w3.org/2000/svg">
<path fill-rule="evenodd" clip-rule="evenodd" d="M10.7342 15.6203L11.9276 13.5536L10.6585 11.3558H8.15311L6.96066 13.4207L8.23038 15.6203H10.7342ZM13.2642 14.3077L12.0733 16.3708L13.3458 18.5741L15.8864 18.575L17.1592 16.3708L15.968 14.3077H13.2642V14.3077ZM8.03478 9.71736H10.7342L11.9267 7.65155L10.6567 5.4525H8.11053L6.84172 7.65064L8.03478 9.71736ZM13.1471 6.76542H16.7516L18.4566 9.71736H21.8624L24 13.4207L21.8624 17.1249H18.4557L16.7534 20.0732C15.3279 20.0704 13.9034 20.0713 12.4782 20.0713L10.8517 17.2551C9.64977 17.2536 8.44849 17.2542 7.2466 17.2542L5.54492 14.3077H2.1376L0 10.6035L2.1376 6.90018H5.54674L7.24995 3.94824C8.6736 3.94824 10.0963 3.94824 11.52 3.94824L13.1471 6.76542V6.76542ZM13.343 12.6675H15.8487L17.0403 10.6035L15.7702 8.40474H13.2642L12.0733 10.4678L13.343 12.6675ZM17.186 13.4216L18.4548 15.6203H21.0018L22.2719 13.4207L21.0018 11.2219H18.4566L17.186 13.4216V13.4216ZM5.54583 12.8031L6.81495 10.6044L5.54492 8.40474H2.99878L1.72906 10.6035L2.99878 12.8031H5.54583V12.8031Z" fill="white"/>
</svg>
