<svg width="403" height="420" viewBox="0 0 403 420" fill="none" xmlns="http://www.w3.org/2000/svg">
<path d="M4.60526 166.544C-4.52045 152.204 0.259686 136.994 15.9038 130.911C31.1133 124.827 45.8882 119.177 61.0978 113.528C64.1397 112.225 65.4433 110.921 65.4433 107.444C65.8779 91.3657 66.747 75.2871 68.0507 59.2085C69.3544 41.8262 81.522 33.5696 102.815 38.3497C113.679 41.3916 128.889 45.3026 143.664 49.6482C147.575 50.9519 150.182 50.0828 152.789 46.6063C162.35 34.4387 172.345 22.2711 181.905 10.1035C192.769 -3.36782 209.282 -3.36782 220.146 10.1035C230.141 22.2711 240.136 34.4387 250.13 47.0409C252.303 49.6482 254.041 50.5173 257.518 49.6482C272.727 45.3026 288.371 40.9571 303.581 37.046C320.094 32.7005 333.131 42.2607 334 59.2085C334.869 75.2871 335.738 90.9312 336.607 107.01C336.607 110.486 337.911 112.225 340.953 113.094C355.728 118.308 370.068 123.958 384.843 129.607C402.226 136.125 407.44 151.335 397.445 166.544C389.189 179.581 380.498 192.618 371.807 205.654C369.634 208.696 369.634 210.435 371.807 213.476C380.932 226.513 389.623 239.984 398.315 253.456C407.44 267.796 402.66 283.006 386.581 289.524C371.806 295.173 357.032 300.823 342.257 306.472C339.215 307.775 337.476 309.079 337.476 312.99C337.042 329.069 335.738 345.147 334.869 361.226C334 377.739 320.529 387.3 304.45 382.954C288.806 378.608 273.162 374.697 257.518 370.352C254.476 369.483 252.738 370.352 250.999 372.525C241.005 385.127 231.01 397.294 221.015 409.897C210.151 423.368 194.072 423.368 182.774 409.897C172.779 397.729 162.35 385.127 152.789 372.525C150.617 369.917 148.878 369.483 145.837 370.352C130.627 374.697 115.417 378.174 100.643 382.954C81.9565 389.038 68.0507 375.132 68.4852 359.488C68.4852 344.278 66.747 328.634 66.3125 313.425C66.3125 309.948 65.0088 308.645 61.9669 307.341C46.7574 301.692 31.5478 296.042 16.3383 289.959C1.56336 284.309 -3.65133 268.665 4.60526 255.629C13.2964 241.723 21.9876 228.251 31.1133 214.346C33.2861 211.304 33.2861 209.131 31.1133 206.524C21.9876 193.487 13.2964 180.016 4.60526 166.544Z" fill="#BD10E0"/>
<path d="M143.881 138.88C143.881 124 132.721 116.56 117.121 116.56C107.521 116.56 101.521 118.36 96.0014 120.28L92.6414 139.36C98.6414 136.48 105.601 134.68 111.361 134.68C117.361 134.68 120.481 137.8 120.481 142.96C120.481 158.8 95.1614 176.92 79.8014 187.96L77.4014 202H132.241L135.481 183.16H110.761C127.321 171.88 143.881 159.04 143.881 138.88ZM192.165 147.64C192.165 162.52 185.805 185.56 176.685 185.56C172.125 185.56 170.085 180.52 170.085 172.6C170.085 157.72 176.445 134.68 185.565 134.68C190.125 134.68 192.165 139.72 192.165 147.64ZM215.205 146.92C215.205 125.8 202.725 116.56 187.365 116.56C163.365 116.56 147.045 138.04 147.045 173.32C147.045 194.44 159.645 203.68 174.885 203.68C198.885 203.68 215.205 182.2 215.205 146.92ZM250.676 136.24C250.676 145.6 246.836 156.28 242.036 156.28C239.636 156.28 238.196 154.24 238.196 149.44C238.196 140.08 242.036 129.4 246.836 129.4C249.236 129.4 250.676 131.44 250.676 136.24ZM266.396 135.52C266.396 122.32 258.116 117.4 248.036 117.4C233.636 117.4 222.476 128.56 222.476 150.16C222.476 163.36 230.756 168.28 240.836 168.28C255.236 168.28 266.396 157.12 266.396 135.52ZM304.436 170.68C304.436 180.04 300.596 190.72 295.796 190.72C293.396 190.72 291.956 188.68 291.956 183.88C291.956 174.52 295.796 163.84 300.596 163.84C302.996 163.84 304.436 165.88 304.436 170.68ZM320.156 169.96C320.156 156.76 311.876 151.84 301.796 151.84C287.396 151.84 276.236 163 276.236 184.6C276.236 197.8 284.516 202.72 294.596 202.72C308.996 202.72 320.156 191.56 320.156 169.96ZM231.956 202H247.436L310.796 118.24H295.436L231.956 202ZM145.51 246.854C145.51 262.969 139.064 286.603 123.487 286.603C114.624 286.603 111.401 279.351 111.401 269.414C111.401 253.3 117.847 229.666 133.424 229.666C142.287 229.666 145.51 236.917 145.51 246.854ZM171.293 245.377C171.293 223.623 158.536 209.389 135.707 209.389C102.941 209.389 85.6185 238.126 85.6185 270.891C85.6185 292.511 98.3757 306.88 121.204 306.88C153.97 306.88 171.293 278.143 171.293 245.377ZM172.572 305H197.549L203.592 270.22H233.403L236.895 250.211H207.083L210.44 231.546H245.623L249.249 211.269H189.089L172.572 305ZM241.456 305H266.433L272.476 270.22H302.288L305.779 250.211H275.968L279.325 231.546H314.508L318.133 211.269H257.973L241.456 305Z" fill="white"/>
</svg>
