<svg width="88" height="88" viewBox="0 0 88 88" fill="none" xmlns="http://www.w3.org/2000/svg">
<path fill-rule="evenodd" clip-rule="evenodd" d="M42.2707 3.66667H45.7278V13.9953H42.2707V3.66667ZM14.2559 16.7015L21.5596 24.0051L24.0039 21.5608L16.7002 14.2572L14.2559 16.7015ZM63.9917 21.563L71.2954 14.2594L73.7397 16.7037L66.436 24.0073L63.9917 21.563ZM70.9681 43.9974C70.9681 29.1268 58.8692 17.0268 43.9975 17.0268C29.1257 17.0268 17.0269 29.1268 17.0269 43.9974C17.0269 58.868 29.1257 70.968 43.9975 70.968C58.8692 70.968 70.9681 58.868 70.9681 43.9974ZM43.9975 67.5109C31.0321 67.5109 20.484 56.9617 20.484 43.9974C20.484 31.0332 31.0321 20.4839 43.9975 20.4839C56.9629 20.4839 67.5109 31.0331 67.5109 43.9974C67.5109 56.9617 56.9629 67.5109 43.9975 67.5109ZM45.7278 74.0033H42.2707V84.3319H45.7278V74.0033ZM24.0039 66.4359L21.5596 63.9916L14.2559 71.2953L16.7002 73.7396L24.0039 66.4359ZM74.0034 42.2706H84.332V45.7277H74.0034V42.2706ZM13.9954 42.2706H3.66675V45.7277H13.9954V42.2706ZM66.4373 63.9916L73.741 71.2953L71.2967 73.7396L63.993 66.4359L66.4373 63.9916Z" fill="white"/>
</svg>
