<svg width="24" height="24" viewBox="0 0 24 24" fill="none" xmlns="http://www.w3.org/2000/svg">
<path fill-rule="evenodd" clip-rule="evenodd" d="M5.33316 2.02236C7.30655 0.703788 9.62663 0 12 0C15.1814 0.00401097 18.2313 1.26958 20.4809 3.51915C22.7304 5.76871 23.996 8.81863 24 12C24 14.3734 23.2962 16.6934 21.9776 18.6668C20.6591 20.6402 18.7849 22.1783 16.5922 23.0865C14.3995 23.9948 11.9867 24.2324 9.65892 23.7694C7.33115 23.3064 5.19295 22.1635 3.51472 20.4853C1.83649 18.807 0.693604 16.6689 0.230582 14.3411C-0.232441 12.0133 0.00519937 9.60051 0.913451 7.4078C1.8217 5.21508 3.35977 3.34094 5.33316 2.02236ZM6.03493 20.9274C7.8006 22.1071 9.87646 22.7368 12 22.7368C14.8466 22.7335 17.5756 21.6012 19.5884 19.5884C21.6012 17.5756 22.7335 14.8466 22.7368 12C22.7368 9.87645 22.1071 7.80059 20.9274 6.03493C19.7476 4.26926 18.0707 2.8931 16.1088 2.08045C14.1469 1.2678 11.9881 1.05518 9.90535 1.46946C7.82261 1.88375 5.90948 2.90633 4.40791 4.40791C2.90634 5.90948 1.88375 7.8226 1.46947 9.90534C1.05518 11.9881 1.26781 14.1469 2.08046 16.1088C2.8931 18.0707 4.26927 19.7476 6.03493 20.9274ZM14.3193 12.7427L16.7445 14.3015H16.7521C16.8665 14.3754 16.954 14.4843 17.0014 14.6119C17.0489 14.7396 17.0538 14.8792 17.0154 15.0099C16.9771 15.1405 16.8975 15.2553 16.7886 15.3371C16.6797 15.4189 16.5472 15.4632 16.4111 15.4636C16.2902 15.4649 16.1716 15.4306 16.07 15.365L13.6422 13.8013C13.3697 14.0479 13.0448 14.2295 12.692 14.3326C12.3393 14.4356 11.9677 14.4574 11.6053 14.3963C11.2429 14.3351 10.899 14.1927 10.5996 13.9796C10.3001 13.7666 10.0528 13.4884 9.8762 13.1661C9.69963 12.8438 9.59839 12.4856 9.58008 12.1185C9.56176 11.7515 9.62685 11.385 9.77047 11.0467C9.91408 10.7084 10.1325 10.407 10.4093 10.1652C10.686 9.92337 11.014 9.74742 11.3685 9.65052V3.78947C11.3685 3.62197 11.4351 3.46132 11.5535 3.34288C11.672 3.22444 11.8326 3.15789 12.0001 3.15789C12.1676 3.15789 12.3283 3.22444 12.4467 3.34288C12.5651 3.46132 12.6317 3.62197 12.6317 3.78947V9.65052C12.9499 9.73573 13.2474 9.88465 13.5063 10.0883C13.7652 10.2919 13.9801 10.546 14.1379 10.8351C14.2957 11.1242 14.3931 11.4424 14.4243 11.7703C14.4555 12.0982 14.4197 12.429 14.3193 12.7427ZM11.3489 12.9747C11.5416 13.1035 11.7683 13.1722 12.0001 13.1722C12.311 13.1722 12.6092 13.0487 12.829 12.8289C13.0488 12.609 13.1723 12.3109 13.1723 12C13.1723 11.7682 13.1036 11.5415 12.9748 11.3488C12.846 11.156 12.6629 11.0057 12.4487 10.917C12.2345 10.8283 11.9988 10.8051 11.7714 10.8503C11.544 10.8955 11.3352 11.0072 11.1712 11.1711C11.0073 11.3351 10.8956 11.5439 10.8504 11.7713C10.8052 11.9987 10.8284 12.2344 10.9171 12.4486C11.0058 12.6628 11.1561 12.8458 11.3489 12.9747Z" fill="white"/>
</svg>
