<svg width="90" height="88" viewBox="0 0 90 88" fill="none" xmlns="http://www.w3.org/2000/svg">
<path d="M85.8571 61.2862H76.2714C75.4932 53.5332 71.8627 46.3458 66.0844 41.1184C60.3061 35.8911 52.7919 32.9966 45 32.9966C37.2081 32.9966 29.6939 35.8911 23.9156 41.1184C18.1373 46.3458 14.5068 53.5332 13.7286 61.2862H4.14286C3.30932 61.2862 2.50992 61.6173 1.92052 62.2067C1.33112 62.7961 1 63.5955 1 64.4291C1 65.2626 1.33112 66.062 1.92052 66.6514C2.50992 67.2408 3.30932 67.5719 4.14286 67.5719H85.8571C86.6907 67.5719 87.4901 67.2408 88.0795 66.6514C88.6689 66.062 89 65.2626 89 64.4291C89 63.5955 88.6689 62.7961 88.0795 62.2067C87.4901 61.6173 86.6907 61.2862 85.8571 61.2862ZM20.0457 61.2862C20.7958 55.1962 23.747 49.5907 28.3434 45.5258C32.9398 41.4608 38.864 39.2169 45 39.2169C51.136 39.2169 57.0602 41.4608 61.6566 45.5258C66.253 49.5907 69.2042 55.1962 69.9543 61.2862H20.0457Z" fill="white" stroke="#125936" stroke-width="0.75"/>
<path d="M70.144 73.8564H19.8583C19.0248 73.8564 18.2254 74.1875 17.636 74.7769C17.0466 75.3663 16.7155 76.1657 16.7155 76.9993C16.7155 77.8328 17.0466 78.6322 17.636 79.2216C18.2254 79.811 19.0248 80.1421 19.8583 80.1421H70.144C70.9776 80.1421 71.777 79.811 72.3664 79.2216C72.9558 78.6322 73.2869 77.8328 73.2869 76.9993C73.2869 76.1657 72.9558 75.3663 72.3664 74.7769C71.777 74.1875 70.9776 73.8564 70.144 73.8564Z" fill="white" stroke="#125936" stroke-width="0.75"/>
<path d="M44.9993 23.5714C45.8328 23.5714 46.6322 23.2403 47.2216 22.6509C47.811 22.0615 48.1422 21.2621 48.1422 20.4286V14.1429C48.1422 13.3093 47.811 12.5099 47.2216 11.9205C46.6322 11.3311 45.8328 11 44.9993 11C44.1658 11 43.3664 11.3311 42.777 11.9205C42.1876 12.5099 41.8564 13.3093 41.8564 14.1429V20.4286C41.8564 21.2621 42.1876 22.0615 42.777 22.6509C43.3664 23.2403 44.1658 23.5714 44.9993 23.5714Z" fill="white" stroke="#125936" stroke-width="0.75"/>
<path d="M69.4526 33.6926C69.8662 33.695 70.2762 33.6157 70.6591 33.4593C71.0421 33.3029 71.3903 33.0724 71.684 32.7812L76.1154 28.3497C76.7073 27.7621 77.0414 26.9634 77.0443 26.1294C77.0473 25.2954 76.7188 24.4944 76.1312 23.9026C75.5435 23.3108 74.7448 22.9766 73.9108 22.9737C73.0768 22.9708 72.2758 23.2992 71.684 23.8869L67.2526 28.3183C66.8093 28.7579 66.5071 29.3195 66.3843 29.9316C66.2615 30.5437 66.3237 31.1784 66.5631 31.755C66.8025 32.3315 67.2082 32.8237 67.7284 33.1688C68.2486 33.5139 68.8598 33.6962 69.484 33.6926H69.4526Z" fill="white" stroke="#125936" stroke-width="0.75"/>
<path d="M18.3154 32.7784C18.9167 33.2932 19.6901 33.5623 20.481 33.5317C21.272 33.5012 22.0223 33.1733 22.5821 32.6136C23.1418 32.0538 23.4697 31.3035 23.5003 30.5125C23.5308 29.7215 23.2618 28.9482 22.7469 28.3469L18.3154 23.8841C17.7142 23.3692 16.9408 23.1001 16.1499 23.1307C15.3589 23.1612 14.6085 23.4891 14.0488 24.0489C13.4891 24.6086 13.1612 25.3589 13.1306 26.1499C13.1001 26.9409 13.3691 27.7143 13.884 28.3155L18.3154 32.7784Z" fill="white" stroke="#125936" stroke-width="0.75"/>
</svg>
