<svg width="88" height="88" viewBox="0 0 88 88" fill="none" xmlns="http://www.w3.org/2000/svg">
<path d="M80.2005 27.588C78.686 23.4969 74.7947 20.7364 70.3366 20.7364C65.8663 20.7364 61.9697 23.5075 60.4605 27.6144C56.0808 28.3685 52.8125 32.1472 52.8125 36.7197C52.8125 41.821 56.9634 45.9719 62.0647 45.9719H78.7485C83.8498 45.9719 87.9989 41.821 87.9989 36.7197C87.9981 32.1428 84.6039 28.2929 80.2005 27.588ZM78.7476 42.4502H62.0638C58.9029 42.4502 56.3316 39.8788 56.3316 36.7188C56.3316 33.6186 58.7621 31.1062 61.8658 31.0006C62.6578 30.9733 63.3354 30.4198 63.5176 29.6472C64.27 26.4739 67.0736 24.2563 70.3358 24.2563C73.5926 24.2563 76.3963 26.4713 77.1504 29.641C77.3361 30.4242 78.0304 30.9804 78.8347 30.9936C81.9464 31.0411 84.4781 33.6098 84.4781 36.7188C84.4781 39.8788 81.9068 42.4502 78.7476 42.4502Z" fill="white"/>
<path d="M75.1513 57.3121C61.7332 57.3121 49.9633 47.3673 49.9633 36.0295C49.9633 23.743 60.0092 13.7463 72.3573 13.7463C73.1132 13.7463 73.7855 13.2623 74.0266 12.5452C74.2669 11.828 74.0213 11.0369 73.4168 10.5819C67.7127 6.28226 60.9112 4.01012 53.7499 4.01012C46.4063 4.01012 39.6436 6.47234 34.1789 10.5731C32.7427 8.71279 30.6536 7.38225 28.2372 7.00209C26.6981 2.82125 22.7284 0 18.1789 0C13.6179 0 9.64206 2.83357 8.11088 7.02761C3.64052 7.78616 0.300957 11.6396 0.300957 16.3018C0.300957 21.4955 4.52668 25.7213 9.7195 25.7213H22.9827C21.7481 29.1638 21.0406 32.8554 21.0406 36.7168C21.0406 40.8844 21.8827 44.8435 23.3154 48.5095C18.2255 50.0284 14.1212 53.9487 12.4492 59.1548C5.37147 60.0356 0 66.0055 0 73.2751C0 81.1282 6.38962 87.5187 14.2435 87.5187H42.0469C49.8999 87.5187 56.2904 81.1282 56.2904 73.2751C56.2904 71.9067 56.0924 70.5797 55.7254 69.3231C63.4606 68.8611 70.7328 65.7406 76.3692 60.3436C76.8884 59.8456 77.0529 59.0817 76.7854 58.4156C76.5161 57.7486 75.8702 57.3121 75.1513 57.3121ZM9.72038 22.2022C6.46794 22.2022 3.8218 19.5552 3.8218 16.3027C3.8218 13.111 6.32362 10.5256 9.51799 10.4156C10.31 10.3883 10.9876 9.83478 11.1706 9.06303C11.9441 5.79914 14.827 3.51997 18.1789 3.51997C21.5281 3.51997 24.4101 5.79738 25.1871 9.05775C25.3737 9.84094 26.0671 10.3962 26.8723 10.4094C28.7696 10.4385 30.4433 11.3844 31.4966 12.8136C28.6279 15.4852 26.2466 18.6585 24.4814 22.2013H9.72038V22.2022ZM42.0469 83.9987H14.2435C8.33088 83.9987 3.51997 79.1878 3.51997 73.2751C3.51997 67.4707 8.06776 62.7698 13.8739 62.5709C14.6659 62.5454 15.3435 61.9901 15.5266 61.2184C16.9073 55.399 22.0491 51.3334 28.0286 51.3334C34.0029 51.3334 39.1429 55.3946 40.528 61.2078C40.7146 61.9919 41.408 62.548 42.2123 62.5603C48.0343 62.6501 52.7696 67.4575 52.7696 73.2751C52.7696 79.1878 47.9595 83.9987 42.0469 83.9987ZM54.196 65.8885C51.9424 62.2145 48.0739 59.6159 43.5956 59.124C41.4212 52.4035 35.1961 47.8143 28.0277 47.8143C27.6185 47.8143 27.2137 47.8337 26.8116 47.8627C25.3763 44.4255 24.5597 40.6697 24.5597 36.7176C24.5597 20.6235 37.6539 7.53009 53.7481 7.53009C58.4675 7.53009 63.01 8.63535 67.1134 10.757C55.3295 13.1779 46.4424 23.5899 46.4424 36.0295C46.4424 48.1558 57.1396 58.5872 70.658 60.5144C65.8682 63.9278 60.1615 65.7978 54.196 65.8885Z" fill="white"/>
</svg>
