<svg width="24" height="24" viewBox="0 0 24 24" fill="none" xmlns="http://www.w3.org/2000/svg">
<path fill-rule="evenodd" clip-rule="evenodd" d="M8.42639 3.09169C8.42639 1.38988 9.81627 0 11.5181 0C13.2199 0 14.6098 1.38988 14.6098 3.09169V14.2746C15.9657 15.3091 17.0435 16.7405 17.046 18.4719V18.4819C17.046 21.524 14.5602 24 11.5181 24C8.47598 24 6 21.524 6 18.4819V18.4719C6.00249 16.7407 7.0708 15.3091 8.42639 14.2746V3.09169ZM13.289 3.09169C13.289 2.10122 12.5086 1.32084 11.5181 1.32082C10.5276 1.32082 9.75703 2.10121 9.75703 3.09169V14.6562L9.42436 14.8518C8.12675 15.601 7.323 16.9833 7.32084 18.4816C7.32084 20.8075 9.1923 22.6789 11.5181 22.6789C13.8439 22.6789 15.7154 20.8075 15.7154 18.4816C15.7132 16.9833 14.9193 15.601 13.6216 14.8518L13.289 14.6562V3.09169ZM8.64167 18.5305C8.64167 17.1682 9.58733 16.0267 10.858 15.7267V7.70749C10.858 7.3415 11.1547 7.04479 11.5207 7.04479C11.8867 7.04479 12.1834 7.3415 12.1834 7.70749V15.7258C13.4559 16.0245 14.4034 17.1669 14.4034 18.5305C14.4034 20.1216 13.1136 21.4114 11.5225 21.4114C9.93148 21.4114 8.64167 20.1216 8.64167 18.5305Z" fill="white"/>
</svg>
