<svg width="24" height="24" viewBox="0 0 24 24" fill="none" xmlns="http://www.w3.org/2000/svg">
<path fill-rule="evenodd" clip-rule="evenodd" d="M0 12C0 5.38337 5.38315 0 12 0C18.6169 0 24 5.38337 24 12C24 18.6166 18.6169 24 12 24C5.38315 24 0 18.6166 0 12ZM0.920449 12C0.920449 18.1092 5.89079 23.0795 12 23.0795C18.1092 23.0795 23.0795 18.1092 23.0795 12C23.0795 5.89079 18.1092 0.920449 12 0.920449C5.89079 0.920449 0.920449 5.89079 0.920449 12ZM17.7135 12.9708C17.7135 12.7164 17.9195 12.5106 18.1737 12.5106C18.4279 12.5106 18.6339 12.7164 18.6339 12.9708C18.6339 16.6288 15.658 19.6045 12 19.6045C8.34225 19.6045 5.36629 16.6288 5.36629 12.9708C5.36629 12.7164 5.57236 12.5106 5.82652 12.5106C6.08067 12.5106 6.28674 12.7164 6.28674 12.9708C6.28674 16.1209 8.84966 18.684 12 18.684C15.1503 18.684 17.7135 16.1209 17.7135 12.9708ZM11.5063 6.74292C11.5063 6.48854 11.3002 6.2827 11.0461 6.2827C10.7919 6.2827 10.5858 6.48854 10.5858 6.74292C10.5858 8.4382 9.20629 9.81753 7.51079 9.81753C5.81528 9.81753 4.43596 8.4382 4.43596 6.74292C4.43596 6.48854 4.22989 6.2827 3.97573 6.2827C3.72157 6.2827 3.51551 6.48854 3.51551 6.74292C3.51551 8.94562 5.30787 10.738 7.51079 10.738C9.71393 10.738 11.5063 8.94562 11.5063 6.74292ZM16.4888 9.81753C18.1843 9.81753 19.5638 8.4382 19.5638 6.74292C19.5638 6.48854 19.7699 6.2827 20.024 6.2827C20.2782 6.2827 20.4843 6.48854 20.4843 6.74292C20.4843 8.94562 18.6919 10.738 16.4888 10.738C14.2858 10.738 12.4935 8.94562 12.4935 6.74292C12.4935 6.48854 12.6996 6.2827 12.9537 6.2827C13.2079 6.2827 13.4139 6.48854 13.4139 6.74292C13.4139 8.4382 14.7933 9.81753 16.4888 9.81753Z" fill="white"/>
</svg>
