<svg width="24" height="24" viewBox="0 0 24 24" fill="none" xmlns="http://www.w3.org/2000/svg">
<path fill-rule="evenodd" clip-rule="evenodd" d="M12 24C5.38311 24 0 18.6169 0 12C0 5.38311 5.38311 0 12 0C18.6169 0 24 5.38311 24 12C24 18.6169 18.6169 24 12 24ZM12 0.888889C5.87333 0.888889 0.888889 5.87333 0.888889 12C0.888889 18.1267 5.87333 23.1111 12 23.1111C18.1267 23.1111 23.1111 18.1267 23.1111 12C23.1111 5.87333 18.1267 0.888889 12 0.888889Z" fill="white"/>
<path fill-rule="evenodd" clip-rule="evenodd" d="M5 8C5 9.65412 6.34588 11 8 11C9.65412 11 11 9.65412 11 8C11 6.34588 9.65412 5 8 5C6.34588 5 5 6.34588 5 8ZM5.75 8C5.75 6.7595 6.75912 5.75 8 5.75C9.24088 5.75 10.25 6.7595 10.25 8C10.25 9.2405 9.24088 10.25 8 10.25C6.75912 10.25 5.75 9.2405 5.75 8ZM8.00037 9.12454C8.62174 9.12454 9.12537 8.62092 9.12537 7.99954C9.12537 7.37817 8.62174 6.87454 8.00037 6.87454C7.37899 6.87454 6.87537 7.37817 6.87537 7.99954C6.87537 8.62092 7.37899 9.12454 8.00037 9.12454Z" fill="white"/>
<path fill-rule="evenodd" clip-rule="evenodd" d="M13 8C13 9.65412 14.3459 11 16 11C17.6541 11 19 9.65412 19 8C19 6.34588 17.6541 5 16 5C14.3459 5 13 6.34588 13 8ZM13.75 8C13.75 6.7595 14.7591 5.75 16 5.75C17.2409 5.75 18.25 6.7595 18.25 8C18.25 9.2405 17.2409 10.25 16 10.25C14.7591 10.25 13.75 9.2405 13.75 8ZM16.0004 9.12454C16.6217 9.12454 17.1254 8.62092 17.1254 7.99954C17.1254 7.37817 16.6217 6.87454 16.0004 6.87454C15.379 6.87454 14.8754 7.37817 14.8754 7.99954C14.8754 8.62092 15.379 9.12454 16.0004 9.12454Z" fill="white"/>
<path fill-rule="evenodd" clip-rule="evenodd" d="M16.2603 19.6077C17.915 18.4006 19 16.5266 19 14.4666V14H5V14.4666C5 16.5263 6.0847 18.4001 7.73905 19.6072L7.72754 19.6311L8.07104 19.8518C9.23854 20.6025 10.597 20.9995 11.9995 20.9995C13.402 20.9995 14.76 20.6025 15.928 19.8518L16.2715 19.6311L16.2603 19.6077ZM15.8024 18.7597C17.0126 17.8186 17.8365 16.451 17.978 14.9332H6.0215C6.16324 16.4507 6.98704 17.8182 8.19702 18.7593C9.01384 17.5534 10.4468 16.8004 11.9995 16.8004C13.5524 16.8004 14.9856 17.5535 15.8024 18.7597ZM14.9835 19.298C14.3531 18.3362 13.2241 17.7335 11.9995 17.7335C10.7752 17.7335 9.64638 18.336 9.01543 19.2975C9.38494 19.5006 9.77831 19.668 10.1896 19.7941C11.3731 20.1442 12.6626 20.1408 13.8438 19.7838C14.2426 19.659 14.6243 19.4954 14.9835 19.298Z" fill="white"/>
</svg>
