<svg width="24" height="24" viewBox="0 0 24 24" fill="none" xmlns="http://www.w3.org/2000/svg">
<path d="M12 0C5.38337 0 0 5.38337 0 12C0 18.6166 5.38337 24 12 24C18.6166 24 24 18.6166 24 12C24 5.38337 18.6166 0 12 0ZM12 23.0795C5.89079 23.0795 0.920449 18.1092 0.920449 12C0.920449 5.89079 5.89079 0.920449 12 0.920449C18.1092 0.920449 23.0795 5.89079 23.0795 12C23.0795 18.1092 18.1092 23.0795 12 23.0795Z" fill="white"/>
<path fill-rule="evenodd" clip-rule="evenodd" d="M12 19.9986C8.2055 19.9986 5 17.0074 5 13.4666V13H19V13.4666C19 17.0074 15.7945 19.9986 12 19.9986ZM6.0215 13.9332C6.2855 16.7597 8.9155 19.0655 12 19.0655C15.0845 19.0655 17.7145 16.7597 17.978 13.9332H6.0215Z" fill="white"/>
<path d="M16 7C16.6628 7.00079 17.2982 7.26444 17.7669 7.73311C18.2356 8.20178 18.4992 8.8372 18.5 9.5L17.5 9.5C17.5 9.10218 17.342 8.72064 17.0607 8.43934C16.7794 8.15804 16.3978 8 16 8C15.6022 8 15.2206 8.15803 14.9393 8.43934C14.658 8.72064 14.5 9.10217 14.5 9.5L13.5 9.5C13.5008 8.8372 13.7644 8.20178 14.2331 7.73311C14.7018 7.26444 15.3372 7.00079 16 7Z" fill="white"/>
<path d="M8 7C8.6628 7.00079 9.29822 7.26444 9.76689 7.73311C10.2356 8.20178 10.4992 8.8372 10.5 9.5L9.5 9.5C9.5 9.10218 9.34197 8.72064 9.06066 8.43934C8.77936 8.15804 8.39783 8 8 8C7.60218 8 7.22065 8.15803 6.93934 8.43934C6.65804 8.72064 6.5 9.10217 6.5 9.5L5.5 9.5C5.50079 8.8372 5.76444 8.20178 6.23311 7.73311C6.70178 7.26444 7.3372 7.00079 8 7Z" fill="white"/>
</svg>
