<svg width="88" height="88" viewBox="0 0 88 88" fill="none" xmlns="http://www.w3.org/2000/svg">
<path d="M44 0C19.739 0 0 19.739 0 44C0 68.261 19.739 88 44 88C68.261 88 88 68.261 88 44C88 19.739 68.261 0 44 0ZM44 84.625C21.5995 84.625 3.37498 66.4004 3.37498 44C3.37498 21.5995 21.5995 3.37498 44 3.37498C66.4004 3.37498 84.625 21.5995 84.625 44C84.625 66.4004 66.4004 84.625 44 84.625Z" fill="white"/>
<path d="M36.6087 32.3292L41.2234 27.3745C41.5877 26.9859 41.3691 26.3544 40.8591 26.2572L34.2042 24.97C34.0099 24.9214 33.8399 24.8 33.7427 24.6299L30.4639 18.6794C30.1967 18.218 29.541 18.218 29.2981 18.6794L25.9949 24.6057C25.8978 24.7757 25.7278 24.8971 25.5335 24.9457L18.8786 26.2329C18.3686 26.3301 18.15 26.9616 18.5143 27.3502L23.129 32.3049C23.2747 32.4506 23.3233 32.6449 23.299 32.8392L22.4732 39.567C22.4003 40.1013 22.9347 40.4899 23.4204 40.2713L29.5652 37.4053C29.7353 37.3325 29.9538 37.3325 30.1239 37.4053L36.3173 40.2713C36.803 40.4899 37.3373 40.1013 37.2645 39.567L36.4387 32.8635C36.4144 32.6692 36.4873 32.4749 36.6087 32.3292Z" stroke="white" stroke-width="2.4"/>
<path d="M65.942 32.3292L70.5566 27.3745C70.921 26.9859 70.7024 26.3544 70.1923 26.2572L63.5375 24.97C63.3432 24.9214 63.1731 24.8 63.076 24.6299L59.7971 18.6794C59.53 18.218 58.8742 18.218 58.6313 18.6794L55.3282 24.6057C55.231 24.7757 55.061 24.8971 54.8667 24.9457L48.2119 26.2329C47.7018 26.3301 47.4832 26.9616 47.8475 27.3502L52.4622 32.3049C52.6079 32.4506 52.6565 32.6449 52.6322 32.8392L51.8065 39.567C51.7336 40.1013 52.2679 40.4899 52.7537 40.2713L58.8985 37.4053C59.0685 37.3325 59.2871 37.3325 59.4571 37.4053L65.6505 40.2713C66.1363 40.4899 66.6706 40.1013 66.5977 39.567L65.7719 32.8635C65.7477 32.6692 65.8205 32.4749 65.942 32.3292Z" stroke="white" stroke-width="2.4"/>
<mask id="path-4-inside-1" fill="white">
<path fill-rule="evenodd" clip-rule="evenodd" d="M59.6167 71.8982C65.6865 67.4721 69.6667 60.5993 69.6667 53.0441V51.3333H18.3334V53.0441C18.3334 60.5961 22.3102 67.4662 28.3756 71.8925L28.3308 71.9852L29.5903 72.7944C33.8711 75.5471 38.8523 77.0029 43.9948 77.0029C49.1373 77.0029 54.1166 75.5471 58.3993 72.7944L59.6588 71.9852L59.6167 71.8982ZM57.9376 68.7891C62.3776 65.3383 65.4004 60.322 65.9194 54.7549H22.0789C22.5986 60.3192 25.619 65.3332 30.0555 68.7838C33.051 64.3649 38.3036 61.606 43.9948 61.606C49.6882 61.606 54.9427 64.3671 57.9376 68.7891ZM54.9348 70.7621C52.6231 67.2367 48.484 65.0275 43.9948 65.0275C39.5076 65.0275 35.3703 67.2346 33.0562 70.7572C34.5695 71.5893 36.1919 72.2577 37.8933 72.7341C41.9686 73.8325 46.3544 73.8032 50.4126 72.6462C51.9994 72.1778 53.5151 71.542 54.9348 70.7621Z"/>
</mask>
<path fill-rule="evenodd" clip-rule="evenodd" d="M59.6167 71.8982C65.6865 67.4721 69.6667 60.5993 69.6667 53.0441V51.3333H18.3334V53.0441C18.3334 60.5961 22.3102 67.4662 28.3756 71.8925L28.3308 71.9852L29.5903 72.7944C33.8711 75.5471 38.8523 77.0029 43.9948 77.0029C49.1373 77.0029 54.1166 75.5471 58.3993 72.7944L59.6588 71.9852L59.6167 71.8982ZM57.9376 68.7891C62.3776 65.3383 65.4004 60.322 65.9194 54.7549H22.0789C22.5986 60.3192 25.619 65.3332 30.0555 68.7838C33.051 64.3649 38.3036 61.606 43.9948 61.606C49.6882 61.606 54.9427 64.3671 57.9376 68.7891ZM54.9348 70.7621C52.6231 67.2367 48.484 65.0275 43.9948 65.0275C39.5076 65.0275 35.3703 67.2346 33.0562 70.7572C34.5695 71.5893 36.1919 72.2577 37.8933 72.7341C41.9686 73.8325 46.3544 73.8032 50.4126 72.6462C51.9994 72.1778 53.5151 71.542 54.9348 70.7621Z" fill="white"/>
<path d="M59.6167 71.8982L59.381 71.575L59.1114 71.7716L59.2565 72.0721L59.6167 71.8982ZM69.6667 51.3333H70.0667V50.9333H69.6667V51.3333ZM18.3334 51.3333V50.9333H17.9334V51.3333H18.3334ZM28.3756 71.8925L28.7358 72.0664L28.8809 71.766L28.6114 71.5694L28.3756 71.8925ZM28.3308 71.9852L27.9706 71.8113L27.8165 72.1303L28.1146 72.3218L28.3308 71.9852ZM29.5903 72.7944L29.8066 72.458L29.8065 72.4579L29.5903 72.7944ZM58.3993 72.7944L58.1831 72.4579L58.183 72.458L58.3993 72.7944ZM59.6588 71.9852L59.875 72.3218L60.173 72.1303L60.019 71.8113L59.6588 71.9852ZM57.9376 68.7891L57.6064 69.0134L57.8459 69.367L58.1831 69.1049L57.9376 68.7891ZM65.9194 54.7549L66.3177 54.792L66.3584 54.3549H65.9194V54.7549ZM22.0789 54.7549V54.3549H21.6398L21.6806 54.7921L22.0789 54.7549ZM30.0555 68.7838L29.8099 69.0996L30.147 69.3617L30.3866 69.0083L30.0555 68.7838ZM54.9348 70.7621L55.1274 71.1127L55.5065 70.9045L55.2693 70.5428L54.9348 70.7621ZM33.0562 70.7572L32.7219 70.5376L32.4843 70.8992L32.8635 71.1077L33.0562 70.7572ZM37.8933 72.7341L37.7854 73.1193L37.7892 73.1204L37.8933 72.7341ZM50.4126 72.6462L50.5223 73.0309L50.5259 73.0298L50.4126 72.6462ZM69.2667 53.0441C69.2667 60.4547 65.3619 67.2137 59.381 71.575L59.8524 72.2214C66.0111 67.7305 70.0667 60.7439 70.0667 53.0441H69.2667ZM69.2667 51.3333V53.0441H70.0667V51.3333H69.2667ZM18.3334 51.7333H69.6667V50.9333H18.3334V51.7333ZM18.7334 53.0441V51.3333H17.9334V53.0441H18.7334ZM28.6114 71.5694C22.6348 67.2079 18.7334 60.4516 18.7334 53.0441H17.9334C17.9334 60.7406 21.9855 67.7245 28.1398 72.2156L28.6114 71.5694ZM28.691 72.1592L28.7358 72.0664L28.0154 71.7185L27.9706 71.8113L28.691 72.1592ZM29.8065 72.4579L28.547 71.6487L28.1146 72.3218L29.3741 73.131L29.8065 72.4579ZM43.9948 76.6029C38.9282 76.6029 34.0222 75.1687 29.8066 72.458L29.3739 73.1309C33.72 75.9255 38.7764 77.4029 43.9948 77.4029V76.6029ZM58.183 72.458C53.9655 75.1687 49.0613 76.6029 43.9948 76.6029V77.4029C49.2132 77.4029 54.2677 75.9254 58.6155 73.1309L58.183 72.458ZM59.4426 71.6487L58.1831 72.4579L58.6155 73.131L59.875 72.3218L59.4426 71.6487ZM59.2565 72.0721L59.2986 72.1592L60.019 71.8113L59.9769 71.7242L59.2565 72.0721ZM58.1831 69.1049C62.6998 65.5945 65.7872 60.4818 66.3177 54.792L65.5211 54.7178C65.0135 60.1623 62.0554 65.0821 57.6922 68.4733L58.1831 69.1049ZM65.9194 54.3549H22.0789V55.1549H65.9194V54.3549ZM21.6806 54.7921C22.2118 60.4789 25.2968 65.5893 29.8099 69.0996L30.3011 68.4681C25.9413 65.0771 22.9854 60.1595 22.4771 54.7177L21.6806 54.7921ZM30.3866 69.0083C33.3044 64.704 38.4303 62.006 43.9948 62.006V61.206C38.1769 61.206 32.7977 64.0258 29.7244 68.5594L30.3866 69.0083ZM43.9948 62.006C49.5615 62.006 54.6892 64.7061 57.6064 69.0134L58.2688 68.5648C55.1962 64.0281 49.8149 61.206 43.9948 61.206V62.006ZM55.2693 70.5428C52.8803 66.8994 48.6125 64.6275 43.9948 64.6275V65.4275C48.3556 65.4275 52.366 67.574 54.6003 70.9815L55.2693 70.5428ZM43.9948 64.6275C39.3791 64.6275 35.1133 66.8973 32.7219 70.5376L33.3905 70.9768C35.6273 67.572 39.6361 65.4275 43.9948 65.4275V64.6275ZM32.8635 71.1077C34.4032 71.9543 36.0541 72.6345 37.7854 73.1193L38.0011 72.349C36.3297 71.8809 34.7357 71.2242 33.2489 70.4067L32.8635 71.1077ZM37.7892 73.1204C41.9345 74.2376 46.3941 74.2078 50.5223 73.0309L50.303 72.2615C46.3147 73.3986 42.0028 73.4274 37.9973 72.3479L37.7892 73.1204ZM50.5259 73.0298C52.1405 72.5531 53.6828 71.9062 55.1274 71.1127L54.7422 70.4116C53.3474 71.1777 51.8582 71.8024 50.2994 72.2626L50.5259 73.0298Z" fill="#125936" mask="url(#path-4-inside-1)"/>
</svg>
