<svg width="88" height="88" viewBox="0 0 88 88" fill="none" xmlns="http://www.w3.org/2000/svg">
<path d="M82.6244 44C82.6244 22.727 65.273 5.37556 44 5.37556C22.727 5.37556 5.37556 22.727 5.37556 44C5.37556 65.2733 22.7273 82.5267 44 82.5267C65.2727 82.5267 82.6244 65.2733 82.6244 44ZM0.1 44C0.1 19.7086 19.7086 0.1 44 0.1C68.1938 0.1 87.9 19.7087 87.9 44C87.9 68.2914 68.2914 87.9 44 87.9C19.7086 87.9 0.1 68.2914 0.1 44Z" fill="white" stroke="#091E09" stroke-width="0.2"/>
<path d="M37.937 34.1238C37.937 37.7407 35.005 40.6727 31.3881 40.6727C27.7713 40.6727 24.8393 37.7407 24.8393 34.1238C24.8393 30.507 27.7713 27.5749 31.3881 27.5749C35.005 27.5749 37.937 30.507 37.937 34.1238Z" fill="white" stroke="#091E09" stroke-width="0.2"/>
<path d="M63.6504 34.1238C63.6504 37.7407 60.7184 40.6727 57.1015 40.6727C53.4847 40.6727 50.5526 37.7407 50.5526 34.1238C50.5526 30.507 53.4847 27.5749 57.1015 27.5749C60.7184 27.5749 63.6504 30.507 63.6504 34.1238Z" fill="white" stroke="#091E09" stroke-width="0.2"/>
<path d="M20.2596 51.4741L20.2596 51.4741L20.2602 51.4752C25.2144 60.4662 34.1179 66.6194 44.6786 66.6194C55.2366 66.6194 64.8759 60.3767 69.2827 51.0122C69.7077 50.1177 70.2944 49.6257 70.9005 49.4328C71.5077 49.2394 72.1471 49.342 72.6857 49.6608C73.7611 50.2972 74.4303 51.7951 73.5848 53.486C68.2043 64.2471 57.0788 71.5416 44.6786 71.5416C32.3692 71.5416 21.609 64.6123 16.0458 54.0331C15.0116 52.0544 15.5859 50.4725 16.6257 49.8551C17.1484 49.5448 17.7971 49.4702 18.4436 49.7099C19.0905 49.9498 19.7425 50.5074 20.2596 51.4741Z" fill="white" stroke="#091E09" stroke-width="0.2"/>
</svg>
