<svg width="24" height="24" viewBox="0 0 24 24" fill="none" xmlns="http://www.w3.org/2000/svg">
<path fill-rule="evenodd" clip-rule="evenodd" d="M12 24C5.38311 24 0 18.6169 0 12C0 5.38311 5.38311 0 12 0C18.6169 0 24 5.38311 24 12C24 18.6169 18.6169 24 12 24ZM12 0.888889C5.87333 0.888889 0.888889 5.87333 0.888889 12C0.888889 18.1267 5.87333 23.1111 12 23.1111C18.1267 23.1111 23.1111 18.1267 23.1111 12C23.1111 5.87333 18.1267 0.888889 12 0.888889Z" fill="white"/>
<path d="M18.9457 14.5732C18.7926 14.509 18.6171 14.5815 18.5532 14.7345C17.4454 17.3864 14.873 19.1 11.9997 19.1C9.12638 19.1 6.55397 17.3864 5.4461 14.7345C5.38224 14.5815 5.20587 14.5098 5.05367 14.5732C4.90074 14.637 4.82853 14.8128 4.89239 14.9656C6.09386 17.8417 8.88365 19.7 11.9997 19.7C15.1157 19.7 17.9055 17.8417 19.1069 14.9656C19.1708 14.8128 19.0986 14.637 18.9457 14.5732Z" fill="white" stroke="white" stroke-width="0.5"/>
<path d="M5.23079 8.6334L5.23079 8.6334L5.23047 8.63225C5.12303 8.24544 5.33641 7.86361 5.72077 7.75684C6.10758 7.64939 6.48941 7.86278 6.59618 8.24714L6.59614 8.24715L6.59721 8.25067C6.79605 8.90401 7.39406 9.39122 8.11106 9.39122C8.79589 9.39122 9.42709 8.93526 9.60057 8.24541C9.708 7.86214 10.0893 7.64956 10.4755 7.75684C10.8596 7.86355 11.073 8.245 10.966 8.63157C10.5961 9.91274 9.43884 10.7977 8.11106 10.7977C6.75443 10.7977 5.57452 9.91012 5.23079 8.6334ZM13.3236 8.6334L13.3233 8.63225C13.2159 8.24544 13.4292 7.86361 13.8136 7.75684C14.2004 7.64939 14.5822 7.86278 14.689 8.24714L14.689 8.24715L14.69 8.25067C14.8884 8.90239 15.4853 9.39122 16.178 9.39122C16.8647 9.39122 17.4926 8.93404 17.6924 8.249L17.6929 8.24714C17.7995 7.86355 18.18 7.65025 18.566 7.75619C18.8957 7.86066 19.1172 8.24116 19.0318 8.63544C18.6607 9.91452 17.5045 10.7977 16.178 10.7977C14.848 10.7977 13.6675 9.91083 13.3236 8.6334Z" fill="white" stroke="#091E09" stroke-width="0.3"/>
</svg>
