<svg width="24" height="24" viewBox="0 0 24 24" fill="none" xmlns="http://www.w3.org/2000/svg">
<path d="M12 0C5.38337 0 0 5.38337 0 12C0 18.6166 5.38337 24 12 24C18.6166 24 24 18.6166 24 12C24 5.38337 18.6166 0 12 0ZM12 23.0795C5.89079 23.0795 0.920449 18.1092 0.920449 12C0.920449 5.89079 5.89079 0.920449 12 0.920449C18.1092 0.920449 23.0795 5.89079 23.0795 12C23.0795 18.1092 18.1092 23.0795 12 23.0795Z" fill="white"/>
<path d="M7.99979 12C9.65413 12 11 10.6541 11 9.00021C11 8.53511 10.8905 8.09616 10.7008 7.70287C10.6982 7.69671 10.699 7.6901 10.6961 7.68401C10.6931 7.67753 10.6871 7.67377 10.6838 7.66753C10.1919 6.68093 9.1751 6 7.99979 6C6.34587 6 5 7.34587 5 9.00021C5 9.44684 5.10084 9.86946 5.2767 10.2507C5.27769 10.2529 5.27732 10.2553 5.27837 10.2575C5.27989 10.2607 5.28247 10.2629 5.28404 10.266C5.76264 11.2883 6.79851 12 7.99979 12ZM10.144 9.00021C10.144 10.1822 9.18224 11.144 7.99979 11.144C7.28942 11.144 6.6633 10.7927 6.27299 10.2589L10.0657 8.45713C10.1117 8.63164 10.144 8.81144 10.144 9.00021ZM5.85601 9.00021C5.85601 7.81776 6.81776 6.85601 7.99979 6.85601C8.68678 6.85601 9.2924 7.18642 9.68506 7.69036L5.9151 9.48137C5.87921 9.3261 5.85601 9.16622 5.85601 9.00021Z" fill="white"/>
<path d="M16 6C14.8255 6 13.8092 6.6802 13.3169 7.66599C13.3133 7.67278 13.3068 7.67693 13.3035 7.68401C13.3003 7.69067 13.3011 7.69786 13.2983 7.7046C13.1092 8.09744 13 8.53579 13 9.00021C13 10.6541 14.346 12 16 12C17.2014 12 18.2373 11.2884 18.7159 10.266C18.7175 10.2629 18.7201 10.2607 18.7216 10.2575C18.7227 10.2553 18.7223 10.2529 18.7233 10.2507C18.8992 9.86946 19 9.44684 19 9.00021C19 7.34587 17.654 6 16 6ZM16 11.144C14.8179 11.144 13.8561 10.1822 13.8561 9.00021C13.8561 8.81152 13.8883 8.63174 13.9343 8.45729L17.7269 10.2589C17.3366 10.7927 16.7104 11.144 16 11.144ZM18.0848 9.48137L14.3149 7.69049C14.7075 7.18647 15.3131 6.85601 16 6.85601C17.1821 6.85601 18.1439 7.81776 18.1439 9.00021C18.1439 9.16622 18.1207 9.32612 18.0848 9.48137Z" fill="white"/>
<path d="M7.23743 16.6394L7.23744 16.6394L7.23671 16.638C7.06809 16.3007 7.21549 15.8725 7.55746 15.7016C7.89438 15.5331 8.32206 15.6801 8.49338 16.0213C9.16558 17.4184 10.5631 18.2771 12.1185 18.2771C13.6492 18.2771 15.0717 17.3917 15.7435 16.0218C15.9147 15.6802 16.3426 15.533 16.6796 15.7016C17.0183 15.8709 17.1715 16.2984 16.9994 16.6658C16.0938 18.5008 14.1817 19.6836 12.1185 19.6836C10.0552 19.6836 8.14288 18.5006 7.23743 16.6394Z" fill="white" stroke="#125936" stroke-width="0.3"/>
</svg>
