<svg width="88" height="88" viewBox="0 0 88 88" fill="none" xmlns="http://www.w3.org/2000/svg">
<mask id="path-1-inside-1" fill="white">
<path fill-rule="evenodd" clip-rule="evenodd" d="M44 4.63158C22.2885 4.63158 4.63158 22.2885 4.63158 44C4.63158 65.7115 22.2885 83.3684 44 83.3684C65.7115 83.3684 83.3684 65.7115 83.3684 44C83.3684 22.2885 65.7115 4.63158 44 4.63158ZM0 44C0 19.7305 19.7305 0 44 0C68.2695 0 88 19.7305 88 44C88 68.2695 68.2695 88 44 88C19.7305 88 0 68.2695 0 44Z"/>
</mask>
<path fill-rule="evenodd" clip-rule="evenodd" d="M44 4.63158C22.2885 4.63158 4.63158 22.2885 4.63158 44C4.63158 65.7115 22.2885 83.3684 44 83.3684C65.7115 83.3684 83.3684 65.7115 83.3684 44C83.3684 22.2885 65.7115 4.63158 44 4.63158ZM0 44C0 19.7305 19.7305 0 44 0C68.2695 0 88 19.7305 88 44C88 68.2695 68.2695 88 44 88C19.7305 88 0 68.2695 0 44Z" fill="white"/>
<path d="M5.43158 44C5.43158 22.7303 22.7303 5.43158 44 5.43158V3.83158C21.8466 3.83158 3.83158 21.8466 3.83158 44H5.43158ZM44 82.5684C22.7303 82.5684 5.43158 65.2697 5.43158 44H3.83158C3.83158 66.1534 21.8466 84.1684 44 84.1684V82.5684ZM82.5684 44C82.5684 65.2697 65.2697 82.5684 44 82.5684V84.1684C66.1534 84.1684 84.1684 66.1534 84.1684 44H82.5684ZM44 5.43158C65.2697 5.43158 82.5684 22.7303 82.5684 44H84.1684C84.1684 21.8466 66.1534 3.83158 44 3.83158V5.43158ZM44 -0.8C19.2887 -0.8 -0.8 19.2887 -0.8 44H0.8C0.8 20.1724 20.1724 0.8 44 0.8V-0.8ZM88.8 44C88.8 19.2887 68.7113 -0.8 44 -0.8V0.8C67.8276 0.8 87.2 20.1724 87.2 44H88.8ZM44 88.8C68.7113 88.8 88.8 68.7113 88.8 44H87.2C87.2 67.8276 67.8276 87.2 44 87.2V88.8ZM-0.8 44C-0.8 68.7113 19.2887 88.8 44 88.8V87.2C20.1724 87.2 0.8 67.8276 0.8 44H-0.8Z" fill="#125936" mask="url(#path-1-inside-1)"/>
<path d="M19.3243 31.6168L19.3243 31.6168L19.3228 31.6114C18.9507 30.2717 19.6879 28.9552 21.0162 28.5863C22.3559 28.2141 23.6724 28.9514 24.0414 30.2797L24.0437 30.2879L24.0462 30.2961C24.7931 32.7504 27.0409 34.5845 29.7405 34.5845C32.3158 34.5845 34.6925 32.8704 35.347 30.2717C35.719 28.9484 37.0329 28.2149 38.3699 28.5863C39.6971 28.9549 40.4342 30.2696 40.0642 31.6081C38.7258 36.2425 34.5406 39.4415 29.7405 39.4415C24.8316 39.4415 20.5664 36.2303 19.3243 31.6168ZM26.6726 57.2793L26.6726 57.2793L26.6692 57.2725C26.0892 56.1124 26.5961 54.6313 27.7782 54.0402C28.9368 53.4609 30.4156 53.9658 31.0082 55.1447C33.4988 60.32 38.6761 63.4997 44.4351 63.4997C50.1042 63.4997 55.3723 60.2211 57.861 55.1469C58.4528 53.9664 59.9327 53.4606 61.092 54.0402C62.2588 54.6236 62.7929 56.1017 62.1963 57.3768C58.9012 64.0527 51.9429 68.3568 44.4351 68.3568C36.9264 68.3568 29.9672 64.0515 26.6726 57.2793ZM48.998 31.6168L48.998 31.6168L48.9966 31.6114C48.6244 30.2717 49.3616 28.9552 50.6899 28.5863C52.0296 28.2141 53.3461 28.9514 53.7151 30.2797L53.7174 30.2879L53.7199 30.2961C54.4645 32.7428 56.7071 34.5845 59.3194 34.5845C61.9033 34.5845 64.2646 32.8647 65.016 30.2883L65.0161 30.2883L65.0185 30.2797C65.3864 28.955 66.6968 28.2182 68.0327 28.5833C69.1581 28.9416 69.9327 30.2521 69.6378 31.6265C68.2937 36.251 64.1132 39.4415 59.3194 39.4415C54.5088 39.4415 50.241 36.2336 48.998 31.6168Z" fill="white" stroke="#125936" stroke-width="1.4"/>
</svg>
