<svg width="88" height="88" viewBox="0 0 88 88" fill="none" xmlns="http://www.w3.org/2000/svg">
<path fill-rule="evenodd" clip-rule="evenodd" d="M44 4.63158C22.2885 4.63158 4.63158 22.2885 4.63158 44C4.63158 65.7115 22.2885 83.3684 44 83.3684C65.7115 83.3684 83.3684 65.7115 83.3684 44C83.3684 22.2885 65.7115 4.63158 44 4.63158ZM0 44C0 19.7305 19.7305 0 44 0C68.2695 0 88 19.7305 88 44C88 68.2695 68.2695 88 44 88C19.7305 88 0 68.2695 0 44Z" fill="white"/>
<path d="M18.6484 31.7988C18.1744 30.0923 19.1224 28.3858 20.8289 27.9118C22.5354 27.4378 24.2418 28.3858 24.7159 30.0923C25.3795 32.2728 27.3704 33.8845 29.7405 33.8845C32.0158 33.8845 34.1015 32.3676 34.6703 30.0923C35.1443 28.3858 36.8508 27.4378 38.5573 27.9118C40.2637 28.3858 41.2118 30.0923 40.7378 31.7988C39.3157 36.7286 34.8599 40.1415 29.7405 40.1415C24.5262 40.1415 19.9756 36.7286 18.6484 31.7988ZM62.8271 57.6803C59.4142 64.601 52.2091 69.0568 44.4351 69.0568C36.6612 69.0568 29.4561 64.601 26.0431 57.5855C25.2847 56.0687 25.9483 54.1726 27.4652 53.4141C28.982 52.6557 30.8781 53.3193 31.6366 54.8362C34.0067 59.766 38.9365 62.7997 44.4351 62.7997C49.839 62.7997 54.8636 59.6712 57.2337 54.8362C57.9921 53.3193 59.8882 52.6557 61.4051 53.4141C62.9219 54.1726 63.5856 56.0687 62.8271 57.6803ZM70.3167 31.7988C68.8946 36.7286 64.4388 40.1415 59.3194 40.1415C54.2 40.1415 49.6494 36.7286 48.3221 31.7988C47.8481 30.0923 48.7961 28.3858 50.5026 27.9118C52.2091 27.4378 53.9155 28.3858 54.3896 30.0923C55.0532 32.2728 57.0441 33.8845 59.3194 33.8845C61.5947 33.8845 63.6804 32.3676 64.344 30.0923C64.818 28.3858 66.5245 27.4378 68.231 27.9118C69.7478 28.3858 70.6959 30.0923 70.3167 31.7988Z" fill="white"/>
</svg>
