<svg width="88" height="88" viewBox="0 0 88 88" fill="none" xmlns="http://www.w3.org/2000/svg">
<path d="M44 88C35.2976 88 26.7907 85.4194 19.5549 80.5846C12.3192 75.7499 6.67957 68.878 3.34932 60.8381C0.0190646 52.7981 -0.852282 43.9512 0.845467 35.416C2.54322 26.8809 6.73381 19.0408 12.8873 12.8873C19.0408 6.73379 26.8809 2.5432 35.416 0.845452C43.9512 -0.852297 52.7981 0.0190493 60.8381 3.3493C68.878 6.67956 75.7499 12.3191 80.5847 19.5549C85.4194 26.7907 88 35.2976 88 44C87.9864 55.6653 83.3464 66.849 75.0977 75.0977C66.849 83.3463 55.6654 87.9864 44 88ZM44 3.66667C36.0228 3.66667 28.2248 6.03218 21.592 10.4641C14.9592 14.8959 9.78961 21.1951 6.73688 28.5651C3.68414 35.935 2.88541 44.0447 4.44168 51.8686C5.99795 59.6925 9.83933 66.8792 15.48 72.52C21.1208 78.1607 28.3075 82.0021 36.1314 83.5583C43.9553 85.1146 52.065 84.3159 59.4349 81.2631C66.8049 78.2104 73.1041 73.0408 77.5359 66.408C81.9678 59.7752 84.3333 51.9772 84.3333 44C84.3212 33.3067 80.0679 23.0548 72.5066 15.4934C64.9452 7.93209 54.6933 3.6788 44 3.66667V3.66667Z" fill="white"/>
<path d="M25.6667 42.1667C23.2364 42.1637 20.9065 41.197 19.1881 39.4786C17.4696 37.7601 16.5029 35.4303 16.5 33H20.1667C20.1667 34.4587 20.7461 35.8576 21.7776 36.8891C22.809 37.9205 24.208 38.5 25.6667 38.5C27.1254 38.5 28.5243 37.9205 29.5558 36.8891C30.5872 35.8576 31.1667 34.4587 31.1667 33H34.8333C34.8304 35.4303 33.8637 37.7601 32.1453 39.4786C30.4268 41.197 28.0969 42.1637 25.6667 42.1667V42.1667Z" fill="white"/>
<path d="M62.3334 42.1667C59.9031 42.1637 57.5732 41.197 55.8548 39.4786C54.1363 37.7601 53.1696 35.4303 53.1667 33H56.8334C56.8334 34.4587 57.4128 35.8576 58.4443 36.8891C59.4757 37.9205 60.8747 38.5 62.3334 38.5C63.792 38.5 65.191 37.9205 66.2224 36.8891C67.2539 35.8576 67.8333 34.4587 67.8333 33H71.5C71.4971 35.4303 70.5304 37.7601 68.8119 39.4786C67.0935 41.197 64.7636 42.1637 62.3334 42.1667V42.1667Z" fill="white"/>
<path d="M44 67.8333C38.9455 67.8333 34.8333 62.8998 34.8333 56.8333C34.8333 50.7668 38.9455 45.8333 44 45.8333C49.0545 45.8333 53.1666 50.7668 53.1666 56.8333C53.1666 62.8998 49.0545 67.8333 44 67.8333ZM44 49.5C40.9676 49.5 38.5 52.789 38.5 56.8333C38.5 60.8777 40.9676 64.1667 44 64.1667C47.0323 64.1667 49.5 60.8777 49.5 56.8333C49.5 52.789 47.0323 49.5 44 49.5Z" fill="white"/>
<path d="M86.1663 14.6667H75.1663C74.8037 14.6666 74.4493 14.559 74.1479 14.3576C73.8465 14.1561 73.6116 13.8698 73.4728 13.5349C73.3341 13.1999 73.2978 12.8314 73.3685 12.4758C73.4392 12.1202 73.6138 11.7936 73.8701 11.5372L81.7406 3.66667H75.1663V0H86.1663C86.5288 7.74112e-05 86.8832 0.107642 87.1846 0.309097C87.486 0.510551 87.7209 0.79685 87.8597 1.1318C87.9984 1.46675 88.0347 1.83531 87.964 2.19089C87.8933 2.54647 87.7187 2.8731 87.4624 3.1295L79.5919 11H86.1663V14.6667Z" fill="white"/>
<path d="M65.9996 27.5H54.9996C54.6371 27.4999 54.2827 27.3924 53.9813 27.1909C53.6799 26.9894 53.4449 26.7031 53.3062 26.3682C53.1675 26.0332 53.1312 25.6647 53.2019 25.3091C53.2726 24.9535 53.4471 24.6269 53.7035 24.3705L61.574 16.5H54.9996V12.8333H65.9996C66.3622 12.8334 66.7165 12.941 67.018 13.1424C67.3194 13.3439 67.5543 13.6302 67.693 13.9651C67.8318 14.3001 67.8681 14.6686 67.7974 15.0242C67.7267 15.3798 67.5521 15.7064 67.2958 15.9628L59.4253 23.8333H65.9996V27.5Z" fill="white"/>
<path d="M47.6663 20.1667H40.3329C39.9704 20.1666 39.616 20.059 39.3146 19.8576C39.0132 19.6561 38.7783 19.3698 38.6395 19.0349C38.5008 18.6999 38.4645 18.3314 38.5352 17.9758C38.6059 17.6202 38.7805 17.2936 39.0368 17.0372L43.2406 12.8333H40.3329V9.16667H47.6663C48.0288 9.16675 48.3832 9.27431 48.6846 9.47577C48.986 9.67722 49.221 9.96352 49.3597 10.2985C49.4984 10.6334 49.5347 11.002 49.464 11.3576C49.3933 11.7131 49.2188 12.0398 48.9624 12.2962L44.7586 16.5H47.6663V20.1667Z" fill="white"/>
</svg>
