<svg width="88" height="88" viewBox="0 0 88 88" fill="none" xmlns="http://www.w3.org/2000/svg">
<path d="M44 88C19.7377 88 0 68.2623 0 44C0 19.7377 19.7377 0 44 0C68.2623 0 88 19.7377 88 44C88 68.2623 68.2623 88 44 88ZM44 3.66667C21.7617 3.66667 3.66667 21.7617 3.66667 44C3.66667 66.2347 21.7617 84.3333 44 84.3333C66.2347 84.3333 84.3333 66.2347 84.3333 44C84.3333 21.7617 66.2347 3.66667 44 3.66667Z" fill="white"/>
<path d="M71.2984 44C70.1735 44 69.2633 44.8512 69.2633 45.903C69.2633 58.9287 57.9294 69.5273 44.0001 69.5273C30.0707 69.5273 18.7368 58.9287 18.7368 45.903C18.7368 44.8512 17.8266 44 16.7018 44C15.577 44 14.6667 44.8512 14.6667 45.903C14.6667 61.0287 27.825 73.3333 44.0001 73.3333C60.1751 73.3333 73.3334 61.0287 73.3334 45.903C73.3334 44.8512 72.4232 44 71.2984 44Z" fill="white"/>
<path d="M38.3334 29.3333C38.3334 33.1403 37.5576 36.4879 36.3967 38.8098C35.1759 41.2513 33.8595 42 33.0001 42C32.1407 42 30.8243 41.2513 29.6035 38.8098C28.4425 36.4879 27.6667 33.1403 27.6667 29.3333C27.6667 25.5264 28.4425 22.1788 29.6035 19.8569C30.8243 17.4153 32.1407 16.6667 33.0001 16.6667C33.8595 16.6667 35.1759 17.4153 36.3967 19.8569C37.5576 22.1788 38.3334 25.5264 38.3334 29.3333Z" stroke="white" stroke-width="4"/>
<path d="M60.3334 29.3333C60.3334 33.1403 59.5576 36.4879 58.3967 38.8098C57.1759 41.2513 55.8595 42 55.0001 42C54.1407 42 52.8243 41.2513 51.6035 38.8098C50.4425 36.4879 49.6667 33.1403 49.6667 29.3333C49.6667 25.5264 50.4425 22.1788 51.6035 19.8569C52.8243 17.4153 54.1407 16.6667 55.0001 16.6667C55.8595 16.6667 57.1759 17.4153 58.3967 19.8569C59.5576 22.1788 60.3334 25.5264 60.3334 29.3333Z" stroke="white" stroke-width="4"/>
</svg>
