<svg width="120" height="120" viewBox="0 0 120 120" fill="none" xmlns="http://www.w3.org/2000/svg">
<mask id="mask0" mask-type="alpha" maskUnits="userSpaceOnUse" x="0" y="0" width="120" height="120">
<path d="M60 120C93.1371 120 120 93.1371 120 60C120 26.8629 93.1371 0 60 0C26.8629 0 0 26.8629 0 60C0 93.1371 26.8629 120 60 120Z" fill="white"/>
</mask>
<g mask="url(#mask0)">
<path d="M60 120C93.1371 120 120 93.1371 120 60C120 26.8629 93.1371 0 60 0C26.8629 0 0 26.8629 0 60C0 93.1371 26.8629 120 60 120Z" fill="#086DA2"/>
<path d="M34.4879 70.125H38.0159V53.373H34.4879V60.045H28.4879V53.373H24.9599V70.125H28.4879V63.045H34.4879V70.125ZM43.5886 68.013C43.8766 68.685 44.2366 69.573 44.2366 70.389C44.2366 71.493 43.4446 72.453 42.1006 72.453C41.4286 72.453 40.6126 72.237 40.2286 72.093V74.829C40.5166 74.949 41.3326 75.165 42.4126 75.165C45.3166 75.165 46.5886 72.957 47.5726 70.869C49.5886 66.621 51.0526 62.133 51.9886 57.885H48.4606C47.9806 61.245 47.0206 64.677 46.0846 67.149C45.8926 65.901 44.6686 62.733 43.8766 57.885H40.3486C41.3806 62.325 43.0846 66.837 43.5886 68.013ZM57.1865 52.749H53.8025V63.453C53.8025 67.077 54.4025 70.437 59.2505 70.437C62.9225 70.437 65.1065 67.869 65.1065 64.005C65.1065 60.261 63.8585 57.573 60.4745 57.573C58.9385 57.573 57.7865 58.293 57.1865 59.181V52.749ZM59.4665 60.381C61.1465 60.381 61.6745 61.797 61.6745 64.005C61.6745 66.213 61.0025 67.725 59.3225 67.725C57.8105 67.725 57.1385 66.741 57.1385 64.005C57.1385 61.797 57.7865 60.381 59.4665 60.381ZM67.8471 70.125H71.2311V63.093C71.2311 61.533 71.8791 60.645 73.4871 60.645C74.0631 60.645 74.5191 60.693 74.9271 60.813V57.741C74.7351 57.693 74.4471 57.621 74.0151 57.621C72.4311 57.621 71.3991 58.581 70.9191 59.445C70.9191 59.085 70.8711 58.341 70.6791 57.885H67.8471V70.125ZM77.0118 70.125H80.3958V57.885H77.0118V70.125ZM76.5558 54.237C76.5558 55.413 77.5158 56.373 78.6918 56.373C79.8678 56.373 80.8278 55.413 80.8278 54.237C80.8278 53.061 79.8678 52.101 78.6918 52.101C77.5158 52.101 76.5558 53.061 76.5558 54.237ZM94.5344 52.749H91.1504V59.157C90.6944 58.389 89.5664 57.573 88.0064 57.573C84.5504 57.573 83.1584 60.117 83.1584 64.005C83.1584 67.893 84.5504 70.437 88.1264 70.437C89.6624 70.437 90.8864 69.597 91.4864 68.661C91.4864 69.021 91.5104 69.669 91.7024 70.125H94.5344V52.749ZM91.1504 64.005C91.1504 66.333 90.5504 67.725 88.8704 67.725C87.1904 67.725 86.5904 66.333 86.5904 64.005C86.5904 61.677 87.1904 60.333 88.8704 60.333C90.5504 60.333 91.1504 61.677 91.1504 64.005Z" fill="white"/>
</g>
</svg>
