<svg width="120" height="120" viewBox="0 0 120 120" fill="none" xmlns="http://www.w3.org/2000/svg">
<mask id="mask0" mask-type="alpha" maskUnits="userSpaceOnUse" x="0" y="0" width="120" height="120">
<path d="M60 120C93.1371 120 120 93.1371 120 60C120 26.8629 93.1371 0 60 0C26.8629 0 0 26.8629 0 60C0 93.1371 26.8629 120 60 120Z" fill="white"/>
</mask>
<g mask="url(#mask0)">
<path d="M60 120C93.1371 120 120 93.1371 120 60C120 26.8629 93.1371 0 60 0C26.8629 0 0 26.8629 0 60C0 93.1371 26.8629 120 60 120Z" fill="#6D325E"/>
<path d="M28.9169 70.125H32.4449V53.373H28.9169V70.125ZM42.8785 57.573C41.0305 57.573 39.6625 58.485 39.1105 59.565C39.1105 59.205 39.0625 58.365 38.8705 57.885H36.0385V70.125H39.4225V63.933C39.4225 61.293 40.3105 60.381 41.8465 60.381C42.6385 60.381 43.1425 60.717 43.3825 61.389C43.5505 61.869 43.6225 62.373 43.6225 63.789V70.125H47.0065V63.045C47.0065 61.629 46.8865 60.549 46.5505 59.733C45.9505 58.245 44.6785 57.573 42.8785 57.573ZM61.0149 52.749H57.6309V59.157C57.1749 58.389 56.0469 57.573 54.4869 57.573C51.0309 57.573 49.6389 60.117 49.6389 64.005C49.6389 67.893 51.0309 70.437 54.6069 70.437C56.1429 70.437 57.3669 69.597 57.9669 68.661C57.9669 69.021 57.9909 69.669 58.1829 70.125H61.0149V52.749ZM57.6309 64.005C57.6309 66.333 57.0309 67.725 55.3509 67.725C53.6709 67.725 53.0709 66.333 53.0709 64.005C53.0709 61.677 53.6709 60.333 55.3509 60.333C57.0309 60.333 57.6309 61.677 57.6309 64.005ZM64.4922 70.125H67.8762V57.885H64.4922V70.125ZM64.0362 54.237C64.0362 55.413 64.9962 56.373 66.1722 56.373C67.3482 56.373 68.3082 55.413 68.3082 54.237C68.3082 53.061 67.3482 52.101 66.1722 52.101C64.9962 52.101 64.0362 53.061 64.0362 54.237ZM79.2789 67.269C78.2949 67.605 77.7189 67.725 76.5669 67.725C74.7669 67.725 73.9749 66.405 73.9749 64.005C73.9749 61.605 74.7669 60.285 76.5669 60.285C77.7189 60.285 78.2949 60.429 79.2789 60.765V58.053C78.4149 57.717 77.5989 57.573 76.2549 57.573C72.5589 57.573 70.5429 60.117 70.5429 64.005C70.5429 67.893 72.5589 70.437 76.2549 70.437C77.5989 70.437 78.4149 70.293 79.2789 69.957V67.269ZM91.6737 62.085C91.6737 58.677 89.7537 57.573 86.8257 57.573C84.9297 57.573 83.2977 57.885 82.1697 58.389V61.125C83.2257 60.693 84.9777 60.261 86.5617 60.261C87.7377 60.261 88.2897 60.693 88.2897 61.293C88.2897 61.869 87.9777 62.205 86.9937 62.445L85.0977 62.925C82.1937 63.645 81.1857 64.989 81.1857 66.861C81.1857 68.829 82.5777 70.389 84.8817 70.389C86.3697 70.389 87.6897 69.885 88.6017 68.757C88.6017 69.117 88.6497 69.669 88.8417 70.125H91.6737V62.085ZM88.2897 65.709C88.2897 67.053 87.4017 67.893 85.9617 67.893C85.1457 67.893 84.5457 67.365 84.5457 66.549C84.5457 65.829 84.8337 65.301 86.1297 64.917L87.5217 64.509C87.9057 64.413 88.1217 64.293 88.2897 64.125V65.709Z" fill="white"/>
</g>
</svg>
