<svg width="120" height="120" viewBox="0 0 120 120" fill="none" xmlns="http://www.w3.org/2000/svg">
<mask id="mask0" mask-type="alpha" maskUnits="userSpaceOnUse" x="0" y="0" width="120" height="120">
<path d="M60 120C93.1371 120 120 93.1371 120 60C120 26.8629 93.1371 0 60 0C26.8629 0 0 26.8629 0 60C0 93.1371 26.8629 120 60 120Z" fill="white"/>
</mask>
<g mask="url(#mask0)">
<path d="M60 120C93.1371 120 120 93.1371 120 60C120 26.8629 93.1371 0 60 0C26.8629 0 0 26.8629 0 60C0 93.1371 26.8629 120 60 120Z" fill="#D34727"/>
<path d="M33.0836 53.061C29.1476 53.061 26.9876 54.933 26.9876 57.933C26.9876 60.525 28.4516 61.989 30.7796 62.757L32.5316 63.333C34.0916 63.837 35.0516 64.413 35.0516 65.565C35.0516 66.957 33.5396 67.557 32.1476 67.557C30.3716 67.557 28.3796 66.909 27.0356 66.237V69.309C28.5236 70.029 30.2996 70.437 32.0756 70.437C35.9636 70.437 38.6996 68.853 38.6996 65.397C38.6996 62.853 37.2596 61.221 34.8836 60.453L32.7476 59.757C31.4516 59.325 30.6356 58.821 30.6356 57.765C30.6356 56.685 31.6436 55.941 33.0356 55.941C34.8116 55.941 36.4436 56.349 37.8596 56.949V53.973C36.4916 53.397 34.8356 53.061 33.0836 53.061ZM51.3026 62.085C51.3026 58.677 49.3826 57.573 46.4546 57.573C44.5586 57.573 42.9266 57.885 41.7986 58.389V61.125C42.8546 60.693 44.6066 60.261 46.1906 60.261C47.3666 60.261 47.9186 60.693 47.9186 61.293C47.9186 61.869 47.6066 62.205 46.6226 62.445L44.7266 62.925C41.8226 63.645 40.8146 64.989 40.8146 66.861C40.8146 68.829 42.2066 70.389 44.5106 70.389C45.9986 70.389 47.3186 69.885 48.2306 68.757C48.2306 69.117 48.2786 69.669 48.4706 70.125H51.3026V62.085ZM47.9186 65.709C47.9186 67.053 47.0306 67.893 45.5906 67.893C44.7746 67.893 44.1746 67.365 44.1746 66.549C44.1746 65.829 44.4626 65.301 45.7586 64.917L47.1506 64.509C47.5346 64.413 47.7506 64.293 47.9186 64.125V65.709ZM55.0676 66.141C55.0676 68.901 56.1716 70.389 59.1236 70.389C60.3236 70.389 61.3796 70.173 61.6676 70.077V67.389C61.1396 67.557 60.4916 67.677 59.8676 67.677C58.8596 67.677 58.4516 67.365 58.4516 65.877V60.453H61.2836V57.885H58.4516V54.285C56.5796 54.453 55.3796 54.957 55.0676 55.125V57.885H53.5076V60.453H55.0676V66.141ZM63.8477 70.125H67.2317V57.885H63.8477V70.125ZM63.3917 54.237C63.3917 55.413 64.3517 56.373 65.5277 56.373C66.7037 56.373 67.6637 55.413 67.6637 54.237C67.6637 53.061 66.7037 52.101 65.5277 52.101C64.3517 52.101 63.3917 53.061 63.3917 54.237ZM76.6423 70.125C78.0583 67.245 80.0023 62.157 80.9623 57.885H77.4343C76.9063 61.245 75.8503 64.725 75.1543 66.645C74.4583 64.725 73.3783 61.245 72.8503 57.885H69.3223C70.2583 62.157 72.2263 67.245 73.6423 70.125H76.6423ZM92.787 62.085C92.787 58.677 90.867 57.573 87.939 57.573C86.043 57.573 84.411 57.885 83.283 58.389V61.125C84.339 60.693 86.091 60.261 87.675 60.261C88.851 60.261 89.403 60.693 89.403 61.293C89.403 61.869 89.091 62.205 88.107 62.445L86.211 62.925C83.307 63.645 82.299 64.989 82.299 66.861C82.299 68.829 83.691 70.389 85.995 70.389C87.483 70.389 88.803 69.885 89.715 68.757C89.715 69.117 89.763 69.669 89.955 70.125H92.787V62.085ZM89.403 65.709C89.403 67.053 88.515 67.893 87.075 67.893C86.259 67.893 85.659 67.365 85.659 66.549C85.659 65.829 85.947 65.301 87.243 64.917L88.635 64.509C89.019 64.413 89.235 64.293 89.403 64.125V65.709Z" fill="white"/>
</g>
</svg>
